<?xml version="1.0" encoding="utf-8"?>
<!-- Generator: Adobe Illustrator 16.0.0, SVG Export Plug-In . SVG Version: 6.00 Build 0)  -->
<!DOCTYPE svg PUBLIC "-//W3C//DTD SVG 1.1//EN" "http://www.w3.org/Graphics/SVG/1.1/DTD/svg11.dtd">
<svg version="1.1" id="Layer_1" xmlns="http://www.w3.org/2000/svg" xmlns:xlink="http://www.w3.org/1999/xlink" x="0px" y="0px"
	 width="800px" height="800px" viewBox="0 0 800 800" enable-background="new 0 0 800 800" xml:space="preserve">
<g>
	<path fill="#F9DAD9" d="M529.063,234.283c-23.785,0.91-46.209-4.089-67.265-14.997c-14.239-7.423-25.9-21.284-34.991-41.584
		c-9.848-21.966-11.821-42.267-5.911-60.899c8.938-28.479,23.104-50.521,42.496-66.125c15.903-12.724,34.085-20.376,54.534-22.951
		l1.14,22.498l17.496-6.135c2.419,6.362,6.587,13.253,12.497,20.676c6.965-0.756,19.996-3.938,39.085-9.542
		c16.206,25.753,23.251,53.55,21.13,83.395c-1.819,25.451-9.39,47.19-22.724,65.216c23.029-1.514,45.144,2.956,66.354,13.407
		c25.905,12.726,48.553,33.783,67.942,63.172c19.694,29.994,27.345,59.385,22.949,88.167c-3.939,25.45-16.206,46.355-36.812,62.714
		c-18.782,14.997-39.992,23.785-63.626,26.36c-23.629,2.726-46.811-1.063-69.536-11.363c1.063,13.636-0.604,30.073-4.999,49.313
		c13.183-4.093,26.667-5.911,40.45-5.457c14.846,0.307,28.557,3.26,41.13,8.862c23.023,10.302,40.37,31.587,52.04,63.854
		c10.603,29.39,13.782,58.93,9.54,88.621c-6.818,47.872-27.344,82.336-61.58,103.391c-33.174,20.454-70.746,23.558-112.708,9.317
		c-37.719-12.726-63.475-37.267-77.257-73.624c-11.974-31.511-12.502-61.354-1.593-89.532c-23.331,6.822-47.036,7.806-71.125,2.958
		c-18.784-3.789-35.524-10.456-50.219-20.001c3.636,28.331-2.424,54.918-18.179,79.762c-12.271,19.542-26.965,33.783-44.083,42.724
		c-37.873,19.844-76.501,21.284-115.89,4.313c-37.417-15.903-65.367-43.397-83.849-82.481
		c-17.27-36.665-23.253-74.764-17.952-114.302c5.302-39.084,19.618-66.428,42.947-82.028c21.815-14.694,49.462-18.866,82.941-12.497
		c30.298,5.755,59.081,18.555,86.35,38.398c-0.607-14.693,0.681-31.282,3.863-49.768c-29.086-3.634-51.887-11.281-68.398-22.946
		c-16.36-11.513-30.223-29.691-41.584-54.535c-11.968-26.056-15.377-57.037-10.225-92.939c5.453-37.873,18.708-63.248,39.765-76.123
		c33.176-20.149,71.504-19.315,114.981,2.5c18.937,9.391,35.524,21.739,49.765,37.039c14.694,15.453,24.844,31.737,30.45,48.855
		c19.541-7.272,39.915-8.862,61.125-4.772c22.42,4.089,41.887,14.014,58.4,29.767C512.927,258.597,519.972,245.039,529.063,234.283"
		/>
	<path fill="#ED8599" d="M289.783,275.413l-49.536,31.13c5.301-3.938,12.497-11.663,21.586-23.178l17.952-23.178
		C283.118,266.703,286.45,271.777,289.783,275.413"/>
	<path fill="#ED8599" d="M613.138,630.575c19.088,2.58,35.678,7.654,49.764,15.229l-66.354-2.047
		c-16.514,1.513-34.922,4.849-55.22,9.998c1.819-4.695,3.638-11.358,5.452-19.996C568.449,628.459,590.563,627.4,613.138,630.575"/>
	<path fill="#ED8599" d="M708.575,336.083c-14.24,1.819-31.813,7.271-52.72,16.362c-16.665,7.12-33.478,15.602-50.448,25.451
		c12.275-18.028,27.952-31.057,47.041-39.084C671.532,330.933,690.247,330.026,708.575,336.083"/>
	<path fill="#FFE100" d="M571.101,99.306l-7.729,0.454l3.638,22.498l-42.036,17.27l-14.316-1.592v-16.36l-12.725-15.453
		l-25.681-4.772l9.771-13.178c4.243-5.304,7.726-9.242,10.456-11.817c15.903-9.696,32.414-11.512,49.536-5.453
		C558.068,76.506,567.765,85.975,571.101,99.306"/>
	<path fill="#FFFFFF" d="M195.708,282.229c-4.545,5.303-11.134,10.983-19.769,17.042c-3.031-4.696-7.12-13.785-12.271-27.268
		c-1.514-4.089-1.59-6.969-0.227-8.635l5.226-0.227l25.224,10.907c2.12,0.756,3.256,2.119,3.407,4.09L195.708,282.229"/>
	<path fill="#FFFFFF" d="M272.74,207.242c4.243,7.423,7.954,18.028,11.134,31.813c-4.848,3.333-14.163,7.803-27.95,13.407
		l-28.177,9.998c-4.848,1.514-7.423,0.531-7.725-2.953c-0.302-3.183,0.985-6.211,3.863-9.091l19.088-21.586l20.679-24.997
		C266.681,200.046,269.711,201.183,272.74,207.242"/>
	<path fill="#FFFFFF" d="M445.896,432.653c3.936,0.458,5.522,2.883,4.768,7.276c-0.757,3.784-2.046,6.209-3.861,7.268
		c-15.602,8.334-32.572,14.019-50.898,17.043c-15.453,2.428-25.678,2.428-30.677,0c-6.211-2.873-12.878-18.178-19.998-45.898
		c-1.212-4.545-0.605-7.423,1.819-8.637l7.726,0.453c9.09,3.94,23.861,8.41,44.31,13.409L445.896,432.653"/>
	<path fill="#FFFFFF" d="M537.236,360.625c1.063-2.424,2.58-3.18,4.545-2.271c1.673,0.756,2.958,2.271,3.865,4.543
		c3.481,7.728,5.76,16.06,6.817,24.997c1.06,8.786,0.681,14.77-1.139,17.95c-1.664,2.878-7.65,6.512-17.95,10.905
		c-9.847,4.242-18.182,6.969-24.995,8.184c-1.817,0.453-4.167-0.836-7.045-3.864c-3.027-3.331-2.953-6.517,0.229-9.545
		C515.194,398.802,527.087,381.834,537.236,360.625"/>
	<path fill="#FFFFFF" d="M600.187,277.23c-1.365,15.906-8.031,26.814-19.995,32.722c-9.242,4.545-19.851,5.757-31.817,3.636
		c-2.878-0.454-4.313-1.514-4.313-3.182c0-1.514,0.906-2.802,2.722-3.863c17.426-11.512,33.632-23.48,48.629-35.902
		c1.214-1.061,2.349-0.758,3.411,0.91C600.035,273.065,600.488,274.957,600.187,277.23"/>
	<path fill="#FFFFFF" d="M703.572,257.007l1.822,2.726l-5.684,6.135c-3.331,2.727-7.045,4.772-11.137,6.135
		c-9.086,2.878-18.177-1.287-27.264-12.497c-3.185-4.243-1.743-5.984,4.313-5.226L703.572,257.007"/>
	<path fill="#FFFFFF" d="M627.228,573.088c1.966,1.36,2.649,3.185,2.046,5.452c-0.609,2.277-2.43,3.487-5.457,3.639l-41.126-0.228
		c-20.303-0.761-31.132-2.121-32.498-4.092c-1.365-2.121-1.738-7.498-1.134-16.131c0.604-7.125,1.588-13.712,2.952-19.773
		c1.814-7.568,3.559-11.741,5.227-12.497c0.757-0.454,2.727,0.382,5.911,2.499C592.229,549.987,613.591,563.694,627.228,573.088"/>
	<path fill="#FFFFFF" d="M696.305,576.727c-0.302,10.45-1.817,19.765-4.545,27.947c-6.516-2.122-13.863-5.905-22.042-11.358
		c-2.575-1.823-3.558-3.865-2.953-6.139c0.605-1.97,1.896-3.405,3.86-4.317c3.487-1.214,10.301-4.923,20.45-11.132
		c1.365-0.912,2.649-0.687,3.864,0.681C696.003,573.621,696.456,575.059,696.305,576.727"/>
	<path fill="#FFFFFF" d="M85.272,577.859c1.968-1.063,4.467-0.453,7.498,1.819c11.059,8.026,28.253,16.356,51.582,24.994
		c2.272,0.907,3.182,2.272,2.727,4.093l-4.09,4.545l-14.77,8.179c-6.06,2.424-11.968,3.256-17.725,2.499
		c-6.06-0.76-11.966-5.527-17.724-14.316c-4.999-7.572-8.181-15.071-9.544-22.495C82.317,582.179,83,579.074,85.272,577.859"/>
	<path fill="#FFFFFF" d="M246.609,511.961c14.845,23.029,21.435,36.435,19.769,40.225c-1.666,3.936-10.378,10.225-26.131,18.855
		c-14.999,8.486-26.663,13.863-34.995,16.136c-4.545,1.211-7.499,0.682-8.861-1.592c-1.212-2.117-1.061-5.075,0.453-8.858
		c3.183-8.185,9.318-19.622,18.406-34.317l21.815-33.4c1.363-1.97,3.029-2.499,4.999-1.592L246.609,511.961"/>
	<path fill="#D7BDBC" d="M574.054,418.115c2.574,10.754,2.877,24.465,0.906,41.125c-1.513,12.881-4.092,25.681-7.726,38.404
		c-24.844,2.272-49.46,17.119-73.852,44.542c-20.751,23.327-32.724,43.55-35.903,60.672l-23.407,3.407
		c-35.746,2.42-67.483-4.396-95.207-20.449c-1.363-25-9.164-49.844-23.405-74.535c21.966,13.479,47.493,21.89,76.579,25.221
		c28.78,3.336,56.354,1.21,82.709-6.358c28.028-8.032,50.601-21.06,67.718-39.084C561.556,471.213,572.082,446.896,574.054,418.115"
		/>
	<path fill="#D7BDBC" d="M296.828,485.605c35.146,43.775,48.022,89.83,38.629,138.155c-4.392,22.421-13.634,41.584-27.721,57.488
		c-14.846,16.816-33.708,28.33-56.583,34.539c-32.115,8.938-62.641,7.428-91.574-4.545c-24.695-10.149-45.902-26.738-63.625-49.764
		c23.176,13.026,48.626,17.955,76.35,14.771c26.814-3.027,51.128-12.951,72.943-29.767c22.873-17.572,39.084-39.689,48.626-66.354
		C304.478,550.743,305.462,519.232,296.828,485.605"/>
	<path fill="#D7BDBC" d="M328.867,177.246c13.785,8.939,26.056,19.542,36.812,31.813c12.573,14.393,19.845,27.95,21.815,40.677
		c-33.327,13.633-59.99,36.053-79.986,67.261c-16.211,25.451-27.799,56.278-34.768,92.48c-22.42-2.877-42.189-9.693-59.307-20.447
		c-15.15-9.544-26.965-21.134-35.449-34.768c49.688,5.758,90.591-11.89,122.706-52.945c13.936-17.876,23.481-37.796,28.631-59.762
		C334.625,219.135,334.474,197.698,328.867,177.246"/>
	<path fill="#D7BDBC" d="M574.054,445.609c0.604-10.451,0.303-23.63-0.907-39.538c50.141,2.271,88.539-8.862,115.206-33.403
		c29.391-26.965,36.133-64.155,20.224-111.572c25.298,33.783,37.567,65.747,36.813,95.895c-0.604,25.751-10.301,47.87-29.087,66.35
		c-17.571,17.118-38.706,27.948-63.397,32.493C626.542,460.683,600.257,457.275,574.054,445.609"/>
	<path fill="#D7BDBC" d="M471.569,570.361c-3.028,24.691,1.517,48.553,13.632,71.577c11.665,21.967,28.633,39.997,50.901,54.086
		c23.023,14.388,48.1,22.192,75.216,23.402c29.69,1.36,58.551-5.302,86.579-19.995c-15.455,36.812-42.647,59.835-81.58,69.077
		c-33.628,8.032-65.597,4.545-95.894-10.451c-44.536-21.967-67.642-56.66-69.31-104.075c-0.756-16.815,1.441-33.93,6.592-51.354
		C461.798,588.689,466.419,577.937,471.569,570.361"/>
	<path fill="#D7BDBC" d="M452.707,212.241c-27.568-22.269-38.479-52.265-32.72-89.984c6.97,14.239,18.025,26.056,33.174,35.447
		c14.846,9.09,31.436,14.543,49.769,16.362c42.565,4.089,77.938-10.68,106.115-44.31c0,13.785-1.895,26.738-5.679,38.857
		c-4.696,14.997-11.969,27.192-21.815,36.583c-11.212,1.668-21.512,5.152-30.904,10.454c-9.39,5.15-16.585,11.437-21.584,18.86
		C502.093,238.904,476.645,231.481,452.707,212.241"/>
	<path fill="#DCC200" d="M544.966,72.266c6.36,2.119,11.894,5.679,16.59,10.678c4.849,5.001,8.027,10.605,9.545,16.816l-7.952-0.454
		l4.768,22.951l-41.353,17.497l-15.683-2.046l-0.453-16.36l-7.729-10.907c12.88,4.241,24.168,2.197,33.863-6.135
		C546.256,95.67,549.059,84.99,544.966,72.266"/>
	<path fill="#CE7486" d="M647.223,341.765c14.09-6.211,28.25-9.013,42.491-8.408c7.12,0.454,12.88,1.439,17.271,2.956l-24.084,5.908
		l-25.228-1.592L647.223,341.765"/>
	<path fill="#CE7486" d="M631.087,634.214c3.94,1.059,12.422,4.395,25.448,9.997l-29.993-1.134
		c-5.604-4.092-14.771-7.653-27.494-10.679l-17.497-3.185C600.035,628.309,616.544,629.972,631.087,634.214"/>
	<path fill="#0D131A" d="M106.858,423.567c23.026-12.725,53.25-14.393,90.668-4.999c46.81,11.666,85.211,39.688,115.208,84.08
		c26.207,38.626,35.297,78.692,27.268,120.206c-8.182,42.265-31.435,72.106-69.761,89.527
		c-34.388,15.603-70.366,17.043-107.936,4.318c-41.357-13.938-71.882-42.193-91.576-84.76
		c-15.906-34.69-21.739-72.41-17.497-113.162C58.08,472.271,75.955,440.535,106.858,423.567 M202.752,426.979
		c-37.268-11.367-67.717-10.531-91.349,2.5c-29.994,16.66-47.112,46.653-51.355,89.98C56.261,557.334,62.245,593.083,78,626.715
		c19.086,40.598,47.719,67.944,85.894,82.029c35.146,12.88,69.232,11.973,102.257-2.722c38.478-16.973,60.746-46.433,66.806-88.397
		c5.455-38.173-2.953-74.606-25.222-109.302C281.375,467.424,246.382,440.309,202.752,426.979"/>
	<path fill="#0D131A" d="M109.357,588.315l7.272,3.634c2.577,7.726,2.729,12.044,0.456,12.951c-1.212,0.458-2.726-1.135-4.545-4.772
		C110.723,596.49,109.662,592.555,109.357,588.315"/>
	<path fill="#0D131A" d="M211.614,548.093l2.499-4.092c3.031,2.424,5.455,6.059,7.272,10.905c1.514,4.545,1.59,7.275,0.227,8.184
		c-1.212,0.757-3.029-0.681-5.453-4.317C213.887,555.139,212.372,551.579,211.614,548.093"/>
	<path fill="#0D131A" d="M280.466,637.62c4.243,0.151,6.364,0.761,6.364,1.819c0,1.063-2.046,1.668-6.136,1.817
		c-24.694,1.06-45.371,4.013-62.035,8.859c-23.48,6.823-42.038,18.031-55.674,33.633c-1.817,2.121-3.18,2.802-4.089,2.045
		c-0.758-0.756-0.303-2.271,1.363-4.545C183.135,650.197,223.204,635.654,280.466,637.62"/>
	<path fill="#0D131A" d="M628.588,571.495c2.121,1.518,2.877,2.73,2.272,3.638l-4.087-0.452
		c-36.515-23.332-60.603-38.404-72.264-45.223l2.047-4.313C581.249,539.077,605.256,554.532,628.588,571.495"/>
	<path fill="#0D131A" d="M624.496,581.271c2.428,0,3.638,0.374,3.638,1.135c0,0.911-1.21,1.437-3.638,1.587
		c-8.938,0.912-22.042,1.063-39.307,0.459l-36.816-3.865l-1.36-1.36c-0.907-3.94-0.907-9.928,0-17.954
		c0.906-7.12,2.269-13.632,4.092-19.538c0.906-2.73,1.663-3.869,2.269-3.411l0.453,4.546c-2.57,16.061-3.331,26.965-2.268,32.72
		l35.673,4.093L624.496,581.271"/>
	<path fill="#0D131A" d="M620.636,628.988c22.57,4.238,41.201,12.497,55.896,24.768c1.673,1.518,2.126,2.728,1.364,3.639
		l-3.863-0.686c-14.847-11.51-33.628-19.089-56.35-22.723c-23.635-3.784-47.948-2.802-72.943,2.953
		c-2.575,0.608-4.017,0.308-4.318-0.907c-0.303-1.063,0.756-1.97,3.186-2.726C569.658,625.729,595.338,624.291,620.636,628.988"/>
	<path fill="#0D131A" d="M604.954,558.544l4.318,2.728c-0.304,2.727-1.588,5.76-3.865,9.091c-2.269,3.482-4.012,4.848-5.222,4.087
		c-1.365-0.756-1.44-3.024-0.23-6.813C601.169,563.997,602.837,560.968,604.954,558.544"/>
	<path fill="#0D131A" d="M679.263,577.406l6.359-3.412l-1.592,9.776c-1.21,3.481-2.345,5.068-3.407,4.768
		C678.809,587.935,678.354,584.225,679.263,577.406"/>
	<path fill="#0D131A" d="M445.209,430.612c3.64,0.604,5.382,1.437,5.227,2.499c-0.151,1.215-2.041,1.668-5.68,1.366
		c-16.815-1.366-34.689-4.626-53.626-9.776c-17.726-4.848-34.463-10.754-50.219-17.723c-2.726-1.21-3.938-2.35-3.636-3.407
		l4.772-0.228C384.919,418.19,419.308,427.281,445.209,430.612"/>
	<path fill="#0D131A" d="M441.35,447.197c4.395-1.814,6.662-2.193,6.813-1.135c0.303,1.063-1.743,2.727-6.133,4.999
		c-13.787,6.817-29.918,11.816-48.4,15.002c-17.27,3.023-27.572,3.175-30.903,0.453c-5.152-3.94-9.695-11.974-13.634-24.087
		c-2.272-7.429-4.091-15.301-5.455-23.636c-0.303-3.18,0.151-4.848,1.363-4.998c1.061-0.303,1.895,1.139,2.499,4.318
		c1.363,7.876,3.711,15.904,7.045,24.083c3.938,9.544,7.954,15.908,12.044,19.089l26.813-0.908
		C410.821,457.806,426.807,453.41,441.35,447.197"/>
	<path fill="#0D131A" d="M543.374,358.354c1.06-0.456,2.121,0.378,3.186,2.5c3.936,7.271,6.586,15.982,7.951,26.131
		c1.21,8.181,1.289,14.467,0.228,18.86c-0.761,3.784-6.44,7.952-17.043,12.497c-9.695,3.94-19.467,6.662-29.313,8.18
		c-2.574,0.307-4.012,0-4.317-0.907c-0.151-1.063,1.063-1.819,3.634-2.272c8.637-1.818,17.728-4.999,27.271-9.544
		c9.092-4.395,13.858-7.726,14.313-9.998c0.761-3.785,0.685-9.618-0.223-17.495c-1.063-9.09-2.953-16.967-5.685-23.634
		C542.315,360.397,542.315,358.959,543.374,358.354"/>
	<path fill="#0D131A" d="M360.227,491.738c-0.305-2.575,0-3.864,0.907-3.864c1.061,0,1.97,1.214,2.729,3.639
		c1.817,5.604,8.33,10.225,19.542,13.857c12.573,4.092,28.858,6.063,48.853,5.911c19.996-0.151,39.313-2.425,57.942-6.818
		c16.211-3.789,27.952-8.104,35.224-12.95c2.575-1.819,4.163-2.272,4.772-1.365c0.756,0.912-0.151,2.348-2.727,4.317
		c-7.429,5.906-19.543,11.138-36.358,15.683c-18.938,5.149-38.631,7.801-59.085,7.952c-22.718,0.15-40.367-2.277-52.94-7.276
		C367.574,506.131,361.287,499.768,360.227,491.738"/>
	<path fill="#0D131A" d="M655.855,349.49c16.361-6.815,30.829-11.361,43.401-13.634c-13.636-2.424-28.553-0.378-44.768,6.135
		c-16.207,6.667-29.914,16.285-41.126,28.86C626.239,362.973,640.404,355.853,655.855,349.49 M602.454,380.85
		c-0.604-0.607-0.378-1.741,0.686-3.409c12.114-19.24,28.703-32.949,49.764-41.128c20.146-7.728,38.933-8.257,56.354-1.592
		c2.272,0.91,3.256,1.668,2.953,2.273l-3.406,1.363c-13.938,2.122-30.98,7.272-51.129,15.453
		c-19.995,8.182-37.341,16.967-52.034,26.358L602.454,380.85"/>
	<path fill="#0D131A" d="M701.072,254.281l2.73,4.543c-17.118,0.909-35.603-1.137-55.446-6.136
		c-2.425-0.604-3.635-1.438-3.635-2.499c0.151-1.061,1.438-1.363,3.86-0.91C671.008,253.066,688.504,254.734,701.072,254.281"/>
	<path fill="#0D131A" d="M702.896,257.234l3.633,3.18c-2.121,3.789-4.923,7.045-8.41,9.771c-4.087,3.333-8.33,5.228-12.72,5.682
		c-3.94,0.456-8.032-0.378-12.274-2.5c-5.453-2.575-9.923-6.74-13.405-12.498c-1.059-1.819-1.289-3.106-0.685-3.862
		c0.761-0.607,1.668-0.076,2.729,1.59c3.331,4.545,7.116,7.955,11.359,10.225c3.94,1.97,7.881,2.804,11.816,2.502
		c3.634-0.305,7.045-1.744,10.225-4.319C698.351,264.43,700.922,261.172,702.896,257.234"/>
	<path fill="#0D131A" d="M670.172,242.464l-3.181-9.998c-0.76-1.517-4.242-5.53-10.456-12.043l9.545,3.636l5.452,7.042l5.685,23.407
		l-3.639,1.136L670.172,242.464"/>
	<path fill="#0D131A" d="M273.194,188.609c1.668-2.122,2.956-2.802,3.865-2.046c1.061,0.758,0.756,2.272-0.909,4.545
		c-19.542,26.814-38.631,49.233-57.264,67.261c-1.817,1.666-2.953,2.122-3.409,1.363c-0.604-0.909-0.075-2.272,1.592-4.089
		L273.194,188.609"/>
	<path fill="#0D131A" d="M306.599,319.723l-3.862,5.909l-7.045-20.452c-3.636-9.088-5.833-15.68-6.591-19.769
		c-0.605-2.273-0.454-3.561,0.456-3.863c0.91-0.302,1.666,0.605,2.273,2.726L306.599,319.723"/>
	<path fill="#0D131A" d="M317.96,303.59l-3.862,5.453l-15.226-2.273l-2.271-5.226L317.96,303.59"/>
	<path fill="#0D131A" d="M179.121,267.232l5.453,2.953l1.817,5.228c0.305,2.272-0.076,3.636-1.134,4.089
		c-1.061,0.607-2.499-0.832-4.318-4.316C179.121,271.702,178.514,269.051,179.121,267.232"/>
	<path fill="#0D131A" d="M250.472,219.286l2.272-2.727c3.029,1.968,5.302,4.848,6.816,8.635c1.363,3.484,1.363,5.604,0,6.362
		c-1.212,0.758-2.953-0.303-5.226-3.183C251.911,225.346,250.623,222.314,250.472,219.286"/>
	<path fill="#0D131A" d="M372.724,414.936l4.316,1.814c1.061,2.121,1.366,5.452,0.91,9.997c-0.454,4.697-1.59,6.97-3.409,6.818
		c-2.273-0.303-3.482-3.028-3.636-8.18C370.905,420.69,371.512,417.203,372.724,414.936"/>
	<path fill="#0D131A" d="M512.474,402.438l2.5-4.318c2.115,2.88,3.18,6.284,3.18,10.225c0.151,3.482-0.378,5.378-1.588,5.681
		c-1.214,0.303-2.277-1.135-3.186-4.318C512.474,406.827,512.17,404.403,512.474,402.438"/>
	<path fill="#0D131A" d="M580.412,281.775l1.819-2.046c2.122,1.212,3.411,3.258,3.865,6.135c0.452,2.729,0.07,4.243-1.14,4.545
		c-1.21,0.454-2.424-0.378-3.638-2.5C580.11,285.638,579.809,283.594,580.412,281.775"/>
	<path fill="#0D131A" d="M672.897,254.734l3.634,0.681c0.912,1.212,1.365,2.955,1.365,5.228c-0.15,2.424-0.681,3.711-1.588,3.863
		c-1.517,0.604-2.65-0.378-3.411-2.953C672.293,259.129,672.293,256.856,672.897,254.734"/>
	<path fill="#0D131A" d="M568.822,100.669c-1.361-6.818-4.848-12.724-10.451-17.726c-5.302-4.999-12.195-8.635-20.677-10.907
		c-8.784-2.424-18.105-2.349-27.952,0.229c-9.242,2.271-16.963,6.135-23.176,11.588l4.999-9.544
		c5.91-4.089,13.105-6.967,21.588-8.635c9.389-1.968,18.025-1.893,25.906,0.229c19.392,5.453,30.977,16.813,34.762,34.083
		L568.822,100.669"/>
	<path fill="#0D131A" d="M337.502,588.315l0.683-7.956c31.964,19.239,68.7,25.453,110.208,18.63l10.904-2.268l-2.952,4.545
		l-2.73,4.768l-3.634,0.686C408.321,613.688,370.83,607.551,337.502,588.315"/>
	<path fill="#0D131A" d="M568.146,411.523c-7.429-51.504-24.772-92.254-52.04-122.25c-27.269-29.994-59.609-43.856-97.03-41.584
		c-39.383,2.424-73.619,23.635-102.706,63.626c-30.752,42.267-45.295,92.333-43.63,150.203l-8.181-6.364
		c-0.454-58.625,15.378-108.768,47.493-150.426c30.298-39.39,65.747-60.293,106.345-62.717
		c39.084-2.273,72.941,11.588,101.575,41.584c29.39,30.903,48.096,73.699,56.128,128.384c4.242,29.847,3.255,57.341-2.953,82.486
		l-8.639,2.953C571.629,471.97,572.843,443.337,568.146,411.523"/>
	<path fill="#0D131A" d="M540.647,348.127c1.214-2.575,2.349-3.636,3.411-3.18c1.059,0.454,1.059,2.043,0,4.771
		c-11.062,29.843-25.453,51.432-43.177,64.758c-2.574,1.971-4.168,2.5-4.771,1.593c-0.761-0.912,0.076-2.349,2.5-4.318
		C512.695,399.482,526.714,378.274,540.647,348.127"/>
	<path fill="#0D131A" d="M254.788,294.955l-4.09,4.316l34.54-24.995l-5.909-10.225L254.788,294.955 M233.883,313.815l-19.086,11.59
		l-4.545,0.681c-0.605-0.756,0.302-1.817,2.726-3.18c14.09-7.423,27.27-18.179,39.541-32.269l24.312-31.813l2.273-2.5
		c0.909-0.151,1.895,0.759,2.955,2.727c2.575,5.152,5.604,10,9.088,14.543c1.061,1.363,0.91,2.424-0.454,3.183L233.883,313.815"/>
	<path fill="#0D131A" d="M360.907,209.288c-22.42-27.572-51.884-45.751-88.394-54.537c-36.51-8.635-64.384-4.09-83.622,13.633
		c-23.634,21.815-34.995,54.311-34.085,97.484c0.756,44.235,14.543,79.457,41.354,105.664
		c10.303,10.151,22.271,18.179,35.905,24.087c13.18,5.606,26.965,8.859,41.357,9.771l-0.909,6.587
		c-15.755-1.365-30.525-4.849-44.311-10.449c-14.846-6.061-27.497-14.241-37.948-24.542c-27.117-26.51-41.054-63.02-41.812-109.527
		c-0.605-45.749,11.515-80.062,36.358-102.937c20.3-18.784,49.689-23.859,88.167-15.224c39.085,8.635,70.746,27.873,94.985,57.717
		c9.847,12.12,17.876,26.509,24.087,43.174l-6.591,1.592C379.693,236.329,371.512,222.163,360.907,209.288"/>
	<path fill="#0D131A" d="M158.213,259.28c-1.665-1.062-2.194-2.046-1.59-2.956c0.456-1.061,1.515-1.061,3.183,0
		c10.603,5.606,22.042,10.832,34.312,15.68c2.575,1.061,3.711,1.97,3.409,2.727l-4.772-0.227
		C179.423,270.717,167.909,265.642,158.213,259.28"/>
	<path fill="#0D131A" d="M195.481,280.185c1.363-1.667,2.5-2.272,3.409-1.819c0.907,0.456,0.681,1.59-0.683,3.409
		c-4.241,5.757-10.681,12.119-19.315,19.088c-2.877,2.273-4.923,1.968-6.135-0.91c-4.089-8.635-7.649-17.649-10.678-27.041
		c-0.758-2.122-0.683-3.409,0.227-3.863c0.756-0.456,1.59,0.378,2.5,2.5c3.938,10.452,7.952,18.784,12.044,24.995
		C183.664,292.151,189.875,286.698,195.481,280.185"/>
	<path fill="#0D131A" d="M271.604,209.515c-1.666-3.938-1.968-5.908-0.91-5.908l3.636,3.636c4.545,8.181,8.181,16.967,10.908,26.36
		l0.683,5.679l-3.182,3.409c-5.453,3.485-13.785,7.423-24.995,11.817l-27.95,8.861c-2.726,0.758-4.318,0.758-4.772,0
		c-0.454-0.758,0.758-1.666,3.636-2.726c9.998-3.333,20.072-7.196,30.223-11.59c10.756-4.696,18.179-8.559,22.269-11.588
		C279.178,229.74,275.998,220.422,271.604,209.515"/>
	<path fill="#0D131A" d="M276.83,261.779l-2.27,3.18l-4.546-5.452l-22.269-4.772l7.726-2.726l15.906,4.089
		C273.194,256.856,275.013,258.748,276.83,261.779"/>
	<path fill="#0D131A" d="M242.973,229.966l-5.455,5.906c0-3.938,0.834-18.101,2.5-42.491c-4.543-4.999-9.013-14.467-13.407-28.406
		c-10.603-4.694-17.647-8.406-21.132-11.134l5.682-2.271c2.878,1.968,8.862,5.453,17.95,10.452l0.91,1.136l5.455,14.087
		c3.029,6.818,5.984,11.741,8.862,14.772l0.454,1.363L242.973,229.966"/>
	<path fill="#0D131A" d="M72.092,567.635c-2.122-1.818-2.802-3.185-2.046-4.092c0.607-0.907,2.046-0.604,4.318,0.907
		c12.422,8.939,25.753,17.123,39.994,24.541c15.299,7.882,27.268,12.653,35.902,14.321c3.333,0.604,4.848,1.437,4.545,2.5
		c-0.151,1.209-1.895,1.587-5.229,1.134c-11.663-1.668-24.843-6.364-39.538-14.09C96.558,585.736,83.909,577.33,72.092,567.635"/>
	<path fill="#0D131A" d="M83,583.771c0.758-0.304,1.439,0.756,2.046,3.18c2.119,8.935,5.906,16.815,11.361,23.63
		c5.453,6.517,10.756,10.077,15.907,10.684l12.271-1.594c6.211-1.663,12.195-4.241,17.952-7.725
		c1.968-1.063,3.256-1.285,3.863-0.681c0.605,0.756,0,1.742-1.819,2.952c-5.453,3.789-11.664,6.97-18.633,9.545
		c-6.818,2.424-11.893,3.406-15.224,2.952c-6.06-0.604-11.893-4.848-17.499-12.724c-5.604-7.726-9.24-16.514-10.908-26.36
		C81.863,585.358,82.09,584.072,83,583.771"/>
	<path fill="#0D131A" d="M255.924,480.829c1.97-2.117,3.409-2.878,4.318-2.269c0.91,0.756,0.454,2.269-1.363,4.545
		c-29.845,39.539-51.355,73.998-64.535,103.387c-1.061,2.579-2.197,3.638-3.409,3.185c-1.061-0.453-1.061-2.046,0-4.771
		C204.418,549.756,226.082,515.065,255.924,480.829"/>
	<path fill="#0D131A" d="M244.336,512.188c-1.061-1.818-1.288-3.028-0.683-3.633c0.607-0.454,1.592,0.074,2.956,1.592l13.18,18.631
		c4.392,7.271,7.348,13.178,8.862,17.723c1.817,4.243,0.91,8.104-2.727,11.591c-4.696,4.546-14.014,10.376-27.95,17.496
		c-13.331,6.818-24.087,11.363-32.269,13.637c-2.575,0.756-4.014,0.528-4.316-0.686c-0.302-1.21,0.756-2.197,3.18-2.953
		c6.667-1.966,16.514-6.591,29.542-13.857c13.482-7.429,22.495-13.334,27.041-17.729c2.272-2.117,2.953-4.395,2.043-6.813
		C260.167,538.246,253.881,526.58,244.336,512.188"/>
	<path fill="#0D131A" d="M241.61,571.272c11.059,0,18.025,0.827,20.905,2.5l25.222,18.402l25.677,19.543
		c3.333,3.181,5.984,18.938,7.955,47.264l-4.999,10.679c0.604-8.48-0.38-19.693-2.956-33.628c-2.27-12.875-4.165-20-5.679-21.36
		l-24.541-19.089l-23.634-17.724l-9.771-1.588l-17.27-0.911L241.61,571.272"/>
	<path fill="#0D131A" d="M338.412,599.675l0.454,5.685c-3.484,1.059-7.952,2.873-13.407,5.452c-5.301,2.57-9.771,4.999-13.407,7.268
		l-0.454-4.999C321.898,606.568,330.838,602.1,338.412,599.675"/>
	<path fill="#0D131A" d="M668.579,507.416c22.878,17.879,37.724,45.146,44.537,81.808c6.821,36.813,3.563,72.717-9.768,107.709
		c-13.938,36.962-39.387,60.976-76.354,72.03c-33.479,9.998-68.242,7.579-104.298-7.271c-35.45-14.388-59.004-40.602-70.67-78.622
		c-13.027-41.962-5.075-83.772,23.86-125.433c24.088-34.539,56.58-56.511,97.479-65.898
		C612.301,482.799,644.038,488.025,668.579,507.416 M696.073,694.434c12.274-32.12,16.061-65.294,11.368-99.53
		c-5.003-36.813-19.09-64.387-42.27-82.715c-22.42-17.724-51.431-22.797-87.027-15.224c-39.236,8.184-71.124,29.843-95.666,64.986
		c-27.12,38.933-34.543,78.551-22.272,118.846c11.058,36.357,32.796,61.126,65.218,74.31c36.66,14.995,71.05,16.891,103.164,5.679
		C661.01,749.421,683.505,727.304,696.073,694.434"/>
	<path fill="#0D131A" d="M695.166,566.496l3.639-0.223c0.604,0.908,0.151,2.042-1.364,3.407
		c-6.818,5.604-16.362,10.979-28.63,16.136l-4.092-0.231c-0.453-1.059,0.304-2.117,2.272-3.18L695.166,566.496"/>
	<path fill="#0D131A" d="M693.806,577.633c0.303-2.424,0.831-3.559,1.593-3.406c0.756,0,1.21,1.21,1.36,3.634
		c0.907,11.969,0,21.361-2.727,28.175c-0.609,1.668-1.819,2.126-3.634,1.365c-8.485-3.634-15.305-7.573-20.454-11.816
		c-1.971-1.513-2.574-2.5-1.818-2.953c0.756-0.604,2.121-0.228,4.092,1.14l7.952,3.859l10.451,4.093
		C691.986,597.326,693.05,589.299,693.806,577.633"/>
	<path fill="#0D131A" d="M686.076,603.313l5.229,2.5l4.314,13.856l2.499,11.591c0,3.486-1.285,8.027-3.86,13.637
		c-3.485,7.721-9.015,16.056-16.589,24.995c-1.813,16.659-4.243,27.646-7.271,32.945c-2.121,3.94-7.574,10.381-16.362,19.315
		c-10.451,10.606-20.525,19.239-30.221,25.906l-4.541,0.681c-0.609-0.911,0.15-2.196,2.269-3.864
		c7.881-5.604,17.118-14.241,27.727-25.902c8.633-9.694,14.01-16.361,16.131-19.995l4.771-12.729l3.186-17.265l0.453-1.14
		c6.511-7.573,11.51-15.3,14.996-23.181c2.57-5.755,3.86-10.073,3.86-12.951c0.151-1.97-0.604-6.208-2.269-12.724L686.076,603.313"
		/>
	<path fill="#0D131A" d="M673.125,739.423l-4.546,2.5l-3.406-38.631l3.638-4.999L673.125,739.423"/>
	<path fill="#0D131A" d="M655.628,643.077l9.771,5.68l-62.033-3.18c-22.723,1.365-42.193,4.62-58.4,9.771
		c-4.999,1.513-6.894,0.227-5.684-3.864l5.23-17.043l5.679-1.134l-4.771,16.135c15.299-4.395,33.249-7.195,53.854-8.41
		L655.628,643.077"/>
	<path fill="#0D131A" d="M712.44,611.266l-0.231,7.267c-1.966,0.761-4.696,2.58-8.179,5.457l-8.41,6.587l-1.361-4.313
		L712.44,611.266"/>
	<path fill="#0D131A" d="M644.723,503.557c-0.302-1.819-2.729-4.471-7.274-7.952l6.368,0.453l4.768,6.813l4.319,35.904
		c2.726-1.668,5.607-2.953,8.632-3.865l6.364-0.681c1.818,0.761,5.527,4.47,11.133,11.137l10.002,13.405
		c1.059,1.667,1.214,6.591,0.454,14.77l-3.634,1.365c0.452-7.574,0.15-12.271-0.912-14.09l-9.317-13.178l-8.405-9.317
		c-0.757-0.302-2.65,0.454-5.685,2.271l-8.632,5.228c-2.575,1.667-4.088,0.831-4.546-2.5L644.723,503.557"/>
	<path fill="#0D131A" d="M683.354,523.324l2.724,3.865l-14.767,11.813l-2.5-2.727L683.354,523.324"/>
	<path fill="#0D131A" d="M562.009,214.06c-12.729,5.453-23.559,13.936-32.492,25.449c-8.638,11.059-14.927,24.163-18.861,39.313
		l-6.134-4.999c8.175-30.604,26.81-52.038,55.896-64.309c23.634-9.998,49.313-10.378,77.03-1.136
		c28.48,9.544,52.871,27.192,73.17,52.945c27.726,35.449,40.07,70.444,37.043,104.983c-2.878,34.388-20.151,60.292-51.81,77.715
		c-22.878,12.567-46.359,18.706-70.442,18.402c-18.484-0.302-35.527-4.241-51.129-11.815l0.681-7.727
		c17.118,8.638,35.446,12.726,54.988,12.271c21.215-0.609,41.967-6.591,62.265-17.954c29.238-16.509,45.444-40.368,48.629-71.576
		c3.487-32.72-8.557-66.654-36.131-101.801c-18.938-24.236-41.811-40.977-68.625-50.218
		C609.424,204.364,584.73,204.516,562.009,214.06"/>
	<path fill="#0D131A" d="M602.908,266.322c-14.086,14.999-35.371,30.752-63.849,47.266c-1.823,1.061-3.033,1.061-3.639,0
		c-0.604-0.909-0.075-1.97,1.593-3.182l33.854-23.405l29.54-23.632c2.126-1.816,3.563-2.348,4.323-1.59
		C605.487,262.687,604.883,264.203,602.908,266.322"/>
	<path fill="#0D131A" d="M599.048,274.957c0-1.968,0.453-2.953,1.36-2.953c0.912-0.151,1.441,0.758,1.593,2.727
		c0.756,6.516-0.076,12.802-2.5,18.862c-2.424,6.211-5.985,11.209-10.679,14.997c-5.306,4.395-11.665,7.196-19.088,8.408
		s-14.544,0.604-21.361-1.819c-1.664-0.604-2.575-1.438-2.727-2.499c0-1.212,0.912-1.59,2.727-1.137l19.542,0.456
		c6.364-1.212,12.119-3.711,17.274-7.499c4.087-2.879,7.498-7.271,10.22-13.18C598.142,285.411,599.351,279.956,599.048,274.957"/>
	<path fill="#0D131A" d="M725.392,346.991l-13.409-39.311l-14.316-14.997l-21.811-20.679l7.951,2.273
		c8.939,7.725,18.252,16.587,27.948,26.587l3.406,3.18l2.046,5.682l7.276,20.678l5.221,15.224c0.604,6.06-1.059,17.27-4.998,33.632
		c-0.605,2.726-1.286,3.938-2.046,3.636c-0.605-0.153-0.832-1.515-0.682-4.092L725.392,346.991"/>
	<path fill="#0D131A" d="M743.342,344.72l0.907,8.406l-9.767-9.771l-10.91-7.725l-2.272-5.453
		C729.785,333.66,737.133,338.507,743.342,344.72"/>
	<path fill="#0D131A" d="M610.864,113.394c2.272,20.301,0.983,38.479-3.864,54.537c-3.634,13.029-9.616,24.768-17.95,35.222
		l-9.771,1.59c10.603-10.756,18.104-23.708,22.495-38.858c4.092-14.087,5.457-29.918,4.092-47.492
		c-1.668-22.42-7.956-42.189-18.861-59.307l-37.945,8.408l-1.819-0.683c-5.154-7.12-9.015-13.256-11.59-18.406l-15.455,4.999
		c-1.814,0.456-2.802,0-2.953-1.363l-1.36-19.996c-18.333,2.424-34.689,9.315-49.083,20.678
		c-14.239,11.059-26.133,26.056-35.678,44.993c-9.998,20.147-11.59,42.793-4.768,67.942c7.872,28.784,25.065,48.249,51.582,58.4
		c8.784,3.18,18.706,5.226,29.763,6.135l25.906-1.363l-7.952,7.952c-17.118,1.819-34.161-0.529-51.128-7.042
		c-27.57-10.454-45.521-30.298-53.854-59.536c-7.726-26.663-5.684-51.811,6.139-75.443c9.847-19.693,22.798-35.6,38.853-47.719
		C481.723,34.771,499.524,27.424,519.067,25c1.36,0,2.041,0.604,2.041,1.819l1.134,21.359l7.957-3.636
		c3.18-1.514,5.679-2.575,7.498-3.182c0.912-0.454,1.668-0.151,2.272,0.91c3.639,8.937,6.965,15.604,9.997,19.996l38.399-9.771
		c0.912-0.302,1.593-0.076,2.046,0.683C601.473,70.144,608.289,90.216,610.864,113.394"/>
	<path fill="#0D131A" d="M513.153,120.665l0.454,1.137l-1.135,14.543l20.677,2.272c0.608,0,1.063,0.303,1.365,0.91l9.544,17.95
		v2.046c-3.486,6.513-6.439,12.573-8.863,18.179l23.406-1.59c5.149-1.061,8.405,0.227,9.768,3.863
		c2.428,5.453,4.318,8.861,5.685,10.225c3.027,3.938,6.741,7.574,11.137,10.908l-4.092,4.318l-10.452-11.59
		c-2.882-4.24-4.999-8.103-6.364-11.588c-0.911-2.121-2.499-2.955-4.771-2.501l-28.181,1.819c-1.512-0.302-1.966-1.136-1.36-2.5
		l9.545-19.996l-8.41-16.362l-21.584-2.044c-1.214,0-1.823-0.607-1.823-1.819l1.823-16.816l-12.275-13.86l-35.898-4.999
		l-14.544,48.855c-1.059,3.333-2.196,4.772-3.406,4.316c-1.214-0.303-1.29-2.119-0.231-5.453l6.818-26.587l6.587-26.358
		c0.307-1.061,1.139-1.517,2.504-1.365l18.63,4.318l20.908,3.636l1.134,0.683L513.153,120.665"/>
	<path fill="#0D131A" d="M454.526,114.53l-2.046,6.362c-6.969,3.182-13.258,7.121-18.861,11.817c-2.42,1.97-4.012,2.5-4.768,1.59
		c-0.762-0.907,0-2.424,2.268-4.543C439.304,122.484,447.104,117.41,454.526,114.53"/>
	<path fill="#0D131A" d="M489.521,75.674l-7.952-9.317l-6.364-7.954c-0.303-0.756-0.15-1.515,0.453-2.271l25-22.725l8.863-2.726
		c-7.125,5.604-16.438,14.694-27.952,27.268l11.815,16.587c0.605,0.607,0.605,1.365,0,2.272
		c-7.427,8.939-13.711,17.345-18.86,25.224l-5.227-0.683C474.599,93.625,481.341,85.065,489.521,75.674"/>
	<path fill="#0D131A" d="M587.004,56.812l4.771,4.999c2.424,18.179,3.332,31.133,2.727,38.858l-1.813,1.59l-14.997-0.227
		l-12.955-0.683l3.634,11.817l2.276,8.861l-1.139,1.819c-14.09,6.21-27.727,11.588-40.903,16.133l-9.317-1.59
		c17.274-5.908,32.573-11.741,45.902-17.499l-4.54-20.45c-0.309-1.668,0.302-2.5,1.813-2.5l27.494-0.227
		C590.563,85.748,589.579,72.112,587.004,56.812"/>
</g>
</svg>
