<?xml version="1.0" encoding="utf-8"?>
<!-- Generator: Adobe Illustrator 16.0.0, SVG Export Plug-In . SVG Version: 6.00 Build 0)  -->
<!DOCTYPE svg PUBLIC "-//W3C//DTD SVG 1.1//EN" "http://www.w3.org/Graphics/SVG/1.1/DTD/svg11.dtd">
<svg version="1.1" id="Layer_1" xmlns="http://www.w3.org/2000/svg" xmlns:xlink="http://www.w3.org/1999/xlink" x="0px" y="0px"
	 width="800px" height="800px" viewBox="0 0 800 800" enable-background="new 0 0 800 800" xml:space="preserve">
<g>
	<path fill="#6FB92C" d="M625.367,424.644c15.31,12.325,25.361,22.014,30.146,29.073l7.717-0.719
		c7.779,1.317,18.545,6.28,32.305,14.896l36.606,2.333c9.812-0.356,17.051-2.213,21.716-5.563c3.829-2.631,6.579-3.711,8.257-3.23
		c3.106,0.719,5.979,4.366,8.609,10.946c1.077,21.773-8.793,44.982-29.608,69.631c-7.657,8.972-15.731,16.927-24.228,23.864
		c-7.534,6.104-12.978,9.513-16.331,10.229l-11.482,8.796c-9.691,6.58-19.322,11.604-28.896,15.072
		c-7.057,2.634-15.489,3.945-25.303,3.945c-8.733,0-14.654-0.895-17.762-2.69l-22.256,1.437
		c-14.595,1.676-27.457,1.615-38.583-0.177c-10.887-0.961-22.73-3.171-35.532-6.644c-13.399-3.707-21.414-7.176-24.049-10.406
		c-5.38,1.792-17.643,2.03-36.785,0.72c-19.74-1.318-40.558-3.891-62.451-7.717c-56.946-9.934-91.401-22.256-103.365-36.969
		c-13.279,2.392-31.045,2.034-53.298-1.077c-22.611-2.992-35.173-6.94-37.687-11.845c-7.775-14.837-20.577-33.44-38.402-55.812
		l-50.606-61.553c-44.264-54.077-71.481-98.762-81.652-134.055c-4.783-16.629-5.979-30.567-3.588-41.813
		c2.154-10.289,7.119-17.407,14.896-21.355c3.948-2.035,16.869,1.315,38.763,10.049c7.297,2.992,26.32,11.366,57.066,25.124
		c29.67,13.279,56.767,20.219,81.293,20.817l36.428-3.769c11.964-1.556,41.873-9.93,89.727-25.124
		c52.762-16.629,86.2-29.43,100.313-38.404c4.427-2.751,9.751-4.367,15.974-4.844l14.178,1.256c3.592,1.315,6.281,4.605,8.073,9.87
		c1.915,5.384,2.273,11.245,1.081,17.586c-0.601,3.469-6.882,22.013-18.843,55.63c-11.248,31.584-16.691,48.991-16.33,52.221
		c0.834,5.384,9.271,9.93,25.303,13.639l54.373,9.51c13.159,2.275,23.569,6.103,31.224,11.487
		c9.571,6.459,16.45,16.031,20.639,28.712C594.62,402.392,608.738,411.364,625.367,424.644"/>
	<path fill="#5FA124" d="M472.11,232.806c2.992-5.024,6.282-6.519,9.87-4.486c3.47,1.915,4.367,5.563,2.69,10.947
		c-5.619,13.279-10.943,26.68-15.97,40.198c-10.168,26.918-16.09,46.958-17.767,60.118c-1.076,7.896,1.436,15.314,7.538,22.251
		c5.86,6.461,12.321,9.93,19.379,10.409c6.222,0.359,7.358,2.274,3.409,5.744c-4.188,3.588-11.723,5.922-22.609,6.997
		c-11.726,1.198-22.013-3.708-30.865-14.714c-8.854-11.006-11.965-22.613-9.329-34.815c1.55-6.938,10.585-25.481,27.095-55.63
		L472.11,232.806"/>
	<path fill="#0D131A" d="M302.886,306.023c0,12.083-4.248,22.432-12.741,31.044c-8.614,8.734-19.319,13.101-32.123,13.101
		c-12.801,0-23.507-4.426-32.122-13.279c-8.374-8.614-12.562-18.782-12.562-30.508c0-12.083,4.188-22.192,12.562-30.328
		c8.493-8.255,19.202-12.381,32.122-12.381c13.521,0,24.585,4.665,33.2,13.997C298.998,285.923,302.886,295.375,302.886,306.023"/>
	<path fill="#FFFFFF" d="M292.299,290.052c2.752,5.145,4.127,10.707,4.127,16.688c0,10.289-3.77,19.023-11.305,26.201
		c-7.537,7.297-16.632,10.947-27.278,10.947c-10.528,0-19.44-3.53-26.739-10.589c-7.775-7.417-11.604-16.867-11.484-28.353
		l-0.358-1.975l39.48-6.461L292.299,290.052"/>
	<path fill="#6FB92C" d="M257.843,269.773c7.418,0,14.237,1.854,20.458,5.563c6.101,3.709,10.768,8.613,13.998,14.716l-34.456,6.997
		l-38.043,5.384c0.238-8.494,3.707-15.912,10.408-22.251C237.505,273.243,246.718,269.773,257.843,269.773"/>
	<path fill="#0D131A" d="M294.271,292.024l-76.087,13.818c-2.394,0.6-3.41-0.06-3.052-1.973c0.24-1.794,1.615-2.932,4.128-3.411
		l73.756-13.279c2.034-0.477,3.29,0.121,3.77,1.795C297.264,290.649,296.426,291.666,294.271,292.024"/>
	<path fill="#0D131A" d="M273.994,307.817c0,4.427-1.494,8.255-4.486,11.485c-2.871,3.23-6.399,4.846-10.587,4.846
		c-4.066,0-7.597-1.615-10.587-4.846c-2.873-3.111-4.309-6.938-4.309-11.485c0-4.307,1.436-7.657,4.309-10.049
		c2.632-2.154,6.161-3.23,10.587-3.23c4.427,0,7.955,1.077,10.587,3.23C272.5,300.161,273.994,303.51,273.994,307.817"/>
	<path fill="#5FA124" d="M717.965,533.396c5.146,0.238,12.321-2.396,21.535-7.898c11.245-6.58,20.277-15.013,27.096-25.304
		c-8.853,25.243-22.252,44.983-40.195,59.221c-5.503,4.427-11.188,8.019-17.047,10.769l-7.001,2.869
		c-6.817,10.768-19.561,19.144-38.225,25.127c-18.421,5.861-34.096,6.879-47.014,3.048c-10.77,3.95-32.544,3.831-65.323-0.356
		c-32.543-4.068-50.428-8.854-53.657-14.355c-52.044,1.915-99.599-3.473-142.667-16.151c-17.107-5.026-31.106-10.59-41.993-16.688
		c-10.168-5.742-15.671-10.827-16.51-15.254l-17.944,3.229l-42.71-1.793c-13.877-2.753-24.286-5.924-31.225-9.512l-6.282-4.489
		l12.743,1.26c9.21-0.242,15.552-3.111,19.021-8.614l-25.841-13.279l6.82,0.896c5.503,0.241,10.526-0.537,15.073-2.329
		c14.477-5.864,21.415-21.119,20.816-45.764l14.715,10.229c11.844,7.299,23.149,12.385,33.917,15.254
		c34.454,9.091,56.588-6.04,66.398-45.4c1.314,16.147,9.989,32.24,26.021,48.271c14.477,14.479,33.382,27.4,56.705,38.765
		c22.255,10.769,44.806,18.303,67.659,22.609c23.566,4.545,43.247,4.787,59.038,0.719c10.049,6.222,23.987,10.529,41.813,12.921
		c18.9,2.635,37.863,2.452,56.888-0.536c3.351-0.6,10.049-3.29,20.098-8.077C703.966,546.313,713.058,539.855,717.965,533.396"/>
	<path fill="#0D131A" d="M159.861,398.083c-14.716-4.665-22.792-6.28-24.228-4.844c-1.435,1.675-0.598,9.45,2.513,23.33
		c3.23,14.236,6.46,22.91,9.691,26.021c2.99,2.873,10.766,6.699,23.328,11.483c12.203,4.55,18.783,6.461,19.739,5.741
		c0.958-0.835,0.839-8.854-0.358-24.048c-1.196-15.552-2.631-24.222-4.306-26.019C183.489,406.64,174.696,402.75,159.861,398.083
		 M131.867,388.932c2.272-2.394,11.962-1.317,29.071,3.23c17.107,4.546,27.335,8.733,30.686,12.563
		c3.352,3.588,5.323,14.236,5.922,31.942c0.598,17.348-0.298,26.801-2.692,28.354c-2.272,1.558-10.049-0.06-23.328-4.844
		c-13.639-4.907-22.731-9.513-27.277-13.819c-4.545-4.308-8.374-14.355-11.485-30.146
		C129.653,400.655,129.354,391.563,131.867,388.932"/>
	<path fill="#0D131A" d="M250.844,348.016l2.692-0.36c1.675,0.479,2.394,1.077,2.153,1.796c-5.981,21.296-8.614,47.495-7.896,78.601
		c0.717,30.865,4.426,54.555,11.125,71.064l-1.976,1.975c-1.554,0.597-2.451,0.597-2.689,0c-8.136-19.859-12.684-42.71-13.64-68.55
		C239.54,404.188,242.949,376.009,250.844,348.016"/>
	<path fill="#0D131A" d="M357.082,411.722c3.35,0.601,5.503,1.438,6.461,2.515c0.956,1.077,1.615,3.172,1.973,6.282
		c0.838,7.534,0.898,22.312,0.179,44.324l-2.87,49.528c0,0.72-0.837,1.077-2.512,1.077s-2.513-0.357-2.513-1.077l0.897-44.863
		c0.238-31.704-0.3-48.334-1.614-49.887c-1.794-2.154-24.107-5.386-66.938-9.691c-46.897-4.788-80.156-5.265-99.776-1.435
		c-0.599,0.119-1.077-0.659-1.436-2.336c-0.358-1.555-0.181-2.394,0.537-2.513c20.34-3.949,48.873-4.667,85.6-2.152
		C304.263,403.527,331.599,406.938,357.082,411.722"/>
	<path fill="#0D131A" d="M144.966,449.048c-0.358-0.596,0.062-1.374,1.257-2.329c1.077-0.838,1.794-0.961,2.154-0.36
		c12.44,20.102,31.823,38.824,58.144,56.173c29.19,19.141,59.339,31.104,90.443,35.889c0.719,0.119,0.419,0.778-0.896,1.975
		c-1.437,1.315-2.513,1.911-3.229,1.792c-33.26-5.021-63.229-16.387-89.907-34.093C178.645,492.061,159.324,472.38,144.966,449.048"
		/>
	<path fill="#0D131A" d="M360.67,510.247c0.719,0.119,0.958,1.255,0.719,3.409c-0.24,2.271-0.719,3.346-1.436,3.227l-96.188-14.178
		c-6.699-0.715-12.383-0.119-17.048,1.797c-3.948,1.795-6.401,4.188-7.359,7.176c-0.717,2.396-0.179,5.026,1.615,7.898
		c1.915,2.987,4.547,5.385,7.897,7.177c0.598,0.36,0.357,1.017-0.72,1.975l-2.691,0.719c-5.024-2.748-8.793-6.103-11.305-10.052
		c-2.272-3.704-2.991-7.058-2.153-10.046c1.195-3.949,4.727-7.061,10.587-9.333c6.222-2.393,13.52-3.171,21.894-2.333
		L360.67,510.247"/>
	<path fill="#0D131A" d="M358.159,516.524c-0.599-0.357-0.301-1.677,0.896-3.948c1.198-2.273,2.094-3.229,2.692-2.869l29.071,18.663
		c21.06,12.918,36.131,21.055,45.226,24.403l43.247,5.926c27.636,4.063,46.418,8.907,56.348,14.534c0.6,0.357,0.6,1.137,0,2.332
		c-0.6,1.077-1.196,1.436-1.792,1.077c-5.984-3.473-23.149-7.3-51.504-11.482l-47.736-7.541
		c-9.448-3.348-24.707-11.008-45.761-22.969L358.159,516.524"/>
	<path fill="#0D131A" d="M319.396,517.064c14.835-5.146,28.593-6.882,41.274-5.205c0.598,0.119,1.436,1.076,2.513,2.869
		c0.957,1.915,1.077,2.813,0.359,2.693c-12.922-1.796-26.858,0.06-41.814,5.563c-15.312,5.503-22.492,11.785-21.534,18.843
		c0,0.596-0.836,1.018-2.511,1.256c-1.556,0.237-2.394,0-2.513-0.716C293.854,531.601,301.929,523.165,319.396,517.064"/>
	<path fill="#0D131A" d="M298.041,543.44c-0.599-0.237-0.896-1.375-0.896-3.408c0-1.911,0.298-2.69,0.896-2.329
		c11.604,6.1,29.91,13.278,54.913,21.531c22.134,7.419,44.745,14.06,67.832,19.919c0.72,0.238,0.897,0.898,0.541,1.976
		c-0.479,1.077-1.077,1.498-1.797,1.256C356.842,566.112,316.346,553.136,298.041,543.44"/>
	<path fill="#0D131A" d="M484.135,199.426c8.253,6.82,10.649,16.271,7.181,28.354l-15.974,47.018l-18.663,54.913
		c-6.338,20.457-0.6,33.617,17.229,39.48c7.656,2.392,11.007,4.248,10.049,5.563l-15.434-1.077
		c-9.448-2.034-15.791-5.862-19.023-11.485c-3.585-6.58-3.827-16.81-0.716-30.687c2.987-13.041,10.107-34.994,21.354-65.86
		c9.453-26.08,14.177-42.232,14.177-48.453c0-5.265-2.271-9.212-6.817-11.845c-5.503-3.23-12.619-3.109-21.354,0.36
		c-47.379,18.783-83.027,31.883-106.957,39.301c-33.02,10.288-71.962,19.441-116.825,27.457
		c-24.286,4.305-61.853-4.727-112.697-27.099c-23.688-10.887-40.02-18.125-48.991-21.713c-14.716-5.743-23.748-7.299-27.097-4.667
		c-4.427,3.469-7.179,8.555-8.256,15.254c-1.197,7.297-0.897,18.664,0.896,34.096c3.111,26.082,16.569,55.99,40.378,89.729
		c4.665,6.58,25.303,32.181,61.912,76.806c19.142,23.451,35.411,44.686,48.812,63.71l19.74,27.993
		c2.99,3.707,12.979,6.94,29.968,9.69l53.479,2.511c3.827-0.237,6.398,0.238,7.717,1.438c1.315,1.314-0.24,2.451-4.667,3.409
		c-11.964,2.75-29.729,2.75-53.298,0c-25.005-2.992-39.24-7.538-42.71-13.639c-16.629-30.389-38.882-61.794-66.756-94.218
		c-29.552-33.856-47.078-54.434-52.581-61.731c-27.995-37.088-44.326-68.611-48.991-94.573l-3.411-22.252
		c-1.077-10.049-1.077-17.946,0-23.688c2.034-11.247,5.922-18.844,11.666-22.792c5.742-3.948,12.86-4.007,21.354-0.179
		c41.754,18.783,68.852,30.627,81.294,35.533c43.428,16.987,72.917,24.105,88.471,21.354c42.589-7.536,84.643-18.185,126.157-31.942
		c31.104-10.288,63.828-23.03,98.159-38.223C465.353,191.77,475.763,192.489,484.135,199.426"/>
	<path fill="#0D131A" d="M720.118,467.715c16.271,0.954,27.937-1.796,34.994-8.256c5.384-4.904,10.528-3.052,15.433,5.563
		c5.265,9.092,5.864,19.922,1.796,32.482c-5.025,15.791-14.718,31.883-29.073,48.272c-14.833,16.748-29.907,28.291-45.222,34.634
		c-3.35,1.438-5.324,1.735-5.921,0.897c-0.48-0.716,0.954-2.095,4.307-4.125c17.587-10.529,32.781-23.753,45.58-39.663
		c11.368-14.113,19.322-28.354,23.868-42.707c2.869-8.855,3.052-16.45,0.54-22.791c-2.153-5.388-4.307-7.419-6.46-6.104
		c-8.496,5.021-18.429,7.657-29.793,7.896c-11.961,0.361-24.524-1.854-37.685-6.64c-2.631-0.957-4.366-2.213-5.205-3.767
		c-0.835-1.559-0.417-2.035,1.256-1.438C698.104,465.204,708.631,467.115,720.118,467.715"/>
	<path fill="#0D131A" d="M522.896,352.682c31.466,4.665,53.419,20.817,65.863,48.453c8.253,18.545,11.904,41.516,10.943,68.913
		c-0.835,28.593-9.989,54.074-27.457,76.445c-21.294,27.399-50.367,41.872-87.213,43.43l-41.813-2.869
		c-45.822-5.626-77.524-10.831-95.112-15.615c-21.534-5.86-40.496-15.434-56.886-28.713c-2.632-2.034-2.992-3.409-1.077-4.128
		c2.034-0.838,5.264-0.238,9.691,1.796c10.886,11.245,28.891,19.859,54.015,25.84l90.445,15.434
		c42.473,6.58,77.463-0.656,104.981-21.711c27.633-21.18,41.93-51.623,42.891-91.342c0.716-34.815-5.806-61.493-19.564-80.042
		c-11.961-15.912-29.547-25.901-52.76-29.97l-36.965-7.716c-10.526-2.751-20.758-6.52-30.688-11.305
		c-2.271-1.077-3.35-2.692-3.229-4.845c0.119-2.154,1.735-2.393,4.844-0.717c6.342,3.588,17.05,7.297,32.125,11.125L522.896,352.682
		"/>
	<path fill="#0D131A" d="M678.663,500.733c6.58,33.615,0.54,60.654-18.123,81.114c-16.629,18.184-45.222,26.257-85.782,24.223
		c-32.777-1.674-59.396-7.594-79.854-17.763c-5.265-2.515-6.579-3.649-3.945-3.409l10.407,2.513
		c32.419,9.567,61.973,13.814,88.65,12.738c29.548-1.076,51.202-8.671,64.962-22.792c14.715-15.193,21.114-36.606,19.199-64.241
		c-2.148-29.671-13.879-54.317-35.173-73.938c-7.656-7.057-15.313-13.216-22.97-18.479l-29.61-19.024
		c-3.229-2.034-4.963-4.188-5.205-6.461c-0.239-2.392,0.719-2.931,2.872-1.615c20.579,12.442,39.601,25.547,57.066,39.304
		C660.06,447.617,672.563,470.227,678.663,500.733"/>
	<path fill="#0D131A" d="M654.079,452.64l-2.69-4.665c16.389,1.793,30.387,6.818,41.992,15.075
		c9.808,7.058,17.165,15.91,22.072,26.559c7.657,16.749,8.793,35.11,3.409,55.093c-5.026,18.544-13.577,32.42-25.664,41.631
		c-11.842,8.976-26.139,14.837-42.891,17.586l-45.043-1.255l15.975-2.69c12.683,1.915,25.123,1.076,37.326-2.512
		c12.32-3.707,23.269-9.93,32.841-18.663c11.244-10.291,18.604-23.868,22.071-40.736c3.351-16.271,2.214-31.346-3.408-45.225
		c-3.593-8.854-9.395-16.569-17.408-23.149C682.612,461.553,669.751,455.87,654.079,452.64"/>
	<path fill="#0D131A" d="M677.947,501.808c6.223,5.388,12.978,7.303,20.276,5.745c6.941-1.438,11.727-5.205,14.355-11.308
		c0.958-2.394,1.854-2.869,2.694-1.433c0.835,1.433,0.658,3.29-0.54,5.563c-3.59,6.699-9.33,10.704-17.229,12.022
		c-7.892,1.432-14.654-0.6-20.276-6.104L677.947,501.808"/>
	<path fill="#0D131A" d="M673.998,505.757c-3.23,5.384-9.15,8.614-17.765,9.691c-8.496,1.076-17.35-0.299-26.563-4.129
		c-23.325-9.567-35.468-27.517-36.429-53.833c-0.119-2.753,0.479-4.067,1.796-3.948c1.317,0.119,2.033,1.255,2.152,3.409
		c1.319,20.573,12.023,36.25,32.122,47.014c8.614,4.669,16.931,6.763,24.944,6.286c8.614-0.602,15.313-4.132,20.099-10.594
		c2.272-2.987,3.11-3.227,2.512-0.716L673.998,505.757"/>
	<path fill="#0D131A" d="M659.821,576.644c-33.979,7.656-66.039,2.749-96.189-14.718c-2.75-1.554-3.886-2.869-3.409-3.946
		c0.601-1.194,2.754-0.838,6.461,1.077c12.684,6.58,27.277,11.066,43.787,13.458c17.229,2.515,33.619,2.214,49.171-0.896
		c3.352-0.72,5.026-0.238,5.026,1.435C664.668,574.729,663.052,575.924,659.821,576.644"/>
	<path fill="#0D131A" d="M717.07,545.059c-6.224,7.537-14.9,14.236-26.025,20.103c-9.568,4.902-18.724,8.253-27.457,10.045
		l2.515-5.563c17.106-3.589,33.677-12.799,49.708-27.632c1.436-1.438,2.396-1.74,2.873-0.898
		C719.041,541.947,718.501,543.266,717.07,545.059"/>
</g>
</svg>
