<?xml version="1.0" encoding="utf-8"?>
<!-- Generator: Adobe Illustrator 16.0.0, SVG Export Plug-In . SVG Version: 6.00 Build 0)  -->
<!DOCTYPE svg PUBLIC "-//W3C//DTD SVG 1.1//EN" "http://www.w3.org/Graphics/SVG/1.1/DTD/svg11.dtd">
<svg version="1.1" id="Layer_1" xmlns="http://www.w3.org/2000/svg" xmlns:xlink="http://www.w3.org/1999/xlink" x="0px" y="0px"
	 width="800px" height="800px" viewBox="0 0 800 800" enable-background="new 0 0 800 800" xml:space="preserve">
<g>
	<path fill="#0D131A" d="M727.29,395.771c7.455,4.084,10.313,10.006,8.579,17.767c-1.633,7.557-6.176,12.662-13.631,15.316
		c-7.047,2.553-35.842,10.467-86.385,23.739l-91.591,23.588l-11.18,19.758l9.801,107.367c5.717,71.678,7.965,123.601,6.742,155.767
		c-0.103,2.142-1.175,4.949-3.218,8.422c-2.146,3.371-4.084,5.563-5.819,6.586L529.407,775c-3.472-0.716-6.79-1.992-9.954-3.829
		c-2.451-1.534-23.688-30.227-63.718-86.078l-85.923-120.386l-12.099,1.688c-87.813,80.765-148.312,133.607-181.496,158.52
		c-5.004,3.781-9.19,3.422-12.561-1.073l-3.522-7.964c4.084-35.123,11.946-91.896,23.587-170.313l18.227-121.304L129.809,370.5
		c-39.414-29.305-60.091-45.643-62.03-49.012c-2.656-4.595-4.035-8.933-4.136-13.019c-0.102-5.718,2.604-10.108,8.119-13.172
		c2.551-1.429,32.266-10.771,89.139-28.029l121.15-36.757c24.198-29.611,48.347-58.559,72.445-86.844
		c47.276-55.647,80.513-92.406,99.71-110.275l5.052-5.055c2.861-3.369,7.611-4.188,14.244-2.451
		c7.252,1.94,11.848,6.433,13.786,13.479c1.43,4.799,13.478,84.442,36.146,238.931C536.096,285.443,604.049,324.603,727.29,395.771"
		/>
	<path fill="#955E0C" d="M714.58,419.664c-4.8,3.371-30.122,11.233-75.969,23.587L536.76,469.289l-1.534,0.307l-10.26,21.902
		l0.153,0.92l8.729,97.716c5.513,72.19,7.813,127.942,6.893,167.251c0,1.938-0.766,3.271-2.297,3.982
		c-1.84,1.123-4.439,1.479-7.812,1.072c-2.963-0.307-5.36-1.021-7.199-2.146c-5.311-4.593-55.495-72.853-150.558-204.772
		l-1.226-1.686l-17.461,3.215l-0.613,0.611c-20.931,19.605-43.803,40.537-68.615,62.797c-49.42,44.621-84.851,74.998-106.294,91.133
		l-3.675,0.307c-2.248-0.717-3.625-1.637-4.137-2.757c4.29-37.576,11.845-96.188,22.669-175.829l15.163-109.972l0.306-1.988
		l-1.531-1.073C123.223,353.805,79.418,318.68,76.049,314.901c-1.226-1.327-1.838-2.909-1.838-4.748
		c0-2.962,1.328-5.515,3.982-7.659c2.758-1.735,28.029-10.159,75.816-25.271c40.128-12.764,83.728-26.343,130.8-40.741l0.918-0.307
		l0.766-0.766c21.646-26.038,45.03-53.607,70.148-82.707c50.033-57.997,84.904-96.134,104.61-114.412l8.272-0.459l5.666,2.911
		c1.634,1.226,2.604,2.502,2.909,3.829c0.917,3.777,12.663,82.962,35.229,237.553l0.152,1.533l1.531,0.765
		c132.435,75.252,201.102,114.819,206.002,118.699l0.459,3.065c-0.103,2.45-0.868,5.004-2.296,7.658
		C717.846,416.603,716.314,418.541,714.58,419.664"/>
	<path fill="#BC771A" d="M721.013,403.121l0.459,3.065l-1.379,5.359c-88.834-23.587-179.557-41.202-272.167-52.84l-82.249-8.577
		l-30.173-1.991l177.822-65.705l0.152,1.226l1.531,0.765C647.444,359.675,716.111,399.242,721.013,403.121"/>
	<path fill="#BC771A" d="M461.25,38.292c0.513-0.511,1.531-0.867,3.064-1.072c-45.747,67.698-85.772,135.445-120.081,203.245
		c-17.154,33.899-29.764,61.01-37.83,81.329c-35.533-5.718-112.369-11.335-230.508-16.848l2.296-2.451
		c2.758-1.735,28.029-10.159,75.816-25.271c40.128-12.764,83.728-26.343,130.8-40.741l0.918-0.307l0.766-0.766
		c21.646-26.038,45.03-53.607,70.148-82.707C406.673,94.708,441.544,56.569,461.25,38.292"/>
	<path fill="#764800" d="M468.145,37.219c2.245,0.613,4.388,1.685,6.432,3.216c2.044,1.431,3.218,2.809,3.522,4.136
		c0.917,3.777,12.663,82.962,35.229,237.553l0.152,0.613c-29.815,10.721-65.604,20.217-107.367,28.487l-109.818,18.38
		C327.336,260.682,384.618,163.22,468.145,37.219"/>
	<path fill="#764800" d="M720.704,409.863c-1.528,4.902-3.571,8.168-6.124,9.801c-4.8,3.371-30.122,11.233-75.969,23.587
		L536.76,469.289l-1.534,0.307l-10.26,21.902l0.153,0.92l8.729,97.716c5.513,72.19,7.813,127.942,6.893,167.251
		c0,1.938-0.766,3.271-2.297,3.982c-1.736,1.123-4.339,1.479-7.812,1.072l-64.789-129.268
		c-48.396-96.392-86.025-165.569-112.878-207.533c8.781-6.128,18.583-19.504,29.406-40.131
		c9.395-17.767,17.767-27.262,25.119-28.487c18.483-2.961,62.898,2.093,133.25,15.163
		C586.486,380.659,646.474,393.217,720.704,409.863"/>
	<path fill="#764800" d="M257.544,409.402c17.257,28.691,33.135,53.657,47.634,74.896c18.072,26.649,36.146,50.597,54.218,71.833
		l-5.208,0.92l-0.613,0.611c-20.931,19.605-43.803,40.537-68.615,62.797c-49.42,44.621-84.851,74.998-106.294,91.133l-3.675,0.307
		l-2.604-1.229c9.496-38.899,19.707-79.438,30.631-121.607C224.871,505.026,243.045,445.143,257.544,409.402"/>
	<path fill="#764800" d="M76.049,314.901c-1.226-1.327-1.838-2.909-1.838-4.748l0.154-1.686c-0.716-2.246,25.169-1.684,77.653,1.686
		c54.116,3.369,97.155,7.453,129.114,12.252c-7.863,16.645-18.686,34.462-32.47,53.454c-13.683,18.889-26.957,34.359-39.823,46.408
		l0.153-0.916l-1.531-1.073C123.223,353.805,79.418,318.68,76.049,314.901"/>
	<path fill="#0D131A" d="M456.352,298.974l59.423-19.299l1.534,3.984l-56.823,22.972L456.352,298.974"/>
	<path fill="#0D131A" d="M466.151,33.084l3.216,2.91c-4.187,4.698-20.165,29.612-47.938,74.743
		c-30.533,49.523-51.208,85.26-62.033,107.214l-6.739-3.216c7.862-16.337,25.476-46.767,52.84-91.284
		C435.112,75.459,455.327,45.337,466.151,33.084"/>
	<path fill="#0D131A" d="M723.006,408.943l-1.688,3.981c-6.84-2.757-48.399-11.896-124.675-27.417
		c-79.233-16.132-130.593-25.525-154.079-28.18l-0.613-7.353c23.077,2.553,74.794,12.457,155.155,29.714
		C673.788,396.23,715.755,405.983,723.006,408.943"/>
	<path fill="#0D131A" d="M69.77,303.874c13.172-0.613,40.741-0.306,82.706,0.92l105.834,5.973l-3.062,8.577l-104.15-7.964
		l-81.022-3.063L69.77,303.874"/>
	<path fill="#0D131A" d="M386.966,478.479l6.74-4.136c14.194,31.246,39.363,84.442,75.509,159.594
		c39.413,81.993,60.96,125.184,64.634,129.575l-3.216,2.909c-4.187-5.004-26.652-48.553-67.39-130.647
		C424.645,557.869,399.219,505.435,386.966,478.479"/>
	<path fill="#0D131A" d="M231.967,475.724l7.198,2.295c-8.475,26.14-21.34,69.741-38.596,130.801
		c-17.767,63.408-26.803,98.278-27.11,104.609l-4.288-0.151c0.306-6.845,8.882-42.068,25.731-105.685
		C211.75,543.774,224.104,499.818,231.967,475.724"/>
	<path fill="#0D131A" d="M343.315,202.481c18.583,0.918,36.095,5.411,52.535,13.477c16.03,7.964,30.581,19.198,43.65,33.697
		c13.479,14.907,23.791,31.142,30.939,48.705c7.354,18.278,11.026,37.268,11.026,56.975l-1.072,17.614
		c-0.814,10.824-1.631,18.074-2.448,21.749c1.227,2.349,4.749,6.944,10.567,13.788l20.525,21.902
		c25.831,25.114,40.023,40.637,42.577,46.56c-1.941,4.899-6.945,13.631-15.013,26.191c-0.813,1.223-3.419,0.61-7.808-1.841
		c-8.682-5.104-15.471-8.778-20.372-11.025c-18.481-8.372-32.573-13.987-42.272-16.85c-17.152-4.897-28.077-4.338-32.775,1.688
		c-4.495,5.818-10.722,11.229-18.687,16.233c-6.127,3.981-13.939,8.016-23.436,12.1c-2.756,1.226-4.493,4.339-5.208,9.343
		c-0.511,3.164-0.613,8.527-0.307,16.084c0.511,20.111-2.551,33.079-9.189,38.901c-2.144,1.836-5.462,2.501-9.955,1.992
		l-13.785-2.451c-2.042-0.307-4.748-2.298-8.117-5.976l-17.919-20.063l-17.001-18.841c-6.842-7.351-10.926-11.18-12.253-11.487
		c-38.699-8.882-67.952-28.282-87.761-58.201c-18.483-27.977-26.702-61.672-24.66-101.085
		c2.144-42.783,18.941-78.878,50.391-108.285C266.836,214.07,302.778,200.439,343.315,202.481"/>
	<path fill="#FFE100" d="M433.682,254.25c13.579,15.112,23.739,32.266,30.479,51.462c6.74,19.196,9.546,39.312,8.426,60.346
		c-0.306,8.475-1.434,17.256-3.371,26.344l-0.153,0.765c0,1.328,1.99,4.29,5.977,8.885l30.017,32.165
		c22.364,23.482,34.361,36.654,35.995,39.517c-2.757,6.634-6.229,13.22-10.416,19.758c-1.836-0.309-8.524-3.065-20.066-8.271
		c-21.136-9.599-37.063-15.879-47.784-18.839c-18.583-5.004-30.783-3.728-36.604,3.829c-9.295,12.15-21.647,21.596-37.067,28.333
		c-4.289,1.84-7.046,5.771-8.271,11.794c-0.715,3.677-0.918,9.905-0.613,18.686l-0.306,17.157
		c-0.716,5.717-2.501,9.852-5.362,12.403c-3.675,3.268-9.802,4.188-18.379,2.757c-2.348-0.509-11.895-9.904-28.64-28.184
		l-18.227-19.448c-4.9-4.801-8.424-7.506-10.568-8.117c-34.409-10.416-61.469-29.511-81.176-57.283
		c-19.809-27.978-28.793-60.143-26.957-96.493c2.041-41.458,17.612-76.175,46.713-104.151
		c28.999-27.978,62.948-40.997,101.853-39.057c17.97,0.919,35.124,5.309,51.462,13.171
		C406.879,229.642,421.223,240.465,433.682,254.25"/>
	<path fill="#F9BE00" d="M380.074,522.591l0.153,6.431l-0.306,17.157c-0.716,5.717-2.501,9.852-5.362,12.403
		c-3.675,3.268-9.802,4.188-18.379,2.757c-2.348-0.509-11.895-9.904-28.64-28.184l-17.001-18.224
		C330.858,521.568,354.036,524.119,380.074,522.591"/>
	<path fill="#F9BE00" d="M339.181,208.607l13.478,1.378c-21.546,5.309-40.793,13.581-57.743,24.812
		c-18.481,12.254-32.622,27.058-42.425,44.418c4.799-20.421,13.375-40.128,25.731-59.12
		C297.724,211.417,318.043,207.586,339.181,208.607"/>
	<path fill="#F9BE00" d="M337.035,309.082c15.725-10.823,33.951-18.736,54.678-23.74c17.464-4.288,37.372-6.586,59.736-6.892
		c8.371,13.988,14.347,29.253,17.918,45.794C430.567,301.678,386.455,296.625,337.035,309.082"/>
	<path fill="#F9BE00" d="M505.054,434.217c22.364,23.482,34.361,36.654,35.995,39.517c-2.757,6.634-6.229,13.22-10.416,19.758
		c-1.836-0.309-8.524-3.065-20.066-8.272c-21.136-9.598-37.063-15.878-47.784-18.838c-18.583-5.004-30.783-3.728-36.604,3.829
		c-5.618,7.146-12.153,13.324-19.608,18.532c6.129-20.318,5.976-39.974-0.458-58.968c-7.965-23.688-24.607-39.364-49.931-47.022
		l57.131,6.28l57.435,7.659C473.913,401.08,485.35,413.591,505.054,434.217"/>
	<path fill="#F9BE00" d="M248.662,446.466c-0.613-14.802,2.502-30.58,9.342-47.325c0,39.619,6.382,72.346,19.145,98.18
		c-6.535-2.963-13.172-6.586-19.911-10.876C251.93,470.413,249.069,457.085,248.662,446.466"/>
	<path fill="#0D131A" d="M263.825,198.805l6.433,0.92c17.256,2.246,26.496,5.513,27.722,9.802c0.613,1.838,0,3.472-1.838,4.901
		c-5.923,5.004-10.823,10.568-14.704,16.696c-2.349,3.471-4.696,8.066-7.046,13.783l-3.063,6.28
		c-1.122,1.736-2.398,2.756-3.829,3.063l-11.181,5.513c-8.985,4.799-15.367,7.964-19.146,9.497
		c-3.982,1.531-6.891,1.938-8.729,1.224c-1.124-0.509-1.838-1.378-2.144-2.602c-1.124-4.596-1.328-13.275-0.613-26.038
		c0.817-15.419,3.217-24.761,7.199-28.029c4.39-3.675,9.19-6.995,14.397-9.955C254.533,199.775,260.046,198.09,263.825,198.805"/>
	<path fill="#FFE100" d="M265.05,205.851l6.739,1.073c11.028,1.429,17.767,2.706,20.218,3.828
		c-6.229,5.208-11.386,11.131-15.47,17.768c-2.246,3.573-4.646,8.372-7.199,14.397l-3.216,6.126
		c-1.531,0.407-5.615,2.398-12.252,5.973c-12.764,6.535-20.218,9.956-22.362,10.262l-0.307-5.055c0-7.658,0.562-15.368,1.685-23.127
		c1.429-9.599,3.319-15.419,5.666-17.461c4.698-3.88,9.599-7.199,14.705-9.955C258.872,206.718,262.803,205.441,265.05,205.851"/>
	<path fill="#0D131A" d="M200.723,333.741c1.02-0.307,2.093,0,3.216,0.918c1.328,1.226,2.042,4.084,2.144,8.577
		c0.204,3.982-0.153,11.079-1.073,21.289l-0.613,12.406c0.307,2.042-1.021,6.127-3.982,12.253l-4.288,10.416
		c-1.327,3.982-1.685,7.146-1.073,9.495c0.715,2.758,0,4.544-2.144,5.361c-2.858,1.327-8.373-0.714-16.541-6.128
		c-7.148-4.797-11.692-8.627-13.632-11.486c-2.144-3.166-2.91-8.884-2.297-17.154c0.509-6.332,1.582-12.253,3.215-17.768
		c1.533-5.002,7.353-10.976,17.461-17.92C190.206,337.773,196.74,334.354,200.723,333.741"/>
	<path fill="#FFE100" d="M189.694,409.252c-2.553-0.82-6.586-3.064-12.099-6.742c-5.515-3.777-8.986-6.687-10.415-8.729
		c-1.022-1.43-1.533-4.34-1.533-8.73c0-6.842,1.073-14.041,3.217-21.596c1.124-3.573,5.82-8.271,14.092-14.09
		c7.351-5.004,13.121-8.271,17.307-9.804l0.46,5.055l-1.073,19.452l-0.766,11.641v2.144l0.153,0.153
		c0,1.226-1.175,4.188-3.522,8.882c-4.084,9.088-6.126,15.676-6.126,19.76L189.694,409.252"/>
	<path fill="#0D131A" d="M439.193,356.562c51.262,12.253,77.91,21.852,79.951,28.794c1.531,5.004,1.227,13.223-0.92,24.661
		c-1.938,10.618-4.033,17.562-6.276,20.831c-1.431,1.938-4.598,2.857-9.495,2.757c-10.313-0.31-28.999-3.881-56.06-10.726
		c-37.373-9.492-65.146-18.479-83.32-26.956l-5.515-2.909c-1.429-0.92-2.042-2.042-1.837-3.37l0.613-8.884
		c0.613-12.15,1.328-20.778,2.144-25.883c0.918-5.922,2.195-9.599,3.829-11.028l3.063-0.918l24.047,3.675
		C407.186,349.567,423.774,352.885,439.193,356.562"/>
	<path fill="#FFE100" d="M507.811,427.17c-6.021,0.713-30.525-4.542-73.518-15.774c-42.885-11.131-67.237-18.534-73.058-22.21
		l0.46-8.117c1.123-19.094,2.399-29.918,3.83-32.471c16.132,2.962,42.018,8.731,77.655,17.308
		c44.108,10.619,67.695,17.716,70.758,21.289l0.614,5.973c0,5.31-0.767,11.744-2.298,19.3
		C510.723,419.613,509.242,424.517,507.811,427.17"/>
	<path fill="#0D131A" d="M215.732,406.188c0.816-0.92,1.837-1.378,3.063-1.378c1.94,0.102,4.442,1.733,7.506,4.897l13.324,16.543
		l7.964,9.651c1.124,0.917,1.838,2.396,2.144,4.439l0.307,7.048c-0.102,6.125,0.153,11.28,0.766,15.468
		c0.918,7.147,2.962,14.192,6.126,21.136c0.818,1.327,0.511,2.812-0.918,4.44c-2.451,3.064-8.986,6.586-19.605,10.57
		c-10.619,4.081-17.665,5.718-21.136,4.901c-2.756-0.716-5.667-3.476-8.729-8.272l-8.731-17.614l-2.604-5.663
		c-2.551-5.208-1.224-15.778,3.984-31.707C204.194,425.024,209.708,413.537,215.732,406.188"/>
	<path fill="#FFE100" d="M244.067,440.036l0.458,4.902v5.666c0,12.354,2.349,23.893,7.046,34.612
		c-1.735,2.146-7.402,5.056-17.001,8.731c-9.597,3.676-15.621,5.207-18.072,4.593c-1.736-0.407-4.084-3.368-7.046-8.881
		l-6.739-13.786l-2.604-5.822l-0.613-3.979c0-6.331,2.093-15.47,6.28-27.416c4.288-12.357,8.781-21.648,13.478-27.878
		c2.246,1.433,7.607,7.658,16.083,18.685l8.73,10.726V440.036"/>
	<path fill="#0D131A" d="M331.062,263.439c1.533-4.902,7.964-11.181,19.299-18.839c11.026-7.557,23.943-14.55,38.75-20.983
		c36.759-15.928,62.135-20.063,76.121-12.406c3.982,2.144,9.189,6.688,15.623,13.632c6.945,7.557,11.026,13.632,12.255,18.227
		c1.12,3.88-0.462,10.67-4.749,20.371c-3.777,8.882-8.016,16.439-12.714,22.667c-4.39,5.82-8.168,8.729-11.332,8.729l-9.191-0.152
		c-20.216-0.306-35.788-0.204-46.713,0.307c-21.444,0.817-37.424,2.91-47.94,6.279c-9.394,2.962-16.798,1.327-22.209-4.901
		c-2.757-3.267-4.799-7.76-6.126-13.479c-1.022-4.391-1.533-8.884-1.533-13.478C330.602,266.657,330.756,264.664,331.062,263.439"/>
	<path fill="#FFE100" d="M391.255,231.582c34.615-15.52,58.612-20.625,71.988-15.315c2.96,1.123,7.455,5.055,13.478,11.793
		c6.228,6.943,9.905,12.406,11.026,16.389c0.716,2.553-0.662,8.015-4.136,16.388c-3.674,8.577-7.812,15.928-12.404,22.054
		L466,288.559l-1.686,0.766h-9.191c-47.072-0.918-79.133,1.327-96.185,6.738c-6.433,2.044-11.488,1.43-15.163-1.836
		c-2.86-2.655-5.004-6.842-6.433-12.561c-0.919-3.982-1.378-8.219-1.378-12.712l0.153-3.37c1.838-3.268,8.066-8.219,18.685-14.857
		C365.626,243.987,377.776,237.605,391.255,231.582"/>
	<path fill="#0D131A" d="M287.564,441.567l0.306-2.451c0.307-1.327,2.4-2.96,6.28-4.899c3.166-1.736,6.28-3.063,9.343-3.983
		c9.395-2.757,16.541-1.99,21.443,2.298c35.942,31.449,62.03,51.462,78.267,60.037c0.917,0.614,1.633,1.585,2.146,2.913
		c0.713,2.45,1.222,6.789,1.53,13.019l-0.613,20.216c-1.121,13.07-3.523,20.779-7.199,23.13c-4.493,2.96-9.292,5.259-14.397,6.892
		c-6.535,2.143-11.691,2.553-15.47,1.226c-14.397-5.31-31.857-23.639-52.38-54.984C297.316,475.058,287.564,453.921,287.564,441.567
		"/>
	<path fill="#FFE100" d="M305.331,435.439c7.25-2.247,12.56-1.836,15.929,1.226c36.248,31.449,62.49,51.563,78.725,60.346
		c0.917,2.041,1.377,7.352,1.377,15.93c0,7.964-0.406,15.164-1.225,21.595c-0.918,7.454-2.246,11.691-3.982,12.716
		c-4.39,2.757-8.934,4.899-13.632,6.432c-5.206,1.736-9.036,2.146-11.486,1.226c-13.785-5.106-30.582-23.23-50.391-54.371
		c-18.481-29.002-27.722-48.502-27.722-58.51v-0.917C296.192,438.861,300.327,436.975,305.331,435.439"/>
	<path fill="#F9BE00" d="M271.789,206.923c11.028,1.429,17.767,2.706,20.218,3.828c-6.229,5.208-11.386,11.131-15.47,17.768
		c-2.246,3.573-4.646,8.372-7.199,14.397l-3.216,6.126c-1.224,0.306-5.259,2.246-12.099,5.82c0-14.295,2.553-30.531,7.658-48.705
		l3.37-0.307L271.789,206.923"/>
	<path fill="#F9BE00" d="M199.344,366.21l-0.46,11.641l0.153,0.153c0,1.226-1.175,4.188-3.522,8.882
		c-4.084,9.088-6.126,15.676-6.126,19.76l0.306,2.605c-2.553-0.82-6.586-3.064-12.099-6.742c-5.515-3.777-8.986-6.687-10.415-8.729
		l-0.766-1.991C175.501,380.354,186.478,371.828,199.344,366.21"/>
	<path fill="#F9BE00" d="M244.525,444.938v5.666c0,12.354,2.349,23.893,7.046,34.612c-1.735,2.146-7.402,5.056-17.001,8.731
		c-9.597,3.676-15.621,5.207-18.072,4.593l-0.307-0.151c0.104-15.623,1.378-29.202,3.83-40.741
		c2.144-10.415,5.871-21.599,11.181-33.541l4.136,5.356l8.73,10.571L244.525,444.938"/>
	<path fill="#F9BE00" d="M346.838,296.216c19.094-14.603,41.404-26.14,66.933-34.615c23.278-7.76,47.992-12.61,74.132-14.55
		c-0.512,3.982-2.349,9.546-5.516,16.694c-3.473,7.557-7.197,13.937-11.18,19.145L466,288.559l-1.686,0.766h-9.191
		c-47.072-0.918-79.133,1.327-96.185,6.738C354.138,297.594,350.105,297.646,346.838,296.216"/>
	<path fill="#F9BE00" d="M323.863,436.818l38.75,33.233c16.134,13.173,28.591,22.161,37.372,26.958
		c0.917,2.041,1.377,7.352,1.377,15.93c0,14.295-1.021,24.507-3.063,30.631c-15.93-13.069-30.633-29.201-44.111-48.396
		C340.405,475.569,330.297,456.117,323.863,436.818"/>
	<path fill="#0D131A" d="M352.658,288.406c17.461-12.968,40.435-23.945,68.924-32.931c25.731-8.066,47.785-12.201,66.165-12.405
		l0.154,2.756c-12.151,0.715-31.809,5.259-58.967,13.632c-33.494,10.21-58.254,21.289-74.286,33.235L352.658,288.406"/>
	<path fill="#0D131A" d="M315.134,431.458l5.055-1.379c3.369,11.641,12.303,29.151,26.802,52.534
		c18.482,29.508,36.146,49.931,52.994,61.266l-1.531,2.3c-17.154-11.542-35.431-32.114-54.833-61.726
		C327.795,460.15,318.299,442.487,315.134,431.458"/>
	<path fill="#0D131A" d="M215.272,459.184c2.553-17.464,7.199-31.707,13.938-42.733l4.135,1.837
		c-4.595,5.105-8.781,17.459-12.559,37.067c-3.982,19.906-4.951,35.123-2.909,45.64l-2.451,0.611
		C213.078,489.457,213.027,475.314,215.272,459.184"/>
	<path fill="#0D131A" d="M251.724,254.862c-1.224-6.331-0.153-15.674,3.217-28.029c2.247-8.169,4.953-16.083,8.119-23.74
		l2.449,1.071c-2.449,6.026-4.748,13.734-6.892,23.128c-2.655,12.048-3.369,21.188-2.144,27.415L251.724,254.862"/>
	<path fill="#0D131A" d="M198.731,368.813l0.766,2.451c-5.82,2.042-11.946,5.564-18.379,10.568
		c-6.944,5.309-11.385,10.261-13.325,14.857l-3.829-2.451c2.144-5.208,7.351-10.518,15.623-15.929
		C186.122,374.124,192.502,370.958,198.731,368.813"/>
	<path fill="#0D131A" d="M219.407,271.403c19.605-19.093,42.119-27.774,67.545-26.037c26.547,1.838,48.501,13.377,65.859,34.614
		c17.257,21.136,25.17,46,23.74,74.589c-1.429,28.284-12.099,52.178-32.01,71.681c-19.809,19.401-42.477,28.489-68.004,27.265
		c-11.028-0.611-21.851-3.729-32.469-9.344c-10.11-5.31-19.3-12.507-27.569-21.598c-9.497-10.415-16.797-22.667-21.901-36.758
		c-5.413-14.5-7.761-28.948-7.046-43.345C188.98,314.188,199.599,290.499,219.407,271.403"/>
	<path fill="#FFE100" d="M286.646,249.809c24.198,1.226,44.365,11.946,60.499,32.164c16.234,20.116,23.638,43.805,22.207,71.066
		c-1.328,27.262-11.078,50.137-29.253,68.618c-18.074,18.38-39.21,26.955-63.41,25.732c-10.721-0.513-20.981-3.167-30.784-7.968
		c-9.802-4.797-18.482-11.383-26.038-19.758c-8.986-9.801-15.725-21.34-20.217-34.615c-4.493-13.172-6.382-26.804-5.666-40.894
		c1.429-27.263,11.181-50.084,29.253-68.464C241.412,257.21,262.548,248.583,286.646,249.809"/>
	<path fill="#0D131A" d="M332.595,285.188c8.474,9.394,14.55,18.838,18.225,28.334c4.188,10.926,5.872,23.382,5.055,37.372
		c-0.816,14.09-3.778,26.292-8.884,36.605c-4.595,9.086-11.487,17.767-20.676,26.037c-7.964,7.251-17.001,12.713-27.109,16.39
		c-10.313,3.778-20.779,5.411-31.398,4.901c-23.178-1.123-43.039-11.182-59.58-30.173c-16.745-18.993-24.505-40.691-23.28-65.096
		c1.226-23.893,10.925-43.803,29.1-59.731c17.971-15.623,38.852-22.873,62.643-21.75c10.621,0.511,20.831,3.166,30.633,7.966
		C317.023,270.842,325.447,277.225,332.595,285.188"/>
	<path fill="#BA0031" d="M344.387,317.045c3.575,10.619,5.055,21.801,4.442,33.542c-0.511,11.641-3.115,22.516-7.811,32.624
		c-4.595,10.21-10.976,18.942-19.145,26.191c-7.352,6.741-15.674,11.745-24.965,15.011c-9.19,3.268-18.787,4.646-28.795,4.135
		c-21.543-1.021-39.566-10.108-54.065-27.265c-14.397-17.052-21.034-37.064-19.91-60.039c1.124-22.667,9.648-41.405,25.578-56.209
		c15.826-14.806,34.717-21.699,56.669-20.678c9.904,0.511,19.247,2.859,28.029,7.046c8.882,4.186,16.694,10.006,23.433,17.46
		C335.197,297.033,340.712,306.426,344.387,317.045"/>
	<path fill="#D7063A" d="M296.907,424.413c-9.19,3.268-18.787,4.646-28.795,4.135l-7.504-0.767
		c-3.573-6.532-2.757-15.671,2.451-27.417c4.696-10.619,12.251-21.698,22.667-33.236c10.11-11.333,20.678-20.676,31.705-28.027
		c11.844-7.76,21.75-11.59,29.714-11.488c1.531,7.557,2.093,15.215,1.684,22.974c-0.511,11.641-3.115,22.516-7.811,32.624
		c-4.595,10.21-10.976,18.942-19.145,26.191C314.521,416.145,306.199,421.147,296.907,424.413"/>
	<path fill="#990024" d="M219.715,285.036c15.826-14.806,34.717-21.699,56.669-20.678c6.331,0.306,12.406,1.379,18.226,3.217
		c7.862,29.611,2.91,58.151-14.857,85.617c-17.767,27.365-40.741,42.068-68.923,44.11c-5.82-7.862-10.159-16.49-13.019-25.884
		c-2.96-9.701-4.186-19.758-3.675-30.173C195.26,318.579,203.785,299.84,219.715,285.036"/>
	<path fill="#E9988E" d="M264.13,303.567c1.736,9.292,0.206,18.736-4.595,28.335c-4.798,9.599-11.436,16.541-19.911,20.83
		c-8.373,4.288-16.185,4.646-23.434,1.071c-7.25-3.573-11.69-10.006-13.325-19.298c-1.736-9.395-0.255-18.89,4.442-28.487
		c4.798-9.599,11.435-16.492,19.91-20.678c8.475-4.288,16.287-4.646,23.435-1.073C257.902,287.843,262.396,294.276,264.13,303.567"
		/>
	<path fill="#FFFFFF" d="M227.066,350.896c0,4.798-1.276,8.832-3.829,12.099c-2.553,3.37-5.615,5.055-9.19,5.055
		c-3.675,0-6.79-1.686-9.342-5.055c-2.553-3.267-3.83-7.3-3.83-12.099c0-4.697,1.277-8.679,3.83-11.946
		c2.553-3.371,5.667-5.055,9.342-5.055c3.575,0,6.637,1.684,9.19,5.055C225.79,342.215,227.066,346.198,227.066,350.896"/>
</g>
</svg>
