<?xml version="1.0" encoding="utf-8"?>
<!-- Generator: Adobe Illustrator 16.0.0, SVG Export Plug-In . SVG Version: 6.00 Build 0)  -->
<!DOCTYPE svg PUBLIC "-//W3C//DTD SVG 1.1//EN" "http://www.w3.org/Graphics/SVG/1.1/DTD/svg11.dtd">
<svg version="1.1" id="Layer_1" xmlns="http://www.w3.org/2000/svg" xmlns:xlink="http://www.w3.org/1999/xlink" x="0px" y="0px"
	 width="800px" height="800px" viewBox="0 0 800 800" enable-background="new 0 0 800 800" xml:space="preserve">
<g>
	<path fill="#0D131A" d="M772.174,426.666c-4.589,16.203-13.333,27.675-26.234,34.411c-9.607,4.731-22.797,7.383-39.572,7.956
		c-18.493-0.286-31.539-0.067-39.144,0.648c-12.756,1.287-21.073,5.519-24.942,12.688c-7.025,13.047-4.731,25.091,6.884,36.13
		c5.591,5.304,19.929,14.479,43.007,27.526c20.937,11.759,34.916,22.291,41.938,31.61c10.607,14.054,11.543,30.187,2.795,48.388
		c-7.451,15.774-20.716,23.012-39.782,21.724c-21.078-4.445-35.488-5.948-43.227-4.513c-8.748,1.574-18.713,7.164-29.897,16.771
		c-10.036,8.604-19.711,12.903-29.031,12.903c-8.461,0-16.771-2.438-24.946-7.313l-21.503-16.128
		c-19.645-15.341-40.938-22.581-63.871-21.723c-11.328,0.434-21.58,2.867-30.757,7.313l-22.582,13.978
		c-19.356,13.051-40.862,19.575-64.519,19.575c-23.943,0-45.592-9.25-64.947-27.742l-22.796-21.938
		c-9.177-7.599-18.496-12.76-27.958-15.488c-14.481-4.154-30.826-4.154-49.033,0c-10.036,2.299-25.448,7.459-46.238,15.488
		c-18.064,6.883-31.184,10.752-39.355,11.614c-12.473,1.288-22.08-2.366-28.818-10.972c-11.899-15.482-8.028-35.127,11.613-58.928
		l20.43-24.515c5.736-8.313,6.955-14.696,3.656-19.142c-3.585-5.02-10.108-8.387-19.569-10.104l-27.528-3.442
		c-25.09-3.588-41.148-15.771-48.173-36.559c-5.736-17.063-3.441-34.84,6.881-53.338c7.887-13.905,23.228-32.186,46.023-54.838
		l65.592-65.806c27.097-28.961,49.32-57.634,66.668-86.022l19.14-32.904c6.451-11.183,12.185-19.571,17.203-25.162
		c12.617-14.479,30.251-21.721,52.905-21.721c12.187,0,26.523,5.161,43.011,15.484c16.487,10.179,31.112,15.269,43.872,15.269
		c14.768,0,34.196-4.661,58.28-13.979c22.514-8.746,40.937-12.473,55.273-11.183c17.487,1.577,31.897,8.173,43.228,19.786
		c8.313,8.603,16.558,22.079,24.729,40.431l21.724,47.958c9.749,18.207,21.148,32.331,34.19,42.367
		c8.318,6.452,23.516,15.125,45.592,26.021c25.667,12.474,43.445,21.864,53.339,28.172
		C766.44,362.94,781.924,392.689,772.174,426.666"/>
	<path fill="#E097BF" d="M763.358,427.314c-3.729,12.76-11.759,21.502-24.088,26.233c-8.602,3.302-21.438,5.091-38.494,5.381
		l-38.714,1.718c-12.756,2.15-21.146,7.385-25.158,15.698c-7.745,16.347-6.167,30.896,4.731,43.659
		c6.594,7.738,20.502,17.563,41.721,29.46c21.646,12.188,35.697,21.866,42.147,29.031c11.042,12.335,12.835,26.312,5.38,41.938
		c-6.884,14.338-19.5,20.787-37.851,19.355c-20.358-4.303-34.196-5.809-41.505-4.518c-7.746,1.437-17.065,6.598-27.961,15.488
		c-9.75,7.881-19.93,11.825-30.538,11.825c-5.447,0-11.973-2.294-19.566-6.883l-22.801-15.271
		c-22.22-14.477-44.732-21.287-67.524-20.43c-10.751,0.43-20.501,2.723-29.249,6.883c-3.873,1.723-11.039,6.02-21.504,12.902
		c-18.642,12.331-39.86,18.498-63.66,18.498c-21.363,0-42.511-9.539-63.444-28.605l-24.516-21.508
		c-9.461-7.165-19.068-11.682-28.818-13.547c-19.784-3.873-50.968,1.078-93.55,14.84c-18.782,6.167-31.971,9.749-39.57,10.752
		c-12.044,1.864-20.504,0-25.376-5.591c-10.036-11.472-5.378-28.96,13.978-52.476l20.216-25.592
		c6.02-8.744,7.742-15.483,5.161-20.216c-4.014-7.741-10.754-13.046-20.215-15.913l-27.957-4.517
		c-12.188-1.433-21.506-3.94-27.959-7.527c-9.318-5.161-16.056-13.622-20.216-25.377c-4.729-13.336-1.577-29.03,9.464-47.099
		c8.316-13.333,23.8-31.754,46.453-55.269l63.656-66.453c25.665-28.244,46.095-54.911,61.292-80.001
		c19.498-31.828,32.043-50.827,37.636-56.99c13.476-14.911,30.035-22.367,49.678-22.367c11.47,0,24.661,5.018,39.57,15.054
		c14.768,9.893,31.327,14.768,49.68,14.623c15.483-0.144,34.625-4.801,57.421-13.979c21.079-8.458,38.279-12.042,51.615-10.752
		c14.911,1.434,27.381,7.957,37.417,19.57c7.316,8.316,14.987,21.72,23.012,40.216l21.723,47.314
		c9.464,17.635,20.43,31.253,32.902,40.86c8.032,6.165,22.939,14.336,44.733,24.515c25.662,12.05,43.513,21.082,53.549,27.104
		C757.405,364.159,773.108,393.478,763.358,427.314"/>
	<path fill="#0D131A" d="M457.763,259.783c-0.145-1.29,0.211-2.438,1.072-3.441c0.863-0.859,1.938-1.362,3.229-1.505
		c1.289-0.143,2.434,0.215,3.436,1.076c1.006,0.716,1.583,1.791,1.728,3.225c0.143,1.291-0.22,2.438-1.078,3.441l-3.226,1.505
		C459.767,264.37,458.048,262.937,457.763,259.783"/>
	<path fill="#0D131A" d="M330.014,254.19c-0.143-1.288,0.143-2.437,0.861-3.439c0.859-0.861,1.935-1.362,3.225-1.507
		c3.155-0.287,4.875,1.149,5.161,4.303l-1.074,3.441l-3.227,1.505c-1.29,0.143-2.437-0.215-3.441-1.076L330.014,254.19"/>
	<path fill="#C283A6" d="M56.459,476.131c6.451,2.438,14.839,4.374,25.162,5.811c29.393,4.012,47.6,10.39,54.626,19.138
		c6.595,8.171,4.014,19.644-7.744,34.409c5.306-8.174,6.74-14.553,4.302-19.141c-4.014-7.742-10.754-13.047-20.215-15.914
		l-27.957-4.517c-12.188-1.433-21.506-3.94-27.959-7.526c-9.318-5.162-16.056-13.623-20.216-25.377
		C42.194,468.747,48.86,473.12,56.459,476.131"/>
	<path fill="#C283A6" d="M734.323,444.734c14.339-4.159,24.375-11.328,30.108-21.508l-1.073,4.088
		c-3.729,12.76-11.759,21.502-24.088,26.233c-8.602,3.302-21.438,5.091-38.494,5.381l-38.714,1.718
		c-12.756,2.15-21.146,7.385-25.158,15.698c-5.305,11.328-6.238,21.794-2.795,31.4c-10.466-13.622-12.688-26.454-6.668-38.494
		c6.163-11.901,17.706-17.849,34.621-17.849C694.756,451.402,718.84,449.18,734.323,444.734"/>
	<path fill="#C283A6" d="M233.455,574.842c14.479,0,27.597,3.658,39.355,10.973c6.881,4.302,16.13,12.258,27.743,23.869
		c11.613,11.608,21.074,19.57,28.387,23.868c12.044,7.316,25.593,10.972,40.646,10.972c23.513,0,45.238-7.17,65.167-21.504
		c10.608-7.604,18.203-12.545,22.792-14.845c9.32-4.44,19.575-6.664,30.756-6.664c23.655,0,45.23,8.173,64.729,24.515l20.436,16.775
		c7.45,5.018,14.835,7.526,22.151,7.526c9.03,0,18.422-5.019,28.172-15.054c9.75-10.037,20.999-15.055,33.763-15.055
		c8.601,0,21.79,2.941,39.572,8.819c11.61,3.726,21.933,2.509,30.967-3.654c-7.313,11.324-19.714,16.056-37.206,14.191l-21.074-3.44
		l-18.278-0.861c-7.746,1.436-17.065,6.597-27.961,15.488c-9.75,7.881-19.93,11.824-30.538,11.824
		c-5.447,0-11.973-2.294-19.566-6.883l-22.801-15.27c-22.22-14.478-44.732-21.289-67.524-20.431
		c-10.751,0.429-20.501,2.724-29.249,6.884c-3.873,1.723-11.039,6.02-21.504,12.901c-18.642,12.331-39.86,18.498-63.66,18.498
		c-21.363,0-42.511-9.539-63.444-28.604l-24.516-21.509c-9.461-7.165-19.068-11.682-28.818-13.547
		c-19.784-3.873-50.968,1.078-93.55,14.84c-18.782,6.167-31.971,9.749-39.57,10.753c-12.044,1.863-20.504,0-25.376-5.592
		c-1.865-2.009-3.227-4.23-4.088-6.664c15.915,9.893,38.997,7.67,69.249-6.669l37.206-17.634
		C210.154,577.779,222.701,574.842,233.455,574.842"/>
	<path fill="#0D131A" d="M391.307,317.203c47.026,2.437,80.574,3.155,100.646,2.151c4.875-0.286,9.606-2.294,14.196-6.022
		c1.574-1.291,2.723-1.648,3.438-1.076c0.721,0.575,0.501,1.65-0.644,3.228l-7.527,6.88c-2.58,1.147-5.952,1.865-10.106,2.151
		c-26.239,1.291-58.424,0.933-96.564-1.076l-102.582-8.817l-8.603-3.225l-7.096-6.237c-2.581-3.298-3.441-5.233-2.581-5.807
		c0.716-0.43,2.581,0.646,5.59,3.227c4.3,3.584,8.818,5.734,13.55,6.452L391.307,317.203"/>
</g>
</svg>
