<?xml version="1.0" encoding="utf-8"?>
<!-- Generator: Adobe Illustrator 16.0.0, SVG Export Plug-In . SVG Version: 6.00 Build 0)  -->
<!DOCTYPE svg PUBLIC "-//W3C//DTD SVG 1.1//EN" "http://www.w3.org/Graphics/SVG/1.1/DTD/svg11.dtd">
<svg version="1.1" id="Layer_1" xmlns="http://www.w3.org/2000/svg" xmlns:xlink="http://www.w3.org/1999/xlink" x="0px" y="0px"
	 width="800px" height="800px" viewBox="0 0 800 800" enable-background="new 0 0 800 800" xml:space="preserve">
<g>
	<path fill="#5DC1CF" d="M132.978,545.46c-20.759-14.085-38.044-21.309-51.854-21.672c21.399-20.396,47.738-32.103,79.015-35.121
		c33.838-3.29,65.389,5.032,94.654,24.969c-12.528-29.175-14.815-55.785-6.859-79.84c5.03-14.996,12.896-27.069,23.595-36.215
		c13.17-11.432,24.006-27.893,32.512-49.385c19.662,32.923,26.339,67.859,20.028,104.805c-6.493,37.496-24.143,62.691-52.951,75.588
		l-7.82,8.641c-18.93,18.838-41.931,27.985-69.001,27.437C171.708,564.116,151.269,557.716,132.978,545.46"/>
	<path fill="#50A8B4" d="M81.945,524.061c17.468-6.036,40.24-1.734,68.317,12.896c12.163,6.311,29.128,9.284,50.893,8.917
		c22.406-0.367,41.565-4.209,57.479-11.523l4.527,2.606c-8.322,9.235-19.343,16.368-33.062,21.398
		c-14.449,5.214-29.905,7.272-46.366,6.174c-12.895-0.822-30.591-7.682-53.089-20.576
		C108.514,531.057,92.281,524.425,81.945,524.061"/>
	<path fill="#50A8B4" d="M270.842,528.313l-2.88-1.78c22.224-19.114,36.444-46.231,42.663-81.35
		c5.945-33.196,3.567-65.161-7.133-95.89c8.596,14.633,14.724,30.82,18.382,48.563c3.75,17.925,4.527,35.345,2.333,52.265
		C319.268,489.08,301.48,515.145,270.842,528.313"/>
	<path fill="#0D131A" d="M290.322,379.473c-4.39,6.128-10.563,13.125-18.52,20.99c-15.09,15.089-23.641,32.738-25.653,52.951
		c-1.919,19.479,2.287,40.74,12.621,63.789l-6.037-4.39c-11.888-26.521-15.227-50.438-10.014-71.746
		c3.841-15.729,12.529-30.361,26.064-43.897c7.774-7.865,14.038-15.181,18.794-21.949c6.31-9.146,10.883-18.565,13.718-28.259
		c0.641-2.103,1.327-3.156,2.058-3.156c0.64,0.092,1.417,1.053,2.332,2.881c11.157,20.759,18.336,42.571,21.538,65.436
		c3.2,23.136,1.829,43.712-4.115,61.729c-8.14,24.325-24.647,42.799-49.523,55.421l-4.252-2.333
		c23.503-11.706,39.417-30.043,47.738-55.009c5.03-15.363,6.493-34.021,4.39-55.968c-2.196-23.14-8.049-44.403-17.559-63.79
		C301.161,361.594,296.632,370.694,290.322,379.473"/>
	<path fill="#0D131A" d="M137.503,551.497c-12.985-8.141-22.177-13.582-27.573-16.325c-10.791-5.395-20.394-8.367-28.808-8.917
		c-1.556-0.091-2.469-0.501-2.744-1.234c-0.275-0.729,0.137-1.6,1.235-2.604c11.706-10.701,24.92-19.254,39.645-25.654
		c15.09-6.675,30.5-10.471,46.229-11.385c17.925-1.1,34.981,0.96,51.168,6.173c17.102,5.487,31.78,14.129,44.036,25.926
		c1.188,1.189,1.554,2.105,1.097,2.743c-0.549,0.645-1.463,0.458-2.744-0.547c-14.724-10.883-29.768-18.567-45.133-23.047
		c-14.815-4.298-30.865-5.942-48.149-4.938c-32.101,2.014-58.805,12.348-80.114,31.003c8.597,0.822,18.063,3.794,28.396,8.916
		l26.201,15.09c18.108,10.885,37.862,15.958,59.262,15.228c24.236-0.913,45.087-9.604,62.555-26.064l3.43,2.194
		c-18.474,18.841-40.195,28.899-65.16,30.18C178.292,569.421,157.35,563.843,137.503,551.497"/>
	<path fill="#5DC1CF" d="M333.67,281.802c3.384-8.323,8.964-17.513,16.736-27.574c6.311,8.506,14.908,16.92,25.79,25.242
		c9.42,7.225,18.108,12.576,26.064,16.05c4.207-10.792,10.747-22.68,19.618-35.667c7.954-11.706,14.631-19.937,20.027-24.692
		c13.169,3.384,26.841,12.667,41.018,27.847c13.441,14.266,21.445,27.07,24.007,38.41c1.005,4.756,1.145,16.142,0.409,34.157
		c-0.821,19.205-2.331,31.278-4.524,36.216c-2.652,6.31-11.66,16.416-27.025,30.315c-16.371,14.816-28.717,23.094-37.039,24.829
		c-8.595,1.738-22.953-0.547-43.075-6.858c-19.206-6.033-32.054-11.889-38.547-17.558c-5.487-4.755-11.66-16.233-18.519-34.434
		c-5.305-14.083-9.512-27.618-12.621-40.604C326.081,309.558,328.643,294.33,333.67,281.802"/>
	<path fill="#0D131A" d="M447.668,337.222c-2.926-13.443-1.142-25.058,5.352-34.843c6.586-9.877,16.37-15.594,29.355-17.147
		c5.487,8.413,8.368,16.964,8.645,25.651c0.272,7.958-1.512,13.993-5.352,18.108c-3.201,3.568-8.229,6.219-15.09,7.957
		C462.897,338.868,455.261,338.959,447.668,337.222"/>
	<path fill="#0D131A" d="M354.385,358.896c-4.665-1.828-8.369-5.806-11.112-11.934c-2.834-6.585-3.977-14.403-3.429-23.458
		c9.329-3.384,18.566-2.377,27.71,3.019c9.42,5.578,15.364,14.038,17.833,25.378c-2.835,3.475-7.271,5.991-13.307,7.545
		L354.385,358.896"/>
	<path fill="#5DC1CF" d="M532.446,443.674c8.14,15.729,21.398,31.275,39.782,46.642c15.181,12.528,31.46,23.228,48.835,32.102
		c24.052,12.346,41.748,27.345,53.091,44.993c9.603,14.815,13.718,29.493,12.346,44.033c-7.685,6.859-22.407,11.981-44.174,15.366
		c-22.315,3.565-37.496,2.789-45.542-2.334c-9.604,7.502-19.572,13.948-29.906,19.345c-9.97,5.212-18.201,8.458-24.691,9.739
		l-29.219,1.646c-9.057,28.901-21.722,59.537-38.001,91.911c-3.109,6.127-6.994,10.929-11.659,14.402
		c-4.757,3.566-8.822,4.436-12.209,2.607l-14.266,0.412c-8.507,0.547-13.398-3.021-14.68-10.701
		c-1.188-7.408,1.234-13.809,7.271-19.205c10.151-9.329,21.126-39.369,32.924-90.126c-10.885-3.842-22.771-8.917-35.667-15.229
		c-0.186-2.742-0.822-5.027-1.922-6.857c-0.916-1.463-1.967-2.331-3.155-2.604l-16.599-59.537
		c-7.866-29.63-11.843-54.003-11.936-73.116L532.446,443.674"/>
	<path fill="#922F00" d="M420.508,408.557c-6.128-4.938-11.937-12.027-17.424-21.265c2.472-1.372,4.941-3.611,7.408-6.721
		c2.838-3.475,4.619-6.951,5.351-10.427c5.579,2.287,11.157,3.934,16.735,4.939l13.444,0.686c1.281,6.584,1.921,13.305,1.921,20.165
		l-15.502,1.372C426.224,399.318,422.247,403.068,420.508,408.557"/>
	<path fill="#ED8599" d="M420.231,408.967c1.281-4.847,4.574-8.459,9.879-10.837c5.303-2.469,11.293-2.973,17.97-1.51
		c0,3.934-0.64,7.5-1.921,10.7c-1.554,3.935-3.797,6.355-6.723,7.271c-3.107,1.005-6.217,1.005-9.326,0L420.231,408.967"/>
	<path fill="#00568A" d="M335.043,259.029c-2.835,4.847-5.258,10.151-7.271,15.914c-1.919,5.578-3.109,10.562-3.566,14.952
		c-24.327-20.943-55.101-37.587-92.322-49.933c-35.028-11.706-74.763-19.298-119.21-22.772c28.533-4.938,65.755-2.88,111.665,6.173
		C267.962,232.051,304.863,243.939,335.043,259.029"/>
	<path fill="#00568A" d="M551.788,198.808c-29.995,29.448-44.951,63.65-44.856,102.61c-5.945-15.181-14.632-28.716-26.063-40.606
		c-11.889-12.253-24.878-20.805-38.96-25.651c-5.942,5.395-12.528,13.625-19.754,24.692c-7.133,10.791-13.625,22.406-19.479,34.843
		c-8.049-1.372-17.377-6.493-27.986-15.364c-8.047-6.859-16.142-15.227-24.281-25.104c-6.859,7.225-12.529,16.873-17.01,28.945
		c-5.214,14.266-7.592,29.401-7.134,45.406c-6.859-23.687-3.659-46.916,9.603-69.687c12.986-22.314,31.14-36.902,54.46-43.761
		c17.286-5.029,35.532-5.121,54.737-0.274c14.446,3.659,27.846,9.557,40.191,17.697c27.437-27.802,57.297-51.168,89.579-70.099
		c37.406-21.949,75.768-36.445,115.095-43.486C627.101,143.478,581.055,170.091,551.788,198.808"/>
	<path fill="#FFF8B0" d="M178.247,277.548c-2.56-16.461-10.197-29.905-22.909-40.33c-10.517-8.689-23.823-14.816-39.919-18.383
		c36.764-0.366,75.906,6.905,117.425,21.813c38.32,13.625,68.637,29.813,90.951,48.561c-1.189,10.792-0.366,23.916,2.469,39.371
		c2.652,14.267,6.082,26.11,10.289,35.53c-14.999,2.104-28.625,5.67-40.879,10.7c-13.536,5.761-23.734,12.757-30.592,20.988
		c0.915-26.155-5.669-50.391-19.753-72.706C229.048,297.394,206.688,282.213,178.247,277.548"/>
	<path fill="#FFF8B0" d="M666.196,147.228c-5.306,11.98-6.446,25.15-3.431,39.507c-24.691,18.749-41.748,40.423-51.169,65.024
		c-10.883,28.167-12.023,60.543-3.43,97.123c-10.607-9.145-26.292-16.187-47.051-21.125c-17.193-4.115-35.026-6.266-53.5-6.448
		l-0.276-16.187l-0.137-18.382c1.83-34.752,20.805-67.675,56.93-98.771c31.919-27.527,71.976-49.614,120.169-66.258
		C675.708,130.675,669.672,139.18,666.196,147.228"/>
	<path fill="#FFFFFF" d="M314.055,225.558c3.018-6.768,3.704-13.445,2.058-20.029c10.152,2.104,19.296-0.137,27.436-6.721
		c7.499-6.037,11.34-13.078,11.523-21.126c8.688,3.475,20.257,3.475,34.707,0c14.724-3.566,25.653-9.237,32.788-17.011
		c8.598,9.695,18.747,14.267,30.453,13.718c9.695-0.457,18.704-4.161,27.024-11.111c2.744,8.231,7.818,14.999,15.228,20.302
		c7.227,5.213,14.861,7.819,22.908,7.819c0.821,4.481,1.829,7.591,3.02,9.328c-14.268,11.706-26.246,22.314-35.942,31.826
		c-31.366-20.028-62.05-25.928-92.048-17.697c-25.608,6.953-44.996,21.676-58.165,44.173c-4.482-2.194-10.609-4.847-18.382-7.956
		c-7.774-3.018-14.038-5.258-18.794-6.722C305.458,239.047,310.854,232.783,314.055,225.558"/>
	<path fill="#FFFFFF" d="M546.438,324.601c12.255,2.196,22.407,4.849,30.455,7.958c-1.005,4.389-0.913,9.51,0.272,15.363
		c1.281,6.677,3.657,12.667,7.135,17.971c-13.534,7.774-22.635,18.245-27.299,31.414c-4.114,11.982-4.023,24.191,0.273,36.627
		c-12.805,2.01-24.784,8.184-35.94,18.521c-11.797,10.883-19.39,23.503-22.771,37.86c-14.543-5.854-30.043-6.996-46.504-3.43
		c-15.549,3.475-28.718,10.288-39.511,20.44c-8.688-12.438-20.073-21.813-34.157-28.122c-13.353-5.945-25.836-7.775-37.45-5.487
		c-3.384-14.176-9.786-25.561-19.205-34.158c-8.78-8.049-18.566-12.255-29.357-12.622c0.091-16.368-5.578-29.813-17.011-40.33
		c14.176-11.157,34.569-18.656,61.183-22.497c2.834,7.773,5.807,14.861,8.917,21.263c4.481,9.237,8.322,15.135,11.522,17.696
		c6.951,5.212,20.075,11.065,39.371,17.559c21.675,7.316,35.989,9.42,42.938,6.31c11.523-5.028,24.465-14.128,38.822-27.297
		c13.353-12.163,21.445-21.629,24.28-28.396c3.11-7.133,4.847-23.777,5.214-49.933C519.505,321.035,532.446,322.132,546.438,324.601
		"/>
	<path fill="#50A8B4" d="M470.029,754.796c-6.495,7.958-12.941,11.114-19.342,9.467c-2.104,1.099-4.436,1.601-6.996,1.508
		c-2.47,0-4.573-0.504-6.313-1.508c-4.938,2.104-9.188,0.687-12.756-4.252c-3.475-4.848-4.023-10.016-1.646-15.503
		c0.549,1.739,1.692,3.021,3.43,3.842l5.487,0.138c1.188,3.02,3.247,4.847,6.173,5.486c2.834,0.642,5.626,0,8.37-1.921
		c3.748,4.024,9.28,3.979,16.598-0.137c8.231-4.665,15.548-13.26,21.949-25.788C480.591,738.383,475.607,747.938,470.029,754.796"/>
	<path fill="#50A8B4" d="M539.718,586.478c-2.379,9.785-2.7,21.127-0.962,34.021c1.647,12.983,4.848,23.271,9.604,30.865
		c-5.029,2.102-11.385,3.43-19.068,3.977c-6.125,0.458-11.703,0.367-16.734-0.272C523.348,624.979,532.4,602.116,539.718,586.478"/>
	<path fill="#50A8B4" d="M538.347,599.646c3.107,12.348,10.425,20.896,21.948,25.654c11.339,4.662,23.411,4.479,36.213-0.55
		c-18.016,13.441-34.063,22.315-48.148,26.614c-3.293-5.487-5.806-12.438-7.545-20.854
		C538.894,621.186,538.07,610.896,538.347,599.646"/>
	<path fill="#50A8B4" d="M422.43,519.396c3.934,11.067,11.247,22.589,21.948,34.57c11.156,12.528,21.627,20.438,31.412,23.729
		l-4.524,23.733c-11.343-9.053-21.265-20.713-29.771-34.979C432.81,552.001,426.453,536.314,422.43,519.396"/>
	<path fill="#00426F" d="M323.932,289.072c-22.405-19.114-52.174-35.072-89.303-47.876c-37.954-13.169-78.467-21.263-121.542-24.281
		c38.045-1.097,76.73,3.796,116.055,14.679c38.044,10.608,70.693,25.104,97.945,43.486L323.932,289.072"/>
	<path fill="#00426F" d="M563.175,189.342c-37.86,31.826-56.793,68.454-56.793,109.881l-6.858-14.404
		c-2.926-5.761-5.306-9.876-7.132-12.346c7.682-32.831,31.093-63.925,70.234-93.283c36.216-27.161,77.552-47.007,124.011-59.535
		C630.852,143.707,589.697,166.937,563.175,189.342"/>
	<path fill="#DDD698" d="M122.141,220.208c28.442-1.738,63.423,4.39,104.943,18.382c41.977,14.175,74.259,31.002,96.848,50.482
		l-0.96,10.288l-0.137,10.836c-3.202-2.376-10.106-6.173-20.715-11.385c-15.821-18.381-43.394-35.529-82.719-51.442
		C184.923,233.376,152.502,224.323,122.141,220.208"/>
	<path fill="#DDD698" d="M180.99,277.687c17.924-6.402,43.257-5.122,75.998,3.841c29.265,7.956,51.351,17.649,66.257,29.082
		c0.091,2.469,0.595,6.264,1.509,11.386l2.332,10.7l-19.342-0.96c-6.677-14.541-24.83-27.756-54.46-39.644
		C225.117,280.841,201.02,276.04,180.99,277.687"/>
	<path fill="#DDD698" d="M255.752,343.395c7.225-4.206,18.245-7.499,33.062-9.877c15.456-2.56,28.213-2.835,38.272-0.823
		c2.196,10.7,5.213,21.309,9.055,31.826l-10.974,1.646c-6.127-10.061-13.582-17.147-22.361-21.263
		C290.459,339.234,274.775,338.731,255.752,343.395"/>
	<path fill="#DDD698" d="M532.995,256.697c-5.854,5.671-14.771,17.742-26.75,36.216c1.554-38.044,20.394-72.842,56.519-104.393
		c30.729-26.796,70.922-49.019,120.58-66.67c-37.401,19.754-68.226,39.508-92.46,59.262
		C558.419,207.45,539.123,232.645,532.995,256.697"/>
	<path fill="#DDD698" d="M537.11,287.563c-12.804,4.665-22.862,10.151-30.18,16.461l-0.275-12.62
		c33.566-55.696,84.869-90.219,153.917-103.571c-26.704,10.425-52.541,25.013-77.506,43.76
		C554.531,252.994,539.214,271.65,537.11,287.563"/>
	<path fill="#DDD698" d="M604.466,280.292c-16.826,0.184-32.374,4.39-46.642,12.621c-14.358,8.322-23.047,18.199-26.064,29.63
		l-24.556-0.822l-0.272-17.697c12.347-9.419,26.979-16.278,43.897-20.577C568.662,278.875,586.541,277.823,604.466,280.292"/>
	<path fill="#DBDCDC" d="M313.369,249.564c5.03-0.366,9.191-2.287,12.484-5.762c3.2-3.384,4.663-7.271,4.389-11.66
		c8.871-0.457,16.279-3.568,22.223-9.328c5.305-5.305,8.642-11.89,10.014-19.754c8.596,4.207,19.023,4.526,31.278,0.96
		c12.53-3.659,20.715-9.786,24.557-18.383c3.473,8.231,11.155,13.261,23.045,15.09c11.522,1.83,21.308-0.182,29.355-6.035
		c0.364,7.042,3.844,12.894,10.427,17.559c6.399,4.663,13.308,6.402,20.713,5.212l-15.912,14.954
		c-28.44-18.474-57.57-24.692-87.383-18.657c-28.717,5.945-49.889,21.262-63.515,45.955
		C322.332,253.68,315.105,250.296,313.369,249.564"/>
	<path fill="#DBDCDC" d="M576.894,332.695c-13.627-2.469-23.778-1.646-30.455,2.469c-5.943,3.658-8.231,9.191-6.859,16.6
		c-8.687,1.554-14.723,7.818-18.105,18.792c-3.385,10.883-2.472,20.76,2.742,29.631c-11.064-0.731-21.398,3.613-31.002,13.034
		c-9.329,9.145-14.448,19.479-15.364,31.002c-7.955-6.222-18.747-7.728-32.374-4.528c-13.719,3.108-22.59,9.19-26.613,18.246
		c-4.024-9.237-11.569-15.548-22.635-18.932c-9.877-3.018-19.389-3.108-28.533-0.273c-0.641-8.779-4.939-16.602-12.896-23.458
		c-8.047-6.948-16.598-10.104-25.653-9.466c-4.572-9.511-10.929-16.051-19.067-19.617c-9.695-4.207-21.31-3.659-34.844,1.646
		c5.396-5.853,14.906-11.204,28.533-16.051c12.255-4.297,23.046-6.722,32.375-7.27c2.378,6.859,5.533,14.038,9.465,21.538
		c4.39,8.322,8.048,13.809,10.974,16.461c5.671,5.213,18.017,11.11,37.039,17.696c21.035,7.224,35.943,9.555,44.722,6.995
		c9.876-2.837,22.636-11.338,38.274-25.516c15.271-13.81,24.098-24.463,26.474-31.963c1.189-3.658,2.243-10.838,3.156-21.537
		c0.822-10.609,1.146-19.433,0.959-26.476C530.893,320.989,554.121,324.647,576.894,332.695"/>
	<path fill="#CE7486" d="M424.623,401.834c2.744-2.652,6.674-4.481,11.797-5.487l11.523,0.686l-1.371,10.837
		c-1.921-3.565-4.847-5.945-8.78-7.136C433.585,399.456,429.196,399.822,424.623,401.834"/>
	<path fill="#0D131A" d="M554.668,192.908c28.443-26.064,67.357-48.835,116.742-68.315c-29.542,6.402-60.862,19.617-93.968,39.646
		c-32.56,19.48-62.875,43.074-90.951,70.784l-1.785,0.138c-15.271-10.792-32.237-17.422-50.893-19.891
		c-18.839-2.562-36.4-0.504-52.678,6.173c-16.095,6.584-29.631,17.878-40.606,33.882c-11.98,17.56-17.009,35.713-15.09,54.46
		c1.83,17.102,6.631,35.896,14.404,56.382c7.499,19.845,13.993,31.642,19.479,35.393c8.962,6.219,22.178,12.07,39.646,17.559
		c18.567,5.852,31.782,7.774,39.646,5.761c7.682-2.01,19.342-9.922,34.98-23.73c15.912-14.083,24.921-24.691,27.025-31.825
		c1.919-6.493,3.29-17.193,4.115-32.101c0.729-13.535,0.729-23.823,0-30.866C500.805,264.836,517.447,227.021,554.668,192.908
		 M688.558,116.637c3.29-0.366,5.12,0,5.487,1.097c0.364,1.189-1.008,2.378-4.115,3.567
		c-43.532,16.644-78.741,34.661-105.629,54.048c-53.5,38.502-78.282,82.08-74.353,130.732c0.913,11.798,0.822,24.739-0.273,38.823
		c-1.005,11.797-2.284,20.485-3.842,26.064c-2.193,7.59-11.843,18.701-28.944,33.336c-16.645,14.265-29.038,22.449-37.176,24.553
		c-8.779,2.285-23.093,0.367-42.938-5.761c-18.199-5.578-31.688-11.433-40.468-17.56c-5.853-4.021-12.712-16.324-20.577-36.901
		c-8.23-21.217-13.26-40.697-15.089-58.439c-2.196-20.758,3.611-40.649,17.421-59.673c11.798-16.186,25.516-27.481,41.153-33.882
		c16.553-6.677,34.48-8.825,53.776-6.448c19.297,2.469,36.718,9.099,52.266,19.891c27.712-30.454,60.359-55.969,97.946-76.546
		C619.419,133.693,654.536,121.393,688.558,116.637"/>
	<path fill="#0D131A" d="M421.193,159.299l2.881,0.138c5.669,7.59,14.13,11.797,25.378,12.621
		c11.797,0.823,21.627-2.698,29.494-10.563c1.28-1.281,2.239-1.051,2.88,0.686c2.563,7.59,7.454,14.038,14.68,19.342
		c7.041,5.122,14.313,7.729,21.811,7.819c1.099,0,1.692,0.641,1.784,1.921c0.183,3.017,1.188,5.853,3.018,8.504l-3.291,2.744
		c-0.825-1.097-1.554-2.56-2.196-4.389l-1.096-4.939c-8.23-0.274-15.729-2.789-22.498-7.545
		c-7.133-4.938-12.024-11.431-14.678-19.479c-8.141,7.592-17.742,11.203-28.809,10.837c-11.433-0.366-20.853-5.03-28.262-13.993
		c-7.405,7.865-17.742,13.443-31.002,16.736c-12.803,3.201-24.28,3.338-34.432,0.411c-1.463,9.512-6.037,16.966-13.718,22.36
		c-7.408,5.122-15.685,6.951-24.829,5.487c0.731,7.042-0.184,13.581-2.744,19.618c-3.202,7.225-8.689,13.032-16.462,17.421
		l-4.528-1.92c7.774-3.933,13.398-9.832,16.874-17.697c2.835-6.493,3.75-13.078,2.744-19.753c-0.184-0.824-0.047-1.417,0.412-1.785
		l1.783-0.273c7.5,2.469,15.181,1.097,23.046-4.116c8.049-5.487,12.621-12.85,13.718-22.086c0.091-1.646,0.869-2.24,2.332-1.783
		c9.237,3.2,20.714,3.018,34.432-0.549C403.084,171.6,413.513,166.342,421.193,159.299"/>
	<path fill="#0D131A" d="M343.822,246.821l-2.194,3.017c-7.317-8.322-13.398-16.964-18.246-25.926
		c-1.097-2.012-1.279-3.201-0.548-3.567c0.731-0.457,1.692,0.32,2.88,2.332C331.661,231.731,337.695,239.778,343.822,246.821"/>
	<path fill="#0D131A" d="M373.18,222.128l-3.156,1.92c-2.103-3.292-4.252-7.773-6.446-13.443c-2.195-5.853-3.704-11.02-4.528-15.501
		c-0.273-1.921,0-2.927,0.824-3.019c0.914-0.182,1.554,0.686,1.92,2.607c0.733,3.75,2.332,8.504,4.801,14.266
		C368.88,214.538,371.076,218.927,373.18,222.128"/>
	<path fill="#0D131A" d="M418.314,211.702h-3.431c0.822-18.84,2.011-32.008,3.566-39.508c0.549-2.469,1.235-3.611,2.058-3.429
		c0.822,0.184,1.054,1.555,0.687,4.115C420.371,178.368,419.409,191.309,418.314,211.702"/>
	<path fill="#0D131A" d="M461.662,219.796l-3.293-1.372c2.379-6.037,5.305-12.667,8.78-19.891
		c3.657-7.408,6.813-13.307,9.466-17.697c1.096-1.737,2.009-2.378,2.743-1.919c0.729,0.366,0.595,1.463-0.412,3.292
		C473.187,192.543,467.422,205.072,461.662,219.796"/>
	<path fill="#0D131A" d="M330.517,284.271c3.841-11.158,9.968-21.674,18.383-31.551c1.006-1.097,1.919-1.097,2.744,0
		c5.487,7.134,13.123,14.861,22.909,23.183c10.882,9.055,19.708,14.679,26.475,16.875c14.085-28.442,27.209-48.288,39.372-59.537
		c0.459-0.366,0.868-0.502,1.234-0.412c11.34,2.926,23.504,10.243,36.489,21.949c15.183,13.627,24.784,28.259,28.809,43.898
		l0.137,14.404c-2.743-17.468-11.614-34.066-26.613-49.796c-13.077-13.718-25.788-22.269-38.134-25.653
		c-10.61,9.968-23.503,29.63-38.688,58.987c-0.272,0.731-0.821,0.961-1.646,0.686c-7.409-1.921-16.51-7.225-27.3-15.914
		c-10.152-8.048-18.199-16.004-24.143-23.869c-9.603,11.615-16.05,24.967-19.343,40.057c-2.469,11.065-3.292,23.686-2.469,37.861
		l-3.841-12.483C324.801,308.414,326.675,295.52,330.517,284.271"/>
	<path fill="#0D131A" d="M371.396,326.247c8.505,6.219,13.718,14.77,15.639,25.653c0.457,2.103,0.274,3.247-0.549,3.429
		c-0.823,0.091-1.508-0.868-2.058-2.88c-2.469-9.603-7.498-17.193-15.09-22.772c-4.572-3.384-9.603-5.395-15.09-6.035
		c-5.578-0.824-11.202-0.138-16.873,2.058l-3.155-0.138c-0.274-0.823,0.457-1.646,2.194-2.469c6.127-2.744,12.301-3.795,18.52-3.155
		C360.879,320.578,366.367,322.681,371.396,326.247"/>
	<path fill="#0D131A" d="M386.349,353.546c-4.847,4.481-10.791,7.225-17.833,8.231c-6.127,0.915-11.523,0.32-16.187-1.783
		c-4.939-2.195-8.689-6.768-11.249-13.718c-2.652-7.042-3.384-14.679-2.194-22.909l2.606-0.824
		c-0.731,7.5,0.138,14.542,2.607,21.126c2.469,6.493,5.762,10.654,9.877,12.483c4.207,1.921,9.145,2.516,14.815,1.784
		c6.31-0.731,11.797-3.018,16.461-6.859L386.349,353.546"/>
	<path fill="#0D131A" d="M484.297,283.585c2.104-0.091,3.201,0.274,3.292,1.097c0.093,0.822-0.962,1.372-3.155,1.646
		c-12.256,1.463-21.768,6.813-28.534,16.05c-6.858,8.962-9.42,20.348-7.683,34.157c0.276,2.012-0.045,3.018-0.959,3.018
		c-0.821,0.091-1.417-0.868-1.783-2.88c-1.097-7.5-1.146-14.038-0.138-19.618c1.1-5.853,3.521-11.431,7.271-16.734
		C459.468,290.169,470.029,284.591,484.297,283.585"/>
	<path fill="#0D131A" d="M480.867,285.368l3.017-0.275c5.396,7.225,8.416,15.501,9.055,24.831c0.549,8.504-0.914,14.815-4.39,18.93
		c-3.843,4.664-9.647,7.911-17.421,9.739c-8.049,1.921-16.098,1.738-24.146-0.548l0.275-2.607
		c8.047,1.463,15.549,1.372,22.498-0.274c6.859-1.646,12.024-4.572,15.5-8.779c3.11-3.659,4.344-9.603,3.705-17.833
		C488.228,299.863,485.531,292.136,480.867,285.368"/>
	<path fill="#0D131A" d="M411.729,357.662c-1.1-0.366-1.693-0.87-1.784-1.51c-0.184-0.639,1.144-1.279,3.979-1.92
		c2.838-0.64,4.345-0.64,4.528,0c0.182,0.641-0.137,1.372-0.962,2.194c-0.729,0.824-1.646,1.326-2.744,1.51L411.729,357.662"/>
	<path fill="#0D131A" d="M462.071,366.168c1.008-1.006,1.785-1.327,2.334-0.96c0.55,0.365,0.41,1.143-0.412,2.332
		c-4.389,6.219-11.248,9.603-20.577,10.15c-8.413,0.366-17.192-1.508-26.338-5.624c-3.475,9.237-8.324,14.999-14.543,17.284
		c-5.579,2.012-10.38,0.778-14.404-3.704c-1.097-1.188-1.463-2.011-1.097-2.469c0.457-0.457,1.326-0.228,2.607,0.686
		c4.663,3.202,9.053,3.75,13.17,1.646c4.569-2.287,8.595-7.682,12.071-16.187c0.364-0.915,0.959-1.189,1.782-0.824
		c8.871,3.75,17.057,5.625,24.557,5.625C450.274,374.215,457.229,371.562,462.071,366.168"/>
	<path fill="#0D131A" d="M443.965,375.77l3.703-0.413c1.738,10.792,2.333,19.114,1.784,24.967
		c-0.822,8.142-3.842,13.353-9.054,15.641c-5.854,2.559-12.665,0.822-20.439-5.214c-7.313-5.67-13.354-13.261-18.108-22.773
		l3.292-1.783c4.481,8.871,9.879,16.006,16.188,21.399c6.859,5.945,12.802,7.82,17.834,5.627c4.115-1.83,6.446-6.037,6.995-12.623
		C446.526,395.295,445.792,387.018,443.965,375.77"/>
	<path fill="#0D131A" d="M421.467,409.516l-2.331-1.509c1.278-5.028,4.894-8.825,10.839-11.387
		c5.761-2.56,11.843-3.155,18.242-1.783l-0.272,3.43c-5.486-1.372-10.929-1.006-16.324,1.097
		C425.858,401.561,422.473,404.943,421.467,409.516"/>
	<path fill="#0D131A" d="M324.754,287.426l-0.959,4.938c-25.333-21.034-56.291-37.77-92.871-50.208
		c-35.758-12.162-74.855-19.525-117.289-22.085c-3.018-0.092-4.619-0.731-4.801-1.921c-0.091-1.188,1.326-2.058,4.252-2.607
		c30.18-5.853,68.362-4.252,114.545,4.801c43.623,8.598,80.159,20.76,109.607,36.491l-2.607,4.663
		c-27.893-13.351-60.771-24.325-98.631-32.923c-41.887-9.603-77.965-13.305-108.235-11.111
		c39.233,2.652,76.135,10.197,110.705,22.635C272.124,252.17,300.885,267.946,324.754,287.426"/>
	<path fill="#0D131A" d="M574.561,346.002c-0.639-4.939-0.547-9.694,0.274-14.268l4.115,1.372
		c-1.099,5.212-0.87,10.883,0.687,17.011c1.371,5.487,3.702,10.7,6.995,15.638c0.55,0.824,0.413,1.464-0.412,1.921
		c-12.711,6.584-21.581,16.05-26.61,28.396c-4.94,12.348-5.031,24.967-0.275,37.862c0.367,1.096,0,1.69-1.096,1.782
		c-12.347,2.012-24.649,8.916-36.902,20.714c-12.255,11.891-19.159,23.551-20.714,34.98c-0.182,1.188-0.825,1.511-1.921,0.962
		c-11.342-5.487-25.928-6.401-43.761-2.744c-17.742,3.657-31.644,10.38-41.703,20.165c-0.731,0.73-1.418,0.64-2.059-0.273
		c-7.133-10.606-16.919-19.16-29.356-25.653c-13.901-7.225-27.574-9.877-41.017-7.955c-0.823,0.183-1.326-0.138-1.508-0.962
		c-2.287-11.431-8.049-21.857-17.286-31.275c-9.785-10.062-19.799-14.953-30.042-14.68c-1.006,0.183-1.463-0.273-1.372-1.372
		c0.548-6.311-1.051-13.624-4.801-21.945c-3.75-8.324-8.048-14.04-12.896-17.149l2.744-2.744
		c5.579,3.109,10.243,8.779,13.993,17.009c3.659,7.958,5.258,15.503,4.801,22.635c10.975,0.186,21.263,5.12,30.866,14.816
		c9.053,9.234,14.906,19.798,17.559,31.688c14.724-2.012,28.625,0.412,41.703,7.271c11.34,5.941,20.713,14.403,28.122,25.378
		c10.337-9.784,24.007-16.37,41.018-19.754c16.92-3.385,31.46-2.426,43.624,2.88c2.377-12.438,9.236-24.188,20.577-35.254
		c11.433-10.976,23.64-17.697,36.626-20.167c-4.482-12.894-4.616-25.193-0.41-36.9c4.662-12.621,13.811-22.635,27.438-30.043
		C577.808,359.309,575.477,352.861,574.561,346.002"/>
	<path fill="#0D131A" d="M177.287,279.881c-0.639-0.091-1.052-0.502-1.234-1.235c-0.731-13.26-7.134-25.515-19.205-36.764
		c-12.164-11.34-26.979-18.702-44.447-22.085l5.076-2.333c17.65,3.566,32.146,10.654,43.486,21.263s17.604,22.91,18.794,36.902
		c25.149,4.115,46.092,17.33,62.828,39.644c16.736,22.223,24.92,47.785,24.554,76.684c7.5-8.322,18.017-15.136,31.551-20.44
		c11.524-4.572,23.87-7.59,37.039-9.053l1.785,3.566c-13.536,1.556-26.293,4.801-38.274,9.741
		c-13.718,5.669-24.556,12.803-32.512,21.399c-1.097,1.19-1.92,1.646-2.469,1.372c-0.457-0.274-0.686-1.235-0.686-2.88
		c0.366-28.351-7.82-53.684-24.556-75.998C222.374,297.532,201.796,284.271,177.287,279.881"/>
	<path fill="#0D131A" d="M536.563,348.745c10.883,1.92,20.164,4.161,27.849,6.721c2.102,0.733,3.017,1.51,2.743,2.333l-3.568,0.274
		l-27.846-6.037l-28.944-3.566l0.409-3.566L536.563,348.745"/>
	<path fill="#0D131A" d="M539.306,410.338c1.735,1.466,2.33,2.517,1.784,3.156c-0.55,0.73-1.738,0.366-3.568-1.1
		c-15.271-11.797-30.088-20.667-44.444-26.611l2.331-3.018c7.866,3.293,15.181,7.088,21.949,11.386
		C524.033,398.359,531.349,403.755,539.306,410.338"/>
	<path fill="#0D131A" d="M462.349,413.356l3.152-2.47c2.197,6.219,6.173,15.32,11.938,27.299
		c5.944,12.162,11.155,21.949,15.639,29.357c0.914,1.735,1.051,2.835,0.41,3.29c-0.731,0.367-1.646-0.229-2.743-1.782
		c-4.938-7.408-10.426-17.102-16.462-29.083C468.612,428.721,464.633,419.85,462.349,413.356"/>
	<path fill="#0D131A" d="M417.488,426.114l3.705,0.549c-0.731,8.596-0.913,28.626-0.549,60.086c0.091,2.744-0.321,4.114-1.235,4.114
		c-0.822,0-1.326-1.37-1.509-4.114C416.62,459.131,416.483,438.918,417.488,426.114"/>
	<path fill="#0D131A" d="M381.685,415.415l3.567,1.234l-28.396,41.151c-1.097,1.921-2.012,2.701-2.744,2.334
		s-0.595-1.557,0.411-3.566C358.913,448.339,367.965,434.62,381.685,415.415"/>
	<path fill="#0D131A" d="M349.997,393.465l1.921,3.018c-17.468,8.689-29.998,15.502-37.588,20.44
		c-2.103,1.372-3.384,1.693-3.841,0.959c-0.458-0.638,0.32-1.69,2.333-3.153C320.959,408.875,333.351,401.788,349.997,393.465"/>
	<path fill="#0D131A" d="M180.167,278.509l-2.607-2.88c19.571-5.671,43.897-4.939,72.98,2.194
		c26.613,6.493,50.756,16.507,72.431,30.042l0.549,4.801c-21.217-13.169-45.087-23.228-71.608-30.178
		C222.738,274.805,198.823,273.479,180.167,278.509"/>
	<path fill="#0D131A" d="M256.165,344.492l-1.372-3.429c10.243-4.754,22.727-8.093,37.451-10.014
		c13.078-1.646,24.738-1.874,34.981-0.686l0.686,4.39c-10.152-1.098-21.676-0.915-34.57,0.549
		C278.708,337.04,266.316,340.103,256.165,344.492"/>
	<path fill="#0D131A" d="M663.18,148.051c4.753-12.164,11.751-21.401,20.986-27.71l7.136-0.549
		c-9.693,4.574-17.287,13.993-22.773,28.26c-5.487,14.175-6.629,27.252-3.431,39.233c0.184,0.641,0.05,1.097-0.41,1.372
		c-26.063,20.486-43.348,43.303-51.854,68.453c-8.598,25.24-9.418,55.969-2.468,92.184c0.363,1.556,0.137,2.562-0.687,3.019
		c-0.917,0.458-2.105,0.045-3.568-1.234c-10.331-9.237-25.973-16.325-46.914-21.263c-17.011-4.115-34.021-6.173-51.03-6.173
		l0.137-4.253c15.641,0,31.553,1.738,47.737,5.212c21.402,4.665,37.863,11.524,49.385,20.577
		c-6.858-32.008-6.901-59.81-0.137-83.405c8.14-28.167,26.477-53.271,55.009-75.311C657.098,173.841,658.057,161.038,663.18,148.051
		"/>
	<path fill="#0D131A" d="M662.218,185.638l-1.372,3.293c-34.662,6.95-65.892,20.348-93.691,40.193
		c-27.254,19.389-47.327,42.206-60.223,68.454l-0.687-6.859c12.713-25.882,33.424-48.517,62.141-67.904
		C597.103,203.517,628.381,191.125,662.218,185.638"/>
	<path fill="#0D131A" d="M604.603,278.509l-0.409,3.155c-17.742-2.469-36.902-0.593-57.479,5.625
		c-17.741,5.304-30.959,11.706-39.646,19.205l-0.272-4.801c9.326-7.774,22.862-14.083,40.604-18.932
		C567.609,277.183,586.678,275.765,604.603,278.509"/>
	<path fill="#0D131A" d="M548.358,519.123c-0.184-2.652,0.137-4.024,0.962-4.115c0.822,0,1.415,1.326,1.781,3.979
		c3.02,20.21-0.731,44.626-11.247,73.253l-13.169,32.376c-5.123,12.163-8.461,21.032-10.017,26.61
		c-8.412,29.451-21.812,61.961-40.193,97.537c-3.018,5.853-6.95,10.288-11.798,13.307c-4.847,3.017-11.201,4.938-19.067,5.76
		c-6.583,0.734-12.164,0.049-16.735-2.059c-4.298-2.01-7.132-4.982-8.504-8.916c-1.188-3.382-1.28-6.901-0.276-10.563
		c1.006-4.115,3.202-7.957,6.587-11.523c4.298-4.481,7.954-9.97,10.975-16.462c1.83-3.839,4.206-10.012,7.132-18.519
		c5.029-14.449,11.251-38.227,18.656-71.334c10.337-45.818,16.006-83.268,17.011-112.352c0.094-2.377,0.55-3.521,1.372-3.43
		c0.822,0,1.28,1.188,1.372,3.569c0.275,29.444-4.665,67.354-14.814,113.72c-7.041,31.733-13.354,55.648-18.932,71.746
		c-2.926,8.14-5.487,14.449-7.682,18.932c-3.201,6.492-7.044,12.116-11.523,16.872c-4.479,4.755-6.265,10.016-5.351,15.775
		c0.914,5.581,3.705,8.825,8.367,9.739c-2.102-2.563-3.29-5.578-3.565-9.055c-0.183-3.475,0.64-6.54,2.47-9.188
		c0.642-1.005,1.278-1.281,1.921-0.823c0.729,0.456,0.823,1.19,0.273,2.194c-1.921,3.749-1.784,7.772,0.413,12.069
		c2.467,4.851,6.583,6.724,12.346,5.627c-3.567-3.934-3.888-9.65-0.962-17.146c0.458-1.281,1.099-1.784,1.921-1.512
		c0.823,0.183,1.051,0.917,0.688,2.196c-1.921,8.504-0.96,13.487,2.88,14.95c2.838,1.1,6.267,0.276,10.288-2.467
		c4.301-2.929,7.912-7.271,10.838-13.032c16.462-32.283,29.585-64.61,39.37-96.988l23.319-60.904
		C545.434,561.33,549.73,538.052,548.358,519.123"/>
	<path fill="#0D131A" d="M444.787,558.354c-10.425-11.247-17.924-23.503-22.498-36.765c-0.638-2.102-0.595-3.29,0.141-3.566
		c0.729-0.367,1.554,0.458,2.468,2.472c5.486,12.527,13.032,23.961,22.635,34.295c9.329,10.061,18.704,16.962,28.122,20.713
		l-1.096,4.528C464.405,576.007,454.484,568.78,444.787,558.354"/>
	<path fill="#0D131A" d="M390.328,486.063l5.075,3.153c0.733,17.284,3.202,35.026,7.41,53.227
		c2.285,9.876,6.31,24.188,12.071,42.937c4.662,15.366,7.683,26.979,9.055,34.845l-4.938-0.41
		c-0.732-3.842-2.195-9.008-4.391-15.502l-5.897-17.696C397.734,551.224,391.606,517.706,390.328,486.063"/>
	<path fill="#0D131A" d="M565.232,544.089c1.554-1.096,2.559-1.326,3.017-0.688c0.55,0.642,0.137,1.558-1.233,2.744
		c-13.442,11.614-21.858,27.62-25.239,48.014c-3.387,20.671-0.458,39.509,8.776,56.52l-4.938,2.059
		c-9.694-18.75-12.483-38.915-8.368-60.499C541.272,570.933,550.602,554.881,565.232,544.089"/>
	<path fill="#0D131A" d="M610.639,586.064c1.1-1.646,1.968-2.286,2.606-1.919c0.73,0.364,0.641,1.463-0.275,3.29
		c-2.651,5.578-5.486,13.399-8.504,23.46c-0.641,2.286-1.326,3.339-2.058,3.153c-0.731-0.272-0.917-1.599-0.55-3.979
		c0.73-4.206,1.876-8.458,3.43-12.756C606.936,592.56,608.718,588.809,610.639,586.064"/>
	<path fill="#FFFFFF" d="M459.605,299.223c2.193-0.823,4.481-0.137,6.857,2.058c2.194,2.104,3.748,4.894,4.665,8.369
		c0.729,2.835,0.822,5.624,0.273,8.368c-0.642,3.018-1.922,4.847-3.843,5.487c-2.102,0.731-4.298,0.138-6.583-1.783
		c-2.285-1.921-3.934-4.481-4.938-7.682c-1.008-3.018-1.235-5.991-0.687-8.917C455.989,302.013,457.41,300.046,459.605,299.223"/>
	<path fill="#FFFFFF" d="M362.479,326.385c2.012-0.366,3.842,0.366,5.487,2.194c1.556,1.737,2.791,4.344,3.704,7.819
		c0.731,2.926,0.686,5.624-0.136,8.093c-0.915,2.47-2.378,3.888-4.39,4.253c-1.738,0.366-3.475-0.274-5.213-1.921
		c-1.737-1.646-3.063-4.115-3.979-7.407c-0.823-3.018-0.731-5.853,0.274-8.505C359.142,328.351,360.56,326.842,362.479,326.385"/>
	<path fill="#5DC1CF" d="M259.593,534.623c-3.841-2.102-4.161-4.48-0.959-7.133c3.292-2.563,6.539-2.789,9.739-0.687l9.603,5.214
		l107,71.059c54.873,40.331,107.273,57.157,157.209,50.482c5.12-0.73,13.031-3.979,23.731-9.739
		c9.51-5.306,19.798-11.752,30.866-19.345c16.003-11.064,35.07-19.981,57.203-26.75c23.688-7.313,39.735-8.322,48.148-3.018
		c13.354,25.791,18.337,50.117,14.953,72.979c-3.018,20.76-12.757,39.188-29.218,55.284c-15.366,15.09-35.12,26.796-59.264,35.117
		c-23.595,8.231-48.604,12.347-75.036,12.347c-45.729,0-86.423-14.177-122.09-42.525c-21.31-17.011-44.677-43.712-70.101-80.113
		c-21.674-31.186-38.547-53.864-50.619-68.041C292.654,558.354,275.599,543.312,259.593,534.623"/>
	<path fill="#00568A" d="M626.964,508.698l10.563-1.1c1.83,0.916,4.023,4.801,6.586,11.66c2.743,7.499,5.486,12.438,8.229,14.816
		c3.476,2.926,8.917,4.753,16.325,5.486c7.223,0.822,11.293,1.69,12.207,2.604c1.463,1.463,2.516,5.535,3.156,12.209
		c0.73,7.227,1.371,11.387,1.921,12.482c1.187,2.379,4.938,4.664,11.247,6.858c6.31,2.288,9.647,3.751,10.016,4.392
		c0.549,0.914-0.914,5.211-4.392,12.896c-4.115,8.96-6.446,15.685-6.995,20.164c-3.385,25.424-18.383,48.286-44.994,68.59
		c-27.712,21.126-59.903,32.741-96.575,34.845c-30.91,1.738-60.771-5.396-89.578-21.398c-19.847-11.065-40.424-27.395-61.731-48.977
		c-55.97-56.701-98.542-94.469-127.715-113.31l11.66-0.687l9.466-1.785c2.651,0.458,6.447,4.207,11.386,11.252
		c5.304,7.498,9.739,11.934,13.307,13.305l9.876-0.687c3.934-1.277,7.042-1.234,9.33,0.138c2.469,1.463,4.618,5.99,6.446,13.581
		c1.737,7.682,4.528,12.805,8.369,15.365l12.346,0.273c5.213-1.922,9.419-1.922,12.621,0c2.926,1.921,4.572,7.313,4.938,16.188
		c0.366,9.422,2.698,16.096,6.996,20.028c3.567,3.293,9.19,4.206,16.875,2.743c7.682-1.465,12.438-1.417,14.267,0.137
		c1.919,1.646,3.339,7.225,4.253,16.735c0.913,9.146,4.297,15.686,10.151,19.617c5.396,3.66,10.562,4.528,15.5,2.606
		c5.581-2.104,8.962-2.972,10.15-2.606c3.108,1.189,6.266,5.81,9.467,13.854c3.385,8.325,7.407,13.72,12.069,16.188
		c4.759,2.468,10.017,1.83,15.776-1.921c6.494-4.115,10.471-6.127,11.936-6.036c2.744,0.274,7.179,4.115,13.307,11.522
		c5.944,7.225,11.433,10.839,16.462,10.839c4.847,0,9.83-3.247,14.953-9.739c5.305-6.95,8.871-10.61,10.7-10.976
		c2.194-0.458,7.314,1.281,15.362,5.212c7.682,3.843,14.313,4.848,19.892,3.02c5.306-1.829,9.055-6.264,11.248-13.308
		c2.288-7.408,5.077-11.844,8.37-13.307l16.049,0.688c6.858,1.737,12.619,0.959,17.284-2.334c4.756-3.474,7.499-10.381,8.23-20.715
		c0.821-11.064,1.875-17.375,3.155-18.929c0.913-1.008,3.748-2.197,8.505-3.569c5.119-1.554,8.688-3.063,10.7-4.524
		c0.273-19.663-5.715-37.267-17.97-52.814c-11.433-14.267-28.99-27.663-52.678-40.193c-5.487-2.927-13.813-8.187-24.969-15.775
		c-12.619-8.598-21.307-15.227-26.063-19.892l14.403-0.822l11.66,0.549c2.196,0.914,5.443,4.482,9.741,10.699
		c4.39,6.402,7.955,10.336,10.698,11.799C615.853,509.106,621.019,509.794,626.964,508.698"/>
	<path fill="#00568A" d="M374.826,138.174c6.859,43.532,14.633,80.159,23.32,109.88c1.738,5.945-0.091,10.334-5.487,13.17
		c-5.487,2.744-9.237,0.412-11.248-6.997c-7.957-29.264-14.267-68.406-18.931-117.425c-4.664-49.293-5.44-85.326-2.331-108.097
		C365.909,76.718,370.802,113.207,374.826,138.174"/>
	<path fill="#FFF8B0" d="M363.851,51.888c3.567,20.853,7.958,39.462,13.17,55.832c6.493,20.303,13.032,32.512,19.617,36.627
		c-1.463,13.169-1.052,25.607,1.235,37.313c2.194,11.522,5.944,21.354,11.25,29.494c-6.586,8.047-10.656,18.474-12.209,31.276
		c-6.768-17.924-13.764-49.934-20.988-96.026C369.979,109.092,365.956,77.586,363.851,51.888"/>
	<path fill="#DDD698" d="M366.594,66.566c2.927,21.492,6.22,40.789,9.877,57.89c5.031,23.687,9.648,36.948,13.856,39.782
		c-0.183,11.34,0.777,21.994,2.88,31.963c2.194,11.249,5.442,19.342,9.74,24.281c-4.024,8.688-5.854,17.147-5.488,25.378
		c-6.859-21.401-13.9-52.312-21.125-92.734C368.745,110.6,365.498,81.747,366.594,66.566"/>
	<path fill="#50A8B4" d="M265.219,530.783c18.108,10.242,40.743,29.676,67.904,58.302c22.04,23.319,41.611,46.596,58.713,69.825
		c19.662,26.701,44.998,46.459,76,59.261c28.623,11.797,59.9,16.916,93.831,15.362c29.904-1.463,56.063-10.149,78.466-26.063
		c20.852-14.908,31.369-30.361,31.552-46.365c11.156-11.706,18.656-25.473,22.498-41.291l3.293-15.639
		c1.189-4.848,2.743-8.276,4.662-10.289c16.92,28.532,20.854,57.615,11.8,87.246c-10.245,33.473-35.438,57.889-75.589,73.255
		c-61.271,23.595-117.791,22.498-169.554-3.293c-37.679-18.841-71.196-49.658-100.553-92.46
		c-23.869-34.753-41.931-59.628-54.186-74.626c-20.759-25.422-38.776-41.701-54.048-48.836c-2.836-1.278-3.429-2.743-1.784-4.389
		C259.777,529.044,262.109,529.044,265.219,530.783"/>
	<path fill="#0D131A" d="M426.954,632.706v-5.487c20.119,10.428,40.927,17.791,62.417,22.089c16.92,3.381,31.46,4.479,43.624,3.29
		c9.785-1.005,20.805-4.753,33.061-11.248l28.809-17.56c1.734-1.19,2.834-1.463,3.292-0.823c0.366,0.641-0.229,1.69-1.784,3.156
		c-8.046,7.041-17.375,13.441-27.985,19.205c-13.168,7.227-24.782,11.294-34.841,12.21c-12.347,1.188-26.979,0.137-43.896-3.156
		C468.063,650.267,447.164,643.043,426.954,632.706"/>
	<path fill="#0D131A" d="M406.65,621.186c-7.225-4.574-14.358-9.693-21.399-15.366l-0.686-6.445
		c9.694,7.863,19.387,14.677,29.083,20.439L406.65,621.186"/>
	<path fill="#0D131A" d="M259.869,536.681c-1.829-1.005-2.515-1.919-2.058-2.744l3.429,0.141
		c17.011,8.595,36.078,25.741,57.205,51.441c12.437,14.999,29.813,38.866,52.128,71.606c32.375,47.373,68.913,79.61,109.608,96.712
		c43.349,18.107,91.18,18.884,143.489,2.331c42.981-13.536,71.104-35.758,84.365-66.669c12.438-29.081,9.876-60.267-7.683-93.557
		l2.194-5.214c20.76,36.489,24.647,70.604,11.66,102.337c-13.535,33.015-42.847,56.426-87.932,70.236
		c-104.807,32.192-191.502-2.058-260.095-102.748c-24.052-35.211-40.285-58.165-48.699-68.863
		C297.182,565.992,277.977,547.654,259.869,536.681"/>
	<path fill="#0D131A" d="M592.119,481.948c2.013,0.821,5.123,4.569,9.329,11.246c4.207,6.769,8.049,10.93,11.521,12.483
		l14.816,0.549l11.11-0.686c2.562,1.371,4.756,5.485,6.586,12.346c1.922,7.314,4.893,12.482,8.917,15.502
		c3.747,2.835,9.145,4.298,16.186,4.389c6.677,0.093,10.701,0.823,12.073,2.195c1.921,1.921,2.926,6.268,3.017,13.031
		c0,7.044,0.687,11.523,2.059,13.445c1.554,2.104,5.577,4.068,12.072,5.896c6.036,1.739,9.238,3.339,9.604,4.802
		c0.549,2.016-1.008,6.998-4.665,14.953c-4.206,9.146-6.631,16.37-7.27,21.676c-2.562,20.851-14.04,40.786-34.435,59.811
		c-18.747,17.469-39.964,29.767-63.649,36.902c-37.13,11.247-73.62,10.288-109.471-2.881
		c-30.088-11.156-58.393-30.361-84.914-57.615c-60.726-62.007-106.131-102.381-136.219-121.131
		c-1.554-1.008-2.103-1.876-1.646-2.606l3.293,0.137c16.187,8.507,38.227,25.47,66.121,50.896
		c19.205,17.375,43.121,40.649,71.746,69.821c27.163,27.437,55.831,46.231,86.012,56.384c33.473,11.339,67.86,11.752,103.16,1.231
		c22.223-6.677,42.298-17.741,60.224-33.195c20.759-17.926,32.556-37.27,35.391-58.028c0.822-5.942,3.11-13.307,6.859-22.085
		c3.384-7.772,4.985-11.979,4.801-12.62c-0.091-0.367-2.926-1.508-8.504-3.431c-5.854-2.012-9.648-4.252-11.388-6.722
		c-1.096-1.646-2.058-6.128-2.881-13.445c-0.73-6.768-1.602-10.562-2.605-11.384c-0.731-0.549-4.436-1.281-11.111-2.193
		c-6.857-0.917-12.209-2.701-16.049-5.352c-3.568-2.377-6.677-7.227-9.329-14.541c-2.652-6.949-4.71-10.792-6.173-11.522
		l-9.739,0.821c-5.854,0.823-11.111,0.093-15.775-2.192c-4.024-1.922-8.049-5.854-12.072-11.798
		c-4.021-5.945-7.087-9.421-9.19-10.429l-11.797-0.546l-13.856-1.234l-5.211-5.624c4.021,2.562,9.97,3.521,17.833,2.88
		C585.397,481.353,590.475,481.305,592.119,481.948"/>
	<path fill="#0D131A" d="M297.457,526.118c3.2,0.73,7.315,4.983,12.346,12.759c5.122,7.682,8.962,11.889,11.522,12.62
		c2.562,0.73,5.716,0.363,9.466-1.1l9.466-0.41c3.2,1.188,5.807,6.129,7.818,14.813c2.012,8.874,4.756,14.086,8.231,15.64
		l11.249-0.687l12.621-0.549c3.659,1.372,5.716,7.09,6.173,17.146c0.549,10.61,2.927,17.424,7.134,20.44
		c3.657,2.562,8.826,3.247,15.502,2.058l14.677-0.41c3.021,1.372,4.894,6.95,5.627,16.735c0.729,10.243,3.839,17.238,9.326,20.989
		c4.115,2.835,8.871,3.29,14.268,1.372c6.036-2.197,9.876-2.976,11.523-2.334c2.926,1.099,6.219,6.268,9.876,15.503
		c3.475,8.962,7.545,14.085,12.21,15.362c4.57,1.28,9.466,0.046,14.677-3.702c5.578-3.935,9.65-5.715,12.21-5.352
		c2.562,0.273,6.952,4.347,13.168,12.209c5.945,7.5,11.114,11.111,15.503,10.838c4.757-0.274,9.513-3.659,14.268-10.15
		c4.938-6.859,8.599-10.564,10.975-11.111c2.744-0.643,8.046,1.189,15.912,5.487c7.591,4.115,13.949,5.257,19.069,3.43
		c4.756-1.647,8.32-6.222,10.697-13.719c2.563-7.866,5.487-12.621,8.78-14.268c2.837-1.371,7.82-1.005,14.953,1.097
		c6.857,2.015,12.346,1.921,16.461-0.273c5.578-3.017,8.504-9.876,8.78-20.577c0.272-11.614,1.463-18.428,3.565-20.439
		c1.189-1.097,5.532-2.743,13.032-4.938c6.036-1.736,10.197-5.487,12.482-11.248c0.641-1.738,1.372-2.516,2.193-2.333
		c0.825,0.186,1.008,1.145,0.549,2.88c-1.645,7.041-5.715,11.844-12.209,14.404c-6.768,1.554-10.884,3.11-12.347,4.664
		c-1.371,1.466-2.513,8.14-3.429,20.028c-0.914,10.701-4.571,17.649-10.976,20.853c-4.845,2.377-10.697,2.835-17.558,1.372
		l-13.444-0.822c-2.286,1.005-5.074,5.396-8.367,13.169c-3.292,7.407-7.362,11.934-12.21,13.581
		c-5.854,1.919-12.573,1.097-20.163-2.471c-7.773-3.751-12.483-5.44-14.131-5.074c-1.646,0.364-5.261,3.793-10.838,10.288
		c-5.306,6.216-10.607,9.463-15.912,9.739c-5.304,0.273-10.93-3.11-16.872-10.152c-6.313-7.407-10.429-11.247-12.347-11.522
		c-1.829-0.273-5.396,1.281-10.7,4.665c-5.123,3.199-10.521,4.161-16.188,2.88c-5.761-1.277-10.517-6.31-14.265-15.09
		c-3.751-8.779-6.769-13.533-9.057-14.268c-1.188-0.363-4.71,0.275-10.563,1.921c-5.122,1.371-10.47,0.412-16.049-2.881
		c-5.854-3.475-9.374-10.197-10.564-20.164c-1.096-9.879-2.425-15.229-3.979-16.052c-1.736-0.913-5.991-0.959-12.756-0.137
		c-6.678,0.822-12.395-0.138-17.149-2.881c-4.574-2.562-7.363-8.962-8.369-19.204c-1.006-10.152-2.88-15.912-5.624-17.284
		l-10.426,0.547l-12.346-0.273c-4.572-2.288-7.818-7.545-9.739-15.775c-1.829-8.048-4.07-12.528-6.723-13.444l-8.367,0.276
		c-3.659,0.913-6.905,0.959-9.739,0.137c-3.659-1.099-7.958-5.257-12.896-12.483c-4.938-7.135-8.642-11.02-11.111-11.659
		l-9.055,1.509l-10.836,0.549l-4.253-5.077c4.207,2.288,9.008,2.563,14.404,0.825C292.654,526.668,296.267,525.846,297.457,526.118"
		/>
	<path fill="#0D131A" d="M361.793,28.019c4.024,37.495,9.511,77.277,16.461,119.346c7.774,47.188,14.724,80.387,20.852,99.592
		c0.731,2.287,0.686,3.521-0.137,3.704c-0.824,0.275-1.646-0.686-2.469-2.881c-7.225-19.479-14.358-49.658-21.401-90.539
		c-6.768-38.958-11.569-76.317-14.404-112.075c-0.275,30.82,1.601,66.303,5.625,106.451c4.207,42.069,9.51,75.585,15.913,100.552
		c0.549,2.012,0.457,3.202-0.275,3.567c-0.822,0.273-1.6-0.686-2.332-2.881c-9.51-29.996-16.369-69.642-20.577-118.935
		c-4.023-46.915-4.161-82.216-0.411-105.902c0.366-2.012,0.915-3.018,1.646-3.018C361.106,25.001,361.61,26.007,361.793,28.019"/>
	<path fill="#0D131A" d="M360.42,39.816l1.372-11.935c2.836,21.858,7.088,43.486,12.759,64.886
		c7.59,28.351,15.363,45.224,23.32,50.62c0.548,0.366,0.731,0.823,0.548,1.372c-2.012,7.499-1.692,18.885,0.96,34.158
		c2.745,15.73,6.493,26.201,11.249,31.413c0.55,0.549,0.55,1.144,0,1.783c-3.564,4.756-6.445,10.061-8.641,15.914
		c-2.563,6.95-3.478,13.353-2.745,19.206l-3.567-4.939c0-10.882,3.613-21.216,10.837-31.002c-5.12-6.219-8.962-17.239-11.523-33.06
		c-2.286-14.45-2.56-25.471-0.823-33.061c-7.133-5.304-13.718-18.245-19.754-38.822C369.75,90.161,365.085,67.983,360.42,39.816"/>
	<path fill="#0D131A" d="M394.854,142.564l0.137,8.504c-3.566,12.804-4.983,27.849-4.252,45.133
		c0.548,12.346,2.378,27.07,5.487,44.172l-6.311-22.087c-2.103-13.718-2.971-25.926-2.605-36.625
		C387.767,168.034,390.28,155.001,394.854,142.564"/>
	<path fill="#0D131A" d="M625.592,529.136c-21.856-12.164-38.823-22.999-50.894-32.511c-19.022-15.09-33.657-31.964-43.897-50.62
		l3.841-2.331c10.061,18.2,24.556,34.568,43.486,49.109c10.698,8.229,27.479,18.7,50.344,31.413
		c18.383,10.243,33.196,22.911,44.447,38.002c12.713,17.008,17.833,33.518,15.363,49.521l-4.252,3.153
		c2.834-16.096-1.968-32.374-14.404-48.836C658.742,551.679,644.065,539.381,625.592,529.136"/>
</g>
</svg>
