<?xml version="1.0" encoding="utf-8"?>
<!-- Generator: Adobe Illustrator 16.0.0, SVG Export Plug-In . SVG Version: 6.00 Build 0)  -->
<!DOCTYPE svg PUBLIC "-//W3C//DTD SVG 1.1//EN" "http://www.w3.org/Graphics/SVG/1.1/DTD/svg11.dtd">
<svg version="1.1" id="Layer_1" xmlns="http://www.w3.org/2000/svg" xmlns:xlink="http://www.w3.org/1999/xlink" x="0px" y="0px"
	 width="800px" height="800px" viewBox="0 0 800 800" enable-background="new 0 0 800 800" xml:space="preserve">
<g>
	<path fill="#F0E800" d="M514.129,86.42c14.194,12.906,25.428,27.554,33.684,43.947c6.453,13.035,10.133,25.038,11.035,36.009
		c1.033,10.713-0.259,22.006-3.871,33.88c-2.453,8.131-7.037,19.23-13.746,33.299c25.168,17.165,39.043,26.78,41.627,28.846
		c10.322,8.002,16.324,15.229,18.002,21.683c1.16,4.775,0.13,11.164-3.098,19.166l-12.584,27.104
		c14.326,8.132,22.135,15.36,23.428,21.684c1.033,5.421-2.52,15.487-10.649,30.202c13.425,79.115,8.843,147.584-13.743,205.408
		c-8.906,22.844-19.686,41.044-32.333,54.594c-11.743,12.649-22.844,18.974-33.3,18.974c-20.65,30.459-46.334,57.047-77.051,79.762
		c-30.072,22.457-52.015,31.688-65.824,27.685c-12.906-3.613-25.878-26.264-38.913-67.955c-12.52-39.748-18.07-71.824-16.65-96.217
		c-16.649-28.523-24.909-56.014-24.78-82.474c0-8.26,0.903-15.939,2.709-23.036l2.517-8.136l-10.066-8.902
		c-3.098-2.84-7.034-7.229-11.81-13.163c-2.84-3.488-4.001-13.357-3.486-29.622c0.646-17.038,3.098-30.459,7.358-40.266
		c-10.585-7.099-16.328-16.78-17.231-29.041c-0.774-10.068,1.549-19.747,6.97-29.041c-7.099-3.871-15.229-9.551-24.394-17.036
		c-18.456-14.843-32.783-31.169-42.979-48.979c-8.905-15.36-12.97-35.172-12.196-59.435c0.774-24.652,6.324-49.175,16.65-73.569
		c11.357-26.586,26.844-49.174,46.463-67.759c22.07-20.908,47.754-34.978,77.052-42.204c24.394-6.067,51.884-5.421,82.476,1.935
		C452.432,42.667,485.348,60.22,514.129,86.42"/>
	<path fill="#F8F397" d="M192.753,215.357c0.774-24.652,6.324-49.175,16.65-73.569c11.357-26.586,26.844-49.174,46.463-67.759
		c22.07-20.908,47.754-34.977,77.052-42.204c-17.81,4.904-34.524,16.649-50.142,35.234c-31.104,37.171-40.462,89.637-28.071,157.396
		l4.065,25.555c1.549,9.68,4.13,21.49,7.743,35.43c4.132,15.875,10.003,28.2,17.619,36.976c5.55,6.325,15.745,14.133,30.588,23.427
		c-6.71-0.517-18.328-4.001-34.848-10.454c-17.424-7.358-28.653-11.874-33.686-13.552c-8.39-6.067-15.165-11.938-20.329-17.619
		c-6.839-7.356-13.809-17.165-20.908-29.425C196.044,259.433,191.979,239.621,192.753,215.357"/>
	<path fill="#F8F397" d="M294.198,382.626c-1.29,3.355-4.323,4.904-9.099,4.647l-16.068-3.291
		c-3.098-6.196-4.325-13.101-3.679-20.715c0.517-6.712,2.259-13.165,5.228-19.361c7.743,1.808,12.713,5.55,14.906,11.229
		L294.198,382.626"/>
	<path fill="#F8F397" d="M313.364,354.167l10.649,0.968l18.003,0.969c1.937,14.713,6.777,25.748,14.521,33.104l7.356,6.002
		c2.066,1.806,2.969,3.615,2.709,5.421c-0.386,4.001-6.26,1.418-17.617-7.745C336.598,382.819,324.724,369.913,313.364,354.167"/>
	<path fill="#F8F397" d="M282.195,399.469l15.101-1.742c3.744-1.292,8.455-3.613,14.133-6.97
		c-5.033,12.521-9.1,25.361-12.196,38.525c-3.357,14.068-5.035,26.267-5.035,36.59c0,2.064,1.678,6.261,5.035,12.585
		c2.581,5.032,2.903,8.972,0.968,11.809l-9.875-8.518l-11.615-12.971c-2.581-3.098-3.55-12.713-2.904-28.846
		C276.581,423.408,278.711,409.923,282.195,399.469"/>
	<path fill="#F8F397" d="M344.922,391.727c4.518,4.645,9.1,7.292,13.745,7.938l-5.227,30.391
		c-3.227,22.976-4.454,41.43-3.679,55.369c0.258,3.874,5.099,17.104,14.52,39.688c8.261,20.135,16.585,39.108,24.976,56.918
		c-16.392-14.97-36.14-48.205-59.243-99.704c-1.549-3.484-0.386-16.712,3.486-39.685
		C337.241,419.667,341.049,402.693,344.922,391.727"/>
	<path fill="#F8F397" d="M352.278,531.115c1.163,2.196,4.065,6.453,8.712,12.777c3.357,4.646,5.035,8.26,5.035,10.842
		c-16.65,34.33-19.297,80.797-7.938,139.39c2.967,15.103,7.356,33.041,13.164,53.821c4.001,14.196,5.485,21.101,4.453,20.715
		c-12.906-3.613-25.878-26.264-38.913-67.955c-12.52-39.748-18.07-71.824-16.65-96.217c-16.649-28.523-24.909-56.014-24.78-82.474
		c0-8.26,0.903-15.939,2.709-23.036l2.517-8.136l-0.193-0.386l6.196-7.161c-2.84,13.555-2.452,28.847,1.161,45.884
		c3.872,19.102,10.778,33.62,20.715,43.559c1.163-4.518,4.454-11.422,9.875-20.715C343.501,543.12,348.148,536.148,352.278,531.115"
		/>
	<path fill="#CEC900" d="M538.521,209.936c6.582-12.131,11.809-20.264,15.683-24.394c3.226-3.484,4.582-3.355,4.063,0.388
		c-1.035,7.356-3.162,15.229-6.39,23.62l-10.649,24.006l14.91,11.229c-17.166,7.228-37.561,22.974-61.18,47.237
		c-25.684,26.458-35.167,44.916-28.456,55.37l38.332-2.711l23.813-9.485c10.065-4.26,21.488-10.649,34.266-19.168
		c15.359-10.065,27.232-19.812,35.62-29.232c2.196,6.065,1.741,12.713-1.354,19.941L585.757,329
		c-8.127,6.968-21.94,15.101-41.43,24.392c-19.617,9.165-34.909,14.779-45.884,16.845l-33.682,2.128
		c-10.328,0.129-15.168,1.873-14.521,5.228c1.159,6.71,4.707,15.68,10.646,26.911c7.229,13.809,14.262,22.002,21.102,24.585
		l24.203-0.579c5.549-1.811,17.099-7.035,34.65-15.686c13.555-6.84,27.297-18.388,41.237-34.65
		c12.521-14.843,19.749-26.459,21.685-34.848c4.26,4.516,5.807,9.68,4.646,15.487c-0.905,4.518-4.391,12.327-10.456,23.426
		l5.032,25.555c-5.42-0.775-13.034,2.965-22.844,11.226c-9.937,8.392-18.39,18.265-25.36,29.622c-0.259,0.258-0.13,4.774,0.39,13.55
		l0.189,29.818c-1.936,30.846-10.967,53.303-27.1,67.371l20.715,62.338c1.932,4.133,3.935,6.582,5.998,7.358l8.131-0.97
		c-7.357,10.581-14.971,18.845-22.844,24.782c-7.744,5.548-14.97,8.323-21.685,8.323c-9.552,14.064-21.552,28.455-36.011,43.172
		c-19.875,20.262-41.816,38.203-65.822,53.821c26.589-28.653,43.691-67.697,51.303-117.129c3.355-21.81,3.613-41.108,0.776-57.885
		c-2.841-17.814-8.774-30.267-17.812-37.366c-2.582-2.063-12.52,4.195-29.814,18.779c-17.682,14.713-28.006,21.358-30.976,19.941
		c8.905-9.164,20.521-25.684,34.851-49.563c19.486-32.267,28.713-56.979,27.683-74.146c0-9.551-4.453-21.295-13.36-35.237
		c-7.354-11.354-18.197-24.905-32.522-40.653c-3.874-1.549-9.55,0.453-17.036,6.003c-8.004,6.193-13.552,9.163-16.649,8.905
		c6.582-19.102,4.387-31.943-6.584-38.527c-3.355-2.064-7.42-3.355-12.196-3.871l-6.196-0.195l0.193-2.323
		c0.259-1.678,0.84-2.646,1.744-2.903c32.266-10.196,59.693-22.78,82.278-37.752c13.94-9.163,35.106-26.394,63.501-51.691
		C513.354,246.977,527.551,229.424,538.521,209.936"/>
	<path fill="#0D131A" d="M290.907,169.28c1.032-52.658,9.229-93.315,24.587-121.968c2.066-3.742,4.323-6.582,6.777-8.517
		c2.452-2.066,2,0.322-1.356,7.163c-17.812,36.009-25.233,82.924-22.264,140.747c2.709,51.11,11.421,91.379,26.136,120.806
		c2.709,5.421,3.162,8.002,1.354,7.742c-1.678-0.386-3.548-2.321-5.614-5.807C299.748,274.598,289.875,227.875,290.907,169.28"/>
	<path fill="#0D131A" d="M295.166,513.885l1.937-14.134c1.292,15.36,4.711,29.751,10.261,43.172
		c6.196,14.847,13.681,25.366,22.457,31.559c-1.678,3.227-2.774,4.646-3.291,4.26C308.074,564.286,297.62,542.666,295.166,513.885"
		/>
	<path fill="#0D131A" d="M538.908,442.253l4.646-1.163l1.549,11.232c0.775,9.29,0.578,18.712-0.58,28.263
		c-3.746,30.588-16.779,57.37-39.107,80.342l-1.355-5.611c20.135-25.298,32.008-51.625,35.625-78.99
		c1.029-8.646,1.227-16.841,0.578-24.585L538.908,442.253"/>
	<path fill="#0D131A" d="M457.402,504.591l1.937-4.257c18.071,8.39,36.007,31.039,53.821,67.955
		c16.004,33.295,23.102,55.237,21.294,65.822c-1.679,10.713-6.71,20.972-15.099,30.78l-9.486,3.483
		c11.615-14.971,18.261-27.36,19.938-37.17c1.683-9.809-5.354-30.592-21.102-62.342
		C491.411,533.889,474.313,512.464,457.402,504.591"/>
	<path fill="#0D131A" d="M325.174,461.806l5.035-3.87l3.096,3.678l-5.226,4.067c-15.618,11.484-25.104,21.423-28.46,29.813
		c-3.355,8.519-3.679,6.514-0.967-6.002c4.129-6.586,8.776-12.327,13.938-17.231L325.174,461.806"/>
	<path fill="#0D131A" d="M600.475,372.946l4.256-1.937c1.811,0.259,0.258,4.325-4.644,12.198
		c-7.358,12.26-20.715,28.003-40.073,47.234c-21.941,21.813-37.109,32.204-45.498,31.171c-8.135-0.905-16.716-3.742-25.752-8.519
		l-18.973-11.421l-7.161-4.261l-3.483-7.745l13.356,7.938c14.974,9.937,28.651,15.617,41.043,17.037
		c6.84,0.775,21.749-10.001,44.722-32.329C580.209,400.89,594.277,384.433,600.475,372.946"/>
	<path fill="#0D131A" d="M505.223,363.267c5.938-1.032,18.133-5.807,36.59-14.326c20.521-9.422,34.721-17.424,42.59-24.006
		c1.037-0.903,1.613-0.259,1.742,1.936c0.133,2.065-0.901,4.001-3.095,5.807c-7.616,6.453-17.167,12.649-28.653,18.586
		c-14.584,7.485-30.526,13.488-47.817,18.004l-42.786-1.354l-37.561-13.359l-1.935-4.453l8.903,3.098
		c15.617,5.421,26.592,8.776,32.916,10.067C478.505,365.719,491.54,365.719,505.223,363.267"/>
	<path fill="#0D131A" d="M268.257,376.237c6.84,9.68,23.296,8.97,49.368-2.13l3.677-0.387l-5.226,4.065
		c-7.228,4.389-14.714,7.55-22.457,9.487c-12.779,3.098-21.684,1.032-26.717-6.196L268.257,376.237"/>
	<path fill="#0D131A" d="M507.934,341.196c14.713-5.164,31.623-13.81,50.725-25.943c19.359-12.131,32.974-22.779,40.847-31.943
		l1.354,6.196c-8.131,9.551-20.778,19.619-37.944,30.201c-17.035,10.325-34.785,18.973-53.239,25.942
		c-12.906,4.904-26.523,6.968-40.851,6.194l-33.106-5.614c-4.518-1.032-7.16-2-7.938-2.903c-0.776-1.034,0.837-1.484,4.84-1.355
		l27.49,4.258C477.41,348.037,493.348,346.36,507.934,341.196"/>
	<path fill="#0D131A" d="M420.813,341.777l3.678-3.872c3.099,21.167,9.744,42.14,19.943,62.919
		c5.938,12.129,14.391,26.262,25.356,42.395c7.489,11.104,11.36,18.266,11.618,21.491v0.391
		c-0.516,11.614-12.52,33.363-36.012,65.242c-22.457,30.584-38.847,49.042-49.171,55.366l-8.132,0.583
		c-4.516-2.583-14.52-16.974-30.007-43.172c-13.682-22.976-22.974-39.885-27.878-50.724c-3.743-7.877-2.84-27.559,2.709-59.047
		l9.487-45.303l4.451,1.161c-2.581,10.456-5.161,23.036-7.742,37.749c-3.872,21.557-5.81,38.015-5.81,49.367
		c0,6.324,0.646,10.778,1.938,13.361c5.162,11.356,14.519,28.651,28.071,51.882c14.585,25.169,23.748,38.915,27.492,41.24
		c2.195-0.128,7.356-4.453,15.485-12.975c9.165-9.551,19.428-21.813,30.785-36.783c11.1-14.584,20.264-28.78,27.488-42.593
		c6.711-12.648,10.265-21.874,10.649-27.684c-0.129-1.549-1.03-3.682-2.711-6.39l-6.774-10.456
		c-11.486-16.904-19.879-30.716-25.17-41.426C430.622,384.368,424.04,363.46,420.813,341.777"/>
	<path fill="#0D131A" d="M334.661,383.4l-24.78-29.234l8.324,2.13c6.712,9.294,15.295,18.91,25.749,28.847
		c12.003,11.617,19.552,16.393,22.65,14.326c6.325-4.001,15.682-12.842,28.073-26.521c14.583-16.392,24.781-30.911,30.587-43.561
		l7.163-3.484c-6.065,13.423-16.776,29.491-32.136,48.205c-13.94,17.038-24.136,27.556-30.589,31.555
		C363.895,409.279,352.213,401.856,334.661,383.4"/>
	<path fill="#0D131A" d="M362.927,400.243l4.84,0.195c-0.646,14.711,1.742,40.978,7.163,78.795
		c5.033,34.2,10.712,66.4,17.036,96.603c0.646,3.355,0.388,4.646-0.774,3.874c-1.29-0.775-2.581-3.227-3.872-7.357
		c-8.131-25.168-14.584-56.79-19.359-94.864C363.83,444.445,362.152,418.697,362.927,400.243"/>
	<path fill="#0D131A" d="M326.53,659.275l-2.323-3.484c3.098-19.229,11.681-34.265,25.748-45.105
		c13.94-10.844,30.783-15.426,50.53-13.743c12.128,1.03,24.589,5.098,37.367,12.193c13.035,7.227,23.873,16.133,32.522,26.718
		c7.612,9.161,12.647,19.166,15.103,30.005c2.193,9.293,2.645,19.941,1.356,31.947l-2.909,4.452
		c1.163-10.713,0.068-21.748-3.287-33.104c-3.486-11.876-8.975-22.328-16.457-31.364c-8.132-9.809-18.005-17.746-29.623-23.813
		c-11.225-5.811-22.715-9.229-34.459-10.264c-18.327-1.674-34.46,2.646-48.398,12.975C337.758,627.14,329.37,641.336,326.53,659.275
		"/>
	<path fill="#0D131A" d="M340.275,710.385c-0.386,1.296-0.903,0.971-1.549-0.965c-0.646-1.807-0.839-3.291-0.58-4.45
		c2.838-9.164,8.388-16.912,16.648-23.236c10.842-8.385,23.749-11.482,38.72-9.289c12.904,1.935,24.007,7.938,33.302,18.003
		c11.613,12.392,16.904,28.589,15.875,48.592l-4.455,3.681c1.16-17.034-3.293-32.201-13.359-45.496
		c-8.906-11.872-18.904-18.647-30.006-20.329c-15.358-2.321-28.202,0.841-38.527,9.489
		C348.729,692.578,343.373,700.577,340.275,710.385"/>
	<path fill="#0D131A" d="M599.311,290.086c-0.129-4.775-2.969-9.81-8.517-15.101c-7.358-6.841-23.298-18.651-47.821-35.43
		c-24.908,30.202-54.98,56.402-90.216,78.602c-41.944,26.33-81.118,39.689-117.515,40.075c-21.813,0.259-42.398-4.194-61.759-13.357
		c-3.098,6.325-4.711,13.164-4.84,20.522c-0.129,9.551,1.871,17.489,6.002,23.811c3.872,5.938,8.195,8.841,12.97,8.712
		c4.13,0,10.132-2.452,18.006-7.356c7.227-4.387,14.519-9.937,21.875-16.649l3.291,3.486c-6.711,6.065-13.359,11.293-19.941,15.68
		c-11.615,7.616-20.391,10.712-26.329,9.292c-2.709,10.713-4.646,21.102-5.808,31.167c-1.806,15.746-1.034,26.851,2.324,33.303
		c3.227,6.324,7.809,12.001,13.745,17.034c2.84,2.583,5.421,4.519,7.745,5.811l-2.323,7.938c-1.42,6.839-2.195,14.197-2.323,22.07
		c-0.129,24.911,6.841,50.396,20.908,76.472c2.452-13.168,7.356-26.782,14.715-40.851c6.453-12.393,13.035-21.942,19.747-28.652
		l0.968,2.519c0.646,1.807,0.774,2.966,0.386,3.483c-7.356,10.198-13.745,20.779-19.166,31.75
		c-8.647,17.296-12.97,32.072-12.97,44.335c-0.258,23.229,5.29,53.436,16.649,90.604c12.26,40.781,24.716,62.981,37.364,66.595
		c12.778,3.616,33.75-5.354,62.918-26.91c30.334-22.457,55.949-48.978,76.86-79.564l0.772-1.163h1.549
		c10.843-0.257,22.461-7.744,34.849-22.457c19.362-22.977,33.234-54.598,41.623-94.864c9.81-47.755,9.81-100.542,0-158.362
		l-0.192-0.967l0.578-0.968c7.75-14.069,11.164-23.362,10.264-27.878c-1.158-5.681-8.967-12.584-23.426-20.715l-4.645,0.772
		c-2.582,0.26-2.779-0.644-0.583-2.709c3.228-2.838,7.616-8.905,13.164-18.198C596.406,301.637,599.439,294.345,599.311,290.086
		 M555.945,166.569c-1.033-11.229-4.84-23.296-11.422-36.202c-8.006-15.618-18.779-29.556-32.334-41.818
		c-27.36-24.651-58.789-41.623-94.28-50.917c-31.105-8.002-59.178-8.969-84.216-2.903c-32.268,8.002-59.886,24.135-82.86,48.398
		c-16.004,16.909-28.848,36.721-38.527,59.435c-10.196,23.877-15.68,47.819-16.455,71.827c-0.905,24.135,3.032,43.818,11.808,59.047
		c8.907,15.618,21.425,30.459,37.56,44.528c9.68,8.517,19.102,15.617,28.265,21.296c19.619,8.776,40.205,12.971,61.759,12.583
		c22.07-0.257,46.527-6.065,73.373-17.424c26.069-10.969,50.595-25.491,73.565-43.559c23.754-18.844,42.144-38.72,55.178-59.628
		C551.686,208.516,557.881,186.962,555.945,166.569 M520.325,86.226c14.063,12.777,25.293,27.363,33.682,43.753
		c6.843,13.552,10.847,26.265,12.005,38.139l0.387,7.551c0,22.071-6.385,41.495-19.162,58.273
		c23.1,16.004,38.264,27.428,45.492,34.267c8.261,7.873,12.389,15.489,12.389,22.845c0,3.613-2.321,10.132-6.969,19.552
		c-4.127,8.261-7.482,14.069-10.065,17.424c16.133,9.422,24.199,18.587,24.199,27.492c0,3.227-1.03,7.099-3.099,11.617
		l-8.131,15.487c5.549,32.651,8.328,62.018,8.328,88.086c0,38.849-5.166,73.953-15.488,105.317
		c-8.649,26.718-20.395,48.917-35.234,66.599c-11.232,13.035-23.686,20.003-37.366,20.908
		c-21.166,30.588-47.304,57.627-78.41,81.118c-31.489,23.748-54.463,33.557-68.918,29.429
		c-11.746-3.355-24.523-25.494-38.334-66.405c-13.68-40.914-19.876-75.052-18.584-102.412c-9.551-16.522-16.197-30.334-19.94-41.431
		c-3.484-10.327-5.228-20.715-5.228-31.171c0-7.357,0.71-15.682,2.13-24.976c1.161-8.002,2.195-13.356,3.098-16.068
		c-8.777-6.453-15.94-13.163-21.49-20.136c-4.646-5.935-6.453-16.391-5.421-31.359c1.032-13.812,4.001-27.172,8.905-40.075
		c-6.324-4.647-10.776-9.034-13.359-13.166c-2.841-4.387-4.261-9.484-4.261-15.293c0-4.387,0.71-9.615,2.13-15.68
		c1.42-5.809,2.969-10.456,4.646-13.94c-30.976-18.973-53.628-40.849-67.954-65.629c-8.388-14.457-12.584-33.106-12.584-55.952
		c0-23.749,6.389-50.464,19.166-80.15c9.939-23.36,23.169-43.818,39.688-61.371c23.749-25.038,52.336-41.688,85.765-49.949
		c23.103-5.808,50.271-5.162,81.504,1.937C453.984,39.892,489.477,58.348,520.325,86.226"/>
	<path fill="#0D131A" d="M558.074,171.411l0.969,9.485c-25.297,53.046-65.954,97.381-121.968,133.003
		c-19.492,12.39-38.978,22.522-58.468,30.395c-16.004,6.453-26.974,9.68-32.911,9.68c-11.486,0-30.459-4.452-56.919-13.359
		c-24.135-8.13-38.978-14.198-44.528-18.199l-0.774-5.419c5.55,4.001,20.846,10.325,45.884,18.971
		c27.103,9.422,45.947,14.134,56.53,14.134c4.904,0,14.972-3.098,30.202-9.293c18.973-7.614,37.819-17.293,56.53-29.039
		c22.328-14.069,44.013-32.201,65.05-54.4C523.354,230.394,543.49,201.741,558.074,171.411"/>
	<path fill="#0D131A" d="M282.583,309.834l-22.459,2.321c-9.68-0.257-18.132-1.482-25.36-3.677
		c-18.973-15.747-31.686-34.977-38.139-57.693c-1.937-7.099-3.162-14.067-3.679-20.908l-0.193-8.326
		c2.452,0,6.904,2.84,13.357,8.519l24.782,24.008l38.718,35.428C282.389,301.508,286.713,308.285,282.583,309.834"/>
	<path fill="#0D131A" d="M433.784,184.381c7.097-3.744,14.004-5.421,20.715-5.033c6.582,0.386,14.776,2.902,24.585,7.549
		c10.843,5.164,17.875,11.746,21.102,19.748c3.875,9.422,1.613,19.231-6.771,29.427c-9.035,10.971-27.297,23.684-54.79,38.139
		c-27.361,14.456-44.917,20.715-52.66,18.778c-3.744-0.903-5.099-6.194-4.065-15.875c0.903-9.292,3.742-20.134,8.517-32.523
		C402.42,213.484,416.879,193.415,433.784,184.381"/>
	<path fill="#FFFFFF" d="M426.039,265.111c-2.191,6.712-7.357,12.003-15.484,15.875c-7.486,3.486-14.007,4.454-19.557,2.905
		c-3.098-0.775-4.646-3.034-4.646-6.777c-0.129-4.001,1.42-10.905,4.646-20.715c2.323-7.356,5.808-13.035,10.454-17.036
		c4.776-4.13,9.678-5.55,14.715-4.259c5.161,1.418,8.649,4.969,10.452,10.647C428.559,251.559,428.361,258.012,426.039,265.111"/>
	<path fill="#FFFFFF" d="M258.964,284.666c6.453,6.453,10.261,10.971,11.422,13.552c1.034,2.066,0.71,3.872-0.968,5.421
		c-2.71,2.71-6.453,3.613-11.229,2.71c-4.904-1.032-9.358-3.613-13.359-7.743c-4.258-4.261-6.97-8.583-8.13-12.973
		c-1.292-4.646-0.582-8.259,2.13-10.84c1.549-1.549,3.677-1.808,6.389-0.776C248.574,275.308,253.156,278.858,258.964,284.666"/>
</g>
</svg>
