<?xml version="1.0" encoding="utf-8"?>
<!-- Generator: Adobe Illustrator 16.0.0, SVG Export Plug-In . SVG Version: 6.00 Build 0)  -->
<!DOCTYPE svg PUBLIC "-//W3C//DTD SVG 1.1//EN" "http://www.w3.org/Graphics/SVG/1.1/DTD/svg11.dtd">
<svg version="1.1" id="Layer_1" xmlns="http://www.w3.org/2000/svg" xmlns:xlink="http://www.w3.org/1999/xlink" x="0px" y="0px"
	 width="800px" height="800px" viewBox="0 0 800 800" enable-background="new 0 0 800 800" xml:space="preserve">
<g>
	<path fill="#E9EFF8" d="M375.612,336.165l15.525,23.709l-70.164,153.085c-25.754-4.253-42.443-26.235-50.065-65.952
		c-2.808-14.682-3.931-29.726-3.369-45.13c0.481-13.961,2.086-24.03,4.814-30.208L375.612,336.165"/>
	<path fill="#C9CFD7" d="M375.612,336.165l15.525,23.709l-46.696,101.693c-0.642-10.591-1.965-19.334-3.972-26.234
		c-2.487-8.503-6.338-15.364-11.554-20.579c-4.332-5.778-12.597-10.393-24.792-13.841c-8.185-2.246-20.26-4.373-36.225-6.378
		c0.882-10.512,2.366-18.134,4.453-22.866L375.612,336.165"/>
	<path fill="#E9EFF8" d="M291.729,144.569c10.43,13.399,17.491,23.829,21.181,31.291l54.64,171.257l-4.333,0.843
		c-41.401,26.637-77.866,32.895-109.398,18.773c-10.59-4.813-20.019-11.675-28.282-20.58c-5.456-5.776-9.467-11.231-12.035-16.367
		l-62.943-149.715c-3.049-11.393-4.854-24.03-5.416-37.911c-1.124-27.76,4.413-47.779,16.608-60.054
		c21.824-21.824,52.032-15.406,90.624,19.256C265.693,113.398,278.812,127.8,291.729,144.569"/>
	<path fill="#C9CFD7" d="M300.515,156.243c6.338,9.146,10.47,15.686,12.395,19.617l54.64,171.257l-4.333,0.843
		c-29.044,18.692-55.882,27.279-80.514,25.754c18.453-25.835,28.001-60.214,28.643-103.139
		C311.585,247.066,307.976,208.956,300.515,156.243"/>
	<path fill="#E9EFF8" d="M504.027,456.756l-55.723-118.665l9.988-29.125l191.839-9.989c5.618,8.185,10.913,19.376,15.887,33.578
		c6.179,17.572,9.948,34.861,11.313,51.871c3.53,47.177-12.076,82.119-46.817,104.827c-26.798,17.489-55.921,17.329-87.374-0.482
		c-9.787-5.538-19.255-12.557-28.403-21.063L504.027,456.756"/>
	<path fill="#C9CFD7" d="M527.735,478.66c-6.099-4.575-11.874-9.589-17.33-15.044l-6.378-6.86l-55.723-118.665l9.988-29.125
		l191.839-9.989l6.98,12.275c-14.361,16.448-31.573,29.847-51.63,40.197c-19.577,10.189-40.317,16.729-62.221,19.616
		C545.106,414.152,539.933,450.018,527.735,478.66"/>
	<path fill="#E9EFF8" d="M698.755,44.197c14.842,13.158,23.348,39.795,25.513,79.913c2.245,41.399-7.061,80.474-27.921,117.22
		c-17.73,31.291-37.349,51.911-58.852,61.858c-19.978,9.228-44.407,15.968-73.293,20.221c-32.094,4.732-58.973,4.492-80.637-0.724
		l-40.556-57.286c2.085-17.411,8.948-37.389,20.579-59.934c11.153-21.583,25.476-43.166,42.967-64.749
		c38.51-47.659,77.504-79.792,116.979-96.4C657.553,29.955,682.628,29.915,698.755,44.197"/>
	<path fill="#C9CFD7" d="M501.859,272.139c14.122,16.207,26.075,34.26,35.866,54.157c-20.86,1.284-38.914,0.08-54.16-3.61
		l-19.736-22.746l-20.819-34.54c1.284-10.59,4.412-22.424,9.388-35.503C470.691,241.29,487.177,255.371,501.859,272.139"/>
	<path fill="#6791B9" d="M239.979,475.05c1.284-2.89,5.055-6.098,11.313-9.628c6.498-3.61,10.27-6.259,11.313-7.943
		c1.364-4.091,2.728-7.221,4.092-9.387c2.488-4.013,7.662-7.423,15.525-10.23c10.671-3.771,24.872-12.759,42.604-26.958
		c21.903-17.491,37.87-35.143,47.899-52.954l25.635,2.768l-63.666,71.006c-10.51,10.831-22.024,19.657-34.54,26.477
		c-8.746,4.734-16.648,7.902-23.709,9.509c-8.425,1.925-11.835,7.783-10.23,17.57c0.642,3.691,0.521,7.664-0.361,11.914
		l-2.527,9.146c-0.481,1.765-0.441,6.899,0.121,15.406c0.641,10.271,0.842,17.813,0.601,22.625
		c-0.722,13.799-4.974,27.359-12.756,40.677c-8.746,14.845-13.961,27.041-15.646,36.589c-2.408,13.56-1.204,24.512,3.61,32.856
		c2.567,4.331,5.977,8.703,10.23,13.116l3.851,9.507c0.962,3.05,0.643,4.734-0.963,5.055c-3.049,0.643-8.866,2.528-17.451,5.658
		c-11.313,4.171-21.542,8.624-30.689,13.358c-7.702,4.012-18.533,13.396-32.495,28.16c-8.343,8.826-17.049,18.774-26.115,29.847
		c-0.723,0.886-1.524,1.003-2.407,0.361c-0.723-0.56-1.164-1.284-1.324-2.165l-2.046-10.471c-0.401-3.53-0.602-9.549-0.602-18.055
		c0-6.336,8.785-15.524,26.356-27.559l26.235-16.129c11.634-15.082,18.936-25.793,21.904-32.132
		c1.926-4.173,1.847-9.748-0.24-16.729c-1.204-4.25-3.812-10.591-7.824-19.015c-3.048-6.498-3.369-16.209-0.962-29.125
		c2.488-13.72,7.422-26.878,14.803-39.475c6.098-10.512,10.953-25.072,14.563-43.688L239.979,475.05"/>
	<path fill="#567C9D" d="M260.679,485.642c0.963-1.445,2.005-2.49,3.129-3.131l2.045-0.963l0.361,3.729
		c0.642,3.691,0.521,7.664-0.361,11.914l-2.527,9.146c-0.481,1.765-0.441,6.899,0.121,15.406
		c0.641,10.271,0.842,17.813,0.601,22.625c-0.722,13.799-4.974,27.359-12.756,40.677c-8.746,14.845-13.961,27.041-15.646,36.589
		c-2.408,13.56-1.204,24.511,3.61,32.856c2.567,4.331,5.977,8.703,10.23,13.116l3.851,9.507c0.962,3.05,0.643,4.734-0.963,5.055
		c-3.049,0.643-8.866,2.528-17.451,5.658c-11.313,4.171-21.542,8.624-30.689,13.358c-7.381,3.771-25.354,21.183-53.916,52.23
		c-1.204-1.043-2.086-2.367-2.647-3.973c-1.124-3.049,0.441-8.704,4.693-16.971c4.012-7.779,15.164-18.813,33.458-33.096
		c21.744-16.927,34.059-26.958,36.948-30.086c5.375-5.858,6.979-15.284,4.813-28.283l-2.165-14.682
		c-0.321-5.297,0.521-9.668,2.526-13.119c4.413-7.541,9.508-22.904,15.284-46.093c5.537-22.146,9.147-40.88,10.833-56.203
		C255.423,498.558,257.629,490.132,260.679,485.642"/>
	<path fill="#567C9D" d="M372.724,357.949l25.635,2.768l-63.666,71.006c-7.622,7.863-15.806,14.686-24.552,20.46
		c4.333-8.104,6.338-15.084,6.018-20.941c-0.161-5.375-2.126-8.544-5.896-9.507c12.355-8.584,23.627-17.892,33.817-27.922
		C356.518,381.696,366.063,369.744,372.724,357.949"/>
	<path fill="#6791B9" d="M264.167,359.271c-11.794-13.479-20.58-24.993-26.356-34.54c-4.252-6.979-4.092-11.634,0.481-13.96
		l8.185-1.325l10.711,14.201c8.665,9.949,16.768,16.167,24.31,18.655c8.104,2.568,13.519,6.699,16.248,12.396
		c1.364,2.808,2.768,9.348,4.212,19.616c2.808-9.548,11.192-23.349,25.153-41.399c9.708-12.438,17.371-21.462,22.987-27.079
		l4.453,18.773c-0.964,9.147-6.098,20.58-15.406,34.301c-5.937,8.746-12.716,17.291-20.338,25.635
		c-2.086,5.054-5.175,7.501-9.267,7.341c-2.969-0.16-8.425-2.126-16.368-5.896C286.754,383.021,277.085,374.115,264.167,359.271"/>
	<path fill="#567C9D" d="M350.099,305.837l4.453,18.773c-0.803,8.507-5.296,19.017-13.48,31.532
		c-5.536,8.504-12.115,17.049-19.737,25.634c2.086-8.744,3.009-15.083,2.768-19.015c-0.32-6.499-3.249-11.072-8.785-13.72
		c5.857-8.584,13.037-17.972,21.542-28.161C343.358,313.018,347.771,308.003,350.099,305.837"/>
	<path fill="#567C9D" d="M246.478,309.446l5.055,7.223c4.172,5.536,8.425,10.35,12.757,14.441
		c-8.344-3.049-13.64-0.079-15.887,8.906c-4.814-6.419-8.344-11.514-10.591-15.284c-4.252-6.979-4.092-11.634,0.481-13.96
		L246.478,309.446"/>
	<path fill="#DBDCDC" d="M85.811,128.563l158.501,112.285l19.736,49.584c-2.406,7.301-7.061,14.401-13.96,21.302
		c-10.591,10.431-24.432,17.691-41.521,21.782c-6.739,1.845-13.279,2.528-19.617,2.046c-6.659-0.48-11.032-2.126-13.118-4.934
		c-2.328-3.049-19.537-35.504-51.63-97.363c-32.254-62.18-49.103-95.398-50.547-99.649c-1.524-4.654-1.204-7.542,0.962-8.665
		C76.943,123.668,80.675,124.871,85.811,128.563"/>
	<path fill="#B4B4B5" d="M105.909,142.884l138.403,97.964l19.736,49.584c-2.406,7.301-7.061,14.401-13.96,21.302
		c-10.43,10.271-23.99,17.491-40.678,21.662c2.005-0.641,4.974-2.326,8.906-5.054c9.467-6.338,17.731-15.325,24.792-26.959
		C239.817,296.649,194.083,243.817,105.909,142.884"/>
	<path fill="#F9BE00" d="M494.52,409.338c11.475,27.601,14.683,55.321,9.627,83.161c-4.57,25.272-15.082,47.298-31.528,66.071
		c-15.968,18.296-34.262,29.848-54.882,34.662c-21.745,5.136-41.843,1.482-60.296-10.954c-17.411-11.711-28.843-28.119-34.3-49.223
		c-4.895-18.692-4.854-39.755,0.121-63.183c4.573-21.343,12.516-41.922,23.829-61.741c11.073-19.254,23.268-34.178,36.587-44.77
		l71.849-10.83L494.52,409.338"/>
	<path fill="#D7A400" d="M494.52,409.338c9.467,22.787,13.279,45.853,11.435,69.2c-1.686,21.263-7.823,41-18.414,59.214
		c-10.108,17.409-22.947,31.249-38.513,41.52c-15.725,10.512-31.931,15.848-48.623,16.007c3.211-3.609,4.735-10.429,4.576-20.46
		c-0.239-10.831,1.042-18.733,3.851-23.71c13.159-2.484,24.953-13.919,35.384-34.296c9.949-19.656,15.685-41.441,17.21-65.353
		c1.525-25.915-2.647-46.896-12.517-62.942c-11.555-18.614-29.485-27.561-53.799-26.839l60.417-9.146L494.52,409.338"/>
	<path fill="#152139" d="M507.036,466.145c0.723,13.879-0.924,28.803-4.934,44.771c0.641-14.361-3.091-29.166-11.193-44.41
		c-8.267-15.484-18.976-27.602-32.134-36.346c-18.135-12.196-40.236-17.69-66.314-16.487c-26.959,1.203-46.776,9.309-59.454,24.311
		c2.729-7.141,6.178-14.645,10.351-22.505l5.294-9.749c6.58-8.584,16.81-15.204,30.69-19.856
		c14.441-4.734,29.407-6.099,44.894-4.094c17.409,2.248,32.813,8.547,46.213,18.896c15.323,11.955,26.759,28.482,34.299,49.585
		L507.036,466.145"/>
	<path fill="#152139" d="M360.93,450.135c17.089-5.053,34.861-5.133,53.316-0.24c19.497,5.136,35.584,14.885,48.26,29.246
		c14.282,16.127,22.306,36.146,24.07,60.054l-12.517,16.851c-9.869,12.275-18.535,20.981-25.996,26.118
		c9.228-19.899,8.426-37.912-2.404-54.039c-9.552-14.121-24.272-23.989-44.171-29.605c-19.578-5.538-36.869-5.016-51.872,1.565
		c-16.769,7.381-25.394,20.699-25.875,39.954c-4.493-7.621-6.178-20.138-5.056-37.55l3.009-23.827
		C330.121,464.938,343.198,455.431,360.93,450.135"/>
	<path fill="#0B132A" d="M504.748,450.258l2.048,15.887c0.561,13.879-1.162,28.803-5.175,44.771
		c0.643-14.521-2.77-29.006-10.231-43.447c-7.541-14.922-17.85-26.758-30.929-35.501l-1.202-11.557
		c-1.445-9.946-4.173-20.339-8.188-31.17c11.798,5.216,22.065,12.598,30.813,22.146
		C491.672,421.975,499.293,434.931,504.748,450.258"/>
	<path fill="#0B132A" d="M448.787,580.595c9.789-20.94,7.181-40.237-7.823-57.887c9.309-13.959,15.044-30.006,17.212-48.142
		c17.007,16.771,26.476,38.313,28.4,64.627l-12.517,17.332C464.271,568.803,455.846,576.824,448.787,580.595"/>
	<path fill="#F9BE00" d="M419.06,576.744c-2.564,7.543-15.204,27.239-37.911,59.094c-23.026,32.413-35.744,47.577-38.15,45.49
		c-2.408-2.006-2.006-22.022,1.203-60.056c3.129-37.147,5.978-59.494,8.546-67.034c2.326-6.9,7.541-11.674,15.646-14.321
		c8.103-2.647,16.728-2.407,25.875,0.723c9.229,3.131,16.248,8.224,21.063,15.284C420.142,562.904,421.387,569.843,419.06,576.744"
		/>
	<path fill="#D7A400" d="M407.868,549.064c5.215,3.288,8.824,7.381,10.831,12.274c2.008,4.893,2.125,10.028,0.359,15.404
		c-2.564,7.381-12.034,23.148-28.403,47.298c-18.293,26.877-33.136,45.212-44.529,55c10.671-16.688,21.462-35.983,32.374-57.89
		C392.623,592.993,402.412,568.963,407.868,549.064"/>
	<path fill="#F9BE00" d="M398.96,248.189l6.622,0.242c5.536,0.641,10.912,1.885,16.127,3.73
		c16.688,6.098,28.804,17.651,36.345,34.662c9.548,21.262,9.908,40.396,1.082,57.405c-9.306,17.813-25.955,26.878-49.942,27.199
		c-22.147,0.241-38.716-10.51-49.707-32.254c-4.253-8.504-6.739-17.169-7.462-25.995c-0.723-8.505,0.361-14.843,3.249-19.016
		L398.96,248.189"/>
	<path fill="#D7A400" d="M398.96,248.189l6.622,0.242c5.536,0.641,10.912,1.885,16.127,3.73
		c16.688,6.098,28.804,17.651,36.345,34.662c8.023,17.812,9.386,34.5,4.09,50.064c-5.375,16.047-16.483,26.598-33.336,31.652
		c7.062-8.584,10.831-18.734,11.313-30.448c0.481-11.152-2.085-21.704-7.703-31.652c-5.855-10.27-13.959-17.932-24.312-22.987
		c-11.473-5.536-24.271-7.021-38.391-4.453L398.96,248.189"/>
	<path fill="#6791B9" d="M551.203,447.488l-37.669-22.023c-14.603-8.264-29.125-21.742-43.567-40.438
		c-11.953-15.325-21.021-30.048-27.197-44.168c-0.883-2.247-0.399-4.052,1.444-5.416c1.926-1.363,3.647-1.043,5.174,0.964
		c10.671,14.44,23.069,27.56,37.188,39.354c10.028,8.424,26.396,18.173,49.104,29.244l39.114,19.015
		c3.931,2.488,5.815,5.057,5.655,7.703c-0.32,3.934,1.205,8.145,4.573,12.637c2.646,3.61,6.018,7.583,10.107,11.914
		c3.772,4.014,8.906,10.512,15.406,19.497c7.781,10.671,14.563,30.61,20.34,59.813c4.331,21.904,7.301,44.008,8.906,66.314
		c1.04,15.321,0.28,27.077-2.288,35.262c-2.487,7.701-3.45,13.962-2.891,18.773c2.41,20.94,15.728,38.473,39.959,52.595
		c7.222,4.173,16.128,8.383,26.719,12.637c10.105,4.09,15.604,6.418,16.486,6.979c4.253,2.729,7.021,10.911,8.304,24.551
		c0.643,6.82,0.843,13.358,0.603,19.616c-2.327-3.13-5.215-6.338-8.665-9.626c-6.738-6.581-12.637-10.19-17.691-10.831
		c-4.012-0.481-12.718-6.298-26.115-17.451c-14.282-11.954-26.758-19.377-37.429-22.266c-6.42-1.846-13.641-2.688-21.663-2.527
		l-14.081-1.202c-3.211-1.285-3.69-4.413-1.445-9.39c1.125-2.486,4.293-7.623,9.509-15.403c3.852-5.775,6.099-11.595,6.74-17.449
		c0.641-6.421-0.643-13.481-3.851-21.183l-13.843-31.172c-6.018-14.041-9.186-24.068-9.506-30.088
		c-0.162-2.968,0.682-12.313,2.525-28.041c1.442-13.158,1.325-22.547-0.359-28.163c-2.488-8.503-4.054-15.442-4.692-20.818
		c-0.806-7.062-0.202-12.758,1.803-17.091c1.925-4.173,1.686-9.907-0.721-17.212c-1.686-5.053-4.134-10.269-7.344-15.644
		c-1.765-2.968-3.891-4.211-6.378-3.73l-6.016,2.287C566.008,455.633,560.592,453.024,551.203,447.488"/>
	<path fill="#567C9D" d="M492.113,380.213c-8.987-4.171-17.132-3.57-24.433,1.805c-10.831-14.281-19.137-28.001-24.912-41.159
		c-0.883-2.247-0.399-4.052,1.444-5.416c1.926-1.363,3.647-1.043,5.174,0.964c10.671,14.44,23.069,27.56,37.188,39.354
		L492.113,380.213"/>
	<path fill="#567C9D" d="M576.719,440.509c1.203-1.845-2.728-6.9-11.794-15.164c-8.346-7.703-15.164-13.079-20.46-16.127
		L563,417.882c5.854,2.729,9.786,4.775,11.794,6.138c3.931,2.488,5.815,5.057,5.655,7.703c-0.32,3.933,1.205,8.145,4.573,12.637
		c2.646,3.61,6.018,7.583,10.107,11.914c3.772,4.014,8.906,10.512,15.406,19.497c7.781,10.671,14.563,30.61,20.34,59.813
		c4.331,21.904,7.301,44.008,8.906,66.314c1.04,15.321,0.28,27.077-2.288,35.262c-2.487,7.701-3.45,13.962-2.891,18.773
		c2.41,20.94,15.728,38.473,39.959,52.595c7.222,4.173,16.128,8.383,26.719,12.637c10.105,4.09,15.604,6.418,16.486,6.979
		c4.253,2.729,7.06,10.911,8.424,24.551c0.643,6.82,0.883,13.358,0.723,19.616c-2.407-3.13-5.335-6.338-8.786-9.626
		c-6.82-6.581-12.756-10.19-17.812-10.831c-2.006-0.241-3.408-1.125-4.214-2.649l-1.803-5.535
		c-1.846-6.339-6.261-11.594-13.241-15.765c-5.774-3.37-13.637-9.066-23.588-17.093c-7.621-6.096-13.039-9.506-16.247-10.229
		c-4.813-1.043-8.866-5.376-12.155-12.997c-3.53-8.186-4.692-17.091-3.487-26.718c1.122-8.666,1.202-19.699,0.239-33.097
		l-2.769-26.958c-1.365-11.315-3.37-24.353-6.018-39.116c-2.729-14.762-4.855-28.44-6.379-41.036
		c-0.724-7.544-2.487-16.851-5.295-27.925c-3.288-12.596-6.738-22.185-10.35-28.763c-2.41-4.413-7.062-9.187-13.962-14.321
		C576.396,446.124,574.953,443.076,576.719,440.509"/>
	<path fill="#6791B9" d="M560.952,294.885c-0.964,2.005-2.085,9.026-3.37,21.061c-1.12,11.153-1.724,19.697-1.804,25.635
		c0,3.291-2.088,7.382-6.261,12.275l-9.022,8.786l-3.132,6.98c-1.045,2.326-3.168,1.725-6.378-1.806
		c-7.061-7.781-19.698-14.603-37.911-20.46l-18.531-4.934c-4.815-1.524-8.586-4.252-11.314-8.184
		c-5.053-7.222-10.791-14.724-17.211-22.506c-8.906-10.833-16.085-18.173-21.54-22.024c-2.006-1.444-2.929-2.889-2.769-4.332
		c0.16-1.445,1.323-2.328,3.487-2.647c5.858-1.044,14.161,2.005,24.913,9.146c12.356,8.265,36.906,26.999,73.655,56.204
		c-0.24-2.167-0.282-4.613-0.123-7.343c0.403-5.455,1.648-9.548,3.733-12.274c1.925-2.486,5.415-9.547,10.469-21.181
		c5.216-12.116,8.304-18.937,9.27-20.459l9.146,0.239C560.512,289.871,562.077,292.478,560.952,294.885"/>
	<path fill="#567C9D" d="M479.596,313.66c-7.783-2.488-13.559-2.889-17.329-1.204c-3.931,1.845-5.738,6.218-5.416,13.119
		c-13.397-18.214-24.191-30.168-32.373-35.865c-2.006-1.444-2.929-2.889-2.769-4.332c0.16-1.445,1.323-2.328,3.487-2.647
		c5.858-1.044,14.161,2.005,24.913,9.146L479.596,313.66"/>
	<path fill="#567C9D" d="M560.952,294.885c-0.964,2.005-2.085,9.026-3.37,21.061c-1.12,11.153-1.724,19.697-1.804,25.635
		c0,2.328-1.125,5.176-3.37,8.546c1.364-7.542,0.279-14.884-3.25-22.025c-3.53-6.979-8.345-11.554-14.441-13.719l7.101-16.368
		l5.296-11.192l9.146,0.24C560.512,289.871,562.077,292.478,560.952,294.885"/>
	<path fill="#DBDCDC" d="M647.244,44.197c-0.24,24.792-4.453,68.078-12.639,129.858c-7.621,56.805-12.715,89.058-15.284,96.76
		c-2.807,8.346-11.834,15.164-27.076,20.459c-14.604,5.135-26.479,6.338-35.624,3.61c-14.765-4.332-25.678-11.793-32.735-22.384
		c-7.062-10.432-9.309-22.425-6.738-35.985c2.085-10.832,19.737-43.928,52.95-99.289c31.854-53.115,52.395-84.967,61.622-95.558
		c8.262-9.467,12.917-14.16,13.959-14.08C646.802,27.669,647.324,33.205,647.244,44.197"/>
	<path fill="#B4B4B5" d="M645.438,26.385c0.884-0.723,1.485,2.327,1.807,9.146c0.24,6.339,0.16,12.355-0.24,18.053
		c-4.173,51.671-7.381,88.056-9.629,109.157c-5.697,53.034-11.713,89.06-18.054,108.073c-2.887,8.504-11.994,15.525-27.318,21.062
		c-14.924,5.375-26.718,6.379-35.382,3.009l-8.063-3.61c5.775,1.444,10.591,1.444,14.441,0c3.771-1.363,6.938-4.173,9.506-8.424
		l35.985-119.267C629.832,91.856,642.148,46.122,645.438,26.385"/>
	<path fill="#F9BE00" d="M305.449,175.98l31.772-1.565c9.547,0.722,16.688,2.206,21.422,4.453l30.688,13.84l-11.433,82.439
		c-7.462,8.986-17.129,18.613-29.004,28.884c-14.602,12.678-24.63,18.855-30.086,18.534c-3.45-0.159-9.267-3.409-17.451-9.749
		c-9.067-6.979-17.451-15.164-25.154-24.551c-21.261-25.835-28.723-49.664-22.384-71.488
		C260.157,194.875,277.367,181.275,305.449,175.98"/>
	<path fill="#D7A400" d="M354.671,222.795c-3.932-20.7-13.117-36.986-27.56-48.861l18.896,1.444
		c5.536,0.964,9.748,2.126,12.636,3.49l30.688,13.84l-11.433,82.439c-7.462,8.986-17.129,18.613-29.004,28.884
		c-14.603,12.678-24.631,18.855-30.087,18.534l-1.445-0.24l17.451-20.7c6.659-8.185,11.635-15.565,14.924-22.146
		C356.798,261.268,358.441,242.372,354.671,222.795"/>
	<path fill="#E85377" d="M253.097,219.667c3.21,0.562,8.383,11.594,15.525,33.096c6.66,20.138,10.23,33.417,10.711,39.835
		c0.401,5.214-3.409,5.576-11.432,1.083s-14.162-10.671-18.414-18.533c-7.141-13.079-9.95-25.996-8.425-38.752
		C242.505,224.2,246.518,218.624,253.097,219.667"/>
	<path fill="#E85377" d="M372.724,203.661h16.007c10.43,9.467,14.685,21.662,12.758,36.586
		c-1.606,12.596-5.857,21.781-12.758,27.559c-10.911,9.387-19.979,14.763-27.199,16.127c-8.505,1.605-13.76-2.526-15.766-12.395
		c-2.969-14.202-1.605-28.443,4.092-42.725C355.555,214.612,363.176,206.229,372.724,203.661"/>
	<path fill="#6791B9" d="M285.952,199.328c2.167,5.857,2.046,9.628-0.361,11.313c-2.406,1.685-4.733-0.401-6.979-6.258
		c-2.086-5.536-9.469-16.528-22.145-32.975c-12.356-16.046-20.298-25.234-23.829-27.56c-2.809-1.845-11.113,4.894-24.913,20.218
		c-10.028,11.152-19.457,22.666-28.282,34.54c-3.61,4.893-7.823,11.193-12.637,18.895c-3.931,5.615-7.982,9.026-12.155,10.229
		c-4.975,1.444-9.307-1.485-12.998-8.786c-3.69-7.221-4.212-13.279-1.564-18.173c2.566-4.733,13.639-17.852,33.216-39.354
		c19.657-21.422,32.415-34.34,38.272-38.753c5.695-4.332,10.63-6.218,14.803-5.655c4.012,0.561,8.063,3.409,12.155,8.544
		c5.697,7.301,13.92,19.056,24.672,35.263C275.962,180.152,283.544,192.989,285.952,199.328"/>
	<path fill="#567C9D" d="M285.952,199.328c2.167,5.857,2.046,9.628-0.361,11.313c-2.406,1.685-4.733-0.401-6.979-6.258
		c-2.086-5.536-9.469-16.528-22.145-32.975c-12.356-16.046-20.298-25.234-23.829-27.56c-2.809-1.845-11.113,4.894-24.913,20.218
		c-10.028,11.152-19.457,22.666-28.282,34.54c-3.61,4.893-7.823,11.193-12.637,18.895c-3.931,5.615-7.982,9.026-12.155,10.229
		c0.962-1.044,1.966-2.809,3.009-5.295c2.087-5.136,2.688-10.913,1.805-17.331c-0.802-6.74,8.425-21.422,27.681-44.049
		c16.608-19.496,28.242-31.732,34.901-36.706c3.371-2.568,6.941-3.33,10.711-2.287c2.647,0.802,4.573,1.966,5.776,3.49
		c5.697,7.301,13.92,19.056,24.672,35.263C275.962,180.152,283.544,192.989,285.952,199.328"/>
	<path fill="#6791B9" d="M335.536,99.316c1.284-7.46,3.531-10.671,6.74-9.627c2.488,0.801,5.095,3.771,7.823,8.906
		c19.576,36.185,33.697,61.258,42.363,75.218c4.813,7.702,5.014,15.846,0.602,24.432c-3.531,6.819-7.863,11.313-12.998,13.479
		c-3.049,1.203-9.669-8.786-19.858-29.967l-14.442-32.133l-5.416,22.385l-8.544,32.012c-1.204,3.612-3.009,5.056-5.416,4.333
		c-2.408-0.803-3.25-2.848-2.528-6.138l5.658-49.825C332.809,121.18,334.813,103.489,335.536,99.316"/>
	<path fill="#567C9D" d="M392.461,173.813c4.813,7.702,5.014,15.846,0.602,24.432c-3.531,6.819-7.863,11.313-12.998,13.479
		c-0.723,0.24-3.491-2.849-8.305-9.267c-5.055-6.819-8.023-11.995-8.906-15.525c10.511,9.869,16.85,8.666,19.016-3.61
		c2.005-11.313,0.2-23.589-5.416-36.827L392.461,173.813"/>
	<path fill="#ED8599" d="M371.88,259.863l16.248-0.603c4.413,0.962,5.576,2.929,3.491,5.897c-3.451,4.974-8.826,9.427-16.127,13.358
		c-6.821,3.61-12.638,5.416-17.452,5.416c-5.856,0-9.346-2.768-10.47-8.304c-0.641-3.61,1.685-6.9,6.981-9.868
		C359.125,263.112,364.901,261.146,371.88,259.863"/>
	<path fill="#ED8599" d="M257.429,285.979c-1.444-1.925-1.524-3.771-0.24-5.536c1.203-1.524,3.209-2.647,6.017-3.369
		c6.98-1.687,11.354-0.2,13.119,4.452c1.765,4.573,2.688,8.023,2.768,10.351c0.08,2.086-0.563,3.609-1.927,4.573
		c-1.364,0.964-4.171,0.48-8.423-1.444C264.087,292.839,260.317,289.831,257.429,285.979"/>
	<path fill="#0D131A" d="M225.537,350.367c-3.61-3.933-6.819-8.063-9.628-12.396l-3.129-5.416l3.25-1.925l3.008,4.813
		c2.568,3.771,5.537,7.382,8.906,10.832c10.833,11.072,23.589,18.614,38.271,22.626l10.11,2.045l6.74,7.222
		c-5.938-0.24-11.634-1.123-17.091-2.647C250.568,371.268,237.089,362.883,225.537,350.367"/>
	<path fill="#0D131A" d="M337.703,364.808c2.005-2.888,3.169-5.134,3.491-6.739c6.899-3.369,13.88-7.341,20.941-11.914l2.287,3.489
		C355.272,355.582,346.368,360.636,337.703,364.808"/>
	<path fill="#0D131A" d="M270.426,370.826l3.852,1.685c-2.406,5.536-3.932,14.602-4.573,27.198
		c-0.642,14.042,0.12,27.92,2.287,41.642l-5.054,3.37c-2.167-14.521-2.729-29.448-1.685-44.771
		C266.134,386.392,267.859,376.683,270.426,370.826"/>
	<path fill="#0D131A" d="M279.454,485.519c-2.648-4.813-4.976-10.309-6.981-16.485c2.167-0.964,4.132-1.605,5.897-1.929
		c1.845,5.458,4.052,10.512,6.619,15.166c8.906,16.527,21.021,26.076,36.346,28.645l-0.722,4.091
		C302.159,511.877,288.439,502.048,279.454,485.519"/>
	<path fill="#0D131A" d="M274.64,295.728l2.045-0.241c0.563,3.45,2.607,10.751,6.138,21.904c4.333,13.479,8.425,24.11,12.277,31.894
		l-4.935-3.25c-3.691-7.382-7.222-17.209-10.591-29.486C277.005,307.481,275.36,300.541,274.64,295.728"/>
	<path fill="#0D131A" d="M314.714,174.896l-3.73,1.805c-7.462-14.763-21.261-33.136-41.401-55.12
		c-27.038-29.366-50.948-45.772-71.728-49.223c-13.399-2.166-24.913,1.564-34.54,11.193c-10.511,10.43-15.807,26.918-15.887,49.464
		c0,13.158,1.685,26.998,5.054,41.52c0.241,0.964-0.521,1.084-2.287,0.361c-1.845-0.801-2.888-1.644-3.129-2.526
		c-3.53-14.844-5.296-28.964-5.296-42.363c0-23.429,5.697-40.838,17.091-52.232c9.627-9.629,22.385-13.159,38.271-10.591
		c21.824,3.53,46.696,20.42,74.617,50.668C292.69,140.396,307.013,159.412,314.714,174.896"/>
	<path fill="#0D131A" d="M212.297,122.063l-2.045,1.685l-49.103-40.919l1.324-1.564L212.297,122.063"/>
	<path fill="#0D131A" d="M143.699,128.563l1.684-1.204l34.18,28.763l-1.805,1.805L143.699,128.563"/>
	<path fill="#0D131A" d="M199.902,172.851l1.684-2.046l54.518,40.558l-1.203,1.685L199.902,172.851"/>
	<path fill="#0D131A" d="M278.49,129.886l0.964,1.444l-35.143,2.167l-0.361-2.408L278.49,129.886"/>
	<path fill="#0D131A" d="M206.521,176.341l2.889,2.167l6.979,42.002l-2.407-1.084L206.521,176.341"/>
	<path fill="#0D131A" d="M346.97,371.065l5.416-18.052l2.045,0.603l-5.655,18.773l-0.241,0.121
		c-46.695,35.864-73.293,55.199-79.792,58.009l0.36-3.851C275.36,424.02,301.316,405.486,346.97,371.065"/>
	<path fill="#0D131A" d="M307.253,402.6l1.564-1.687l6.861,16.969l-1.926,2.649L307.253,402.6"/>
	<path fill="#0D131A" d="M291.608,493.582c3.129-6.658,7.301-14.763,12.517-24.311c7.782-14.119,12.877-21.783,15.284-22.987
		l3.73-2.646c-2.085,1.845-6.378,8.743-12.876,20.697c-5.296,9.791-10.953,20.742-16.97,32.854L291.608,493.582"/>
	<path fill="#0D131A" d="M528.096,482.391c-6.016-4.652-11.674-9.708-16.969-15.164l-6.379-7.101l0.843-4.695l6.501,6.86
		c5.375,5.296,11.071,10.188,17.089,14.685c19.095,14.201,37.829,21.782,56.202,22.745l-0.359,3.008l0.241,3.01
		C566.168,504.936,547.112,497.154,528.096,482.391"/>
	<path fill="#0D131A" d="M648.326,300.181l3.491-2.408c8.824,12.837,16.405,30.009,22.747,51.511
		c8.344,28.401,10.309,53.836,5.896,76.301c-2.728,13.799-8.264,26.276-16.609,37.429c-7.54,9.948-17.688,19.295-30.444,28.041
		c-4.496,2.97-8.629,5.338-12.399,7.104l-2.045-4.937c3.61-1.604,7.062-3.53,10.353-5.777c23.67-15.241,38.309-36.866,43.927-64.866
		c4.413-22.146,3.011-46.617-4.213-73.415C663.411,328.383,656.51,312.055,648.326,300.181"/>
	<path fill="#0D131A" d="M541.938,360.115l1.325-1.806c13.879,5.938,36.946,12.155,69.2,18.654
		c30.568,6.097,51.99,9.146,64.268,9.146v2.047c-13.962,0-34.901-2.607-62.821-7.823
		C581.895,374.315,557.903,367.577,541.938,360.115"/>
	<path fill="#0D131A" d="M615.711,378.527h2.167c0.403,7.222-1.245,17.451-4.935,30.689c-4.012,14.281-8.664,25.113-13.96,32.494
		l-1.686-1.203c4.813-6.66,9.267-18.132,13.358-34.419C614.025,392.689,615.711,383.503,615.711,378.527"/>
	<path fill="#0D131A" d="M579.729,431.966c5.295,1.765,11.191,4.33,17.69,7.7l12.276,6.499c2.646,1.202,4.133,2.125,4.452,2.77
		l1.806,6.136l10.951,36.468l-2.045,0.6L611.5,450.736c-13.719-8.503-24.55-14.12-32.496-16.847L579.729,431.966"/>
	<path fill="#0D131A" d="M489.946,321.963c11.475,2.248,24.992,3.089,40.558,2.528l-3.008,4.572L495,327.019L489.946,321.963"/>
	<path fill="#0D131A" d="M635.69,36.615c0.723-0.321,0.239,0.723-1.442,3.129l-3.611,3.972l-6.26,2.527
		c-18.771,7.863-38.552,20.459-59.332,37.79c-19.737,16.448-38.393,35.423-55.964,56.925
		c-17.649,21.583-32.054,43.086-43.204,64.508c-11.797,22.545-18.734,42.604-20.82,60.174l-4.093-0.48
		c2.008-17.491,8.746-37.991,20.22-61.498c11.794-24.23,26.517-47.258,44.168-69.082c17.893-22.063,37.31-41.279,58.251-57.647
		c19.574-15.244,39.191-26.998,58.85-35.263L635.69,36.615"/>
	<path fill="#0D131A" d="M722.223,124.23c-2.407-43.888-12.437-71.368-30.089-82.439c-11.313-6.98-26.194-8.145-44.648-3.49
		c-0.32,0.08-0.562-0.723-0.722-2.408c-0.082-1.765,0.038-2.688,0.357-2.768c20.703-5.296,36.909-4.293,48.623,3.009
		c9.709,6.097,17.212,15.966,22.508,29.606c5.293,13.88,8.583,32.293,9.866,55.241c1.285,23.267-1.525,46.816-8.424,70.645
		c-5.217,17.812-12.396,34.74-21.542,50.787c-8.906,15.646-18.134,29.004-27.682,40.076c-10.671,12.356-20.859,20.781-30.57,25.274
		c-9.546,4.413-21.539,8.343-35.981,11.794c-14.844,3.61-30.21,6.218-46.095,7.823v-5.176c14.924-2.006,29.646-4.935,44.167-8.786
		c13.64-3.771,25.194-7.822,34.661-12.155c21.663-10.029,41.239-30.93,58.731-62.702
		C715.441,202.215,724.388,164.105,722.223,124.23"/>
	<path fill="#0D131A" d="M582.857,120.258l0.118,2.046l-64.629,2.888l2.891-2.167L582.857,120.258"/>
	<path fill="#0D131A" d="M695.624,57.314l9.869-5.536l1.085,1.805l-9.991,5.536c-26.075,14.362-43.247,24.27-51.508,29.727
		c-0.966,0.642-1.405,0.321-1.325-0.962c0.16-1.204,0.563-2.046,1.202-2.528c5.136-3.61,13.48-8.465,25.033-14.563L695.624,57.314"
		/>
	<path fill="#0D131A" d="M683.107,143.727c16.286-9.869,29.887-16.77,40.798-20.701l0.725,2.046
		c-10.031,3.531-23.83,10.832-41.401,21.904c-19.175,11.955-34.86,23.549-47.056,34.781c-0.965,0.801-1.484,0.721-1.566-0.241
		c-0.16-0.963,0.281-1.925,1.324-2.888C648.127,166.994,663.851,155.36,683.107,143.727"/>
	<path fill="#0D131A" d="M671.914,218.102c18.535-9.547,32.174-15.124,40.92-16.728l0.482,2.045
		c-6.98,1.605-20.019,7.141-39.114,16.608c-21.583,10.833-37.589,20.58-48.02,29.246l-1.323-0.12c0-0.802,0.401-1.525,1.201-2.167
		C636.652,237.839,651.938,228.212,671.914,218.102"/>
	<path fill="#0D131A" d="M663.008,157.687l2.168-0.121l6.02,62.583l-3.61,1.805L663.008,157.687"/>
	<path fill="#0D131A" d="M529.061,206.668c0.722-0.4,1.163-0.2,1.323,0.603c0.08,0.802-0.32,1.444-1.203,1.925
		c-12.033,7.141-25.795,16.448-41.279,27.921c-15.565,11.393-28.886,21.983-39.957,31.771l-1.443-1.445
		C476.99,240.166,504.509,219.907,529.061,206.668"/>
	<path fill="#0D131A" d="M489.827,322.084l36.224-44.892l3.13,2.528l-37.791,43.688L489.827,322.084"/>
	<path fill="#0D131A" d="M599.466,316.789l7.701-30.689l4.333-4.935l-10.108,36.105L599.466,316.789"/>
	<path fill="#0D131A" d="M264.29,458.681c-1.204,2.008-4.694,4.573-10.471,7.703c-6.82,3.771-10.792,6.938-11.914,9.509
		c-0.723,1.605-1.765,6.618-3.129,15.044c-2.167,12.598-4.093,22.144-5.777,28.645c-3.129,12.192-7.021,22.265-11.675,30.206
		c-5.134,8.825-9.146,18.212-12.034,28.163c-2.648,9.226-3.972,17.608-3.972,25.151c0,5.536,0.761,10.028,2.287,13.479l6.498,14.921
		c2.086,5.618,3.129,10.432,3.129,14.444c0,3.048-0.562,5.694-1.684,7.942c-2.248,4.977-5.817,11.111-10.711,18.414
		c-5.056,7.461-8.826,12.154-11.313,14.079l-24.552,16.127c-14.281,10.111-22.786,18.292-25.514,24.553
		c-2.085,4.733-2.447,11.473-1.083,20.219s2.888,11.634,4.573,8.666c4.012-6.901,11.915-16.569,23.709-29.006
		c13.399-14.122,24.27-23.349,32.615-27.68c6.98-3.609,14.883-6.979,23.708-10.109l16.729-5.416l7.1-2.045
		c1.124-0.4,1.605-1.205,1.445-2.408c-0.241-1.282-1.445-3.934-3.61-7.943c-2.167-3.93-3.652-6.298-4.453-7.098
		c-3.53-3.854-6.098-7.344-7.703-10.475c-2.808-5.455-4.212-11.914-4.212-19.375c0-4.253,0.441-8.626,1.324-13.119
		c1.204-6.657,3.169-13.039,5.897-19.135c1.685-3.771,4.373-8.745,8.063-14.924c4.493-7.623,7.622-13.679,9.387-18.172
		c2.889-7.381,4.573-15.646,5.056-24.793l0.12-5.057l-0.722-16.847l-0.602-11.193l0.481-5.296l0.723-2.287
		c1.684-5.376,2.526-9.866,2.526-13.477l-0.361-4.453l-0.481-4.936c0-8.104,4.092-13.119,12.276-15.045
		c4.332-0.883,11.514-4.051,21.542-9.507c14.923-8.186,28.122-18.174,39.596-29.968l-0.843,6.979
		c-13.64,13.961-26.959,24.029-39.957,30.21c-4.733,2.326-11.193,4.453-19.376,6.379c-3.531,0.8-5.937,2.888-7.221,6.256
		c-1.204,3.05-1.404,6.9-0.602,11.556c0.563,3.37,0.401,6.618-0.481,9.749l-2.648,7.461l-0.721,2.165
		c-0.321,1.285-0.241,6.299,0.24,15.044c0.643,9.788,0.803,18.096,0.481,24.912c-0.561,10.513-1.484,18.375-2.768,23.591
		c-1.284,4.813-3.69,10.148-7.221,16.005l-10.35,16.007c-4.253,7.061-6.901,13.559-7.943,19.497
		c-1.925,10.671-1.564,19.537,1.084,26.598c1.524,4.091,4.332,8.344,8.423,12.757c6.018,6.5,9.468,12.154,10.351,16.97
		c0.801,4.413-0.563,6.98-4.093,7.7c-17.892,3.935-33.979,9.59-48.26,16.971c-7.702,3.933-19.496,15.326-35.383,34.181
		c-14.843,17.41-23.026,26.115-24.551,26.115c-3.209,0-5.817-4.252-7.822-12.756c-1.845-7.943-2.327-15.484-1.445-22.625
		c1.284-10.271,19.417-25.075,54.398-44.41c11.314-14.443,18.455-24.872,21.422-31.291c0.803-1.845,1.204-3.93,1.204-6.258
		c0-3.45-1.204-7.783-3.61-13l-6.981-13.839c-1.685-3.689-2.526-8.746-2.526-15.164c0-7.623,1.564-16.448,4.693-26.479
		c3.209-10.348,7.582-20.299,13.118-29.846c4.413-7.461,7.823-17.251,10.23-29.365l4.453-28.043
		c1.525-9.066,2.688-14.399,3.49-16.004c0.962-2.168,3.249-4.373,6.859-6.621l9.147-4.813c5.054-2.728,8.023-4.853,8.906-6.378
		l1.685-3.973c1.524-4.411,2.728-7.181,3.61-8.304c2.567-3.37,7.141-6.259,13.719-8.666c10.431-3.69,24.431-12.233,42.002-25.636
		c22.626-17.33,38.995-34.939,49.103-52.833l3.61,2.046c-10.028,17.731-25.915,35.384-47.658,52.953
		c-18.053,14.604-32.695,23.87-43.929,27.802c-5.937,2.168-10.148,4.532-12.636,7.101c-1.524,1.525-2.808,3.813-3.852,6.861
		L264.29,458.681"/>
	<path fill="#0D131A" d="M261.762,331.472c-4.653-4.413-9.106-9.628-13.359-15.645l3.25-2.528
		c10.912,15.004,21.102,23.99,30.569,26.959c7.381,2.407,12.636,5.937,15.766,10.59c2.326,3.371,3.972,8.505,4.934,15.406
		c4.573-11.073,13.078-24.231,25.514-39.477c7.061-8.585,13.8-16.087,20.218-22.505l2.889,3.01
		c-6.258,6.498-13.64,15.163-22.145,25.995c-13.399,17.01-21.462,30.127-24.19,39.354c-1.123,3.851-2.287,5.335-3.49,4.453
		l-1.805-1.925l-0.481-3.973c0-4.012-1.163-8.385-3.49-13.119c-3.369-7.06-8.384-11.674-15.043-13.84
		C274.799,342.303,268.42,338.05,261.762,331.472"/>
	<path fill="#0D131A" d="M262.483,361.438c-11.554-13.72-20.379-25.594-26.478-35.624l-1.564-2.888l3.73-1.685l1.444,2.405
		c5.617,9.147,14.241,20.46,25.875,33.939c12.918,14.763,22.466,23.629,28.644,26.598l10.952,4.693l7.221,0.48
		c1.845-0.721,3.331-2.565,4.453-5.535l0.481-0.723c6.178-6.579,12.195-14,18.053-22.264c10.51-14.844,16.247-27,17.209-36.467
		l2.406,3.729c-1.604,15.405-13.078,34.621-34.42,57.647l-2.287,5.056c-0.802,1.444-1.805,2.406-3.008,2.888
		c-5.135,2.008-12.917,0.563-23.349-4.333C285.351,386.311,275.563,377.004,262.483,361.438"/>
	<path fill="#0D131A" d="M240.099,240.367l-58.851-41.641l2.407-3.61l56.926,40.557L240.099,240.367"/>
	<path fill="#0D131A" d="M70.044,127.6c0.08-2.328,0.763-3.972,2.045-4.936c3.21-2.486,7.824-1.564,13.84,2.769l72.933,51.991
		l-3.37,3.009l-70.887-50.187c-2.486-1.764-4.613-2.888-6.378-3.369c-1.284-0.401-2.207-0.401-2.768,0
		c-0.962,0.642-0.923,2.688,0.12,6.138c1.364,4.092,18.093,36.987,50.187,98.686c32.012,61.859,49.223,94.395,51.629,97.604
		c1.765,2.406,5.697,3.813,11.795,4.211c6.097,0.482,12.396-0.2,18.895-2.045c17.812-4.333,31.973-12.155,42.483-23.469
		c5.616-6.098,9.467-12.155,11.554-18.172l3.851,1.323c-2.968,9.067-6.458,16.049-10.47,20.941
		c-9.869,11.875-24.953,19.858-45.251,23.95c-6.9,1.925-13.92,2.567-21.061,1.925c-7.542-0.721-12.558-2.768-15.044-6.137
		c-3.289-4.413-37.389-69.805-102.297-196.17C70.565,132.774,69.964,130.086,70.044,127.6"/>
	<path fill="#0D131A" d="M175.953,329.306c9.869,0.962,21.824-1.845,35.864-8.425c18.936-8.826,33.217-22.104,42.845-39.835
		l1.444,3.009c-9.227,18.694-23.629,32.213-43.206,40.556c-13.961,6.019-26.396,8.466-37.309,7.343L175.953,329.306"/>
	<path fill="#0D131A" d="M380.186,363.604l2.648,0.481l2.167,0.962c-17.17,13.559-32.014,33.658-44.53,60.295
		c-13.559,28.883-19.817,56.644-18.774,83.281c1.124,27.844,10.591,49.623,28.403,65.35l-1.805,7.344
		c-9.548-8.586-17.091-19.057-22.626-31.411c-5.617-12.517-8.705-25.997-9.268-40.438c-1.042-26.558,5.296-54.479,19.016-83.764
		C347.933,398.827,362.854,378.127,380.186,363.604"/>
	<path fill="#0D131A" d="M492.595,410.181l4.813,1.805c13.559,32.736,15.966,64.628,7.223,95.68
		c-7.623,27.359-22.308,49.864-44.05,67.517c-17.089,14.042-35.103,22.105-54.038,24.19l2.649-3.25l2.165-3.852
		c15.968-2.487,31.092-9.549,45.372-21.183c20.94-17.089,35.223-39.314,42.846-66.675
		C508.159,473.365,505.831,441.954,492.595,410.181"/>
	<path fill="#0D131A" d="M467.562,396.94c17.412,12.116,30.249,29.729,38.513,52.833l-2.527,0.963
		c-8.104-22.545-20.62-39.714-37.549-51.508c-11.714-8.265-24.873-13.521-39.476-15.767c-15.084-2.327-29.968-1.284-44.651,3.129
		c-14.603,4.333-25.313,10.992-32.133,19.979l-2.167-1.686c7.141-9.467,18.213-16.448,33.216-20.941
		c15.004-4.572,30.412-5.615,46.217-3.129C441.927,383.062,455.444,388.437,467.562,396.94"/>
	<path fill="#0D131A" d="M475.625,443.036c14.44,15.002,23.628,34.1,27.561,57.286l-2.649,0.479
		c-3.851-22.545-12.794-41.159-26.835-55.841c-14.122-14.683-32.055-24.15-53.8-28.403c-17.73-3.37-35.102-2.566-52.111,2.408
		c-16.93,4.813-28.442,12.236-34.54,22.265l-1.083-2.646c6.418-10.433,18.132-18.016,35.142-22.745
		c17.089-4.735,34.823-5.378,53.195-1.928C442.81,418.244,461.184,427.952,475.625,443.036"/>
	<path fill="#0D131A" d="M320.492,477.938c8.185-13.398,20.861-22.868,38.032-28.402c17.169-5.616,35.181-6.1,54.037-1.443
		c21.905,5.296,39.516,16.005,52.836,32.132c13.316,16.047,20.82,35.666,22.505,58.853l-2.768,0.241
		c-1.605-22.548-8.868-41.683-21.785-57.408c-12.996-15.645-30.126-26.035-51.388-31.171c-18.296-4.49-35.788-4.052-52.476,1.324
		c-16.608,5.296-28.844,14.401-36.707,27.318L320.492,477.938"/>
	<path fill="#0D131A" d="M351.422,497.915c13.559-5.213,28.923-5.857,46.094-1.925c17.17,3.933,31.131,11.313,41.882,22.145
		c8.188,8.184,13.319,17.449,15.407,27.801c2.085,10.432,0.923,21.262-3.493,32.493l-2.524-1.082
		c4.173-10.672,5.293-20.942,3.368-30.809c-2.006-9.871-6.898-18.734-14.683-26.599c-10.431-10.432-23.95-17.531-40.56-21.303
		c-16.608-3.851-31.411-3.248-44.408,1.805c-7.301,2.81-13.198,6.818-17.692,12.034c-5.937,6.901-9.146,15.606-9.627,26.115
		l-2.648-0.117c0.401-9.629,3.129-17.935,8.184-24.915C335.695,506.581,342.597,501.365,351.422,497.915"/>
	<path fill="#0D131A" d="M378.5,536.065c5.456-0.241,10.953,0.602,16.488,2.525c10.913,3.854,18.854,9.871,23.83,18.055
		c4.896,7.863,5.578,15.404,2.049,22.625c-13.481,27.602-29.45,52.673-47.903,75.222c-16.207,19.657-26.477,28.963-30.81,27.918
		c-4.012-0.96-4.373-21.181-1.084-60.654c3.049-37.148,5.858-59.454,8.425-66.915c1.044-2.97,2.849-5.855,5.416-8.665
		c2.568-2.729,5.417-4.896,8.546-6.499C368.03,537.43,373.044,536.227,378.5,536.065 M378.742,540.276
		c-4.974,0.162-9.467,1.205-13.479,3.131c-5.295,2.647-8.826,6.459-10.591,11.434c-2.166,6.499-4.934,28.323-8.304,65.471
		c-3.29,37.55-4.012,56.605-2.167,57.166c3.691,0.724,16.248-14.241,37.67-44.891c20.781-29.767,32.496-48.58,35.143-56.445
		c0.644-1.684,0.963-3.647,0.963-5.896c0-5.615-2.245-10.991-6.738-16.126c-4.492-5.296-10.353-9.146-17.573-11.555
		C388.771,540.88,383.795,540.117,378.742,540.276"/>
	<path fill="#0D131A" d="M463.951,285.979c0.801,2.005,1.444,4.734,1.926,8.185l1.082,8.185c-1.766-1.765-4.133-3.331-7.102-4.694
		l-3.729-9.988c-7.221-16.288-18.694-27.4-34.419-33.337c-4.977-1.925-10.11-3.169-15.406-3.73l-7.222-0.361l1.805-4.453h7.465
		c6.017,0.401,11.834,1.565,17.449,3.49C443.69,255.21,456.41,267.444,463.951,285.979"/>
	<path fill="#0D131A" d="M461.424,331.953l3.729,3.609c-1.522,4.413-3.287,8.266-5.296,11.555l-3.25-2.769
		C458.695,340.658,460.299,336.525,461.424,331.953"/>
	<path fill="#0D131A" d="M409.192,369.382c17.087-0.241,30.525-5.375,40.316-15.405l2.405,3.853
		c-9.868,10.35-23.107,15.646-39.714,15.885c-13.161,0.08-24.875-3.209-35.145-9.868c-8.104-5.216-14.162-11.554-18.173-19.015
		c-4.974-9.147-8.063-17.532-9.266-25.154c-1.364-8.103-0.441-14.521,2.768-19.256l6.138-4.693
		c-2.729,4.092-3.892,10.19-3.491,18.293c0.401,9.066,2.808,17.69,7.221,25.875c4.171,7.782,9.387,14.121,15.645,19.016
		C386.886,365.972,397.314,369.462,409.192,369.382"/>
	<path fill="#0D131A" d="M472.135,384.425c14.281,18.134,28.4,31.21,42.362,39.234l28.644,16.729
		c14.603,8.584,22.585,12.877,23.949,12.877l2.288-0.843c2.325-1.123,4.213-1.644,5.655-1.563c2.567,0.08,4.774,1.686,6.621,4.813
		c3.288,5.536,5.774,10.831,7.461,15.885c2.646,7.865,2.888,14.164,0.72,18.896c-1.925,4.093-2.445,9.709-1.563,16.85
		c0.641,5.136,2.165,11.674,4.572,19.615c1.202,4.175,1.687,9.668,1.442,16.487l-1.925,19.259
		c-1.283,10.511-1.847,17.488-1.687,20.938c0.402,7.221,5.938,22.385,16.609,45.492l6.621,15.164
		c3.207,7.703,4.569,14.802,4.09,21.303c-0.561,6.498-2.968,12.916-7.221,19.258l-1.445,2.284
		c-6.658,9.789-9.626,15.806-8.905,18.054l1.444,1.325l10.954,1.081c9.466-0.159,17.648,0.684,24.55,2.527
		c7.381,2.006,15.042,5.696,22.988,11.072l18.771,14.682l11.797,9.389c3.851,2.728,7.062,4.253,9.626,4.572
		c7.142,0.963,15.406,7.182,24.792,18.654c-0.238-8.826-1.002-16.649-2.287-23.47c-1.521-8.341-3.647-13.358-6.378-15.042
		c-0.801-0.563-4.331-2.125-10.592-4.695c-18.771-7.301-33.214-14.642-43.324-22.021c-18.052-13.159-28.121-28.844-30.206-47.056
		l-0.361-5.179c0-3.37,0.763-7.258,2.287-11.675l2.527-8.782c0.8-4.253,1.202-9.31,1.202-15.166l-0.603-13.237
		c-1.604-23.027-4.692-45.853-9.267-68.479c-5.695-27.682-12.195-46.575-19.497-56.685c-6.661-9.065-12.195-15.927-16.606-20.58
		l-8.905-10.714c-3.371-4.65-5.056-8.743-5.056-12.272l0.12-2.647c0-0.803-0.28-1.483-0.844-2.046l-3.853-3.01
		c-2.086-1.283-8.784-4.573-20.099-9.866c-15.725-7.384-27.479-13.161-35.264-17.332c-14.521-7.702-25.553-14.723-33.096-21.062
		c-13.721-11.474-26.236-24.713-37.551-39.716c-0.64-0.802-1.361-1.042-2.164-0.722c-1.203,0.642-1.482,1.645-0.844,3.009
		C450.873,354.137,460.021,368.94,472.135,384.425 M518.348,394.294c8.506,4.733,19.417,10.19,32.738,16.367l14.56,6.26
		c5.538,2.326,8.985,3.931,10.352,4.813c2.971,1.846,4.896,3.65,5.775,5.415c0.646,1.123,0.886,2.729,0.726,4.816
		c-0.08,1.683,0.037,3.088,0.36,4.21c0.563,1.926,1.845,4.253,3.85,6.979l8.546,10.35l6.858,6.621
		c3.851,3.931,7.862,8.786,12.036,14.562c8.022,10.911,14.885,31.011,20.579,60.294c4.251,21.825,7.222,44.09,8.906,66.795
		c0.72,10.353,0.36,19.056-1.083,26.115l-4.093,12.76l-1.806,6.379c-0.399,2.406-0.399,5.295,0,8.663
		c2.006,17.092,11.754,31.572,29.246,43.446c8.184,5.535,22.143,12.156,41.88,19.859c4.255,1.604,8.346,3.61,12.275,6.016
		c2.73,1.767,5.097,6.741,7.104,14.925c2.086,8.504,3.009,17.569,2.769,27.2c-0.08,4.894-0.646,7.501-1.686,7.82
		c-0.965,0.323-3.21-1.282-6.74-4.813c-3.451-3.449-7.381-6.617-11.794-9.509c-4.976-3.29-9.026-5.136-12.156-5.535
		c-2.888-0.319-6.139-2.165-9.749-5.535l-11.312-10.592l-18.174-14.202c-7.701-5.135-15.044-8.702-22.025-10.711l-17.087-1.925
		l-14.323,0.12c-2.806,0.08-5.216-0.362-7.222-1.323c-1.766-0.805-2.809-1.685-3.127-2.648c-0.644-2.246,0.318-5.696,2.888-10.351
		l8.426-13.237l1.563-2.166c3.851-5.775,5.979-11.595,6.378-17.451c0.401-5.775-0.842-12.194-3.73-19.255l-6.618-15.045
		l-11.434-24.553c-4.013-9.386-6.138-16.407-6.378-21.06c-0.08-2.408,0.2-5.979,0.843-10.712l1.806-12.275
		c1.846-15.164,1.563-26.799-0.844-34.901c-5.055-16.688-5.535-29.525-1.444-38.512c1.604-3.371,1.484-8.184-0.359-14.441
		c-1.525-5.216-4.013-10.711-7.464-16.486c-1.12-1.766-2.205-2.688-3.247-2.771c-0.723-0.08-1.968,0.28-3.73,1.085l-3.251,1.203
		c-3.609,0.724-12.556-3.171-26.838-11.677l-31.171-19.614c-14.844-8.426-29.243-21.944-43.205-40.558
		c-10.751-14.443-19.377-29.084-25.875-43.929c-0.723-1.604-0.763-3.209-0.12-4.813c0.563-1.445,1.485-2.528,2.77-3.25
		c1.201-0.721,2.444-0.962,3.729-0.721c1.444,0.16,2.688,0.962,3.73,2.406c11.072,14.603,23.387,27.601,36.947,38.992
		C495.441,380.535,505.591,387.233,518.348,394.294"/>
	<path fill="#0D131A" d="M558.307,296.449l4.091,0.603c-0.883,3.369-1.846,10.39-2.891,21.061
		c-0.96,10.109-1.482,17.933-1.563,23.469c-0.079,4.093-2.688,9.066-7.822,14.924l-8.305,7.822c-0.319,0.32-0.883,1.524-1.685,3.61
		c-0.883,3.129-2.086,4.854-3.611,5.175c-1.845,0.401-4.17-0.883-6.979-3.852c-7.142-7.702-19.497-14.322-37.068-19.857
		l-11.674-3.249l-10.832-2.167c-3.287-0.962-6.016-3.009-8.181-6.138c-17.572-25.272-30.408-40.758-38.515-46.455
		c-1.846-1.284-3.008-2.728-3.487-4.333c-0.402-1.443-0.202-2.768,0.6-3.97c1.766-2.488,5.896-3.13,12.396-1.927
		c7.301,1.363,14.885,4.653,22.744,9.869c6.342,4.253,17.732,13.118,34.18,26.598l31.772,25.995c0-7.301,1.403-12.797,4.213-16.488
		c2.086-2.568,6.14-10.952,12.154-25.153l5.897-13.238l3.49,2.287c-1.123,2.326-2.968,6.54-5.535,12.638l-6.139,15.164
		c-2.168,5.456-3.891,8.985-5.176,10.59c-1.925,2.407-3.13,5.295-3.61,8.666l-0.963,9.748c-0.401,3.049-1.082,4.293-2.045,3.73
		l-1.325-1.805c-36.826-29.286-61.337-47.979-73.532-56.083c-6.98-4.653-12.996-7.542-18.053-8.665
		c-3.931-0.883-6.261-0.723-6.979,0.481c-0.16,0.16-0.08,0.48,0.239,0.963l1.564,1.563c5.616,3.933,12.957,11.395,22.022,22.387
		c6.421,7.781,12.155,15.323,17.212,22.625c1.926,2.809,4.253,4.854,6.979,6.138c1.766,0.883,5.057,1.885,9.871,3.009l11.914,3.249
		c18.534,5.857,31.49,12.838,38.871,20.941l2.891,2.527l0.721-2.167c0.806-2.889,1.808-4.773,3.011-5.656
		c3.45-2.729,6.578-5.817,9.389-9.268c3.45-4.252,5.173-7.702,5.173-10.35c0.08-5.215,0.563-12.676,1.445-22.385
		C556.219,308.165,557.262,300.622,558.307,296.449"/>
	<path fill="#0D131A" d="M645.079,28.792c-2.41-1.444-23.431,30.248-63.064,95.077c-39.957,65.229-60.898,102.9-62.824,113.008
		c-0.561,2.808-0.843,5.817-0.843,9.026c0,9.628,2.607,18.292,7.823,25.995c5.615,8.266,13.642,14.242,24.072,17.934
		c12.917,4.493,26.636,4.572,41.159,0.239c14.281-4.333,22.904-10.992,25.876-19.979c5.455-16.367,12.272-60.535,20.457-132.504
		C645.759,66.021,648.207,29.754,645.079,28.792 M646.764,25.061c3.771,1.123,3.208,31.171-1.685,90.142
		c-5.136,62.181-12.156,113.209-21.063,153.084c-2.248,10.351-11.594,18.495-28.043,24.431c-15.483,5.537-29.406,6.78-41.76,3.73
		c-15.728-3.931-27.12-12.195-34.181-24.793c-6.337-11.231-8.103-23.426-5.297-36.585c3.61-16.287,25.155-55.802,64.63-118.544
		C618.761,53.945,641.226,23.456,646.764,25.061"/>
	<path fill="#0D131A" d="M514.377,239.645l2.646-0.481c1.046,5.456,4.293,11.434,9.749,17.932
		c6.338,7.622,14.041,13.6,23.107,17.933c8.826,4.253,18.172,6.379,28.041,6.379c12.998,0,26.317-3.69,39.956-11.072l1.325,2.407
		c-14.281,7.621-27.881,11.634-40.799,12.034c-10.189,0.321-19.657-1.604-28.403-5.775c-9.39-4.493-17.649-11.031-24.79-19.617
		C519.109,252.001,515.5,245.421,514.377,239.645"/>
	<path fill="#0D131A" d="M283.185,179.831c12.275-5.616,26.878-8.424,43.807-8.424l-0.723,4.813
		c-15.806,0.321-29.165,2.929-40.076,7.823c-2.568,1.123-4.574,2.126-6.018,3.008l-2.768-4.332L283.185,179.831"/>
	<path fill="#0D131A" d="M357.8,176.461v4.332c-3.53-1.764-9.507-3.128-17.932-4.092l0.722-4.332
		C348.293,173.252,354.029,174.616,357.8,176.461"/>
	<path fill="#0D131A" d="M371.279,279.24l8.184-2.769c-9.708,11.473-18.653,21.141-26.838,29.004
		c-14.923,14.2-25.955,20.98-33.096,20.338c-3.369-0.32-8.946-3.289-16.728-8.905c-8.424-6.018-16.207-12.879-23.347-20.58v-4.093
		l-0.723-4.213c7.462,8.906,15.605,16.729,24.431,23.47c7.622,5.776,12.876,8.785,15.766,9.025
		c4.894,0.241,13.479-4.772,25.755-15.043C355.272,296.57,364.14,287.825,371.279,279.24"/>
	<path fill="#0D131A" d="M269.583,188.135l3.009,4.091c-8.263,6.58-13.84,14.965-16.728,25.153l-0.723,2.889l-4.092-0.962
		l0.723-3.129C255.223,204.463,261.161,195.116,269.583,188.135"/>
	<path fill="#0D131A" d="M250.931,221.231c-5.215,2.246-7.903,8.786-8.063,19.617c-0.241,11.393,2.567,22.504,8.425,33.336
		c3.61,6.579,8.104,11.874,13.479,15.886c5.054,3.69,9.026,5.095,11.914,4.213c0.481,0,0.682-0.48,0.603-1.444
		c-0.481-6.739-4.493-20.54-12.035-41.399C257.629,230.499,252.855,220.429,250.931,221.231 M248.402,217.982l6.138,0.24
		c3.129,2.728,8.425,14.884,15.886,36.466c5.457,15.646,8.666,26.958,9.628,33.939c0.803,5.776,0.08,8.985-2.167,9.628
		c-4.092,1.203-9.387-0.241-15.885-4.333c-6.741-4.253-11.955-9.749-15.647-16.488c-5.937-10.831-8.544-22.385-7.822-34.661
		C239.175,230.98,242.465,222.715,248.402,217.982"/>
	<path fill="#0D131A" d="M372.243,201.614l1.084,4.091c-8.986,2.408-16.208,10.551-21.664,24.432
		c-5.375,13.8-6.66,27.439-3.851,40.918c1.203,5.858,3.57,9.388,7.1,10.591c3.612,1.284,8.305,0.644,14.082-1.925
		c5.857-2.568,11.995-6.739,18.414-12.516c3.852-3.371,6.9-8.185,9.147-14.442c2.085-5.777,3.169-11.835,3.249-18.173
		c0.16-11.875-3.972-21.664-12.396-29.366l2.768-3.129c4.814,4.333,8.505,9.229,11.073,14.683
		c2.729,5.777,4.053,11.795,3.973,18.053c-0.159,7.782-1.242,14.401-3.247,19.857c-2.169,5.857-5.7,11.272-10.594,16.247
		c-6.82,6.82-13.92,11.475-21.303,13.961l-16.488,0.722c-4.974-1.766-8.264-6.339-9.869-13.721
		c-3.048-14.682-1.604-29.403,4.333-44.167C354.07,213.048,362.133,204.342,372.243,201.614"/>
	<path fill="#0D131A" d="M278.73,202.215c1.042,2.086,2.167,3.812,3.369,5.176l2.167,1.565c1.845-0.643,1.765-3.61-0.24-8.906
		c-2.408-6.258-9.99-19.016-22.746-38.272c-10.993-16.528-19.136-28.162-24.432-34.901c-3.77-4.814-7.421-7.422-10.951-7.823
		c-3.61-0.4-7.983,1.364-13.119,5.296c-5.696,4.253-18.293,17.049-37.789,38.392c-19.577,21.262-30.61,34.26-33.096,38.993
		c-1.284,2.408-1.525,5.617-0.723,9.629c0.802,4.011,2.367,7.502,4.694,10.47c2.728,3.371,5.456,4.654,8.183,3.852
		c2.808-0.723,5.456-2.528,7.943-5.416l7.221-10.23c3.611-5.777,6.458-10.028,8.545-12.756
		c8.826-11.795,18.293-23.309,28.403-34.541c8.745-9.789,15.404-16.167,19.977-19.136c3.29-2.167,5.857-2.648,7.702-1.444
		c3.53,2.327,11.193,11.514,22.987,27.561C268.22,185.046,275.521,195.877,278.73,202.215 M287.876,198.605
		c1.364,3.691,1.846,6.7,1.445,9.027c-0.401,2.085-1.485,3.449-3.25,4.091c-3.289,1.203-6.418-1.284-9.387-7.462
		c-2.888-5.936-10.43-16.727-22.625-32.373c-11.955-15.405-19.458-24.151-22.506-26.236c-2.407-0.321-9.026,5.416-19.857,17.209
		c-10.27,11.152-20.459,23.469-30.569,36.947l-8.423,12.396l-7.943,11.433c-3.049,3.53-6.298,5.777-9.749,6.741
		c-4.653,1.364-8.826-0.281-12.517-4.936c-2.808-3.449-4.814-7.581-6.017-12.395c-1.284-5.375-1.044-9.708,0.721-12.998
		c2.648-4.895,13.88-18.293,33.699-40.197c19.897-22.065,32.735-35.262,38.512-39.595c6.178-4.653,11.514-6.86,16.007-6.62
		c4.653,0.321,9.186,3.291,13.599,8.906c5.617,7.141,14.082,19.216,25.394,36.226C277.647,178.748,285.471,192.027,287.876,198.605"
		/>
	<path fill="#0D131A" d="M348.293,99.558c-1.525-2.809-3.009-4.934-4.453-6.379c-1.204-1.203-2.126-1.724-2.769-1.563
		c-0.4,0-0.841,0.401-1.323,1.204c-0.882,1.444-1.605,3.73-2.166,6.859c-0.563,3.209-2.688,21.744-6.38,55.604
		c-2.888,28.242-4.653,44.007-5.294,47.296c-0.241,1.044-0.202,1.926,0.12,2.648l1.083,1.083c1.043,0.24,1.926-0.722,2.647-2.889
		l8.425-31.652l5.536-22.625c0.643-2.408,1.204-3.65,1.685-3.732c0.562,0,1.324,1.164,2.287,3.491
		c3.29,8.023,8.545,19.056,15.767,33.096c8.665,17.009,14.081,25.715,16.247,26.116c2.326,0.401,4.814-0.962,7.462-4.093
		c2.406-2.888,4.332-6.498,5.777-10.831c0.721-2.247,1.083-4.573,1.083-6.979c0-4.012-1.124-7.783-3.37-11.314
		c-5.294-8.504-13.88-23.507-25.754-45.01L348.293,99.558 M340.351,87.523c4.252-0.643,8.023,2.045,11.313,8.063
		c19.657,36.507,34.099,62.181,43.326,77.023c4.091,6.5,4.854,13.761,2.286,21.784c-1.604,4.975-4.092,9.547-7.461,13.72
		c-3.29,4.172-6.058,6.258-8.304,6.258c-2.728,0-5.296-1.404-7.702-4.213c-3.61-4.413-8.786-13.559-15.525-27.439
		c-4.573-9.468-8.585-18.293-12.035-26.477c-3.209,13.399-7.502,28.723-12.878,45.973c-0.802,2.488-1.845,4.333-3.129,5.537
		c-1.284,1.204-2.608,1.604-3.972,1.204c-1.364-0.321-2.367-1.284-3.008-2.889c-0.563-1.604-0.683-3.57-0.361-5.897l5.174-50.186
		l5.417-51.029C334.693,91.814,336.979,88.004,340.351,87.523"/>
	<path fill="#FFFFFF" d="M262.965,248.67c1.203,3.932,1.564,7.502,1.083,10.711c-0.561,3.21-1.805,5.095-3.73,5.657
		c-2.006,0.561-4.091-0.321-6.258-2.648c-2.167-2.406-3.852-5.616-5.056-9.626c-1.123-4.012-1.444-7.582-0.962-10.711
		c0.563-3.21,1.805-5.096,3.731-5.657c1.925-0.562,3.972,0.361,6.137,2.768C260.157,241.57,261.841,244.74,262.965,248.67"/>
	<path fill="#FFFFFF" d="M355.634,233.506c2.086-4.573,5.014-7.982,8.786-10.229c3.69-2.167,7.061-2.568,10.108-1.204
		c3.129,1.444,5.056,4.292,5.777,8.545c0.643,4.253-0.08,8.666-2.167,13.239c-2.085,4.573-4.974,7.983-8.665,10.23
		c-3.69,2.167-7.101,2.525-10.23,1.083c-3.129-1.364-5.054-4.172-5.777-8.425C352.827,242.494,353.547,238.081,355.634,233.506"/>
</g>
</svg>
