<?xml version="1.0" encoding="utf-8"?>
<!-- Generator: Adobe Illustrator 16.0.0, SVG Export Plug-In . SVG Version: 6.00 Build 0)  -->
<!DOCTYPE svg PUBLIC "-//W3C//DTD SVG 1.1//EN" "http://www.w3.org/Graphics/SVG/1.1/DTD/svg11.dtd">
<svg version="1.1" id="Layer_1" xmlns="http://www.w3.org/2000/svg" xmlns:xlink="http://www.w3.org/1999/xlink" x="0px" y="0px"
	 width="800px" height="800px" viewBox="0 0 800 800" enable-background="new 0 0 800 800" xml:space="preserve">
<g>
	<path fill="#EEEEEF" d="M472.61,711.313l32.518,30c-28.274,6.914-47.021,9.009-56.236,6.284c-3.352-0.941-1.099-6.754,6.755-17.435
		C462.873,720.317,468.527,714.033,472.61,711.313"/>
	<path fill="#C8C9CA" d="M482.036,720.109l23.092,21.204c-28.274,6.913-47.021,9.008-56.236,6.283
		c-1.361-0.417-1.729-1.729-1.099-3.927C462.348,737.912,473.763,730.059,482.036,720.109"/>
	<path fill="#C8C9CA" d="M611.633,724.192c3.771,5.342,6.807,11.101,9.111,17.279c2.407,6.49,2.616,10.156,0.627,10.997
		l-20.422-0.629c-12.253-1.781-20.787-4.398-25.604-7.855L611.633,724.192"/>
	<path fill="#A1D6D3" d="M645.719,508.669c12.044,5.658,29.742,4.977,53.097-2.038c20.631-6.18,34.662-12.986,42.099-20.422
		c5.655-5.655,8.01-0.733,7.07,14.767c-0.842,14.347-3.616,29.214-8.325,44.61c-7.229,23.875-12.777,39.482-16.652,46.812
		c-10.892,20.105-28.902,39.587-54.038,58.438c-24.296,18.116-35.448-0.159-33.46-54.823c0.63-17.069,2.516-36.757,5.655-59.063
		L645.719,508.669"/>
	<path fill="#8BBAB7" d="M630.01,613.918c-2.72-16.336-2.511-32.516,0.629-48.54c3.454-17.803,10.056-31.731,19.793-41.782
		c19.479,15.079,41.679,14.975,66.606-0.313c5.968-3.563,13.453-9.112,22.46-16.651c5.76-4.82,8.694-6.496,8.799-5.029
		c0.313,3.771-0.786,11.414-3.3,22.935l-5.339,21.051c-7.229,23.875-12.777,39.482-16.652,46.812
		c-10.892,20.105-28.903,39.587-54.038,58.438c-9.007,6.807-17.229,6.178-24.664-1.885
		C637.497,641.618,632.732,629.939,630.01,613.918"/>
	<path fill="#A1D6D3" d="M601.578,448.663l-55.768-47.281l27.962-11.781l21.209-8.484c4.604-1.36,8.116-0.47,10.522,2.671
		c2.094,2.723,2.828,6.178,2.198,10.368C606.868,398.974,604.823,417.144,601.578,448.663"/>
	<path fill="#8BBAB7" d="M601.578,448.663c-12.043-12.774-22.045-22.46-30.003-29.062c10.052-8.271,18.168-17.748,24.349-28.432
		c2.515-4.399,5.289-5.655,8.322-3.77c2.727,1.781,3.878,4.031,3.457,6.754C606.868,398.974,604.823,417.144,601.578,448.663"/>
	<path fill="#A1D6D3" d="M344.586,127.581c1.361,10.682-5.707,29.061-21.208,55.137c-7.644,13.091-15.499,25.082-23.562,35.973
		c-23.668,12.776-48.016,23.51-73.044,32.203c-50.162,17.279-78.753,15.761-85.77-4.556c-8.795-25.658-15.289-53.984-19.478-84.984
		c-4.295-32.568-4.033-54.456,0.784-65.661c0.942-2.095,4.137-4.712,9.583-7.854c5.551-3.247,9.216-4.346,10.995-3.299
		c2.515,1.466,9.583,12.567,21.208,33.302c3.979-11.1,8.849-22.778,14.608-35.03c11.414-24.4,21.468-39.375,30.161-44.926
		l10.053-0.786c4.608,0.734,6.86,2.147,6.754,4.243l-2.198,34.086c8.901-7.434,24.872-16.179,47.911-26.233
		c25.868-11.205,48.279-18.222,67.233-21.049c9.529,4.714,13.824,8.222,12.882,10.526c-0.419,1.257-4.818,6.493-13.196,15.709
		c-7.226,7.853-10.368,13.666-9.425,17.436l7.54,21.835C340.605,105.903,343.329,117.212,344.586,127.581"/>
	<path fill="#8BBAB7" d="M340.973,147.688c-4.608,12.462-12.828,28.014-24.663,46.655l-16.494,24.348
		c-15.499,8.378-32.883,16.494-52.151,24.348c-38.435,15.603-66.868,21.939-85.298,19.008l14.295-42.885
		c5.864-16.756,11.677-30.16,17.436-40.214c15.918-27.647,38.8-42.047,68.646-43.198
		C287.668,133.445,313.745,137.424,340.973,147.688"/>
	<path fill="#EEEEEF" d="M164.251,566.323l-0.156,24.188c-3.351,3.982-5.97,4.66-7.855,2.042c-2.304-2.824-3.718-9.843-4.241-21.048
		l-0.156-21.681L164.251,566.323"/>
	<path fill="#C8C9CA" d="M189.07,572.292l19.794,1.255c-7.646,18.433-13.772,27.124-18.38,26.077
		c-1.675-0.316-3.036-2.307-4.085-5.973c-0.942-3.032-1.57-6.909-1.885-11.623L189.07,572.292"/>
	<path fill="#A1D6D3" d="M200.695,481.181c30.162-2.933,47.806-3.298,52.938-1.1c5.132,2.303,10.106,9.06,14.923,20.265
		c2.515,5.655,4.452,11.05,5.813,16.18l-11.311,4.712c-8.902,5.343-16.913,13.824-24.034,25.45
		c-8.587,14.136-16.913,22.773-24.976,25.917c-8.484,3.248-21.992,2.775-40.528-1.412c-15.813-3.561-23.616-17.542-23.406-41.941
		c0.208-11.939,2.46-26.285,6.754-43.041L200.695,481.181"/>
	<path fill="#8BBAB7" d="M181.53,483.225c41.784-4.818,65.819-5.866,72.102-3.144c5.132,2.303,10.106,9.06,14.923,20.265
		c2.515,5.655,4.452,11.05,5.813,16.18l-10.525,3.613c-8.482,4.712-16.285,12.882-23.406,24.505
		c-7.331,12.147-14.242,20.213-20.734,24.191c-7.332,4.607-16.913,6.072-28.748,4.398c5.761-10.472,9.477-24.66,11.153-42.571
		c0.523-6.598-1.623-14.502-6.441-23.72L181.53,483.225"/>
	<path fill="#EEEEEF" d="M167.706,602.606c-2.408-2.408-4.031-7.436-4.869-15.079c-0.838-6.701-0.943-14.506-0.315-23.405
		c3.666,5.863,9.427,8.747,17.28,8.64l10.525-2.042l-6.284,13.195C178.808,593.234,173.363,599.467,167.706,602.606"/>
	<path fill="#C8C9CA" d="M172.577,579.357c-1.362-1.988-4.817-5.182-10.368-9.581l0.313-5.654c3.666,5.863,9.427,8.747,17.28,8.64
		l10.525-2.042l-3.77,8.482c-3.351,6.492-6.808,11.887-10.367,16.182C176.295,588.366,175.09,583.023,172.577,579.357"/>
	<path fill="#A1D6D3" d="M257.717,581.087c0.838-10.576,3.666-20.105,8.482-28.591c4.293-7.54,9.425-13.035,15.394-16.492
		c9.216-5.342,31.784,19.114,67.705,73.361c17.907,27.119,34.926,54.769,51.052,82.938c-8.063,5.76-19.008,8.85-32.83,9.27
		c-12.463,0.421-25.291-1.312-38.486-5.187c-12.881-3.77-22.882-8.586-30.004-14.45c-7.749-6.389-10.315-12.62-7.697-18.692
		C267.038,635.595,255.832,608.211,257.717,581.087"/>
	<path fill="#8BBAB7" d="M257.561,588.313c18.431-12.67,30.526-28.903,36.286-48.696c14.033,10.575,36.024,39.22,65.976,85.927
		c14.871,23.351,28.381,45.606,40.528,66.76c-8.063,5.761-19.008,8.85-32.83,9.27c-12.463,0.421-25.291-1.312-38.486-5.187
		c-12.881-3.77-22.882-8.586-30.004-14.449c-7.749-6.39-10.315-12.621-7.697-18.693C269.342,638.32,258.084,613.344,257.561,588.313
		"/>
	<path fill="#C8C9CA" d="M390.77,686.177l20.576,7.386l-0.47,5.81c-0.629,4.295-1.676,7.178-3.142,8.643
		c-1.779,1.673-7.279,1.203-16.494-1.416c-9.112-2.511-13.824-4.5-14.139-5.968c-0.208-1.363,1.101-3.613,3.928-6.754
		C384.066,690.419,387.312,687.853,390.77,686.177"/>
	<path fill="#EEEEEF" d="M311.912,685.55l8.482,11.623c-22.62,5.655-39.586,8.485-50.896,8.485c-6.702,0-5.444-5.654,3.77-16.968
		c9.112-11.311,16.756-16.601,22.935-15.865C300.183,673.35,305.419,677.593,311.912,685.55"/>
	<path fill="#C8C9CA" d="M302.958,676.281c5.655,4.504,11.467,11.467,17.437,20.892c-22.62,5.655-39.586,8.485-50.896,8.485
		l-0.784-0.159C284.421,694.818,295.837,685.077,302.958,676.281"/>
	<path fill="#EEEEEF" d="M319.137,685.077c9.112-4.921,17.856-4.66,26.234,0.786c6.806,4.295,10.996,9.688,12.566,16.179
		c1.048,4.19-4.921,7.804-17.908,10.84c-10.263,2.41-19.216,3.614-26.861,3.614c-4.608,0-5.761-4.766-3.457-14.294
		C311.912,692.881,315.054,687.171,319.137,685.077"/>
	<path fill="#C8C9CA" d="M357.937,702.042c0.942,3.771-3.771,7.07-14.138,9.897c-7.854,2.197-16.546,3.666-26.076,4.398
		c12.462-10.681,18.851-22.046,19.164-34.086c5.237,1.044,10.002,3.819,14.295,8.323
		C354.745,694.346,356.995,698.168,357.937,702.042"/>
	<path fill="#EEEEEF" d="M287.249,468.928l25.291-15.55l52.781,40.841c39.901,29.742,71.316,51.002,94.252,63.779
		c22.937,12.878,30.685,39.74,23.249,80.581c-3.771,20.422-9.846,39.535-18.224,57.339c-17.068,4.295-39.168,3.036-66.29-3.771
		c-34.35-8.587-59.902-24.296-76.658-47.128c-12.567-16.965-20.893-32.985-24.978-48.065c-2.722-15.186-5.288-26.65-7.696-34.399
		l-17.436-53.412c-5.655-14.662-11.206-23.093-16.652-25.29L287.249,468.928"/>
	<path fill="#C8C9CA" d="M273.897,515.739c-6.597-18.851-12.934-29.481-19.008-31.889l58.121-28.748l52.625,39.9
		c39.691,29.218,71,50.217,93.937,62.994c22.937,12.878,30.685,39.74,23.248,80.581c-3.77,20.422-9.845,39.535-18.223,57.339
		c-6.702,1.676-19.428,1.464-38.173-0.63c-21.466-2.407-39.689-6.49-54.664-12.252c32.357,4.503,62.416-4.817,90.166-27.963
		c3.248-16.859,2.671-34.086-1.726-51.681c-4.926-19.896-14.085-37.021-27.492-51.367
		C398.989,515.791,346.052,503.694,273.897,515.739"/>
	<path fill="#A1D6D3" d="M557.122,265.031c6.705-2.304,11.835-3.718,15.393-4.241c3.773-0.523,6.914,1.466,9.428,5.97
		c1.778,3.247,3.09,7.331,3.928,12.252c1.047,5.97-6.072,21.154-21.364,45.556c-13.615,21.886-25.499,38.642-35.658,50.267
		l7.384,12.567c9.529,11.833,25.656,26.603,48.38,44.298c36.656,25.24,63.311,62.468,79.959,111.688
		c7.436,21.781,11.313,42.571,11.626,62.36c0.313,20.316-3.145,37.021-10.37,50.111h-0.313
		c-5.342,16.651-14.767,31.94-28.273,45.868c-7.331,7.54-17.173,16.495-29.533,26.863c-7.436,7.437-18.272,12.306-32.519,14.606
		c-11.728,1.78-29.214,2.201-52.466,1.259c-13.195-0.629-24.714-4.712-34.557-12.252c-9.007-6.911-14.035-14.56-15.079-22.938
		c-23.774-22.411-37.755-47.438-41.942-75.086c-3.353-21.784-0.524-44.718,8.479-68.805
		c-69.953-36.337-114.934-72.05-134.936-107.131c-19.582,12.985-38.381,21.781-56.393,26.39
		c-12.462,3.145-31.731,5.604-57.808,7.384c-20.735,1.464-39.167-2.515-55.294-11.938c-8.797-5.237-17.332-12.568-25.605-21.993
		c-5.97,4.398-10.943,10.161-14.923,17.281c-6.597-3.454-13.351-7.802-20.263-13.039c-13.929-10.367-21.625-19.896-23.093-28.588
		c-3.036-17.177,0.21-31.522,9.74-43.042c12.986-11.52,22.202-21.154,27.647-28.904l-0.785-17.123
		c-0.104-8.063,0.523-15.08,1.885-21.048c1.885-8.169,6.074-16.495,12.567-24.978c7.33-9.74,15.551-16.389,24.661-19.951
		c14.348-31.312,30.947-51.576,49.797-60.792c10.891-5.34,26.024-7.33,45.397-5.97c19.688,1.468,45.556,2.2,77.6,2.2l38.486,25.92
		c29.113,20.947,52.414,40.843,69.902,59.693c28.171-10.891,59.954-19.425,95.352-25.603l44.613-5.97L557.122,265.031"/>
	<path fill="#A1D6D3" d="M302.329,459.503c-0.313-0.629,0.262-1.36,1.728-2.198l2.828-0.473
		c9.844,17.177,26.129,34.719,48.854,52.623c22.724,18.015,51.105,35.87,85.141,53.567c0.626,0.313,0.521,1.256-0.313,2.827
		c-0.732,1.572-1.468,2.198-2.2,1.886c-33.196-17.277-59.483-33.095-78.856-47.44C333.641,501.023,314.583,480.763,302.329,459.503"
		/>
	<path fill="#8BBAB7" d="M557.122,265.031c6.705-2.304,11.835-3.718,15.393-4.241c3.773-0.523,6.914,1.466,9.428,5.97
		c1.778,3.247,3.09,7.331,3.928,12.252c1.047,5.97-6.072,21.154-21.364,45.556c-13.615,21.886-25.499,38.642-35.658,50.267
		l7.384,12.567c9.529,11.833,25.656,26.603,48.38,44.298c16.86,13.193,30.319,25.711,40.375,37.546
		c11.31,13.402,20.733,28.797,28.273,46.182c10.785,22.307,17.804,45.922,21.051,70.847c3.875,29.218,1.044,52.411-8.484,69.588
		h-0.313c-5.342,16.651-14.767,31.94-28.273,45.869c-7.331,7.539-17.173,16.494-29.533,26.862
		c-7.436,7.437-18.272,12.306-32.519,14.606c-11.728,1.781-29.214,2.201-52.466,1.259c-13.195-0.629-24.714-4.712-34.557-12.252
		c-9.007-6.911-14.035-14.559-15.079-22.938l2.038,0.631l8.173,0.313c10.468-1.673,22.669-9.477,36.601-23.405
		c5.969-5.968,12.199-17.174,18.689-33.616c7.645-19.163,12.567-38.799,14.767-58.906c6.182-56.024-9.842-98.389-48.065-127.083
		c-18.854-14.138-39.532-40.579-62.048-79.328c-10.579-18.117-18.434-30.526-23.565-37.229
		c-8.587-11.519-17.226-19.007-25.918-22.463c-0.734-3.247,24.767-14.242,76.5-32.987c25.868-9.32,51.84-18.326,77.917-27.019
		L557.122,265.031"/>
	<path fill="#8BBAB7" d="M151.213,325.352l12.096-24.348c3.351-3.247,9.164-5.34,17.436-6.283c8.378-0.942,10.421,0.785,6.126,5.184
		c-3.77,4.397-13.508,18.012-29.217,40.842c-10.578,15.29-16.233,20.893-16.965,16.809
		C139.851,353.157,143.358,342.421,151.213,325.352"/>
	<path fill="#8BBAB7" d="M259.917,424.158c6.387-1.886,11.677-2.881,15.866-2.984l8.011,1.1l43.669,8.64
		c24.715,4.398,37.91,8.534,39.586,12.412c1.781,4.083-6.755,10.366-25.605,18.85l-28.746,11.31
		c-1.048,0.734-2.986-1.358-5.813-6.283c-2.828-4.816-4.712-6.91-5.655-6.281c-17.488,11.728-33.616,19.581-48.381,23.563
		c-9.216,2.516-24.715,4.66-46.498,6.438l7.698-15.706c2.198-6.18,1.099-10.732-3.299-13.667c-1.885-1.256-5.55-1.204-10.997,0.159
		l-19.321,5.024c-21.469,4.922-43.042,4.346-64.72-1.729l-3.77-4.556c-1.466-1.989-2.042-3.192-1.729-3.613l18.065-1.415l37.23-0.47
		c11.414-0.418,28.85-5.131,52.31-14.139L259.917,424.158"/>
	<path fill="#8BBAB7" d="M304.372,227.331c2.827,9.425,3.666,15.708,2.513,18.85c-15.918-14.137-33.146-24.977-51.681-32.517
		l44.612,0.471L304.372,227.331"/>
	<path fill="#FFFFFF" d="M241.537,296.762c7.75,5.027,13.562,12.252,17.438,21.677c2.094,5.132,3.927,12.463,5.497,21.994
		c-10.368,8.482-27.176,15.918-50.423,22.305c-16.547,4.503-30.37,7.279-41.471,8.326c0.314-2.095,3.036-7.907,8.167-17.436
		c6.18-11.625,12.358-21.103,18.537-28.433c5.131-6.074,11.781-11.992,19.95-17.751C228.237,301.16,235.673,297.601,241.537,296.762
		"/>
	<path fill="#DBDCDC" d="M199.281,325.194c5.131-6.074,11.781-11.992,19.95-17.751c9.006-6.284,16.441-9.844,22.305-10.682
		c5.342,3.456,9.898,8.222,13.667,14.295c-24.191,3.351-44.98,14.346-62.364,32.987c-8.691,9.32-15.447,18.326-20.263,27.019
		c0.314-2.095,3.036-7.907,8.167-17.436C186.925,342.002,193.103,332.524,199.281,325.194"/>
	<path fill="#FFFFFF" d="M272.641,420.548c0,3.454-1.362,10.315-4.085,20.575c-2.827,10.788-4.973,16.338-6.441,16.65
		c-1.57,0.418-6.597-3.088-15.08-10.522c-8.378-7.229-13.091-11.992-14.138-14.294L272.641,420.548"/>
	<path fill="#DBDCDC" d="M232.897,432.957l41.313-13.354l-6.439,24.352c-3.562-4.086-7.175-6.545-10.84-7.387l-19.949,1.415
		L232.897,432.957"/>
	<path fill="#CA0336" d="M221.901,325.509c6.389,7.646,8.326,18.483,5.813,32.516c-1.361,1.361-7.017,3.351-16.965,5.969
		c-10.263,2.617-16.599,3.614-19.008,2.984c-1.989-0.419-3.928-2.932-5.813-7.54l-3.141-8.326
		c-0.734-1.362,2.828-7.54,10.682-18.535c7.959-11.206,12.933-16.495,14.922-15.866C214.048,318.598,218.55,321.528,221.901,325.509
		"/>
	<path fill="#AA002B" d="M193.47,332.579c7.959-11.206,12.933-16.495,14.922-15.866c6.075,2.198,10.734,5.393,13.98,9.581
		c-10.891,1.466-19.688,5.446-26.39,11.939c-5.236,5.027-8.901,11.206-10.997,18.535l-2.198-5.655
		C182.054,349.751,185.615,343.574,193.47,332.579"/>
	<path fill="#A1D6D3" d="M570.16,159.312c1.676,5.97,2.932,14.399,3.77,25.291c0.734,11.415,0.525,19.427-0.629,24.035l26.706,1.57
		c9.007,1.361,13.615,2.775,13.824,4.241l2.198,11.466c0.523,4.923-0.731,7.542-3.771,7.854c-22.307,2.408-35.814,5.655-40.527,9.74
		c-1.885,1.676-9.425,11.362-22.622,29.061c-13.194,17.699-22.355,28.8-27.488,33.303c-9.635,8.376-18.901,13.979-27.803,16.809
		c-8.902,2.827-22.619,4.502-41.155,5.025l-38.803,1.257c-14.87,1.047-26.756,3.351-35.657,6.912
		c-5.131,2.094-12.724,1.204-22.778-2.671c-9.948-3.874-19.792-9.687-29.532-17.436c-24.4-19.478-35.553-39.533-33.459-60.163
		l5.184-48.383c1.468-10.472,3.509-18.326,6.126-23.562c7.75-15.184,25.449-36.916,53.095-65.19
		c25.554-26.181,42.414-41.156,50.581-44.928c6.285-3.037,13.039-3.141,20.266-0.313c6.808,2.723,9.478,5.499,8.014,8.326
		l-9.741,21.049l29.529-13.196c23.356-8.587,44.301-12.566,62.838-11.938l49.481,0.628c11.102,0,17.277,0.629,18.536,1.885
		c2.303,2.2,4.396,6.704,6.281,13.51c2.094,7.436,1.363,11.31-2.198,11.625l-19.636,3.142c-9.111,1.885-13.667,3.508-13.667,4.869
		c0,1.361,1.779,8.063,5.342,20.107L570.16,159.312"/>
	<path fill="#915E82" d="M511.882,167.48c5.238,9.529,8.063,21.991,8.482,37.385c0.421,15.186-1.623,27.281-6.124,36.287
		c-5.028,11.833-9.217,20.211-12.568,25.134c-5.655,8.272-13.877,13.666-24.665,16.18l-110.114,24.977
		c-6.808-10.367-14.767-19.426-23.879-27.175l-11.781-8.326c0-11.416,1.676-27.175,5.027-47.283
		c3.875-23.563,8.169-38.068,12.882-43.513c5.655-6.389,23.3-16.495,52.939-30.317c30.682-14.243,52.411-21.94,65.188-23.093
		c11.622-1.047,21.104,2.828,28.435,11.625C497.691,141.875,503.084,151.249,511.882,167.48"/>
	<path fill="#7F5072" d="M467.27,127.736c7.228-0.628,13.458,0.525,18.692,3.457c4.398,2.408,8.538,6.335,12.412,11.781
		c-28.065,4.816-54.929,24.244-80.587,58.279c-24.82,32.987-40.056,68.017-45.711,105.089l-5.184,1.101
		c-8.484-10.054-16.966-19.007-25.448-26.862l-10.211-8.639c0-11.416,1.676-27.175,5.027-47.283
		c3.875-23.563,8.169-38.068,12.882-43.513c5.655-6.389,23.3-16.495,52.939-30.317C432.763,136.586,454.492,128.89,467.27,127.736"
		/>
	<path fill="#65A9DC" d="M367.52,307.601c-5.341-9.321-12.515-17.803-21.521-25.447c-6.912-6.074-11.781-9.425-14.608-10.054
		c-1.468-0.313-1.257-7.854,0.627-22.62l3.299-22.148c6.179-8.484,16.494-18.065,30.946-28.747
		c13.824-10.263,23.772-16.075,29.846-17.437c5.341-1.152,12.46,0.104,21.364,3.771c8.166,3.246,14.242,6.859,18.225,10.838
		c5.13,5.027,10.731,12.724,16.806,23.091c7.227,12.567,10.266,21.888,9.111,27.961c-1.572,8.589-3.979,16.285-7.228,23.091
		c-4.71,9.74-10.629,16.756-17.751,21.051l-34.086,8.954C379.616,305.768,367.939,308.334,367.52,307.601"/>
	<path fill="#5892BF" d="M427.056,189.472c-16.757,20.317-29.375,39.115-37.857,56.394c-9.32,19.165-15.236,39.639-17.75,61.42
		l-3.926,0.315c-6.179-8.691-13.51-16.965-21.992-24.819c-7.228-6.598-11.941-10.159-14.139-10.682
		c-1.468-0.313-1.257-7.854,0.627-22.62l3.299-22.148c6.179-8.484,16.494-18.065,30.946-28.747
		c13.824-10.263,23.772-16.075,29.846-17.437c3.875-0.838,8.851-0.367,14.924,1.414C416.479,184.131,421.82,186.436,427.056,189.472
		"/>
	<path fill="#C8C9CA" d="M285.049,676.438l-12.88,1.1l2.513-6.599l12.096-3.612l17.75,1.259
		C297.303,672.877,290.81,675.496,285.049,676.438"/>
	<path fill="#EEEEEF" d="M247.35,613.448l7.697,23.404l-13.352,0.313c-7.959-0.209-13.772-1.256-17.438-3.142l10.21-10.055
		C240.123,618.839,244.418,615.333,247.35,613.448"/>
	<path fill="#C8C9CA" d="M264,647.534l22.307,20.104l-19.321,6.128c-8.063,2.094-14.714,3.089-19.95,2.984
		c0.629-2.303,3.351-7.437,8.169-15.395L264,647.534"/>
	<path fill="#A1D6D3" d="M259.131,638.737c-10.682-8.272-14.976-15.864-12.882-22.778c1.153-3.979,5.761-9.111,13.824-15.394
		c5.759-4.504,13.247-11.414,22.463-20.733c9.425-9.529,15.132-16.075,17.123-19.637c1.99-3.456,5.08-12.097,9.269-25.921
		c4.189-13.299,6.492-21.677,6.911-25.134l19.479-5.182c14.661-2.725,26.181-2.307,34.559,1.255
		c13.405,5.655,33.721,16.965,60.949,33.93l-5.498,18.381c-4.713,14.559-9.635,27.594-14.769,39.114
		c-5.024,11.414-14.605,22.095-28.744,32.045c-7.96,5.551-19.95,13.194-35.973,22.937c-10.473,7.436-18.484,12.146-24.035,14.135
		c-6.702,2.306-15.708,3.248-27.019,2.83c-10.263-0.313-18.85-4.242-25.762-11.782C264.21,651.461,260.912,645.439,259.131,638.737"
		/>
	<path fill="#8BBAB7" d="M425.327,557.524c-4.713,14.559-9.635,27.594-14.769,39.114c-5.024,11.414-14.605,22.095-28.744,32.045
		c-7.96,5.551-19.95,13.194-35.973,22.937c-10.473,7.436-18.484,12.146-24.035,14.135c-6.702,2.306-15.708,3.248-27.019,2.83
		c-9.948-0.313-18.274-3.979-24.976-10.996c-4.817-5.134-8.222-11.05-10.211-17.751c13.195,5.237,27.333,6.072,42.414,2.511
		c15.289-3.665,28.798-11.254,40.527-22.771c28.38-27.857,37.125-66.136,26.234-114.83l1.099,0.469
		c13.405,5.655,33.721,16.965,60.949,33.93L425.327,557.524"/>
	<path fill="#FFFFFF" d="M202.895,342.945c0.732,2.094,0.68,4.084-0.158,5.97c-0.732,1.885-1.937,3.088-3.612,3.612
		c-1.78,0.523-3.509,0.158-5.184-1.099c-1.676-1.153-2.828-2.775-3.457-4.871c-0.628-2.094-0.576-4.083,0.158-5.968
		c0.837-1.885,2.094-3.09,3.77-3.613c1.779-0.523,3.456-0.209,5.026,0.942C201.114,339.069,202.265,340.746,202.895,342.945"/>
	<path fill="#A1D6D3" d="M324.008,461.388c14.137-12.67,33.616-17.646,58.436-14.923c25.446,2.932,42.414,13.038,50.896,30.319
		c7.957,16.335,12.617,30.212,13.979,41.626c1.048,9.008-0.052,15.918-3.297,20.733c-1.78,2.516-5.445,3.142-10.997,1.886
		l-7.855-2.827l-21.521-14.138c-17.278-10.994-28.746-17.331-34.4-19.007c-6.284-1.885-14.975-1.885-26.077,0
		c-9.216,1.572-18.589,4.031-28.118,7.381c-9.739-3.771-12.881-11.464-9.425-23.09C308.561,479.295,314.687,469.975,324.008,461.388
		"/>
	<path fill="#8BBAB7" d="M425.17,538.202c-28.065-19.371-46.707-30.421-55.921-33.145c-6.284-1.885-14.975-1.885-26.077,0
		c-9.216,1.572-18.589,4.031-28.118,7.381c-5.131-1.886-6.021-5.022-2.671-9.426c3.351-4.291,8.693-7.328,16.022-9.108
		c18.956-4.607,39.953-3.403,62.992,3.613l17.124,4.24c4.083,0.212,6.229-2.094,6.438-6.911c0.524-12.358,2.097-20.474,4.713-24.348
		c3.248-4.817,7.804-2.725,13.668,6.284c8.481,17.382,13.351,30.576,14.605,39.584c1.26,8.481-0.417,16.074-5.024,22.775
		c-1.885,2.828-4.713,3.982-8.482,3.457C431.401,542.077,428.311,540.611,425.17,538.202"/>
	<path fill="#EEEEEF" d="M506.54,740.374c-0.521-3.981,3.145-7.595,10.997-10.84c7.645-3.142,15.132-4.349,22.464-3.613
		c9.424,0.838,16.494,2.094,21.204,3.771c7.227,2.618,11.417,6.754,12.567,12.408c1.26,5.863-0.838,12.097-6.28,18.696
		c-4.925,5.863-9.688,9.32-14.298,10.364c-4.504,1.05-13.037-2.25-25.605-9.896C514.394,753.305,507.379,746.342,506.54,740.374"/>
	<path fill="#C8C9CA" d="M544.24,741.63c-8.166-7.015-17.487-10.841-27.963-11.467c8.065-3.665,15.972-5.081,23.724-4.242
		c9.424,0.838,16.494,2.094,21.204,3.771c7.227,2.618,11.417,6.754,12.567,12.408c0.942,4.399-0.104,9.164-3.144,14.294
		c-2.615,4.402-6.072,8.117-10.364,11.156C557.646,757.283,552.305,748.645,544.24,741.63"/>
	<path fill="#915E82" d="M558.851,622.399l11.779,0.945c7.122,0.835,10.997,1.568,11.626,2.198
		c0.733,0.626,2.566,7.331,5.498,20.104c2.933,12.882,4.292,20.422,4.083,22.623l-6.44,6.124l-8.01,4.869
		c-1.256,0-6.598-2.041-16.021-6.125c-9.529-4.189-14.871-6.913-16.025-8.169c-0.939-1.151-1.885-6.284-2.824-15.396
		c-0.945-8.691-1.203-13.612-0.786-14.769c0.313-0.834,3.089-3.032,8.326-6.594L558.851,622.399"/>
	<path fill="#7F5072" d="M558.851,622.399l11.779,0.945c7.122,0.835,10.997,1.568,11.626,2.198
		c0.733,0.626,2.566,7.331,5.498,20.104c2.933,12.882,4.292,20.422,4.083,22.623l-6.44,6.124l-8.01,4.869
		c-1.256,0-6.598-2.041-16.021-6.125c-9.529-4.189-14.871-6.913-16.025-8.169c-1.252-1.571-2.354-8.482-3.297-20.737l4.083-13.508
		C552.409,626.33,556.651,623.555,558.851,622.399"/>
	<path fill="#7F5072" d="M626.239,515.583c3.145,1.885,7.069,5.133,11.783,9.736c5.133,4.82,7.957,8.171,8.481,10.056
		c0.629,2.306,0.365,14.817-0.786,37.543c-1.15,23.145-2.354,35.136-3.613,35.975l-12.408,2.983l-12.568,1.412
		c-1.464-0.208-6.963-6.44-16.492-18.689c-9.32-12.047-14.398-19.166-15.239-21.364c-0.729-1.991-1.885-8.538-3.454-19.636
		c-1.57-11.102-2.2-17.333-1.885-18.692c0.313-1.469,3.193-5.761,8.639-12.883c5.552-7.227,8.957-10.997,10.212-11.31l12.565,0.786
		C618.7,512.547,623.624,513.906,626.239,515.583"/>
	<path fill="#7F5072" d="M524.135,445.992l12.252-0.471c6.811,0.315,10.788,0.891,11.939,1.729
		c1.256,0.941,3.195,7.065,5.812,18.377c2.619,11.313,3.613,17.962,2.984,19.952c-0.522,1.779-4.292,2.67-11.312,2.67l-14.293-1.729
		c-2.407-0.839-6.231-5.078-11.47-12.723c-5.026-7.437-7.485-11.887-7.381-13.354c0.104-1.467,1.517-4.03,4.24-7.695
		C519.84,448.768,522.25,446.517,524.135,445.992"/>
	<path fill="#0D131A" d="M472.138,708.17l1.416,4.712c-3.245,2.099-8.17,7.752-14.767,16.965
		c-6.599,9.321-9.218,14.348-7.856,15.083l17.281,0.471c11.729-0.838,23.931-2.775,36.604-5.813l1.252,4.24
		c-12.564,3.877-25.708,6.389-39.425,7.54c-14.036,1.047-21.889,0.052-23.564-2.984c-1.571-2.619,2.197-9.686,11.311-21.204
		C462.769,716.704,468.682,710.368,472.138,708.17"/>
	<path fill="#0D131A" d="M576.443,742.572c4.608,3.248,13.092,5.603,25.447,7.066c11.626,1.468,17.964,1.468,19.007,0
		c0.736-1.15-0.05-4.396-2.354-9.737l-8.325-14.768l2.983-2.042l8.326,11.939c2.827,4.396,4.815,8.271,5.972,11.623
		c0.938,3.039,1.15,5.29,0.626,6.754c-0.626,1.677-2.198,2.727-4.713,3.144l-22.937-1.259c-12.458-1.78-21.205-4.396-26.229-7.853
		L576.443,742.572"/>
	<path fill="#0D131A" d="M739.971,481.34c6.387-5.551,10.576-7.595,12.569-6.128c1.673,1.468,2.247,6.754,1.725,15.866
		c-1.779,30.473-8.481,59.429-20.107,86.867c-15.706,36.862-37.805,62.519-66.287,76.973l-0.313-6.281
		c26.285-17.177,46.495-42.68,60.634-76.505c10.684-25.655,16.494-51.313,17.438-76.971c0.104-4.817-0.368-7.173-1.412-7.067
		l-8.173,5.183c-11.519,7.748-25.444,13.721-41.782,17.91c-19.479,4.918-34.768,4.813-45.869-0.315l-2.671-7.225
		c12.774,5.968,29.377,6.072,49.8,0.313C713.842,498.826,728.661,491.287,739.971,481.34"/>
	<path fill="#0D131A" d="M603.62,386.301c-0.942-2.41-2.407-3.353-4.396-2.827c-2.412,0.628-11.156,4.135-26.235,10.524
		l-21.993,9.425l-6.281-5.813c11.519-5.131,23.405-9.688,35.658-13.667c6.284-2.094,12.2-3.927,17.751-5.497
		c3.981-1.257,7.174,0.157,9.581,4.241c2.094,3.562,2.935,7.54,2.515,11.938l-6.125,54.353l-5.813-5.653l5.813-50.113
		C604.511,390.594,604.353,388.291,603.62,386.301"/>
	<path fill="#0D131A" d="M340.658,25.476c11.835,4.713,16.6,9.896,14.295,15.551l-12.567,13.195
		c-7.645,7.75-11.206,12.567-10.682,14.452l3.299,7.854l5.813,15.708c1.675,4.923,3.194,11.416,4.556,19.479l2.042,15.866
		l-5.498,5.184l-3.299-18.535l-5.812-21.679L326.049,72.6c-1.047-3.141-1.31-5.759-0.785-7.853
		c0.523-2.619,4.135-7.279,10.839-13.98l10.682-11.153c0.627-1.572-0.367-3.403-2.986-5.499c-2.723-2.094-5.498-3.194-8.326-3.299
		c-8.168-0.314-27.018,5.97-56.551,18.85c-28.379,12.358-46.288,21.626-53.723,27.805c-5.655,4.712-8.116,5.812-7.382,3.299
		l2.828-5.342l2.198-33.93c-0.732-0.942-2.67-1.57-5.812-1.885l-6.754,0.628c-8.169,5.235-18.956,22.463-32.361,51.682
		c-6.806,14.765-13.456,30.264-19.949,46.497c-1.572,3.038-2.462,3.928-2.671,2.671l1.57-8.797l3.457-13.823
		c-10.054-18.222-16.443-28.381-19.165-30.476c-1.257-0.313-3.824,0.734-7.698,3.142c-3.979,2.409-6.283,4.346-6.912,5.813
		c-4.712,10.68-5.288,31.206-1.727,61.576c3.455,30.057,9.739,59.484,18.85,88.282v5.184c-0.523,1.466-1.361,1.728-2.513,0.786
		c-8.065-14.767-14.976-41.261-20.736-79.485c-5.864-39.586-6.179-65.452-0.942-77.6c0.942-2.304,4.712-5.917,11.31-10.839
		c6.912-5.236,11.416-7.279,13.51-6.126c1.885,1.047,4.923,5.445,9.112,13.195l10.21,19.479
		c16.127-43.356,30.527-69.118,43.198-77.287c2.2-1.466,6.336-1.885,12.41-1.255c6.179,0.523,9.373,1.937,9.582,4.239
		c0.315,2.723,0.21,8.378-0.313,16.966l-1.101,15.866c15.604-11.833,37.806-22.934,66.605-33.302
		C320.186,27.309,335.736,23.59,340.658,25.476"/>
	<path fill="#0D131A" d="M162.837,589.568l2.356,1.887c-3.561,4.295-6.178,6.389-7.854,6.283c-1.78-0.209-3.718-5.445-5.812-15.71
		c-2.408-11.936-2.879-24.03-1.414-36.286l3.455,8.013c-0.838,10.159-0.419,19.531,1.257,28.118
		c1.466,7.119,2.775,10.681,3.927,10.681C159.695,592.554,161.057,591.559,162.837,589.568"/>
	<path fill="#0D131A" d="M207.449,572.918l4.714-0.156c-4.085,9.532-8.484,17.438-13.196,23.722
		c-4.189,5.552-7.121,8.114-8.796,7.696c-1.048-0.315-2.304-2.25-3.771-5.812c-1.675-4.19-2.669-8.591-2.984-13.194l3.142-4.087
		c0.313,4.922,1.047,9.164,2.198,12.726c0.944,2.827,1.676,4.292,2.2,4.396c0.942,0.104,2.932-1.83,5.969-5.813
		C200.695,587.268,204.204,580.773,207.449,572.918"/>
	<path fill="#0D131A" d="M154.198,486.835l5.968,1.572c-8.587,32.986-9.058,55.658-1.414,68.019
		c0.838,1.572,2.043,3.141,3.613,4.713c1.57,4.921,5.027,8.273,10.367,10.054l16.181-0.473c11.101,1.677,20.421,0.368,27.961-3.927
		c7.121-4.086,14.085-11.675,20.891-22.776c7.227-11.835,15.29-20.316,24.192-25.45l11.939-4.396l0.942,4.71
		c-4.295,1.05-8.64,3.144-13.038,6.287c-7.959,5.548-15.186,13.665-21.679,24.346c-7.749,12.777-15.866,20.734-24.348,23.878
		c-9.425,3.563-23.615,3.193-42.57-1.099c-8.272-1.886-14.504-6.337-18.693-13.354c-3.979-6.489-6.231-15.915-6.754-28.274
		C147.024,516.212,149.171,501.602,154.198,486.835"/>
	<path fill="#0D131A" d="M161.109,564.122l3.142,1.568l1.257,20.108c0.838,9.634,1.727,14.503,2.669,14.61
		c1.676,0.208,5.131-3.405,10.369-10.842c5.236-7.644,8.378-13.717,9.425-18.22l5.34-1.103c-1.989,5.445-5.916,12.412-11.781,20.895
		c-6.597,9.425-11.362,13.98-14.295,13.667C163.152,604.284,161.109,590.724,161.109,564.122"/>
	<path fill="#0D131A" d="M157.339,549.354c0.315-1.779,0.786-2.774,1.414-2.982c0.629-0.209,1.205,0.941,1.728,3.453
		c1.151,5.763,2.2,9.585,3.142,11.47c2.828,5.655,7.436,8.69,13.823,9.111c7.227,0.521,13.72-1.571,19.479-6.284l8.482-9.741
		c1.153-1.464,2.042-1.78,2.671-0.939c0.523,0.836,0.523,1.781,0,2.825c-7.959,13.72-18.537,20.108-31.731,19.166
		c-8.378-0.524-14.033-4.661-16.965-12.409C157.497,558.311,156.815,553.755,157.339,549.354"/>
	<path fill="#0D131A" d="M262.115,578.104c-1.151,7.96-1.36,14.871-0.627,20.734l-4.556,4.24c-2.198-9.214-2.198-19.687,0-31.416
		c3.142-17.281,10.945-29.848,23.406-37.699l2.514,3.927c-4.608,2.827-8.797,7.748-12.567,14.768
		C266.2,560.301,263.477,568.783,262.115,578.104"/>
	<path fill="#0D131A" d="M356.21,699.059l22.463-0.785v4.556l-21.836,0.786C357.257,701.521,357.048,700.004,356.21,699.059"/>
	<path fill="#0D131A" d="M374.589,701.103c1.257-3.144,2.356-5.288,3.299-6.439c1.989-2.515,5.446-5.029,10.367-7.54l3.299,0.786
		c-2.513,1.252-5.288,3.558-8.324,6.91c-2.934,3.245-3.98,5.186-3.142,5.812l13.038,4.083l13.194,2.045
		c2.095-1.989,3.142-6.392,3.142-13.194h3.613l0.156,7.54c-0.209,4.813-1.15,8.062-2.824,9.737l-15.239-0.786
		c-6.806-1.885-13.509-4.292-20.107-7.227L374.589,701.103"/>
	<path fill="#0D131A" d="M310.498,697.486l-1.414,4.241c-7.332,2.41-16.913,4.296-28.748,5.655l-19.478-0.626
		c-0.942-1.781,1.047-6.284,5.97-13.512c5.025-7.331,9.896-12.726,14.608-16.179l16.179-5.813c3.143,0.835,6.651,2.983,10.525,6.441
		c3.875,3.35,6.545,6.697,8.012,10.051l-2.042,3.457c-7.958-10.473-14.031-15.97-18.22-16.493
		c-2.828-0.418-6.756,1.415-11.783,5.498c-4.606,3.771-8.639,8.117-12.094,13.038c-3.562,5.234-4.923,8.587-4.085,10.055l1.57,0.474
		C277.98,703.773,291.648,701.677,310.498,697.486"/>
	<path fill="#0D131A" d="M310.812,712.412c0.418,1.569,1.204,2.354,2.356,2.354c5.759,0,13.404-1.047,22.935-3.141
		c10.576-2.41,17.121-4.869,19.636-7.384c0.523-0.524,0.68-1.151,0.471-1.885c-0.734-3.036-2.462-6.075-5.184-9.112
		c-2.934-3.559-6.285-6.18-10.054-7.855c-6.807-2.929-13.771-2.512-20.893,1.26c-2.617,1.361-5.026,5.133-7.225,11.31
		C310.655,704.139,309.975,708.956,310.812,712.412 M318.353,683.352c3.979-2.097,8.22-3.248,12.724-3.455
		c4.504-0.21,8.693,0.521,12.567,2.197c4.189,1.885,7.802,4.819,10.838,8.798c2.619,3.454,4.398,7.017,5.34,10.682
		c0.314,1.885-0.104,3.562-1.256,5.024c-2.933,3.666-10.734,7.123-23.405,10.371c-11.835,2.93-20.422,4.135-25.762,3.61
		c-4.084-0.522-5.027-6.073-2.828-16.652C308.874,693.143,312.802,686.281,318.353,683.352"/>
	<path fill="#0D131A" d="M252.377,483.064l3.612-1.726c5.655,2.198,13.249,15.185,22.778,38.955
		c9.216,22.623,14.137,39.011,14.767,49.166l-4.871,3.457c-1.361-7.016-5.655-20.893-12.88-41.626
		C266.252,504.271,258.451,488.198,252.377,483.064"/>
	<path fill="#0D131A" d="M460.202,693.717l5.024,4.871c-18.221,2.619-39.741,1.047-64.563-4.712
		c-29.742-6.81-52.624-17.803-68.646-32.99l5.027-3.454c16.337,13.824,38.329,24.035,65.975,30.631
		C425.431,693.403,444.493,695.288,460.202,693.717"/>
	<path fill="#0D131A" d="M445.748,546.842c10.579-21.675,18.851-35.134,24.817-40.371c2.727-2.511,4.66-3.665,5.814-3.457
		c1.047,0.107,0.891,1.104-0.473,2.987l-7.54,11.31c-5.343,8.379-10.106,16.965-14.294,25.761
		c-13.403,27.439-19.949,52.68-19.637,75.72c0.209,16.647,3.248,31.885,9.111,45.712c6.073,14.239,15.342,27.541,27.803,39.898
		l3.3,3.297l2.354,4.086c1.677,6.493,5.186,12.2,10.527,17.121c5.442,5.236,12.199,8.902,20.265,10.997l-0.785,4.242
		c-10.267-3.039-18.537-7.539-24.821-13.512c-6.283-5.971-9.999-12.725-11.152-20.265c-14.033-11.729-24.558-24.241-31.572-37.543
		c-8.064-15.501-12.411-33.613-13.041-54.353C425.8,598.473,432.24,574.594,445.748,546.842"/>
	<path fill="#0D131A" d="M503.243,739.901c0.209-5.761,4.974-10.42,14.294-13.98c8.378-3.248,16.756-4.504,25.134-3.771
		c8.17,0.733,15.654,2.724,22.464,5.969c7.644,3.77,11.991,8.169,13.038,13.193c1.256,6.393-1.256,13.407-7.543,21.052
		c-5.655,7.015-11.15,11.102-16.492,12.253c-7.54,1.676-17.959-2.146-31.259-11.467
		C509.685,753.935,503.139,746.183,503.243,739.901 M542.202,727.333c-5.238-0.522-11.206,0.159-17.911,2.044
		c-6.91,1.886-11.678,4.188-14.294,6.911c-1.26,1.464-1.832,2.775-1.729,3.927c0.63,4.295,5.499,9.584,14.61,15.865
		c5.551,3.771,11.676,6.81,18.377,9.112c5.864,1.988,9.896,2.723,12.096,2.197c4.504-1.044,8.903-3.979,13.195-8.796
		c4.716-5.445,6.545-10.785,5.498-16.021c-1.047-5.133-4.448-8.903-10.208-11.311C557.646,729.481,551.102,728.174,542.202,727.333"
		/>
	<path fill="#0D131A" d="M258.032,322.368c-4.293-10.997-9.95-18.904-16.966-23.72c-5.549,1.047-12.513,4.556-20.892,10.524
		c-8.064,5.55-14.61,11.259-19.635,17.123c-5.238,6.285-10.578,14.296-16.024,24.035c-3.979,7.121-7.069,13.352-9.267,18.693
		c12.461-0.734,30.264-5.131,53.408-13.196c21.678-7.645,32.831-12.619,33.458-14.923
		C262.953,337.658,261.591,331.478,258.032,322.368 M241.38,293.463l8.326-0.628c0.419,0.942-1.257,2.146-5.027,3.612
		c11.206,7.436,18.17,19.793,20.893,37.073l0.471,9.11c-0.314,1.153-1.466,2.304-3.457,3.457
		c-16.65,9.321-35.082,16.389-55.293,21.206c-11.206,2.617-22.148,4.398-32.831,5.34c-1.781,2.619-3.09,3.822-3.927,3.613
		c-0.838-0.104-0.733-1.885,0.313-5.34c5.655-19.06,13.876-35.03,24.663-47.912C207.974,308.02,223.263,298.175,241.38,293.463"/>
	<path fill="#0D131A" d="M150.585,321.267c4.398-9.529,7.645-15.551,9.74-18.064c1.989-2.514,3.298-3.509,3.926-2.985
		c0.628,0.419,0.157,1.938-1.414,4.556c-1.57,2.619-4.346,8.326-8.326,17.123l-7.855,17.751c-1.151,3.036-2.042,4.397-2.669,4.083
		c-0.523-0.313-0.629-1.832-0.314-4.555C143.882,336.662,146.186,330.692,150.585,321.267"/>
	<path fill="#0D131A" d="M91.363,435.468c-0.315-2.094-0.209-4.451,0.314-7.067c0.419-3.144,1.257-5.444,2.513-6.912
		c1.257-1.678,2.461-2.25,3.613-1.727c1.257,0.627,1.362,1.727,0.315,3.297c-1.885,2.516-3.353,7.279-4.399,14.294
		c-0.208,1.469-0.627,1.781-1.255,0.946C91.834,437.562,91.468,436.622,91.363,435.468"/>
	<path fill="#0D131A" d="M229.756,434.527l4.399-2.2c1.047,2.094,5.288,6.181,12.724,12.253c7.33,5.968,11.886,9.11,13.666,9.425
		c1.257-1.256,3.351-6.386,6.285-15.395c2.827-9.007,4.241-15.029,4.241-18.063l4.712-0.473c0,3.353-1.414,10.575-4.241,21.677
		c-3.038,12.253-5.709,18.642-8.013,19.166c-2.198,0.521-8.168-3.248-17.908-11.311
		C236.301,441.964,231.013,436.936,229.756,434.527"/>
	<path fill="#0D131A" d="M206.665,318.283l2.2-2.984c6.598,2.513,11.781,6.23,15.551,11.153c6.179,8.063,7.801,18.693,4.869,31.888
		l-2.984,0.628c1.57-12.357-0.419-22.359-5.97-30.003C216.77,323.938,212.215,320.376,206.665,318.283"/>
	<path fill="#0D131A" d="M557.281,74.958l30.945,2.513c2.303,1.151,4.813,4.45,7.539,9.896c2.407,5.131,3.716,9.164,3.928,12.096
		c0.209,2.619-0.421,4.556-1.886,5.812c-1.359,1.153-3.878,1.991-7.543,2.514c-16.124,2.409-26.073,4.556-29.844,6.441
		c7.433,19.582,12.147,34.663,14.138,45.239c1.151,6.598,1.78,14.663,1.885,24.192c0.104,8.693-0.209,16.075-0.941,22.15
		l24.191,1.885c10.89,1.675,16.753,3.56,17.595,5.655l2.354,9.425c0.63,4.083,0.63,7.069,0,8.954l-2.354,3.926l-6.285,1.414
		c-20.421,1.991-32.83,4.923-37.229,8.797c-1.362,1.153-7.227,8.535-17.594,22.148l-17.435,24.35
		c-6.705,9.214-11.73,15.289-15.08,18.222c-7.646,6.702-17.072,11.623-28.277,14.765c-10.89,3.143-25.079,4.975-42.572,5.499
		l-28.743,0.942c-20.734,1.047-35.083,2.723-43.042,5.027l-8.326,0.942c-1.676-0.523-0.263-2.095,4.241-4.712
		c6.597-3.77,31.834-6.545,75.717-8.326c19.163-0.942,33.407-2.984,42.726-6.126c7.751-2.619,15.813-7.646,24.191-15.081
		c3.245-2.828,7.854-8.22,13.824-16.179l16.179-21.992c9.216-12.358,15.918-20.37,20.107-24.035
		c2.824-2.408,10.421-4.817,22.776-7.226l20.266-3.613c1.359-0.419,1.621-2.827,0.785-7.225c-0.732-4.084-1.623-6.755-2.671-8.011
		c-0.732-1.048-5.919-2.043-15.553-2.985c-9.842-1.047-16.86-1.204-21.048-0.471c-2.936,5.027-4.611,7.068-5.028,6.126
		c-0.313-0.732,0.104-4.031,1.259-9.896c0.626-3.247,0.626-10,0-20.264c-0.733-10.682-1.836-19.898-3.301-27.647
		c-1.151-6.074-3.718-15.552-7.696-28.433l-5.342-18.537c0-2.617,5.863-5.236,17.594-7.854c12.148-2.828,18.431-4.555,18.852-5.184
		c0.838-1.466,0.314-4.713-1.569-9.74c-1.885-4.921-3.457-7.645-4.715-8.168l-26.863-0.942l-39.271-0.628
		c-18.533-0.629-37.386,2.409-56.549,9.11c-10.367,3.561-21.729,8.745-34.091,15.551c-5.441,3.038-8.062,3.404-7.853,1.101
		l12.409-22.463c0.841-1.257,0.785-2.671-0.154-4.241c-0.945-1.467-2.253-2.566-3.929-3.3c-2.616-1.36-5.604-2.094-8.952-2.198
		c-3.666-0.104-7.123,0.576-10.371,2.042c-7.643,3.666-24.138,18.38-49.479,44.142c-27.542,28.066-45.135,49.639-52.781,64.719
		c-1.99,3.77-3.875,12.882-5.655,27.334l-3.927,34.715c-1.466,11.517-2.934,17.174-4.399,16.963
		c-1.361-0.208-1.885-6.022-1.57-17.436c0.208-10.682,0.994-22.096,2.356-34.244c1.78-15.395,3.926-25.553,6.44-30.476
		c7.749-15.184,25.867-37.124,54.352-65.818c26.6-26.81,44.246-42.257,52.939-46.341c5.444-2.617,11.31-3.456,17.591-2.513
		c5.551,0.838,9.793,2.723,12.725,5.655c1.677,1.78,2.516,3.561,2.516,5.342c0,1.675-1.051,4.606-3.145,8.795l-5.342,10.369
		c14.662-7.123,26.445-12.2,35.348-15.238c18.116-6.389,34.611-9.32,49.482-8.797L557.281,74.958"/>
	<path fill="#5892BF" d="M332.019,270.841c6.597,2.829,13.77,8.17,21.521,16.024c7.436,7.54,12.411,14.294,14.923,20.264
		l-2.042,0.471l-1.728,0.627c-6.702-12.669-17.542-23.509-32.518-32.515L332.019,270.841"/>
	<path fill="#0D131A" d="M510.153,168.423l-4.087-7.854c-5.653-11.101-10.419-18.589-14.294-22.463
		c-6.488-6.493-14.605-9.269-24.345-8.326c-12.673,1.151-34.354,8.85-65.035,23.091c-29.323,13.72-46.603,23.564-51.837,29.532
		c-4.399,5.237-8.484,19.217-12.254,41.942c-3.247,19.373-4.921,34.874-5.026,46.497c-0.106,5.657-0.734,8.745-1.885,9.269
		c-1.257,0.629-1.939-2.094-2.043-8.168c-0.313-10.473,1.101-26.181,4.241-47.126c3.562-24.504,7.75-39.532,12.567-45.083
		c5.865-6.912,24.244-17.385,55.137-31.418c31.417-14.346,53.515-22.096,66.289-23.248c10.893-1.048,20.107,2.042,27.647,9.267
		c4.713,4.608,10.002,12.621,15.866,24.035l3.926,7.854c5.342,9.739,8.379,22.253,9.112,37.543
		c0.629,15.395-1.36,27.751-5.972,37.072l-4.239,8.955c-4.086,9.214-8.273,16.179-12.565,20.891
		c-6.18,6.912-14.141,11.468-23.879,13.668l-41.313,9.425l-68.801,15.707c-7.332,1.153-10.211,0.943-8.641-0.627
		c1.57-1.677,4.556-2.88,8.954-3.614l67.547-15.236l41.313-9.583c8.796-1.989,15.762-5.917,20.892-11.781
		c3.039-3.562,6.649-9.949,10.84-19.165l4.24-9.268c3.981-8.063,5.971-18.641,5.971-31.731
		C518.479,191.934,515.704,178.581,510.153,168.423"/>
	<path fill="#0D131A" d="M416.845,186.332c-8.587-3.561-15.395-4.765-20.42-3.614c-5.865,1.151-15.605,6.808-29.219,16.965
		c-14.347,10.578-24.558,20.107-30.631,28.591l-0.315-5.97c6.074-8.274,16.022-17.227,29.847-26.863
		c13.091-9.006,22.987-14.241,29.688-15.708c5.551-1.153,12.88,0.052,21.992,3.612c8.484,3.351,14.817,7.123,19.009,11.313
		c5.026,5.025,10.576,12.671,16.652,22.935c7.747,13.09,10.992,22.935,9.737,29.532c-4.504,22.515-13.091,37.595-25.764,45.241
		l-5.655-0.315c7.122-4.293,13.508-11.572,19.163-21.835c4.716-8.378,7.804-16.285,9.271-23.721
		c1.044-5.655-2.045-14.661-9.271-27.018c-5.968-10.159-11.414-17.698-16.336-22.621
		C430.721,192.98,424.805,189.472,416.845,186.332"/>
	<path fill="#0D131A" d="M583.198,264.717c3.353,4.712,5.236,9.79,5.654,15.236c0.629,7.436-6.598,23.406-21.678,47.91
		c-13.194,21.156-24.4,36.969-33.616,47.441c1.885,4.293,5.76,9.74,11.626,16.337c9.947,11.208,24.191,24.034,42.727,38.484
		c21.886,16.968,37.702,32.257,47.439,45.872c10.473,14.45,21.416,36.86,32.831,67.232c3.145,8.479,5.707,18.585,7.699,30.315
		c1.777,10.264,2.88,20.422,3.297,30.477c1.151,25.344-4.712,49.273-17.594,71.789c-11.311,19.789-25.761,35.134-43.356,46.025
		l-9.738,10.21c-4.083,3.979-9.058,7.067-14.924,9.266c-4.922,1.78-11.57,3.248-19.948,4.399c-0.421-2.303-0.525-3.874-0.316-4.713
		c8.276-0.838,14.927-2.406,19.952-4.712c4.295-1.989,8.534-5.081,12.725-9.27l9.112-8.639
		c29.423-21.994,47.438-49.852,54.035-83.572c5.233-26.807,3.036-54.4-6.598-82.782c-10.367-30.371-21.048-53.673-32.045-69.902
		c-10.788-15.605-26.706-31.575-47.758-47.911c-30.264-23.666-48.641-41.785-55.137-54.352l-6.281,5.184l-6.598,2.356
		c-6.389,0.209-14.662-3.247-24.821-10.367c-9.946-6.808-19.427-15.499-28.431-26.077c-2.725-3.142-3.51-5.027-2.355-5.655
		c1.148-0.734,3.351,0.419,6.596,3.455c9.425,8.693,17.28,15.238,23.564,19.636c11.414,7.854,20.422,11.153,27.017,9.896
		c6.913-1.36,20.057-16.913,39.432-46.653c18.954-29.219,27.961-46.603,27.016-52.153c-0.313-3.142-1.147-6.178-2.512-9.11
		c-1.885-4.712-4.291-6.86-7.227-6.441c-3.457,0.419-8.431,1.729-14.921,3.927L549.269,271l5.498-8.326l5.655-2.042l11.623-2.827
		C575.923,257.282,579.638,259.584,583.198,264.717"/>
	<path fill="#0D131A" d="M302.016,668.271l5.184,1.255c-4.084,2.41-9.688,4.923-16.808,7.541l-15.551,4.553l-5.655-0.626
		c-0.525-0.418-0.682-1.412-0.471-2.984l2.198-4.556l1.885-3.297l3.77,1.411l-0.784,1.257l-0.471,2.2
		c0.104,1.359,3.874,1.045,11.31-0.945C293.638,672.194,298.769,670.262,302.016,668.271"/>
	<path fill="#0D131A" d="M221.901,635.438c-0.419-1.988,2.043-5.603,7.383-10.84c5.446-5.234,11.102-9.475,16.965-12.723
		l0.629,4.398l-11.468,9.109c-4.921,4.61-6.964,7.174-6.126,7.699l10.211,1.412l13.038,0.473l5.812,5.025l-20.263-0.63
		C227.609,638.529,222.216,637.219,221.901,635.438"/>
	<path fill="#0D131A" d="M244.835,678.482c-1.151-1.677,1.153-7.123,6.912-16.339c3.457-5.655,7.017-10.893,10.682-15.709
		l2.671,3.142c-1.466,1.988-4.033,6.23-7.698,12.725c-3.979,7.016-5.707,10.681-5.184,10.997l13.981-2.358l19.479-5.185l3.77,2.987
		c-10.368,3.77-20.002,6.648-28.904,8.639L244.835,678.482"/>
	<path fill="#0D131A" d="M252.219,610.464c-2.827,3.141-4.241,6.177-4.241,9.112c0,2.405,1.414,5.494,4.241,9.265
		c2.723,3.457,5.499,6.128,8.326,8.013l1.729,1.412l0.157,2.516c0.314,3.244,3.142,7.748,8.482,13.511
		c7.121,7.749,15.133,11.779,24.035,12.096c10.786,0.418,19.373-0.523,25.762-2.83c5.655-1.989,13.614-6.598,23.877-13.821
		l17.279-10.996c12.567-7.645,21.521-13.721,26.861-18.224c9.216-7.645,15.813-15.915,19.794-24.817
		c4.918-11.205,9.635-23.826,14.136-37.859l5.185-17.907l5.499,3.771l-5.815,18.692c-4.813,14.453-9.736,27.439-14.764,38.958
		c-4.19,9.32-10.784,17.382-19.792,24.191l-26.861,16.805l-19.636,12.569c-10.472,7.331-18.378,11.938-23.72,13.824
		c-6.389,2.305-15.395,3.243-27.019,2.826c-10.367-0.418-19.269-4.347-26.705-11.781c-5.864-5.864-9.792-12.462-11.781-19.793
		c-5.34-3.351-9.11-6.807-11.31-10.367c-1.676-2.933-2.514-6.281-2.514-10.051c0-3.982,1.205-7.647,3.613-10.997
		c1.885-2.516,4.923-5.446,9.112-8.8c5.968-4.607,13.403-11.31,22.305-20.107c9.32-9.108,14.923-15.341,16.808-18.69
		c1.885-3.456,5.131-12.199,9.74-26.234c4.399-13.613,6.808-22.043,7.227-25.291h5.968c-0.523,3.665-2.879,12.149-7.068,25.45
		c-4.293,14.032-7.436,22.827-9.425,26.39c-2.094,3.77-8.011,10.576-17.751,20.422l-22.778,20.891L252.219,610.464"/>
	<path fill="#0D131A" d="M191.113,368.708c-3.352-2.515-5.969-5.708-7.854-9.582c-1.676-3.562-2.252-6.389-1.729-8.484l2.984-1.414
		c-0.313,1.466,0.577,4.347,2.671,8.641c2.408,4.712,5.027,8.116,7.854,10.211L191.113,368.708"/>
	<path fill="#0D131A" d="M431.454,478.04c-3.145-5.551-3.613-7.384-1.412-5.499c2.094,1.781,4.501,4.765,7.224,8.952
		c3.875,6.181,7.279,14.927,10.211,26.235c3.875,14.662,3.718,25.026-0.47,31.104c-2.621,3.874-6.023,6.075-10.211,6.598
		c-3.771,0.521-9.425-1.781-16.965-6.914c-26.497-18.641-43.566-29.061-51.212-31.259l-27.803,1.571l-21.679,5.183
		c-9.529,2.306-15.289-2.146-17.28-13.352c-1.151-6.807,1.205-14.924,7.07-24.349c4.502-7.331,8.482-12.147,11.938-14.454
		c3.875-2.614,6.389-3.817,7.54-3.609c1.153,0.209,0.158,1.83-2.984,4.869c-12.882,12.673-18.537,24.087-16.965,34.242
		c0.523,3.874,2.042,6.81,4.554,8.8c2.304,1.988,4.66,2.617,7.069,1.885c5.97-1.885,13.353-3.51,22.15-4.869
		c12.567-1.989,21.835-2.094,27.804-0.313c5.865,1.781,15.709,7.016,29.532,15.706l21.678,14.142
		c3.666,2.303,7.805,4.083,12.408,5.339c1.678,0.523,3.145,0.523,4.399,0c1.36-0.525,2.671-1.677,3.927-3.454
		c3.665-5.342,3.771-14.767,0.313-28.277C439.57,495.425,435.955,486,431.454,478.04"/>
	<path fill="#0D131A" d="M85.394,324.724c1.467-9.216,5.865-18.536,13.196-27.961c8.063-10.472,17.174-17.227,27.332-20.263
		c11.833-28.59,27.491-48.436,46.97-59.537c12.671-7.225,26.127-10.368,40.37-9.425l84.513,5.342l-1.257,5.812l-44.927-1.885
		l-36.444-1.885c-43.879-2.828-75.872,31.521-95.979,103.047c-1.676,5.865-2.933,8.274-3.77,7.227
		c-0.942-1.047-0.996-4.189-0.158-9.425c0.629-4.294,1.78-9.269,3.457-14.923l5.655-18.537c-7.646,2.723-14.767,8.954-21.364,18.693
		c-5.865,8.482-9.269,16.233-10.211,23.25l-0.942,16.808l-0.315,15.236l5.97-7.853c3.98-4.818,5.97-6.493,5.97-5.027
		c0,1.781-1.205,4.765-3.613,8.954l-8.954,12.567l-16.022,16.337c-9.635,8.901-16.076,17.488-19.321,25.763
		c-3.142,8.063-3.561,16.756-1.257,26.076c3.351,13.72,16.389,26.075,39.115,37.069c1.151,0.525,3.193-1.203,6.126-5.183
		c3.875-5.237,7.907-8.902,12.096-10.996c5.13-2.616,13.771-3.457,25.919-2.512c15.29,1.256,25.605,1.517,30.945,0.785
		c9.74-1.362,21.992-4.768,36.759-10.211l44.926-17.751c10.472-4.189,17.959-6.392,22.463-6.601
		c4.816-0.313,8.953,1.363,12.409,5.029c1.257,1.467,1.676,2.671,1.257,3.609c-0.419,0.945-1.781,0.683-4.085-0.782
		c-4.397-2.618-8.743-3.404-13.037-2.357l-21.679,7.543l-36.129,15.079c-17.49,7.225-31.836,11.676-43.041,13.352l-29.69-1.729
		c-14.033-1.362-22.096-0.891-24.19,1.413c8.063,8.798,16.441,15.552,25.133,20.265c14.767,7.856,31.627,11.153,50.583,9.896
		c25.447-1.777,46.864-5.183,64.248-10.208c20.211-5.972,38.748-15.083,55.608-27.332c3.77-2.727,6.178-3.51,7.225-2.357
		c1.049,1.259,0.052,2.983-2.984,5.182c-19.165,14.454-39.795,24.979-61.891,31.578c-18.747,5.548-40.529,8.743-65.348,9.579
		c-30.893,1.154-56.866-9.895-77.915-33.145c-2.828,2.094-5.55,6.546-8.167,13.354c-0.838,2.094-1.781,3.142-2.828,3.142
		l-9.112-3.927c-11.206-5.972-19.688-11.364-25.447-16.183c-8.692-7.328-14.139-15.236-16.337-23.719
		c-2.514-9.949-2.2-19.215,0.942-27.806c3.456-9.634,10.943-19.792,22.463-30.475l15.551-15.551l-1.099-13.195
		C84.347,338.651,84.451,330.901,85.394,324.724"/>
</g>
</svg>
