<?xml version="1.0" encoding="utf-8"?>
<!-- Generator: Adobe Illustrator 16.0.0, SVG Export Plug-In . SVG Version: 6.00 Build 0)  -->
<!DOCTYPE svg PUBLIC "-//W3C//DTD SVG 1.1//EN" "http://www.w3.org/Graphics/SVG/1.1/DTD/svg11.dtd">
<svg version="1.1" id="Layer_1" xmlns="http://www.w3.org/2000/svg" xmlns:xlink="http://www.w3.org/1999/xlink" x="0px" y="0px"
	 width="800px" height="800px" viewBox="0 0 800 800" enable-background="new 0 0 800 800" xml:space="preserve">
<g>
	<path fill="#CD91BE" d="M41.241,472.633c1.358-5.613,21.828,5.028,61.409,31.93c19.745,13.496,39.354,27.535,58.828,42.117
		c-3.534,2.807-7.519,7.741-11.956,14.809c-2.899,4.529-8.378,13.494-16.439,26.898c-5.888,9.512-11.096,14.946-15.625,16.305
		c-5.706,0.271-10.914,1.179-15.625,2.72c-7.698,2.536-14.128,3.759-19.292,3.668c-6.158-0.091-13.948-1.948-23.368-5.57
		c-11.231-4.258-18.568-8.153-22.01-11.684c-4.619-4.622-6.476-11.597-5.569-20.925l4.347-52.443
		C38.115,494.102,39.881,478.161,41.241,472.633"/>
	<path fill="#B17FA5" d="M112.839,551.977c-1.45-17.845-7.02-34.733-16.711-50.675c23.187,14.854,44.971,29.979,65.35,45.378
		c-3.534,2.807-7.519,7.741-11.956,14.809c-2.899,4.529-8.378,13.494-16.439,26.898c-5.072,8.153-9.465,13.225-13.18,15.219
		c-1.268,0.723-4.98,1.447-11.14,2.174C112.659,583.768,114.017,565.833,112.839,551.977"/>
	<path fill="#EEEEEF" d="M47.626,586.08c6.34-1.813,11.82-0.637,16.439,3.529c4.256,3.896,6.385,8.875,6.385,14.945
		c0,2.987-5.841,6.475-17.526,10.461c-11.049,3.623-18.341,5.161-21.873,4.619c-3.261-0.542-2.853-5.797,1.223-15.76
		C36.44,593.73,41.557,587.799,47.626,586.08"/>
	<path fill="#EEEEEF" d="M112.16,589.338c3.442-1.268,7.245-0.994,11.412,0.816c3.713,1.629,5.887,3.306,6.521,5.025
		c1.359,3.625,0.997,9.194-1.087,16.711c-2.083,7.244-4.121,11.142-6.113,11.684c-1.721,0.455-6.159-1.766-13.315-6.654
		c-6.703-4.619-10.643-7.79-11.82-9.51c-0.996-1.541,0.227-4.528,3.669-8.967C104.959,593.73,108.537,590.697,112.16,589.338"/>
	<path fill="#C8C9CA" d="M70.45,604.557c0,2.084-3.261,4.528-9.781,7.336c-5.435,2.444-11.64,4.482-18.613,6.111
		c10.144-8.783,16.439-19.02,18.884-30.702c2.898,1.72,5.209,4.12,6.93,7.2C69.591,597.673,70.45,601.021,70.45,604.557"/>
	<path fill="#C8C9CA" d="M113.519,588.932c3.351-0.815,6.929-0.315,10.733,1.496c3.352,1.536,5.298,3.123,5.842,4.752
		c1.269,3.264,1.042,8.336-0.679,15.219c-1.63,6.521-3.487,10.688-5.57,12.498c0.272-4.893-0.905-10.733-3.532-17.526
		L113.519,588.932"/>
	<path fill="#CD91BE" d="M573.001,478.475c1.722,8.877,3.58,22.373,5.57,40.487l3.94,37.228c1.084,10.145,0.724,21.239-1.09,33.287
		c-2.081,13.947-5.521,22.463-10.322,25.541c-4.893,3.08-15.443,5.07-31.659,5.979l-30.84-0.952
		c-3.349-0.999-6.653-4.938-9.918-11.82c-4.979-10.6-9.916-19.111-14.809-25.541c-3.711-4.894-1.494-14.267,6.66-28.123
		c7.063-12.139,17.206-25.453,30.431-39.945c12.592-13.857,23.956-24.499,34.104-31.926
		C566.026,474.807,572.004,473.402,573.001,478.475"/>
	<path fill="#B17FA5" d="M491.213,553.337c11.505-19.11,27.536-38.224,48.096-57.335c20.922-19.473,32.153-25.314,33.692-17.527
		c1.722,8.877,3.58,22.373,5.57,40.487l3.94,37.228c1.084,10.145,0.724,21.239-1.09,33.287
		c-2.081,13.947-5.521,22.463-10.322,25.541c-3.354,2.084-9.873,3.715-19.565,4.891l-26.491,1.492
		C526.584,606.277,515.305,583.587,491.213,553.337"/>
	<path fill="#EEEEEF" d="M499.093,605.508c3.171,0,7.021,2.083,11.548,6.248c4.712,4.167,5.936,7.157,3.67,8.967
		c-2.264,1.9-8.604,4.074-19.022,6.522c-10.232,2.444-16.801,3.44-19.699,2.989c-3.077-0.545-1.042-4.803,6.113-12.772
		C488.856,609.491,494.653,605.508,499.093,605.508"/>
	<path fill="#EEEEEF" d="M555.068,600.75c4.98-1.721,11.049,2.536,18.206,12.773c6.793,9.779,9.555,15.939,8.286,18.476
		c-0.815,1.724-7.563,0.633-20.244-3.261c-11.775-3.532-19.247-6.248-22.418-8.151c-2.443-1.45-1.813-4.619,1.903-9.509
		C544.604,606.095,549.359,602.652,555.068,600.75"/>
	<path fill="#C8C9CA" d="M577.349,604.963l5.843-19.156l13.449,11.687c7.064,6.429,9.601,10.051,7.609,10.866
		C601.079,609.627,592.112,608.495,577.349,604.963"/>
	<path fill="#C8C9CA" d="M581.563,631.999l-5.028,0.543l-14.13-14.538c-5.524-5.251-10.96-9.371-16.302-12.359
		c3.077-2.266,6.067-3.896,8.967-4.895c4.98-1.721,11.049,2.536,18.206,12.773C580.067,623.305,582.829,629.464,581.563,631.999"/>
	<path fill="#CD91BE" d="M189.33,570.997l6.793-4.212c5.706-3.26,11.729-5.934,18.07-8.016c20.106-6.703,39.083-6.295,56.925,1.222
		c17.934,7.52,30.161,20.198,36.683,38.043c3.259,8.877,4.754,17.026,4.483,24.456l-12.907,27.578
		c-6.522,13.406-11.051,24.454-13.586,33.149c-5.163,17.753-10.553,29.438-16.168,35.053c-1.721,1.721-7.879,3.171-18.476,4.349
		l-27.037,1.357c-6.793,0-14.583-3.126-23.368-9.374c-7.336-5.345-12.5-10.415-15.488-15.216
		c-2.356-3.806-3.759-10.236-4.212-19.295c-0.543-9.057-0.09-19.066,1.359-30.023l4.482-42.387
		C188.514,590.02,189.33,577.79,189.33,570.997"/>
	<path fill="#B17FA5" d="M308.479,609.04c4.8,5.524,6.069,10.006,3.805,13.45l-12.907,27.578
		c-6.522,13.406-11.051,24.454-13.586,33.149c-5.163,17.753-10.553,29.438-16.168,35.053c-1.539,1.721-7.336,3.125-17.389,4.213
		l8.287-43.203c3.261-16.938,5.117-30.569,5.57-40.896c1.541-29.344-6.748-49.633-24.863-60.864
		C276.461,587.572,298.878,598.079,308.479,609.04"/>
	<path fill="#EEEEEF" d="M184.302,696.534c1.812-0.997,5.751,1.993,11.82,8.967c5.977,6.974,8.016,10.912,6.114,11.818
		c-2.808,1.448-10.281,3.58-22.417,6.387c-12.952,2.896-18.975,3.261-18.07,1.087c1.45-3.622,5.208-9.147,11.277-16.576
		C178.732,701.424,182.491,697.53,184.302,696.534"/>
	<path fill="#EEEEEF" d="M228.865,698.437c2.355-0.453,6.521,2.175,12.5,7.879c5.977,5.708,8.965,9.781,8.965,12.229
		c0,2.171-2.988,6.112-8.965,11.819c-5.616,5.435-9.783,8.692-12.5,9.781c-2.083,0.813-5.979-1.992-11.685-8.425
		c-4.438-5.069-7.835-9.557-10.189-13.45c-1.358-2.265,0.814-5.933,6.521-11.006C219.218,702.285,224.337,699.341,228.865,698.437"
		/>
	<path fill="#C8C9CA" d="M281.036,704.14l7.2,15.083c4.529,10.325,6.205,16.257,5.027,17.8c-1.358,1.81-6.657,0.181-15.896-4.892
		c-9.148-4.982-14.583-8.967-16.304-11.957c-1.539-2.538,0.997-6.657,7.609-12.363C275.284,702.104,279.406,700.882,281.036,704.14"
		/>
	<path fill="#C8C9CA" d="M191.91,701.018c3.351,3.171,6.159,6.478,8.423,9.916c2.445,3.716,3.081,5.845,1.903,6.387l-13.858,4.213
		l-19.971,4.348C179.909,719.448,187.744,711.162,191.91,701.018"/>
	<path fill="#C8C9CA" d="M246.663,712.155c2.445,2.993,3.667,5.119,3.667,6.39c0,1.72-1.901,4.571-5.706,8.558l-10.733,9.78
		c4.529-10.775,6.159-21.733,4.892-32.876L246.663,712.155"/>
	<path fill="#CD91BE" d="M579.658,465.162c1.632,4.438,0.5,8.561-3.396,12.363l-15.622,12.229
		c-60.054,16.664-120.872,31.926-182.463,45.784c-123.363,27.808-189.075,34.962-197.135,21.467l-4.484-6.522l-3.803-2.854
		l-18.886-1.9c-2.718-0.363-9.691-5.345-20.923-14.943c-12.68-10.779-20.831-17.163-24.455-19.156l-25.27-11.551
		c-13.134-5.703-23.051-10.413-29.754-14.128c-8.785-4.71-14.583-11.864-17.391-21.468c-1.992-6.974-2.218-13.086-0.679-18.34
		c0.634-2.265,5.208-10.643,13.722-25.135c8.876-15.033,13.858-23.958,14.946-26.766c2.083-5.345,2.037-12.727-0.136-22.145
		l-7.609-27.309c-2.355-9.782-2.536-16.801-0.543-21.059c1.811-3.985,6.069-6.476,12.771-7.472
		c4.347-0.634,12.364-0.543,24.047,0.272c11.956,0.814,20.652,0.905,26.085,0.271c-0.634-16.665-3.442-40.305-8.424-70.919
		c-4.166-25.723-7.607-43.974-10.325-54.752c-1.811-5.978-1.042-10.732,2.31-14.266c3.261-3.351,6.567-3.351,9.918,0L150.2,222.92
		c24.276,29.075,40.986,47.234,50.133,54.481c3.532-9.42,5.751-18.342,6.658-26.766l0.271-9.781l153.796-11.82l89.259,44.02
		c40.487,28.53,73.684,67.749,99.587,117.655C563.037,416.253,572.955,441.07,579.658,465.162"/>
	<path fill="#B17FA5" d="M134.985,532.958l-24.184-19.565c4.801-3.623,7.925-8.287,9.375-13.994
		c1.087-7.063,2.265-12.859,3.532-17.389c11.051,13.586,21.286,22.824,30.705,27.715c12.862,6.702,27.172,7.563,42.933,2.584
		c7.427,8.603,7.427,19.518,0,32.741c-2.808,4.892-5.887,8.604-9.238,11.14c-3.442,2.629-5.798,2.898-7.065,0.815l-4.484-6.522
		l-3.803-2.854l-18.886-1.9C151.333,545.363,145.039,541.107,134.985,532.958"/>
	<path fill="#B17FA5" d="M303.86,474.945c2.083,2.625,4.574,12.135,7.472,28.527c2.898,16.939,3.895,28.668,2.989,35.188
		c-3.169-2.445-9.511-8.148-19.02-17.116l-18.07-16.169c7.88-0.633,14.04-4.21,18.477-10.732
		C298.516,490.657,301.233,484.093,303.86,474.945"/>
	<path fill="#B17FA5" d="M101.562,177.542c1.45-1.721,3.125-2.716,5.027-2.989c1.992-0.181,3.85,0.589,5.57,2.31l36.682,44.291
		c23.46,28.259,40.035,46.51,49.726,54.752c-0.814,2.717-1.448,6.295-1.901,10.733c-0.726,3.714-2.492,6.566-5.299,8.56
		c-20.197-24.545-41.256-52.624-63.175-84.235C113.338,189.499,104.461,178.357,101.562,177.542"/>
	<path fill="#B17FA5" d="M115.828,315.849l0.816,6.114c0.09,5.072-0.952,10.145-3.125,15.217
		c-10.506-5.796-19.972-10.054-28.395-12.771l-24.319-5.843c1.993-0.995,4.574-1.766,7.745-2.31
		c4.347-0.634,11.865-0.679,22.553-0.135C102.151,316.574,110.395,316.483,115.828,315.849"/>
	<path fill="#B17FA5" d="M560.64,489.754l-30.436,8.287c-2.445-8.696-5.794-16.576-10.053-23.641
		c-34.056-57.696-64.854-103.121-92.387-136.271c-38.041-45.83-78.935-80.792-122.682-104.884l55.975-4.212l89.259,44.02
		c40.487,28.53,73.684,67.749,99.587,117.655c13.133,25.545,23.051,50.361,29.754,74.454c1.632,4.438,0.5,8.562-3.396,12.362
		L560.64,489.754"/>
	<path fill="#CD91BE" d="M359.699,152.68c1.721-16.033,2.672-32.925,2.853-50.677c0.543-4.529,1.495-7.925,2.853-10.189
		c1.63-2.536,4.484-4.845,8.559-6.929c4.258-2.083,8.017,2.672,11.277,14.265l12.907,63.312
		c8.515,42.479,14.672,70.692,18.476,84.641c1.542-1.902,4.71-8.785,9.51-20.65l10.327-24.863c2.444-5.343,4.755-8.649,6.929-9.918
		c2.265-1.268,4.303-0.316,6.115,2.853c1.446,2.537,1.991,9.963,1.63,22.282c-0.455,17.479-0.59,28.167-0.407,32.063l0.407,49.59
		c0.361,27.534,1.719,50.676,4.074,69.425c0.906,7.427-3.078,9.556-11.955,6.385c-8.244-2.988-19.565-9.962-33.965-20.923
		c-32.154-24.727-60.957-53.439-86.409-86.136c-10.505-13.496-19.155-31.294-25.948-53.395l-7.065-29.074
		c-0.181-12.136-0.135-23.232,0.136-33.287c0.272-6.43,1.721-10.189,4.348-11.276c2.354-0.905,4.393,0.092,6.114,2.99l16.167,30.025
		c10.417,19.473,18.115,33.059,23.097,40.759C349.6,204.443,356.257,184.019,359.699,152.68"/>
	<path fill="#B17FA5" d="M382.524,169.526l-4.62-68.746c-0.725-8.967-2.037-14.265-3.94-15.896
		c4.258-2.083,8.017,2.672,11.277,14.265l12.907,63.312c8.515,42.479,14.672,70.692,18.476,84.641
		c1.359-1.721,0.771-0.136-1.766,4.756l-8.287,16.167C395.34,245.382,387.324,212.549,382.524,169.526"/>
	<path fill="#B17FA5" d="M449.505,194.524c1.446,2.537,1.899,9.918,1.354,22.146c-0.632,16.936-0.857,27.624-0.678,32.063
		l1.358,52.035c0.997,28.983,2.535,52.805,4.619,71.463c-13.947-0.634-19.881-30.252-17.797-88.854l3.396-61.001
		c1.084-18.658,0.903-28.259-0.545-28.803C444.387,189.95,447.149,190.268,449.505,194.524"/>
	<path fill="#B17FA5" d="M300.735,164.228l-6.521-14.809c-1.45-2.717-2.627-3.532-3.532-2.446c0-3.984,1.268-6.248,3.803-6.793
		c2.446-0.633,4.438,0.363,5.979,2.99l15.896,30.568c10.416,20.017,18.25,34.237,23.503,42.66c-1.992,2.627-4.257,3.94-6.793,3.94
		c-3.169,0.09-6.204-1.901-9.103-5.979C318.985,207.206,311.242,190.494,300.735,164.228"/>
	<path fill="#CD91BE" d="M298.425,196.971c4.438,8.424,9.238,19.745,14.402,33.965c2.898,7.971,7.019,15.533,12.362,22.689
		l13.994,16.71c10.688,12.409,15.533,25.497,14.538,39.263c-1.45,20.562-1.903,35.914-1.359,46.058
		c0.906,17.48,4.303,28.078,10.189,31.792c5.616,3.442-4.121,8.83-29.209,16.167l-39.4,10.054
		c-6.611-9.237-22.96-21.466-49.045-36.683c-5.616-3.352-10.372-7.563-14.265-12.635c-3.895-5.163-6.069-10.1-6.522-14.809
		l-3.396-32.064c-2.627-20.379-5.932-40.984-9.917-61.817c-4.258-22.01-11.504-41.846-21.739-59.507
		c-7.88-13.677-15.806-23.548-23.776-29.618c-5.616-4.348-8.151-9.193-7.608-14.538c0.634-5.163,2.853-6.656,6.658-4.482
		c4.98,2.807,11.14,5.388,18.477,7.743c9.783,3.17,17.798,4.348,24.048,3.532c-0.726-9.509-5.933-22.689-15.625-39.535
		L173.57,88.279c-2.265-5.979-2.49-10.461-0.679-13.451l7.743-0.135l36.819,37.633c24.998,25.361,45.242,44.699,60.729,58.014
		C285.7,176.772,292.448,185.649,298.425,196.971"/>
	<path fill="#B17FA5" d="M164.331,147.518c4.89,2.716,10.869,5.253,17.933,7.607c9.511,3.079,17.391,4.302,23.641,3.668
		c0.453,5.525-0.589,8.696-3.124,9.51c-10.87,3.352-23.55-0.226-38.042-10.733c-3.713-2.718-5.389-5.479-5.026-8.287
		C159.983,146.566,161.523,145.978,164.331,147.518"/>
	<path fill="#B17FA5" d="M298.698,198.058c4.347,8.424,9.193,20.017,14.537,34.78c2.627,7.336,6.567,14.492,11.82,21.466
		l13.993,16.575c10.688,12.681,15.578,25.587,14.673,38.72c-1.177,16.667-1.721,29.482-1.63,38.449
		c0.181,15.036,1.856,25.904,5.027,32.607c1.992,5.706,1.132,7.291-2.582,4.754c-3.805-2.535-6.069-5.57-6.793-9.103
		c-2.445-11.412-4.211-29.346-5.298-53.801c-0.725-16.755-3.532-27.761-8.424-33.014c-1.993-2.083-13.042-21.42-33.15-58.011
		c-18.477-33.514-32.832-53.44-43.067-59.78c-9.511-5.887-23.142-20.289-40.896-43.204c-20.56-26.356-35.188-43.476-43.882-51.356
		c0-3.169,0.679-4.935,2.039-5.298c1.177-0.271,3.034,0.679,5.569,2.854l36.819,37.633c24.998,25.361,45.242,44.699,60.729,58.014
		C285.61,176.682,292.448,185.92,298.698,198.058"/>
	<path fill="#008A92" d="M301.822,255.391c14.583,17.118,24.953,41.891,31.113,74.316c4.892,25.361,6.295,45.921,4.211,61.681
		l-23.096-34.509l2.988,20.107l-11.003-11.004c-7.337-7.065-11.006-9.827-11.006-8.288c0,2.537,1.903,9.918,5.706,22.146
		l-19.292-14.13l5.57,19.292c-17.481-8.332-30.341-15.668-38.584-22.009c-5.435-4.167-9.511-11.504-12.228-22.01
		c-1.811-6.612-3.305-16.123-4.482-28.532c-1.45-15.307-1.585-36.772-0.408-64.397l2.31-36.954l5.977,1.493
		c5.072,1.45,10.281,3.487,15.625,6.114C272.431,226.951,287.965,239.178,301.822,255.391"/>
	<path fill="#00747A" d="M255.222,218.708c17.209,8.243,32.743,20.47,46.601,36.683c14.582,17.118,24.952,41.891,31.112,74.316
		c4.892,25.361,6.295,45.921,4.211,61.681l-15.624-24.456c-4.529-25.813-16.031-52.125-34.509-78.935
		c-20.65-29.798-39.263-41.663-55.838-35.596l1.494-29.209l0.951-12.091l5.977,1.493
		C244.669,214.044,249.878,216.081,255.222,218.708"/>
	<path fill="#CD91BE" d="M482.52,593.415c-8.153,7.335-14.767,12.635-19.838,15.896c-6.521,4.166-14.128,8.424-22.824,12.771
		c-10.326,5.254-17.211,7.973-20.649,8.152c-10.869,0.453-20.425-0.68-28.667-3.396l-9.103-4.348
		c-4.711-4.167-9.149-9.195-13.315-15.08c-8.333-11.687-11.004-21.739-8.016-30.165c2.988-8.329,32.245-20.604,87.766-36.816
		c27.806-8.15,55.297-15.443,82.469-21.873l-15.08,28.801c-8.153,15.941-13.453,25.498-15.897,28.666
		C495.925,580.461,490.307,586.261,482.52,593.415"/>
	<path fill="#B17FA5" d="M530.342,518.557l-15.08,28.801c-8.153,15.94-13.453,25.498-15.897,28.666
		c-3.713,4.619-9.01,10.1-15.894,16.44c-8.786-6.433-26.585-4.12-53.396,6.929c-11.05,4.528-20.017,9.373-26.899,14.537
		c-7.518,5.525-10.689,10.1-9.512,13.723c-3.441-0.903-6.521-2.035-9.238-3.396l-2.989-1.765c-4.711-4.167-9.149-9.195-13.315-15.08
		c-8.333-11.687-11.004-21.739-8.016-30.165c2.988-8.329,32.245-20.604,87.766-36.816
		C475.679,532.277,503.17,524.984,530.342,518.557"/>
	<path fill="#91308C" d="M98.302,421.143c4.711-1.178,7.835,2.717,9.375,11.685l1.766,23.774c0.453,7.064-0.227,12.455-2.039,16.17
		c-1.992,4.349-5.932,8.105-11.82,11.273c-5.524,2.99-9.6,0.229-12.227-8.286c-1.993-6.432-2.988-15.352-2.988-26.764
		c0-6.341,1.584-12.138,4.754-17.392C88.565,425.896,92.958,422.41,98.302,421.143"/>
	<path fill="#91308C" d="M148.298,383.644l3.125-19.156c2.174-6.974,6.34-11.413,12.499-13.314c4.8-1.45,9.103,1.721,12.907,9.51
		c2.355,4.619,5.797,13.224,10.325,25.813c2.174,5.072,2.581,14.992,1.223,29.756c-1.177,13.586-2.898,23.323-5.163,29.208
		c-1.721,4.438-6.703,4.848-14.944,1.223c-7.336-3.259-13.676-7.834-19.021-13.72c-4.076-4.438-5.706-12.183-4.892-23.233
		L148.298,383.644"/>
	<path fill="#91308C" d="M230.224,412.04l9.782-0.406c2.988,1.269,6.204,3.306,9.646,6.112c2.174,1.722,3.487,9.283,3.94,22.688
		c0.453,12.861,0.09,20.153-1.087,21.877l-9.374,0.678l-10.19-2.311c-1.177-0.361-3.216-4.121-6.114-11.275l-5.435-13.315
		c-1.087-2.172-0.86-5.615,0.68-10.325C223.702,420.42,226.419,415.843,230.224,412.04"/>
	<path fill="#91308C" d="M168.407,486.219c2.174,2.721,3.577,6.975,4.211,12.773c0.726,6.156-0.226,9.464-2.853,9.919l-9.374-0.545
		c-3.534-1.089-6.295-3.171-8.288-6.249c-1.54-2.264-2.672-6.024-3.396-11.279c-0.724-5.342-0.543-8.828,0.543-10.46
		c1.268-2.084,3.94-2.626,8.016-1.63C161.523,479.835,165.236,482.325,168.407,486.219"/>
	<path fill="#91308C" d="M226.555,599.257c4.981,5.706,8.288,11.276,9.918,16.711c1.63,5.343,2.039,10.689,1.223,16.031
		l-3.125,10.461c-1.45,3.535-7.79,6.703-19.021,9.511c-2.989,0.725-5.525-1.224-7.608-5.843l-4.756-9.374
		c-1.63-1.177-2.219-4.891-1.766-11.138l1.766-18.206c0.363-5.164,2.853-9.195,7.472-12.094l7.745-3.125
		C219.4,591.831,222.118,594.186,226.555,599.257"/>
	<path fill="#91308C" d="M269.623,647.218c1.63,0.451,3.171,2.535,4.621,6.248c1.358,3.622,2.037,6.929,2.037,9.916
		c0,3.806-0.725,7.702-2.174,11.687c-1.901,5.436-4.98,10.055-9.238,13.856l-7.472,0.136c-0.997-5.797-2.31-10.279-3.94-13.447
		c-1.994-3.896-1.585-8.877,1.222-14.947l5.571-10.46c0.453-1.632,1.721-2.675,3.804-3.126L269.623,647.218"/>
	<path fill="#7F257B" d="M265.547,646.537l4.076,0.681c1.63,0.451,3.171,2.535,4.621,6.248c1.358,3.622,2.037,6.929,2.037,9.916
		c0,3.806-0.725,7.702-2.174,11.687c-1.901,5.436-4.98,10.055-9.238,13.856l-4.484,3.803c-0.724,0.455-1.358,0-1.901-1.354
		c1.358-5.527,2.717-13.134,4.076-22.826L265.547,646.537"/>
	<path fill="#7F257B" d="M542.435,552.247l3.668,3.125c2.625,2.629,4.349,5.119,5.161,7.474c0.723,2.176,0.451,5.119-0.813,8.832
		c-1.542,4.256-2.313,6.885-2.313,7.881c0,2.084-2.035,5.521-6.112,10.324c-3.44,4.165-6.16,6.885-8.153,8.151
		c-1.445,0.905-2.808-1.813-4.074-8.151c-1.268-6.341-1.403-10.96-0.406-13.859c1.357-4.891,2.716-8.828,4.077-11.818
		C535.821,558.68,538.81,554.693,542.435,552.247"/>
	<path fill="#7F257B" d="M573.001,560.943c-0.997,0-2.807-2.627-5.436-7.879c-3.259-6.432-5.57-10.463-6.927-12.092
		c-2.083-2.445-2.538-6.16-1.36-11.142c0.361-1.813,1.766-5.979,4.213-12.499c2.175-5.887,6.609-6.838,13.313-2.852l5.709,38.854
		C578.074,558.407,574.903,560.943,573.001,560.943"/>
	<path fill="#FFFFFF" d="M464.446,493.828c1.181,1.72,1.768,3.761,1.768,6.115c0,2.354-0.587,4.391-1.768,6.113
		c-1.175,1.721-2.626,2.579-4.349,2.579c-1.72,0-3.168-0.858-4.345-2.579c-1.178-1.724-1.769-3.76-1.769-6.113
		c0-2.354,0.591-4.396,1.769-6.115c1.177-1.721,2.625-2.581,4.345-2.581C461.82,491.247,463.271,492.107,464.446,493.828"/>
	<path fill="#CD91BE" d="M244.896,583.635l-33.965-6.251c-13.133-2.626-21.058-5.254-23.776-7.88
		c-3.351-3.352-5.163-8.604-5.435-15.761c-0.271-7.339,1.224-13.812,4.484-19.429c5.254-11.32,10.099-20.742,14.538-28.258
		c8.151-14.13,16.892-23.324,26.221-27.582c6.703-3.168,18.433,1.495,35.188,13.994c13.496,9.965,26.719,22.055,39.672,36.275
		c9.057,9.783,18.024,24.592,26.901,44.426c7.155,15.852,11.14,26.628,11.956,32.337c0.362,2.806-2.763,6.022-9.375,9.646
		c-3.622,2.084-9.328,4.845-17.118,8.289c-2.083-4.438-6.567-9.467-13.451-15.082C287.149,597.221,268.536,588.977,244.896,583.635"
		/>
	<path fill="#B17FA5" d="M301.822,528.745c9.057,9.782,18.024,24.592,26.901,44.426c7.155,15.851,11.14,26.628,11.956,32.337
		c0.362,2.807-2.763,6.021-9.375,9.645c-3.622,2.084-9.328,4.846-17.118,8.289c-1.087-2.354-3.306-5.299-6.657-8.834
		c-6.521-6.883-15.125-12.996-25.813-18.338c8.514-0.815,11.773-11.82,9.782-33.015c-3.985-25.633-6.295-42.979-6.929-52.037
		C290.818,517.105,296.569,522.948,301.822,528.745"/>
	<path fill="#CD91BE" d="M770.136,63.826c1.36,3.079,0.182,7.563-3.532,13.451L735.9,112.872
		c-17.303,20.018-27.354,35.052-30.159,45.106c7.877-2.264,18.973-6.114,33.284-11.547l24.317-9.24
		c4.077-1.358,5.979-0.543,5.706,2.446c-0.271,2.989-2.58,6.158-6.929,9.509c-9.419,7.429-19.928,18.704-31.521,33.83
		c-15.67,20.289-28.075,41.665-37.224,64.126c-8.425,20.742-15.309,43.702-20.653,68.882l-7.471,38.312
		c-1.451,4.982-5.751,10.598-12.908,16.847c-7.063,6.159-14.038,10.416-20.922,12.771c-14.312,4.801-28.53,10.87-42.661,18.206
		c-22.553,11.687-36.727,23.008-42.525,33.966c-12.315-4.074-23.999-8.832-35.05-14.264c-22.102-10.87-29.937-19.792-23.505-26.768
		c10.415-11.321,17.027-21.782,19.837-31.383c2.174-7.427,3.758-22.281,4.752-44.563c0.364-8.423,5.528-17.797,15.489-28.124
		l31.113-31.654c5.073-5.979,9.783-13.541,14.129-22.689l10.596-24.184c8.606-19.563,19.157-33.014,31.659-40.351
		c16.302-9.511,45.377-30.434,87.221-62.769l59.373-46.464C766.197,60.52,768.959,60.838,770.136,63.826"/>
	<path fill="#B17FA5" d="M764.836,59.072c4.168-2.356,6.479-1.405,6.932,2.852c0.361,4.167-1.359,9.285-5.164,15.354L735.9,112.873
		c-17.303,20.018-27.354,35.052-30.159,45.106c7.153-1.993,15.531-4.846,25.131-8.559c-7.426,4.438-14.719,9.601-21.873,15.488
		c-4.258,3.532-6.929,5.027-8.016,4.484c-6.793-3.532-3.487-15.986,9.919-37.362c12.407-20.017,26.04-36.729,40.894-50.132
		c8.062-7.156,12.59-13.088,13.586-17.798C765.836,61.833,765.652,60.157,764.836,59.072"/>
	<path fill="#B17FA5" d="M763.343,137.191c3.986-1.358,5.661,0,5.028,4.076c-0.727,4.077-3.173,7.336-7.338,9.783
		c-8.783,5.162-19.292,15.896-31.521,32.198c-14.673,19.384-26.718,40.668-36.137,63.855c-8.425,20.742-15.309,43.702-20.653,68.882
		l-7.471,38.312c-1.451,4.982-5.751,10.598-12.908,16.847c-7.063,6.159-14.038,10.416-20.922,12.771
		c-5.344,1.813-12.363,4.528-21.059,8.152c0.362-2.446,3.579-5.435,9.645-8.967l24.32-13.858
		c9.603-5.977,16.757-21.557,21.467-46.736c2.535-14.944,4.664-26.401,6.383-34.372c2.993-14.039,6.613-26.177,10.87-36.412
		c9.693-23.187,17.302-40.078,22.825-50.676c7.883-15.126,16.121-27.218,24.727-36.275c4.892-5.072,12.185-11.096,21.873-18.07
		C759.901,141.267,763.523,138.097,763.343,137.191"/>
	<path fill="#008A92" d="M600.447,235.418c16.844-16.031,33.78-26.81,50.81-32.333c8.517-2.718,15.31-3.85,20.379-3.397
		c3.535,7.698,4.483,20.062,2.854,37.09c-1.087,12.227-4.349,32.516-9.783,60.865l-6.928,36.547
		c-3.808,15.217-8.969,24.455-15.489,27.716l-72.55,36.954l-20.786,13.315l14.131-27.174l-13.181,8.696
		c4.528-11.865,7.02-19.157,7.472-21.874c0.545-2.718-6.975,3.216-22.553,17.797l9.512-20.243l-24.454,23.776
		c1.175-17.934,7.562-40.351,19.157-67.252C554.615,289.763,575.084,259.602,600.447,235.418"/>
	<path fill="#00747A" d="M671.094,261.776c-8.786-6.793-20.879-6.974-36.273-0.544c-13.771,5.797-28.803,16.259-45.106,31.384
		c-15.396,14.312-29.482,30.433-42.256,48.367c-12.947,18.296-22.1,35.143-27.443,50.541c1.813-18.839,8.426-41.302,19.838-67.387
		c15.488-35.416,35.688-64.988,60.597-88.718c16.844-16.031,33.781-26.81,50.81-32.333c8.517-2.718,15.31-3.85,20.379-3.397
		c2.626,5.887,3.85,14.128,3.668,24.726C675.032,233.744,673.629,246.198,671.094,261.776"/>
	<path fill="#ED8599" d="M477.22,544.23c5.979,1,7.787,6.297,5.433,15.898c-1.175,4.801-2.986,9.51-5.433,14.128l-24.592,23.234
		c-14.673,12.68-26.267,20.379-34.781,23.095c-3.803,1.178-9.189,0.725-16.167-1.357c-6.883-2.174-10.823-4.438-11.82-6.793
		c12.139-11.775,24.91-23.459,38.315-35.053C454.893,554.288,471.24,543.236,477.22,544.23"/>
	<path fill="#CE7486" d="M477.22,544.23c5.979,1,7.787,6.297,5.433,15.898c-1.175,4.801-2.986,9.51-5.433,14.128l-25.407,23.912
		c-9.689-1.63-20.922,0-33.693,4.894c-13.133,5.07-18.612,10.461-16.438,16.166c-6.883-2.174-10.823-4.438-11.82-6.793
		c12.139-11.775,24.91-23.459,38.315-35.053C454.893,554.288,471.24,543.236,477.22,544.23"/>
	<path fill="#FFFFFF" d="M473.414,560.536c-0.361-1.538,3.985-6.521,13.044-14.943l13.586-12.229
		c-3.896,14.222-7.654,26.177-11.276,35.865c-3.803,10.058-6.387,14.857-7.744,14.405
		C479.032,582.999,476.494,575.3,473.414,560.536"/>
	<path fill="#DBDCDC" d="M473.414,560.536c-0.361-1.538,3.985-6.521,13.044-14.943l13.586-12.229
		c-4.167,14.945-8.153,27.488-11.954,37.634c-3.716-5.345-8.199-7.019-13.453-5.024L473.414,560.536"/>
	<path fill="#CD91BE" d="M554.118,427.255l6.926,51.629c1.18,11.593,0.728,19.656-1.355,24.187
		c-1.813,4.074-6.342,7.471-13.586,10.187c-13.135,4.804-21.104,7.927-23.914,9.374c-12.771,6.521-22.775,12.771-30.023,18.75
		c-8.877,7.247-18.521,17.66-28.939,31.246c-2.354,3.083-5.161,5.029-8.423,5.846c-4.983,0.814-9.825,1.899-14.537,3.26
		c-13.223,3.805-26.355,10.598-39.398,20.381c-13.858,10.324-21.919,20.06-24.184,29.207c-3.352-0.36-7.698-1.402-13.043-3.125
		c-7.698-2.535-13.902-6.112-18.613-10.731c-5.706-5.797-8.514-12.68-8.422-20.649c-2.808-5.979-6.885-11.504-12.228-16.573
		c-5.796-5.618-9.601-9.919-11.413-12.909c-2.898-5.073-4.438-12.047-4.619-20.924c-0.09-5.252,0.407-13.357,1.494-24.317
		c0.543-6.161-0.634-14.086-3.532-23.776l-7.337-20.785c-1.63-4.528-2.399-9.465-2.31-14.81l1.358-15.624l1.087-10.6
		c0.453-6.248,0.453-11.502,0-15.76l11.549-4.074c10.325-4.348,22.055-10.37,35.188-18.071c6.793-10.506,20.334-18.25,40.622-23.232
		c19.384-4.619,40.759-5.841,64.126-3.667c24.365,2.264,45.604,7.88,63.721,16.847C534.51,398.588,547.775,411.495,554.118,427.255"
		/>
	<path fill="#B17FA5" d="M374.101,438.261c6.34-5.435,11.773-9.103,16.302-11.006c6.522-2.716,12.638-2.716,18.344,0
		c9.058,4.258,12.09,12.229,9.1,23.914c-2.626,10.597-8.829,20.332-18.612,29.209c-1.087,2.174-3.532,1.677-7.336-1.494
		c-3.442-2.987-7.019-7.293-10.733-12.905C371.564,451.576,369.209,442.338,374.101,438.261"/>
	<path fill="#B17FA5" d="M337.689,526.706c-1.811,3.987-3.442,0.41-4.89-10.731c-1.993-15.939-4.303-26.721-6.929-32.336
		l-8.288-14.264c-1.358-2.355-0.543-3.307,2.445-2.854c2.083,0.36,5.39,2.986,9.918,7.879c5.072,5.346,8.016,10.146,8.83,14.402
		C342.037,505.285,341.674,517.92,337.689,526.706"/>
	<path fill="#B17FA5" d="M486.594,448.995c6.067-1.993,8.15-1.313,6.248,2.036c-1.72,3.264-6.067,7.474-13.041,12.635
		c-4.529,3.354-12.815,14.402-24.863,33.152c-12.408,19.199-19.928,33.014-22.553,41.438c-1.723,5.434-3.307,7.697-4.755,6.793
		c-1.358-0.908-2.038-4.215-2.038-9.918c0-15.398,4.348-31.882,13.043-49.455C446.877,469.193,462.862,456.963,486.594,448.995"/>
	<path fill="#B17FA5" d="M544.88,436.223l4.21-7.744c1.541-2.265,3.215-2.672,5.028-1.224l6.926,51.629
		c1.18,11.593,0.728,19.656-1.355,24.187c-1.813,4.074-6.342,7.471-13.586,10.187c-13.135,4.804-21.104,7.927-23.914,9.374
		c-12.771,6.521-22.775,12.771-30.023,18.75c-8.877,7.247-18.521,17.66-28.939,31.246c-2.354,3.083-5.161,5.029-8.423,5.846
		c-4.983,0.814-9.825,1.899-14.537,3.26c-13.132,3.805-26.131,10.552-38.991,20.242c-13.585,10.236-21.511,19.928-23.775,29.074
		c-2.537-0.181-3.352-4.21-2.447-12.093c0.906-8.241,3.352-16.031,7.337-23.366c7.427-13.404,19.475-20.607,36.139-21.602
		l18.342-0.816c6.341-0.727,11.141-2.716,14.4-5.977c9.419-10.51,16.849-18.344,22.282-23.506c9.6-8.877,20.603-15.76,33.015-20.649
		c12.951-5.071,22.554-16.757,28.802-35.054C539.171,476.755,542.342,459.501,544.88,436.223"/>
	<path fill="#FFFFFF" d="M302.23,483.639c3.442,3.895,7.019,9.692,10.733,17.391c5.344,10.869,7.79,20.287,7.337,28.262
		c-1.268-0.273-3.306-1.678-6.114-4.215c-3.351-3.078-5.661-6.113-6.929-9.102c-1.54-3.716-2.853-10.236-3.94-19.564L302.23,483.639
		"/>
	<path fill="#FFFFFF" d="M486.049,477.661c0.364,13.586-0.723,22.599-3.259,27.037c-1.813,3.171-8.471,8.331-19.974,15.485
		c-11.865,7.43-21.918,12.455-30.162,15.08c3.354-15.123,10.962-30.521,22.824-46.191c8.786-11.502,18.569-21.69,29.348-30.567
		L486.049,477.661"/>
	<path fill="#DBDCDC" d="M484.826,458.505l1.09,15.488c-10.78,6.612-20.429,15.171-28.939,25.68
		c-8.062,10.052-14.447,21.058-19.157,33.015c-1.72,1.174-3.44,2.035-5.163,2.578c3.354-15.123,10.961-30.521,22.823-46.191
		C464.266,477.57,474.049,467.382,484.826,458.505"/>
	<path fill="#CD91BE" d="M310.789,437.038l-33.014-48.775c-3.261-5.072-4.529-8.967-3.805-11.683
		c0.906-3.624,6.204-2.537,15.896,3.26l53.937,30.842c29.89,17.118,48.185,28.26,54.888,33.424
		c4.892,7.787,6.204,16.073,3.939,24.86c-2.083,7.88-6.521,14.628-13.314,20.243c-6.884,5.525-14.128,8.289-21.737,8.289
		c-8.424,0.091-15.488-3.444-21.194-10.6C341.132,480.287,329.267,463.666,310.789,437.038"/>
	<path fill="#B17FA5" d="M285.519,377.394l4.348,2.445l53.937,30.843c29.89,17.117,48.185,28.26,54.888,33.424
		c5.707,9.055,6.611,18.519,2.718,28.395C363.458,435.814,324.829,404.114,285.519,377.394"/>
	<path fill="#91308C" d="M468.253,389.894c-3.807,6.25-7.112,12.047-9.919,17.392c-4.8,9.147-7.925,14.489-9.373,16.03
		c-2.175,2.354-5.026,2.675-8.562,0.953l-11.003-5.843c-3.806-2.536-6.521-5.479-8.153-8.832c-1.539-3.079-0.042-7.474,4.485-13.181
		c3.983-5.071,8.196-8.695,12.635-10.869c5.795-2.898,11.864-5.208,18.205-6.929c8.424-2.264,13.042-1.947,13.857,0.952
		C471.24,382.286,470.518,385.728,468.253,389.894"/>
	<path fill="#91308C" d="M384.018,435.409l-31.927-17.663c5.163-2.266,11.049-3.713,17.662-4.348
		c7.607-0.725,11.82,0.408,12.635,3.396C383.657,421.232,384.199,427.438,384.018,435.409"/>
	<path fill="#0D131A" d="M308.344,492.199c0.544-1.271,2.808,3.216,6.793,13.447c4.076,10.418,5.616,17.981,4.619,22.691
		c-5.706-2.536-9.918-6.975-12.635-13.314C304.041,507.689,304.449,500.076,308.344,492.199"/>
	<path fill="#0D131A" d="M33.496,573.171c-0.815,8.696,0.86,15.125,5.027,19.293l-2.718,3.806c-2.627-2.084-4.483-4.576-5.57-7.474
		c-1.177-2.989-1.721-6.838-1.63-11.551l2.446-28.121l4.076-46.735c1.358-18.205,2.4-28.984,3.124-32.336l5.163,6.521
		c-1.992,9.512-4.574,33.421-7.743,71.734L33.496,573.171"/>
	<path fill="#0D131A" d="M70.858,606.186c9.601,2.265,18.431,2.265,26.493,0l1.902,3.396c-5.616,1.722-10.733,2.58-15.353,2.58
		c-5.345-0.09-11.594-1.313-18.749-3.667l2.988-0.952C69.409,607.182,70.315,606.73,70.858,606.186"/>
	<path fill="#0D131A" d="M154.956,547.9l8.967-0.68c-3.17,3.08-6.114,6.702-8.831,10.87l-9.238,15.079l-9.917,16.848l-4.212,6.521
		c-2.174-1.632-3.441-2.898-3.805-3.807l13.315-21.463l7.88-14.401C151.106,553.156,153.055,550.166,154.956,547.9"/>
	<path fill="#0D131A" d="M62.027,589.202c-3.713-2.808-8.378-3.396-13.993-1.769c-4.529,1.361-8.922,6.433-13.18,15.219
		c-4.076,8.426-5.253,13.586-3.532,15.49c1.358,1.629,7.835,0.314,19.428-3.939c11.504-4.258,17.617-7.475,18.342-9.646
		c0.634-2.084,0.135-4.758-1.495-8.017C66.149,593.279,64.291,590.832,62.027,589.202 M47.083,583.904l8.83-0.95
		c3.081,0.36,5.753,1.403,8.017,3.126c2.716,1.99,4.936,5.025,6.656,9.1c1.813,4.168,2.401,7.883,1.766,11.143
		c-0.815,3.443-8.151,7.428-22.008,11.955c-13.859,4.619-22.01,5.889-24.455,3.805c-1.993-1.629-0.635-7.744,4.076-18.341
		C35.037,592.6,40.743,585.988,47.083,583.904"/>
	<path fill="#0D131A" d="M123.029,591.512c-3.805-1.72-7.247-1.992-10.325-0.813c-2.447,0.904-5.027,2.807-7.745,5.703
		c-2.537,2.72-4.348,5.348-5.435,7.884l-0.543,2.174v0.133c0.997,1.542,3.94,4.077,8.832,7.611l10.733,6.794l4.348,0.542
		l2.173-3.126c1.721-3.532,2.944-7.563,3.669-12.092c0.814-4.801,0.814-8.332,0-10.598
		C128.282,594.366,126.38,592.963,123.029,591.512 M111.48,587.436l11.957,0.409c4.347,1.357,7.064,2.987,8.151,4.89
		c1.902,3.354,1.856,9.965-0.135,19.838c-1.993,9.781-4.258,14.854-6.793,15.219c-2.355,0.271-7.472-2.223-15.353-7.475
		c-7.699-5.072-12.363-8.877-13.994-11.412c-0.906-1.36-0.09-4.438,2.445-9.237C100.929,593.775,105.503,589.699,111.48,587.436"/>
	<path fill="#0D131A" d="M581.29,585.671l2.174-2.036l6.793,5.297l13.177,12.5c3.626,4.258,5.119,7.111,4.484,8.557
		c-0.636,1.361-3.216,1.813-7.745,1.361c-8.061-0.636-15.805-2.039-23.229-4.213l0.681-3.531l15.486,3.531
		c6.429,1.178,9.824,1.133,10.188-0.136C604.024,605.189,596.688,598.079,581.29,585.671"/>
	<path fill="#0D131A" d="M486.729,589.202l3.939-3.667l2.854,6.521l2.854,7.334l2.307,4.623l-4.074,0.541l-1.629-3.533
		L486.729,589.202"/>
	<path fill="#0D131A" d="M536.184,619.23l4.755,3.531c-11.142,0.723-20.289,0.723-27.442,0l0.947-3.807
		C520.424,619.591,527.668,619.682,536.184,619.23"/>
	<path fill="#0D131A" d="M585.094,555.917c1.087,10.056,0.769,20.967-0.952,32.743c-1.989,12.859-5.072,21.691-9.237,26.492
		c-0.182-1.088-1.042-2.399-2.58-3.941c3.349-5.521,5.842-13.629,7.471-24.318c1.629-10.687,1.903-20.875,0.815-30.567
		l-1.632-16.845c-3.438-34.602-5.842-54.213-7.199-58.832l4.482-2.986c0.997,3.352,2.174,11.863,3.532,25.541l3.261,35.867
		L585.094,555.917"/>
	<path fill="#0D131A" d="M495.425,626.564c11.593-2.899,17.615-5.207,18.07-6.93c0.36-1.632-1.497-4.167-5.571-7.605
		c-3.983-3.354-6.928-5.028-8.831-5.028c-4.528,0-9.828,3.44-15.896,10.325c-5.705,6.521-8.105,10.324-7.199,11.412
		C477.265,630.277,483.742,629.555,495.425,626.564 M498.412,602.246c3.443,0,7.608,2.49,12.502,7.472
		c4.8,4.89,6.926,8.515,6.384,10.869s-5.342,4.847-14.399,7.474c-8.334,2.445-16.03,3.895-23.098,4.35l-7.2-0.682
		c-0.906-0.815-0.681-2.765,0.682-5.842c1.989-4.438,5.751-9.419,11.272-14.947C490.443,605.146,495.063,602.246,498.412,602.246"/>
	<path fill="#0D131A" d="M572.323,614.337c-6.433-9.78-11.594-14.129-15.489-13.042c-4.349,1.268-8.468,3.895-12.363,7.88
		c-3.352,3.442-5.162,6.294-5.433,8.56c-0.094,0.635,0.09,1.18,0.542,1.631c3.078,1.902,10.416,4.619,22.009,8.15
		c11.866,3.623,18.069,4.846,18.611,3.672C581.109,629.283,578.48,623.665,572.323,614.337 M580.881,622.762
		c2.899,5.706,3.807,9.283,2.716,10.731c-0.723,0.905-2.671,1.18-5.841,0.815c-8.242-1.088-17.39-3.217-27.444-6.387
		c-10.596-3.439-15.851-6.158-15.76-8.15c0.091-4.98,3.396-10.008,9.919-15.08c6.25-4.983,11.457-7.066,15.624-6.248
		c2.81,0.633,6.158,3.259,10.056,7.877C574.133,610.939,577.713,616.42,580.881,622.762"/>
	<path fill="#0D131A" d="M570.42,443.967l-8.967-23.638l1.765-2.72c0.729-1.268,1.406-2.129,2.041-2.58
		c7.245,17.479,12.815,32.785,16.709,45.921c1.813,6.341,1.769,11.005-0.136,13.995l-11.821,10.188l-8.016,6.248l-1.355-4.755
		l6.927-4.757c5.8-4.347,9.104-7.696,9.919-10.052c0.635-1.633,0.271-5.073-1.087-10.327L570.42,443.967"/>
	<path fill="#0D131A" d="M511.728,327.941c-0.181,0.997-0.226,2.581-0.136,4.755l0.136,4.891
		c-21.646-28.079-42.116-48.911-61.409-62.497l0.682-5.569c10.231,7.247,19.744,14.99,28.529,23.232
		C490.216,302.715,500.946,314.445,511.728,327.941"/>
	<path fill="#0D131A" d="M65.288,313.268c2.265-0.272,10.507-0.135,24.728,0.407c14.31,0.545,22.824,0.635,25.542,0.272l0.815,5.435
		c-2.898,0.361-11.049,0.181-24.455-0.543l-23.097-0.68c-6.067,0.906-9.872,3.306-11.412,7.201
		c-1.63,3.895-1.403,10.19,0.679,18.884l4.483,15.217c2.988,10.96,4.664,18.387,5.027,22.282c2.445-9.42,4.166-12.409,5.163-8.967
		c0.997,3.079-0.95,10.053-5.841,20.923l-15.625,27.035c-7.698,12.684-12,21.107-12.906,25.272
		c-1.269,5.888-0.906,12.183,1.086,18.884c2.627,8.695,7.609,15.172,14.945,19.43c7.427,4.346,18.884,9.783,34.372,16.303
		c10.417,4.438,17.255,7.52,20.516,9.24c4.347,2.445,11.866,8.287,22.552,17.525l13.315,11.411c4.709,3.987,7.97,6.251,9.782,6.794
		l15.217-0.681l2.717,4.757l-19.971,1.085c-2.356-0.903-5.48-3.078-9.375-6.522l-14.13-12.635
		c-10.054-8.513-17.436-14.082-22.145-16.709c-8.061-4.982-14.719-8.561-19.972-10.734l-18.613-7.198
		c-7.88-2.99-13.904-5.707-18.07-8.151c-14.22-8.335-20.56-22.102-19.02-41.304c0.361-3.894,4.755-12.229,13.178-24.998
		c9.691-14.765,15.668-24.91,17.933-30.434c1.269-3.261,0.137-12.001-3.397-26.222l-5.706-20.515
		c-2.625-11.23-2.761-19.382-0.407-24.455C55.188,316.709,59.219,314.174,65.288,313.268"/>
	<path fill="#0D131A" d="M113.926,394.105c1.177-5.343,2.31-8.196,3.396-8.559c1.178-0.361,1.223,2.356,0.136,8.152
		c-3.623,20.019-3.261,41.439,1.087,64.264c5.343,27.806,15.76,49.315,31.248,64.535l31.792,31.382l-0.952,7.064
		c-0.452-2.354-11.683-13.588-33.693-33.694c-16.394-14.49-27.308-36.728-32.743-66.706
		C109.578,435.727,109.488,413.579,113.926,394.105"/>
	<path fill="#0D131A" d="M186.612,569.641l6.25,3.666c0,6.342-1.087,18.435-3.261,36.275l-5.298,40.759
		c-1.268,9.873-1.766,18.932-1.495,27.172c0.272,8.151,1.269,14.313,2.99,18.479l-5.708,2.175c-3.169-9.331-3.26-25.453-0.271-48.37
		l4.483-42.386C185.843,589.202,186.612,576.613,186.612,569.641"/>
	<path fill="#0D131A" d="M260.113,718.272l3.396,3.261l-15.081,2.038l2.31-4.076L260.113,718.272"/>
	<path fill="#0D131A" d="M315.952,621.675l-13.451,28.396c-7.788,16.305-12.272,26.266-13.449,29.891l-7.745,23.773l-2.853,0.272
		l-2.582,0.543c2.537-5.071,5.209-12.364,8.017-21.873c1.721-5.89,6.43-17.073,14.128-33.559l13.315-27.988L315.952,621.675"/>
	<path fill="#0D131A" d="M206.991,716.232c-0.634,1.36-0.543,3.034,0.271,5.027c-4.166-1.27-6.747-2.174-7.743-2.716
		c2.898-2.084,4.03-3.716,3.396-4.893L206.991,716.232"/>
	<path fill="#0D131A" d="M278.862,704.82c-2.355-0.724-5.888,1.042-10.598,5.3c-4.619,4.258-6.658,7.293-6.114,9.103
		c0.724,2.445,5.616,5.933,14.673,10.461c8.786,4.438,13.631,6.157,14.538,5.164c0.995-1.087-0.499-6.297-4.483-15.625
		C282.983,710.075,280.311,705.272,278.862,704.82 M257.531,718.678c0.181-3.349,3.396-7.471,9.646-12.362
		c6.793-5.344,11.956-6.249,15.487-2.718c2.265,2.175,5.027,7.064,8.288,14.675c3.079,7.246,4.8,12.589,5.163,16.03
		c0.363,2.81,0.045,4.528-0.951,5.163l-5.163-0.271c-4.709-1.091-11.23-4.167-19.563-9.238
		C261.744,724.703,257.441,720.942,257.531,718.678"/>
	<path fill="#0D131A" d="M173.026,704.278c5.072-5.8,8.469-9.147,10.189-10.055c2.627-1.447,7.019,1.223,13.178,8.017
		c6.069,6.702,9.012,11.729,8.832,15.079c-0.09,1.63-5.208,3.94-15.352,6.929c-9.964,2.99-18.206,4.71-24.728,5.164
		c-3.261,0.271-5.253-0.09-5.977-1.087c-0.906-1.269-0.227-3.986,2.037-8.151C163.561,715.826,167.5,710.526,173.026,704.278
		 M172.211,710.256c-6.793,8.241-9.692,12.999-8.696,14.264c0.906,1.271,7.336,0.499,19.292-2.307
		c11.865-2.719,18.024-4.71,18.478-5.979c0.543-1.357-1.405-4.756-5.842-10.189c-4.62-5.613-8.107-8.332-10.462-8.151
		C183.261,697.982,179.004,702.104,172.211,710.256"/>
	<path fill="#0D131A" d="M240.821,707.13c-5.525-5.345-9.42-7.789-11.685-7.335c-3.442,0.361-7.835,2.942-13.179,7.742
		c-5.254,4.712-7.79,8.063-7.609,10.057c0.09,1.9,3.081,6.022,8.967,12.363c5.979,6.429,9.646,9.371,11.005,8.829
		c2.626-1.087,6.656-4.258,12.091-9.51c5.616-5.436,8.424-9.013,8.424-10.731C248.837,716.28,246.165,712.475,240.821,707.13
		 M228.729,696.534c4.348,0.09,9.601,3.168,15.76,9.238c5.706,5.796,8.559,10.054,8.559,12.771c0,2.716-3.758,7.742-11.276,15.08
		c-7.245,7.063-11.911,10.642-13.993,10.73c-2.537,0.092-7.201-3.758-13.994-11.548c-6.883-7.88-10.145-13.313-9.782-16.305
		c0.271-2.354,3.352-6.158,9.238-11.412C219.581,699.298,224.743,696.443,228.729,696.534"/>
	<path fill="#0D131A" d="M227.778,481.059c-11.504,5.433-23.187,20.289-35.052,44.563c-6.159,12.589-9.42,22.008-9.782,28.259
		c-0.363,5.435,1.494,10.188,5.569,14.267c2.898,2.896,12.907,5.979,30.025,9.238l33.965,6.251
		c16.575,4.8,29.709,10.097,39.4,15.894c5.796,3.443,11.322,7.883,16.575,13.314l6.25,5.979l6.25-0.409
		c8.424-3.896,13.903-7.109,16.439-9.646l3.805,2.854c-11.956,8.15-19.7,12.499-23.232,13.044c-2.99,0.36-6.703-2.041-11.141-7.202
		c-4.709-5.521-11.322-10.643-19.836-15.352c-11.593-6.432-25.768-11.551-42.524-15.354l-33.149-5.979
		c-15.217-2.896-24.184-5.705-26.901-8.424c-4.348-4.35-6.476-9.92-6.385-16.713c0.09-8.783,3.577-20.24,10.461-34.369
		c5.706-11.506,10.598-20.107,14.673-25.816c6.884-9.78,14.357-16.573,22.418-20.379c7.517-3.439,20.197,1.677,38.041,15.354
		c13.042,9.965,26.266,22.282,39.671,36.955l5.027,6.113l-0.815,5.299l-7.064-8.831c-12.771-13.946-26.04-25.903-39.807-35.866
		C244.715,482.689,233.755,478.342,227.778,481.059"/>
	<path fill="#0D131A" d="M102.377,172.651c1.813-1.087,3.759-1.495,5.843-1.223c2.083,0.361,3.895,1.313,5.434,2.854l18.206,22.825
		l34.917,42.116c14.4,16.757,25.316,28.35,32.743,34.782l4.076-20.923c1.63-8.787,2.808-13.043,3.532-12.771l3.125,7.88
		c-0.634,0-1.857,6.024-3.669,18.07c-2.717,13.223-6.657,22.145-11.82,26.764c-4.347,3.985-5.072,3.487-2.173-1.494l3.396-7.88
		l1.766-5.164c-7.156-5.614-18.478-17.57-33.965-35.867l-37.227-45.377l-15.76-18.884c-1.811-1.811-3.803-2.174-5.977-1.087
		c-1.63,0.906-2.717,2.535-3.261,4.892c-0.724,2.625-0.634,5.434,0.271,8.423c4.077,13.404,8.378,34.598,12.907,63.583
		c5.979,38.402,6.883,64.035,2.717,76.896c-1.992,6.16-3.623,9.964-4.892,11.413c-1.539,1.54-1.223-2.536,0.952-12.227
		c3.079-14.312,1.993-38.449-3.261-72.415c-4.256-27.534-8.875-49.453-13.857-65.757c-1.268-3.985-1.132-8.016,0.408-12.091
		C98.166,176.455,100.022,174.009,102.377,172.651"/>
	<path fill="#0D131A" d="M366.492,85.564c4.348-5.253,8.243-7.109,11.685-5.571c3.895,1.722,8.604,17.526,14.129,47.416
		c8.061,44.11,16.801,81.607,26.22,112.493l16.169-40.894c4.801-10.506,9.102-14.809,12.906-12.906
		c3.438,1.721,5.251,7.29,5.434,16.71c0.271,10.778,0.181,35.822-0.271,75.132c0,37.859,1.223,65.212,3.668,82.059
		c1.089,7.7,0.906,11.051-0.543,10.054c-1.451-0.906-2.716-4.303-3.806-10.189c-1.811-9.601-3.122-24.818-3.938-45.649
		c-0.633-16.123-0.86-30.027-0.681-41.71l0.409-66.3c-0.09-6.612-0.996-10.643-2.716-12.091c-1.903-1.54-4.167,1.223-6.793,8.287
		l-8.289,23.096c-6.521,17.028-12.409,29.437-17.661,37.227c-2.625,3.985-4.757,6.295-6.387,6.929
		c-1.72,0.724-1.269-1.359,1.357-6.25l7.202-15.76c-7.247-21.737-15.353-56.201-24.32-103.39
		c-7.246-38.404-11.82-57.605-13.722-57.605c-2.988,0.09-5.57,1.856-7.745,5.299c-2.264,3.532-3.667,8.106-4.211,13.722
		c0,18.567-0.906,35.777-2.717,51.627c-3.532,30.794-10.959,51.219-22.281,61.273l-5.57,3.805l-3.125,0.542
		c-0.271-0.361,0.227-1.313,1.495-2.852l4.483-4.892c-3.171-4.348-8.333-13.405-15.488-27.172l-16.304-31.792l-6.385-11.956
		c-1.63-2.717-3.08-3.579-4.348-2.582c-1.358,1.087-2.129,4.394-2.31,9.919c-0.272,9.872-0.318,20.922-0.136,33.149l-5.299-7.064
		l1.224-28.532c0.271-8.694,1.947-13.812,5.026-15.352c2.717-1.449,5.345-0.09,7.88,4.076l7.745,14.538l15.488,30.433
		c6.975,13.767,12.273,23.503,15.896,29.209c7.519-9.418,12.816-26.401,15.896-50.947c1.54-12.591,2.582-29.664,3.125-51.221
		l0.408-8.423C359.834,95.934,362.235,90.636,366.492,85.564"/>
	<path fill="#0D131A" d="M300.735,193.166c3.624,7.608,8.469,19.926,14.538,36.954c1.631,4.348,4.394,9.601,8.288,15.76
		c3.803,5.887,7.743,11.141,11.819,15.76c9.057,10.416,14.808,17.843,17.255,22.281c4.256,7.609,5.977,16.031,5.163,25.271
		l-3.669,35.323c-0.724,22.371,2.401,36.411,9.375,42.117c3.714,3.081,4.393,4.666,2.039,4.756c-2.356,0.09-5.254-1.404-8.696-4.483
		c-5.072-4.348-7.563-16.711-7.472-37.091l2.31-40.351c0.634-8.514-0.679-15.715-3.94-21.602
		c-1.268-2.445-7.337-10.823-18.205-25.134l-10.735-14.808c-3.441-5.345-5.932-10.145-7.472-14.402
		c-5.344-14.582-10.055-25.904-14.13-33.966c-6.25-12.227-13.043-21.466-20.379-27.716c-18.296-15.668-45.423-42.071-81.38-79.206
		l-12.363-12.772c-4.167-3.985-6.793-5.57-7.88-4.754c-3.895,2.626-0.634,12.499,9.782,29.618l16.575,27.851
		c6.069,12.228,8.741,22.734,8.016,31.521c-0.905,9.511-1.811,13.495-2.716,11.956c-0.816-1.359-1.54-6.386-2.174-15.081
		c-7.88,0.453-17.752-1.811-29.617-6.793c-9.42-4.076-14.267-5.524-14.538-4.347c-1.45,5.887,0.544,10.914,5.979,15.08
		c7.971,6.069,15.941,15.896,23.912,29.482c10.596,18.024,18.07,38.313,22.417,60.867c5.706,29.889,10.145,61.228,13.315,94.015
		c0.453,4.62,1.811,8.696,4.076,12.228c3.17,4.8,8.423,9.375,15.76,13.722c26.266,15.217,42.795,27.626,49.588,37.226l3.805,9.238
		c-3.352-4.619-10.598-11.23-21.737-19.834c-11.504-8.877-23.505-16.983-36.004-24.321c-8.877-5.163-14.493-9.284-16.847-12.364
		c-1.992-2.535-3.26-6.793-3.803-12.77c-2.99-34.509-7.336-66.664-13.043-96.461c-4.167-21.648-11.413-41.302-21.738-58.964
		c-7.88-13.496-15.714-23.232-23.503-29.211c-4.258-3.26-7.247-7.517-8.967-12.77c-1.45-4.438-1.63-8.063-0.543-10.869
		c0.997-2.718,7.745-1.359,20.244,4.075c14.854,6.431,25.179,9.329,30.976,8.695c-1.177-8.514-3.94-16.665-8.287-24.455
		l-16.033-26.765c-12.68-22.734-15.896-36.185-9.646-40.352c2.264-1.539,6.159,0.092,11.685,4.892l14.129,14.265l39.128,40.215
		c18.295,18.205,34.373,32.833,48.23,43.884C289.503,173.285,295.211,181.481,300.735,193.166"/>
	<path fill="#0D131A" d="M328.723,317.479c-6.431-26.447-15.805-46.826-28.123-61.137c-12.228-14.311-25.86-25.543-40.894-33.694
		c-9.148-4.982-17.436-8.241-24.863-9.782c-1.902,25.723-2.853,48.729-2.853,69.017c0,12.409,0.363,22.553,1.087,30.434
		c1.177,11.685,2.808,21.195,4.891,28.53c2.716,9.693,6.521,16.712,11.413,21.06l11.14,7.743l12.636,6.793
		c-0.272,0.272-0.182,0.906,0.271,1.903l0.543,1.766c-12.046-5.526-20.833-10.417-26.357-14.673
		c-5.616-4.348-9.874-11.322-12.771-20.923c-2.174-7.065-3.85-16.62-5.027-28.667c-1.448-15.216-1.676-37-0.679-65.349l2.038-38.584
		c-7.79-1.631-11.639-3.079-11.549-4.348c0-1.268,3.352-1.268,10.054,0c11.502,2.264,21.692,5.708,30.569,10.327
		c15.126,7.97,29.935,20.424,44.426,37.362c14.13,16.573,24.365,40.71,30.704,72.411c5.616,27.988,6.477,49.228,2.582,63.72
		l-1.901,4.619c-0.726,0.543-0.861-0.906-0.408-4.348l-9.782-15.216l-9.375-13.45c-0.453-0.543-0.408,1.132,0.136,5.026l1.63,10.733
		c0.724,4.348-0.045,4.076-2.31-0.815c-11.592-12.045-17.661-17.661-18.204-16.847c-0.543,0.907,0.453,6.884,2.988,17.934
		c1.087,4.438,0.499,4.529-1.766,0.271l-7.472-5.571c-5.072-3.532-7.563-4.98-7.472-4.347l2.445,8.287
		c-0.997-0.543-1.766-0.859-2.31-0.95l-2.853-7.609c-0.997-2.625-1.313-4.211-0.951-4.754c0.453-0.816,2.944,0.498,7.473,3.94
		l10.188,7.88c-1.812-6.431-2.989-11.549-3.532-15.353c-0.634-4.438,0.228-5.706,2.582-3.805l8.151,7.201l10.598,10.597
		c-2.084-9.872-3.126-15.308-3.126-16.303c0-2.264,1.087-2.219,3.261,0.136c1.268,1.177,7.97,10.643,20.108,28.395l0.271-9.103
		C336.331,358.283,333.795,338.131,328.723,317.479"/>
	<path fill="#0D131A" d="M773.804,58.527c2.535,4.892,1.042,11.369-4.48,19.429l-29.075,34.101
		c-15.94,18.568-25.679,32.154-29.211,40.758l48.504-17.662c5.977-2.627,9.873-1.858,11.683,2.31
		c1.9,4.166-0.181,8.469-6.248,12.906c-11.321,8.243-22.553,19.928-33.693,35.053c-13.135,18.024-24.908,39.31-35.326,63.855
		c-7.787,18.206-14.31,40.668-19.561,67.387c-2.63,13.496-5.119,27.082-7.475,40.759c-1.451,4.529-5.842,10.054-13.18,16.575
		c-7.154,6.34-13.222,10.325-18.205,11.956c-24.272,7.7-44.426,16.123-60.457,25.271c-14.765,8.426-24.502,16.531-29.211,24.321
		c-1.358,2.354-2.445,3.577-3.263,3.667c-0.905,0.182-0.947-1.177-0.135-4.074c2.808-10.508,17.118-22.146,42.933-34.919
		c14.944-7.518,29.393-13.586,43.34-18.206c6.521-2.264,13.225-6.385,20.108-12.364c6.883-5.977,11.048-11.276,12.498-15.896
		l2.717-13.449c2.716-15.58,5.435-28.848,8.153-39.809c4.709-19.382,10.507-37.452,17.39-54.208
		c8.968-22.1,20.195-42.434,33.691-61.002c11.687-16.122,22.872-28.169,33.56-36.14c3.982-2.898,6.205-5.479,6.657-7.743
		c0.541-2.356-1.358-2.853-5.706-1.495l-23.099,9.238c-13.768,5.616-23.32,9.194-28.666,10.733l-2.852,5.979
		c-2.357,4.256-3.081,3.17-2.175-3.261c1.448-9.963,10.007-24.59,25.677-43.882c8.515-10.507,20.56-24.682,36.139-42.525
		c5.074-6.432,6.116-10.372,3.126-11.82c-2.986-1.45-8.377,1.087-16.167,7.607c-18.659,15.76-41.165,33.694-67.523,53.801
		c-31.156,23.821-53.801,39.854-67.932,48.095c-8.513,4.892-15.67,11.91-21.464,21.058c-3.534,5.525-7.925,14.538-13.179,27.037
		l-7.745,18.884c-3.08,6.793-6.748,12.68-11.006,17.662c-4.528,5.345-12.454,13.315-23.775,23.913
		c-8.603,8.332-14.398,14.446-17.39,18.341c-4.801,6.34-7.338,12.499-7.608,18.477c-0.813,19.474-2.581,34.781-5.3,45.921
		c-4.165,16.394-10.822,26.901-19.97,31.521c-2.718,1.358-4.302,1.811-4.756,1.358c-0.545-0.543,0.454-1.992,2.99-4.347
		c8.967-8.061,14.81-18.342,17.524-30.841c1.542-7.064,2.807-22.055,3.806-44.97c0.271-5.345,2.397-10.914,6.384-16.711
		c3.532-5.163,9.238-11.548,17.118-19.155l12.5-11.277l12.772-12.636c4.074-4.71,8.147-11.684,12.226-20.922l8.968-22.282
		c6.342-15.125,10.688-24.545,13.044-28.259c3.804-6.067,9.51-11.275,17.116-15.623c31.884-18.568,79.706-53.982,143.471-106.243
		C763.752,55.267,770.997,53.184,773.804,58.527"/>
	<path fill="#0D131A" d="M673.811,221.834c0-8.696-1.088-15.625-3.259-20.787c-6.703,0-14.313,1.585-22.827,4.754
		c-15.575,5.888-31.021,16.123-46.325,30.705c-23.644,22.463-43.113,50.497-58.423,84.099c-11.772,25.903-18.84,48.774-21.194,68.61
		c10.234-9.874,17.438-16.394,21.602-19.565c2.175-1.54,3.397-2.172,3.671-1.901l-1.36,3.667l-6.385,12.093l13.857-11.82
		c2.986-2.264,4.619-2.763,4.891-1.495c0.181,1.087-0.361,3.985-1.632,8.696l-3.529,11.004c6.793-4.348,10.867-6.521,12.227-6.521
		c0.814,0-0.588,3.305-4.21,9.917l-8.154,14.676c8.696-6.432,16.802-11.597,24.321-15.49l61.953-31.521
		c5.433-2.718,10.28-9.827,14.538-21.331c3.168-8.785,5.794-19.292,7.877-31.519l1.768-10.733l7.609-43.068
		C672.813,240.898,673.811,230.075,673.811,221.834 M671.5,198.058c4.71,0.09,7.564,0.679,8.561,1.766
		c0.904,0.997-0.771,1.403-5.027,1.223c1.813,5.435,2.717,12,2.717,19.7c0,8.423-0.949,19.065-2.852,31.927l-7.473,42.117
		l-1.767,10.733c-2.445,14.492-4.983,25.814-7.609,33.965c-4.167,12.862-9.191,20.742-15.08,23.64l-38.854,19.157
		c-19.837,9.872-33.604,17.164-41.302,21.875l-12.637,9.237c-2.536,2.084-3.623,2.22-3.262,0.41
		c0.361-1.724,2.854-6.658,7.474-14.813l5.434-10.325l-10.053,7.064l-2.716,1.495c-0.272-0.271,0.224-1.63,1.493-4.076l4.48-11.141
		l2.313-8.016c0-0.543-2.764,1.676-8.286,6.658l-11.279,10.053c-1.899,1.54-3.031,2.174-3.396,1.903
		c-0.361-0.272,0-1.495,1.09-3.669l6.112-12.907c-0.09-0.271-2.583,1.948-7.475,6.658l-10.324,9.918
		c-0.454,5.072-1.088,7.743-1.9,8.015c-0.818,0.271-1.27-2.264-1.36-7.608c-0.271-19.201,5.706-42.433,17.936-69.696
		c14.219-31.701,33.694-60.549,58.421-86.544c15.216-15.851,31.247-26.947,48.094-33.287
		C653.024,199.778,662.533,197.966,671.5,198.058"/>
	<path fill="#0D131A" d="M498.278,573.986c3.078-3.985,7.742-12.272,13.99-24.862c6.342-12.951,10.418-22.463,12.23-28.53
		l7.745-3.125c-2.266,6.521-7.248,17.482-14.947,32.879c-7.335,14.854-12.045,23.641-14.128,26.355
		c-8.877,11.322-23.234,23.595-43.071,36.82c-19.289,12.77-32.785,19.289-40.483,19.563c-9.147,0.361-18.387-0.997-27.716-4.074
		l-11.548-4.894l2.31-3.122l10.733,4.619c8.696,2.896,17.343,3.982,25.947,3.258c7.338-0.542,19.838-6.745,37.501-18.612
		C475.407,597.673,489.222,585.58,498.278,573.986"/>
	<path fill="#0D131A" d="M495.561,538.527l4.755-2.313c-0.091,1.813-1.402,7.338-3.938,16.576
		c-2.99,10.96-5.842,19.563-8.562,25.814c-2.626,5.977-4.71,9.103-6.249,9.373c-1.632,0.363-3.354-2.31-5.163-8.017
		c-1.899-6.338-3.352-12.635-4.349-18.883l3.126-3.94l2.311,12.771c1.356,7.79,2.626,11.772,3.806,11.957
		c1.265,0.271,3.213-3.761,5.842-12.093L495.561,538.527"/>
	<path fill="#0D131A" d="M296.659,443.831c1.087-9.328,0.77-18.84-0.951-28.53l4.483,3.938l1.359,6.521l0.136,2.445l-1.766,20.108
		l-1.903,17.795c0,3.174,1.269,6.977,3.805,11.414c5.253,9.059,9.918,18.115,13.994,27.174l-1.495,0.271l-2.037-2.72l-14.402-23.502
		c-2.354-3.803-3.532-8.016-3.532-12.637L296.659,443.831"/>
	<path fill="#0D131A" d="M387.958,585.264l1.766-0.136l-0.408,2.308l-3.803,6.252c-2.174,3.896-3.306,7.334-3.396,10.326
		l-0.679,0.813c-0.363,0-0.635-0.361-0.816-1.087c-0.724-3.262-0.453-6.52,0.816-9.783
		C382.705,590.607,384.879,587.709,387.958,585.264"/>
	<path fill="#0D131A" d="M318.397,471.955c-1.902-3.441-2.445-4.982-1.629-4.619c0.814,0.271,2.037,1.402,3.667,3.396
		c4.529,5.797,8.061,13.359,10.598,22.688c1.902,7.063,2.943,13.767,3.125,20.106l-0.271,8.969
		c-0.363,0.632-0.997-1.993-1.903-7.883c-0.814-5.885-2.172-12.227-4.076-19.02C325.282,486.086,322.111,478.203,318.397,471.955"/>
	<path fill="#0D131A" d="M418.256,526.979c-2.535-10.506-2.445-21.058,0.271-31.653c2.808-11.142,8.017-20.063,15.624-26.767
		c2.172-1.813,3.396-2.49,3.668-2.037c0.364,0.451-0.226,1.631-1.768,3.531c-11.593,13.859-16.892,32.697-15.893,56.52
		c0.09,1.177-0.14,1.81-0.682,1.9C418.937,528.473,418.526,527.975,418.256,526.979"/>
	<path fill="#0D131A" d="M481.839,504.152c2.084-3.803,3.126-11.23,3.126-22.281c0-7.245-0.362-14.264-1.09-21.057
		c-9.78,8.422-19.472,19.381-29.073,32.877c-10.596,14.944-17.437,28.215-20.515,39.809c8.425-3.078,18.205-8.15,29.347-15.216
		C474.14,511.581,480.207,506.869,481.839,504.152 M482.79,457.553c6.158-4.979,9.6-7.335,10.325-7.063
		c0.726,0.271-1.448,3.261-6.521,8.967c1.357,5.342,2.174,12.545,2.445,21.602c0.362,11.322-0.816,19.338-3.532,24.047
		c-1.903,3.353-8.877,8.651-20.922,15.896c-12.411,7.607-22.645,12.499-30.707,14.673c-1.084,2.808-1.99,4.349-2.716,4.619
		c-0.725,0.271-0.682-1.448,0.138-5.161c2.896-13.314,8.829-26.813,17.796-40.488C458.425,480.332,469.656,467.973,482.79,457.553"
		/>
	<path fill="#0D131A" d="M462.682,480.242l2.039-0.949c3.532,7.518,5.025,14.809,4.483,21.873
		c-0.636,7.154-3.262,13.357-7.88,18.611c-2.99,3.531-6.658,5.115-11.007,4.755c-2.354-0.091-4.618-0.771-6.793-2.035
		c-2.174-1.271-3.896-2.81-5.16-4.619c1.354-3.354,3.396-7.474,6.111-12.364C449.817,495.82,455.889,487.398,462.682,480.242"/>
	<path fill="#0D131A" d="M392.306,437.855c7.698,4.709,11.322,7.605,10.87,8.694c-0.363,0.994-4.394-0.68-12.092-5.028
		L288.779,381.47c-7.97-4.709-12.544-6.385-13.722-5.027c-0.997,1.087,0.453,4.71,4.348,10.869
		c4.437,7.065,25.677,37.454,63.718,91.163c5.163,7.702,7.337,11.912,6.522,12.639c-0.906,0.726-4.122-2.719-9.646-10.325
		c-40.759-56.157-63.041-87.271-66.844-93.339c-5.706-9.058-6.838-14.764-3.397-17.12c3.352-2.264,9.962-0.452,19.836,5.435
		L392.306,437.855"/>
	<path fill="#0D131A" d="M402.496,453.886c-0.092-3.079,0.09-4.938,0.545-5.569c0.451-0.633,0.947,1.177,1.49,5.435
		c1.271,9.601-0.091,18.021-4.074,25.271c-4.076,7.519-10.416,12.771-19.02,15.76l-5.027,0.816c-0.453-0.546,0.95-1.543,4.211-2.99
		c7.609-3.441,13.315-8.741,17.118-15.896C401.091,470.188,402.677,462.581,402.496,453.886"/>
	<path fill="#0D131A" d="M335.244,579.016c-0.181-1.902,0.09-2.492,0.816-1.771c0.724,0.729,1.268,1.86,1.629,3.396l0.816,10.734
		c0.363,6.521,0.77,10.777,1.223,12.771c-1.901-0.361-3.261-2.266-4.076-5.703l-0.816-5.028
		C335.652,587.709,335.788,582.906,335.244,579.016"/>
	<path fill="#FFFFFF" d="M464.313,499.673c0,1.265-0.455,2.354-1.36,3.259c-0.903,0.905-1.945,1.36-3.125,1.36
		c-0.994,0-1.945-0.364-2.853-1.09c-1.088-0.813-1.63-1.993-1.63-3.529c0-1.271,0.452-2.356,1.355-3.264
		c0.817-0.904,1.859-1.358,3.126-1.358c1.27,0,2.354,0.497,3.264,1.496C463.903,497.45,464.313,498.492,464.313,499.673"/>
	<path fill="#FFFFFF" d="M313.778,513.393c-1.539,0.271-2.671-0.904-3.396-3.529c-0.725-2.629-0.499-4.215,0.679-4.758
		c0.997-0.451,1.948,0.771,2.854,3.668C314.729,511.672,314.684,513.211,313.778,513.393"/>
	<path fill="#0D131A" d="M303.044,485.813l2.174,15.354c1.268,7.335,2.445,12.315,3.532,14.944c0.816,2.174,2.627,4.709,5.435,7.608
		l5.163,4.209C316.27,511.988,310.834,497.95,303.044,485.813 M305.626,517.333c-1.45-4.077-2.808-10.235-4.076-18.479
		c-1.359-8.692-2.219-17.023-2.582-24.998c7.427,10.961,12.682,20.108,15.76,27.446c3.442,8.151,5.842,17.89,7.201,29.212
		c0.452,3.713,0.407,5.479-0.137,5.297c-0.543-0.092-1.313-1.631-2.31-4.619l-8.424-6.93
		C308.072,521.455,306.26,519.143,305.626,517.333"/>
	<path fill="#FFFFFF" d="M451.677,580.1c3.532-0.271,6.567-1.902,9.103-4.89c1.902,2.265,3.486,5.342,4.758,9.237l-13.587,11.684
		c-0.271-1.629-0.409-4.391-0.409-8.286C451.451,584.313,451.496,581.73,451.677,580.1"/>
	<path fill="#DBDCDC" d="M451.541,584.447l0.271-4.754l4.619-1.496l4.076-3.123l4.213,7.471c-1.448,1.09-3.761,1.813-6.929,2.174
		L451.541,584.447"/>
	<path fill="#0D131A" d="M449.775,580.779l3.668-0.815c-0.271,4.983-0.181,10.011,0.271,15.083l-3.667,2.717
		C449.23,593.145,449.141,587.482,449.775,580.779"/>
	<path fill="#0D131A" d="M459.557,576.434l2.445-2.311c2.174,2.719,3.806,5.841,4.89,9.373l-3.122,2.584
		C462.862,582.545,461.46,579.329,459.557,576.434"/>
	<path fill="#0D131A" d="M556.021,455.924l-4.215-28.259l2.854-3.396c2.626,11.412,5.069,25.9,7.335,43.475
		c2.719,20.561,3.264,32.652,1.632,36.273c-1.451,3.262-4.349,5.979-8.696,8.151l-13.313,5.028
		c-3.439,1.178-9.148,3.894-17.116,8.15c-15.94,8.151-26.04,13.857-30.298,17.118c-7.699,5.888-17.436,16.394-29.21,31.521
		c-1.994,2.627-4.074,4.484-6.249,5.57l-7.475,2.036l-11.55,2.313c-13.222,3.804-25.45,10.01-36.679,18.612
		c-10.146,7.698-17.12,15.306-20.924,22.823c-1.812,3.622-3.352,5.888-4.619,6.793l-7.745,0.407
		c-8.424-1.9-15.76-5.434-22.01-10.598c-7.971-6.608-12.454-14.809-13.451-24.592c-3.26-6.793-7.2-12.362-11.819-16.711
		l-5.843-5.433c-2.445-2.354-4.302-4.619-5.571-6.793c-3.259-5.616-4.98-12.317-5.163-20.108
		c-0.181-4.438,0.363-13.268,1.631-26.492l0.135-5.164l1.63,3.672l1.766,3.667c-1.085,10.87-1.539,18.432-1.358,22.688
		c0.363,7.609,2.129,14.084,5.298,19.429c1.813,3.262,4.892,6.884,9.24,10.867l7.2,7.475c2.808,3.351,5.209,7.111,7.201,11.275
		l0.135,1.629c0,8.154,3.397,14.989,10.19,20.519c5.072,4.165,11.594,7.29,19.564,9.374c3.261,0.814,5.434,0.814,6.521,0l5.163-6.93
		c5.435-8.334,14.084-16.485,25.949-24.455c11.411-7.697,22.599-13.135,33.557-16.303l10.734-2.445l6.387-1.633
		c1.538-0.723,3.077-2.125,4.619-4.209c10.506-13.586,20.197-24.049,29.075-31.386c7.605-6.25,17.796-12.68,30.567-19.292
		c4.71-2.354,11.049-4.89,19.02-7.607l11.006-4.35c3.171-1.81,5.345-3.982,6.52-6.52c0.818-1.633,1.226-5.163,1.226-10.6
		C558.872,483.094,557.921,471.23,556.021,455.924"/>
	<path fill="#0D131A" d="M475.997,571.947l1.63,3.941c-26.086,26.084-46.194,41.348-60.322,45.785
		c-4.077,1.268-9.646,0.906-16.712-1.088c-7.154-1.993-11.322-4.438-12.499-7.335l3.533-1.496c0.725,1.813,3.94,3.622,9.646,5.435
		c6.067,1.994,10.87,2.4,14.399,1.224c8.696-2.716,20.834-10.779,36.41-24.185C461.324,586.352,469.295,578.923,475.997,571.947"/>
</g>
</svg>
