<?xml version="1.0" encoding="utf-8"?>
<!-- Generator: Adobe Illustrator 16.0.0, SVG Export Plug-In . SVG Version: 6.00 Build 0)  -->
<!DOCTYPE svg PUBLIC "-//W3C//DTD SVG 1.1//EN" "http://www.w3.org/Graphics/SVG/1.1/DTD/svg11.dtd">
<svg version="1.1" id="Layer_1" xmlns="http://www.w3.org/2000/svg" xmlns:xlink="http://www.w3.org/1999/xlink" x="0px" y="0px"
	 width="800px" height="800px" viewBox="0 0 800 800" enable-background="new 0 0 800 800" xml:space="preserve">
<g>
	<path fill="#F9DAD9" d="M123.316,685.165c-18.266-26.425-26.729-57.353-25.39-92.783c1.22-30.565,12.665-56.927,34.34-79.09
		c20.578-20.944,44.444-32.693,71.598-35.25L356.56,662.699c-7.427,20.701-23.014,38.724-46.758,54.063
		c-28.981,18.874-61.309,25.937-96.987,21.188C173.972,732.96,144.139,715.363,123.316,685.165"/>
	<path fill="#D7BDBC" d="M221.216,569.73c-4.626-10.471-7.854-25.451-9.68-44.933c-1.826-19.845-2.07-28.006-0.73-24.472
		c13.15,33.24,30.684,62.707,52.602,88.398c26.18,30.811,56.866,53.942,92.056,69.408c-4.506,18.874-17.168,36.471-37.99,52.785
		c-18.509,14.244-35.982,22.648-52.421,25.204c-48.462,7.43-85.237-0.179-110.32-22.83c14.976,7.065,28.615,11.385,40.914,12.97
		c11.324,1.46,20.699,0.546,28.128-2.74c6.453-3.043,10.531-8.95,12.238-17.716c1.947-9.741-0.792-17.843-8.22-24.292
		l-25.936-23.017c-13.152-13.272-20.885-24.478-23.198-33.608c6.333,7.797,14.003,14.065,23.014,18.813
		c8.889,4.748,18.084,7.43,27.58,8.036c8.889,0.488,18.571-1.581,29.042-6.209c10.228-4.383,14.064-7.551,11.508-9.5
		c-6.941-5.11-15.281-14.184-25.023-27.213C234.429,594.938,226.575,581.906,221.216,569.73"/>
	<path fill="#0D131A" d="M207.701,485.711c-40.548,3.655-70.138,20.702-88.768,51.143c-16.683,27.275-21.491,58.51-14.43,93.698
		c6.697,32.392,21.857,57.901,45.479,76.533c21.188,16.679,46.272,25.754,75.252,27.214c27.764,1.582,53.212-4.08,76.348-16.989
		c24.354-13.638,40.731-32.571,49.134-56.802c2.191-6.451,4.626-8.77,7.306-6.939c2.679,1.703,2.801,5.236,0.366,10.592
		c-12.299,27.152-31.843,47.674-58.632,61.554c-25.084,13.03-52.116,18.207-81.096,15.526c-29.468-2.683-54.978-12.971-76.531-30.87
		c-23.501-19.359-38.417-45.054-44.75-77.076c-9.375-47.366-0.791-85.968,25.754-115.804c11.081-12.415,24.233-21.732,39.454-27.941
		c14.612-6.087,29.04-8.585,43.288-7.489c0.73,0.976,1.218,1.217,1.46,0.731L207.701,485.711"/>
	<path fill="#0D131A" d="M179.572,557.859c3.41-2.682,5.784-3.838,7.124-3.471c1.217,0.364,0.852,1.643-1.096,3.834
		c-10.352,11.324-12.968,27.094-7.854,47.307c5.356,21.553,17.473,34.887,36.346,40.002c13.395,3.531,26.668,2.496,39.818-3.105
		c13.639-5.723,23.625-14.979,29.956-27.764c1.705-3.41,3.288-4.323,4.749-2.738c1.461,1.581,1.583,3.592,0.366,6.025
		c-7.427,15.344-19.666,26.183-36.714,32.513c-15.097,5.479-28.797,6.028-41.096,1.646c-24.353-8.646-38.174-25.512-41.462-50.594
		c-1.338-9.5-0.851-18.632,1.462-27.398C173.242,566.078,176.042,560.658,179.572,557.859"/>
	<path fill="#0D131A" d="M197.838,391.464c1.338,0.73,2.313,1.887,2.922,3.47l41.644,101.917
		c-7.063,33.243-20.761,53.457-41.096,60.641l-21.554,1.46c-10.836-1.093-19.847-3.955-27.032-8.582
		c-20.456-13.151-19.726-36.351,2.192-69.591c-26.423-13.15-45.601-26.85-57.536-41.094c-9.862-11.813-14.185-23.198-12.968-34.157
		c1.828-16.195,14.187-26.423,37.078-30.687C146.085,370.337,171.537,375.878,197.838,391.464"/>
	<path fill="#F9DAD9" d="M145.599,380.689c14.856,0.73,29.042,4.93,42.558,12.602l46.212,115.981
		c-3.288,9.985-8.038,18.571-14.248,25.755c-6.331,7.308-13.516,12.358-21.552,15.16c-14.369,4.991-28.736,2.617-43.105-7.121
		c-3.288-2.313-5.662-4.873-7.124-7.676c-1.218-2.313-2.008-4.506-2.374-6.572c-1.462-7.914,0.305-17.535,5.296-28.859l8.22-14.977
		c2.192-3.045,3.106-5.177,2.74-6.395c-0.366-1.217-2.253-2.616-5.662-4.201c-17.778-8.157-33.181-18.871-46.21-32.145
		c-12.664-12.787-18.571-23.076-17.718-30.869c1.339-10.717,7.672-18.936,18.996-24.659
		C121.247,382.088,132.57,380.078,145.599,380.689"/>
	<path fill="#D7BDBC" d="M163.864,399.134l-0.182-15.708c8.766,2.437,16.925,5.725,24.474,9.864l46.212,115.981
		c-4.628,14.006-11.995,25.025-22.102,33.063c-14.003-17.289-25.206-38.113-33.608-62.468
		C170.014,454.537,165.083,427.627,163.864,399.134"/>
	<path fill="#F9DAD9" d="M627.432,236.211c8.032,8.889,13.881,16.438,17.532,22.648l48.951,16.622
		c32.998,10.96,51.141,17.961,54.432,21.006c4.627,4.14,7.185,10.713,7.669,19.726c0.485,8.523-0.85,14.854-4.021,18.994
		c-3.896,4.993-12.116,9.864-24.654,14.612c-10.596,4.141-20.702,6.942-30.323,8.404c7.188,21.43,10.656,45.542,10.414,72.328
		c-0.246,27.399-4.322,54.311-12.237,80.731c-18.39,61.129-50.84,104.051-97.354,128.77
		c-38.966,20.702-81.217,32.815-126.759,36.347c-41.275,3.166-77.625-0.972-109.042-12.42
		c-40.305-19.481-74.398-46.332-102.284-80.551c-25.327-31.173-43.957-66.302-55.892-105.386
		c-4.869-10.11-9.314-27.153-13.334-51.145c-3.773-21.677-5.296-35.251-4.565-40.731c-31.538-10.471-67.701-39.146-108.494-86.027
		c-15.951-18.266-28.737-35.191-38.356-50.776c-9.498-15.465-13.091-24.963-10.778-28.494
		c14.369-21.554,50.778-38.906,109.225-52.055c50.533-11.324,92.909-15.587,127.125-12.786
		c5.601-28.979,20.882-54.125,45.844-75.434c20.822-17.657,44.323-29.833,70.503-36.53c17.534-4.384,36.411-4.689,56.625-0.914
		c29.588,5.48,54.428,19.422,74.521,41.826c20.213-9.74,38.233-16.559,54.063-20.456c17.657-4.505,28.617-4.2,32.88,0.914
		c12.416,15.221,18.688,41.157,18.811,77.808c0.121,32.512-3.53,57.17-10.957,73.974
		C612.331,220.746,619.149,227.08,627.432,236.211"/>
	<path fill="#ED8599" d="M499.759,301.235c6.693-2.922,12.057-4.384,16.072-4.384c9.499,0,17.232,2.313,23.197,6.94
		c-1.096,6.088-2.374,9.864-3.838,11.326c-4.505,4.261-11.138,4.018-19.906-0.732C507.978,310.488,502.805,306.106,499.759,301.235"
		/>
	<path fill="#922F00" d="M539.028,303.791c-7.308-4.748-15.525-7.122-24.658-7.122c-0.485,0-1.035-0.427-1.642-1.278
		c-0.489-0.854-1.035-1.28-1.646-1.28c12.905-7.062,20.031-11.385,21.369-12.968c1.582,1.705,3.046,4.932,4.385,9.68
		C538.055,295.207,538.782,299.53,539.028,303.791"/>
	<path fill="#0D131A" d="M501.219,302.513c-1.218-1.583-1.398-2.556-0.55-2.922l9.683-4.2c10.105-1.219,19.664,1.033,28.678,6.758
		v4.2C527.701,297.826,515.1,296.547,501.219,302.513"/>
	<path fill="#ED85AD" d="M462.863,316.029c2.191-0.121,3.898,0.914,5.112,3.106c1.099,1.826,1.397,3.531,0.913,5.114
		c-0.606,1.948-1.886,3.775-3.834,5.48l-8.95,5.844c-6.575,3.775-11.995,5.602-16.254,5.48c-2.191,0-3.777-1.036-4.752-3.106
		c-0.854-2.069-0.788-4.14,0.183-6.21c1.828-3.773,6.026-7.427,12.603-10.958C453.73,317.612,458.723,316.029,462.863,316.029"/>
	<path fill="#ED85AD" d="M590.168,244.613c2.679,3.531,0.309,8.281-7.122,14.246c-2.802,2.313-5.723,3.654-8.768,4.02
		c-3.045,0.243-5.115-0.487-6.208-2.192c-1.949-3.167,0.546-7.368,7.489-12.604c3.896-3.043,6.998-4.872,9.311-5.48
		C587.063,242.116,588.829,242.787,590.168,244.613"/>
	<path fill="#524423" d="M160.942,180.868c9.498,7.672,17.777,16.074,24.84,25.206c9.011,11.934,16.014,24.233,21.004,36.896
		c4.993,12.665,6.211,20.943,3.654,24.84l-34.886,1.28c-19.726-2.315-41.767-6.515-66.12-12.604
		c-25.693-6.453-45.907-13.029-60.64-19.726c-16.925-7.672-23.196-14.064-18.813-19.178c10.473-12.299,30.32-24.049,59.544-35.252
		c26.91-10.473,44.628-14.794,53.151-12.968C146.694,170.336,152.784,174.172,160.942,180.868"/>
	<path fill="#524423" d="M537.2,72.192c8.4-4.018,17.9-7.124,28.492-9.315l25.754-0.73c5.237,1.705,10.535,9.498,15.894,23.38
		c4.869,12.906,7.122,22.891,6.755,29.954c-6.571-8.402-19.3-17.778-38.171-28.128C557.66,77.367,544.751,72.314,537.2,72.192"/>
	<path fill="#D7BDBC" d="M391.629,189.087c-2.435-2.435-3.897-6.94-4.384-13.516c-0.487-6.819,0.366-13.638,2.558-20.456
		c5.601-18.146,17.229-28.067,34.887-29.773c16.925-1.582,30.077,4.444,39.451,18.083c4.627,6.819,6.939,13.029,6.939,18.63
		c-8.279-8.522-16.864-14.309-25.754-17.352c-7.062-2.435-13.395-2.982-18.992-1.644c-14.857,3.53-25.086,12.298-30.688,26.302
		C392.847,176.302,391.507,182.877,391.629,189.087"/>
	<path fill="#D7BDBC" d="M420.673,230.916c13.271,6.695,26.543,9.132,39.816,7.306c9.01-1.217,18.143-4.202,27.396-8.95
		c13.764-7.063,24.174-16.804,31.233-29.224c0,5.602-1.827,12.42-5.479,20.456c-4.26,9.253-9.864,17.17-16.805,23.744
		c-11.931,10.838-25.688,15.831-41.275,14.978c-14.005-0.73-26.91-6.392-38.725-16.986c-9.257-8.281-15.465-16.865-18.629-25.754
		L420.673,230.916"/>
	<path fill="#D7BDBC" d="M274.549,313.289c-11.566,28.494-13.271,65.572-5.114,111.234c7.306,41.522,19.057,73.854,35.251,96.985
		c20.701,29.835,48.341,54.371,82.924,73.61c32.027,17.773,66.544,29.283,103.562,34.518c36.043,4.994,69.286,3.35,99.729-4.93
		c31.536-8.645,55.401-23.38,71.6-44.2c-32.391,44.688-80.186,74.034-143.382,88.035c-55.038,12.299-104.657,10.778-148.859-4.565
		c-47.855-16.683-88.282-49.068-121.279-97.17c-35.8-52.236-56.379-114.396-61.736-186.485
		c-0.975-13.64,11.019-28.921,35.982-45.846C246.728,318.403,263.834,311.341,274.549,313.289"/>
	<path fill="#D7BDBC" d="M593.456,676.762c-20.456,28.01-38.599,45.967-54.428,53.885c-6.822,3.527-14.733,5.662-23.744,6.392
		c-11.324,0.975-20.884-0.914-28.678-5.662c-4.873-2.92-10.777-9.738-17.718-20.456c-7.305-11.323-12.48-22.098-15.522-32.329
		c22.159,0,48.523-4.263,79.086-12.784c36.285-10.105,66.302-23.439,90.046-40.002C621.402,634.57,611.724,651.559,593.456,676.762"
		/>
	<path fill="#D7BDBC" d="M356.377,306.167c8.645,1.705,18.509,16.864,29.59,45.479c10.715,27.396,15.403,47.063,14.064,58.994
		c-0.854,7.919-5.053,12.604-12.604,14.066c-7.548,1.338-11.566-2.621-12.054-11.874c-0.487-9.617-3.775-25.752-9.864-48.402
		c-5.966-22.403-11.324-38.964-16.072-49.68c-0.975-2.192-0.305-4.263,2.008-6.21C353.395,306.715,355.04,305.922,356.377,306.167"
		/>
	<path fill="#D7BDBC" d="M684.602,324.615c11.566-1.219,25.568-3.715,42.009-7.49c15.34-3.531,24.719-6.271,28.128-8.218
		c3.166,10.958,2.19,20.029-2.92,27.214c-2.562,3.654-11.324,8.402-26.305,14.248c-14.369,5.478-23.684,8.036-27.945,7.67
		C694.158,344.401,689.835,333.259,684.602,324.615"/>
	<path fill="#FFFFFF" d="M751.268,338.861c3.773-2.558,5.602-7.488,5.479-14.794c-0.246-5.602-1.217-10.291-2.924-14.064
		c4.142,1.826,8.461,4.687,12.967,8.584c4.751,4.139,6.761,7.124,6.029,8.95c-0.854,2.192-3.531,4.505-8.036,6.94
		C760.156,337.156,755.651,338.616,751.268,338.861"/>
	<path fill="#FFFFFF" d="M490.444,737.401l8.946,0.366c8.769,1.34,16.439,1.34,23.016,0c4.384-0.853,9.071-2.615,14.063-5.298
		c3.412-1.824,5.661-2.435,6.762-1.824c1.702,1.094,0.789,5.421-2.742,12.968c-3.776,8.039-8.036,12.908-12.787,14.61
		c-3.647,1.339-10.593-1.035-20.82-7.122C497.021,745.255,491.537,740.692,490.444,737.401"/>
	<path fill="#0D131A" d="M174.092,158.585c47.368-6.941,84.446-7.063,111.233-0.366c6.21,1.583,9.255,2.983,9.134,4.2l-8.402,0.55
		c-45.663-6.455-95.04-3.288-148.129,9.496c-51.265,12.298-84.446,27.885-99.545,46.759c-4.018,4.993-1.278,15.403,8.22,31.232
		c8.768,14.369,21.552,30.868,38.355,49.5c39.088,43.47,71.539,70.014,97.354,79.635c5.48,2.069,7.732,4.261,6.758,6.574
		l-10.046-0.182c-26.302-11.447-53.455-31.294-81.461-59.543c-20.822-20.943-40.123-44.323-57.9-70.138
		c-10.351-15.099-15.222-25.936-14.612-32.512c0.609-7.428,7.792-15.465,21.552-24.11
		C78.994,179.956,121.488,166.256,174.092,158.585"/>
	<path fill="#0D131A" d="M531.722,126.804c8.89,46.394-4.566,80.974-40.362,103.745c-16.564,10.594-34.828,14.064-54.799,10.41
		c-19.726-3.652-33.485-12.663-41.279-27.032c-8.036-15.099-9.071-30.075-3.104-44.932c5.48-13.759,14.491-22.769,27.032-27.032
		c17.657-5.844,32.146-3.47,43.468,7.124c10.354,9.498,13.702,20.213,10.048,32.146c-2.313,7.185-4.261,9.985-5.842,8.402
		c-1.706-1.583-1.889-4.993-0.55-10.228c3.041-12.056-1.339-21.37-13.151-27.946c-11.688-6.453-23.255-6.576-34.7-0.366
		c-10.597,5.723-17.599,13.7-21.007,23.928c-3.531,10.836-2.132,22.223,4.201,34.155c7.308,13.516,19.483,21.979,36.53,25.388
		c17.289,3.409,33.79,0.426,49.498-8.95c19.363-11.446,32.022-27.702,37.991-48.768c5.602-19.847,4.445-40.121-3.47-60.822
		c-8.161-21.309-21.678-38.355-40.549-51.142c-20.944-14.248-45.359-20.822-73.241-19.726
		c-31.539,1.096-60.581,11.812-87.125,32.146c-27.885,21.431-45.967,48.341-54.248,80.731l-3.47,1.278
		c-2.192,0.121-3.105-0.427-2.74-1.644c9.985-37.139,29.711-66.729,59.178-88.768c27.398-20.579,57.596-30.868,90.598-30.868
		c33.118,0,61.125,9.498,84.017,28.494C514.856,83.211,527.216,103.303,531.722,126.804"/>
	<path fill="#0D131A" d="M595.648,60.32c9.862,6.332,17.168,24.231,21.916,53.698c5.604,35.191,2.74,70.016-8.582,104.476
		c-1.098,3.409-2.374,3.959-3.835,1.644c-1.464-2.19-1.827-4.687-1.1-7.488c9.378-31.05,11.327-62.953,5.849-95.708
		c-4.749-28.13-11.385-44.325-19.91-48.586c-5.358-2.558-16.254-1.644-32.694,2.74c-16.195,4.384-30.563,10.167-43.106,17.352
		l-6.025-0.366c-1.339-1.705-1.278-3.043,0.187-4.018c14.485-9.132,31.352-16.256,50.594-21.37
		C577.932,57.702,590.168,56.909,595.648,60.32"/>
	<path fill="#0D131A" d="M86.968,310.185c-19.117-20.092-34.643-39.636-46.575-58.632c-11.569-18.385-14.733-27.883-9.498-28.492
		c48.341-6.82,105.511,5.784,171.509,37.808c24.474,11.933,43.896,23.623,58.263,35.068c14.126,11.326,17.839,17.9,11.142,19.728
		c-12.663,3.41-28.797,14.125-48.402,32.146c-15.951,14.733-27.519,27.398-34.704,37.992c-14.368-3.532-29.772-11.568-46.21-24.11
		C127.517,350.369,109.008,333.199,86.968,310.185"/>
	<path fill="#0D131A" d="M429.073,269.819c1.945-0.853,4.444-0.243,7.486,1.826c2.924,2.071,5.54,4.993,7.854,8.768
		c2.683,4.384,4.327,8.281,4.935,11.69c0.606,3.409-0.121,5.662-2.191,6.758c-1.828,0.852-4.263,0-7.305-2.558l-7.125-8.22
		C425.906,277.855,424.689,271.767,429.073,269.819"/>
	<path fill="#0D131A" d="M459.207,302.513l2.742-2.556l1.464-3.288c1.945-4.993,0.729-10.228-3.656-15.708
		c-1.339-1.705-1.339-3.288,0-4.75c1.344-1.46,3.167-1.034,5.48,1.279c2.56,2.557,4.262,6.026,5.115,10.41
		c0.729,4.018,0.547,7.672-0.551,10.96l-3.104,5.844l-4.748,3.654c-1.949,1.094-3.409,0.852-4.384-0.732
		C456.594,305.922,457.142,304.218,459.207,302.513"/>
	<path fill="#FFFFFF" d="M436.927,275.115c1.097,1.583,1.703,3.106,1.824,4.568c0.243,1.46-0.057,2.495-0.914,3.104l-3.283-0.182
		c-1.343-0.608-2.557-1.705-3.655-3.288c-1.093-1.462-1.703-2.922-1.824-4.384c-0.246-1.462,0.061-2.496,0.91-3.104
		c0.855-0.611,1.949-0.611,3.291,0C434.61,272.438,435.831,273.532,436.927,275.115"/>
	<path fill="#0D131A" d="M516.563,227.08l7.304-0.183c2.437,1.582,4.87,4.079,7.309,7.488c2.188,2.801,3.651,5.541,4.381,8.218
		c1.1,3.532,0.609,5.967-1.456,7.306c-2.313,1.583-6.397-1.278-12.238-8.584C516.134,234.262,514.37,229.514,516.563,227.08"/>
	<path fill="#0D131A" d="M545.056,229.087c-1.098-1.46-0.91-2.861,0.546-4.2c1.464-1.339,2.983-1.156,4.568,0.548l6.94,8.95
		c2.191,4.018,3.228,7.549,3.104,10.594c-0.241,6.453-2.498,10.837-6.761,13.15c-2.066,0.975-3.526,0.608-4.384-1.096
		c-0.972-1.705-0.851-3.043,0.367-4.018c3.045-2.192,4.384-5.235,4.017-9.132c-0.243-2.924-1.214-5.602-2.921-8.038L545.056,229.087
		"/>
	<path fill="#FFFFFF" d="M519.848,233.837c-2.191-3.045-2.436-5.175-0.729-6.394l2.742,0.184l3.103,2.74l1.46,3.834l-0.729,2.558
		c-0.731,0.608-1.643,0.608-2.741,0L519.848,233.837"/>
	<path fill="#0D131A" d="M536.29,303.975c0.364-2.922-0.186-6.819-1.646-11.69l-3.106-8.22c-6.817,6.82-16.071,12.482-27.764,16.988
		l5.299,5.662c3.897,3.896,6.939,6.271,9.132,7.122c5.602,2.313,9.985,2.376,13.151,0.184
		C534.276,312.195,535.923,308.846,536.29,303.975 M495.739,301.599c-0.975-1.947-0.364-3.409,1.827-4.382
		c6.939-2.679,14.184-6.271,21.733-10.776c7.793-4.628,13.03-8.525,15.708-11.69c1.218-1.34,2.132-1.583,2.738-0.732
		c0.488,0.854,0.308,1.949-0.547,3.288l-2.924,3.836c1.707,1.949,3.228,5.419,4.57,10.412c1.46,4.992,2.127,9.438,2.006,13.332
		c-0.364,7.308-2.984,12.177-7.854,14.612c-4.748,2.315-10.471,1.888-17.168-1.278c-2.924-1.338-6.637-3.836-11.143-7.488
		C500.063,306.836,497.077,303.791,495.739,301.599"/>
	<path fill="#0D131A" d="M383.228,333.747c11.202,22.648,17.352,45.846,18.447,69.59c0.243,6.697-0.548,10.531-2.374,11.506
		c-1.828,0.975-3.106-2.313-3.836-9.864c-1.34-17.411-6.637-37.26-15.892-59.542c-9.375-22.65-18.203-36.288-26.484-40.914
		c-7.428-4.141-14.552-4.263-21.37-0.366c-5.602,3.167-10.167,8.341-13.698,15.526c-2.313,4.993-4.75,18.021-7.306,39.086
		c-1.949,16.561-3.106,28.86-3.472,36.896c-0.243,6.577-1.218,9.864-2.922,9.864c-1.704,0-2.922-3.715-3.652-11.143
		c-0.732-8.159,0.243-21.491,2.922-40c2.922-19.483,6.21-33,9.864-40.55c5.602-11.324,13.15-17.96,22.648-19.908
		c7.549-1.462,14.491-0.122,20.822,4.018C365.207,303.182,373.973,315.117,383.228,333.747"/>
	<path fill="#0D131A" d="M340.487,304.887c0,1.462-3.957,3.409-11.872,5.846c-7.917,2.313-12.299,2.861-13.152,1.644
		c-2.556-3.41-3.47-9.925-2.74-19.544c0.732-9.985,2.985-15.586,6.758-16.804c3.409-0.975,7.732,1.645,12.968,7.854
		C338.05,290.581,340.73,297.581,340.487,304.887"/>
	<path fill="#FFFFFF" d="M326.972,303.427l-8.038,0.364c-1.338-2.677-1.643-6.879-0.912-12.602c0.609-5.723,1.582-8.707,2.922-8.95
		c2.556-0.366,5.541,2.496,8.95,8.584C333.302,297.033,332.329,301.235,326.972,303.427"/>
	<path fill="#0D131A" d="M352.177,277.491c5.114,0.609,8.584,4.991,10.41,13.15c1.705,7.306,1.583,12.541-0.366,15.708
		c-0.609,1.096-1.339,0.851-2.19-0.73c-0.731-1.583-1.035-2.984-0.914-4.202c0.366-3.652-0.244-7.367-1.826-11.142
		c-1.583-3.895-3.472-5.904-5.662-6.026c-2.558-0.124-4.811,1.157-6.758,3.834c-1.462,1.828-2.498,3.959-3.106,6.394l-2.374,2.374
		c-1.462,0.487-2.071-0.427-1.828-2.74c0.245-3.409,1.889-7.062,4.932-10.958C345.784,279.012,349.01,277.125,352.177,277.491"/>
	<path fill="#0D131A" d="M331.901,303.609c2.315-3.652,5.541-6.94,9.682-9.864c5.114-3.652,9.253-4.626,12.42-2.922
		c1.948,0.975,3.288,3.775,4.018,8.402c0.73,4.384,0.608,8.586-0.366,12.604c-0.851,3.41-3.225,6.028-7.122,7.854
		c-4.262,1.826-8.462,1.887-12.604,0.182c-3.531-1.583-5.965-3.531-7.306-5.844C328.918,310.854,329.346,307.384,331.901,303.609"/>
	<path fill="#FFFFFF" d="M336.833,304.523l6.942-5.846c3.531-2.313,6.026-3.165,7.488-2.556c2.679,1.217,3.288,4.748,1.826,10.594
		c-2.313,7.67-6.758,10.531-13.334,8.584c-1.826-0.487-3.226-1.644-4.2-3.47C334.216,309.637,334.642,307.2,336.833,304.523"/>
	<path fill="#0D131A" d="M641.313,257.217c-2.436-2.558-3.046-3.775-1.827-3.654l49.501,17.534l53.878,19.178
		c7.308,2.071,12.237,9.255,14.794,21.554c2.56,11.69,1.828,19.787-2.191,24.292c-4.991,5.723-15.766,11.751-32.326,18.082
		c-15.587,5.846-24.965,8.159-28.128,6.942c-1.585-0.732-2.557-1.949-2.924-3.654c-0.364-1.705,0.304-2.617,2.01-2.74
		c9.133-0.608,20.764-3.957,34.887-10.046c12.788-5.601,20.092-9.74,21.92-12.42c3.405-5.235,3.895-12.42,1.46-21.552
		c-2.561-9.134-6.454-14.491-11.691-16.074c-57.349-19.36-88.399-30.199-93.147-32.512L641.313,257.217"/>
	<path fill="#0D131A" d="M725.695,302.513l4.384-0.182c5.602,0.73,10.289,2.374,14.063,4.932c3.291,2.313,5.056,4.688,5.299,7.122
		c0.363,3.897-2.008,7.793-7.122,11.69c-4.264,3.288-7.854,5.114-10.777,5.479c-6.576,0.73-6.755-0.729-0.547-4.384l7.486-5.296
		c2.803-2.437,4.384-4.567,4.747-6.394c0.489-2.192-0.85-4.2-4.016-6.028l-9.133-4.018L725.695,302.513"/>
	<path fill="#0D131A" d="M737.388,289.911c2.313-3.409,7.547-5.54,15.707-6.394c8.158-0.973,13.331,0.245,15.522,3.654
		c1.707,2.679,0.429,7.306-3.834,13.882c-4.264,6.453-8.34,10.35-12.238,11.688c-3.288,1.096-7.247-1.521-11.873-7.854
		C735.924,298.434,734.827,293.442,737.388,289.911"/>
	<path fill="#FFFFFF" d="M741.585,295.207c0.854-4.384,5.177-6.819,12.971-7.306c7.914-0.487,11.323,0.669,10.229,3.47
		c-1.218,3.167-3.409,6.576-6.576,10.228c-3.53,4.384-6.212,6.151-8.036,5.298l-6.208-4.748
		C741.893,299.712,741.1,297.399,741.585,295.207"/>
	<path fill="#0D131A" d="M751.995,335.207c1.949,0.245,4.995-0.425,9.133-2.008c4.262-1.705,7.064-3.288,8.403-4.75
		c1.218-1.217-0.425-3.652-4.932-7.306l-9.499-6.21l-1.46-3.288c-0.609-1.947-0.242-2.861,1.097-2.738
		c3.529,0.243,7.915,2.678,13.15,7.306c5.478,4.87,7.79,9.01,6.94,12.42c-1.096,4.139-5.848,7.609-14.248,10.41
		c-7.55,2.436-12.784,3.167-15.708,2.192c-2.066-0.609-1.702-1.826,1.097-3.652C748.646,335.878,750.66,335.085,751.995,335.207"/>
	<path fill="#0D131A" d="M619.757,626.535c1.585-4.751,4.142-8.465,7.675-11.143c3.652-2.799,4.506-1.156,2.558,4.932
		c-7.431,23.621-22.591,48.341-45.481,74.158c-19.48,22.037-35.372,35.797-47.67,41.275c-10.593,4.748-21.188,6.576-31.783,5.48
		c-12.416-1.339-22.284-6.638-29.589-15.892c-15.344-19.728-23.805-33.122-25.39-40.184c-0.121-1.218,0.914-2.677,3.105-4.384
		s3.592-2.375,4.201-2.006l6.03,13.693c5.111,10.717,10.592,19.667,16.437,26.854c6.696,8.156,15.708,12.904,27.031,14.243
		c9.985,1.097,18.996-0.425,27.032-4.565c17.778-9.5,36.042-26.239,54.795-50.226C604.905,657.951,615.251,640.537,619.757,626.535"
		/>
	<path fill="#0D131A" d="M537.383,735.944c-0.121-3.413,1.399-5.97,4.569-7.676c3.042-1.702,4.685-1.277,4.93,1.277
		c0.486,7.188-1.217,14.066-5.114,20.644c-3.773,5.969-8.036,9.682-12.784,11.142c-6.943,2.19-16.622-1.278-29.042-10.414
		c-12.42-9.011-19.299-17.35-20.643-25.019c-0.363-1.586,1.524-0.488,5.662,3.284l7.854,7.854
		c3.291,3.897,8.768,8.161,16.438,12.788c8.646,5.111,14.677,6.938,18.082,5.476c3.413-1.581,6.09-4.505,8.039-8.764
		C537.079,742.885,537.747,739.351,537.383,735.944"/>
	<path fill="#0D131A" d="M146.331,166.804c18.264,8.889,35.434,26.486,51.508,52.786c14.367,23.867,20.761,40.977,19.178,51.326
		c-1.34,9.253-4.081,8.584-8.22-2.01c-1.217-16.56-9.316-35.8-24.292-57.716c-15.829-23.137-31.537-36.774-47.124-40.916
		c-5.48-1.46-5.723-2.556-0.732-3.286L146.331,166.804"/>
	<path fill="#0D131A" d="M614.645,120.046c-8.524-10.228-20.764-19.847-36.713-28.858c-16.681-9.498-31.78-15.039-45.297-16.622
		c-1.46-0.242-1.156-0.975,0.914-2.191c2.07-1.339,4.198-1.826,6.391-1.46c12.545,2.069,25.817,6.758,39.819,14.062
		c15.345,7.917,26.606,16.562,33.789,25.938c3.41,4.382,4.752,7.427,4.018,9.132C616.836,121.629,615.861,121.629,614.645,120.046"
		/>
	<path fill="#0D131A" d="M690.442,537.768c-25.813,59.42-68.065,100.396-126.756,122.922
		c-51.993,19.972-110.991,23.806-176.99,11.511c-25.448-4.628-50.351-15.65-74.704-33.063
		c-24.718-17.653-46.636-40.243-65.753-67.762c-42.984-61.86-64.11-133.882-63.38-216.077c0.122-10.594,1.157-14.064,3.104-10.41
		c2.07,3.531,3.105,8.95,3.105,16.256c0,64.291,16.743,125.358,50.228,183.199c38.113,65.873,87.977,106.057,149.591,120.549
		c56.257,13.271,111.354,10.045,165.302-9.68c62.952-22.895,106.178-63.745,129.68-122.561
		c30.198-75.494,24.84-151.54-16.076-228.129c-16.558-31.052-37.563-58.813-63.01-83.29c-23.627-22.648-47.431-39.146-71.422-49.498
		c-1.092-0.487-1.945-2.313-2.556-5.48c-0.729-3.165,0.429-3.958,3.47-2.374c73.185,37.625,124.813,93.273,154.888,166.943
		c13.884,34.338,21.069,69.163,21.556,104.478C711.084,471.588,704.325,505.742,690.442,537.768"/>
	<path fill="#0D131A" d="M368.797,531.557c14.125-15.707,29.408-23.198,45.847-22.467c22.403,0.975,40.607,11.082,54.608,30.32
		c12.788,17.535,19.851,39.088,21.191,64.658c1.703,31.053-4.384,54.308-18.269,69.772c-11.201,12.541-26.784,19.42-46.756,20.642
		c-28.375,1.824-50.047-7.064-65.025-26.668c-14.853-19.484-20.394-45.785-16.619-78.906
		C346.209,566.628,354.551,547.507,368.797,531.557"/>
	<path fill="#F9DAD9" d="M377.748,531.742c11.933-13.031,22.832-19.242,32.694-18.633c23.259,1.582,41.4,12.725,54.428,33.427
		c11.449,18.143,17.232,39.938,17.354,65.388l-0.183,9.133c-0.122-18.629-5.904-33.059-17.351-43.291
		c-8.89-7.91-18.999-12.115-30.323-12.602c-15.098-0.729-28.674,6.09-40.729,20.456c-11.446,13.516-18.021,28.981-19.726,46.396
		c-1.705,20.213,1.765,35.856,10.412,46.938c-12.056-7.425-20.883-18.749-26.484-33.972c-4.871-13.273-6.881-28.004-6.028-44.201
		C353.517,571.801,362.162,548.785,377.748,531.742"/>
	<path fill="#D7BDBC" d="M434.367,565.164c11.324,0.484,21.435,4.691,30.323,12.602c11.444,10.232,17.229,24.662,17.351,43.291
		c-1.339,20.334-7.305,36.592-17.899,48.766c-10.597,12.178-24.047,18.39-40.365,18.632c-15.587,0.12-28.737-3.046-39.453-9.5
		c-8.646-11.081-12.116-26.726-10.412-46.938c1.705-17.414,8.28-32.88,19.726-46.396
		C405.693,571.254,419.271,564.436,434.367,565.164"/>
	<path fill="#0D131A" d="M387.793,542.516c-4.872-5.111-3.715-13.029,3.47-23.742c7.427-11.204,16.743-17.232,27.945-18.083
		c9.739-0.609,19.058,2.92,27.946,10.593c9.011,7.793,12.602,15.828,10.773,24.107c-1.945,8.646-11.932,14.188-29.951,16.621
		C409.592,554.447,396.195,551.284,387.793,542.516"/>
	<path fill="#FFFFFF" d="M394.186,536.672c-2.922-3.166-1.157-8.465,5.298-15.891c6.696-7.672,13.7-11.753,21.004-12.237
		c6.333-0.489,13.151,2.128,20.456,7.854c7.429,5.844,10.531,11.385,9.316,16.621c-1.221,5.477-9.438,8.89-24.66,10.225
		C410.018,544.587,399.543,542.395,394.186,536.672"/>
	<path fill="#0D131A" d="M531.722,279.683l2.74-2.924l0.364,2.924c1.949,2.677,2.863,5.356,2.742,8.036
		c-0.121,1.947-0.671,3.409-1.646,4.384c-0.61,0.73-2.07,0.73-4.385,0c-2.435-0.732-4.994-2.01-7.672-3.836l-2.191-1.462
		L531.722,279.683"/>
	<path fill="#FFFFFF" d="M533.362,282.787l1.1,4.018l-0.73,2.558l-1.824-0.184l-3.655-2.556L533.362,282.787"/>
</g>
</svg>
