<?xml version="1.0" encoding="utf-8"?>
<!-- Generator: Adobe Illustrator 16.0.0, SVG Export Plug-In . SVG Version: 6.00 Build 0)  -->
<!DOCTYPE svg PUBLIC "-//W3C//DTD SVG 1.1//EN" "http://www.w3.org/Graphics/SVG/1.1/DTD/svg11.dtd">
<svg version="1.1" id="Layer_1" xmlns="http://www.w3.org/2000/svg" xmlns:xlink="http://www.w3.org/1999/xlink" x="0px" y="0px"
	 width="800px" height="800px" viewBox="0 0 800 800" enable-background="new 0 0 800 800" xml:space="preserve">
<g>
	<path fill="#F7C6BD" d="M566.938,224.202c-0.354-7.478,0.28-11.464,1.902-11.957c3.67-1.13,7.725,0.176,12.17,3.915
		c2.257,1.833,4.127,3.809,5.608,5.926l6.982-3.492c4.94-2.257,8.078-2.998,9.42-2.222c1.41,0.776,2.294,3.703,2.646,8.783
		l0.105,7.408l6.457,1.904c4.372,1.553,6.91,3.104,7.616,4.657c0.425,0.917-0.211,2.575-1.902,4.973l-6.668,9.947
		c0.425,19.894-3.067,44.762-10.479,74.604c-4.795,19.4-9.487,35.131-14.071,47.196c10.651,23.492,18.342,49.383,23.065,77.673
		c4.589,27.795,6,56.016,4.235,84.656c-2.327,37.674-9.03,74.074-20.106,109.207c-11.286,35.766-24.902,63.139-40.849,82.116
		c-14.602,3.952-37.637,5.362-69.1,4.232c-4.656-2.471-11.994-14.778-22.011-36.931c-9.946-22.081-16.049-33.687-18.309-34.815
		l-13.121-0.529l-24.232,1.479c-25.044,0.989-45.327-1.621-60.847-7.83c-19.895-7.971-37.672-19.398-53.333-34.283
		c-15.027-14.251-27.056-30.654-36.085-49.208c-7.479-15.449-13.439-29.561-17.884-42.328l-7.725-24.551
		c-13.545-2.398-32.064-12.099-55.556-29.102c-20.248-14.743-32.487-25.326-36.719-31.746c-4.868-1.128-9.313-2.506-13.334-4.128
		c-4.375-1.901-6.596-3.525-6.667-4.866c-0.07-1.34,1.305-3.279,4.127-5.819l6.031-6.243l-5.185-9.103
		c-2.822-4.795-4.057-7.513-3.704-8.146c0.917-1.692,6.491-2.54,16.72-2.54c0.988-3.104,2.292-5.821,3.915-8.148
		c1.905-2.751,3.739-4.127,5.503-4.127c1.976,0,5.044,2.151,9.207,6.455l29.101,5.61c20.248,4.162,32.381,7.477,36.402,9.946
		c-0.141-3.738,0.036-8.571,0.53-14.499l0.846-10.476c0-0.706-8.606-3.492-25.82-8.36l-58.73-16.826
		c-59.4-17.354-94.71-30.229-105.927-38.625c-1.834-1.27-2.151-2.469-0.953-3.598c0.847-0.917,2.751-1.834,5.715-2.751
		c11.076-5.08,47.936-13.615,110.583-25.608l93.969-17.143c-0.706-12.346,0.776-23.527,4.444-33.545
		c5.433-14.744,15.204-25.678,29.313-32.803c9.735-4.938,20.318-7.302,31.747-7.09c15.378,0.212,29.523,5.432,42.434,15.662
		c7.619-10.512,43.175-40.318,106.666-89.419c64.903-50.229,100.071-73.898,105.504-71.006c5.362,2.893-4.338,35.063-29.098,96.509
		c-12.487,30.969-25.717,62.856-39.685,95.661c4.092,2.892,10.192,8.359,18.307,16.402c8.892,8.749,13.758,14.462,14.604,17.143
		c10.018-14.674,24.444-30.371,43.279-47.091L566.938,224.202"/>
	<path fill="#F09BA5" d="M70.636,462.404c-3.386-2.962-3.739-5.573-1.058-7.83c1.834-1.552,4.727-2.821,8.677-3.811
		c6.067-1.553,16.932-2.715,32.594-3.492l29.1,1.271c10.229,10.795,23.527,21.061,39.894,30.795
		c17.778,10.581,34.639,17.741,50.583,21.481c0.564,6.136,4.092,18.8,10.582,37.989c6.067,17.849,9.911,28.044,11.534,30.582
		c-2.892,2.115-8.324,5.396-16.296,9.841c-10.371,5.714-17.919,9.102-22.646,10.16c-2.962,0.635-4.69-0.07-5.185-2.116
		c-0.493-1.763-0.105-3.67,1.164-5.714c4.445-8.538,7.901-14.535,10.372-17.989c0.634-0.849,0.634-1.729,0-2.648
		c-0.635-0.914-1.588-1.338-2.858-1.268l-43.492,3.387l-35.238,2.01c-5.503-1.059-9.418-2.398-11.746-4.021
		c-3.527-2.399-2.857-5.221,2.011-8.465l65.503-41.694l-58.308-21.165C96.173,474.892,74.444,465.791,70.636,462.404"/>
	<path fill="#F7C6BD" d="M678.153,472.354l10.688,14.39c4.021,5.645,6.948,10.654,8.783,15.027
		c4.515,10.864,7.688,21.8,9.524,32.806c1.691,10.511,1.976,19.787,0.847,27.83c-5.079,35.133-17.319,62.928-36.72,83.388
		c-22.226,23.492-51.924,34.778-89.103,33.86c6.137-10.298,12.876-30.018,20.212-59.152c5.925-23.772,10.335-45.325,13.229-64.654
		c2.329-15.238,2.433-37.921,0.317-68.045c-2.119-30.404-5.292-50.971-9.523-61.691c23.914,2.538,44.763,12.942,62.541,31.217
		c1.552,1.621,3.173,4.092,4.864,7.405C675.719,468.473,677.165,471.013,678.153,472.354"/>
	<path fill="#D5ABA4" d="M266.298,588.332c25.326,17.776,55.026,31.852,89.101,42.224c28.642,8.676,53.368,13.017,74.181,13.017
		c8.89,4.442,15.836,10.156,20.847,17.141c2.681,3.67,5.255,8.714,7.725,15.133l-3.811-4.973c-4.865-5.645-10.087-8.36-15.66-8.149
		c-37.954,1.553-68.783-1.763-92.487-9.945C314.094,641.631,287.462,620.149,266.298,588.332"/>
	<path fill="#D5ABA4" d="M582.174,595.104c7.267-14.463,13.72-35.625,19.365-63.49c4.728-23.07,8.431-48.081,11.111-75.028
		c3.174,14.604,4.092,39.437,2.751,74.498c-1.48,40.634-5.997,73.12-13.546,97.461c-7.619,24.549-15.237,45.044-22.856,61.481
		c-14.182,30.827-27.195,45.396-39.047,43.704c-1.765-0.281-2.399-1.622-1.905-4.021c0.354-1.48,1.622-4.938,3.81-10.371
		c5.997-14.673,9.947-28.219,11.854-40.636c1.481-9.594-1.765-17.849-9.735-24.762l-8.572-6.561
		c-2.751-2.047-4.162-3.738-4.232-5.079c-0.141-1.552,1.692-3.528,5.503-5.927l13.757-8.254
		C565.314,618.738,575.894,607.732,582.174,595.104"/>
	<path fill="#D5ABA4" d="M602.386,258.593c1.129-2.257,2.646-3.527,4.551-3.81c1.764-0.282,2.856,0.353,3.281,1.904
		c2.397,8.959-0.143,29.489-7.621,61.588c-6.703,28.783-12.133,47.442-16.296,55.979l4.128,10.371
		c2.962,7.407,5.043,13.509,6.243,18.308c0.705,2.82,0.353,4.516-1.06,5.077c-1.341,0.565-2.962-0.069-4.867-1.902L571.38,388.33
		c-6.703-6.067-11.006-10.335-12.909-12.804c-0.637-0.847-0.883-2.046-0.739-3.598c0.069-1.271,0.28-2.187,0.633-2.751
		c8.465-13.051,18.13-34.921,28.995-65.609C596.672,274.997,601.68,260.003,602.386,258.593"/>
	<path fill="#D5ABA4" d="M559.952,57.428c3.668,2.257-5.821,32.945-28.465,92.063c-19.897,51.711-33.759,85.645-41.591,101.8
		c-2.398,4.868-5.078,6.844-8.043,5.926c-2.538-0.705-4.973-3.316-7.301-7.831c-2.187-3.95-3.737-8.254-4.656-12.91
		c-0.916-4.727-0.811-7.866,0.318-9.417c11.498-16.226,27.688-44.903,48.571-86.032c18.271-35.838,30.83-62.224,37.673-79.155
		l2.114-3.598C559.282,57.569,559.741,57.287,559.952,57.428"/>
	<path fill="#D5ABA4" d="M27.46,322.615c-0.563-3.033,28.819,2.823,88.148,17.566l104.34,25.715
		c6.278,1.058,10.793,5.15,13.545,12.274c1.058,2.963,1.305,5.468,0.741,7.514c-0.565,2.257-2.011,3.421-4.339,3.492
		c-6.349,0.283-40.776-9.1-103.281-28.147C61.57,341.204,28.52,328.399,27.46,322.615"/>
	<path fill="#D5ABA4" d="M185.558,459.759c25.326,14.745,38.66,22.223,40,22.436c1.763,0.211,3.174,3.772,4.232,10.688
		c1.058,6.913,0.706,10.301-1.058,10.159c-13.192-1.2-30.583-9.665-52.169-25.396c-19.753-14.322-32.91-26.668-39.471-37.036
		c-1.34-2.188-1.2-3.916,0.423-5.188l6.455,0.105L185.558,459.759"/>
	<path fill="#D08690" d="M72.751,465.263c-3.457-1.903-5.784-3.386-6.984-4.444c-2.046-1.905-1.341-3.315,2.116-4.232
		c1.27-0.283,22.857,6.524,64.763,20.423c42.68,14.182,65.785,22.61,69.312,25.291c1.765,1.342,2.082,3.175,0.953,5.503
		c-1.27,2.753-4.868,3.386-10.794,1.903c-5.643-1.411-26.103-8.676-61.376-21.798C95.187,474.715,75.855,467.166,72.751,465.263"/>
	<path fill="#D08690" d="M211.271,548.437c5.362-0.492,9.419,0.707,12.17,3.6c2.68,2.893,1.764,4.654-2.751,5.292l-90.477,6.876
		c-1.835-0.07-3.139-0.633-3.916-1.691c-0.776-0.988-0.67-1.905,0.318-2.751c1.482-1.2,14.745-3.316,39.789-6.35L211.271,548.437"/>
	<path fill="#D08690" d="M253.813,570.235c-3.034,2.259-9.277,5.854-18.731,10.795c-10.299,5.432-17.001,8.395-20.105,8.887
		l-6.667,0.318c-2.258-0.211-2.398-0.881-0.423-2.011c1.833-0.986,8.748-5.503,20.741-13.546l19.683-13.33
		c1.058-0.708,2.504,0.422,4.338,3.384C254.411,567.695,254.798,569.53,253.813,570.235"/>
	<path fill="#D5ABA4" d="M338.574,257.111c-0.282-1.623,1.799-1.835,6.243-0.635c2.751,0.917,4.797,5.644,6.138,14.18
		c1.27,8.112,1.27,14.533,0,19.26c-2.611,10.158-8.395,19.083-17.354,26.772c-9.807,8.395-20.917,12.911-33.334,13.545
		c-11.711,0.565-22.822-2.927-33.333-10.476c-9.242-6.631-14.534-13.297-15.873-20c-0.495-2.54-0.248-3.81,0.741-3.81l3.597,1.48
		l5.715,3.598c4.092,2.399,8.325,4.303,12.699,5.714c13.686,4.445,27.513,3.951,41.481-1.481
		c8.607-3.245,15.097-9.313,19.471-18.202C339.139,278.1,340.408,268.118,338.574,257.111"/>
	<path fill="#D5ABA4" d="M636.248,465.687c17.636,4.442,30.477,6.63,38.52,6.56c1.832,0,2.751,0.74,2.751,2.222l-0.528,2.753
		c0.635,2.609-0.46,7.371-3.281,14.285c-2.892,7.338-5.714,11.113-8.465,11.324l-27.619-1.8
		c-15.379-1.692-22.752-3.527-22.117-5.503c0.284-0.846,0.177-6.208-0.315-16.084c-0.494-10.229-1.095-16.614-1.801-19.154
		L636.248,465.687"/>
	<path fill="#D5ABA4" d="M707.043,573.518c-3.387,28.995-17.179,54.107-41.376,75.344c-24.411,21.376-51.254,31.532-80.53,30.477
		c-4.442-0.211-5.185-3.033-2.222-8.465c2.962-5.362,6.243-8.079,9.841-8.149c20.953-0.491,42.822-9.734,65.608-27.725
		c22.856-18.06,37.107-37.39,42.752-57.989c0.636-2.54,1.905-5.08,3.809-7.618C706.971,566.639,707.676,568.015,707.043,573.518"/>
	<path fill="#D5ABA4" d="M650.005,563.252c1.059-3.668,1.835-5.572,2.327-5.714c0.778-0.211,1.2,2.786,1.271,8.994
		c0.281,12.909-4.763,25.466-15.133,37.671c-10.017,11.925-20.741,18.66-32.17,20.212c-2.114,0.354-2.68-2.645-1.691-8.995
		c0.918-6.347,2.785-9.665,5.609-9.945c4.795-0.423,11.108-3.951,18.94-10.581C639.457,586.145,646.407,575.599,650.005,563.252"/>
	<path fill="#922F00" d="M369.896,363.672c6.137-1.693,9.348-2.222,9.63-1.586c3.738,8.395,4.761,16.401,3.069,24.021
		c-1.693,7.549-5.467,12.346-11.323,14.392c-5.926,2.045-12.417,0.422-19.472-4.868c-5.996-4.445-10.371-9.63-13.122-15.556
		c-0.634-1.481,1.094-3.527,5.185-6.138c3.246-2.046,6.773-3.81,10.583-5.291C359.103,366.813,364.252,365.154,369.896,363.672"/>
	<path fill="#0D131A" d="M646.513,519.44c7.197,11.502,10.793,24.411,10.793,38.731c0,17.354-5.255,32.452-15.768,45.29
		c-10.229,12.558-23.666,20.778-40.315,24.657c-0.987,0.283-1.059-0.636-0.213-2.752s1.766-3.351,2.751-3.705
		c13.827-4.303,25.044-12.309,33.652-24.02c8.676-11.853,13.016-25.221,13.016-40.105c0-12.347-2.999-23.741-8.994-34.18
		c-5.927-10.161-13.968-18.202-24.13-24.129c-1.41-0.773-2.113-2.151-2.113-4.125c0-1.907,0.74-2.471,2.222-1.694
		C629.759,499.618,639.457,508.294,646.513,519.44"/>
	<path fill="#0D131A" d="M609.051,435.846c-1.338-0.213-2.396-1.448-3.174-3.705c-0.775-2.258-0.492-3.246,0.849-2.964
		c33.085,5.645,59.541,22.646,79.363,51.007c18.836,26.948,26.633,56.12,23.387,87.513c-3.597,35.063-17.849,63.352-42.751,84.87
		c-24.761,21.304-54.215,30.897-88.36,28.781c-0.775-0.069-0.563-1.058,0.636-2.963c1.27-1.976,2.224-2.927,2.855-2.855
		c30.478,2.044,57.32-7.408,80.53-28.362c23.14-20.951,36.403-47.725,39.79-80.313c3.243-31.747-4.127-60.249-22.119-85.504
		C662.067,456.231,638.399,441.063,609.051,435.846"/>
	<path fill="#0D131A" d="M25.557,319.969c1.27-2.258,4.515-4.339,9.735-6.244c18.342-6.632,52.028-14.639,101.059-24.021
		c39.154-7.479,73.264-13.228,102.329-17.249l2.54,2.434c0.423,0.564,0.177,1.763-0.741,3.598
		c-11.359,0.987-37.108,5.186-77.25,12.593c-45.855,8.465-81.517,16.156-106.985,23.069c-12.205,3.315-17.883,6.066-17.037,8.254
		c0.423,0.917,5.433,3.633,15.027,8.147c14.391,6.632,45.749,17.249,94.074,31.853l72.382,21.27
		c8.112,2.681,12.169,4.868,12.169,6.561c0,1.623-3.845,1.411-11.534-0.635c-33.511-8.677-64.269-17.249-92.276-25.714
		c-48.183-14.603-81.411-26.949-99.683-37.037C25.415,324.661,24.146,322.369,25.557,319.969"/>
	<path fill="#0D131A" d="M554.871,94.147c-6.278,20.318-14.778,44.444-25.503,72.381c-11.356,29.56-22.715,56.826-34.073,81.8
		c-3.035,6.561-5.573,9.947-7.619,10.159c-2.116,0.211-1.305-4.233,2.433-13.334l32.385-80.424
		c13.261-33.933,22.044-58.801,26.347-74.604c3.74-13.687,5.257-20.881,4.552-21.587c-0.564-0.495-2.046-0.071-4.443,1.269
		L539,75.417c-17.213,8.959-50.229,32.557-99.047,70.793c-45.927,35.98-75.31,60.53-88.149,73.652l-3.703-1.27
		c-0.565-0.282-0.953-0.811-1.165-1.586c16.085-17.355,46.773-43.599,92.065-78.731c40.563-31.394,71.851-54.11,93.861-68.149
		l19.578-12.487c5.079-2.892,8.359-3.915,9.841-3.069C565.031,56.193,562.563,69.385,554.871,94.147"/>
	<path fill="#0D131A" d="M243.757,235.736c7.831-14.674,19.33-25.186,34.498-31.536c14.604-6.066,30.195-6.384,46.773-0.951
		c14.462,4.726,25.221,11.922,32.275,21.587c1.976,2.751,2.751,4.691,2.329,5.82c-0.494,1.128-1.976,0.458-4.445-2.011
		c-22.011-22.434-46.419-28.959-73.228-19.577c-12.204,4.234-22.257,12.699-30.158,25.397c-9.172,14.815-10.971,30.054-5.398,45.715
		c4.585,12.981,12.804,22.822,24.657,29.524c13.192,7.407,27.407,8.36,42.646,2.857c9.877-3.598,17.424-9.771,22.646-18.518
		c5.079-8.536,6.737-17.249,4.973-26.138c-1.834-9.524-5.785-16.332-11.852-20.423c-5.009-3.316-10.477-4.41-16.403-3.281
		c-3.598,0.635-6.807,2.505-9.63,5.608c-3.033,3.457-4.515,7.373-4.444,11.746c0.071,2.4-0.423,3.634-1.481,3.704
		c-0.988,0.071-1.729-1.164-2.222-3.704c-0.917-5.291,0.353-10.193,3.81-14.708c3.457-4.515,8.183-7.479,14.18-8.889
		c7.196-1.552,14.038,0.07,20.529,4.868c6.773,5.009,11.183,12.205,13.229,21.588c2.609,11.711,0.423,23.175-6.561,34.391
		c-6.773,10.865-15.592,17.743-26.456,20.635c-20.107,5.362-37.215,3.174-51.325-6.562c-10.088-6.984-17.53-16.684-22.327-29.1
		C234.234,267.624,235.363,251.609,243.757,235.736"/>
	<path fill="#0D131A" d="M227.568,502.511c-0.847-5.222-0.635-8.783,0.634-10.688c1.271-1.976,2.293-0.283,3.069,5.079
		c2.046,14.743,7.231,32.029,15.556,51.852c8.819,21.022,17.32,35.416,25.503,43.174c2.399,2.26,2.646,4.764,0.741,7.515
		l-5.502,0.106c-11.218-17.849-18.59-30.443-22.118-37.777C236.845,543.853,230.883,524.101,227.568,502.511"/>
	<path fill="#F09BA5" d="M737.941,246.529c-4.021,7.901-9.276,16.614-15.769,26.138c-11.428,16.719-34.496,47.373-69.207,91.958
		l49.103,3.599c34.355,2.892,55.557,5.431,63.598,7.619c4.445,1.269,5.892,3.527,4.34,6.772c-1.41,2.963-4.621,5.891-9.63,8.783
		c-6.138,3.457-44.092,17.674-113.863,42.646l9.522,9.946l12.383,13.651l7.83,9.947c2.047,4.373-1.094,6.174-9.418,5.396
		c-8.536-0.846-19.646-3.067-33.333-6.665c-11.854-3.032-18.555-5.043-20.106-6.032c-0.422-0.352-4.866-14.427-13.334-42.223
		c-8.536-27.938-13.613-42.612-15.237-44.022c1.765-3.104,5.855-15.098,12.274-35.979c6.563-21.234,9.876-33.58,9.948-37.037
		c3.527-3.527,22.362-14.709,56.507-33.545c17.286-9.595,35.312-19.4,54.076-29.419c9.24-5.22,16.154-7.442,20.74-6.667
		C743.729,232.245,743.585,237.288,737.941,246.529"/>
	<path fill="#D08690" d="M616.672,463.991c-3.811-1.271-6.103-3.598-6.881-6.984c-0.703-3.384,0.601-4.514,3.918-3.384
		c3.314,1.197,13.614,3.773,30.898,7.726l28.044,6.771c2.609,0.987,3.456,1.903,2.538,2.751c-0.917,0.845-3.527,1.585-7.83,2.224
		c-3.74,0.563-12.416-0.53-26.033-3.281C629.548,467.483,621.326,465.543,616.672,463.991"/>
	<path fill="#0D131A" d="M219.208,428.12c-1.764-10.725-2.751-18.344-2.962-22.859c-0.282-4.728,0-11.322,0.846-19.788
		c0.142-1.622,1.27-2.045,3.387-1.27c2.187,0.846,3.209,1.904,3.069,3.175c-0.212,2.116-0.248,7.583-0.106,16.402
		c0.141,10.229,0.529,18.168,1.164,23.811c0.635,5.715,0.141,8.784-1.481,9.206C221.5,437.147,220.195,434.256,219.208,428.12"/>
	<path fill="#0D131A" d="M446.193,667.804c-2.328-2.188-8.395-2.965-18.199-2.329c-14.322,0.849-25.188,0.882-32.595,0.105
		c-2.893-0.353-4.057-1.798-3.493-4.338c0.565-2.541,1.765-3.67,3.599-3.387c7.688,1.41,18.908,1.656,33.651,0.739
		c11.428-0.774,18.309-0.035,20.636,2.225c3.314,3.174,7.37,12.204,12.17,27.088c5.009,15.592,11.252,27.479,18.729,35.662
		c3.882,4.234,5.995,6.879,6.35,7.938c0.354,1.2-1.128,1.374-4.445,0.53c-7.195-1.907-15.061-12.807-23.596-32.7
		C451.59,679.372,447.324,668.86,446.193,667.804"/>
	<path fill="#0D131A" d="M615.083,462.193c5.081,31.182,6.032,62.822,2.859,94.92c-3.459,35.628-12.665,72.206-27.622,109.735
		c-11.497,29.065-22.503,50.406-33.017,64.022c-0.634,0.917-1.269,0.281-1.902-1.905c-0.706-2.187-0.602-4.021,0.317-5.503
		c11.006-18.271,20.813-38.519,29.417-60.741c13.616-35.133,22.011-70.087,25.186-104.865c3.528-38.804,2.294-74.287-3.703-106.458
		c-4.092-22.436-11.357-46.139-21.8-71.112c-0.422-2.822-0.281-5.468,0.424-7.937c0.635-2.327,1.165-3.069,1.587-2.222
		C600.445,399.617,609.863,430.306,615.083,462.193"/>
	<path fill="#0D131A" d="M492.119,253.514c-2.327-1.764-3.139-3.598-2.434-5.503c0.706-1.834,2.011-2.116,3.914-0.846
		c5.081,3.598,10.584,8.254,16.509,13.968c6.491,6.28,12.064,12.523,16.72,18.731c1.13,1.551,0.67,3.033-1.373,4.443
		c-2.119,1.341-3.601,1.235-4.446-0.316c-2.608-4.516-7.549-10.442-14.813-17.778C500.198,260.287,495.506,256.053,492.119,253.514"
		/>
	<path fill="#0D131A" d="M125.875,354.891c6.138,2.751,7.725,4.162,4.762,4.233c-3.034,0-5.996-0.706-8.889-2.117
		c-16.932-4.304-32.91-8.782-47.937-13.439c-29.629-9.242-44.233-17.002-43.81-23.28c0.212-2.751,12.558-7.514,37.038-14.287
		c20.741-5.643,36.86-9.453,48.36-11.428c3.527-0.565,5.291-0.247,5.291,0.953c-0.07,1.199-1.658,2.222-4.762,3.069
		c-7.407,1.976-14.18,5.15-20.318,9.523c-6.984,5.01-10.793,10.125-11.429,15.345c-0.917,7.479,3.986,14.11,14.709,19.895
		C104.815,346.602,113.811,350.445,125.875,354.891"/>
	<path fill="#0D131A" d="M547.146,113.831c-12.064,36.261-17.778,50.582-17.144,42.963c0.916-13.122,0.67-25.08-0.741-35.874
		c-1.34-9.806-3.245-16.296-5.714-19.47c-3.315-4.304-9.207-4.938-17.673-1.905c-5.502,1.976-15.908,7.301-31.216,15.979
		c51.567-40.636,79.965-59.471,85.185-56.509C562.95,60.778,558.717,79.05,547.146,113.831"/>
	<path fill="#0D131A" d="M288.625,355.313c-0.494-1.481-0.353-2.329,0.424-2.54c0.775-0.212,1.375,0.423,1.798,1.904
		c1.128,3.951,2.646,7.302,4.55,10.053c1.553,2.188,3.139,3.739,4.762,4.657c3.457,1.904,7.372,2.293,11.746,1.164
		c1.34-0.353,1.976-0.176,1.904,0.53c0,0.706-0.529,1.269-1.587,1.693c-5.08,2.116-9.877,1.551-14.392-1.693
		C294.235,368.47,291.167,363.214,288.625,355.313"/>
	<path fill="#0D131A" d="M385.453,307.166c0.563-0.424,1.128-0.248,1.693,0.528c5.361,8.466,7.795,15.133,7.301,20
		c-0.212,2.046-0.635,3.704-1.27,4.974c-0.846,1.693-2.222,3.14-4.127,4.339c-0.988,0.635-1.658,0.565-2.011-0.212
		c-0.353-0.776,0-1.587,1.058-2.434c1.27-0.988,2.152-2.081,2.646-3.28l0.741-4.021c0.212-2.61-0.528-5.891-2.222-9.841
		l-4.021-8.043C384.748,308.258,384.817,307.588,385.453,307.166"/>
	<path fill="#0D131A" d="M381.007,377.218c1.552,0.352,1.834,2.962,0.846,7.83c-1.058,5.009-2.962,8.749-5.714,11.217
		c-2.61,2.399-5.608,4.091-8.995,5.078c-3.246,0.918-5.185,0.777-5.82-0.423c-2.328-4.091-2.716-8.571-1.164-13.438
		c1.339-4.021,4.515-7.02,9.523-8.995C373.917,376.794,377.691,376.372,381.007,377.218"/>
	<path fill="#ED8599" d="M380.795,379.864c0.635,0.142,0.495,2.081-0.423,5.82c-0.917,3.951-2.257,6.843-4.021,8.677
		c-2.045,2.258-4.444,3.95-7.195,5.08l-4.868,0.317c-1.976-3.386-2.293-7.125-0.953-11.217c1.128-3.387,3.774-5.926,7.937-7.619
		C374.871,379.51,378.044,379.159,380.795,379.864"/>
	<path fill="#0D131A" d="M381.326,354.255c0-1.059,0.528-1.553,1.586-1.481c1.059,0.07,1.553,1.023,1.482,2.857
		c-0.212,3.88-3.951,7.054-11.218,9.523c-8.959,2.328-15.238,4.233-18.835,5.715l-15.132,8.466
		c-6.349,3.527-10.758,4.585-13.228,3.174c-1.2-0.635-1.693-1.375-1.482-2.223c0.212-0.776,0.74-0.917,1.587-0.423
		c1.411,0.917,5.008-0.282,10.793-3.598c9.242-5.433,14.815-8.572,16.721-9.418l18.2-4.974
		C378.15,360.251,381.326,357.711,381.326,354.255"/>
	<path fill="#0D131A" d="M377.833,362.827c-0.423-1.058-0.142-1.763,0.846-2.116c0.988-0.353,1.693-0.106,2.116,0.741
		c4.021,9.17,4.797,17.813,2.329,25.926c-2.117,7.125-5.785,11.816-11.006,14.075c-11.64,4.938-23.598-2.224-35.873-21.482
		c-0.423-0.635-0.176-1.27,0.74-1.905c0.988-0.565,1.729-0.458,2.223,0.317c4.515,6.914,8.712,12.064,12.592,15.45
		c6.49,5.644,12.593,7.195,18.307,4.656c5.926-2.61,9.384-8.077,10.371-16.402C381.326,375.032,380.443,368.61,377.833,362.827"/>
	<path fill="#0D131A" d="M309.155,350.869c1.27,2.822,1.976,5.433,2.116,7.831c0.141,2.329-0.353,3.739-1.481,4.232
		c-1.129,0.565-2.541,0-4.234-1.693c-1.692-1.623-3.174-3.88-4.443-6.772c-1.271-2.822-1.94-5.433-2.011-7.831
		c-0.142-2.328,0.353-3.774,1.481-4.339c1.128-0.493,2.504,0.107,4.127,1.8C306.404,345.79,307.886,348.046,309.155,350.869"/>
	<path fill="#0D131A" d="M378.786,317.536c1.27,2.892,1.94,5.503,2.011,7.83c0.071,2.398-0.458,3.845-1.586,4.339
		c-1.13,0.564-2.541,0-4.234-1.693c-1.692-1.623-3.174-3.88-4.443-6.773c-1.271-2.822-1.94-5.432-2.011-7.83
		c-0.142-2.328,0.353-3.774,1.481-4.339c1.128-0.494,2.576,0.105,4.339,1.798C376.034,312.492,377.517,314.712,378.786,317.536"/>
	<path fill="#FFFFFF" d="M305.875,348.118l0.529,2.751l-0.953,1.588l-1.904-0.317l-1.693-2.223c-0.424-0.917-0.6-1.834-0.53-2.751
		c0.142-0.846,0.459-1.375,0.953-1.586l1.904,0.317C304.888,346.39,305.452,347.129,305.875,348.118"/>
	<path fill="#FFFFFF" d="M375.929,315.418c0.495,1.129,0.67,2.188,0.53,3.175c-0.142,0.988-0.565,1.622-1.271,1.904l-2.222-0.317
		c-0.847-0.564-1.517-1.411-2.011-2.54c-0.494-1.058-0.67-2.081-0.53-3.069c0.142-0.988,0.565-1.623,1.271-1.905l2.222,0.319
		C374.694,313.549,375.365,314.361,375.929,315.418"/>
	<path fill="#0D131A" d="M121.958,415.949c-2.611-4.867-3.739-8.043-3.386-9.523c0.282-1.41,3.139-2.786,8.571-4.128l9.841-0.739
		c1.058,0.705,1.518,2.046,1.376,4.021c-0.141,1.903-0.706,2.716-1.693,2.433l-7.725-0.95c-2.751,0.141-4.232,0.846-4.444,2.115
		l3.281,6.879c2.257,4.515,3.28,7.303,3.069,8.359c-0.212,1.129-1.553,2.893-4.021,5.291c-2.328,2.258-3.422,3.599-3.281,4.021
		c0.424,1.341,2.188,2.575,5.292,3.705l9.63,3.387c10.934,13.827,27.019,26.879,48.253,39.152
		c16.368,9.453,31.183,16.19,44.445,20.213c0.212,1.48,0.105,2.856-0.317,4.128l-0.953,1.586
		c-16.367-2.821-34.991-11.711-55.873-26.667c-16.65-11.922-28.995-22.855-37.038-32.805l-9.946-4.444
		c-5.997-2.609-9.101-5.009-9.312-7.195c-0.072-1.13,1.164-3.313,3.703-6.562l4.234-5.079L121.958,415.949"/>
	<path fill="#0D131A" d="M158.043,397.218c6.208-0.211,16.579,1.058,31.111,3.81c12.84,2.471,23.599,5.011,32.275,7.62
		c1.199,0.354,1.939,1.904,2.222,4.656c0.282,2.751-0.283,3.881-1.693,3.387c-11.922-4.798-27.125-8.712-45.609-11.746
		l-24.127-3.917c-3.668-6.631-6.455-8.995-8.36-7.09c-1.622,1.623-2.927,3.845-3.915,6.666c-1.481,4.165-1.411,8.257,0.211,12.277
		c0.777,1.903,0.318,2.362-1.375,1.373c-1.765-0.916-2.858-2.187-3.281-3.808c-1.481-5.292-0.882-10.267,1.798-14.923
		c2.329-4.091,5.045-6.384,8.149-6.877c0.846-0.071,2.962,1.339,6.349,4.232C155.117,395.843,157.198,397.29,158.043,397.218"/>
	<path fill="#0D131A" d="M571.487,216.16c-0.85,0.353-1.237,4.021-1.167,11.005c0.069,7.196-0.986,11.569-3.173,13.122
		c-6.914,4.938-14.816,12.734-23.703,23.387c-8.68,10.371-16.475,21.199-23.388,32.487c-3.176,5.15-5.046,6.949-5.607,5.396
		c-0.494-1.552,0.491-5.361,2.962-11.429c5.783-14.391,21.271-32.417,46.455-54.074c0.494-0.423,0.989-4.445,1.48-12.063
		c0.425-7.338,1.448-11.323,3.069-11.958c5.784-2.188,10.936-1.269,15.449,2.751c3.881,3.457,6.103,7.689,6.668,12.699
		c0.354,3.034-0.035,4.621-1.165,4.762c-1.13,0.07-2.151-1.235-3.068-3.916c-1.623-4.656-3.774-8.112-6.456-10.371
		C577.023,215.63,574.236,215.031,571.487,216.16"/>
	<path fill="#0D131A" d="M603.867,216.16c1.34,1.128,2.329,3.704,2.962,7.726c0.494,3.103,0.637,5.538,0.424,7.301l6.668,2.434
		c4.584,1.552,7.089,2.892,7.513,4.021c0.774,2.046-1.868,8.572-7.938,19.577c0.706,5.714-0.775,20.106-4.445,43.175
		c-4.865,30.758-11.85,56.402-20.952,76.932c-3.736,8.395-6.136,11.358-7.193,8.889c-1.061-2.54,0.246-8.078,3.914-16.615
		c4.444-10.511,9.49-28.36,15.135-53.545c6.419-28.43,9.135-48.501,8.146-60.212c-0.069-0.846,1.341-3.492,4.232-7.937
		c2.821-4.375,4.092-7.019,3.811-7.937c-0.493-1.481-2.856-2.576-7.092-3.281l-6.243-1.481l-0.211-6.772
		c-0.141-3.598-0.704-6.032-1.691-7.301c-0.849-1.13-2.54-1.376-5.081-0.742c-2.468,0.635-4.726,1.835-6.772,3.599
		c-1.902,1.622-2.996,1.833-3.278,0.635c-0.283-1.059,0-2.152,0.847-3.281c1.835-2.54,4.586-4.445,8.254-5.714
		C598.823,214.219,601.82,214.396,603.867,216.16"/>
	<path fill="#0D131A" d="M476.775,721.878c6.702-5.786,15.483-7.09,26.35-3.916c4.442,1.34,7.973,3.21,10.584,5.607
		c2.82,2.541,3.951,5.079,3.384,7.618c-0.986,4.94-4.408,8.819-10.265,11.642c-5.926,2.895-11.675,3.352-17.249,1.376
		c-5.995-2.188-10.51-5.608-13.544-10.265C472.931,729.072,473.179,725.053,476.775,721.878"/>
	<path fill="#FFFFFF" d="M481.325,725.475c3.317-3.67,9.173-4.479,17.566-2.433c8.113,1.974,12.17,4.303,12.17,6.984
		c0,2.468-1.939,4.864-5.818,7.193c-4.162,2.4-8.185,2.963-12.064,1.692c-5.292-1.692-9.03-3.454-11.217-5.289
		C478.928,731.153,478.717,728.438,481.325,725.475"/>
	<path fill="#0D131A" d="M518.471,718.702c4.162-2.399,9.347-3.703,15.556-3.914c7.268-0.213,13.792,1.374,19.575,4.762
		c4.373,2.609,6.385,6.597,6.032,11.957c-0.352,5.434-3.069,9.276-8.146,11.535c-4.659,2.185-10.232,3.033-16.723,2.539
		c-6.349-0.425-12.133-2.011-17.354-4.763c-3.456-1.835-5.291-5.188-5.503-10.053C511.627,725.475,513.813,721.453,518.471,718.702"
		/>
	<path fill="#D08690" d="M740.058,237.535c2.61,0,3.457,0.67,2.54,2.011l-4.655,7.513c-1.692,3.951-15.556,24.199-41.588,60.741
		c-25.679,36.05-39.72,55.203-42.116,57.461c-3.104,2.892-6.419,3.845-9.948,2.857c-3.596-1.058-5.22-3.739-4.865-8.042
		c0.563-6.208,16.648-28.29,48.254-66.244C719.07,256.3,736.53,237.535,740.058,237.535"/>
	<path fill="#D08690" d="M765.666,383.145c3.176,0.634,3.246,2.187,0.213,4.656c-2.609,2.116-5.716,3.845-9.313,5.185
		c-67.302,23.846-103.386,36.297-108.256,37.356c-4.303,0.916-6.945-0.211-7.936-3.387c-0.988-3.104-0.07-5.538,2.752-7.303
		c3.032-1.905,23.21-8.57,60.529-20.001C741.682,388.083,762.352,382.58,765.666,383.145"/>
	<path fill="#FFFFFF" d="M521.963,723.146c3.243-1.553,7.335-2.397,12.275-2.538c5.714-0.07,10.827,0.985,15.342,3.176
		c3.459,1.69,5.045,4.194,4.762,7.513c-0.281,3.385-2.396,5.819-6.349,7.301c-3.668,1.411-8.041,1.977-13.122,1.694
		c-5.078-0.283-9.665-1.341-13.757-3.176c-2.752-1.199-4.197-3.315-4.339-6.35C516.563,727.521,518.293,724.98,521.963,723.146"/>
	<path fill="#0D131A" d="M732.651,405.155c-37.604,13.546-65.012,23.635-82.224,30.265l17.778,18.203
		c8.252,9.381,11.568,15.625,9.946,18.729c-1.624,3.032-7.055,4.021-16.297,2.963c-10.229-1.2-26.278-4.94-48.147-11.217
		c-2.399-0.638-3.881-2.294-4.445-4.975c-0.563-2.609,0.564-3.458,3.388-2.54c11.639,3.951,23.563,7.336,35.768,10.157
		c15.098,3.459,23.174,4.092,24.233,1.905c0.422-0.916-2.646-4.728-9.206-11.431c-5.573-5.714-10.304-10.228-14.182-13.544
		c-6.138-5.219-8.538-8.924-7.196-11.109c0.707-1.271,4.621-3.281,11.746-6.032c14.604-5.645,39.329-14.146,74.182-25.504
		c27.16-9.594,40.07-16.507,38.729-20.741c-1.06-3.315-14.072-5.926-39.049-7.83l-70.053-3.81c-6.278-0.353-9.313-1.976-9.101-4.869
		c0.141-2.68,3.176-7.547,9.101-14.603c14.319-17.001,29.665-36.367,46.032-58.095c26.174-34.708,37.672-53.722,34.498-57.037
		c-1.835-1.905-22.965,8.537-63.388,31.323l-67.938,38.941c-2.114,1.129-3.068,0.317-2.854-2.434
		c0.211-2.751,1.938-5.079,5.185-6.984c38.235-21.939,65.891-37.354,82.963-46.244c32.028-16.579,49.137-22.68,51.323-18.307
		c3.175,6.349-7.55,26.561-32.169,60.636c-28.572,37.672-46.208,61.376-52.911,71.112l64.763,4.338
		c33.863,3.387,51.146,7.972,51.854,13.757C775.614,385.473,761.504,393.797,732.651,405.155"/>
	<path fill="#0D131A" d="M63.439,456.479c0.635-4.373,9.912-7.726,27.832-10.053l42.117-2.435c2.257,0.07,5.185,1.164,8.783,3.28
		c3.528,2.116,3.809,3.033,0.847,2.752c-13.687-1.2-28.359-1.2-44.022,0c-18.625,1.34-27.937,4.057-27.937,8.147
		c0,3.738,18.554,12.24,55.663,25.503l67.725,23.703c2.398,1.061,3.562,2.436,3.492,4.127c-0.142,1.692-1.305,3.246-3.492,4.657
		c-4.375,2.962-18.414,10.862-42.117,23.703c-16.508,8.959-24.657,14.851-24.445,17.673c0.282,4.021,11.534,5.221,33.757,3.597
		l54.921-5.713c3.527-0.354,5.961,0.388,7.301,2.223c1.34,1.904,0.953,4.407-1.164,7.514c-9.877,13.968-13.934,21.41-12.17,22.327
		c0.988,0.563,7.091-1.94,18.307-7.515c11.005-5.433,18.202-9.382,21.588-11.852c1.904-1.411,3.28-1.197,4.127,0.635
		c0.776,1.905,0.706,3.174-0.212,3.812c-7.407,4.937-15.696,9.417-24.868,13.438c-11.641,5.081-19.471,6.738-23.492,4.975
		c-1.904-0.776-0.988-5.292,2.751-13.546c3.245-7.125,6.208-12.487,8.889-16.082l-59.366,4.864
		c-23.069,0.919-34.956-1.833-35.661-8.254c-0.424-3.809,8.959-11.533,28.147-23.174l40.106-22.857
		c-29.841-10.019-54.426-18.658-73.756-25.927C80.547,472.104,62.664,462.265,63.439,456.479"/>
	<path fill="#F7C6BD" d="M298.997,580.605c7.337-2.538,14.815-3.949,22.434-4.232c21.095-0.985,38.52,6.243,52.276,21.694
		c14.109,15.871,21.411,33.228,21.904,52.063c0.423,19.047-6.384,33.403-20.423,43.068c-14.603,10.019-29.982,13.757-46.138,11.217
		c-16.931-2.611-31.111-11.676-42.54-27.195c-12.134-16.368-18.448-32.769-18.942-49.205c-0.564-17.073,5.397-30.654,17.884-40.741
		C288.485,584.874,293,582.651,298.997,580.605"/>
	<path fill="#D5ABA4" d="M352.859,596.058c9.524,7.405,17.46,16.015,23.81,25.818c7.479,11.711,12.135,22.012,13.969,30.9
		c3.104,14.674-0.6,26.596-11.111,35.769c-13.404,11.638-29.56,16.4-48.467,14.284c-17.777-2.046-31.922-9.171-42.434-21.376
		c-14.321-16.649-21.27-33.298-20.846-49.947c0.353-14.392,5.855-26.595,16.508-36.612c6.278-5.856,14.392-9.665,24.338-11.431
		c8.254-1.48,15.697-1.341,22.328,0.425C337.304,585.581,344.605,589.636,352.859,596.058"/>
	<path fill="#0D131A" d="M335.61,575.738c-0.353-1.411,1.765-1.411,6.35,0c11.358,3.6,21.939,10.405,31.746,20.424
		c7.901,8.041,13.757,16.227,17.566,24.55c6.842,15.238,8.748,29.524,5.714,42.859c-2.751,12.133-9.101,22.113-19.048,29.945
		c-9.665,7.548-20.988,11.781-33.968,12.698c-13.475,0.988-26.385-1.902-38.73-8.677c-9.031-5.01-17.708-13.546-26.033-25.61
		c-9.523-13.896-14.003-26.844-13.439-38.836c0.07-1.835,0.705-2.08,1.905-0.74c1.199,1.342,1.939,3.067,2.222,5.188
		c1.693,10.792,6.42,21.516,14.18,32.168c7.479,10.3,16.121,18.2,25.926,23.703c10.229,5.716,21.588,8.184,34.075,7.41
		c12.628-0.778,23.352-4.729,32.169-11.854c9.735-7.83,15.027-18.13,15.874-30.897c0.635-10.372-1.588-21.907-6.667-34.605
		c-3.527-8.676-9.842-17.425-18.942-26.242c-8.889-8.535-17.354-14.319-25.397-17.354
		C337.728,578.598,335.893,577.221,335.61,575.738"/>
	<path fill="#0D131A" d="M268.203,636.901c-4.515-4.795-6.243-12.908-5.185-24.336c1.129-11.713,4.797-20.391,11.005-26.033
		c1.834-1.551,4.057-2.329,6.667-2.329c2.893,0,5.115,0.989,6.667,2.965l13.65,16.613c5.362,6.49,7.901,10.266,7.619,11.322
		c-1.199,4.305-7.09,9.947-17.672,16.933C279.737,639.441,272.153,641.065,268.203,636.901"/>
	<path fill="#FFFFFF" d="M271.167,632.458c-2.963-3.385-3.915-9.911-2.857-19.576c1.199-10.3,4.303-17.706,9.313-22.222
		c1.411-1.271,2.892-1.835,4.443-1.694c1.623,0.212,3.104,1.164,4.445,2.858l10.477,13.017c4.021,4.796,5.891,7.617,5.608,8.466
		c-1.34,4.584-6.208,9.628-14.603,15.131C279.386,634.152,273.775,635.49,271.167,632.458"/>
	<path fill="#0D131A" d="M325.24,569.604c11.43,2.396,18.202,6.982,20.318,13.755c1.623,5.008-3.527,12.029-15.449,21.057
		c-11.853,8.893-18.942,12.065-21.271,9.524l-10.476-11.851c-5.645-6.562-10.194-12.313-13.651-17.248
		c-0.917-1.341-0.67-2.93,0.741-4.763c0.988-1.41,2.398-2.681,4.232-3.811C300.832,569.073,312.684,566.853,325.24,569.604"/>
	<path fill="#FFFFFF" d="M290.001,587.484c-1.339-2.046-0.563-4.021,2.329-5.925c9.242-6.28,18.977-8.891,29.207-7.832
		c8.888,0.987,15.061,3.985,18.518,8.994c2.54,3.811-1.552,9.734-12.275,17.778c-10.723,8.113-17.354,10.827-19.895,8.148
		l-7.407-7.83C296.527,596.443,293.036,591.998,290.001,587.484"/>
	<path fill="#0D131A" d="M321.959,637.855c8.465-5.856,16.791-8.432,24.974-7.726c8.254,0.775,14.567,4.762,18.942,11.957
		c3.457,5.575,3.634,12.312,0.529,20.213c-2.893,7.195-7.161,12.663-12.804,16.4c-4.727,3.176-10.653,5.044-17.779,5.609
		c-9.312,0.846-16.543-1.518-21.693-7.091c-5.079-5.433-6.737-12.168-4.973-20.212C310.85,649.106,315.117,642.723,321.959,637.855"
		/>
	<path fill="#F09BA5" d="M325.558,641.241c5.927-3.951,12.488-5.751,19.683-5.396c7.901,0.354,13.51,3.526,16.826,9.523
		c2.611,4.728,2.54,10.16-0.212,16.296c-2.469,5.573-6.066,9.948-10.793,13.124c-3.81,2.538-8.748,4.055-14.815,4.549
		c-7.689,0.564-13.933-1.235-18.73-5.396c-4.303-3.738-5.397-9.276-3.28-16.611C316.209,650.342,319.984,644.981,325.558,641.241"/>
</g>
</svg>
