<?xml version="1.0" encoding="utf-8"?>
<!-- Generator: Adobe Illustrator 16.0.0, SVG Export Plug-In . SVG Version: 6.00 Build 0)  -->
<!DOCTYPE svg PUBLIC "-//W3C//DTD SVG 1.1//EN" "http://www.w3.org/Graphics/SVG/1.1/DTD/svg11.dtd">
<svg version="1.1" id="Layer_1" xmlns="http://www.w3.org/2000/svg" xmlns:xlink="http://www.w3.org/1999/xlink" x="0px" y="0px"
	 width="800px" height="800px" viewBox="0 0 800 800" enable-background="new 0 0 800 800" xml:space="preserve">
<g>
	<path fill="#69392B" d="M394.113,585.372l-5.951,28.274c-4.63,20.172-8.763,33.399-12.403,39.682
		c-2.424,4.189-6.006,6.174-10.746,5.95c-2.537-0.11-6.064-1.102-10.582-2.974c-6.064,3.087-11.08,4.189-15.046,3.307
		c-1.877-8.377-1.822-21.881,0.165-40.509l3.637-25.632L394.113,585.372"/>
	<path fill="#854C3B" d="M95.993,146.201c13.668,9.149,26.622,21.661,38.856,37.534c7.384,9.479,17.36,24.471,29.929,44.975
		l-25.961,34.724c-17.416-17.197-30.644-40.291-39.685-69.281c-7.934-25.685-9.587-41.283-4.96-46.795L95.993,146.201"/>
	<path fill="#EF8200" d="M180.153,166.539l21.991,12.401l-37.367,49.771c-12.568-20.504-22.544-35.496-29.929-44.975
		c-12.234-15.874-25.188-28.385-38.856-37.534c6.061-2.646,20.667-1.378,43.817,3.804
		C150.061,152.208,163.508,157.721,180.153,166.539"/>
	<path fill="#EF8200" d="M444.713,201.759c12.125,3.196,20.173,6.283,24.144,9.26c3.196,2.425-0.499,11.133-11.08,26.125
		c-10.03,14.11-22.158,28.385-36.377,42.825c-10.691,10.802-23.04,21.329-37.042,31.581l-17.69,12.236l-9.096,18.519
		c-7.715,14.22-15.872,25.794-24.47,34.724c-3.971,4.189-6.009,8.875-6.119,14.055c-0.11,4.629,1.489,9.977,4.796,16.039
		c4.3,7.718,13.888,13.559,28.77,17.528c13.229,3.526,26.787,4.796,40.678,3.803l29.266-5.786
		c15.654-2.207,28.442-0.389,38.364,5.456c16.755,9.7,30.094,22.874,40.015,39.52c8.595,14.219,13.279,28.162,14.054,41.833
		c0.772,13.229-2.813,32.518-10.746,57.873c8.594,1.761,14.383,5.841,17.36,12.234c3.525,17.085,5.51,37.921,5.949,62.5
		l-20.832,7.772l-38.36-10.416c-0.225-9.151-1.048-16.48-2.481-21.994c-10.03-1.1-17.804-2.754-23.312-4.957l-14.885-7.607
		c-5.62-2.754-11.241-7.658-16.865-14.717l-6.775-9.921c-8.932,3.42-20.671,6.174-35.223,8.269
		c-29.213,4.189-57.928,2.812-86.147-4.134c-23.37-8.486-42.769-21.386-58.203-38.689c-10.142-11.354-16.367-21.166-18.684-29.435
		l-24.803,14.22c-14.548,8.819-26.731,15.267-36.542,19.347c-5.07,2.094-14.658,1.929-28.77-0.495
		c-15.982-2.867-26.842-3.915-32.572-3.142c-0.333-9.592-0.11-19.18,0.66-28.771c1.434-19.071,4.905-28.385,10.416-27.943
		c15.765,1.319,29.213,0.274,40.345-3.143c6.284-1.984,14.937-7.277,25.961-15.872c9.371-7.498,15.432-13.009,18.189-16.535
		c4.85-6.283,8.763-14.332,11.74-24.143l2.812-12.896c-19.402-3.195-37.866-12.678-55.395-28.444
		c-13.448-12.125-24.634-26.18-33.565-42.163c-14.438-25.685-16.202-43.597-5.29-53.738c2.867-2.647,7.054-4.795,12.568-6.449
		l7.439-1.489c0.55-12.566,1.929-22.984,4.136-31.251c1.43-5.071,7.274-13.448,17.525-25.133l14.881-15.874l127.649,17.527
		c27.227-25.133,63.215-36.763,107.971-34.889C414.84,195.64,430.052,197.9,444.713,201.759"/>
	<path fill="#EF834A" d="M296.89,92.628c3.747,2.866,7.772,7.606,12.07,14.22c23.479,3.197,38.804,13.778,45.968,31.747
		c4.63,11.795,5.511,25.133,2.644,40.015c-1.541,8.046-4.242,14.771-8.1,20.172c-8.601,0.992-21.221,5.677-37.866,14.055
		l-21.495,17.692c-19.623-5.622-46.244-3.03-79.864,7.771l-1.818-0.33l-0.66-0.662c-4.63,0.662-9.646,3.032-15.047,7.111
		c-10.914,8.047-18.409,20.447-22.489,37.202c-1.213-1.211-2.812-4.739-4.795-10.581l-2.644-8.268
		c-5.404-3.969-9.536-11.023-12.403-21.166c-2.867-10.141-3.637-20.502-2.313-31.085c3.307-26.896,17.085-40.344,41.338-40.344
		c-5.071-5.071-8.433-11.135-10.086-18.188c-2.427-10.251-0.773-21.551,4.96-33.897c5.401-11.685,14.824-19.014,28.271-21.991
		l18.354-0.827c6.174-4.519,9.866-7.056,11.08-7.606c7.054-3.527,15.322-4.96,24.803-4.299
		C279.584,84.251,289.616,87.336,296.89,92.628"/>
	<path fill="#CF7100" d="M247.45,430.771c-7.384,4.188-16.092,6.226-26.123,6.114c-10.141-0.22-16.92-2.532-20.337-6.942
		c-0.443-0.44-0.553-3.029-0.333-7.772l0.333-6.943c6.611,1.985,14.824,2.866,24.635,2.646c9.481-0.22,17.583-1.323,24.308-3.307
		c11.021-3.417,16.205-3.144,15.542,0.828C264.813,419.359,258.804,424.485,247.45,430.771"/>
	<path fill="#BF794E" d="M140.469,248.056c2.646,0.992,3.692,6.008,3.142,15.047c-0.55,9.04-2.313,15.212-5.291,18.519
		c-2.537,2.757-4.851,4.301-6.944,4.631c-2.207,0.33-3.527-0.717-3.971-3.142c-0.55-3.197-0.055-7.991,1.488-14.385
		C132.754,253.292,136.611,246.402,140.469,248.056"/>
	<path fill="#922F00" d="M151.218,348.257l-2.646-15.376l30.093,9.259l1.323,7.771l0.825,10.086l-12.73,0.497
		c-4.19,2.536-6.669,5.458-7.442,8.765C156.895,366.061,153.751,359.06,151.218,348.257"/>
	<path fill="#ED8599" d="M160.642,370.58l1.818-4.299c1.877-3.197,4.466-5.401,7.773-6.614c5.18-1.874,8.708-2.37,10.581-1.488
		l0.333,13.558c-0.333,9.151-1.819,14.055-4.466,14.717c-2.094,0.552-5.016-0.937-8.763-4.464
		C164.168,378.351,161.745,374.548,160.642,370.58"/>
	<path fill="#FFFFFF" d="M135.014,256.488c0.11-1.983,0.715-3.747,1.819-5.291c0.993-1.433,1.983-2.095,2.977-1.983
		c0.88,0.22,1.543,1.047,1.983,2.479l0.33,5.458c-0.55,5.07-1.874,7.496-3.967,7.275c-0.994-0.11-1.818-0.937-2.482-2.48
		C135.014,260.292,134.793,258.474,135.014,256.488"/>
	<path fill="#E8B88F" d="M126.416,277.819c0-2.095,0.44-3.914,1.324-5.458c0.99-1.542,2.093-2.315,3.307-2.315
		c1.32,0,2.479,0.773,3.472,2.315c0.88,1.543,1.32,3.362,1.32,5.458c0,2.204-0.44,4.079-1.32,5.622
		c-0.993,1.542-2.151,2.313-3.472,2.313c-1.214,0-2.317-0.771-3.307-2.313C126.855,281.788,126.416,279.913,126.416,277.819"/>
	<path fill="#854C3B" d="M41.756,498.892c11.245-4.737,26.511-7.659,45.803-8.764c9.698-0.55,18.241-0.604,25.628-0.165
		l-6.284,8.929l9.096-1.488l9.921-0.825c0.55,0.553-1.323,3.526-5.624,8.928l9.096-1.319l9.921-0.169
		c0.88,0.993-7.553,10.42-25.301,28.274l6.449,1.158c4.411,0.993,6.669,1.818,6.779,2.479c0.22,1.106-6.339,4.686-19.674,10.75
		c-6.728-0.882-13.063-0.828-19.017,0.164l-19.344,4.631l-15.71-0.66l-3.967-3.806c-9.261,1.214-15.6-1.269-19.017-7.438
		l-2.148-9.591c-2.757-6.944-2.424-13.503,0.993-19.679C32.221,505.01,36.355,501.207,41.756,498.892"/>
	<path fill="#FDEABE" d="M205.617,499.884c-2.864-11.354-3.307-22.706-1.32-34.063c2.204-13.338,7.384-20.888,15.542-22.651
		c7.938-1.763,17.14,4.246,27.611,18.024c10.364,13.558,15.71,26.346,16.04,38.36c0.22,8.816,1.984,34.394,5.291,76.722
		c-8.268-4.19-17.14-10.476-26.621-18.85C223.419,540.451,211.241,521.271,205.617,499.884"/>
	<path fill="#FDEABE" d="M352.944,546.678c11.241,1.104,22.871-0.056,34.889-3.473c5.951-1.764,10.801-3.637,14.548-5.62
		c1.214,11.571,4.74,25.628,10.585,42.163c-6.505,3.527-20.008,6.613-40.513,9.261l-28.77,2.978L352.944,546.678"/>
	<path fill="#FDEABE" d="M202.808,462.683c3.197-13.668,9.258-20.724,18.188-21.166c9.808-0.551,19.289,5.291,28.44,17.527
		c10.361,13.56,15.707,30.313,16.037,50.267l-1.324,1.158c-0.99,0.109-1.543-0.109-1.654-0.663
		c-1.32-19.18-6.779-35.108-16.367-47.783c-8.377-11.024-16.7-16.373-24.968-16.04c-8.158,0.438-13.283,7.938-15.38,22.484
		c-1.983,13.778-0.66,25.798,3.97,36.049l-0.498,1.817l-1.485,0.165C201.043,491.506,199.391,476.899,202.808,462.683"/>
	<path fill="#FDEABE" d="M401.557,536.426c0.55-0.22,1.155,0.222,1.818,1.324c0.66,1.104,0.716,1.765,0.165,1.983
		c-6.615,3.417-15.433,5.954-26.457,7.604l-24.304,1.818c-0.553,0-0.829-0.605-0.829-1.818c0-1.319,0.275-1.979,0.829-1.979
		l25.298-1.987C387.889,541.717,395.712,539.403,401.557,536.426"/>
	<path fill="#854C3B" d="M130.877,513.112l6.614-7.771l-16.037,1.818h-4.63c-0.33-0.443,0.44-1.599,2.313-3.476l4.796-5.29
		l-13.724,1.817l-4.63-0.165c-0.55-0.55-0.055-1.929,1.489-4.135c0.993-1.541,2.592-3.358,4.795-5.456l2.977-2.809l5.62,0.99
		l-10.251,8.763l10.581-1.818l7.113,0.663c0.66,1.104-0.718,3.472-4.135,7.108c10.914-1.543,17.03-1.599,18.354-0.164
		c1.104,1.213-6.559,10.746-22.984,28.604c7.607,1.435,11.41,2.757,11.41,3.972c0,1.1-7.164,5.015-21.496,11.738H97.812
		c17.085-6.504,25.738-10.251,25.958-11.244l-9.423-1.158c-2.097-0.109-3.142-0.439-3.142-0.993c0-0.66,1.045-1.98,3.142-3.967
		L130.877,513.112"/>
	<path fill="#EF834A" d="M677.36,191.176c13.669,9.149,23.92,21.164,30.754,36.045c7.384,15.983,9.865,33.456,7.441,52.416
		c17.307,8.708,30.975,21.164,41.005,37.369c9.262,15.102,14.276,31.415,15.048,48.944c0.659,17.305-2.979,32.684-10.912,46.135
		c-8.381,14.438-20.505,24.306-36.377,29.596c7.385,19.731,6.556,39.52-2.481,59.36c-9.922,21.496-26.014,33.017-48.282,34.557
		c-18.849,1.214-34.119-4.133-45.801-16.037c-3.637-3.746-6.724-7.938-9.261-12.567l-2.646-5.786
		c-9.258-6.174-20.281-11.409-33.07-15.706c-25.569-8.602-47.068-8.271-64.483,0.989c-5.733-13.229-13.833-25.737-24.309-37.535
		c-20.941-23.479-43.211-31.691-66.801-24.635c-4.848-1.543-9.921-3.86-15.208-6.947c-10.364-6.171-16.429-13.06-18.192-20.669
		c-3.527-15.432-4.132-30.148-1.818-44.146c3.637-21.716,14.167-37.039,31.583-45.969l7.272-19.842
		c7.168-13.999,16.484-22.818,27.945-26.455c-0.11-8.599,3.915-18.795,12.069-30.59c8.161-11.905,18.464-22.487,30.922-31.747
		c13.668-10.031,27.285-16.315,40.843-18.849c15.542-2.977,29.435-0.606,41.665,7.109c15.436-7.938,31.641-11.354,48.615-10.251
		C649.086,177.066,663.913,182.137,677.36,191.176"/>
	<path fill="#69392B" d="M85.907,547.176l-21.994,5.456c-5.731,1.101-10.416-0.389-14.053-4.466
		c-3.747,0.33-7.388-0.33-10.915-1.982c-7.054-3.197-10.086-9.701-9.093-19.514l3.967,5.291c3.75,3.638,8.487,5.845,14.222,6.614
		l9.756,2.316c8.377,0.771,17.14-0.608,26.288-4.137c7.387-2.865,16.48-3.912,27.285-3.139c-0.44,0.99,0.55,1.485,2.977,1.485
		l9.423,1.158l-23.314,10.251L85.907,547.176"/>
	<path fill="#CF7100" d="M201.483,489.139l11.245,27.115c-36.708,23.039-58.148,35.055-64.322,36.048l-15.707-1.488l-23.149-3.638
		l11.575-5.624c6.281-3.196,9.423-5.126,9.423-5.784l-0.495-0.664l18.684-1.323c14.551-2.867,27.116-9.093,37.701-18.684
		C196.249,506.168,201.265,497.513,201.483,489.139"/>
	<path fill="#69392B" d="M130.547,535.768c0,0.658-3.142,2.588-9.423,5.784l-11.575,5.624l-9.096-0.662l23.314-10.251l-9.423-1.159
		c-2.427,0-3.417-0.495-2.977-1.485l18.684,1.485L130.547,535.768"/>
	<path fill="#DACAA5" d="M205.287,498.396l15.875,23.479c13.888,16.205,28.99,26.017,45.305,29.434l2.977,23.479
		c-7.388-3.307-15.6-8.986-24.638-17.03C226.728,541.662,213.554,521.875,205.287,498.396"/>
	<path fill="#DACAA5" d="M405.691,559.905l8.265,20.173l-25.627,6.119c-19.182,4.077-34.064,6.009-44.645,5.788l8.763-25.631
		l25.961-0.663C388.988,564.481,398.084,562.554,405.691,559.905"/>
	<path fill="#CF7100" d="M521.102,569.496c6.064,2.758,9.371,6.67,9.921,11.74c0.885,8.044,2.207,29.375,3.972,63.988l-57.705,4.466
		l-2.646-32.245c-8.821-0.99-17.969-3.358-27.446-7.105c-18.853-7.276-29.712-17.474-32.574-30.592
		c17.748,10.581,36.598,11.686,56.55,3.308c22.926-9.701,39.739-30.313,50.431-61.841c-4.518,27.116-7.663,42.328-9.423,45.636
		L521.102,569.496"/>
	<path fill="#CE723F" d="M710.098,518.237c-12.784,12.675-28.938,18.188-48.446,16.535c-19.51-1.543-33.181-8.599-41.009-21.165
		c-2.423-3.968-4.132-8.213-5.125-12.73l-0.659-5.623l9.756,6.782c8.156,5.067,16.531,8.982,25.133,11.739
		c27.557,8.483,52.14,3.417,73.745-15.215C720.954,505.284,716.492,511.844,710.098,518.237"/>
	<path fill="#CE723F" d="M702.658,410.1c5.291,2.646,13.17,3.586,23.645,2.813c16.977-1.214,31.417-8.433,43.318-21.663
		c-2.533,7.826-6.336,15.764-11.406,23.812c-10.364,15.984-22.156,24.526-35.384,25.631c0-3.417-0.884-7.277-2.647-11.577
		C716.767,420.738,710.923,414.399,702.658,410.1"/>
	<path fill="#CE723F" d="M561.116,464.665l25.965,6.449c10.801,3.526,20.113,8.652,27.941,15.376l-0.165,16.701
		c-13.34-10.031-26.566-16.977-39.686-20.836c-20.502-6.062-39.574-4.354-57.21,5.125l-1.323-6.445l-0.165,0.165
		c-10.251-17.419-19.454-30.094-27.614-38.031c-19.623-19.182-40.729-25.628-63.325-19.344c-6.395-1.437-12.732-4.355-19.018-8.766
		c-12.348-9.038-17.859-21.222-16.535-36.542c4.96,4.189,11.079,5.952,18.354,5.291c7.058-0.662,12.183-3.197,15.38-7.606
		c14.438-19.952,29.265-29.598,44.477-28.937c16.427,0.882,30.758,11.133,42.991,30.755c10.581,16.975,17.142,36.269,19.678,57.875
		c1.101,9.258,4.463,16.096,10.083,20.503C545.023,459.704,551.749,462.461,561.116,464.665"/>
	<path fill="#69392B" d="M534.498,643.241L534,682.098c-0.55,11.023-1.27,17.362-2.148,19.017c-1.101,2.534-2.809,4.851-5.126,6.943
		c-3.967,3.527-8.873,5.347-14.717,5.456c-10.471,6.395-20.667,6.448-30.588,0.165c-8.269,0.66-13.56-3.912-15.872-13.724
		c-0.993-4.41,0.11-9.536,3.308-15.377l5.287-7.438c1.656-12.568,2.371-25.138,2.151-37.701l13.229-17.36l24.804,19.344
		l7.108-10.749L534.498,643.241"/>
	<path fill="#69392B" d="M502.586,629.354l11.241,10.086l3.308-5.954c2.316-4.077,3.915-6.119,4.796-6.119
		c0.883,0,3.142,2.207,6.782,6.614l5.617,6.943v4.635l-12.399-11.909l-3.473,5.456c-1.873,3.087-3.362,4.575-4.462,4.465
		l-6.284-4.132l-17.195-13.893l-5.294,6.284c-3.967,4.852-6.999,9.041-9.093,12.568l-1.323-4.796l6.449-9.756
		c4.517-6.614,7.384-10.088,8.598-10.416C490.735,619.322,494.979,622.629,502.586,629.354"/>
	<path fill="#CE723F" d="M329.464,204.569c-15.654,7.166-28.329,15.709-38.03,25.63c-5.514-1.875-12.953-2.922-22.324-3.142
		c-18.849-0.552-37.917,3.362-57.209,11.74c10.251-7.054,19.622-12.015,28.11-14.881c7.604-2.425,17.14-3.914,28.604-4.464
		c7.498-0.33,9.976-2.867,7.442-7.606l-8.766-10.253c-8.158-9.038-16.865-15.928-26.123-20.667
		c-14.332-7.166-31.97-10.914-52.913-11.244c-2.317-2.204-4.355-5.401-6.119-9.59c-3.527-8.157-4.631-17.692-3.308-28.606
		c-0.77,8.6,3.362,14,12.403,16.205c9.368,2.315,16.535-0.165,21.496-7.44c4.847,9.811,12.125,15.598,21.826,17.362
		c9.368,1.764,17.195-0.717,23.479-7.441c-2.097,6.944,1.929,13.117,12.07,18.519c10.361,5.513,19.622,5.953,27.78,1.322
		c6.504,5.182,14.603,7.827,24.304,7.938c9.371,0.22,15.6-1.874,18.684-6.284c3.64,0.552,7.167-0.055,10.584-1.818
		c4.297-2.314,7.439-6.063,9.423-11.243l-2.148,19.346c-1.323,6.394-4.242,12.676-8.763,18.85
		C344.124,198.452,337.29,201.042,329.464,204.569"/>
	<path fill="#CE723F" d="M151.054,235.489c2.864,6.504,6.999,6.834,12.4,0.992c-1.104,6.064,0.44,11.904,4.63,17.527
		c4.407,6.174,9.313,6.779,14.717,1.82l-6.614,11.905c-4.521,8.268-6.779,13.228-6.779,14.882l-8.103-22.323
		c-2.537-1.543-4.96-4.244-7.278-8.103c-4.737-7.605-6.669-17.03-5.785-28.274L151.054,235.489"/>
	<path fill="#69392B" d="M95.993,184.065c-1.543-5.291-2.647-12.511-3.307-21.659c-0.883-10.693-0.11-16.15,2.314-16.37
		c3.637-0.332,12.788,7.496,27.446,23.479c14.441,15.653,23.039,26.786,25.796,33.4c-11.575-9.812-22.765-16.148-33.565-19.016
		C106.079,181.585,99.85,181.64,95.993,184.065"/>
	<path fill="#BF794E" d="M275.725,289.229c-0.88,7.716-5.016,14.66-12.4,20.833c-6.614,5.512-12.513,8.103-17.694,7.772
		c-6.834-0.33-13.778-2.922-20.832-7.772c-8.048-5.73-12.125-12.18-12.238-19.345c-0.11-7.054,3.197-14.055,9.921-20.999
		c6.724-6.834,13.562-10.526,20.505-11.078c9.148-0.552,17.25,3.142,24.305,11.078C273.576,276.882,276.388,283.385,275.725,289.229
		"/>
	<path fill="#FFFFFF" d="M227.441,283.771c-1.43-1.764-1.983-4.134-1.653-7.111c0.223-2.975,1.158-5.675,2.812-8.101
		c1.763-2.425,3.747-3.858,5.954-4.299c2.094-0.332,3.857,0.385,5.291,2.149c1.323,1.874,1.873,4.244,1.653,7.111
		c-0.22,2.975-1.213,5.677-2.977,8.101c-1.764,2.426-3.692,3.859-5.786,4.301C230.528,286.362,228.766,285.645,227.441,283.771"/>
	<path fill="#E8B88F" d="M232.735,311.881c-1.764-3.307-1.378-7.386,1.155-12.236c2.537-4.519,5.899-7.881,10.086-10.086
		c4.741-2.425,9.371-3.307,13.892-2.645c4.297,0.55,7.329,2.315,9.093,5.291c1.983,3.416,2.039,7.385,0.165,11.904
		c-1.983,4.63-5.401,8.212-10.251,10.748c-4.851,2.536-9.591,3.527-14.219,2.977C237.917,317.392,234.609,315.408,232.735,311.881"
		/>
	<path fill="#0D131A" d="M264.813,270.708c-5.954-6.172-12.513-9.205-19.677-9.094c-6.944,0.11-13.833,3.142-20.667,9.094
		c-6.724,5.952-10.31,12.071-10.75,18.354c-0.44,5.842,2.867,11.74,9.921,17.692c6.834,5.844,13.613,8.93,20.337,9.261
		c6.724,0.22,13.283-2.757,19.677-8.929c6.064-5.842,9.206-11.63,9.426-17.362C273.411,283.11,270.653,276.772,264.813,270.708
		 M245.135,256.158c7.938-0.11,15.432,3.472,22.486,10.748c7.057,7.164,10.42,14.825,10.089,22.983
		c-0.223,7.056-3.805,14.055-10.749,21.001c-7.384,7.274-15.102,10.746-23.149,10.416c-6.944-0.33-13.998-3.582-21.162-9.756
		c-6.505-5.621-10.31-10.968-11.41-16.039c-1.654,4.851-3.032,7-4.135,6.449c-1.101-0.662-1.214-3.307-0.33-7.938
		c2.093-10.913,7.329-20.062,15.707-27.448C229.979,259.851,237.527,256.378,245.135,256.158"/>
	<path fill="#0D131A" d="M130.547,258.639c1.764-4.74,3.362-8.103,4.795-10.086c1.764-2.535,3.582-3.529,5.456-2.977
		c2.427,0.662,3.971,4.851,4.63,12.566c0.664,7.386,0.275,13.228-1.155,17.527c-2.317,6.724-5.954,10.638-10.915,11.74
		c-5.071,1.104-7.384-1.432-6.944-7.606c0-0.44,0.33-0.717,0.99-0.827c0.664-0.11,1.048,0.055,1.159,0.497l0.993,4.134
		c0.33,0.662,1.045,1.047,2.149,1.157l4.3-2.81l3.802-6.614c1.323-3.969,2.038-9.094,2.148-15.378c0-6.062-0.55-9.369-1.653-9.921
		c-0.88-0.22-1.984,0.497-3.307,2.15c-1.654,1.764-3.087,4.299-4.297,7.606h-1.323L130.547,258.639"/>
	<path fill="#0D131A" d="M147.083,226.23c-0.44,3.307-0.385,5.788,0.165,7.441c-6.281,8.268-10.746,15.874-13.393,22.817
		c-3.417,8.93-4.851,18.796-4.297,29.599c-7.828,0.33-14.167,2.865-19.017,7.605c-4.96,4.851-7.439,11.023-7.439,18.519
		c0,11.575,6.339,26.731,19.014,45.472c14.332,21.164,30.977,36.873,49.936,47.125c3.087,1.652,7.387,3.36,12.898,5.125
		c7.274,2.424,14.497,4.021,21.661,4.796c12.345,1.322,18.684,2.592,19.014,3.802l-15.542,0.994
		c-13.448-0.554-26.786-3.642-40.014-9.258c-13.228-5.516-28.385-19.02-45.47-40.516c-18.519-23.149-27.78-42.605-27.78-58.368
		c0-15.102,9.481-24.803,28.44-29.102c0-12.787,2.094-23.864,6.284-33.235C134.738,241.552,139.918,233.946,147.083,226.23"/>
	<path fill="#0D131A" d="M178.334,457.389c14.108-15.872,20.612-30.095,19.512-42.658l3.472,0.663l3.142,0.162
		c0.22,15.875-8.158,32.021-25.133,48.446c-12.788,12.349-24.252,20.34-34.394,23.979c-5.621,2.094-15.765,3.472-30.423,4.135
		l-38.859,2.149c-16.865,1.873-29.1,5.454-36.708,10.745c-8.377,5.842-11.52,14.001-9.423,24.474l0.165,3.637
		c0.11,1.764-0.275,2.647-1.158,2.647c-5.291-12.458-4.631-22.601,1.983-30.425c7.498-8.82,22.214-14.222,44.15-16.204l38.526-2.317
		l29.1-3.307C153.421,480.537,165.438,471.829,178.334,457.389"/>
	<path fill="#0D131A" d="M212.229,513.277l1.654,4.795l-60.022,34.889l-32.077-1.487c-17.859-3.308-31.637-3.526-41.338-0.66
		c-16.645,4.958-27.227,5.126-31.747,0.495c-4.297-4.521-5.291-9.646-2.977-15.381c2.097-5.286,6.229-9.588,12.403-12.895
		c2.424-1.323,3.857-1.653,4.297-0.993c0.443,0.663-0.33,1.818-2.314,3.476C49.527,534.11,47.155,541.278,53,547.008
		c2.534,2.537,6.449,3.417,11.74,2.646l14.218-3.472c9.701-2.313,23.259-2.313,40.678,0l31.582,1.322
		C158.052,545.521,178.39,534.109,212.229,513.277"/>
	<path fill="#0D131A" d="M44.238,514.271c-9.811,7.164-13.562,14.493-11.245,21.991c2.313,7.054,7.824,10.415,16.535,10.086
		l0.66,2.147l1.323,2.148c-15.432-0.11-23.699-5.397-24.803-15.872c-0.993-10.03,3.582-17.36,13.723-21.99
		c2.097-0.884,3.637-1.214,4.631-0.993C46.276,512.119,46.001,512.947,44.238,514.271"/>
	<path fill="#0D131A" d="M189.082,170.177l-6.944,1.322c-12.015-7.164-25.353-13.062-40.015-17.692
		c-15.872-5.071-29.874-7.441-41.998-7.109c6.944,4.409,14.552,10.913,22.819,19.511c10.141,10.473,19.398,22.212,27.776,35.219
		l-1.489,6.944c-9.698-15.542-20.557-29.597-32.572-42.163c-10.361-10.803-17.25-16.48-20.667-17.03
		c-3.087,4.299-2.262,15.542,2.479,33.73c6.174,23.479,17.858,46.904,35.054,70.273l-1.818,1.985
		c-0.66,0.772-0.994,1.542-0.994,2.315c-17.635-21.606-29.595-45.307-35.879-71.101c-5.291-21.606-5.566-35.439-0.829-41.503
		c2.647-3.417,13.727-3.362,33.235,0.167C150.279,149.233,170.893,157.611,189.082,170.177"/>
	<path fill="#0D131A" d="M233.727,93.455l-4.132,2.811c-6.614-0.33-13.558,1.047-20.835,4.134
		c-10.801,4.519-18.574,11.795-23.314,21.826c-4.187,9.149-5.291,18.63-3.307,28.44c1.543,7.386,4.52,14.11,8.931,20.174h-4.135
		c-4.411-5.292-7.604-11.52-9.591-18.686c-2.974-10.583-2.259-21.109,2.152-31.582c5.181-12.457,14.438-20.999,27.777-25.629
		C217.854,91.305,226.671,90.81,233.727,93.455"/>
	<path fill="#0D131A" d="M331.119,183.9c5.73-6.393,7.549-13.006,5.456-19.842c-2.094-7.164-7.498-10.748-16.205-10.748
		c-7.495,0-13.338,3.363-17.525,10.087c-3.64,5.842-5.459,13.338-5.459,22.488c0,6.393,1.654,11.904,4.96,16.533
		c3.197,4.411,7.333,7.331,12.403,8.765c-3.087,0-5.346,0.717-6.779,2.148c-7.607-3.967-12.458-11.298-14.552-21.991
		c-1.874-10.361-0.22-20.007,4.961-28.935c5.62-9.812,13.448-14.497,23.479-14.055c11.464,0.55,18.244,5.565,20.337,15.046
		c1.983,8.928-0.715,16.259-8.103,21.991c-2.644,2.096-4.297,2.866-4.961,2.315C328.582,187.152,329.242,185.886,331.119,183.9"/>
	<path fill="#0D131A" d="M361.873,171.004c-0.77,9.149-3.692,17.692-8.763,25.628l-7.772,1.653
		c7.164-8.377,10.804-17.47,10.915-27.281c1.32-8.819,0.605-17.914-2.152-27.283c-5.62-18.96-18.628-30.038-39.021-33.235
		c-8.268-1.322-16.535-0.22-24.803,3.307c-8.268,3.749-15.212,9.424-20.833,17.032c-13.118,17.967-14.772,39.903-4.96,65.808
		c0.66,1.653,0.495,2.315-0.499,1.985c-0.88-0.442-2.039-1.985-3.472-4.631c-10.581-21.054-9.811-41.888,2.317-62.502
		c12.345-20.944,29.928-30.093,52.745-27.446c12.898,1.542,23.867,7.826,32.905,18.849
		C359.061,135.785,363.525,151.823,361.873,171.004"/>
	<path fill="#0D131A" d="M312.93,106.352h-5.458c-6.171-9.039-14.329-15.267-24.47-18.684l-30.427-0.827
		c-22.046,5.622-34.445,20.282-37.202,43.983c-1.104,9.59-0.11,18.629,2.977,27.117c2.977,8.598,7.384,14.497,13.229,17.692
		c3.637,1.653,3.692,1.985,0.165,0.992c-3.087-0.77-5.731-2.039-7.938-3.802c-5.291-4.188-9.203-10.692-11.74-19.512
		c-2.644-8.928-3.142-18.188-1.489-27.778c4.081-23.81,18.024-38.691,41.833-44.644c13.671-3.527,26.511-2.04,38.526,4.464
		C300.196,90.423,307.525,97.424,312.93,106.352"/>
	<path fill="#0D131A" d="M465.216,207.215c3.53,1.543,5.568,3.087,6.119,4.63c0.77,1.764,0.165,4.629-1.819,8.598
		c-6.943,14.44-20.561,32.684-40.843,54.731c-20.943,22.707-39.021,38.416-54.233,47.123c-4.851,2.755-7.772,3.749-8.766,2.977
		c-0.99-0.771-1.21-4.188-0.66-10.253c-5.621,3.639-8.983,4.741-10.086,3.307c-0.664-0.77,0.165-3.967,2.479-9.589l3.805-8.268
		l-13.561,2.316c-4.737,0.882-7.109,0.882-7.109,0c0-0.992,2.427-3.859,7.277-8.598c10.581-10.363,19.839-18.465,27.776-24.308
		l-20.833,2.977l-23.811,3.969l-18.684,2.149c-0.33-0.992,4.025-6.999,13.063-18.022c17.639-21.496,39.959-36.157,66.966-43.983
		c18.852-5.622,41.452-7.938,67.794-6.946c-22.266-9.258-47.563-13.613-75.896-13.062c-40.345,0.882-72.037,13.723-95.076,38.526
		c-9.478,10.363-13.393,13.503-11.74,9.425c1.543-3.637,4.136-7.716,7.772-12.235c20.723-25.575,52.524-38.968,95.406-40.18
		C413.626,191.506,441.847,196.412,465.216,207.215"/>
	<path fill="#0D131A" d="M387.169,383.311c-1.213-18.299,1.488-34.667,8.103-49.107c6.284-13.669,15.544-24.473,27.78-32.409
		l-0.993,4.134l-0.66,4.132c-7.273,3.087-13.727,10.638-19.348,22.654c-6.834,14.55-9.646,31.14-8.433,49.769
		c0.884,12.566,6.064,22.709,15.542,30.427c8.051,6.395,16.095,9.315,24.143,8.763l-9.258,2.813
		c-8.602-1.653-16.15-5.346-22.654-11.079C392.681,405.691,387.942,395.657,387.169,383.311"/>
	<path fill="#0D131A" d="M589.56,183.57c-0.33,2.094-1.269,3.417-2.813,3.969l-5.62,0.827c-10.143-6.394-22.102-8.599-35.883-6.614
		c-13.226,1.983-26.232,7.44-39.021,16.368c-29.434,20.834-45.801,49.054-49.106,84.66c-1.438,15.653,2.862,35.054,12.895,58.203
		c10.142,23.589,14.882,40.674,14.222,51.257c-0.663,12.018-2.537,22.159-5.624,30.427c-1.54,4.077-3.027,6.944-4.465,8.599
		l-4.628-2.151l5.126-11.572c3.308-9.479,4.687-18.797,4.136-27.946c-0.554-10.031-5.953-27.393-16.204-52.084
		c-9.263-22.377-13.229-40.456-11.908-54.236c1.767-19.181,7.497-36.927,17.197-53.243c9.148-15.322,20.777-27.833,34.887-37.533
		c13.892-9.591,28.388-15.268,43.49-17.032C562,173.594,576.44,176.294,589.56,183.57"/>
	<path fill="#0D131A" d="M427.515,288.897c8.271-16.313,18.962-27.338,32.08-33.069l-0.165,3.307l-1.158,3.306
		c-12.233,7.496-21.274,17.527-27.116,30.095c-4.851,10.691-7.771,24.306-8.766,40.84c-1.431,21.496,1.986,39.904,10.251,55.228
		l11.247,17.529c4.518,6.944,7.824,12.841,9.922,17.693l-6.614-3.146c-8.931-11.462-15.489-21.273-19.681-29.432
		c-7.714-14.552-11.52-33.345-11.406-56.385C416.107,319.212,419.91,303.889,427.515,288.897"/>
	<path fill="#0D131A" d="M564.093,203.578c-25.239,21.496-39.351,52.306-42.328,92.43c-0.55,7.936-0.993,21.384-1.323,40.345
		c-0.22,16.315-0.824,28.881-1.817,37.699c-3.417,27.559-13.943,50.323-31.582,68.289l-3.473-5.126
		c17.31-16.2,27.281-38.141,29.929-65.809c0.771-7.937,1.159-20.172,1.159-36.708c0-16.865,0.385-29.542,1.157-38.031
		c3.857-42.438,17.58-74.626,41.17-96.563c22.709-21.166,51.148-29.763,85.319-25.794c25.796,3.085,46.299,16.258,61.515,39.518
		c13.998,21.606,18.902,43.653,14.713,66.139l-5.789-2.811c4.414-16.203,0.442-34.724-11.901-55.558
		c-14.11-23.589-33.458-37.257-58.038-41.006C613.369,176.185,587.133,183.846,564.093,203.578"/>
	<path fill="#0D131A" d="M691.081,343.628c-9.809-1.653-18.956,1.432-27.447,9.26c-9.037,8.487-13.723,19.787-14.053,33.896
		l-5.789-0.66c0-14.22,4.466-26.346,13.396-36.377c9.368-10.471,20.556-14.772,33.563-12.896
		c12.458,1.764,21.44,8.046,26.954,18.849c4.518,9.04,5.564,17.859,3.139,26.457c-1.76,6.063-3.469,9.259-5.125,9.589
		c-1.649,0.222-1.709-3.141-0.162-10.086c1.54-7.496,0.492-14.991-3.146-22.487C708.004,350.353,700.892,345.172,691.081,343.628"/>
	<path fill="#0D131A" d="M609.897,293.857c19.068-14.55,39.021-22.817,59.855-24.803c19.069-1.653,36.982,2.041,53.738,11.08
		c16.095,8.598,28.824,20.944,38.194,37.038c9.593,16.535,13.999,34.447,13.229,53.739c-0.66,17.306-5.181,32.464-13.559,45.472
		c-8.602,13.448-20.008,22.489-34.229,27.116l-2.148-4.957c13.118-4.522,23.425-13.286,30.923-26.294
		c7.054-12.237,10.91-26.952,11.57-44.149c0.663-17.417-3.469-33.73-12.398-48.944c-8.599-14.88-20.394-26.29-35.385-34.228
		c-15.763-8.268-32.518-11.408-50.27-9.424c-19.619,2.315-38.468,10.803-56.546,25.464c-9.371,7.606-18.688,18.299-27.945,32.077
		c-4.301,6.504-12.293,19.952-23.975,40.344c-21.498,37.593-42.331,64.489-62.503,80.69l-3.144-4.792
		c16.426-10.805,36.157-36.542,59.197-77.22c12.454-22.047,21.274-36.984,26.452-44.81
		C590.988,312.046,600.639,300.914,609.897,293.857"/>
	<path fill="#0D131A" d="M634.699,385.296c24.913-0.992,46.239,4.519,63.989,16.535c19.731,13.339,30.977,32.466,33.732,57.375
		c2.091,19.292-2.702,37.206-14.387,53.741c-12.019,16.975-26.896,25.686-44.646,26.126c-18.849,0.44-34.445-4.854-46.794-15.875
		c-12.458-11.132-17.583-24.638-15.377-40.51c1.654-11.795,6.891-20.892,15.707-27.281c7.385-5.294,15.437-7.772,24.141-7.442
		c9.041,0.44,16.425,3.527,22.158,9.262c4.519,4.518,7.385,9.862,8.599,16.037c1.104,6.283,0.825,9.812-0.825,10.58
		c-1.657,0.773-3.032-1.869-4.136-7.935c-0.99-5.184-3.143-9.646-6.449-13.396c-4.74-5.288-11.134-7.99-19.179-8.101
		c-8.157-0.11-15.436,2.313-21.829,7.273c-7.604,5.954-11.739,14.276-12.399,24.969c-0.771,11.794,3.362,22.045,12.399,30.756
		c10.693,10.142,25.74,14.77,45.141,13.889c16.535-1.434,29.711-9.313,39.522-23.645c9.696-14.222,13.447-30.813,11.24-49.771
		c-2.094-18.741-11.24-34.612-27.445-47.617c-17.415-14.225-38.307-20.509-62.669-18.854c-20.503,1.323-41.391,11.078-62.669,29.266
		l-28.438,24.474c-12.128,9.701-24.309,17.584-36.545,23.645l-2.645-5.29c10.03-3.526,20.558-9.757,31.581-18.685l28.44-25.631
		C589.171,397.476,612.431,386.178,634.699,385.296"/>
	<path fill="#0D131A" d="M613.534,498.23l0.663,1.982l0.66,4.467c-33.73-22.597-65.754-28.221-96.065-16.865l-2.152-5.126
		c16.646-6.063,32.96-7.938,48.942-5.62C582.557,479.382,598.542,486.437,613.534,498.23"/>
	<path fill="#0D131A" d="M639.825,236.481c7.494,2.095,13.613,6.394,18.354,12.898c2.646,3.637,3.252,5.732,1.818,6.282
		c-1.323,0.662-3.361-0.606-6.115-3.802c-8.491-9.811-19.183-12.456-32.08-7.938c-13.339,4.521-20.008,14.44-20.008,29.764
		c0,7.605,1.764,13.89,5.291,18.85c1.767,2.424,3.527,4.078,5.294,4.96l-3.638,4.959c-2.316-1.211-4.634-3.307-6.947-6.282
		c-4.74-6.063-7.109-13.503-7.109-22.322c0-18.299,8.104-30.369,24.31-36.211C626.047,234.993,632.991,234.607,639.825,236.481"/>
	<path fill="#0D131A" d="M339.387,655.973c3.083,0.553,5.896,0.553,8.433,0l6.28-2.312l4.631,3.967l-8.433,2.979l-8.763,0.99
		c-0.553-0.11-1.213-1.102-1.983-2.979C338.888,656.745,338.833,655.861,339.387,655.973"/>
	<path fill="#0D131A" d="M397.754,583.55c-1.767,5.07-4.19,15.16-7.277,30.26c-2.757,14.11-6.006,25.796-9.756,35.057
		c-3.087,7.604-7.934,11.85-14.548,12.73c-5.184,0.55-9.371-0.552-12.568-3.309c-2.867-2.757-4.355-6.504-4.465-11.241
		c0-5.294,1.932-9.868,5.789-13.727c2.204-2.203,3.692-3.197,4.465-2.978c0.66,0.221,0.33,1.158-0.993,2.813
		c-2.867,3.86-4.301,7.993-4.301,12.403c-0.11,4.077,0.884,6.886,2.978,8.433c3.087,2.203,6.284,2.809,9.591,1.818
		c3.417-1.104,6.449-3.86,9.093-8.271c2.867-4.736,5.679-14.164,8.433-28.274c3.75-18.187,6.394-29.814,7.938-34.887
		c0.22-0.663,1.269-1.103,3.142-1.322C397.146,582.726,397.975,582.891,397.754,583.55"/>
	<path fill="#854C3B" d="M451.327,213.002l16.534,1.653c1.544,3.749-9.921,19.456-34.394,47.125
		c-26.346,29.653-48.391,49.054-66.14,58.202c1.764-5.621,2.317-8.653,1.653-9.093l-5.951,1.653l-5.125,2.313
		c6.834-11.904,9.643-18.188,8.433-18.849l-10.251,1.49l-8.766,2.314l24.143-22.156c5.951-5.512,8.488-8.93,7.604-10.253
		l-12.399-0.495c-15.102,1.432-30.757,3.914-46.958,7.441c20.722-29.653,51.479-48.724,92.267-57.211
		C425.201,214.38,438.318,213.002,451.327,213.002"/>
	<path fill="#0D131A" d="M199.5,474.421c4.96,19.844,13.998,39.136,27.116,57.87c16.755,23.813,36.322,39.742,58.698,47.787
		c18.849,6.724,38.636,9.756,59.362,9.093c18.079-0.551,40.234-4.133,66.47-10.747l1.984,4.134
		c-25.688,7.167-48.117,11.3-67.3,12.401c-24.359,1.214-46.185-2.147-65.477-10.086c-22.156-9.149-41.558-25.353-58.203-48.61
		c-15.211-21.166-23.974-41.669-26.292-61.512c-0.44-4.407-0.22-6.669,0.664-6.778C197.403,467.973,198.396,470.121,199.5,474.421"
		/>
	<path fill="#0D131A" d="M366.502,320.976l2.644,1.653c-3.857,12.015-9.811,23.92-17.855,35.714l-19.348,23.976
		c-1.874,2.095-2.647,5.622-2.314,10.583c0.33,5.291,1.819,9.48,4.462,12.571c8.268,9.697,21.661,16.257,40.18,19.674
		c10.254,1.877,26.126,0.607,47.621-3.803c18.189-3.746,33.346-2.701,45.475,3.143c12.125,5.733,24.085,15.875,35.879,30.424
		c11.465,14.108,18.243,26.676,20.338,37.7c2.203,11.575,1.599,27.062-1.819,46.464c-3.307,18.075-7.717,33.07-13.228,44.972
		c-2.754,6.064-4.961,9.316-6.614,9.761c-1.764,0.438-1.104-3.257,1.982-11.08c5.624-14.771,9.701-29.045,12.238-42.826
		c3.087-17.528,3.249-32.575,0.495-45.142c-2.644-11.794-9.038-24.084-19.179-36.872c-10.915-13.777-22.819-23.533-35.718-29.265
		c-9.262-4.189-21.99-4.796-38.195-1.822c-20.282,3.751-36.434,4.906-48.447,3.474c-19.512-2.424-34.669-9.813-45.47-22.156
		c-1.213-1.323-2.427-4.41-3.64-9.261c-1.21-4.629-1.708-7.881-1.485-9.756c0-2.975,4.407-10.031,13.228-21.164
		c11.242-14.11,20.447-30.59,27.612-49.439L366.502,320.976"/>
	<path fill="#0D131A" d="M118.147,319.817c-3.637-0.55-7.164-3.087-10.581-7.606c-3.307-4.519-4.465-8.103-3.476-10.748
		c1.544-4.519,7.168-6.172,16.869-4.96c9.808,1.213,14.438,4.189,13.888,8.929c-0.55,3.527-2.977,6.944-7.274,10.251
		C123.494,318.771,120.352,320.149,118.147,319.817"/>
	<path fill="#0D131A" d="M147.414,335.029c-5.841-2.535-8.708-4.519-8.598-5.952l7.277,0.332l26.787,9.094
		c3.857,1.212,6.226,2.371,7.109,3.472c0.88,1.102,1.543,3.582,1.984,7.441c1.103,10.251,1.433,18.739,0.993,25.463
		c-0.553,8.047-2.152,12.401-4.795,13.063c-5.624,1.543-12.18-3.804-19.677-16.039C150.774,359.336,147.083,347.045,147.414,335.029
		 M176.682,384.964c1.874-0.44,2.479-6.559,1.819-18.354c-0.55-11.023-1.434-18.299-2.647-21.826l-24.305-8.433
		c1.104,11.354,4.906,22.708,11.41,34.062C169.02,380.887,173.595,385.736,176.682,384.964"/>
	<path fill="#0D131A" d="M159.815,368.596c3.637-10.252,10.417-14.055,20.337-11.409l0.66,2.81
		c-3.967-0.992-7.769-0.33-11.406,1.985c-3.197,2.093-5.899,5.291-8.103,9.589L159.815,368.596"/>
	<path fill="#0D131A" d="M404.035,560.896c-3.088-12.454-4.518-22.597-4.298-30.423c0.22-8.375,0.881-12.346,1.983-11.905
		c1.104,0.442,1.983,4.796,2.644,13.063c1.768,20.282,6.563,37.479,14.388,51.59c3.856,7.055,10.142,13.394,18.853,19.018
		c10.801,6.943,23.421,11.296,37.865,13.06c8.595,1.104,11.85,2.207,9.753,3.308l-9.093,1.158
		c-13.229-0.439-25.852-3.915-37.865-10.416c-11.465-6.175-19.731-13.562-24.803-22.155
		C410.153,581.566,407.013,572.805,404.035,560.896"/>
	<path fill="#0D131A" d="M512.508,569.662c-0.664-0.11-1.049-1.046-1.159-2.813c-0.108-1.653,0.11-2.368,0.66-2.148l8.932,2.646
		c5.95,2.645,9.812,6.336,11.571,11.075c1.547,4.081,2.646,16.262,3.307,36.543l1.327,43.486c0.99,19.069,0.55,32.407-1.327,40.015
		c-1.76,6.504-5.126,11.189-10.083,14.054c-3.859,2.206-8.159,3.196-12.896,2.978c-6.614,3.856-12.568,5.679-17.859,5.455
		c-4.3-0.22-8.707-1.979-13.228-5.287c-6.726-0.33-11.905-2.646-15.542-6.944c-3.087-3.529-4.631-7.497-4.631-11.906
		c0-3.087,1.046-6.504,3.143-10.252c1.873-3.526,4.188-6.613,6.944-9.262c1.434-7.054,2.038-16.917,1.817-29.595
		c-0.33-13.229-1.487-23.428-3.473-30.592c0-0.55,1.214-0.88,3.641-0.99c2.312-0.108,3.527,0.165,3.638,0.825l1.154,20.337
		c0.555,14.662,0.11,26.677-1.322,36.048l-0.825,5.29l-1.983,2.979c-5.403,7.167-7.054,13.892-4.964,20.172
		c1.877,5.95,5.954,9.037,12.238,9.258l10.086,4.301c6.061,1.323,12.563-0.11,19.512-4.301l1.324-0.33
		c3.526,0.33,6.724-0.604,9.591-2.81c3.417-2.646,5.896-6.778,7.439-12.398c1.543-5.624,2.203-17.914,1.982-36.876l-0.989-40.18
		c-0.993-20.172-2.152-32.188-3.477-36.044c-1.32-3.747-4.132-7.002-8.433-9.76L512.508,569.662"/>
	<path fill="#0D131A" d="M481.586,689.705c-3.087,9.367-2.589,16.312,1.488,20.836c2.646,2.863,7.493,5.067,14.548,6.613
		l-8.924,0.162c-5.845-1.32-9.813-4.242-11.908-8.764c-2.428-4.96-2.148-10.69,0.828-17.194c0.989-1.986,2.094-3.308,3.308-3.967
		C482.024,686.729,482.246,687.502,481.586,689.705"/>
	<path fill="#0D131A" d="M502.088,689.87c-0.771,7.274,0.109,12.678,2.646,16.205c2.428,3.307,6.227,4.848,11.409,4.627
		c-0.109,2.207-1.652,3.526-4.631,3.971c-5.07-0.663-8.817-2.922-11.244-6.779c-2.978-4.63-3.308-10.58-0.99-17.857
		c0.881-2.754,1.65-4.132,2.313-4.132C502.257,685.903,502.418,687.224,502.088,689.87"/>
	<path fill="#69392B" d="M467.861,214.655c0.552,1.214-1.82,5.623-7.108,13.229l-20.67,26.291
		c-15.433-4.41-31.527-5.292-48.283-2.647c-16.646,2.757-31.802,8.709-45.47,17.859l-26.621,4.96
		c20.722-29.653,51.479-48.724,92.267-57.211c13.226-2.755,26.343-4.134,39.352-4.134L467.861,214.655"/>
	<path fill="#EF8200" d="M270.764,619.763c0.11-8.598-2.644-51.533-8.268-128.807l96.069,28.604l-8.268,37.203
		c-5.841,28.659-9.536,52.856-11.08,72.59L270.764,619.763"/>
	<path fill="#854C3B" d="M285.976,598.268l6.947,8.433l10.086-12.234l6.614,21.66l13.394-9.426l16.37,17.03
		c-1.544,18.742-0.664,34.118,2.644,46.134c1.874,7.054,0.33,14.221-4.631,21.495c-4.85,7.055-9.422,9.756-13.723,8.103
		c-4.077,6.504-9.646,9.371-16.7,8.598c-5.731-0.553-11.135-3.142-16.205-7.771c-1.21,0.113-2.809-0.385-4.796-1.485
		c-3.857-2.206-7.659-6.121-11.406-11.738c-3.75-5.734-5.514-17.752-5.294-36.048l1.488-31.252L285.976,598.268"/>
	<path fill="#854C3B" d="M289.945,605.874l-3.637-4.964l-15.212,23.647c-0.333,0.55-0.663-0.221-0.993-2.316
		c-0.44-2.204-0.44-3.527,0-3.968l7.439-11.739c5.071-7.938,7.938-11.905,8.601-11.905l3.472,4.302l3.802,5.62l5.126-7.606
		c2.313-3.638,3.857-5.346,4.63-5.126c1.543,0.55,4.022,7.441,7.439,20.671l6.944-4.466c2.977-1.873,4.851-2.757,5.624-2.646
		c1.1,0.109,4.297,2.866,9.591,8.271l7.439,8.1c0.44,0.553,0.11,1.323-0.994,2.313c-0.99,1.104-1.764,1.437-2.313,0.993
		l-13.888-16.37l-9.426,7.273c-2.534,1.877-4.187,2.646-4.96,2.316c-0.66-0.33-1.488-1.983-2.479-4.96l-4.136-14.223l-4.795,6.284
		l-3.802,3.476L289.945,605.874"/>
	<path fill="#69392B" d="M269.443,664.572l3.802,12.069c3.747,7.938,8.322,11.739,13.723,11.409
		c2.093,3.856,6.284,5.733,12.568,5.624c6.614-0.224,10.911-2.866,12.895-7.94c4.961,2.316,10.64,2.207,17.034-0.33
		c8.154-3.196,12.29-9.921,12.4-20.172c1.434,9.591,0.993,16.976-1.323,22.159c-2.754,6.283-8.378,10.03-16.865,11.24
		c-1.324,2.427-3.472,4.465-6.449,6.119c-5.951,3.307-13.118,3.031-21.496-0.825c-3.967-0.333-8.103-2.207-12.399-5.624
		C274.954,691.469,270.324,680.225,269.443,664.572"/>
	<path fill="#0D131A" d="M170.232,172.161c12.568-6.062,27.615-6.889,45.14-2.48c16.975,4.299,32.85,12.676,47.622,25.133
		c5.291,4.41,7.494,6.891,6.614,7.44c-0.883,0.552-4.081-1.322-9.591-5.622c-14.551-11.353-29.763-18.849-45.635-22.486
		c-16.315-3.749-30.372-2.757-42.167,2.975c-14.881,7.276-21.991,21.164-21.331,41.668l-1.818,3.142l-1.984,1.322
		c-1.983-11.463-0.77-21.881,3.637-31.25C155.021,183.074,161.524,176.459,170.232,172.161"/>
	<path fill="#0D131A" d="M172.38,222.593c2.647-1.985,4.906-3.032,6.779-3.142c1.877-0.11,1.544,0.771-0.99,2.645
		c-7.388,5.512-11.85,12.622-13.393,21.331c-1.654,9.26-0.11,20.612,4.63,34.063c2.534-10.143,7.219-19.127,14.053-26.953
		c6.834-7.826,15.157-13.503,24.968-17.03c0.55-0.222,0.825,0.55,0.825,2.315c-0.11,1.874-0.44,2.865-0.99,2.975
		c-8.378,3.087-15.212,7.661-20.502,13.725c-4.741,5.4-8.986,12.951-12.733,22.652l-4.795,10.581
		c-0.66,0.222-2.424-2.755-5.291-8.928c-4.961-11.244-6.779-21.715-5.456-31.417C160.807,235.709,165.106,228.104,172.38,222.593"/>
	<path fill="#0D131A" d="M187.925,182.744l9.423,0.165c-0.11,0.882-3.417,2.093-9.921,3.637c-17.635,4.41-29.1,13.173-34.39,26.291
		c-3.197,7.826-3.637,16.48-1.324,25.959c2.094,8.709,6.009,16.59,11.74,23.645v6.946c-8.047-8.819-13.503-18.354-16.37-28.605
		c-2.977-10.805-2.644-20.669,0.994-29.598c3.417-8.488,8.817-15.212,16.205-20.172
		C171.005,186.601,178.884,183.846,187.925,182.744"/>
	<path fill="#0D131A" d="M228.931,213.167c8.708-4.851,18.244-7.274,28.605-7.274c5.184,0,7.112,0.495,5.789,1.487
		c-1.213,0.882-4.63,1.765-10.251,2.645c-8.377,1.324-16.425,4.465-24.143,9.426c-7.824,4.851-13.778,10.581-17.855,17.195
		c28.44-12.125,54.838-14.88,79.201-8.268c1.653,0.441,2.093,1.048,1.323,1.82l-4.136,0.662c-10.801-1.543-22.375-1.653-34.72-0.332
		c-12.788,1.434-24.528,4.134-35.222,8.103l-15.707,5.125c-1.104-0.552,1.489-5.07,7.772-13.558
		C214.768,223.033,221.216,217.356,228.931,213.167"/>
	<path fill="#0D131A" d="M349.305,549.654c2.977-17.525,5.403-26.068,7.277-25.628c1.873,0.439,1.378,9.478-1.489,27.116
		c-2.093,12.679-5.73,30.479-10.915,53.407c-3.637,19.729-4.572,36.929-2.809,51.59c0.44,3.307,1.708,8.651,3.802,16.036
		c0.993,7.055-0.77,14.001-5.291,20.835c-4.961,7.274-11.245,9.922-18.849,7.938c-8.047-2.098-12.073-8.711-12.073-19.842
		c-0.11-2.646,0.275-4.137,1.158-4.466c0.88-0.221,1.543,0.938,1.984,3.473c1.433,8.487,5.345,13.283,11.74,14.387
		c5.954,1.213,10.141-0.938,12.568-6.449c2.534-5.624,3.307-11.465,2.313-17.524l-2.644-11.908
		c-1.543-13.008-0.773-29.323,2.313-48.942L349.305,549.654"/>
	<path fill="#0D131A" d="M285.314,690.368c-0.33-3.75-0.11-6.174,0.66-7.277c0.883-1.104,1.712,0.165,2.482,3.803
		c2.314,10.36,7.717,16.096,16.205,17.194c7.494,0.884,12.73-0.935,15.707-5.455l3.637,1.986c1.433,0.771,2.592,0.771,3.472,0
		c-6.834,8.265-15.267,11.297-25.298,9.093C292.04,707.396,286.418,700.949,285.314,690.368"/>
	<path fill="#0D131A" d="M261.01,518.072c-1.104-18.738-0.773-28.771,0.99-30.093c1.874-1.323,3.472,8.268,4.795,28.77l4.96,53.407
		c1.874,22.93,2.039,45.859,0.495,68.788c-1.434,20.502-0.275,35.051,3.472,43.651c2.977,6.834,9.921,13.833,20.835,20.997
		l1.984,1.488l3.802,1.818c-13.448-1.874-22.981-7.329-28.604-16.37c-6.834-10.911-9.313-28.66-7.439-53.243
		c1.653-20.832,1.653-40.839,0-60.018C263.765,554.67,262,534.938,261.01,518.072"/>
	<path fill="#8A969D" d="M119.472,302.29c0,0.772-0.553,1.379-1.654,1.819l-4.135,0.827l-4.132-0.827
		c-1.104-0.44-1.653-1.047-1.653-1.819c0-0.771,0.55-1.376,1.653-1.818l4.132-0.827l4.135,0.827
		C118.918,300.914,119.472,301.519,119.472,302.29"/>
</g>
</svg>
