<?xml version="1.0" encoding="utf-8"?>
<!-- Generator: Adobe Illustrator 16.0.0, SVG Export Plug-In . SVG Version: 6.00 Build 0)  -->
<!DOCTYPE svg PUBLIC "-//W3C//DTD SVG 1.1//EN" "http://www.w3.org/Graphics/SVG/1.1/DTD/svg11.dtd">
<svg version="1.1" id="Layer_1" xmlns="http://www.w3.org/2000/svg" xmlns:xlink="http://www.w3.org/1999/xlink" x="0px" y="0px"
	 width="800px" height="800px" viewBox="0 0 800 800" enable-background="new 0 0 800 800" xml:space="preserve">
<g>
	<path fill="#F6C8DD" d="M341.694,703.691c10.574,0.556,25.389,7.166,44.448,19.822c18.921,12.522,26.152,20.453,21.704,23.791
		c-10.297,7.515-35.963,13.564-77.004,18.152c-42.434,4.87-71.924,4.384-88.479-1.458c-4.454-1.394-6.264-5.356-5.426-11.894
		c0.833-6.398,3.824-12.177,8.972-17.323c7.792-7.648,23.787-15.023,47.994-22.12C315.747,706.265,331.677,703.273,341.694,703.691"
		/>
	<path fill="#D5ADBF" d="M294.321,713.08c8.629-7.371,25.67-12.449,51.128-15.23l53.216,1.666
		c13.353,4.314,22.119,10.713,26.291,19.202c5.287,10.574-0.56,20.728-17.526,30.463l-16.07,5.848l-24,5.005
		c1.81-4.449-4.939-13.005-20.24-25.666C329.728,720.038,312.131,712.941,294.321,713.08"/>
	<path fill="#0D131A" d="M394.906,700.354c1.393-1.811,4.245-1.811,8.556,0c16.693,7.098,25.739,15.856,27.129,26.291
		c1.25,9.88-4.453,17.671-17.11,23.374c-33.11,14.745-69.911,22.957-110.392,24.624c-37.98,1.667-61.632-2.504-70.951-12.519
		c-6.264-8.212-2.227-18.226,12.102-30.054c15.444-12.52,37.077-21.981,64.901-28.379l16.069-2.506l16.069-1.041l8.764,1.459
		c3.616,0.977,4.519,1.531,2.713,1.67c-38.953,4.731-69.423,13.427-91.404,26.084c-18.361,10.572-25.25,18.989-20.657,25.249
		c8.903,9.739,34.99,12.73,78.252,8.977c41.323-3.616,72.137-10.435,92.447-20.449c9.875-4.87,14.12-10.852,12.727-17.948
		c-1.527-7.651-9.875-14.263-25.037-19.826C394.767,703.83,393.378,702.163,394.906,700.354"/>
	<path fill="#F6C8DD" d="M489.229,684.284l50.502,2.505l48.828,5.005c1.254-0.556,8.14,2.369,20.662,8.769
		c12.243,6.259,19.549,10.504,21.91,12.729c12.103,11.13,19.198,21.907,21.286,32.343c1.528,8.212,0.694,12.522-2.504,12.939
		c-29.495,5.009-62.604-0.558-99.331-16.694c-18.782-8.347-37.98-19.338-57.596-32.972c-5.703-3.895-8-8.977-6.889-15.235
		L489.229,684.284l-3.963,0.833l3.963-3.129V684.284"/>
	<path fill="#D5ADBF" d="M493.403,684.701c20.452-6.815,37.628-9.324,51.544-7.51c6.953,0.834,21.074,5.144,42.359,12.936
		c5.148,1.811,11.897,5.355,20.24,10.643c8.352,5.287,10.713,7.44,7.098,6.469l-15.235-3.756c-7.927-0.836-16.064,0.695-24.415,4.59
		c-16.417,7.934-25.389,18.572-26.917,31.933c-7.235-0.281-16.207-3.063-26.921-8.351c-16.415-7.927-27.336-18.99-32.762-33.18
		c-0.974-2.506-0.834-5.287,0.416-8.348C489.922,687.205,491.454,685.396,493.403,684.701"/>
	<path fill="#0D131A" d="M506.134,673.225c35.194-2.365,71.229,6.189,108.095,25.666c13.635,7.098,24.833,15.791,33.598,26.087
		c9.185,10.853,13.286,20.73,12.313,29.63c-0.556,2.785-2.296,5.222-5.217,7.306c-2.505,1.948-5.287,3.203-8.348,3.759
		c-7.098,1.389-16.416,1.319-27.963-0.213c-22.957-3.056-47.303-9.875-73.039-20.448l-25.041-11.686
		c-9.323-5.009-16.905-10.228-22.748-15.652c-4.589-4.175-8.065-9.18-10.435-15.026c-2.778-6.677-3.058-12.311-0.834-16.897
		c0.693-1.115,1.671-1.671,2.926-1.671l0.204,0.208l1.671,2.084l-0.625,6.472c0.417,6.814,2.713,12.379,6.889,16.693
		c5.981,6.26,13.842,11.963,23.577,17.11c5.844,3.064,14.885,6.958,27.13,11.686c22.259,8.352,44.03,14.124,65.317,17.323
		l23.785,1.667l9.186-1.25l4.176-2.921c0.694-5.704-3.411-13.704-12.314-23.995c-9.185-10.713-19.545-19.203-31.092-25.462
		c-15.443-8.486-29.355-14.26-41.738-17.323c-11.406-2.778-28.869-5.005-52.379-6.677c-2.082-0.14-4.519-1.18-7.305-3.129
		C503.145,674.617,503.209,673.502,506.134,673.225"/>
	<path fill="#F6C8DD" d="M593.779,218.719c67.332,52.586,100.998,122.705,100.998,210.351c0,87.507-30.464,158.105-91.4,211.809
		c-57.457,50.638-128.825,75.961-214.105,75.961c-87.09,0-158.18-27.897-213.271-83.683
		c-52.864-53.42-79.298-119.432-79.298-198.036c0-84.029,26.712-153.102,80.136-207.22c52.448-53.281,118.391-79.924,197.828-79.924
		C460.085,147.976,533.124,171.559,593.779,218.719"/>
	<path fill="#F6C8DD" d="M593.566,109.788c12.801,51.058,16.769,89.941,11.897,116.654c-7.097-5.986-17.323-13.426-30.675-22.333
		c-15.861-10.569-27.546-17.111-35.061-19.615c-4.73-10.712-10.99-21.703-18.781-32.971c-8.624-12.519-17.041-22.12-25.249-28.796
		c-5.287-4.314-13.078-9.601-23.374-15.86c-12.24-7.514-22.814-13.078-31.717-16.694c25.317-19.199,47.3-34.087,65.941-44.656
		c23.23-13.079,39.786-18.574,49.665-16.486C568.457,31.67,580.91,58.59,593.566,109.788"/>
	<path fill="#F6C8DD" d="M692.693,386.497l18.989-5.634c12.937-3.06,20.032-3.06,21.286,0c2.501,5.704,0.76,17.805-5.222,36.309
		c-7.509,22.818-18.916,41.806-34.221,56.972l1.879-48.203l-1.254-27.128L692.693,386.497"/>
	<path fill="#FFFFFF" d="M306.844,334.744c33.944,0,61.841,11.546,83.683,34.642c18.5,19.615,27.75,40.555,27.75,62.813
		c0,34.499-11.473,63.368-34.43,86.6c-21.842,21.98-47.508,32.971-77.002,32.971c-27.406,0-51.059-11.685-70.951-35.055
		c-19.199-22.535-28.796-47.998-28.796-76.377c0-27.405,9.319-51.614,27.962-72.623
		C254.674,345.734,278.604,334.744,306.844,334.744"/>
	<path fill="#FFFFFF" d="M553.087,300.102c7.927-12.519,16.624-18.778,26.082-18.778c20.036,0,38.397,11.338,55.092,34.013
		c15.999,21.981,23.999,45.077,23.999,69.28c0,26.712-2.366,46.332-7.093,58.85c-6.68,17.39-18.852,26.083-36.521,26.083
		c-20.312,0-38.051-13.489-53.213-40.479c-14.188-25.184-21.285-51.892-21.285-80.136
		C540.146,330.013,544.458,313.735,553.087,300.102"/>
	<path fill="#2CB5A9" d="M314.566,346.637c21.703,0,41.249,7.722,58.637,23.166c18.087,16.139,27.129,35.477,27.129,58.018
		c0,27.268-9.181,49.175-27.546,65.729c-16.694,15.027-36.934,22.537-60.725,22.537c-19.894,0-37.772-8.417-53.633-25.25
		c-15.439-16.416-23.162-34.499-23.162-54.257c0-24.897,7.583-46.119,22.745-63.646
		C273.456,355.405,292.307,346.637,314.566,346.637"/>
	<path fill="#2CB5A9" d="M562.059,305.319c5.564-9.458,11.76-14.189,18.573-14.189c17.25,0,32.832,9.045,46.744,27.129
		c14.189,18.504,21.282,39.999,21.282,64.484c0,18.083-2.917,32.901-8.76,44.448c-5.844,11.685-13.499,17.526-22.957,17.526
		c-16,0-30.814-11.056-44.448-33.176c-13.218-21.568-19.823-44.035-19.823-67.405C552.67,328.832,555.8,315.893,562.059,305.319"/>
	<path fill="#0D131A" d="M576.04,204.321c-15.583-9.74-27.685-16.347-36.31-19.828c-6.681-13.773-12.592-24.624-17.735-32.554
		c-3.063-5.005-8.353-11.338-15.861-18.99l-10.435-10.223l8.139-13.564c6.398-10.157,12.241-17.879,17.527-23.166
		c8.348-8.347,16.906-15.717,25.666-22.12L557.05,84.12c7.235,16.555,12.175,32.624,14.813,48.203
		c2.647,15.721,4.177,32.416,4.593,50.086L576.04,204.321"/>
	<path fill="#922F00" d="M519.902,505.863c-15.439-9.879-28.027-15.092-37.769-15.652l-12.102,0.838l-3.967,1.042l-0.209-4.801
		c0-3.338,0.625-5.218,1.88-5.634l14.813-2.713c10.019-1.812,18.436-3.968,25.249-6.468l22.953-9.603
		c6.958-3.06,10.646-4.241,11.064-3.546l5.009,13.564c2.778,9.318,4.172,17.389,4.172,24.202l-1.671,47.165l-9.391-15.651
		C532.564,517.34,525.889,509.757,519.902,505.863"/>
	<path fill="#ED8599" d="M519.282,504.4c8.759,8.49,16.415,18.644,22.952,30.472c3.199,5.981,5.564,11.129,7.094,15.438
		l-5.844,27.547c-5.703,18.226-12.73,27.336-21.073,27.336c-8.906,0-17.739-6.676-26.504-20.031
		c-6.68-10.296-12.869-23.652-18.573-40.068c-3.755-11.268-6.745-23.646-8.972-37.146l-2.296-16.898l18.781-0.838
		C499.177,491.188,510.653,495.915,519.282,504.4"/>
	<path fill="#D5ADBF" d="M110.896,522.975c-8.907-26.989-13.564-52.309-13.985-75.96c0.699,20.313,7.375,43.128,20.036,68.45
		c14.329,28.936,33.805,55.573,58.429,79.924c61.35,60.795,134.945,91.191,220.784,91.191c88.618,0,162.49-29.077,221.617-87.229
		c22.398-22.121,40.62-46.535,54.676-73.248c12.102-23.093,18.985-43.472,20.657-61.143c0,24.348-6.12,50.43-18.365,78.253
		c-13.355,30.192-32.068,57.601-56.134,82.22c-59.684,60.938-136.895,91.404-231.636,91.404
		c-98.076,0-174.106-34.572-228.086-103.715C138.021,586.412,122.025,556.361,110.896,522.975"/>
	<path fill="#D5ADBF" d="M732.549,381.904l-0.625,14.402c-1.528,12.244-5.009,24.902-10.435,37.977
		c-5.426,13.082-12.103,23.582-20.032,31.512l-10.228,7.932l5.844-46.952C713.906,414.533,725.729,399.575,732.549,381.904"/>
	<path fill="#F6C8DD" d="M311.02,642.758c2.083-4.593,7.231-5.635,15.439-3.13c13.912,4.172,31.443,4.519,52.587,1.042
		c22.681-3.755,43.06-10.99,61.146-21.703l-1.879,7.514c-3.064,6.121-9.186,12.033-18.365,17.74
		c-7.235,4.449-21.074,9.389-41.527,14.814c-10.712,2.921-20.379,4.171-29.004,3.754c-11.129-0.416-22.05-3.407-32.763-8.973
		C310.668,650.758,308.793,647.072,311.02,642.758"/>
	<path fill="#0D131A" d="M688.935,429.486c0-81.664-29.489-148.371-88.479-200.125c-58.851-51.614-134.876-77.423-228.086-77.423
		c-36.309,0-70.813,6.819-103.506,20.453c-32.693,13.634-61.628,33.249-86.808,58.846c-25.462,26.156-45.008,56.554-58.642,91.196
		c-13.634,34.639-20.449,71.438-20.449,110.391c0,36.865,6.746,72.132,20.24,105.802c13.495,33.527,32.902,63.369,58.221,89.521
		c26.573,27.268,57.665,48.137,93.28,62.607c35.615,14.604,73.525,21.907,113.732,21.907c41.458,0,80.411-6.398,116.862-19.194
		c36.583-12.805,68.373-31.234,95.363-55.304c28.8-25.735,50.707-56.274,65.734-91.608
		C681.425,511.081,688.935,472.06,688.935,429.486 M606.715,223.937c60.655,53.143,90.987,121.659,90.987,205.55
		c0,85.558-28.869,155.468-86.604,209.725c-57.596,54.115-131.814,81.174-222.66,81.174c-87.646,0-159.222-28.239-214.734-84.724
		c-53.559-54.393-80.34-122.012-80.34-202.837c0-87.923,28.17-158.875,84.516-212.854c52.726-50.499,117.557-75.748,194.49-75.748
		C467.941,144.222,546.061,170.791,606.715,223.937"/>
	<path fill="#0D131A" d="M599.831,118.551c11.962,53.285,14.884,89.872,8.764,109.765l-1.88,2.296l-2.921,0.417
		c-2.366-0.694-3.199-2.296-2.505-4.796c5.704-19.06,2.713-54.396-8.973-106.011C580.354,67.636,567.97,38.697,555.17,33.41
		c-5.98-2.504-20.171,2.019-42.568,13.564c-24.623,12.661-48.9,29.008-72.826,49.04l-2.925,0.833l-2.501-1.458l-1.046-2.921
		l1.463-2.504c24.063-20.175,48.55-36.73,73.451-49.665c25.046-12.939,41.739-17.671,50.082-14.194
		C573.466,32.507,587.309,63.321,599.831,118.551"/>
	<path fill="#0D131A" d="M553.712,57.618l6.468,0.417c-0.14,1.254-2.156,2.783-6.052,4.593c-5.979,2.643-14.119,9.458-24.415,20.448
		c-12.662,13.217-23.234,27.685-31.718,43.406c-0.556,0.973-1.948,0.556-4.175-1.25c-2.366-1.81-3.27-3.203-2.713-4.176
		c9.045-16.555,20.452-31.3,34.222-44.239C537.018,65.965,546.477,59.566,553.712,57.618"/>
	<path fill="#0D131A" d="M576.04,132.949c6.259,27.966,8.14,52.174,5.634,72.623l-4.801,0.208c-2.778-2.645-4.102-4.662-3.963-6.051
		c3.061-18.087,1.463-40.693-4.801-67.822c-5.426-23.509-13.078-45.702-22.953-66.567c3.061-2.088,4.728-2.921,5.005-2.505
		C561.29,82.589,569.919,105.963,576.04,132.949"/>
	<path fill="#0D131A" d="M544.734,348.308c0,31.999,7.519,60.031,22.541,84.099c14.328,22.68,29.912,34.014,46.744,34.014
		c26.713,0,40.063-24.204,40.063-72.619c0-28.105-7.44-53.285-22.324-75.543c-15.026-22.259-31.928-33.389-50.71-33.389
		c-8.768,0-16.693,5.079-23.791,15.231C548.911,312.208,544.734,328.276,544.734,348.308 M536.811,348.308
		c0-21.147,4.729-38.397,14.188-51.753c8.625-12.102,18.78-18.153,30.467-18.153c21.286,0,40.276,11.616,56.97,34.847
		c16.833,23.374,25.25,50.225,25.25,80.553c0,29.911-5.635,51.333-16.901,64.276c-8.208,9.597-19.27,14.397-33.181,14.397
		c-20.174,0-37.979-12.453-53.424-37.355C544.598,410.079,536.811,381.141,536.811,348.308"/>
	<path fill="#0D131A" d="M564.564,307.615c-5.148,9.185-7.724,20.661-7.724,34.434c0,24.902,6.265,47.578,18.782,68.03
		c12.52,20.453,26.436,30.675,41.734,30.675c8.348,0,15.097-5.634,20.244-16.901c4.731-10.295,7.094-22.401,7.094-36.313
		c0-24.763-6.329-46.396-18.99-64.896c-12.796-18.504-27.686-27.754-44.656-27.754C574.79,294.888,569.29,299.129,564.564,307.615
		 M549.123,342.049c0-16.416,3.334-29.841,10.016-40.276c6.258-9.736,13.563-14.606,21.91-14.606
		c20.453,0,37.702,10.643,51.753,31.925c13.078,19.897,19.615,42.711,19.615,68.447c0,16.278-2.99,30.189-8.972,41.739
		c-6.537,12.801-15.235,19.199-26.088,19.199c-17.526,0-33.25-10.921-47.16-32.765C556.146,394.01,549.123,369.456,549.123,342.049"
		/>
	<path fill="#0D131A" d="M384.263,368.34c-19.893-20.032-43.892-30.05-71.993-30.05c-29.078,0-53.142,9.532-72.202,28.592
		c-18.921,19.06-28.383,43.197-28.383,72.41c0,29.776,9.532,55.164,28.592,76.173c19.06,21.145,42.013,31.717,68.864,31.717
		s50.707-9.81,71.577-29.425c22.397-21.005,33.598-46.813,33.598-77.419C414.314,412.236,404.299,388.237,384.263,368.34
		 M234.013,361.664c21.147-20.73,47.234-31.092,78.257-31.092c30.328,0,56.207,10.713,77.627,32.134
		c21.425,21.564,32.138,47.442,32.138,77.632c0,32.832-12.036,60.518-36.101,83.053c-22.397,21.147-47.999,31.723-76.794,31.723
		c-29.078,0-54.188-11.342-75.335-34.018c-21.282-22.676-31.926-49.943-31.926-81.804
		C201.879,408.408,212.592,382.534,234.013,361.664"/>
	<path fill="#0D131A" d="M396.786,429.069c0-21.563-8-40.068-24-55.512c-15.999-15.3-35.267-22.953-57.804-22.953
		c-19.754,0-36.935,7.583-51.544,22.745c-15.861,16.417-23.787,37.424-23.787,63.026c0,20.587,7.856,38.602,23.578,54.045
		c15.583,15.443,33.874,23.166,54.883,23.166c21.286,0,39.721-8.352,55.299-25.046C388.994,471.707,396.786,451.884,396.786,429.069
		 M231.721,436.375c0-27.967,8.764-50.851,26.292-68.66c16.137-16.555,35.128-24.833,56.969-24.833
		c24.763,0,45.911,8.417,63.438,25.25c17.532,16.833,26.295,37.146,26.295,60.938c0,25.041-8.556,46.675-25.67,64.896
		c-17.111,18.228-37.421,27.343-60.934,27.343c-22.954,0-43.059-8.49-60.309-25.462C240.415,478.874,231.721,459.05,231.721,436.375
		"/>
	<path fill="#0D131A" d="M532.009,458.282l6.265-2.917c1.526-0.421,2.852-0.421,3.963,0c4.869,2.083,8.416,11.268,10.639,27.545
		c2.092,15.579,2.436,32.972,1.046,52.166c-3.62,48.971-14.188,73.46-31.721,73.46c-17.111,0-32.759-20.036-46.952-60.101
		c-5.287-15.166-9.11-29.703-11.478-43.618c-2.228-13.63-2.292-21.703-0.208-24.203c0.693-0.834,1.879-1.532,3.547-2.088
		l8.139-1.671l29.216-7.723C516.708,465.24,525.889,461.624,532.009,458.282 M544.318,486.244
		c-1.527-11.824-3.194-19.407-5.01-22.74c-1.111,0.694-2.291,1.319-3.545,1.875c-11.131,5.981-21.492,10.296-31.093,12.939
		l-27.963,6.259l-7.097,1.463l-0.208,2.713c0,9.319,2.644,23.438,7.93,42.36c6.265,22.258,13.634,39.646,22.12,52.169
		c7.791,11.551,15.374,17.319,22.744,17.319c6.402,0,11.619-4.871,15.652-14.606c5.846-13.772,8.764-33.806,8.764-60.101
		C546.615,512.123,545.852,498.905,544.318,486.244"/>
	<path fill="#0D131A" d="M465.44,489.17c17.943-6.26,36.865-1.811,56.759,13.353c21.146,15.859,30.396,35.618,27.758,59.267
		c-0.139,1.111-0.977,1.671-2.51,1.671c-1.527,0-2.223-0.56-2.084-1.671c1.808-16.416-6.332-33.041-24.416-49.874
		c-18.919-17.531-37.007-23.3-54.256-17.317c-0.974,0.276-1.667-0.49-2.084-2.298C464.19,490.489,464.469,489.447,465.44,489.17"/>
	<path fill="#0D131A" d="M352.754,579.736c-3.338-2.228-4.662-3.895-3.967-5.01c0.56-1.254,2.574-0.902,6.055,1.043
		c6.676,3.758,15.162,7.305,25.458,10.643l25.25,7.931c13.494,4.453,22.605,7.86,27.338,10.228
		c7.23,3.754,11.197,7.998,11.894,12.727c0.976,7.514-3.408,15.098-13.146,22.749c-8.905,6.953-20.729,12.869-35.476,17.735
		c-34.642,11.271-60.655,11.061-78.048-0.625c-4.311-2.782-5.981-4.797-5.009-6.051c0.837-1.115,3.342-0.277,7.514,2.504
		c9.879,6.537,25.458,8.064,46.744,4.593c20.175-3.343,37.633-9.603,52.379-18.785c12.379-7.647,18.156-14.676,17.322-21.074
		c-0.42-2.644-4.105-5.495-11.063-8.556l-22.745-7.93l-24.833-8.766C368.685,589.057,360.129,584.604,352.754,579.736"/>
	<path fill="#0D131A" d="M689.352,381.071c25.463-6.537,40.555-7.931,45.285-4.172c6.261,5.144,5.634,18.431-1.879,39.855
		c-8.625,24.208-23.301,48.556-44.031,73.04c-0.693,0.694-0.625-1.88,0.208-7.723c0.694-5.842,1.395-9.25,2.089-10.227
		c17.114-21.146,28.864-41.665,35.268-61.559c4.866-14.75,6.051-23.791,3.546-27.129l-15.021,0.833
		c-7.792,2.088-15.791,5.009-23.999,8.764c-0.974,0.417-1.741-1.319-2.298-5.217C688.102,383.506,688.379,381.349,689.352,381.071"
		/>
	<path fill="#FFFFFF" d="M372.37,391.506c0,9.042-3.199,16.833-9.601,23.37c-6.537,6.402-14.329,9.603-23.37,9.603
		s-16.764-3.199-23.166-9.603c-6.398-6.537-9.597-14.328-9.597-23.37s3.199-16.833,9.597-23.374
		c6.402-6.398,14.125-9.597,23.166-9.597s16.833,3.199,23.37,9.597C369.17,374.673,372.37,382.464,372.37,391.506"/>
	<path fill="#FFFFFF" d="M620.491,317.008c3.474,6.259,4.866,12.449,4.172,18.569c-0.698,6.125-3.272,10.435-7.722,12.939
		c-4.449,2.366-9.459,2.296-15.023-0.208c-5.564-2.643-10.087-7.097-13.564-13.356c-3.479-6.12-4.869-12.241-4.174-18.361
		c0.693-6.125,3.269-10.435,7.721-12.939c4.314-2.504,9.324-2.435,15.027,0.208C612.354,306.504,616.872,310.884,620.491,317.008"/>
	<path fill="#F6C8DD" d="M438.938,372.308c-14.745,0-28.588-5.704-41.527-17.111c-13.634-11.968-20.449-25.74-20.449-41.319
		c0-5.847,1.181-12.522,3.546-20.036c2.504-7.93,5.287-13.425,8.347-16.486l-25.666-5.842c-11.828-3.06-19.759-6.051-23.791-8.972
		l-26.92-21.703c-13.495-11.824-20.939-20.313-22.328-25.458c-3.06-10.018-4.592-21.842-4.592-35.476
		c0-20.869,11.129-41.318,33.388-61.354c23.93-21.425,50.642-32.138,80.136-32.138c41.592,0,77.697,16.416,108.302,49.249
		c28.937,31.026,43.406,65.248,43.406,102.672c0,42.291-9.666,75.123-29.008,98.497
		C502.167,360.483,474.552,372.308,438.938,372.308"/>
	<path fill="#F6C8DD" d="M78.341,172.809c8.486-8.486,39.509-8.625,93.072-0.417c50.776,7.652,86.6,16.555,107.469,26.712
		c7.231,3.616-6.819,36.795-42.156,99.539c-32.134,57.04-54.114,92.793-65.942,107.261c-7.371,9.184-18.921,10.781-34.638,4.8
		c-15.86-6.12-27.615-16.763-35.268-31.929c-11.824-23.092-20.87-60.447-27.128-112.062C67.212,213.71,68.74,182.41,78.341,172.809"
		/>
	<path fill="#0D131A" d="M114.859,206.197c17.527-1.806,36.24-2.157,56.133-1.042c19.897,0.973,42.781,4.939,68.66,11.894
		c-9.185,17.25-20.592,36.378-34.226,57.387c-8.486,13.078-17.389,32.485-26.712,58.221c-4.588,12.8-8.417,24.346-11.477,34.642
		c-4.592-6.815-9.806-15.375-15.652-25.666c-11.685-20.314-20.379-38.745-26.083-55.304c-5.704-16.555-9.181-34.916-10.435-55.091
		L114.859,206.197"/>
	<path fill="#D5ADBF" d="M518.861,339.544c-18.088,21.981-43.541,32.971-76.374,32.971c-26.295,0-45.424-10.921-57.387-32.763
		c-2.644-4.731-4.523-11.894-5.634-21.495l-0.629-11.06c0.837,7.514,7.722,16.347,20.661,26.504
		c15.162,12.102,30.397,18.152,45.702,18.152c28.657,0,53.351-13.004,74.081-39.022c17.666-21.981,27.056-45.212,28.166-69.697
		C546.754,285.148,537.227,317.286,518.861,339.544"/>
	<path fill="#D5ADBF" d="M73.749,179.485c-0.695,33.67,3.963,70.257,13.981,109.769c10.852,42.152,24.555,73.661,41.11,94.53
		c12.102,15.166,13.147,21.911,3.13,20.24c-10.014-1.667-18.153-6.606-24.416-14.814c-6.954-8.903-13.356-20.731-19.199-35.476
		c-8.069-20.449-13.425-43.059-16.069-67.822c-2.5-23.231-2.991-47.925-1.458-74.081L73.749,179.485"/>
	<path fill="#0D131A" d="M270.326,191.591c6.259,3.754,8.764,6.467,7.51,8.138c-1.25,1.81-5.634,0.973-13.144-2.504
		c-14.333-6.819-46.397-13.217-96.201-19.198c-51.475-6.398-80.066-6.537-85.771-0.417c-10.435,11.129-12.518,43.055-6.259,95.784
		c6.259,52.309,15.999,87.785,29.216,106.427c7.093,10.153,10.153,15.787,9.181,16.902c-0.833,1.111-5.704-2.643-14.606-11.268
		c-15.583-15.027-27.198-50.919-34.851-107.682c-7.792-57.596-5.009-93.558,8.347-107.886c8.347-8.764,38.327-10.227,89.941-4.384
		C215.027,171.207,250.572,179.905,270.326,191.591"/>
	<path fill="#0D131A" d="M178.505,210.789c-26.291-2.644-46.952-3.199-61.975-1.671c-0.699,8.625,0.347,20.8,3.129,36.521
		c3.061,18.083,7.579,34.847,13.564,50.291c5.843,15.166,16.555,36.24,32.134,63.229c6.68-23.231,18.643-51.059,35.896-83.47
		c10.57-20.175,21.421-38.957,32.551-56.345C220.31,215.868,201.879,213.016,178.505,210.789 M245.077,211.414
		c2.083,0.694,3.268,1.394,3.546,2.088c0.278,0.694-0.208,1.949-1.462,3.755c-9.736,14.61-20.171,31.513-31.3,50.711
		c-21.981,38.536-36.518,70.461-43.614,95.784c-1.81,6.259-3.546,9.458-5.218,9.597c-1.532,0-3.894-2.643-7.097-7.93
		c-16.416-27.962-27.754-50.221-34.013-66.776c-6.815-17.667-11.546-37.216-14.189-58.637c-2.504-21.564-1.602-34.99,2.713-40.277
		c2.921-3.616,5.148-5.148,6.676-4.592c1.393,0.417,0.907,2.366-1.459,5.843c17.667-1.389,40.832-0.764,69.489,1.879
		C215.999,205.363,234.642,208.215,245.077,211.414"/>
	<path fill="#0D131A" d="M553.087,244.594c0,42.434-10.088,74.988-30.259,97.664c-19.619,22.12-47.304,33.18-83.054,33.18
		c-28.938,0-49.18-12.522-60.729-37.563c-4.865-10.575-6.815-21.427-5.842-32.556c0.977-11.407,4.87-21.004,11.689-28.795
		c5.704,1.389,8.065,2.643,7.093,3.754c-5.842,5.842-9.111,13.704-9.806,23.583c-0.837,9.736,0.903,19.407,5.213,29.004
		c10.435,23.235,27.893,34.85,52.382,34.85c35.61,0,62.601-13.078,80.966-39.23c15.578-21.98,23.373-49.943,23.373-83.891
		c0-42.291-14.4-78.461-43.2-108.511c-28.796-30.05-63.573-45.077-104.336-45.077c-28.522,0-54.258,10.921-77.211,32.763
		c-24.763,23.374-34.503,49.596-29.216,78.673c1.25,6.954,0.972,10.574-0.833,10.852c-1.949,0.278-3.55-3.06-4.801-10.018
		c-5.704-32.138,2.991-60.725,26.083-85.766c22.957-24.763,51.614-37.146,85.979-37.146c42.707,0,79.503,16.277,110.391,48.832
		C537.712,161.61,553.087,200.076,553.087,244.594"/>
	<path fill="#0D131A" d="M405.341,278.19c11.27,4.731,17.807,10.782,19.615,18.156c1.532,5.843,1.042,9.111-1.459,9.81
		c-2.508,0.556-4.521-2.087-6.055-7.93c-1.39-5.287-7.305-9.879-17.735-13.772c-6.26-2.366-16.347-5.079-30.259-8.139l-18.99-5.217
		c-5.981-2.227-10.435-4.801-13.355-7.722c-2.366-2.366-3.338-4.033-2.921-5.009c0.556-0.973,2.296-0.556,5.217,1.254
		c3.477,2.365,8.208,4.171,14.189,5.426l17.531,3.546C387.254,272.209,398.665,275.408,405.341,278.19"/>
</g>
</svg>
