<?xml version="1.0" encoding="utf-8"?>
<!-- Generator: Adobe Illustrator 16.0.0, SVG Export Plug-In . SVG Version: 6.00 Build 0)  -->
<!DOCTYPE svg PUBLIC "-//W3C//DTD SVG 1.1//EN" "http://www.w3.org/Graphics/SVG/1.1/DTD/svg11.dtd">
<svg version="1.1" id="Layer_1" xmlns="http://www.w3.org/2000/svg" xmlns:xlink="http://www.w3.org/1999/xlink" x="0px" y="0px"
	 width="800px" height="800px" viewBox="0 0 800 800" enable-background="new 0 0 800 800" xml:space="preserve">
<g>
	<path fill="#F6C8DD" d="M150.511,490.658c-8.062-9.842-9.516-17.433-4.36-22.776c3.562-3.655,9.277-5.762,17.151-6.327
		c5.342-0.467,15.934,0.846,31.774,3.938c16.12,3.092,28.961,6.374,38.521,9.842c4.593,1.688,8.154,6.186,10.685,13.494
		c2.343,6.656,3.375,14.202,3.092,22.637c-0.28,8.437-1.828,15.464-4.637,21.089c-3.095,6.186-7.172,9.23-12.232,9.139
		c-9.56-0.279-24.464-7.496-44.708-21.648C168.269,507.764,156.509,497.968,150.511,490.658"/>
	<path fill="#F6C8DD" d="M327.79,688.326c2.437-0.564,8.297-0.471,17.574,0.281c10.498,0.748,20.291,2.063,29.383,3.934
		c25.869,5.064,35.148,12.045,27.835,20.949c-5.997,7.406-20.948,17.523-44.847,30.367c-29.99,16.215-57.033,25.4-81.118,27.555
		c-11.437,1.033-21.512-1.264-30.226-6.889c-9.373-6.092-10.967-13.027-4.78-20.809c11.62-14.527,25.962-26.896,43.018-37.115
		C299.251,697.697,313.637,691.605,327.79,688.326"/>
	<path fill="#F6C8DD" d="M634.412,622.107c28.211,11.436,51.035,24.041,68.47,37.82c15.744,12.369,24.974,23.898,27.692,34.582
		c4.403,16.869,2.813,29.381-4.779,37.537c-7.405,7.967-18.84,10.168-34.303,6.605c-14.996-3.469-33.086-17.479-54.269-42.035
		c-17.245-20.057-27.692-34.818-31.351-44.285c-3.469-8.807-1.358-16.822,6.326-24.039
		C619.511,621.17,626.916,619.107,634.412,622.107"/>
	<path fill="#F6C8DD" d="M119.58,264.872c-11.716-21.929-22.166-45.081-31.351-69.448c23.431-8.811,44.705-21.416,63.827-37.818
		c13.217,13.779,25.822,28.305,37.818,43.583c11.058,14.152,19.448,26.148,25.167,35.99c4.311,7.406,9.044,19.402,14.197,35.991
		c4.406,14.246,6.986,24.179,7.732,29.804l1.69,14.762c0.373,4.5,0.093,8.527-0.845,12.089c-1.218,5.063-3.139,8.484-5.762,10.265
		c-2.063,1.408-5.718,2.344-10.967,2.813c-4.593,0.373-16.779-4.453-36.554-14.481c-18.839-9.653-31.164-16.963-36.973-21.932
		C140.622,300.583,131.296,286.712,119.58,264.872"/>
	<path fill="#FFFFFF" d="M70.515,99.542c4.968-3.844,15.605,0.376,31.913,12.652c14.06,10.498,30.602,25.633,49.628,45.41
		c-19.122,16.402-40.396,29.008-63.827,37.818c-9.185-24.648-15.512-45.314-18.979-62C65.312,114.491,65.735,103.198,70.515,99.542"
		/>
	<path fill="#F6C8DD" d="M649.033,485.036c8.438,18.367,12.651,38.099,12.651,59.185c0.095,21.09-4.12,40.818-12.651,59.189
		l2.25-8.855c1.029-3.469,1.358-6.516,0.985-9.141c-10.218,15.654-23.806,30.039-40.772,43.16
		c-14.995,11.623-31.817,21.746-50.471,30.367c3.375-18.182,0-39.504-10.121-63.967c-9.373-22.682-23.431-45.832-42.176-69.449
		c-18.279-22.965-38.566-43.306-60.875-61.02c-22.963-18.272-44.851-31.208-65.655-38.801
		c-28.025-10.215-52.207-13.123-72.546-8.717c-18.554,3.842-34.347,13.822-47.375,29.945
		c-12.186,15.186-20.387,32.055-24.604,50.612c-4.687,20.712-3.657,40.769,3.092,60.173l-2.53-4.078
		c-13.121-28.775-21.556-62.471-25.306-101.082c-4.969-51.925,1.358-98.694,18.979-140.308c3.375-7.968,12.654-16.31,27.836-25.023
		c12.465-7.22,29.993-15.185,52.58-23.901c25.589-9.936,54.503-13.311,86.743-10.122c33.178,3.188,58.717,12.372,76.622,27.554
		c7.592,6.47,21.463,20.902,41.613,43.303l51.175,57.359c25.024,27.743,43.347,49.112,54.97,64.109
		C635.443,460.901,643.972,474.069,649.033,485.036"/>
	<path fill="#FFFFFF" d="M237.252,557.299c-6.561-19.123-6.983-39.133-1.265-60.033c4.873-17.808,13.637-34.586,26.292-50.33
		c13.028-16.122,28.821-26.104,47.375-29.945c20.34-4.406,44.521-1.498,72.546,8.717c20.804,7.593,42.691,20.527,65.655,38.801
		c22.308,17.714,42.595,38.056,60.875,61.02c18.746,23.617,32.802,46.768,42.175,69.449c10.123,24.463,13.498,45.785,10.123,63.967
		c-17.339,8.061-34.727,14.014-52.158,17.855c-38.803,8.34-76.762,11.107-113.877,8.295c-30.179-2.344-54.361-7.641-72.541-15.887
		l3.089,5.904c-16.683-13.219-32.053-28.492-46.113-45.83C264.149,609.033,250.093,585.039,237.252,557.299"/>
	<path fill="#D5ADBF" d="M652.269,585.414c0.28,2.625-0.049,5.623-0.985,8.998l-2.39,8.855c-4.124,5.438-9.419,12.984-15.887,22.637
		c-5.718,8.063-11.53,14.576-17.435,19.543c-28.492,23.711-55.342,39.689-80.556,47.938l9.14-4.922
		c2.717-1.684,4.78-3.465,6.186-5.34c3.748-5.063,6.186-8.813,7.311-11.25c1.125-2.715,2.25-7.029,3.375-12.934
		c18.651-8.621,35.475-18.742,50.469-30.365C628.464,615.453,642.051,601.068,652.269,585.414"/>
	<path fill="#DBDCDC" d="M474.143,707.164c-15.654,1.688-34.164,1.779-55.531,0.281c-18.747-2.156-35.1-5.953-49.065-11.387
		l-3.515-1.406c-4.969-2.154-10.075-4.688-15.324-7.594c-2.81-1.498-5.482-3.186-8.012-5.061l-8.717-5.764
		c-4.217-3-7.921-6.281-11.107-9.844c17.997,8.154,42.647,13.357,73.949,15.607c37.958,2.717,76.433-0.145,115.422-8.578
		l23.481-5.342c8.994-2.438,17.433-5.482,25.304-9.141c-0.938,4.971-1.873,8.721-2.81,11.25c-1.125,3.279-2.952,6.607-5.485,9.982
		l-4.918,6.184c-2.25,2.25-4.923,4.125-8.016,5.625C515.056,699.947,493.171,705.01,474.143,707.164"/>
	<path fill="#F6C8DD" d="M465.99,471.396c3.842-2.437,9.324-1.545,16.446,2.674c6.468,3.748,12.981,9.37,19.542,16.869
		c6.374,7.313,10.967,14.198,13.779,20.666c2.997,7.03,2.902,11.718-0.282,14.06c-18.743,13.404-37.116,23.572-55.11,30.51
		c-20.713,7.871-33.646,8.154-38.803,0.842c-7.216-10.4-4.687-25.68,7.592-45.831C440.029,493.563,452.304,480.301,465.99,471.396"
		/>
	<path fill="#D5ADBF" d="M376.715,287.229c2.625,0.936,5.013,2.81,7.169,5.622c3.748,4.873,6.141,11.81,7.172,20.807
		c1.591,13.31-4.829,26.993-19.262,41.053c-14.622,14.152-31.071,22.353-49.345,24.603c-14.249,1.876-26.434,0.516-36.554-4.078
		c-9.279-4.121-17.48-11.293-24.604-21.509c-2.626-3.844,15.557-16.12,54.547-36.836
		C354.268,296.458,374.561,286.569,376.715,287.229"/>
	<path fill="#D5ADBF" d="M180.594,517.09c-22.214-16.216-34.254-28.871-36.131-37.958c4.407,3.936,16.683,11.432,36.833,22.493
		c13.593,7.59,28.964,14.012,46.113,19.26l6.89,24.322C220.429,542.301,202.529,532.928,180.594,517.09"/>
	<path fill="#D5ADBF" d="M345.786,686.357l35.568,11.105c19.213,5.998,28.541,9.279,27.977,9.84
		c-10.871,12.563-29.43,25.213-55.672,37.961c-2.157-21.559-10.404-35.758-24.744-42.598c-11.527-5.533-22.401-5.533-32.616,0
		c6.467-5.156,15.417-9.561,26.854-13.215C334.303,685.887,341.849,684.859,345.786,686.357"/>
	<path fill="#D5ADBF" d="M509.009,504.013c2.25-2.344,3.704-3.139,4.356-2.388c3.002,3.466,5.063,7.59,6.188,12.369
		c1.408,5.813,0.376,9.891-3.092,12.232c-8.812,5.998-19.448,11.902-31.916,17.715c-19.119,8.996-35.146,13.779-48.078,14.34
		l-7.172-0.982c-2.157-0.846-2.063-1.641,0.28-2.393c4.22-1.406,11.529-4.592,21.935-9.561c7.496-2.996,16.869-8.436,28.119-16.307
		c9.185-6.467,16.682-12.326,22.493-17.575L509.009,504.013"/>
	<path fill="#D5ADBF" d="M633.287,661.756c-2.53,5.246-4.215,12.979-5.061,23.195c-0.188,2.344-2.766-0.234-7.732-7.73
		l-10.26-15.748c-6.281-7.871-7.545-15.184-3.798-21.932c4.313-7.592,14.433-13.027,30.369-16.309
		c2.81-0.564,8.575,1.311,17.292,5.625c8.714,4.402,11.996,6.979,9.839,7.73C648.941,642.307,638.726,650.693,633.287,661.756"/>
	<path fill="#0D131A" d="M582.96,392.949c31.487,30.93,53.845,60.22,67.059,87.868c16.776,35.148,19.964,69.266,9.56,102.35
		c-9.092,28.959-28.118,54.641-57.076,77.043c-28.119,21.838-60.875,37.02-98.273,45.549c-39.083,8.904-76.854,8.904-113.314,0
		c-40.115-9.842-74.136-29.662-102.065-59.469c-15.843-16.873-30.04-38.568-42.601-65.092
		c-12.652-26.809-22.211-55.533-28.679-86.183c-14.715-70.2-10.827-132.057,11.667-185.575c1.69-3.844,3.001-4.171,3.94-0.985
		c1.029,3.188,0.746,6.421-0.845,9.702c-7.31,15.185-12.325,35.053-15.042,59.609c-2.909,26.241-2.579,53.705,0.982,82.383
		c8.528,70.392,33.178,129.624,73.949,177.704c24.837,29.334,56.75,49.205,95.74,59.609c35.708,9.467,73.013,10.121,111.91,1.967
		c37.957-7.965,70.808-22.869,98.553-44.705c29.148-22.965,47.658-49.816,55.529-80.559c6.844-26.711,4.547-54.08-6.887-82.104
		c-11.529-28.306-32.712-58.063-63.547-89.272c-7.686-7.778-22.681-24.647-44.988-50.609c-19.398-22.59-35.475-39.694-48.22-51.314
		c-40.114-36.367-81.167-51.035-123.156-44.006c-3.372,0.656-5.482-0.235-6.325-2.672c-0.938-2.344,0.044-3.749,2.953-4.215
		c46.017-6.47,89.41,8.714,130.184,45.548c12.651,11.436,28.349,28.165,47.095,50.189
		C561.589,369.988,575.554,385.732,582.96,392.949"/>
	<path fill="#0D131A" d="M278.867,361.598c6.653,8.531,9.699,18.56,9.137,30.085c-0.466,11.623-4.357,21.372-11.667,29.244
		c-7.219,7.778-15.75,11.48-25.589,11.104c-9.839-0.468-18.043-4.968-24.601-13.494c-6.563-8.528-9.609-18.56-9.14-30.085
		c0.469-11.623,4.36-21.322,11.669-29.104c7.216-7.872,15.744-11.573,25.586-11.104
		C264.104,348.619,272.304,353.069,278.867,361.598"/>
	<path fill="#FFFFFF" d="M275.915,364.27c5.812,7.496,8.481,16.311,8.012,26.43c-0.467,10.217-3.935,18.794-10.405,25.728
		c-6.464,6.938-14.01,10.216-22.634,9.842c-8.717-0.469-15.934-4.405-21.651-11.809c-5.809-7.499-8.481-16.309-8.012-26.431
		c0.469-10.216,3.935-18.793,10.405-25.729c6.371-6.935,13.917-10.216,22.634-9.84C262.887,352.833,270.103,356.771,275.915,364.27"
		/>
	<path fill="#0D131A" d="M278.724,371.862c5.249,6.747,7.639,14.76,7.172,24.039c-0.472,9.186-3.655,16.964-9.56,23.338
		c-5.904,6.374-12.797,9.373-20.666,8.997c-7.875-0.282-14.436-3.795-19.685-10.545c-5.249-6.747-7.639-14.763-7.169-24.041
		c0.469-9.185,3.655-16.964,9.56-23.337c5.811-6.28,12.701-9.232,20.667-8.856C267.009,361.739,273.572,365.208,278.724,371.862"/>
	<path fill="#2CB5A9" d="M277.04,374.532c4.687,5.998,6.84,13.077,6.464,21.229c-0.466,8.154-3.279,14.994-8.435,20.526
		c-5.153,5.528-11.2,8.154-18.137,7.872c-6.84-0.28-12.605-3.422-17.292-9.42s-6.793-13.074-6.327-21.227
		c0.376-8.153,3.142-14.997,8.297-20.528c5.153-5.528,11.2-8.151,18.134-7.869C266.682,365.395,272.447,368.534,277.04,374.532"/>
	<path fill="#0D131A" d="M448.697,345.57c8.059,10.78,10.823,22.634,8.293,35.568c-2.529,13.027-9.605,23.338-21.229,30.931
		c-11.62,7.686-24.415,10.401-38.381,8.151c-13.963-2.153-24.977-8.621-33.038-19.398c-8.062-10.777-10.824-22.635-8.295-35.57
		c2.533-13.028,9.606-23.383,21.229-31.068c11.716-7.593,24.508-10.265,38.379-8.015
		C429.623,328.326,440.638,334.792,448.697,345.57"/>
	<path fill="#FFFFFF" d="M445.042,347.682c7.405,9.839,9.981,20.666,7.731,32.476c-2.343,11.81-8.811,21.182-19.4,28.119
		c-10.592,6.934-22.258,9.416-35.006,7.448c-12.654-2.061-22.681-7.966-30.086-17.713c-7.313-9.749-9.842-20.526-7.592-32.337
		c2.343-11.902,8.81-21.322,19.401-28.256c10.591-6.937,22.261-9.422,35.006-7.452C427.746,332.029,437.729,337.936,445.042,347.682
		"/>
	<path fill="#0D131A" d="M443.214,351.476c6.467,8.624,8.717,18.137,6.747,28.539c-2.063,10.404-7.732,18.652-17.012,24.744
		c-9.373,6.094-19.635,8.247-30.787,6.47c-11.155-1.689-19.963-6.844-26.434-15.466c-6.464-8.624-8.668-18.135-6.607-28.539
		c1.97-10.404,7.592-18.652,16.872-24.744c9.373-6.091,19.635-8.247,30.79-6.467C427.937,337.699,436.746,342.853,443.214,351.476"
		/>
	<path fill="#2CB5A9" d="M440.121,353.585c5.906,7.778,7.966,16.402,6.186,25.869c-1.874,9.466-7.029,16.962-15.464,22.493
		c-8.526,5.528-17.856,7.496-27.976,5.904c-10.125-1.595-18.137-6.326-24.042-14.201c-5.905-7.776-7.919-16.4-6.047-25.866
		c1.783-9.466,6.937-16.965,15.464-22.494c8.438-5.528,17.713-7.499,27.838-5.904C426.296,340.98,434.311,345.71,440.121,353.585"/>
	<path fill="#FFFFFF" d="M269.165,379.455c0.187,2.437-0.374,4.593-1.685,6.464c-1.408,1.877-3.188,2.909-5.345,3.096
		c-2.157,0.188-4.078-0.517-5.762-2.109c-1.69-1.595-2.626-3.608-2.813-6.045c-0.189-2.438,0.376-4.594,1.688-6.468
		c1.405-1.874,3.186-2.905,5.339-3.093c2.157-0.093,4.078,0.656,5.768,2.25C268.04,375.047,268.978,377.018,269.165,379.455"/>
	<path fill="#FFFFFF" d="M421.563,348.104c2.717,2.061,4.357,4.687,4.922,7.872c0.653,3.186,0.045,5.998-1.828,8.435
		c-1.783,2.437-4.267,3.845-7.451,4.218c-3.096,0.282-5.998-0.609-8.717-2.67c-2.627-2.063-4.265-4.687-4.92-7.872
		c-0.565-3.188,0.047-6.001,1.827-8.438c1.874-2.437,4.357-3.795,7.452-4.077C416.033,345.194,418.939,346.04,421.563,348.104"/>
	<path fill="#0D131A" d="M69.25,96.874c5.905-3.188,14.527-1.268,25.868,5.762c10.31,6.277,29.195,23.339,56.656,51.172
		c34.679,34.962,57.269,64.063,67.764,87.309c1.408,2.996,4.733,12.463,9.982,28.398c5.342,16.307,8.155,25.727,8.438,28.257
		c0.28,2.812-0.096,4.406-1.125,4.779c-1.125,0.376-1.877-1.031-2.25-4.217c-0.659-6.186-6.938-24.275-18.839-54.266
		c-4.687-11.998-20.716-33.32-48.083-63.969c-29.337-32.806-54.922-56.751-76.76-71.839c-7.874-5.532-13.778-7.359-17.714-5.485
		c-4.031,1.968-5.202,7.405-3.515,16.31c5.249,28.491,16.496,63.028,33.741,103.612c18.183,42.74,34.022,70.107,47.519,82.104
		c5.155,4.593,15.511,10.871,31.068,18.839c14.435,7.403,26.291,12.748,35.571,16.026c2.716,0.938,4.264,2.483,4.637,4.641
		c0.472,2.156-1.076,2.672-4.637,1.547c-2.25-0.658-12.605-5.531-31.071-14.621c-19.212-9.373-30.742-15.371-34.583-17.997
		c-14.622-9.84-32.29-38.801-53.002-86.881c-19.495-45.084-31.397-81.637-35.709-109.659C61.611,106.477,63.626,99.87,69.25,96.874"
		/>
	<path fill="#0D131A" d="M176.377,517.09c-27.084-19.591-38.427-34.869-34.021-45.833c3.562-8.997,13.777-13.074,30.649-12.231
		c11.713,0.658,24.039,3.188,36.973,7.593c6.188,2.061,9.233,3.888,9.14,5.483l-10.547-0.422
		c-14.153-3.562-25.164-5.719-33.036-6.468c-15.84-1.501-25.213,1.029-28.119,7.593c-3.375,7.684,7.03,20.337,31.211,37.958
		c21.838,15.935,37.818,25.167,47.94,27.696c4.969,1.313,8.294,3.092,9.982,5.342c1.688,2.248,0.703,3.139-2.952,2.67
		c-5.342-0.656-13.543-3.795-24.604-9.416C197.749,531.242,186.875,524.586,176.377,517.09"/>
	<path fill="#0D131A" d="M465.707,472.661c0.656,1.032,0.421,2.063-0.704,3.096c-8.341,7.402-16.776,17.291-25.304,29.663
		c-9.937,14.246-15.748,26.195-17.436,35.85c-1.031,5.719,0.703,9.795,5.203,12.23c4.5,2.531,11.107,2.814,19.82,0.846
		c8.248-1.877,19.871-6.188,34.869-12.934c13.871-6.375,23.336-11.387,28.398-15.045c3.092-2.248,4.92-2.623,5.482-1.123
		c0.656,1.406-0.373,3.279-3.092,5.623c-5.906,5.156-16.121,10.918-30.649,17.291c-12.651,5.436-22.964,9.141-30.931,11.105
		c-27.088,6.281-38.426-1.264-34.021-22.633c1.781-8.531,7.355-19.965,16.729-34.304c10.313-15.561,19.636-25.496,27.977-29.807
		L465.707,472.661"/>
	<path fill="#0D131A" d="M414.253,708.428c-5.905,6.656-19.871,16.402-41.896,29.244c-19.122,11.246-34.586,19.355-46.396,24.322
		c-29.617,12.654-53.422,16.072-71.416,10.262c-6.937-2.25-12.092-5.623-15.464-10.119c-3.002-4.221-3.984-8.438-2.953-12.654
		c3.279-13.215,16.307-26.9,39.083-41.055c19.585-12.275,37.349-20.057,53.279-23.336l20.949-0.984
		c4.497,1.313,0.936,2.859-10.685,4.641c-19.025,2.906-39.129,11.293-60.312,25.164c-20.15,13.217-31.538,24.605-34.163,34.166
		c-2.343,9.09,1.923,15.182,12.794,18.271c13.214,3.656,32.898,0.801,59.047-8.572c14.806-5.25,32.52-13.826,53.143-25.73
		c15.744-9.184,28.492-17.338,38.238-24.461c2.719-1.967,5.016-2.857,6.89-2.67C416.267,705.01,416.22,706.178,414.253,708.428"/>
	<path fill="#0D131A" d="M639.615,627.59c-4.594-2.154-6.793-4.121-6.607-5.904c0.188-1.686,2.482-1.686,6.887,0
		c22.776,8.623,42.602,19.121,59.471,31.492c20.34,14.811,32.383,29.805,36.131,44.988c4.873,19.777,0,33.459-14.619,41.053
		c-14.529,7.404-31.211,5.482-50.051-5.764c-9.75-5.813-21.043-16.076-33.883-30.789c-11.621-13.311-21.836-27.137-30.646-41.477
		c-3.092-4.967-3.794-8.104-2.11-9.416c1.781-1.408,4.171,0.326,7.173,5.201c5.621,9.467,12.322,19.26,20.102,29.381
		c13.027,16.869,25.306,29.244,36.836,37.115c17.15,11.715,32.242,15.514,45.271,11.389c13.308-4.123,18.416-15.09,15.32-32.896
		c-2.902-16.494-16.025-32.525-39.363-48.082C678.654,646.664,662.015,637.9,639.615,627.59"/>
	<path fill="#0D131A" d="M85.839,132.438l-7.311-6.606c-2.625-2.25-3.655-3.655-3.092-4.218c0.656-0.563,2.576,0.283,5.763,2.533
		c14.715,10.401,36.084,34.067,64.11,70.993c31.773,42.179,57.077,82.855,75.916,122.032c2.343,4.687,3.139,8.062,2.39,10.122
		c-0.749,2.063-2.719,0-5.904-6.185l-6.045-11.247c-11.343-0.563-22.447-3.093-33.321-7.593
		c-8.155-3.468-14.619-7.266-19.399-11.387c-5.345-4.5-18.09-28.635-38.241-72.404C100.647,174.99,89.026,146.312,85.839,132.438"/>
	<path fill="#ED8599" d="M303.891,423.456c5.905-2.343,11.903-1.028,17.994,3.938c5.625,4.688,8.95,10.217,9.982,16.591
		c1.218,7.31-1.591,12.324-8.435,15.041c-6.936,2.72-13.357,1.404-19.262-3.936c-4.873-4.313-7.31-10.218-7.31-17.714
		C296.954,429.971,299.298,425.33,303.891,423.456"/>
	<path fill="#F6C8DD" d="M541.906,93.639c22.494,19.774,47.987,34.679,76.481,44.705c-16.496,36.646-34.774,68.656-54.833,96.022
		c-23.619,32.24-46.629,53.565-69.029,63.968c-13.773,6.467-23.806,10.171-30.082,11.106c-3.845,0.563-8.578-0.047-14.203-1.827
		c-3.373-1.032-6.23-2.39-8.574-4.077c-2.438-1.968-4.873-4.78-7.311-8.435c-4.217-6.374-6.188-17.105-5.904-32.193
		c0.187-14.998,2.437-26.95,6.746-35.852c11.062-22.963,26.571-46.628,46.535-70.999
		C499.355,134.595,519.412,113.789,541.906,93.639"/>
	<path fill="#FFFFFF" d="M642.287,28.968c4.779,2.437,6.887,6.278,6.326,11.527c-1.125,11.34-4.17,25.353-9.14,42.035
		c-5.528,18.277-12.56,36.88-21.086,55.813c-28.495-10.026-53.987-24.931-76.481-44.705c31.022-27.93,58.203-48.739,81.541-62.422
		C630.664,26.999,636.941,26.25,642.287,28.968"/>
	<path fill="#0D131A" d="M650.722,49.069c-3.375,19.122-10.498,42.412-21.369,69.874c-11.716,29.338-25.213,56.938-40.487,82.807
		c-38.804,65.515-75.637,99.115-110.506,100.8c-5.529,0.282-9.279-0.326-11.246-1.827c-1.875-1.592,0-2.577,5.625-2.952
		c38.894-3,78.213-40.396,117.955-112.19c14.805-26.804,27.6-54.827,38.381-84.07c9.746-26.335,15.228-46.16,16.445-59.47
		c0.377-4.311-1.265-7.356-4.919-9.137c-4.217-2.063-9.655-1.265-16.307,2.39c-22.591,12.185-51.128,34.492-85.618,66.919
		c-45.46,42.645-78.777,84.729-99.961,126.249c-6.934,13.4-8.762,32.569-5.482,57.5c0.563,4.126,0.047,5.389-1.547,3.797
		c-1.594-1.594-2.998-4.64-4.217-9.137c-3.092-10.78-3.375-21.935-0.845-33.464c0.845-3.748,3.61-11.902,8.297-24.461
		c10.026-26.524,37.349-62.376,81.963-107.55c42.552-43.114,76.948-71.373,103.19-84.773c10.59-5.345,18.746-6.7,24.463-4.077
		C650.814,29.105,652.878,36.701,650.722,49.069"/>
	<path fill="#F6C8DD" d="M329.9,235.491c9.277,0.28,19.026,5.529,29.241,15.744c12.468,12.468,18.699,27.604,18.699,45.411
		c0.096,17.061-5.156,31.351-15.747,42.88c-13.028,14.06-32.427,21.605-58.202,22.637c-20.337,0.746-38.99-7.313-55.955-24.184
		c-15.274-15.185-24.368-31.725-27.273-49.625c-4.497-28.495,0.327-53.285,14.479-74.374c11.902-17.808,26.151-28.399,42.74-31.771
		c13.217-2.719,24.884-1.923,35.006,2.39c11.061,4.594,17.854,12.419,20.384,23.477C335.335,216.98,334.21,226.119,329.9,235.491"/>
	<path fill="#D5ADBF" d="M376.012,287.229c0.749-3.002,1.312-2.017,1.688,2.952c0.28,4.966,0.093,10.729-0.563,17.292
		c-1.032,11.34-5.905,21.978-14.622,31.913c-10.871,12.559-25.446,20.384-43.723,23.479c-19.775,3.278-38.8-1.081-57.08-13.077
		c-12.934-8.435-22.68-18.087-29.241-28.958c-1.874-3.002-3.279-5.954-4.217-8.857c-1.032-3.095-0.093-2.766,2.81,0.982
		c11.906,15.465,26.9,26.242,44.991,32.336c16.775,5.529,31.96,5.905,45.55,1.122c14.619-5.152,26.292-12.418,35.005-21.788
		C365.421,315.063,371.888,302.6,376.012,287.229"/>
	<path fill="#D5ADBF" d="M296.299,242.241c4.124,2.717,9.09,3.748,14.902,3.09c5.156-0.653,9.936-2.388,14.339-5.199l4.922-3.938
		l4.357,0.563c3.001,0.563,4.64,1.312,4.922,2.25c0.749,1.874-1.455,5.249-6.607,10.122c-5.905,5.624-12.512,8.527-19.824,8.717
		c-7.872,0.187-14.576-3.562-20.104-11.247c-4.966-6.843-6.7-11.107-5.202-12.795C290.72,237.741,293.487,240.55,296.299,242.241"/>
	<path fill="#0D131A" d="M624.293,60.177l7.732,0.28c0.842,1.783-0.752,3.235-4.781,4.36l-5.344,1.967
		c3.562,9.936-7.496,39.04-33.18,87.306c-24.65,46.208-45.081,78.169-61.297,95.883c-5.905,6.464-12.698,12.462-20.385,17.994
		c-6.653,4.779-10.73,7.123-12.231,7.029c-0.749-0.093-0.892-1.268-0.42-3.515l0.843-9.563v-5.482
		c-0.938-0.279-5.672,2.486-14.199,8.298c-8.812,5.998-14.904,10.777-18.277,14.339l-0.422,2.81
		c-0.563,4.313-1.734,6.095-3.516,5.346c-1.781-0.659-2.482-3.984-2.106-9.982c0.842-13.311,7.263-31.211,19.259-53.708
		c11.34-21.18,25.869-43.297,43.583-66.356c17.903-23.336,35.944-43.583,54.127-60.732
		C593.173,78.078,610.044,65.988,624.293,60.177"/>
	<path fill="#0D131A" d="M336.789,214.544c0.373,7.59-0.752,13.964-3.375,19.119c9.653,1.968,18.653,7.123,26.994,15.465
		c11.526,11.436,18.137,26.335,19.821,44.707c2.25,23.713-7.639,42.925-29.664,57.64c-9.936,6.654-20.806,10.874-32.616,12.652
		c-12.372,1.877-24.228,0.798-35.571-3.232c-24.554-8.715-42.315-22.729-53.279-42.035c-10.967-19.306-14.436-42.831-10.405-70.577
		c2.81-19.492,11.81-36.41,26.994-50.75c16.213-15.277,33.928-21.651,53.143-19.119c10.685,1.405,19.492,5.34,26.429,11.81
		C332.57,196.78,336.413,204.89,336.789,214.544 M294.331,222.417c-2.25,2.906-2.906,6.325-1.97,10.263
		c1.5,6.28,6.514,9.605,15.044,9.981c7.499,0.376,13.637-2.017,18.417-7.17v-0.143c0.282-1.122,0.892-1.827,1.827-2.107
		c3.375-4.779,4.826-10.354,4.36-16.729c-0.751-9.373-4.17-17.012-10.265-22.917c-6.187-6.094-14.292-9.513-24.321-10.265
		c-16.965-1.404-32.709,4.454-47.238,17.577c-15.277,13.681-24.51,31.488-27.696,53.423c-3.466,23.991,0.798,45.457,12.794,64.389
		c11.434,18.184,27.789,30.929,49.065,38.241c7.779,2.716,16.825,3.512,27.134,2.387c10.778-1.028,20.853-3.981,30.226-8.856
		c22.963-11.903,34.21-30.366,33.741-55.39c-0.28-14.902-5.625-28.166-16.027-39.789c-9.279-10.401-19.072-16.023-29.384-16.868
		c-4.5,5.249-11.106,8.201-19.821,8.856c-5.625,0.467-10.733-0.752-15.327-3.654c-4.684-3.002-7.167-6.701-7.45-11.107
		c-0.376-4.779,1.265-8.621,4.92-11.529c3.468-2.903,5.345-3.655,5.625-2.25L294.331,222.417"/>
	<path fill="#922F00" d="M297.284,431.751c1.032-5.998,4.78-9.137,11.247-9.419c5.622-0.283,11.201,2.625,16.729,8.717
		c4.5,5.061,6.793,8.812,6.89,11.247c-0.938-1.312-3.282-2.061-7.03-2.25c-4.124-0.187-8.341,0.469-12.652,1.967
		c-3.468,1.125-6.047,4.078-7.732,8.857c-1.125,3.375-1.97,4.5-2.533,3.375C297.893,445.059,296.252,437.563,297.284,431.751"/>
	<path fill="#0D131A" d="M312.046,440.468c5.998-2.812,12.418-2.904,19.262-0.282c1.218,0.471,1.778,1.313,1.685,2.53
		c-0.093,1.125-0.703,1.407-1.828,0.845c-5.342-2.717-10.964-2.81-16.869-0.279c-5.905,2.437-8.951,6.185-9.14,11.244
		c0,1.313-0.563,1.783-1.688,1.407s-1.591-1.219-1.405-2.529C302.813,447.498,306.141,443.188,312.046,440.468"/>
	<path fill="#0D131A" d="M323.854,427.251c5.343,5.252,8.808,11.343,10.405,18.279c1.498,6.185-1.597,11.012-9.28,14.479
		c-7.968,3.655-15.327,2.438-22.071-3.653c-4.406-4.031-6.843-9.982-7.312-17.854c-0.563-8.53,2.154-14.013,8.152-16.452
		C310.685,419.239,317.388,420.974,323.854,427.251 M305.439,425.001c-4.407,1.784-6.607,6.188-6.607,13.218
		c-0.096,6.84,1.734,11.902,5.482,15.185c5.998,5.528,12.325,6.934,18.979,4.218c6.374-2.72,8.857-6.983,7.45-12.795
		c-1.218-4.966-4.077-9.792-8.574-14.479C316.639,424.535,311.061,422.754,305.439,425.001"/>
</g>
</svg>
