<?xml version="1.0" encoding="utf-8"?>
<!-- Generator: Adobe Illustrator 16.0.0, SVG Export Plug-In . SVG Version: 6.00 Build 0)  -->
<!DOCTYPE svg PUBLIC "-//W3C//DTD SVG 1.1//EN" "http://www.w3.org/Graphics/SVG/1.1/DTD/svg11.dtd">
<svg version="1.1" id="Layer_1" xmlns="http://www.w3.org/2000/svg" xmlns:xlink="http://www.w3.org/1999/xlink" x="0px" y="0px"
	 width="800px" height="800px" viewBox="0 0 800 800" enable-background="new 0 0 800 800" xml:space="preserve">
<g>
	<path fill="#0D131A" d="M774.475,262.083c1.366,1.636,0.063,2.865-3.892,3.682l-12.072,1.842
		c-7.773,2.047-21.478,14.528-41.125,37.443l-48.076,55.856c-9.548,9.956-26.869,24.21-51.967,42.761
		c-22.235,16.367-38.742,27.688-49.514,33.966c-9.141,5.453-17.802,12.819-25.982,22.096l-9.413,12.277
		c32.734,21.006,55.172,44.943,67.309,71.813c11.457,25.51,12.28,50.126,2.461,73.86c-9.956,24.006-29.332,43.034-58.111,57.084
		c-31.098,15.277-69.288,22.708-114.576,22.301c-55.375-0.407-98.684-10.911-129.917-31.509
		c-26.871-17.729-42.695-41.191-47.47-70.38c-4.227-26.191,0.751-51.831,14.938-76.932c14.185-24.961,33.348-42.147,57.492-51.557
		l-21.279-3.275c-16.639-3.275-31.029-7.366-43.17-12.276c-12.822-5.046-37.238-17.458-73.247-37.237
		c-31.373-17.188-52.786-29.396-64.244-36.625c-15.277-9.412-43.443-20.802-84.5-34.169c-7.639-2.455-11.935-4.842-12.89-7.161
		c-0.955-2.591,1.091-6.684,6.139-12.275c8.184-9.141,21.619-18.756,40.305-28.85c25.235-13.777,50.264-21.551,75.089-23.325
		c14.05-1.09,29.872,0.41,47.466,4.503l22.099,6.342c-9.686-11.184-30.077-36.622-61.176-76.314
		c-3.684-4.774-10.093-9.686-19.234-14.731l-16.776-8.184c-11.049-5.457-16.571-10.163-16.571-14.118
		c-0.138-3.955,9.342-8.593,28.438-13.913c19.232-5.319,35.328-7.707,48.286-7.161c25.645,1.229,57.901,15.277,96.777,42.147
		c19.368,13.367,36.212,26.667,50.535,39.898c-3.545-21.689-6.206-48.355-7.979-80c-0.955-15.822-1.502-29.529-1.638-41.125
		c-7.639,2.593-19.709,7.776-36.215,15.551c-6.956,3.273-8.865,1.158-5.729-6.342c6.958-16.096,17.597-32.599,31.918-49.514
		c17.188-20.051,32.601-31.167,46.24-33.35c20.868-3.41,46.648,18.619,77.344,66.085c23.458,36.282,38.735,65.678,45.822,88.184
		c17.604-31.782,37.649-56.06,60.157-72.837c24.146-18.006,50.328-26.873,78.564-26.599c6.959,0.136,12.688,1.568,17.188,4.296
		c4.77,2.865,5.186,5.387,1.229,7.571c-19.512,10.912-32.879,36.145-40.102,75.701c-1.367,7.367-3.62,32.26-6.752,74.679
		c-1.095,14.186-4.027,28.372-8.797,42.557l-6.959,16.982c56.192-51.969,105.362-77.133,147.511-75.497
		C742.826,237.124,761.515,245.716,774.475,262.083"/>
	<path fill="#00A63C" d="M709.004,243.668c18.138-1.226,35.532,4.161,52.167,16.164l-6.336,0.409
		c-5.457,1.229-11.122,4.093-16.986,8.594c-3.684,2.864-10.3,9.958-19.848,21.279l-31.712,37.031
		c-34.237,37.509-72.222,70.179-113.962,98.006c-23.729,14.458-40.717,31.165-50.944,50.125l1.839,5.938l-148.127-8.187
		l-3.684-7.773c-1.91-5.321-1.706-8.457,0.613-9.412c4.502-1.773,5.729-3.408,3.683-4.91c-2.183-1.502-6.342-1.502-12.479,0
		l-32.737,8.594c-35.735-4.773-71.473-16.438-107.21-34.987c-43.238-25.371-79.111-45.696-107.619-60.973
		c-13.503-7.229-31.373-14.39-53.604-21.483c-16.368-5.184-24.619-8.935-24.758-11.254c0-5.591,12.687-15.071,38.057-28.438
		c29.188-15.413,57.015-23.325,83.476-23.732c25.78-0.409,53.878,7.365,84.296,23.323c11.185,5.864,29.667,17.664,55.447,35.396
		c14.867,10.231,34.441,25.44,58.718,45.627l25.371,61.178c3.002,6.271,5.457,8.593,7.367,6.955c1.774-1.634,1.5-5.182-0.819-10.639
		c-23.871-54.974-42.012-126.721-54.425-215.244c-10.502-75.839-13.299-125.625-8.387-149.357c0.681-3.138,0.41-4.979-0.819-5.525
		c-1.229-0.683-2.591,0-4.093,2.045c-1.227,1.5-2.25,6.819-3.068,15.96l-0.818,13.297c-6.819,1.093-15.14,4.025-24.96,8.799
		l-12.685,6.752l26.802-36.828c20.323-24.551,36.69-36.896,49.104-37.032c13.368-0.138,29.737,12.752,49.109,38.667
		c12.407,16.506,28.644,42.557,48.689,78.158c9.141,16.64,16.508,41.057,22.102,73.247c4.227,25.097,6.544,48.354,6.95,69.769
		c0.408,27.689,0.137,48.763-0.813,63.221c-1.095,15.551-3.34,28.918-6.752,40.103c-1.773,6.005-2.117,9.684-1.022,11.051
		c0.951,1.227,2.589-0.615,4.906-5.525c6.416-13.505,10.435-35.192,12.072-65.064l0.614-45.831c0-16.639-1.908-38.464-5.729-65.47
		l-5.729-35.602c20.048-35.873,40.988-62.198,62.81-78.976c24.282-18.688,50.809-26.667,79.589-23.938l-5.113,4.091
		c-4.228,4.229-8.798,10.095-13.703,17.596c-6.145,9.276-12.009,27.28-17.603,54.015c-5.729,27.689-8.725,53.265-8.996,76.726
		c-0.416,21.416-6.072,42.693-16.987,63.834c-8.046,15.822-21.341,35.124-39.894,57.901c-13.503,16.641-23.874,31.441-31.098,44.402
		c-3.275,5.729-6.479,12.548-9.619,20.458c-1.367,3.548-1.838,6.888-1.432,10.026c0.543,3.137,1.502,3.34,2.86,0.615
		c8.598-16.507,20.534-35.739,35.812-57.702c13.231-18.822,24.962-34.099,35.188-45.829c18.281-21.144,42.491-42.149,72.638-63.017
		C657.717,257.651,685.81,245.442,709.004,243.668"/>
	<path fill="#00A63C" d="M174.791,156.713c16.777-1.771,40.441,6.276,70.995,24.144c26.871,15.822,54.016,35.941,81.43,60.356
		c1.503,13.777,5.049,34.646,10.642,62.608c6.41,31.373,11.867,52.786,16.368,64.243l-48.083-37.031
		c-35.463-25.916-61.856-41.874-79.18-47.876c-12.821-15.141-22.642-27.895-29.463-38.26c-5.591-8.457-13.845-18.96-24.757-31.508
		c-11.729-13.503-19.98-21.687-24.755-24.551c-4.229-2.593-11.731-6.48-22.506-11.664l-15.142-6.751l16.777-5.319
		C141.714,161.284,157.604,158.488,174.791,156.713"/>
	<path fill="#0D131A" d="M358.317,432.106c3.41,1.366,5.455,2.729,6.136,4.092c0.545,1.365-0.545,1.846-3.273,1.435
		c-7.5-1.227-15.549-3.888-24.143-7.979c-6.818-3.274-12.686-6.822-17.596-10.643c-36.009-28.78-67.653-50.331-94.934-64.653
		c-35.191-18.551-71.133-30.077-107.824-34.577c-3.41-0.41-4.023-1.093-1.842-2.048l7.366-1.227
		c31.646,0.682,69.905,13.094,114.781,37.236c34.235,18.415,62.402,37.375,84.499,56.878c3.683,3.275,9.957,7.366,18.824,12.28
		C348.359,427.537,354.36,430.604,358.317,432.106"/>
	<path fill="#0D131A" d="M213.254,192.929c19.915,12.276,37.647,25.644,53.195,40.102c14.188,13.367,40.104,42.282,77.75,86.751
		l4.093,20.049c-12.005-18.686-40.512-51.899-85.522-99.64c-14.46-15.141-32.873-29.599-55.243-43.375
		c-21.415-13.094-37.646-20.255-48.695-21.483c-5.046-0.546-6.41-1.362-4.091-2.455c2.455-1.227,5.319-1.636,8.593-1.227
		C175.063,172.605,191.703,179.697,213.254,192.929"/>
	<path fill="#0D131A" d="M366.908,68.123c-1.362-2.727-1.5-4.774-0.407-6.139c0.955-1.5,2.794,0.068,5.523,4.706
		c13.503,22.644,25.984,50.263,37.442,82.864c12.408,35.326,21.143,69.563,26.191,102.708c4.771,30.827,7.639,57.356,8.589,79.59
		c1.095,24.142,0.752,57.56-1.021,100.254c-0.271,8.733-1.431,12.276-3.477,10.644c-2.045-1.773-2.797-7.096-2.253-15.964
		c1.095-14.318,0.679-39.216-1.223-74.68c-2.054-37.918-4.985-69.836-8.806-95.752c-4.635-32.19-12.408-64.859-23.322-98.003
		C393.916,126.708,381.504,96.63,366.908,68.123"/>
	<path fill="#0D131A" d="M578.879,111.702c4.362-4.364,6.681-6.068,6.951-5.113c0.136,0.955-1.909,4.842-6.136,11.661
		l-14.326,19.232c-9.133,12.686-16.363,24.757-21.686,36.215c-9.549,20.596-19.575,47.399-30.074,80.407l-9.62,33.963
		l-14.317,47.876l-0.407-19.642c6.407-23.596,13.231-47.466,20.455-71.61c9.141-30.28,16.163-51.148,21.076-62.605
		c5.865-13.368,12.272-25.235,19.232-35.602C557.803,134.892,567.421,123.297,578.879,111.702"/>
	<path fill="#0D131A" d="M729.259,261.471c-29.467,7.774-55.93,20.458-79.389,38.055c-7.095,5.319-30.074,25.78-68.945,61.381
		l-46.445,47.471l-36.012,38.256c-1.638,1.91-3.476,2.933-5.521,3.068c-2.189,0.275-2.189-0.95,0-3.68l33.551-38.876
		c23.051-25.646,42.897-46.172,59.541-61.587c37.92-35.19,68.474-59.264,91.66-72.224c16.363-9.139,33.485-14.458,51.352-15.958
		c3.142-0.273,4.979,0.068,5.521,1.023C735.124,259.354,733.35,260.377,729.259,261.471"/>
	<path fill="#767CBA" d="M261.54,580.648c-0.681-44.604,18.348-78.772,57.084-102.504c30.28-18.553,65.879-28.101,106.798-28.644
		c47.197-0.688,90.231,15.275,129.104,47.876c24.146,20.317,38.191,44.328,42.146,72.014c4.092,28.373-3.684,52.582-23.322,72.638
		c-13.774,14.183-33.351,25.164-58.719,32.938c-24.418,7.503-52.583,11.458-84.503,11.869
		c-45.829,0.679-83.816-6.889-113.961-22.712C280.294,645.437,262.085,617.61,261.54,580.648"/>
	<path fill="#0D131A" d="M479.443,537.887c-3.819,0.137-7.095-1.158-9.827-3.891c-2.725-2.589-4.092-5.793-4.092-9.612
		c-0.136-3.819,1.159-7.095,3.892-9.819c2.589-2.731,5.793-4.095,9.612-4.095c3.818-0.136,7.095,1.162,9.819,3.887
		c2.597,2.594,3.963,5.797,4.099,9.616s-1.158,7.091-3.891,9.823C486.467,536.521,483.264,537.887,479.443,537.887"/>
	<path fill="#E9545D" d="M479.235,532.564c-2.181,0.137-4.162-0.614-5.938-2.249c-1.63-1.638-2.517-3.614-2.659-5.933
		c0-2.321,0.822-4.366,2.461-6.14c1.638-1.636,3.61-2.457,5.929-2.457c2.324-0.137,4.37,0.614,6.144,2.253
		c1.631,1.638,2.453,3.614,2.453,5.933c0.137,2.321-0.615,4.366-2.253,6.142C483.6,531.751,481.554,532.564,479.235,532.564"/>
	<path fill="#0D131A" d="M373.046,539.524c-3.818,0.137-7.022-1.163-9.615-3.892c-2.729-2.589-4.159-5.793-4.298-9.612
		c0-3.817,1.297-7.095,3.888-9.822c2.593-2.729,5.797-4.092,9.616-4.092c3.818-0.14,7.093,1.158,9.821,3.888
		c2.729,2.589,4.161,5.797,4.296,9.615c0,3.819-1.363,7.092-4.093,9.819C380.072,538.159,376.866,539.524,373.046,539.524"/>
	<path fill="#E9545D" d="M373.046,534.204c-2.318,0.136-4.363-0.615-6.138-2.254c-1.636-1.771-2.455-3.819-2.455-6.137
		c0-2.316,0.819-4.299,2.455-5.933c1.638-1.638,3.615-2.521,5.935-2.661c2.319,0,4.298,0.819,5.934,2.457
		c1.638,1.639,2.524,3.611,2.661,5.933c0,2.321-0.819,4.366-2.455,6.142C377.344,533.385,375.366,534.204,373.046,534.204"/>
	<path fill="#0D131A" d="M413.966,569.6l27.007,0.407l-2.652,11.05c-2.598,7.231-6.209,10.915-10.851,11.051
		c-4.499,0.137-8.11-3.618-10.844-11.258L413.966,569.6"/>
	<path fill="#ED8599" d="M419.494,574.921l15.549-0.208c-1.502,8.732-4.026,13.096-7.573,13.096
		c-2.183,0.136-4.155-1.978-5.93-6.344L419.494,574.921"/>
	<path fill="#0D131A" d="M534.887,764.172c-27.821,3.548-45.76-2.453-53.813-18.001c-13.639-26.599,0.615-51.288,42.763-74.067
		c43.921-24.006,77.615-38.125,101.073-42.352c27.414-5.045,45.216,2.316,53.405,22.097c6.814,16.645,4.771,32.6-6.146,47.876
		c-11.729,16.231-32.463,30.351-62.193,42.353C579.559,754.353,554.525,761.719,534.887,764.172"/>
	<path fill="#767CBA" d="M657.444,641.82c9.269,5.051,14.255,12.961,14.934,23.734c0.68,11.05-3.275,21.894-11.865,32.531
		c-9.684,11.865-23.529,21.213-41.531,28.028c1.223-3.271-7.303-7.566-25.575-12.889c-20.056-5.729-37.441-5.933-52.175-0.614
		c-17.595,6.412-33.758,18.072-48.491,34.987c-7.367-6.406-10.164-14.66-8.39-24.757c2.315-14.321,14.661-27.554,37.032-39.69
		c43.649-23.599,76.113-38.191,97.392-43.784C634.593,635.276,647.481,636.092,657.444,641.82"/>
	<path fill="#666BA1" d="M532.434,755.172c-27.965,1.634-41.531-2.25-40.718-11.662c0.815-9.548,17.115-20.051,48.899-31.509
		c18.28-6.685,36.897-7.57,55.857-2.66c17.595,4.502,25.097,10.159,22.508,16.982l-46.246,19.231
		C556.644,751.284,543.204,754.488,532.434,755.172"/>
	<path fill="#0D131A" d="M189.316,699.316c-10.367-13.096-12.548-27.007-6.548-41.739c6.957-17.052,22.848-25.098,47.672-24.146
		c21.96,0.959,46.443,8.39,73.452,22.304c26.461,13.503,46.786,28.85,60.97,46.035c15.686,18.688,19.096,34.44,10.231,47.262
		c-8.187,12.005-23.189,16.643-45.015,13.914c-18.687-2.32-45.691-10.64-81.021-24.961
		C220.145,726.392,200.229,713.5,189.316,699.316"/>
	<path fill="#767CBA" d="M316.577,712.612c-14.73-5.317-30.486-7.362-47.263-6.137c-12.413,0.954-21.209,2.797-26.394,5.524
		c-4.091,2.182-5.184,5.933-3.273,11.254c-17.458-7.773-31.031-17.322-40.715-28.645c-11.729-13.778-13.437-26.396-5.114-37.853
		c8.865-12.142,24.345-16.848,46.444-14.114c19.367,2.316,40.578,9.685,63.63,22.092c22.096,11.869,39.554,24.961,52.376,39.287
		c13.913,15.412,18.415,28.029,13.503,37.85l-3.682,5.113C352.18,731.029,335.673,719.572,316.577,712.612"/>
	<path fill="#666BA1" d="M312.896,749.442c-21.279-5.317-45.694-14.051-73.248-26.188c-3.819-10.229,2.796-16.507,19.847-18.824
		c16.777-2.181,35.805,0.544,57.083,8.183c19.096,6.96,35.603,18.417,49.514,34.373
		C358.998,755.583,341.267,756.397,312.896,749.442"/>
	<path fill="#0D131A" d="M534.887,473.848l-1.022,3.684c-1.095,2.182-2.524,2.524-4.299,1.022l-15.748-8.798
		c-8.054-4.366-11.321-7.095-9.828-8.187c1.639-1.227,6.416-0.136,14.326,3.272C525.41,467.847,530.932,470.843,534.887,473.848"/>
	<path fill="#009233" d="M142.259,378.91l-51.149-27.006l-30.896-9.618c-15.687-5.182-23.118-8.456-22.3-9.82
		c21.958-6.274,53.74,0.341,95.342,19.847c5.319,2.455,40.58,21.687,105.778,57.697c28.645,15.96,54.766,27.486,78.362,34.577
		c15.958,4.773,29.94,7.299,41.943,7.57l-28.85,7.366l-22.3-3.684c-11.595-2.593-22.438-5.453-32.531-8.594
		c-14.322-2.729-41.74-15.955-82.249-39.693C183.316,401.688,166.266,392.142,142.259,378.91"/>
	<path fill="#666BA1" d="M313.304,663.922c-22.368-12.417-37.441-29.124-45.216-50.13c6.685,11.594,22.37,22.712,47.058,33.351
		c35.463,15.276,79.453,22.711,131.971,22.3c80.475-0.679,130.461-31.305,149.972-91.864v-3.067
		c4.499,24.277-3.547,47.057-24.146,68.334c-26.327,27.282-67.588,41.947-123.781,43.993
		C390.507,689.153,345.222,681.516,313.304,663.922"/>
	<path fill="#009233" d="M731.712,266.79c11.05-5.866,20.87-8.184,29.459-6.957c-10.635,0.819-21.82,7.229-33.55,19.232
		l-18.824,22.915l-20.463,23.121l-30.688,32.735c-6.408,6.684-20.184,18.345-41.324,34.986
		c-22.915,18.279-39.631,30.352-50.13,36.216c-8.597,5.046-17.122,11.864-25.575,20.463c-6.68,6.814-11.802,13.092-15.341,18.819
		c-2.189-1.497-4.914-2.863-8.19-4.091c2.183-3.818,10.028-12.005,23.531-24.554c15.956-14.865,30.282-26.259,42.97-34.169
		c13.088-8.184,27.758-20.46,43.985-36.829l53.396-58.309C699.521,289.5,716.435,274.974,731.712,266.79"/>
</g>
</svg>
