<?xml version="1.0" encoding="utf-8"?>
<!-- Generator: Adobe Illustrator 16.0.0, SVG Export Plug-In . SVG Version: 6.00 Build 0)  -->
<!DOCTYPE svg PUBLIC "-//W3C//DTD SVG 1.1//EN" "http://www.w3.org/Graphics/SVG/1.1/DTD/svg11.dtd">
<svg version="1.1" id="Layer_1" xmlns="http://www.w3.org/2000/svg" xmlns:xlink="http://www.w3.org/1999/xlink" x="0px" y="0px"
	 width="800px" height="800px" viewBox="0 0 800 800" enable-background="new 0 0 800 800" xml:space="preserve">
<g>
	<path fill="#0D131A" d="M494.648,168.064c2.376,27.397-5.479,51.735-23.562,73.013c-18.078,21.188-40.956,32.968-68.627,35.343
		c-27.673,2.375-52.192-5.297-73.563-23.013c-21.553-17.9-33.517-40.549-35.891-67.946c-2.375-27.488,5.387-51.644,23.288-72.465
		c17.808-20.822,40.593-32.42,68.355-34.795c27.762-2.374,52.418,5.161,73.973,22.603
		C480.266,118.338,492.274,140.758,494.648,168.064"/>
	<path fill="#B76870" d="M453.828,105.05c19.728,16.53,30.684,37.535,32.875,63.014c2.193,25.57-5.021,48.173-21.644,67.808
		c-16.62,19.635-37.762,30.548-63.423,32.74c-25.571,2.282-48.266-4.841-68.083-21.371c-19.725-16.528-30.684-37.534-32.876-63.013
		c-2.284-25.48,4.885-48.082,21.506-67.808c16.621-19.635,37.763-30.594,63.425-32.876C411.271,81.354,434.01,88.521,453.828,105.05
		"/>
	<path fill="#904F57" d="M415.884,192.996c29.039-22.74,44.657-49.178,46.849-79.314c14.064,15.433,22.054,33.561,23.972,54.383
		c2.193,25.57-5.021,48.173-21.644,67.808c-16.62,19.635-37.762,30.548-63.423,32.74c-15.891,1.369-31.097-1.097-45.617-7.397
		c-13.974-6.21-25.8-15.297-35.479-27.261l7.26-1.232C361.591,225.69,390.952,212.448,415.884,192.996"/>
	<path fill="#F5E7E6" d="M365.062,116.558c-1.096-0.639-1.004-2.237,0.273-4.794c1.004-2.1,2.511-3.791,4.521-5.068
		c1.827-1.096,3.563-1.553,5.207-1.371c1.826,0.183,2.921,1.187,3.287,3.014c0.457,1.918-0.411,4.155-2.603,6.712
		c-0.548,0.731-2.101,1.37-4.657,1.918L365.062,116.558"/>
	<path fill="#F5E7E6" d="M412.595,123.543c-2.007-2.739-2.875-5.571-2.602-8.493c0.183-3.014,1.508-5.891,3.973-8.63
		c2.646-2.922,5.663-3.834,9.039-2.739c9.316,3.105,15.436,7.944,18.357,14.52c2.649,5.845,2.191,9.543-1.368,11.096
		c-5.391,2.375-10.777,2.877-16.164,1.507C418.896,129.525,415.152,127.105,412.595,123.543"/>
	<path fill="#0D131A" d="M221.362,527.787c6.484-2.646,11.78-3.06,15.892-1.231c2.008,0.821,4.382,2.832,7.123,6.026
		c2.739,3.199,4.428,7.399,5.067,12.604c0.64,5.388-0.092,9.952-2.191,13.696l-2.191,3.836c-5.205,9.772-11.096,17.72-17.671,23.838
		c-10.685,10.046-24.063,16.851-40.137,20.409c-11.782,2.649-22.055,1.46-30.822-3.56c-7.58-4.295-12.328-10.276-14.247-17.949
		l-0.548-2.874c-0.548-7.764,3.06-12.786,10.821-15.067c16.256-4.656,33.927-14.201,53.014-28.634l8.767-6.71
		C217.254,529.981,219.628,528.521,221.362,527.787"/>
	<path fill="#5892BF" d="M220.679,535.6c8.675-3.382,14.84-2.926,18.492,1.368c1.827,2.102,2.832,4.75,3.014,7.943
		c0.185,3.289-0.502,6.212-2.055,8.769l-2.191,3.973c-6.026,11.142-10.868,18.721-14.521,22.738
		c-8.585,9.316-20.184,15.617-34.795,18.907c-10.319,2.282-19.224,1.643-26.711-1.918c-6.303-3.017-10.092-7.126-11.371-12.331
		c-0.821-3.195-1.05-5.523-0.686-6.983c0.366-2.009,1.873-3.381,4.521-4.112c9.68-2.74,19.589-7.168,29.726-13.287l22.603-15.614
		C213.556,539.842,218.213,536.691,220.679,535.6"/>
	<path fill="#46799E" d="M239.171,536.968c1.827,2.102,2.832,4.75,3.014,7.943c0.185,3.289-0.502,6.212-2.055,8.769l-2.191,3.973
		l-6.85,12.468c-3.196,5.293-6.85,9.815-10.958,13.562c-8.313-12.786-18.312-21.736-30.001-26.849l16.576-11.782
		c6.85-5.208,11.507-8.357,13.973-9.45C229.354,532.218,235.519,532.674,239.171,536.968"/>
	<path fill="#0D131A" d="M533.145,522.995c1.824-1.919,3.972-2.969,6.438-3.149c3.65-0.276,7.579,1.276,11.778,4.657
		c8.495,6.849,15.938,12.008,22.332,15.479c14.429,7.579,32.099,13.196,53.013,16.851c4.75,0.819,8.219,2.874,10.41,6.161
		c2.193,3.198,2.968,7.169,2.328,11.918c-0.911,7.124-4.931,13.016-12.057,17.673c-7.852,5.111-17.807,7.396-29.86,6.849
		c-16.348-0.82-30.912-5.797-43.698-14.934c-7.396-5.11-14.842-12.419-22.328-21.916l-0.959-3.149
		c-3.473-4.019-4.888-10.091-4.249-18.22C526.841,533.177,529.126,527.104,533.145,522.995"/>
	<path fill="#5892BF" d="M547.115,529.705c17.899,14.433,43.334,25.023,76.303,31.782c3.011,0.638,5.296,2.191,6.848,4.656
		c1.462,2.376,2.01,5.067,1.646,8.085c-0.547,4.838-3.563,8.996-9.041,12.465c-6.668,4.2-15.435,6.027-26.302,5.479
		c-15.068-0.729-28.584-5.342-40.549-13.834c-7.032-4.935-14.154-11.964-21.369-21.097l-1.506-4.246
		c-2.19-2.648-2.648-6.85-1.371-12.604c1.28-5.479,3.332-9.68,6.164-12.604C539.673,525.688,542.731,526.327,547.115,529.705"/>
	<path fill="#46799E" d="M579.854,548.475c-15.43,3.104-27.761,9.224-36.983,18.354l-8.22-9.588l-1.506-4.246
		c-2.19-2.648-2.648-6.85-1.371-12.604c1.28-5.479,3.332-9.68,6.164-12.604c1.735-2.101,4.795-1.46,9.179,1.918
		C555.701,536.649,566.614,542.901,579.854,548.475"/>
	<path fill="#0D131A" d="M296.979,591.486c3.197-1.46,7.443-1.919,12.741-1.369c5.571,0.549,9.999,2.055,13.287,4.521
		c3.653,2.65,5.205,5.936,4.657,9.862c-2.739,23.746-2.512,37.397,0.685,40.96c8.95,10.229,9.818,20.594,2.604,31.098
		c-4.842,7.12-17.078,14.884-36.714,23.284c-22.648,9.772-47.899,16.852-75.754,21.232c-7.396,1.188-14.84,0.367-22.329-2.464
		c-7.396-2.738-13.195-6.714-17.396-11.916c-4.475-5.572-6.073-11.463-4.794-17.673c1.369-6.94,6.392-13.424,15.067-19.451
		c7.945-5.572,26.347-11.827,55.204-18.77l43.289-9.725c2.467-1.098,4.019-5.116,4.657-12.055l0.137-18.632
		c-0.182-6.76-0.137-11.278,0.139-13.562C292.732,594.545,294.239,592.768,296.979,591.486"/>
	<path fill="#5892BF" d="M316.979,598.885c2.923,1.369,4.246,2.97,3.974,4.797c-2.923,24.2-2.329,39.356,1.779,45.477
		c2.832,4.386,4.476,7.902,4.933,10.55c0.822,4.933-0.73,10.046-4.657,15.342c-3.563,4.841-15.525,11.278-35.89,19.314
		c-23.563,9.313-46.621,15.342-69.18,18.083c-16.347,2.009-27.213-1.782-32.602-11.369c-2.375-4.109-2.923-8.495-1.645-13.151
		c1.369-4.841,4.476-9.132,9.314-12.877c7.307-5.479,25.251-11.555,53.835-18.22l43.562-9.724c4.202-2.01,6.896-6.806,8.083-14.386
		c0.641-4.475,0.822-11.965,0.55-22.467l0.136-12.19c1.005-0.913,3.333-1.369,6.987-1.369
		C310.268,596.693,313.875,597.422,316.979,598.885"/>
	<path fill="#46799E" d="M299.035,610.254l0.136-12.19c1.005-0.913,3.333-1.369,6.987-1.369c4.108,0,7.716,0.729,10.82,2.191
		c2.923,1.368,4.246,2.969,3.974,4.796c-2.923,24.2-2.329,39.356,1.779,45.477l3.288,5.617c1.097,2.377,1.689,4.702,1.78,6.987
		c-10.319-9.134-21.233-15.481-32.739-19.042c2.101-3.196,3.378-7.991,3.835-14.384C299.263,624.229,299.308,618.2,299.035,610.254"
		/>
	<path fill="#0D131A" d="M475.606,598.885c2.834,1.097,4.387,2.786,4.658,5.068c0.823,5.572,4.386,13.105,10.688,22.604
		c6.573,9.771,12.19,15.614,16.851,17.532l37.531,7.261c26.21,5.39,46.302,11.6,60.274,18.632
		c6.118,3.104,10.731,7.718,13.834,13.836c3.017,6.21,3.701,12.327,2.058,18.355c-3.928,15.068-18.222,21.644-42.878,19.728
		c-17.353-1.371-37.217-5.755-59.59-13.153c-25.021-8.127-40.549-16.347-46.575-24.656c-2.92-4.019-4.93-10.458-6.027-19.313
		l-0.82-11.919c-0.091-2.649-1.188-5.843-3.289-9.588l-6.711-10.55l-6.575-9.997c-2.011-3.563-3.242-6.76-3.697-9.591
		c-0.549-3.837,0.868-7.169,4.246-10.001c3.195-2.559,7.578-4.246,13.149-5.067L475.606,598.885"/>
	<path fill="#5892BF" d="M466.568,604.5l7.12,0.959c1.1,6.851,5.162,15.389,12.194,25.615c7.214,10.504,13.651,16.941,19.313,19.318
		l36.165,6.164c25.112,4.838,44.795,10.821,59.041,17.941c3.561,1.736,6.711,4.75,9.45,9.044c2.924,4.656,4.339,9.13,4.246,13.425
		c-0.272,11.598-10.684,17.12-31.229,16.574c-22.466-0.638-45.482-5.434-69.04-14.384c-19.182-7.214-31.007-13.516-35.479-18.904
		c-3.563-4.2-5.617-10.046-6.167-17.532l0.14-10.139c-0.091-3.469-1.325-7.443-3.701-11.918l-7.533-11.782
		c-5.479-8.035-8.492-13.65-9.039-16.847c-0.275-1.736,0.96-3.379,3.697-4.933C458.76,605.55,462.368,604.684,466.568,604.5"/>
	<path fill="#46799E" d="M452.049,612.036c-0.275-1.736,0.96-3.379,3.697-4.933c3.014-1.555,6.622-2.421,10.822-2.604l7.12,0.959
		c0.733,4.292,2.969,9.772,6.713,16.438c3.563,6.577,7.581,12.468,12.057,17.673c-7.854,3.378-14.656,8.629-20.411,15.755
		l0.275-2.741c-0.091-3.469-1.325-7.443-3.701-11.918l-7.533-11.782C455.608,620.848,452.596,615.231,452.049,612.036"/>
	<path fill="#0D131A" d="M554.924,448.749c9.5,62.101-1.188,109.085-32.056,140.958c-27.579,28.312-70.272,43.881-128.08,46.712
		c-61.919,3.015-109.772-7.99-143.563-33.012c-37.168-27.491-52.466-69.043-45.891-124.66c6.12-52.512,22.01-95.706,47.672-129.587
		c28.676-37.99,66.164-58.995,112.466-63.014c47.671-4.109,90,10.869,126.985,44.932
		C527.068,363.042,547.892,402.266,554.924,448.749"/>
	<path fill="#5892BF" d="M513.144,585.324c-28.311,27.577-68.401,42.281-120.272,44.108
		c-63.288,2.284-110.731-10.456-142.329-38.221c-30.868-27.121-43.517-65.659-37.945-115.615
		c5.48-49.132,20.685-89.862,45.616-122.191c27.58-35.799,63.242-55.571,106.986-59.314c45.204-3.927,84.885,8.903,119.04,38.493
		c33.15,28.767,53.975,66.803,62.467,114.107C557.662,506.693,546.475,552.904,513.144,585.324"/>
	<path fill="#46799E" d="M514.376,409.707c-19.818-6.577-36.256-9.861-49.315-9.861c-2.465,0-5.709,1.461-9.727,4.381
		l-13.288,10.003c-14.701,9.771-32.875,15.065-54.52,15.889c-18.174,0.641-35.113-2.328-50.82-8.901l-25.479-13.974
		c-8.037-4.567-23.563-1.232-46.575,9.998c-20.914,10.228-36.895,20.823-47.944,31.782c8.675-42.921,25.066-77.899,49.178-104.932
		c26.576-29.954,59.68-46.621,99.314-49.999c40.549-3.562,76.896,6.621,109.043,30.547c30.957,23.015,52.876,54.566,65.751,94.658
		C532.776,416.189,524.24,412.997,514.376,409.707"/>
	<path fill="#0D131A" d="M469.854,506.147c4.75,2.556,7.67,6.252,8.77,11.093c1.002,4.659,0.091,9.087-2.74,13.29
		c-3.379,4.93-9.179,8.902-17.4,11.916c-17.987,6.668-45.932,9.269-83.833,7.809c-41.004-1.551-67.943-7.99-80.821-19.313
		c-8.128-7.215-10.274-14.887-6.438-23.016c2.101-4.383,5.708-7.532,10.821-9.45c4.839-1.735,10.272-2.148,16.301-1.232
		l14.521,2.603c21.188,4.477,43.241,6.805,66.163,6.985l58.768-3.287C459.992,502.903,465.288,503.771,469.854,506.147"/>
	<path fill="#B6AED1" d="M327.801,504.64c21.462,3.834,37.306,5.934,47.534,6.301l79.179-2.467
		c4.565-0.364,8.538,0.549,11.916,2.742c3.107,2.101,4.979,4.655,5.617,7.669c0.823,3.651-0.183,7.124-3.014,10.411
		c-2.829,3.286-7.123,5.981-12.874,8.082c-16.898,6.302-43.747,8.813-80.55,7.533c-39.636-1.369-65.434-7.303-77.396-17.807
		c-6.119-5.569-7.991-10.869-5.616-15.89c1.461-3.198,4.246-5.663,8.355-7.398c4.018-1.736,8.173-2.282,12.466-1.646L327.801,504.64
		"/>
	<path fill="#0D131A" d="M236.295,463.27c-3.927-0.822-5.571-1.964-4.933-3.424c0.549-1.371,2.739-2.01,6.575-1.919
		c17.899,0.273,35.023-3.197,51.369-10.409c15.251-6.76,28.676-16.213,40.274-28.358c3.195-3.378,5.524-4.337,6.986-2.877
		c1.369,1.462,0.775,3.884-1.781,7.262c-8.768,11.599-22.191,21.688-40.273,30.274C273.327,463.954,253.92,467.104,236.295,463.27"
		/>
	<path fill="#0D131A" d="M512.595,468.884c-18.996,4.109-38.08,2.148-57.261-5.889c-18.538-7.854-32.281-19.132-41.231-33.837
		c-2.192-3.651-2.602-6.164-1.233-7.533c1.279-1.368,3.426-0.274,6.438,3.287c12.237,14.429,26.074,24.705,41.507,30.823
		c13.975,5.479,30.686,8.08,50.14,7.807c3.836-0.091,6.026,0.549,6.572,1.918C518.164,466.923,516.521,468.063,512.595,468.884"/>
	<path fill="#0D131A" d="M307.665,518.609c-2.832-1.093-4.064-2.282-3.7-3.562l5.891-0.137c13.607,4.841,33.79,7.991,60.547,9.451
		c29.499,1.646,55.479,0.364,77.943-3.836l8.495,0.413c-0.822,1.462-3.104,2.646-6.85,3.563
		c-17.625,4.564-39.404,6.756-65.342,6.574C353.418,530.985,327.755,526.831,307.665,518.609"/>
	<path fill="#0D131A" d="M497.39,343.681c-3.014,0.091-5.16-0.914-6.438-3.014l-1.918-5.205c-2.74-5.845,1.096-16.21,11.506-31.097
		c6.212-8.95,14.108-18.584,23.7-28.904l0.408-0.411l-0.136,7.671c14.155-7.123,31.597-9.269,52.329-6.438
		c22.738,3.105,42.967,11.735,60.684,25.89c21.005,16.804,35.755,36.803,44.247,60c8.493,23.196,9.636,46.849,3.426,70.958
		c-0.641,2.649-1.6,3.745-2.877,3.29c-1.28-0.458-2.422-1.967-3.424-4.521c-12.236-25.569-34.613-46.757-67.125-63.562
		C576.977,350.348,538.851,342.128,497.39,343.681"/>
	<path fill="#EF8200" d="M577.528,280.255c20.639,5.663,39.632,15.435,56.984,29.315c11.779,9.407,21.553,19.91,29.313,31.508
		c10.687,15.981,16.805,33.059,18.355,51.232c0.824,9.77,0.321,19.91-1.506,30.411c-14.975-25.662-37.992-46.804-69.041-63.425
		c-34.338-18.265-71.462-26.666-111.369-25.204c-2.832,0.273-4.52-0.184-5.068-1.371l-0.275-1.37
		c-0.364-3.835,3.017-10.912,10.138-21.231c6.576-9.682,14.478-19.499,23.7-29.453C540.724,274.823,556.979,274.687,577.528,280.255
		"/>
	<path fill="#CF7100" d="M573.966,343.681c-23.837-7.397-48.402-10.594-73.699-9.589c-2.832,0.273-4.52-0.184-5.067-1.371
		l-0.276-1.37c-0.364-3.835,3.017-10.912,10.138-21.231c6.576-9.682,14.478-19.499,23.7-29.453
		c11.964-5.844,28.219-5.98,48.77-0.411c20.639,5.663,39.632,15.435,56.984,29.315c19.907,15.891,33.789,34.384,41.642,55.48
		c-14.063,1.096-28.216,3.698-42.466,7.808C615.609,360.073,595.699,350.348,573.966,343.681"/>
	<path fill="#0D131A" d="M701.363,162.997c-4.659-4.932-6.806-7.762-6.44-8.494c0.364-1.004,3.973,0.228,10.823,3.698
		c27.67,13.882,47.671,34.704,59.999,62.467c14.063,31.872,12.101,62.967-5.892,93.287c-9.863,16.712-23.697,31.004-41.507,42.877
		c-17.716,11.962-37.53,20.365-59.449,25.206c-49.316,10.958-96.168,3.242-140.55-23.151l-0.136-0.137l-0.273-0.138
		c-3.928-3.105-5.984-7.306-6.167-12.603c-0.182-10.228,7.309-24.063,22.465-41.507c7.674-8.858,15.756-17.031,24.25-24.52
		l4.109-3.698l1.369,5.342c0.913,3.927,3.927,7.353,9.041,10.275c5.113,2.831,11.824,4.885,20.135,6.164
		c20.822,3.105,42.925,1.005,66.303-6.302c26.757-8.31,45.435-21.233,56.025-38.767c7.582-12.512,9.818-27.899,6.714-46.164
		C719.079,189.207,712.138,174.594,701.363,162.997"/>
	<path fill="#EF8200" d="M753.28,208.612c8.674,13.607,13.604,27.808,14.793,42.603c1.826,19.817-2.786,39.041-13.834,57.671
		c-9.683,16.255-22.924,30.229-39.729,41.917c-16.893,11.689-35.752,19.954-56.572,24.795
		c-46.938,10.867-92.239,3.425-135.89-22.329c-2.102-1.827-3.29-4.064-3.563-6.713v-0.821c-0.182-7.123,4.84-17.124,15.069-30.001
		c7.214-9.132,15.846-18.355,25.892-27.67c5.021,8.584,15.935,14.109,32.736,16.576c21.827,3.378,45.069,1.141,69.727-6.713
		c28.22-8.858,47.992-22.646,59.315-41.369c7.309-12.055,10.319-25.433,9.041-40.138c-1.369-15.251-7.351-31.598-17.945-49.04
		C730.129,179.891,743.78,193.634,753.28,208.612"/>
	<path fill="#CF7100" d="M518.484,346.557v-0.821c-0.182-7.123,4.84-17.124,15.069-30.001c7.214-9.132,15.846-18.355,25.892-27.67
		c5.021,8.584,15.935,14.109,32.736,16.576c14.89,2.373,31.278,1.825,49.18-1.645c-9.955,22.283-16.257,47.945-18.902,76.986
		c-35.252,0.914-68.723-7.99-100.41-26.711C519.947,351.442,518.759,349.207,518.484,346.557"/>
	<path fill="#0D131A" d="M259.993,292.311l3.014,0.137c59.544,13.425,89.315,27.398,89.315,41.918
		c0,9.225-12.375,16.712-37.123,22.467c-45.662,10.776-77.489,36.986-95.479,78.63c-6.85,15.706-11.187,32.603-13.014,50.686
		c-1.553,14.975-1.323,28.493,0.686,40.548c0.73,3.378,0.913,5.296,0.548,5.751c-0.548,0.823-2.284-0.136-5.206-2.874
		c-26.302-22.01-43.06-45.707-50.273-71.098c-5.479-19.451-5.296-39.727,0.548-60.822c7.489-26.94,22.465-50.821,44.932-71.643
		C218.669,306.648,239.354,295.416,259.993,292.311"/>
	<path fill="#EF8200" d="M340.403,340.667c-5.296,3.471-14.2,6.667-26.713,9.589c-44.108,10.32-76.026,35.434-95.753,75.344
		c-14.703,29.771-20.684,60.639-17.943,92.601l0.272,1.781c-26.849-24.475-41.552-51.507-44.108-81.095
		c-1.188-13.151,0.138-26.623,3.973-40.412c7.032-25.388,21.096-48.264,42.191-68.63c19.817-19.086,39.179-30.137,58.081-33.15
		c20.458,4.749,38.904,10.457,55.344,17.124c19.452,7.853,29.405,14.566,29.862,20.136v0.411
		C345.609,336.375,343.874,338.476,340.403,340.667"/>
	<path fill="#CF7100" d="M345.609,333.954v0.411c0,2.009-1.735,4.111-5.207,6.302c-5.296,3.471-14.2,6.667-26.713,9.589
		c-20.455,4.84-38.444,13.014-53.97,24.52c-8.585-8.584-18.676-16.073-30.274-22.465c-11.142-6.119-22.831-10.823-35.067-14.11
		c10.137-11.233,21.142-20.548,33.013-27.945c11.689-7.398,22.694-11.918,33.013-13.562c20.458,4.749,38.904,10.457,55.344,17.124
		C335.199,321.67,345.152,328.384,345.609,333.954"/>
	<path fill="#0D131A" d="M477.524,318.749c8.953-8.128,19.406-16.347,31.37-24.657l0.549-0.411l2.056,5.479
		c19.728-3.562,38.813-0.593,57.259,8.903c19.272,10.046,35.254,26.074,47.947,48.082c15.342,26.576,22.19,56.302,20.547,89.178
		c-1.646,33.333-11.643,60.824-29.998,82.464c-3.654,3.836-5.433,3.107-5.342-2.19c0.455-12.328-1.326-26.437-5.345-42.326
		c-4.658-18.814-11.646-36.211-20.957-52.193c-24.659-42.465-60.14-66.849-106.438-73.149l-8.771-1.918
		c-2.19-1.096-3.561-2.739-4.108-4.932C454.649,343.955,461.728,333.179,477.524,318.749"/>
	<path fill="#EF8200" d="M565.474,312.037c17.897,10.776,32.968,26.758,45.203,47.946c12.057,21.096,19.133,43.516,21.233,67.262
		c2.831,33.331-5.159,62.873-23.972,88.628l-0.412-5.891c-2.831-33.789-13.47-64.474-31.916-92.056
		c-25.3-37.897-60.916-59.999-106.852-66.3l-3.699-0.273c-1.187-0.183-1.915-0.777-2.19-1.781l-0.138-0.685
		c-0.363-4.292,5.068-11.735,16.303-22.329c9.495-8.859,20.501-17.671,33.012-26.438
		C529.764,297.197,547.572,301.169,565.474,312.037"/>
	<path fill="#CF7100" d="M512.046,300.12c15.162-2.557,30.502,0,46.028,7.671c15.343,7.671,29.088,19.406,41.232,35.205
		c-10.501,1.736-22.01,5.754-34.52,12.055c-6.941,3.562-17.9,10.046-32.879,19.453c-18.446-12.055-39.497-19.681-63.149-22.878
		l-3.699-0.273c-1.187-0.183-1.915-0.777-2.19-1.781l-0.138-0.685c-0.363-4.292,5.068-11.735,16.303-22.329
		C488.529,317.699,499.535,308.887,512.046,300.12"/>
	<path fill="#0D131A" d="M129.994,470.941c-1.554,14.246-5.616,25.021-12.192,32.328c-6.393,7.121-14.978,10.729-25.753,10.819
		c-15.343,0.186-28.219-8.128-38.631-24.933c-11.963-19.175-18.583-46.666-19.863-82.464l4.109,2.055
		c1.645,17.627,7.031,33.609,16.165,47.946c8.858,13.88,18.904,22.603,30.138,26.162c16.621,5.391,30.411,0.049,41.369-16.024
		c2.009-2.741,3.334-3.7,3.973-2.878C129.855,464.592,130.085,466.923,129.994,470.941"/>
	<path fill="#CF7100" d="M62.733,475.051c6.758,6.938,13.79,11.598,21.097,13.974c13.697,4.383,26.985,0.729,39.861-10.962
		c-1.552,9.227-5.159,16.623-10.82,22.191c-5.571,5.48-12.146,8.268-19.727,8.357c-10.502,0.092-19.862-4.2-28.083-12.877
		c-9.771-10.41-16.21-25.57-19.313-45.479C50.588,460.118,56.25,468.383,62.733,475.051"/>
	<path fill="#0D131A" d="M254.788,320.119l3.149,8.767l-9.999-0.821c-20.822-12.055-46.985-15.389-78.493-10
		c-30.867,5.297-57.169,17.078-78.903,35.342c-19.087,16.074-31.279,36.302-36.575,60.683c-5.207,24.565-2.786,50.502,7.26,77.81
		l5.479,7.672l-1.507,2.465c-7.217-4.292-13.974-12.511-20.274-24.656c-6.302-12.056-11.188-26.211-14.658-42.466
		c-8.127-37.899-6.85-72.832,3.835-104.794c9.407-27.854,24.292-49.909,44.657-66.165c29.042-23.288,66.896-32.283,113.562-26.986
		c12.604,2.284,26.303,15.708,41.097,40.273C242.825,292.768,249.947,307.06,254.788,320.119"/>
	<path fill="#EF8200" d="M83.419,267.791c27.488-22.374,63.47-31.004,107.943-25.89c8.677,1.552,18.768,11.917,30.274,31.095
		c8.401,13.973,16.255,30.183,23.561,48.63c-22.922-10.41-49.771-13.06-80.547-7.946c-30.958,5.116-57.078,16.622-78.355,34.521
		c-14.885,12.511-25.707,27.123-32.465,43.835c-6.758,16.711-9.27,34.885-7.534,54.522c0.822,10.318,2.877,20.865,6.165,31.644
		c-5.297-6.577-9.728-15.437-13.289-26.575c-3.563-11.144-5.936-23.563-7.123-37.263c-2.557-29.222,0.548-56.984,9.315-83.286
		C50.313,304.411,64.332,283.314,83.419,267.791"/>
	<path fill="#CF7100" d="M245.197,321.625c-17.989-8.219-39.223-11.506-63.697-9.862c0.183-12.512-1.872-25.023-6.164-37.535
		c-4.292-12.419-10.456-23.561-18.493-33.425l34.52,1.097c8.677,1.552,18.768,11.917,30.274,31.095
		C230.039,286.968,237.893,303.179,245.197,321.625"/>
	<path fill="#0D131A" d="M274.925,135.6c29.497-2.557,55.936,6.667,79.314,27.67c23.014,20.639,35.845,46.073,38.493,76.301
		c2.464,29.224-5.937,53.744-25.206,73.561c-18.63,19.088-43.241,29.909-73.835,32.467c-30.229,2.648-56.712-5.115-79.452-23.288
		c-23.013-18.356-35.8-42.374-38.356-72.055c-2.557-29.68,5.846-55.617,25.206-77.807C220.268,150.53,244.88,138.248,274.925,135.6"
		/>
	<path fill="#B76870" d="M346.294,164.229c21.096,17.717,32.786,40.229,35.067,67.535c2.375,27.306-5.296,51.46-23.013,72.465
		c-17.625,21.004-40.092,32.693-67.396,35.068c-27.216,2.375-51.371-5.296-72.468-23.013
		c-21.004-17.626-32.692-40.092-35.067-67.398c-2.282-27.304,5.389-51.46,23.014-72.465c17.717-21.004,40.182-32.693,67.397-35.068
		C301.135,138.979,325.29,146.603,346.294,164.229"/>
	<path fill="#904F57" d="M338.76,322.037c-14.337,9.955-30.274,15.708-47.808,17.26c-15.252,1.279-30.001-0.821-44.247-6.301
		c-13.79-5.389-25.8-13.425-36.027-24.11c26.576,11.05,54.749,14.521,84.521,10.411c30.502-4.383,55.844-15.89,76.026-34.521
		C363.555,299.937,352.732,312.356,338.76,322.037"/>
	<path fill="#0D131A" d="M489.034,142.858c28.766-2.466,54.198,5.525,76.3,23.972c22.102,18.448,34.43,42.009,36.987,70.685
		c2.465,28.676-5.617,53.835-24.246,75.479c-18.538,21.462-42.238,33.424-71.099,35.89c-28.856,2.557-54.291-5.16-76.301-23.151
		c-22.098-18.174-34.382-41.552-36.848-70.136c-2.558-28.767,5.479-54.109,24.106-76.027
		C436.566,157.562,460.269,145.325,489.034,142.858"/>
	<path fill="#B76870" d="M559.72,171.625c20.639,17.352,32.099,39.361,34.381,66.027c2.376,26.758-5.11,50.457-22.466,71.097
		c-17.349,20.547-39.406,31.963-66.163,34.246c-26.757,2.375-50.411-5.114-70.959-22.465
		c-20.547-17.351-32.007-39.407-34.383-66.165c-2.283-26.758,5.205-50.41,22.468-70.958c17.349-20.547,39.403-32.009,66.163-34.384
		C515.518,146.741,539.172,154.274,559.72,171.625"/>
	<path fill="#904F57" d="M567.116,313.543c-16.896,17.625-37.443,27.442-61.646,29.452c-17.533,1.554-34.199-1.415-49.999-8.903
		c-15.253-7.307-27.854-17.899-37.81-31.781c27.945,6.119,55.524,4.703,82.739-4.246c25.755-8.584,50.182-23.607,73.29-45.068
		c2.101-2.102,5.067-3.243,8.903-3.425c3.651-0.274,7.533,0.366,11.644,1.918C592.959,275.417,583.921,296.102,567.116,313.543"/>
	<path fill="#0D131A" d="M364.377,154.502c8.585-2.922,17.441-4.292,26.575-4.109c9.042,0.273,17.535,2.101,25.479,5.48
		c8.037,3.379,14.841,7.991,20.413,13.835c8.856,9.407,13.148,20.046,12.875,31.918c-0.364,13.698-6.574,25.251-18.629,34.658
		c-11.964,9.406-26.211,13.881-42.741,13.424c-9.042-0.273-17.58-2.101-25.617-5.48c-7.943-3.378-14.703-7.99-20.273-13.835
		c-10.138-10.594-15.021-21.233-14.657-31.918c0.274-11.872,5.114-22.283,14.521-31.233
		C348.075,161.763,355.427,157.517,364.377,154.502"/>
	<path fill="#EF8200" d="M441.5,199.16c-0.273,11.782-5.755,21.735-16.438,29.863c-10.596,8.127-23.242,11.964-37.947,11.507
		c-8.128-0.182-15.799-1.781-23.013-4.795c-7.123-3.013-13.196-7.123-18.219-12.328c-7.58-8.128-11.232-17.169-10.959-27.123
		c0.274-10.137,4.43-18.996,12.466-26.576c5.205-4.932,11.462-8.721,18.767-11.369c7.398-2.557,15.16-3.745,23.288-3.562
		c8.128,0.273,15.753,1.917,22.876,4.93c7.215,3.014,13.287,7.124,18.22,12.33C438.119,180.075,441.771,189.114,441.5,199.16"/>
	<path fill="#CF7100" d="M430.54,172.038c7.579,8.037,11.231,17.076,10.96,27.122c-0.273,11.782-5.755,21.735-16.438,29.863
		c-10.596,8.127-23.242,11.964-37.947,11.507c-10.044-0.273-19.223-2.604-27.533-6.986c20.548,1.004,37.67-4.155,51.37-15.479
		c15.342-12.694,20.273-29.499,14.796-50.412L430.54,172.038"/>
	<path fill="#0D131A" d="M372.596,181.626c30.502-2.557,57.354,6.073,80.547,25.89c23.105,19.726,35.982,44.886,38.629,75.479
		c2.649,30.502-5.797,57.351-25.342,80.548c-19.634,23.196-44.748,36.073-75.341,38.627c-30.775,2.649-58.126-5.706-82.055-25.065
		c-24.201-19.544-37.58-44.521-40.138-74.932c-2.647-30.41,6.349-57.488,26.986-81.233
		C316.25,197.379,341.818,184.274,372.596,181.626"/>
	<path fill="#B76870" d="M447.526,211.625c22.102,18.63,34.385,42.282,36.852,70.958c2.556,28.768-5.48,54.201-24.109,76.302
		c-18.632,22.1-42.284,34.383-70.96,36.848c-28.767,2.558-54.201-5.479-76.301-24.109c-22.101-18.63-34.384-42.284-36.85-70.958
		c-2.559-28.767,5.479-54.2,24.108-76.301c18.63-22.101,42.282-34.384,70.958-36.85
		C399.993,184.958,425.427,192.996,447.526,211.625"/>
	<path fill="#904F57" d="M477.392,252.858c3.834,9.681,6.161,19.589,6.986,29.726c2.556,28.768-5.48,54.201-24.109,76.302
		c-18.632,22.1-42.284,34.383-70.96,36.848c-15.342,1.37-30.183-0.546-44.521-5.753c-13.79-5.023-26.074-12.648-36.851-22.876
		c34.156,6.757,63.835,2.466,89.042-12.877c23.925-14.611,42.604-38.264,56.029-70.958c6.209-15.251,11.688-24.84,16.438-28.766
		C471.271,252.95,473.92,252.402,477.392,252.858"/>
	<path fill="#F5E7E6" d="M407.938,233.681c0.364-4.019,1.964-7.26,4.795-9.726c3.287-3.014,7.855-4.43,13.697-4.246
		c5.023,0.091,9.406,2.739,13.151,7.945c3.104,4.292,5.341,9.497,6.713,15.615c1.551,7.032,1.05,12.101-1.508,15.207
		c-2.191,2.83-5.479,4.246-9.861,4.246c-4.2,0-8.495-1.234-12.88-3.7C411.544,252.997,406.843,244.548,407.938,233.681"/>
	<path fill="#F5E7E6" d="M299.035,182.723c0.547,2.739-0.731,6.073-3.836,10c-2.739,3.378-5.754,5.935-9.043,7.671
		c-4.018,2.009-7.625,2.282-10.82,0.821c-3.652-1.734-6.073-4.063-7.261-6.985c-0.913-2.466-0.867-4.978,0.138-7.535
		c2.739-7.397,8.265-11.461,16.574-12.191C292.915,173.682,297.665,176.419,299.035,182.723"/>
	<path fill="#F5E7E6" d="M332.185,284.229c-0.729-1.187-1.141-2.785-1.231-4.794c-0.093-2.375,0.272-4.43,1.096-6.164
		c1.278-2.375,3.241-3.699,5.889-3.973c3.929-0.366,7.032,1.141,9.316,4.521c1.095,1.734,1.825,3.471,2.19,5.205
		c2.741,7.854,1.689,12.558-3.149,14.11C341.545,294.776,336.842,291.809,332.185,284.229"/>
	<path fill="#F5E7E6" d="M223.145,211.763c0.912,0.914,1.599,2.694,2.056,5.343c0.913,7.214-0.641,11.871-4.657,13.972
		c-4.02,2.192-7.991,0.138-11.918-6.164c-0.73-1.187-1.142-2.785-1.232-4.794c-0.092-2.375,0.273-4.43,1.096-6.164
		c1.278-2.375,3.242-3.7,5.891-3.973C218.578,209.525,221.5,210.12,223.145,211.763"/>
	<path fill="#F5E7E6" d="M397.391,315.734c-1.827-1.187-2.741-2.739-2.741-4.657c0-1.917,1.004-3.562,3.015-4.93
		c0.914-0.731,1.827-0.959,2.74-0.686l2.876,2.055l1.509,2.33c1.277,2.648,1.689,4.384,1.231,5.205l-3.697,1.507
		C400.403,316.922,398.759,316.647,397.391,315.734"/>
	<path fill="#F5E7E6" d="M473.143,208.887c-1.645-1.097-2.556-2.649-2.737-4.658c0-1.826,1.003-3.469,3.012-4.931
		c1.007-0.731,1.918-0.959,2.74-0.686c1.826,0.548,3.336,2.009,4.52,4.384c1.28,2.922,1.645,4.657,1.099,5.205
		c-0.821,0.731-2.058,1.233-3.698,1.507C476.155,210.074,474.515,209.799,473.143,208.887"/>
	<path fill="#F5E7E6" d="M259.308,271.353c-1.644-1.096-2.557-2.648-2.739-4.657c0-1.918,1.004-3.562,3.015-4.932
		c1.004-0.731,1.917-0.959,2.738-0.684c1.734,0.457,3.241,1.917,4.521,4.382c1.187,2.648,1.552,4.384,1.096,5.207l-3.699,1.505
		C262.321,272.539,260.679,272.266,259.308,271.353"/>
	<path fill="#F5E7E6" d="M352.047,221.489c-1.278-0.912-1.918-2.009-1.918-3.287c0-1.279,0.686-2.42,2.056-3.425l1.917-0.548
		c1.188,0.275,2.238,1.325,3.152,3.15c0.912,2.009,1.187,3.197,0.821,3.562l-2.604,1.097L352.047,221.489"/>
	<path fill="#F5E7E6" d="M530.268,253.817c-1.188-0.73-1.781-1.689-1.781-2.876c0-1.188,0.641-2.284,1.915-3.288l1.784-0.412
		l1.779,1.371l0.959,1.507c0.913,1.826,1.188,2.922,0.822,3.288l-2.328,0.958L530.268,253.817"/>
	<path fill="#F5E7E6" d="M346.431,138.476c-0.821-0.73-1.323-1.598-1.507-2.603c0-1.005,0.548-1.872,1.644-2.603
		c0.55-0.365,1.051-0.502,1.508-0.412c0.821,0.275,1.645,1.052,2.466,2.33c0.73,1.552,0.914,2.511,0.548,2.877l-1.917,0.821
		L346.431,138.476"/>
	<path fill="#0D131A" d="M424.376,545.598c0.272-1.369-0.776-2.97-3.15-4.797l-6.574-3.97c-5.299-3.198-7.809-5.663-7.534-7.398
		c0.366-2.465,3.24-4.019,8.629-4.655l16.576-0.55l17.123-1.781l3.971-1.918c1.188-0.729,2.193-0.959,3.017-0.683
		c2.465,0.912,3.654,3.517,3.562,7.809c-0.092,3.927-0.822,6.528-2.191,7.807c-0.458,1.462-0.318,4.432,0.41,8.904l0.549,4.795
		c0.183,2.465-0.046,4.383-0.683,5.755l-2.331,2.877c-1.188,0.729-2.056,1.915-2.604,3.561c-0.272,0.822-0.134,3.333,0.412,7.533
		c0.729,4.658,0.959,8.174,0.687,10.547c-0.55,3.928-2.376,6.35-5.48,7.263c-4.474,1.278-7.49-3.014-9.042-12.877l-1.781-7.124
		c-0.729,1.552-1.642,2.695-2.736,3.427c-1.1,0.729-2.148,0.959-3.15,0.684c-3.837-1.097-6.392-4.019-7.673-8.769
		C423.188,557.651,423.188,552.173,424.376,545.598"/>
	<path fill="#FFFFFF" d="M432.321,526.421c5.846-0.094,11.781-1.188,17.81-3.29l2.19-0.821l2.878-0.546l1.231,2.327l0.41,3.836
		c-0.091,1.369-0.868,3.563-2.328,6.574c-0.455,1.188-0.595,2.969-0.412,5.341l1.371,9.592v4.108l-1.232,1.781l-2.19,1.643
		c-1.007,0.916-1.735,2.01-2.193,3.29c-0.363,1.005-0.456,2.511-0.272,4.52l1.369,9.864c0.455,4.657-0.548,7.351-3.013,8.082
		c-1.279-0.364-2.33-1.873-3.151-4.522l-1.51-6.301l-2.601-7.123c-0.731-1.46-1.643-2.236-2.741-2.328
		c-1.187,0-2.143,0.868-2.877,2.604c-0.455,1.184-1.141,1.777-2.052,1.777c-1.28-0.455-2.559-1.597-3.836-3.423
		c-1.554-2.374-2.465-5.114-2.741-8.22c-0.091-0.913,0.319-3.881,1.235-8.904l0.134-1.781c-0.182-2.101-1.414-4.154-3.697-6.164
		l-6.438-4.383l-6.302-4.108c0.364-1.28,3.015-2.191,7.945-2.74L432.321,526.421"/>
	<path fill="#F5E7E6" d="M546.159,177.653c2.736,0,5.158,2.83,7.26,8.493c2.009,5.296,2.646,9.771,1.918,13.424
		c-0.55,2.739-2.377,4.384-5.481,4.932l-7.26-0.548c-2.101-1.096-3.654-2.832-4.658-5.205c-1.916-4.384-1.643-9.087,0.822-14.11
		C540.951,179.981,543.415,177.653,546.159,177.653"/>
	<path fill="#0D131A" d="M307.665,518.609c-2.832-1.093-4.064-2.282-3.7-3.562l5.891-0.137c13.607,4.841,33.79,7.991,60.547,9.451
		c29.499,1.646,55.479,0.364,77.943-3.836l8.495,0.413c-0.822,1.462-3.104,2.646-6.85,3.563
		c-17.625,4.564-39.404,6.756-65.342,6.574C353.418,530.985,327.755,526.831,307.665,518.609"/>
</g>
</svg>
