<?xml version="1.0" encoding="utf-8"?>
<!-- Generator: Adobe Illustrator 16.0.0, SVG Export Plug-In . SVG Version: 6.00 Build 0)  -->
<!DOCTYPE svg PUBLIC "-//W3C//DTD SVG 1.1//EN" "http://www.w3.org/Graphics/SVG/1.1/DTD/svg11.dtd">
<svg version="1.1" id="Layer_1" xmlns="http://www.w3.org/2000/svg" xmlns:xlink="http://www.w3.org/1999/xlink" x="0px" y="0px"
	 width="800px" height="800px" viewBox="0 0 800 800" enable-background="new 0 0 800 800" xml:space="preserve">
<g>
	<path fill="#0D131A" d="M601.64,481.396c-2.026,23.084-11.107,39.979-27.248,50.688c-9.841,6.588-25.544,11.943-47.108,16.065
		l-23.447-31.804l15.849-2.496c5.717-1.086,10.422-2.787,14.112-5.104c9.625-6.077,17.077-19.431,22.36-40.054
		c2.099-8.177,5.825-13.604,11.18-16.281c4.776-2.39,10.061-2.39,15.849,0c5.499,2.241,10.023,6.005,13.57,11.288
		C600.589,469.347,602.216,475.242,601.64,481.396"/>
	<path fill="#5892BF" d="M594.907,484.542c-3.401,23.881-15.667,40.524-36.798,49.933c-7.094,3.184-15.849,5.789-26.268,7.815
		l-22.036,3.906v-24.098c14.327-3.04,24.857-7.236,31.587-12.592c8.468-6.804,14.764-17.802,18.89-32.998
		c2.385-8.686,5.753-14.438,10.094-17.26l12.156-0.326c3.908,2.024,7.092,5.499,9.554,10.423
		C594.691,474.41,595.632,479.476,594.907,484.542"/>
	<path fill="#0D131A" d="M163.972,491.271c1.157-6.657,4.052-12.085,8.684-16.283c4.775-4.486,10.203-6.439,16.282-5.861
		c6.947,0.724,13.568,4.667,19.864,11.831c18.888,21.494,32.564,30.719,41.031,27.682c2.388-0.797,5.681-2.497,9.878-5.102
		c4.125-1.665,8.865-1.051,14.22,1.843l-3.799,33.979c-14.039,10.058-32.565,11.832-55.577,5.317
		c-22.723-6.44-38.462-17.583-47.218-33.433C163.862,505.021,162.741,498.363,163.972,491.271"/>
	<path fill="#5892BF" d="M170.918,495.288c0.072-5.718,1.7-10.458,4.885-14.22c3.255-3.98,7.272-5.79,12.048-5.428
		c5.427,0.433,10.963,3.689,16.608,9.77c17.657,19.104,30.393,28.838,38.208,29.198l8.033-1.845c3.112-0.869,6.187-0.65,9.227,0.649
		l-0.217,24.533c-11.361,6.802-26.196,7.164-44.504,1.085c-17.73-5.861-30.755-14.799-39.078-26.813
		C172.582,507.084,170.845,501.438,170.918,495.288"/>
	<path fill="#0D131A" d="M571.568,575.504c16.936-6.366,30.395-7.562,40.383-3.582c9.623,3.837,12.375,10.782,8.248,20.843
		c-2.391,5.715-14.87,15.195-37.448,28.438c-26.341,15.485-54.35,28.042-84.018,37.667c-6.367,2.098-11.361,1.121-14.979-2.933
		c-4.631-5.281-8.974-17.042-13.025-35.276c-1.447-6.369-5.679-12.989-12.699-19.865c-3.836-3.834-10.492-9.299-19.975-16.391
		c-8.104-6.008-13.17-10.348-15.197-13.025c-3.108-4.124-2.459-7.525,1.956-10.204c15.774-9.625,32.674-4.849,50.691,14.328
		c6.729,7.093,12.556,15.161,17.476,24.208c4.56,8.248,7.058,14.654,7.49,19.212c0.217,2.389,2.642,2.137,7.274-0.76l17.364-12.699
		C545.88,589.326,561.367,579.338,571.568,575.504"/>
	<path fill="#5892BF" d="M576.237,580.063c20.841-6.803,33.54-6.874,38.101-0.216c1.663,2.532,1.881,5.608,0.65,9.228
		c-1.229,3.399-3.256,6.223-6.079,8.464c-11.578,9.267-31.912,21.024-61.002,35.28c-29.452,14.398-48.306,21.672-56.555,21.816
		c-3.113,0.072-5.753-3.003-7.926-9.227l-10.094-35.386c-1.52-5.355-3.798-10.929-6.84-16.718l-6.187-11.614
		c-1.665-3.475-2.171-6.043-1.521-7.708c0.796-2.025,3.365-3.58,7.706-4.667c3.909-1.013,9.88,7.49,17.911,25.511l13.134,31.369
		c1.377,2.314,11.325-3.256,29.851-16.715C549.75,593.198,566.035,583.394,576.237,580.063"/>
	<path fill="#46799E" d="M473.334,610.023c-1.52-5.355-3.798-10.928-6.84-16.718l-6.187-11.614
		c-1.665-3.475-2.171-6.043-1.521-7.708c0.796-2.025,3.365-3.58,7.706-4.667c3.546-0.94,8.795,6.044,15.74,20.95
		c3.765,8.033,8.358,18.851,13.785,32.456l1.52,3.474c-2.241-1.737-5.138-2.1-8.684-1.087c-3.546,0.939-6.729,3.004-9.551,6.188
		L473.334,610.023"/>
	<path fill="#0D131A" d="M341.447,594.501c12.592,25.254,22.542,40.776,29.851,46.567c13.823,10.926,19.503,20.878,17.042,29.851
		c-1.52,5.283-5.608,9.804-12.266,13.567c-30.032,17.224-57.639,29.451-82.822,36.689c-29.888,8.537-47.11,6.729-51.669-5.429
		c-3.907-10.348,0.978-20.045,14.654-29.09c16.5-10.927,43.782-18.997,81.846-24.208c4.486-1.014,6.984-2.315,7.49-3.906
		c0.506-1.521-0.688-4.234-3.582-8.143c-10.277-13.604-16.934-24.277-19.973-32.021c-5.717-14.256-5.572-27.896,0.434-40.925
		c2.171-4.63,4.921-5.101,8.25-1.41C333.089,578.652,336.671,584.805,341.447,594.501"/>
	<path fill="#5892BF" d="M335.042,598.407c10.783,19.467,18.888,32.203,24.316,38.209l14.979,14.764
		c6.006,5.355,8.865,10.492,8.576,15.413c-0.217,5.211-3.873,9.806-10.964,13.785c-23.735,13.388-48.051,24.136-72.944,32.24
		c-30.827,9.984-48.304,10.168-52.428,0.542c-4.197-9.771,4.451-19.251,25.942-28.439c16.79-7.164,40.235-13.75,70.34-19.755
		c6.368-1.593,9.588-3.836,9.661-6.731c0.072-1.591-1.375-4.559-4.342-8.9l-7.164-9.659c-3.039-4.197-5.499-8.104-7.381-11.723
		c-5.572-10.638-8.539-23.521-8.901-38.646c-0.072-4.269,0.833-5.389,2.713-3.362C328.747,587.589,331.28,591.681,335.042,598.407"
		/>
	<path fill="#46799E" d="M335.042,598.407c10.783,19.467,18.888,32.203,24.316,38.209l8.032,8.25
		c-2.823-1.883-6.622-3.294-11.397-4.234c-6.297-1.3-10.421-0.396-12.375,2.717c-5.717-7.673-9.77-14.294-12.158-19.865
		c-4.125-9.553-6.368-20.877-6.73-33.978c-0.072-4.269,0.833-5.389,2.713-3.362C328.747,587.589,331.28,591.681,335.042,598.407"/>
	<path fill="#0D131A" d="M461.178,394.229c27.209,10.493,43.852,25.437,49.932,44.83c9.479,30.177,16.138,53.804,19.974,70.883
		c6.367,28.366,7.925,48.812,4.666,61.33c-5.86,22.647-20.045,38.568-42.552,47.761c-19.972,8.104-53.15,13.136-99.538,15.089
		c-38.86,1.665-70.339-1.159-94.438-8.467c-23.301-7.021-38.136-17.694-44.504-32.022c-7.091-16.063-10.131-32.129-9.118-48.193
		c0.725-11.146,3.944-25.112,9.662-41.899c7.164-21.132,11.469-35.027,12.917-41.683c3.546-16.502,3.799-32.384,0.759-47.652
		c-1.953-9.916,8.287-18.237,30.719-24.967c21.71-6.512,47.544-9.552,77.504-9.118C409.797,380.624,437.803,385.329,461.178,394.229
		"/>
	<path fill="#5892BF" d="M518.271,483.891c4.415,16.501,7.49,29.489,9.229,38.97c5.211,28.293,3.58,49.858-4.885,64.692
		c-6.877,11.94-20.081,21.313-39.62,28.113c-22.36,7.816-52.321,11.978-89.88,12.485c-43.997,0.576-75.621-2.245-94.87-8.469
		c-19.177-6.297-32.239-17.946-39.186-34.951c-5.355-13.172-7.381-27.029-6.078-41.573c0.868-9.915,3.835-22.94,8.901-39.077
		c6.006-19.179,9.696-32.204,11.071-39.078c2.968-15.053,3.112-29.021,0.435-41.898c-1.953-9.119,8.287-17.043,30.719-23.773
		c21.638-6.439,47.219-9.66,76.744-9.66c32.132-0.072,59.339,3.907,81.627,11.939c26.054,9.479,41.177,23.34,45.373,41.575
		L518.271,483.891"/>
	<path fill="#46799E" d="M252.872,558.571c5.79,14.908,22.579,26.304,50.366,34.192c25.111,7.092,54.708,10.274,88.793,9.554
		c33.65-0.652,63.211-4.923,88.685-12.813c27.644-8.465,44.251-19.465,49.821-32.998c-0.359,12.087-3.001,22.436-7.922,31.045
		c-6.877,11.94-20.081,21.313-39.62,28.113c-22.36,7.816-52.321,11.978-89.88,12.485c-43.997,0.576-75.621-2.245-94.87-8.469
		c-19.177-6.297-32.239-17.946-39.186-34.951C255.513,576.047,253.451,567.328,252.872,558.571"/>
	<path fill="#46799E" d="M515.994,474.556c-36.474,5.354-79.854,6.946-130.151,4.775c-52.61-2.243-90.167-7.889-112.673-16.934
		c2.678-13.968,2.75-27.065,0.217-39.294c-1.953-9.119,8.287-17.043,30.719-23.773c21.638-6.439,47.219-9.66,76.744-9.66
		c32.132-0.072,59.339,3.907,81.627,11.939c26.054,9.479,41.177,23.34,45.373,41.575L515.994,474.556"/>
	<path fill="#0D131A" d="M325.707,500.496c-2.967,0.072-5.535-0.939-7.706-3.037c-2.171-2.1-3.257-4.631-3.257-7.601
		c-0.072-2.966,0.94-5.535,3.04-7.706c2.098-2.097,4.631-3.185,7.598-3.256c2.967-0.072,5.536,0.939,7.708,3.04
		c2.098,2.097,3.184,4.63,3.255,7.598c0,2.968-1.012,5.535-3.039,7.707C331.207,499.34,328.675,500.425,325.707,500.496"/>
	<path fill="#E9545D" d="M325.599,496.266c-1.809,0-3.365-0.614-4.667-1.847c-1.303-1.303-1.954-2.856-1.954-4.666
		c-0.072-1.81,0.543-3.33,1.846-4.561c1.23-1.303,2.75-1.989,4.559-2.063c1.881,0,3.437,0.614,4.667,1.844
		c1.303,1.306,1.954,2.859,1.954,4.669c0.072,1.809-0.543,3.363-1.846,4.669C328.928,495.54,327.408,496.192,325.599,496.266"/>
	<path fill="#0D131A" d="M401.691,507.879c0.507,0.506,0.614,1.592,0.324,3.256c-0.723,3.765-1.917,7.164-3.582,10.205
		c-2.315,4.123-5.065,6.225-8.25,6.296c-3.255,0.072-6.15-1.99-8.684-6.188c-1.737-3.038-3.002-6.439-3.799-10.202
		c-0.217-1.229-0.145-2.135,0.217-2.715c0.506-0.723,1.556-1.085,3.148-1.085l16.716-0.216
		C399.81,507.156,401.111,507.372,401.691,507.879"/>
	<path fill="#ED8599" d="M382.696,511.461l14.545-0.217l-1.737,6.187c-1.52,4.055-3.293,6.117-5.319,6.188
		c-2.026,0-3.871-2.026-5.536-6.079L382.696,511.461"/>
	<path fill="#0D131A" d="M720.389,227.282c6.08,21.565,4.886,39.656-3.582,54.274c-3.11,5.5-8.609,10.891-16.499,16.174
		c-9.335,6.295-20.442,11.325-33.323,15.088c-33.65,9.842-73.125,9.552-118.427-0.868c-25.544-5.862-49.535-13.388-71.968-22.579
		c-22.36-9.263-36.799-17.549-43.312-24.858c-24.749,10.06-51.813,16.536-81.193,19.431c-5.138,14.834-8.286,27.209-9.443,37.124
		c-3.691,29.669-10.783,52.067-21.276,67.191c-8.973,12.736-19.104,18.813-30.394,18.235c-35.024-1.953-69.47-8.032-103.337-18.235
		c-32.854-9.915-62.054-22.759-87.599-38.534C74.13,333.659,54.7,316.22,41.746,297.404c-13.75-19.828-19.031-39.584-15.848-59.267
		c3.546-21.71,17.549-40.633,42.008-56.771c24.242-15.921,55.106-26.848,92.591-32.781c18.815-24.533,44.106-43.347,75.875-56.445
		c28.946-11.869,60.715-18.055,95.305-18.562c32.854-0.506,63.791,4.089,92.809,13.786c29.454,9.841,52.356,23.411,68.71,40.706
		c40.959-10.348,78.735-11.252,113.327-2.714c29.957,7.453,55.431,21.276,76.417,41.465
		C701.683,184.84,714.165,204.994,720.389,227.282"/>
	<path fill="#E9545D" d="M203.048,153.144c31.118,0.506,61.294,6.006,90.529,16.499c80.108,28.802,116.436,73.56,108.982,134.275
		c-3.619,29.38-14.8,51.487-33.542,66.322c-21.999,17.44-55.214,25.617-99.647,24.532c-28.873-0.651-58.398-5.898-88.575-15.74
		c-28.584-9.262-54.635-21.529-78.154-36.797c-23.519-15.341-41.465-31.697-53.84-49.064c-13.026-18.309-18.2-35.676-15.523-52.103
		c2.678-16.282,12.049-31.298,28.115-45.047c15.775-13.533,35.929-24.099,60.46-31.697
		C147.327,156.364,174.391,152.638,203.048,153.144"/>
	<path fill="#C94850" d="M33.279,241.068c0.362-2.388,0.833-4.522,1.412-6.405c4.848,18.888,19.647,37.413,44.396,55.577
		c22.795,16.644,51.85,31.479,87.165,44.504c34.012,12.592,69.289,21.782,105.833,27.571c37.558,6.006,71.171,7.563,100.842,4.667
		c-21.855,19.611-56.374,28.874-103.555,27.789c-28.873-0.651-58.398-5.898-88.575-15.74c-28.584-9.262-54.635-21.529-78.154-36.797
		c-23.519-15.341-41.465-31.697-53.84-49.064C35.775,274.862,30.602,257.495,33.279,241.068"/>
	<path fill="#E9545D" d="M461.827,145.112c-10.349,7.164-17.367,14.002-21.059,20.515c-4.775-1.375-11.616-2.642-20.517-3.799
		l-21.602-2.605c-19.249-2.389-35.64-2.389-49.172,0c-11.94,2.099-23.88,6.512-35.821,13.243
		c-20.551-9.915-44.034-17.114-70.447-21.601c-25.762-4.342-50.258-5.464-73.488-3.365c13.026-18.019,33.687-33.216,61.981-45.59
		c29.452-12.881,61.221-20.009,95.305-21.384c33.216-1.303,64.84,2.931,94.874,12.7c28.8,9.335,50.944,21.999,66.429,37.991
		C480.136,133.967,471.307,138.599,461.827,145.112"/>
	<path fill="#E9545D" d="M698.679,194.718c14.766,21.492,20.807,42.008,18.128,61.546c-27.643-19.466-64.043-31.985-109.197-37.557
		c-18.526-2.316-38.174-2.353-58.942-0.109c-18.381,1.882-34.083,5.065-47.11,9.552l0.542-6.513
		c2.678-21.782-15.992-39.729-56.009-53.84c16.283-22.868,44.431-36.328,84.448-40.38c36.909-3.763,70.956,1.014,102.146,14.329
		C660.76,153.759,682.76,171.416,698.679,194.718"/>
	<path fill="#0D131A" d="M406.035,152.493c12.084,1.448,24.169,3.908,36.254,7.381l10.528,3.365
		c19.323,6.875,34.121,15.559,44.396,26.051c10.278,10.494,14.691,21.421,13.243,32.782c-0.94,7.598-1.084,22.035-0.433,43.31
		c-0.939,19.178-5.936,32.673-14.979,40.488c-8.612,7.309-20.623,10.023-36.038,8.142l-87.926-10.094
		c-44.866-5.79-71.387-11.218-79.565-16.283c-8.395-5.21-12.339-17.368-11.832-36.472c0.217-7.236,2.497-26.16,6.838-56.771
		c1.737-12.23,8.431-21.673,20.082-28.331c11.434-6.513,25.798-11,43.093-13.46C367.426,150.068,386.205,150.032,406.035,152.493"/>
	<path fill="#F2984F" d="M505.246,223.049c-0.218,1.954-0.615,10.891-1.193,26.812c-0.506,12.88-1.736,23.083-3.691,30.61
		c-6.006,23.447-21.42,33.649-46.239,30.611l-81.412-9.335c-41.61-5.428-66.179-10.457-73.705-15.088
		c-8.177-5.066-11.976-19.683-11.397-43.854c0.217-7.96,1.737-23.266,4.56-45.917c1.809-14.328,13.712-25.291,35.712-32.889
		c21.999-7.526,47.725-9.516,77.177-5.97c29.453,3.618,53.95,11.795,73.487,24.532C498.082,195.225,506.981,208.721,505.246,223.049
		"/>
	<path fill="#0D131A" d="M402.669,228.368c-26.414-3.257-46.64-7.526-60.679-12.809c-16.861-6.295-25.943-14.364-27.246-24.205
		c-1.375-10.566,7.454-18.707,26.485-24.424c18.599-5.572,39.982-6.875,64.152-3.908c23.954,2.968,44.073,9.335,60.354,19.104
		c16.5,9.915,23.373,20.045,20.624,30.394c-2.388,8.973-11.035,14.69-25.941,17.15C446.955,231.842,427.709,231.408,402.669,228.368
		"/>
	<path fill="#C18963" d="M402.775,223.7c-24.53-3.04-43.382-6.584-56.552-10.638c-15.849-4.921-24.496-10.891-25.943-17.91
		c-1.592-7.526,6.368-13.062,23.88-16.608c17.079-3.4,36.834-3.727,59.27-0.976c22.36,2.75,41.213,7.815,56.553,15.196
		c15.56,7.454,22.218,14.798,19.975,22.035c-1.957,6.296-9.808,10.095-23.558,11.398C443.954,227.427,426.08,226.595,402.775,223.7"
		/>
	<path fill="#0D131A" d="M772.926,327.254c4.921,23.447,1.087,45.048-11.506,64.804c-15.125,23.81-40.019,37.629-74.682,41.465
		c-24.099,2.678-48.701,2.135-73.813-1.629c-25.762-3.834-48.084-10.456-66.973-19.863c-49.785-24.895-81.847-45.952-96.173-63.175
		c-8.252-9.915-12.919-20.371-14.005-31.371c-1.085-10.782,1.194-23.084,6.841-36.906c8.973-21.565,25.762-38.824,50.364-51.777
		c31.117-16.355,69.581-21.71,115.388-16.065c48.919,6.006,87.525,19.394,115.822,40.162
		C750.458,272.221,766.702,297.006,772.926,327.254"/>
	<path fill="#E9545D" d="M764.678,325.084c4.63,21.709,1.156,42.188-10.422,61.438c-14.038,23.375-37.051,36.726-69.036,40.056
		c-26.125,2.749-49.932,2.857-71.426,0.323c7.164-12.81,8.829-29.958,4.995-51.451c-1.159-6.729-4.161-14.292-9.012-22.687
		c-5.138-8.829-11.83-17.802-20.081-26.92c-9.771-10.782-20.911-20.841-33.432-30.177c-13.968-10.348-28.982-19.394-45.049-27.137
		c-12.953-6.224-26.812-11.615-41.575-16.173c11.146-11.795,25.801-20.77,43.963-26.92c26.344-8.974,57.677-11.217,94.005-6.729
		c45.154,5.572,81.556,18.091,109.197,37.557c13.025,9.263,23.593,19.756,31.696,31.479
		C756.463,299.322,761.854,311.769,764.678,325.084"/>
	<path fill="#C94850" d="M765.87,351.787c-2.097,18.67-9.153,34.518-21.166,47.543c-14.401,15.487-34.229,24.57-59.484,27.248
		c-26.125,2.749-49.932,2.857-71.426,0.323c5.719-10.203,7.96-23.048,6.731-38.534c36.979,5.644,68.745,4.92,95.305-2.171
		C741.374,379.467,758.056,367.997,765.87,351.787"/>
	<path fill="#0D131A" d="M628.342,379.792c8.32,47.039-15.849,76.527-72.512,88.467c-37.701,7.89-95.307,8.032-172.809,0.436
		c-80.977-7.961-142.523-23.882-184.641-47.761c-51.668-29.236-63.428-66.144-35.277-110.72
		c17.657-27.934,45.916-48.414,84.776-61.439c43.347-14.546,97.765-18.888,163.257-13.026
		c61.728,5.572,114.229,25.798,157.503,60.679c17.08,13.75,31.081,28.62,42.009,44.612
		C620.415,355.296,626.314,368.213,628.342,379.792"/>
	<path fill="#E9545D" d="M410.484,240.96c20.188,1.881,39.91,5.68,59.156,11.397c41.105,12.375,76.49,32.239,106.161,59.593
		c12.229,11.216,22.217,22.687,29.959,34.409c7.237,10.928,11.578,20.624,13.027,29.091c3.834,21.493,2.169,38.643-4.995,51.451
		c-5.427,9.842-14.4,17.729-26.919,23.663c-8.901,4.199-21.926,8.251-39.078,12.159c-32.418,7.38-82.676,7.308-150.773-0.219
		c-64.695-7.164-117.774-17.622-159.24-31.369c-33.36-11.071-56.771-26.631-70.229-46.676c-15.921-23.81-13.533-49.606,7.164-77.395
		c18.525-24.821,46.241-43.057,83.148-54.708C299.402,239.331,350.276,235.532,410.484,240.96"/>
	<path fill="#F9DBE1" d="M283.374,342.343c0,6.658-4.522,11.615-13.568,14.872c-9.118,3.257-19.322,3.546-30.61,0.868
		c-12.375-2.966-21.131-6.078-26.269-9.335c-6.006-3.835-9.01-8.901-9.01-15.196c0-7.092,3.98-13.134,11.941-18.128
		c8.61-5.355,18.851-7.345,30.719-5.97c12.591,1.52,22.144,5.753,28.657,12.701C280.66,327.943,283.374,334.673,283.374,342.343"/>
	<path fill="#F9DBE1" d="M98.191,234.446c0,3.474-2.532,7.165-7.598,11.072c-5.211,4.052-9.77,5.536-13.678,4.45
		c-8.901-2.46-14.4-4.341-16.499-5.644c-4.197-2.678-5.825-6.948-4.885-12.809c0.796-4.415,4.052-8.467,9.77-12.157
		c5.789-3.763,10.891-5.102,15.306-4.016c3.835,1.012,7.779,3.835,11.832,8.467C96.273,228.151,98.191,231.697,98.191,234.446"/>
	<path fill="#F9DBE1" d="M449.129,260.281c-0.726,3.401-4.308,5.499-10.748,6.296l-18.02-1.195l-16.391-3.69
		c-5.211-1.592-7.816-3.799-7.816-6.622c0-3.184,2.135-5.463,6.405-6.839l15.74-0.65c8.395,1.013,15.378,2.498,20.949,4.45
		C446.413,254.419,449.707,257.17,449.129,260.281"/>
	<path fill="#F9DBE1" d="M430.891,103.538c-0.649,3.474-4.631,5.861-11.938,7.164c-6.805,1.23-13.279,1.122-19.432-0.325
		c-6.875-1.665-12.628-3.618-17.258-5.862c-5.79-2.822-8.684-5.752-8.684-8.792c0-3.184,2.134-5.464,6.403-6.839l15.74-0.651
		c7.888,0.869,15.63,2.787,23.231,5.753C427.563,97.242,431.543,100.426,430.891,103.538"/>
	<path fill="#F9DBE1" d="M240.498,163.456c0,2.388-2.135,4.342-6.405,5.862c-3.763,1.302-7.888,1.881-12.375,1.736l-11.614-0.108
		c-3.763-0.362-5.861-1.484-6.295-3.365c-0.507-2.171,0.614-4.016,3.365-5.536c2.533-1.447,6.042-2.352,10.529-2.713
		c5.789-0.506,10.746-0.506,14.871,0C237.783,159.91,240.425,161.285,240.498,163.456"/>
	<path fill="#F9DBE1" d="M504.486,363.836c1.446,4.559-0.613,8.937-6.188,13.134c-5.646,4.197-12.627,6.548-20.949,7.056
		l-20.081-0.761c-4.993-1.375-8.179-4.233-9.552-8.575c-1.521-4.849-0.038-9.842,4.448-14.98
		c4.776-5.572,11.397-9.118,19.864-10.638c8.974-1.664,16.464-0.795,22.472,2.604C499.42,354.501,502.75,358.553,504.486,363.836"/>
	<path fill="#F9DBE1" d="M567.228,152.059c1.447,4.56-0.615,8.937-6.187,13.134c-5.645,4.197-12.63,6.549-20.95,7.056l-20.081-0.869
		c-4.995-1.303-8.143-4.125-9.443-8.467c-1.521-4.921-0.071-9.951,4.344-15.088c4.773-5.572,11.433-9.118,19.971-10.638
		c8.975-1.664,16.428-0.796,22.36,2.605C562.308,142.687,565.637,146.775,567.228,152.059"/>
	<path fill="#F9DBE1" d="M536.943,295.559c6.583,0.579,12.049,2.279,16.391,5.102c4.343,2.822,7.093,6.078,8.249,9.769
		c0.94,3.112,0.761,6.079-0.542,8.901c-1.229,2.46-3.801,3.473-7.707,3.039c-3.908-0.435-7.672-2.17-11.29-5.21l-12.156-9.877
		c-4.196-3.98-5.79-6.984-4.777-9.01C526.27,295.885,530.214,294.979,536.943,295.559"/>
	<path fill="#F9DBE1" d="M688.367,350.158c0,5.138-3.328,8.865-9.985,11.181c-5.934,2.026-13.39,2.568-22.362,1.628
		c-8.755-0.94-15.015-3.292-18.775-7.056c-3.188-3.184-4.779-7.707-4.779-13.569c0-7.019,0.688-11.687,2.063-14.002
		c2.461-4.197,7.672-5.752,15.633-4.667c10.272,1.448,19.32,5.065,27.135,10.855C684.677,339.883,688.367,345.094,688.367,350.158"
		/>
	<path fill="#F9DBE1" d="M171.57,248.775c3.255,3.98,3.002,8.901-0.761,14.762c-3.329,5.355-8.792,10.493-16.39,15.414
		c-7.381,4.777-13.713,6.911-18.996,6.405c-4.415-0.506-8.503-3.04-12.266-7.598c-4.415-5.427-6.802-9.517-7.164-12.266
		c-0.723-4.704,2.353-9.154,9.226-13.351c8.901-5.355,18.2-8.25,27.897-8.684C162.234,243.022,168.385,244.795,171.57,248.775"/>
	<path fill="#F9DBE1" d="M709.535,267.229c0.362,4.775-1.811,7.128-6.514,7.055c-2.461-0.072-7.926-1.303-16.391-3.69
		c-5.572-1.592-9.663-3.221-12.267-4.885c-4.562-2.895-6.769-6.694-6.621-11.397c0.144-4.342,2.677-7.201,7.598-8.576
		c4.486-1.303,8.757-1.049,12.809,0.761c7.094,3.039,12.229,6.005,15.413,8.901C707.182,258.725,709.173,262.669,709.535,267.229"/>
	<path fill="#F9DBE1" d="M241.148,198.734c0,1.809-1.266,3.835-3.799,6.078c-2.75,2.46-5.572,3.691-8.467,3.691
		c-2.966,0-5.716-1.05-8.25-3.148c-2.315-1.954-3.473-3.836-3.473-5.645c0-1.664,1.122-3.076,3.365-4.233
		c2.243-1.157,4.92-1.737,8.032-1.737l8.684,1.303C239.847,195.984,241.148,197.214,241.148,198.734"/>
	<path fill="#F9DBE1" d="M634.527,273.199c3.401,0,6.296,0.397,8.685,1.194c2.678,0.94,4.017,2.171,4.017,3.691
		c0,1.809-1.267,3.871-3.801,6.186c-2.749,2.46-5.569,3.691-8.466,3.691c-2.968,0-5.718-1.086-8.251-3.257
		c-2.385-1.954-3.58-3.835-3.58-5.644c0-1.592,1.121-2.968,3.364-4.125C628.666,273.777,631.344,273.199,634.527,273.199"/>
	<path fill="#F9DBE1" d="M613.794,178.11c0,1.809-1.265,3.835-3.798,6.08c-2.75,2.459-5.573,3.69-8.467,3.69
		c-2.967,0-5.719-1.05-8.249-3.148c-2.317-1.954-3.475-3.835-3.475-5.645c0-1.592,1.12-2.967,3.363-4.124
		c2.172-1.158,4.85-1.737,8.033-1.737c3.4,0,6.295,0.398,8.685,1.195C612.493,175.36,613.794,176.59,613.794,178.11"/>
	<path fill="#F9DBE1" d="M324.73,253.117c0,1.665-1.122,3.04-3.365,4.125c-2.171,1.158-4.849,1.737-8.033,1.737h-11.18
		c-4.343-0.217-6.514-1.013-6.514-2.388c0-1.665,2.171-3.618,6.514-5.862c4.341-2.315,8.068-3.473,11.18-3.473
		c3.184,0,5.861,0.579,8.033,1.737C323.609,250.15,324.73,251.524,324.73,253.117"/>
	<path fill="#F9DBE1" d="M670.131,177.676c-3.256,2.822-8.104,3.438-14.544,1.845c-5.501-1.447-9.625-3.546-12.375-6.295
		l-9.119-9.443c-3.472-4.849-4.34-9.407-2.604-13.678c1.52-3.618,6.874-3.329,16.064,0.868c7.887,3.618,13.495,7.092,16.823,10.421
		c2.245,2.243,4.055,5.247,5.427,9.01C671.182,174.166,671.29,176.59,670.131,177.676"/>
	<path fill="#F9DBE1" d="M230.836,124.596c0,1.519-1.954,2.931-5.861,4.233c-3.619,1.158-7.164,1.736-10.638,1.736h-11.29
		c-4.341-0.289-6.512-1.121-6.512-2.496c0-1.736,2.388-4.415,7.164-8.033c4.994-3.763,8.973-5.644,11.941-5.644
		c2.967,0,6.295,1.303,9.986,3.907C229.1,120.833,230.836,122.931,230.836,124.596"/>
	<path fill="#F9DBE1" d="M374.337,326.712c-0.362,3.401-2.966,5.861-7.815,7.381l-12.048,1.412c-9.046,0-13.967-2.932-14.763-8.793
		c-0.868-6.513,1.159-11.397,6.079-14.654c3.907-2.677,8.104-3.69,12.591-3.04c5.065,0.725,9.191,3.474,12.375,8.25
		C373.288,321.031,374.482,324.18,374.337,326.712"/>
	<path fill="#F9DBE1" d="M364.025,136.428c0,2.243-1.195,4.125-3.582,5.645c-2.316,1.592-5.138,2.389-8.467,2.389
		s-6.151-0.796-8.468-2.389c-2.387-1.521-3.582-3.401-3.582-5.645c0-2.243,1.195-4.161,3.582-5.753
		c2.316-1.592,5.139-2.389,8.468-2.389s6.15,0.797,8.467,2.389C362.831,132.267,364.025,134.185,364.025,136.428"/>
	<path fill="#F9DBE1" d="M433.605,131.543c0,2.315-1.482,4.704-4.453,7.164c-3.108,2.532-6.296,3.799-9.551,3.799
		c-3.256,0-6.874-1.447-10.854-4.341c-3.98-2.823-5.973-5.356-5.973-7.6s1.159-4.16,3.476-5.752
		c2.316-1.592,5.139-2.388,8.467-2.388c3.62,0,7.598,0.976,11.94,2.93C431.289,127.382,433.605,129.445,433.605,131.543"/>
	<path fill="#F9DBE1" d="M178.517,177.785c0,3.98-1.158,6.875-3.474,8.684c-2.532,1.953-8.286,4.233-17.258,6.837
		c-6.875,1.954-14.872,2.823-23.989,2.605c-10.855-0.362-17.549-2.532-20.081-6.512c-2.968-4.632-0.905-9.299,6.187-14.003
		c5.065-3.401,9.842-5.608,14.328-6.622c17.005-3.907,29.163-4.451,36.472-1.628C175.911,169.101,178.517,172.647,178.517,177.785"
		/>
	<path fill="#F9DBE1" d="M311.813,100.607c0,2.895-2.279,5.391-6.839,7.49c-4.704,2.17-10.276,3.256-16.716,3.256l-19.539-0.325
		c-6.585-0.58-9.878-2.099-9.878-4.56c0-3.04,2.315-6.224,6.947-9.552c4.92-3.546,10.457-5.572,16.608-6.079
		c8.322-0.723,15.414,0,21.275,2.171C309.1,95.035,311.813,97.567,311.813,100.607"/>
	<path fill="#F9DBE1" d="M612.819,253.117c-2.752,3.691-5.937,5.608-9.555,5.753c-2.965,0.072-7.634-1.193-14.001-3.799
		l-18.563-8.033c-5.935-3.401-8.901-7.273-8.901-11.614c0-4.415,3.473-7.273,10.42-8.576l21.061-1.194
		c6.802,0,12.555,3.582,17.26,10.746C615.242,243.347,616.001,248.919,612.819,253.117"/>
	<path fill="#46799E" d="M604.677,600.036c-9.261,8.322-29.018,19.61-59.267,33.868c-28.73,13.531-44.613,19.862-47.652,18.995
		c-3.402-1.016,1.557-5.501,14.872-13.46l32.78-18.778c13.749-8.322,28.69-15.271,44.828-20.844
		C606.231,594.318,611.044,594.392,604.677,600.036"/>
	<path fill="#0D131A" d="M449.997,499.412c-2.969,0.072-5.501-0.939-7.602-3.04c-2.169-2.099-3.256-4.63-3.256-7.598
		c-0.071-2.966,0.941-5.535,3.04-7.706c2.097-2.101,4.631-3.188,7.599-3.259s5.501,0.939,7.599,3.042
		c2.172,2.098,3.258,4.631,3.258,7.597c0.072,2.968-0.94,5.537-3.042,7.708C455.496,498.256,452.963,499.34,449.997,499.412"/>
	<path fill="#E9545D" d="M449.997,495.181c-1.81,0-3.366-0.616-4.669-1.848c-1.304-1.301-1.953-2.857-1.953-4.667
		c-0.071-1.809,0.543-3.328,1.846-4.561c1.23-1.301,2.749-1.989,4.559-2.063c1.81,0,3.365,0.617,4.666,1.847
		c1.306,1.303,1.955,2.858,1.955,4.668c0.072,1.81-0.544,3.363-1.845,4.667C453.325,494.455,451.806,495.107,449.997,495.181"/>
	<path fill="#C94850" d="M451.082,438.518c27.787,0.939,57.276-1.121,88.467-6.187c39.51-6.44,66.503-16.066,80.978-28.876
		c-0.726,8.9-2.969,16.717-6.731,23.446c-5.427,9.842-14.4,17.729-26.919,23.663c-8.901,4.199-21.926,8.251-39.078,12.159
		c-32.418,7.38-82.676,7.308-150.773-0.219c-64.695-7.164-117.774-17.622-159.24-31.369c-16.427-5.428-30.827-12.304-43.202-20.624
		c32.42,9.479,81.52,16.823,147.299,22.034L451.082,438.518"/>
</g>
</svg>
