<?xml version="1.0" encoding="utf-8"?>
<!-- Generator: Adobe Illustrator 16.0.0, SVG Export Plug-In . SVG Version: 6.00 Build 0)  -->
<!DOCTYPE svg PUBLIC "-//W3C//DTD SVG 1.1//EN" "http://www.w3.org/Graphics/SVG/1.1/DTD/svg11.dtd">
<svg version="1.1" id="Layer_1" xmlns="http://www.w3.org/2000/svg" xmlns:xlink="http://www.w3.org/1999/xlink" x="0px" y="0px"
	 width="800px" height="800px" viewBox="0 0 800 800" enable-background="new 0 0 800 800" xml:space="preserve">
<g>
	<path fill="#0D131A" d="M750.691,484.541c1.161,5.088,1.221,8.086,0.176,9.014c-0.928,0.812-3.174,0.176-6.758-1.904l-22.373-9.883
		l-23.937-9.541l7.285,11.787c3.125,5.205,4.512,8.564,4.16,10.06c-0.342,1.514-2.949,0.985-7.803-1.554l-11.611-6.074l23.75,41.095
		c10.986,21.737,17.461,40.819,19.424,57.228c0.812,6.25,0.812,9.95,0,11.104c-0.576,1.045-1.963,0.176-4.16-2.598
		c-4.16-5.205-11.963-12.197-23.418-20.986l2.959,11.787l3.115,13.008c0.812,4.746,0.752,7.461-0.166,8.154
		c-0.928,0.576-3.125-0.527-6.592-3.301l-12.314-9.884l-15.78-11.27c0.116,1.504,0.868,4.395,2.256,8.672l2.598,10.06
		c0.469,2.891-0.283,3.7-2.256,2.422l-6.24-5.724c-6.815-7.051-13.184-12.892-19.072-17.51c-1.737,12.373-6.299,25.028-13.7,37.979
		c-7.627,13.065-16.769,24.043-27.394,32.948c-25.907,21.504-50.409,24.443-73.534,8.838c-21.271-14.442-40.636-44.452-58.086-90
		c-8.447-21.846-19.718-58.954-33.818-111.327c-6.357-24.043-10.693-38.613-13.008-43.701c-6.476-13.984-9.131-29.883-7.979-47.687
		c1.162-18.613,6.299-34.448,15.439-47.515c9.94-14.219,23.231-24.8,39.883-31.733c16.758-7.051,34.854-9.478,54.277-7.28
		c40.692,4.619,79.647,19.824,116.874,45.605c32.021,22.08,57.168,47.51,75.439,76.299c3.584,5.669,5.781,10.405,6.582,14.225
		c1.045,4.619-0.859,5.43-5.723,2.422c-12.246-7.627-21.212-12.599-26.875-14.912c12.372,13.643,21.094,24.16,26.182,31.563
		C739.48,450.264,746.883,466.963,750.691,484.541"/>
	<path fill="#FFF3C2" d="M716.707,392.803c8.213,10.986,10.693,15.957,7.461,14.912l-12.49-6.41
		c-7.86-4.049-14.276-6.881-19.248-8.502c-6.592-2.197-10.575-2.598-11.963-1.211c-1.387,1.27,1.621,3.12,9.015,5.547
		c12.139,12.021,21.504,22.373,28.096,31.044c14.102,18.722,23.231,37.744,27.393,57.051l-24.276-10.409
		c-11.211-4.736-20.343-7.97-27.402-9.707l-6.582-0.519c-0.459,0.576,0.166,2.14,1.904,4.678l9.541,14.736
		c-8.097-3.115-14.453-5.771-19.072-7.969c-4.16-2.08-5.781-2.197-4.863-0.352c0.812,1.963,3.242,4.276,7.285,6.934
		c4.277,5.439,10.928,17.061,19.941,34.863c12.021,24.16,19.834,45.254,23.407,63.291l-11.094-9.541l-9.707-8.496
		c-2.313-6.24-4.276-9.531-5.897-9.883c-1.621-0.226-1.855,2.021-0.693,6.768l4.336,18.721l2.598,14.746
		c0,1.035-4.512-2.08-13.524-9.365c-10.519-8.203-17.51-12.772-20.986-13.7c-0.576-0.117-0.117,2.948,1.396,9.188
		c1.387,5.898,1.61,8.271,0.684,7.109l-8.496-9.189l-7.451-6.582c6.007-33.877,6.875-65.146,2.599-93.817
		c-4.277-28.097-12.832-50-25.664-65.724c-3.125-3.936-5.313-5.84-6.592-5.723c-1.271,0.107-0.166,2.773,3.301,7.969
		c9.365,13.877,16.182,32.892,20.459,57.062c4.395,24.396,5.322,49.014,2.772,73.866c-2.772,27.052-9.424,50.117-19.94,69.189
		c-11.787,21.504-27.568,35.84-47.344,43.008c-8.896,3.232-17.275,4.57-25.138,3.984c-7.284-0.459-13.301-2.48-18.036-6.064
		c-20.117-15.029-38.849-44.735-56.191-89.131c-9.707-24.971-20.977-61.445-33.809-109.424
		c-5.322-20.117-10.177-34.971-14.57-44.561c-5.43-11.686-7.744-25.21-6.934-40.582c0.811-16.187,5.146-30.869,13.008-44.048
		c19.527-33.178,53.063-46.186,100.572-39.018c49.365,7.515,95.205,30.176,137.51,67.979
		C696.014,368.125,707.576,380.552,716.707,392.803"/>
	<path fill="#DBD2A9" d="M642.137,439.453c13.644,38.73,16.31,80.059,7.979,123.984c-9.365,49.717-30.859,80.692-64.512,92.949
		c-8.896,3.231-17.275,4.569-25.138,3.983c-7.284-0.459-13.301-2.479-18.036-6.063c-16.3-12.257-31.681-34.043-46.123-65.371
		c46.934-8.672,84.442-28.271,112.538-58.789C635.438,501.24,646.531,471.016,642.137,439.453"/>
	<path fill="#0D131A" d="M163.182,735.459l-22.373-1.553l-3.984-1.388c-0.234-0.469,0.112-1.563,1.035-3.301
		c2.432-4.276,5.435-8.555,9.019-12.832c4.395-5.321,8.73-9.481,13.008-12.489L163.182,735.459"/>
	<path fill="#FFFFFF" d="M157.112,712.744l2.427,16.475l-15.435-1.211c0.811-1.738,2.427-4.043,4.858-6.934L157.112,712.744"/>
	<path fill="#0D131A" d="M160.403,697.48c2.544-10.625,1.909-22.939-1.904-36.924c-3.472-12.607-6.475-26.484-9.019-41.621
		c-3.008-17.002-3.989-27.92-2.949-32.783v-3.984c1.387-6.816,4.917-12.197,10.581-16.123c4.854-3.584,11.099-5.84,18.726-6.768
		c12.139-1.621,25.376,1.621,39.712,9.707c14.336,8.096,24.448,17.979,30.347,29.658c7.632,15.254,11.445,42.139,11.445,80.635
		l-0.869,28.096c-1.152,18.721-3.12,28.896-5.894,30.518c-6.938,3.937-20.347,5.957-40.229,6.074
		c-18.73,0.107-31.392-1.221-37.979-3.994c-17.227-6.815-23.408-15.84-18.555-27.051L160.403,697.48"/>
	<path fill="#DB4F03" d="M176.531,564.482c11.216-1.504,23.413,1.504,36.592,9.014c13.291,7.52,22.661,16.709,28.091,27.578
		c7.285,14.678,10.928,40.059,10.928,76.123c0,13.408-0.522,25.897-1.563,37.461c-0.923,10.752-1.968,16.992-3.12,18.721
		c-6.245,3.478-18.501,5.381-36.763,5.723l-34.858-2.598c-6.24-2.197-11.04-4.971-14.39-8.32c-4.048-4.159-5.205-8.672-3.472-13.524
		l5.376-9.365c2.891-5.897,4.336-12.197,4.336-18.905c0-7.744-1.387-16.826-4.16-27.228c-3.584-12.949-6.245-25.313-7.979-37.108
		c-1.851-12.716-2.314-22.773-1.387-30.166l0.347-6.25C157.171,573.154,164.51,566.104,176.531,564.482"/>
	<path fill="#B94100" d="M155.203,618.584c-1.504-11.328-1.851-20.234-1.04-26.699l0.347-6.25c2.661-12.48,10-19.531,22.021-21.152
		c11.216-1.504,23.413,1.504,36.592,9.015c13.291,7.521,22.661,16.709,28.091,27.578c7.285,14.678,10.928,40.059,10.928,76.123
		c0,13.408-0.522,26.239-1.563,38.496c-11.792-19.425-26.011-37.394-42.661-53.927C193.699,647.773,176.131,633.389,155.203,618.584
		"/>
	<path fill="#0D131A" d="M159.71,660.205l-3.467-18.037l-1.558-7.979l2.598,1.563l13.354,9.023l11.616,7.627
		c2.197,0.918,22.373-7.744,60.522-26.016l1.733-0.693l1.563,17.861c-30.752,32.021-48.037,49.307-51.851,51.846l-3.989,1.914
		l-3.643-1.914l-8.843-6.759c-5.552-4.628-10.464-9.53-14.741-14.735l-0.347-0.176v-0.527L159.71,660.205"/>
	<path fill="#0D131A" d="M182.083,657.949l59.478-26.709l1.738,11.445l-52.373,50.635c-2.544-1.494-6.011-4.103-10.405-7.793
		c-5.664-4.746-10.464-9.424-14.395-14.053l-6.763-31.211l22.197,17.168L182.083,657.949"/>
	<path fill="#0D131A" d="M194.222,712.578l4.16,5.723l4.165,10.576c1.152,4.385,1.328,7.568,0.518,9.531
		c-1.157,2.549-4.565,4.912-10.229,7.108c-5.781,2.08-11.04,3.009-15.781,2.773c-3.701-0.117-5.376-1.553-5.029-4.326
		c0.347-2.772,2.256-7.93,5.723-15.438c3.813-7.979,6.88-13.009,9.189-15.078C189.598,711.25,192.024,710.957,194.222,712.578"/>
	<path fill="#FFFFFF" d="M199.422,736.855c-0.576,1.493-4.565,3.35-11.963,5.547l-11.445,1.563
		c0.693-3.242,3.062-8.506,7.109-15.781c4.048-7.401,6.88-11.327,8.496-11.797c0.811,0,1.909,1.271,3.296,3.818l3.467,8.154
		l1.216,6.934L199.422,736.855"/>
	<path fill="#0D131A" d="M75.433,185.928c3.701-4.629,8.613-6.016,14.741-4.165c2.544,0.811,8.555,3.877,18.037,9.194l7.456,4.16
		l-39.019,91.387l-2.603-3.989c-13.525-16.997-21.792-28.496-24.795-34.507c-2.427-4.741,0.288-15.205,8.149-31.387
		C63.875,203.437,69.886,193.208,75.433,185.928"/>
	<path fill="#DB4F03" d="M105.608,195.464l3.467,1.904l-33.467,78.213c-3.813-3.701-8.037-8.789-12.661-15.264
		c-5.317-7.515-8.149-13.062-8.496-16.646c-0.576-5.781,2.314-15.322,8.672-28.613c5.435-11.445,10.347-19.941,14.741-25.488
		c2.427-3.125,6.069-3.931,10.923-2.432C91.561,188.066,97.166,190.84,105.608,195.464"/>
	<path fill="#0D131A" d="M100.75,196.504c3.125,1.851,5.264,3.638,6.421,5.376l0.693,0.864l-26.362,66.938l-2.08-1.909
		c-11.558-10.4-17.168-18.555-16.821-24.453c0.117-4.502,2.72-12.598,7.808-24.272c4.619-10.64,8.496-18.149,11.616-22.544
		c1.733-2.31,4.624-3.35,8.672-3.12C93.816,193.384,97.166,194.424,100.75,196.504"/>
	<path fill="#91301D" d="M67.459,242.979v-0.347c0.229-3.931,2.656-11.157,7.28-21.68c4.277-10.054,7.92-17.168,10.928-21.328
		c1.27-1.616,2.949-2.427,5.029-2.427c2.192,0.117,4.678,0.928,7.456,2.427l5.2,3.813l-23.408,59.307
		C71.619,254.077,67.459,247.485,67.459,242.979"/>
	<path fill="#DB4F03" d="M338.152,616.162c4.736-17.461,11.851-25.498,21.328-24.111c12.603,1.855,26.704,20.059,42.314,54.629
		c14.336,31.67,21.271,54.562,20.812,68.672c-0.353,6.466-3.701,11.494-10.06,15.078c-10.409,6.25-27.866,8.73-52.373,7.461
		c-21.27-1.034-35.317-3.301-42.139-6.758c-3.701-1.973-5.835-4.688-6.416-8.154c-1.04-6.016,3.525-14.11,13.701-24.276
		c2.544-2.549,4.624-9.189,6.24-19.941l2.949-30.692C335.896,630.957,337.112,620.322,338.152,616.162"/>
	<path fill="#DBD2A9" d="M397.112,648.76c13.873,30.869,20.582,53.008,20.113,66.416c-0.117,4.396-2.539,7.979-7.285,10.752
		c-9.59,5.664-26.124,7.92-49.59,6.758c-20.234-1.034-33.53-3.114-39.888-6.239c-2.197-1.152-3.467-2.539-3.813-4.16
		c-0.464-4.512,3.701-11.152,12.485-19.941c3.12-3.125,5.547-10.116,7.285-20.985l3.291-32.939
		c1.392-16.768,2.603-27.061,3.643-30.879c3.813-14.326,8.901-21.094,15.259-20.283C369.48,598.877,382.313,616.045,397.112,648.76"
		/>
	<path fill="#0D131A" d="M112.024,179.858c10.405-10.41,24.277-18.267,41.616-23.584c42.778-9.365,77.227-5.669,103.354,11.099
		c13.756,8.901,24.684,19.707,32.775,32.427c9.248,14.565,15.669,33.003,19.248,55.317c3.701,22.656,15.205,44.219,34.511,64.683
		c17.456,18.496,43.003,37.627,76.646,57.397c50.986,30.059,87.285,57.051,108.896,80.986c11.338,12.479,21.621,29.53,30.879,51.151
		c5.078,12.021,6.465,20.929,4.16,26.709c-1.162,3.008-2.832,5.313-5.029,6.935c0,5.664-1.328,10.352-3.994,14.043
		c-3.35,4.512-9.53,7.86-18.555,10.059l-33.984,5.381l-52.725,7.803c-23.809,4.277-47.627,10-71.44,17.168
		c-1.157,29.131-4.624,60.342-10.405,93.644c-6.475,36.641-12.891,57.285-19.248,61.903c-7.627,5.664-23.755,8.955-48.379,9.884
		c-26.128,1.045-44.858-2.08-56.187-9.365c-7.632-5.088-11.675-10.176-12.139-15.264c-0.347-4.16,2.139-8.722,7.456-13.691
		c3.237-2.891,4.683-10.928,4.336-24.102c-0.117-7.979-1.211-21.104-3.296-39.365l-3.989-20.812
		c-2.197-9.824-3.408-16.533-3.638-20.117c-1.387-21.846-9.424-57.401-24.106-106.649c-15.723-53.058-29.248-85.488-40.576-97.285
		c-22.773-23.579-41.968-47.798-57.573-72.656c-25.435-40.576-35.146-74.453-29.136-101.621
		C87.518,214.883,97.688,194.194,112.024,179.858"/>
	<path fill="#DB4F03" d="M154.686,161.475c41.27-9.248,74.448-5.781,99.536,10.405c24.39,15.493,40.693,42.603,48.901,81.328
		c10.635,50.059,47.979,93.237,112.022,129.541c49.717,28.325,84.219,53.53,103.524,75.601
		c17.461,20.01,28.906,45.498,34.336,76.476c1.504,8.672,0.812,15.028-2.08,19.082c-2.772,3.7-8.319,6.522-16.649,8.495
		l-32.422,4.854c-21.738,2.656-39.658,5.265-53.76,7.804c-24.16,4.395-48.497,10.342-73.009,17.86l-1.904,0.519v1.738
		c-0.811,28.319-4.57,60-11.274,95.028c-6.704,35.029-12.657,54.394-17.862,58.085c-6.821,5.088-21.558,8.096-44.219,9.023
		c-24.277,1.045-41.445-1.681-51.504-8.154c-7.28-4.736-10.981-8.555-11.099-11.445c-0.112-2.539,1.792-5.604,5.723-9.188
		c4.165-3.701,6.187-12.257,6.069-25.664c0-7.861-1.099-22.021-3.291-42.49c-1.621-13.867-2.603-24.276-2.949-31.211
		c-1.387-21.152-10.059-58.086-26.011-110.812c-17.461-57.567-32.432-92.832-44.912-105.771
		c-22.549-23.472-41.333-47.173-56.362-71.104c-24.971-39.536-34.565-72.314-28.784-98.325c5.894-26.47,16.646-47.109,32.256-61.904
		C129.827,170.957,141.736,164.365,154.686,161.475"/>
	<path fill="#B94100" d="M151.043,183.672c0-3.003-2.373-9.253-7.109-18.73c3.12-1.387,6.704-2.539,10.752-3.467
		c41.27-9.248,74.448-5.781,99.536,10.405c24.39,15.493,40.693,42.603,48.901,81.328c9.941,47.056,43.872,88.208,101.792,123.472
		c-21.274-8.096-38.789-14.165-52.544-18.213c-12.021-3.584-26.88-23.696-44.565-60.347l-23.413-49.77
		c-9.595-20.112-18.208-36.411-25.84-48.896c-9.131-16.069-25.083-24.277-47.856-24.624
		C199.134,174.6,179.251,177.544,151.043,183.672"/>
	<path fill="#B94100" d="M124.51,355c15.259-1.968,30.347-1.792,45.259,0.522c9.482,1.616,22.891,4.971,40.234,10.059
		c38.267,11.44,72.021,17.051,101.27,16.816l-17.168,13.179c-6.821,5.552-11.963,10.586-15.435,15.088l32.256,8.672l32.08,8.496
		c-12.368,5.781-24.448,12.197-36.24,19.248c-12.256,7.285-19.595,12.607-22.026,15.957c2.08,6.123,6.069,20.977,11.968,44.561
		c5.894,21.973,11.04,36.25,15.435,42.832c-0.581,2.314-0.522,11.68,0.171,28.096l0.693,32.783l-26.533-27.401l-16.47,38.838
		c-7.402,15.264-15.664,26.073-24.8,32.432c-1.157-9.717-1.963-18.379-2.427-26.016c-1.387-21.152-10.059-58.086-26.011-110.812
		c-17.461-57.567-32.432-92.832-44.912-105.771C153.816,393.613,138.035,374.424,124.51,355"/>
	<path fill="#B94100" d="M370.062,541.24l25.488-0.693c-3.467,1.504-7.051,4.629-10.752,9.365
		c-4.048,4.971-7.397,7.979-10.059,9.023l-7.456-12.14c-1.387-1.854-1.963-3.301-1.733-4.336
		C365.896,541.074,367.4,540.664,370.062,541.24"/>
	<path fill="#0D131A" d="M343.353,324.131l0.693-2.427l1.563,1.909c9.248,9.941,20.059,19.712,32.427,29.307l0.693,0.522
		l-0.347,1.04c-7.515,20.576-16.821,37.51-27.92,50.811c-5.664,6.592-10.752,11.328-15.259,14.219l-2.603,1.563l3.296-18.037
		l-27.573,17.344l8.325-24.629l-12.832,9.188c-2.427,1.738-3.872,2.433-4.336,2.08c-0.464-0.342,0.405-1.67,2.603-3.983
		c3.813-4.165,10.347-14.277,19.595-30.352C333.006,352.92,340.232,336.733,343.353,324.131"/>
	<path fill="#0D131A" d="M345.438,328.818c8.55,9.014,18.091,17.686,28.608,26.011c-10.405,27.861-22.603,47.456-36.587,58.784
		l3.291-18.208l-24.624,15.61l7.456-24.454l-11.27,9.014c6.128-9.365,11.909-19.189,17.344-29.478
		C337.166,351.88,342.43,339.448,345.438,328.818"/>
	<path fill="#0D131A" d="M244.334,686.045l-3.813-37.285l2.427,1.904c3.472,2.773,9.653,6.25,18.555,10.41
		c26.362-12.139,42.373-19.834,48.037-23.066c4.048-2.314,6.587-3.359,7.632-3.125c1.04,0.234,0.4,1.445-1.909,3.643l-5.723,5.548
		l-4.683,5.204l21.157-10.575c6.704-3.242,7.168-2.539,1.387,2.08c-2.891,2.313-7.686,7.227-14.395,14.735l7.456-1.729l7.456-2.08
		c4.165-1.279,4.512-0.518,1.045,2.256l-59.482,49.933c-2.08,1.278-3.467,1.913-4.16,1.913c-1.157,0-2.949-0.811-5.376-2.432
		c-5.088-3.231-10.234-8.955-15.435-17.168L244.334,686.045"/>
	<path fill="#0D131A" d="M243.816,654.482l16.475,11.444l2.08-0.518l41.27-20.47l-7.974,12.656l20.459-10.225l-13.35,14.395
		l16.128-4.17l-53.584,43.359l-7.979-6.064c-4.277-3.477-7.28-6.543-9.019-9.199l-2.598-25.84
		C244.568,658.008,243.934,656.211,243.816,654.482"/>
	<path fill="#0D131A" d="M401.619,372.339l1.387-1.558l16.123,10.059l33.478,20.465l0.858,0.521l-0.342,0.863
		c-4.16,17.69-11.27,35.143-21.328,52.369l-16.299,24.276l-3.994,3.817c-1.035,0.226-1.328-0.752-0.869-2.948l0.693-4.513
		l-0.176-3.643l-9.355,10.41l-8.672,8.838l-3.12,1.904c-0.581,0.117-0.234-0.977,1.04-3.291l3.984-10.752l3.125-10.4l-25.146,12.656
		l9.883-23.232l-11.792,6.418c-4.736,2.197-5.024,1.035-0.864-3.467C393.699,417.656,404.163,388.066,401.619,372.339"/>
	<path fill="#0D131A" d="M405.438,376.328l43.524,27.056c-3.008,12.251-7.694,24.858-14.053,37.798
		c-6.006,12.256-12.479,22.783-19.414,31.563l-1.221-9.531l-16.992,19.248l6.416-20.293l-23.237,11.445l8.672-21.505l-13.008,6.074
		c9.365-15.146,16.821-30.233,22.373-45.264c4.972-13.413,7.456-23.813,7.456-31.211L405.438,376.328"/>
	<path fill="#0D131A" d="M366.419,547.832c-1.621-3.35-2.256-5.547-1.909-6.592c0.464-1.377,2.603,0.059,6.416,4.336
		c3.467,4.053,5.146,7.578,5.029,10.576l-1.387,6.25h-2.603C371.966,560.322,370.115,555.459,366.419,547.832"/>
	<path fill="#DB4F03" d="M479.306,474.307c23.584-18.379,39.717-22.539,48.389-12.479c44.268,50.868,61.553,107.687,51.846,170.459
		c-3.467,22.772-10.233,44.453-20.293,65.029c-8.32,16.758-16.699,29.131-25.137,37.108c0.576,10.4-8.271,18.203-26.533,23.408
		c-11.797,3.35-28.555,5.723-50.293,7.109c-19.188,1.161-33.125,1.327-41.787,0.526c-9.834-1.045-14.746-3.477-14.746-7.285
		l-18.379-1.563c-7.632-1.855-11.675-5.488-12.139-10.928c-11.904-4.972-14.8-12.433-8.672-22.373
		c3.237-5.431,11.387-13.81,24.453-25.138c-8.208-6.25-15.146-13.936-20.811-23.065c-8.672-14.101-13.066-30.116-13.179-48.036
		c-0.117-29.355,9.077-54.795,27.573-76.299c12.485-14.562,28.379-26.416,47.686-35.547
		C436.189,511.074,453.523,497.432,479.306,474.307"/>
	<path fill="#B94100" d="M577.107,645.117c-4.385,20.811-11.67,40.518-21.847,59.131c-7.637,13.994-14.678,24.043-21.151,30.176
		c0.576,10.4-8.271,18.203-26.533,23.408c-11.797,3.35-28.555,5.723-50.293,7.109c14.219-3.115,23.936-7.109,29.131-11.964
		c6.943-6.239,8.848-15.487,5.732-27.743c41.846-20.929,66.405-58.037,73.69-111.338c3.242-23.81,2.197-48.086-3.114-72.822
		c-5.322-24.863-14.396-47.637-27.236-68.33C575.838,527.197,589.705,584.658,577.107,645.117"/>
	<path fill="#0D131A" d="M522.488,459.736c-4.971-4.971-6.709-7.91-5.205-8.838c1.504-1.035,5.605,1.787,12.314,8.496
		c28.202,28.203,45.604,65.313,52.196,111.328c3.584,24.735,3.877,47.401,0.869,67.979c-3.358,21.738-10.928,43.066-22.715,63.983
		c-7.871,14.111-15.615,25.029-23.242,32.773c-0.117,17.227-22.479,28.037-67.108,32.432c-16.992,1.738-32.656,1.847-46.992,0.353
		c-14.453-1.515-22.314-4.103-23.584-7.813l-18.73-1.553c-7.632-1.854-11.733-5.615-12.314-11.279
		c-10.405-2.772-14.277-9.188-11.616-19.237c1.27-4.513,4.624-9.658,10.059-15.439c3.35-3.701,8.555-8.555,15.605-14.57
		c-9.941-8.319-17.168-16.063-21.675-23.231c-8.096-12.832-12.661-29.132-13.701-48.896c-1.274-25.205,6.533-48.73,23.413-70.586
		c13.638-17.568,28.032-29.189,43.179-34.854l9.365-2.773c2.998-0.692,2.772,0.117-0.693,2.433
		c-19.658,12.832-33.296,23.457-40.928,31.904c-19.077,20.918-28.555,45.723-28.442,74.395c0.117,16.523,4.858,32.021,14.224,46.465
		c6.123,9.6,13.062,17.227,20.806,22.9c5.781,4.276,8.789,7.108,9.019,8.495l-3.989-0.176l-6.416-2.949
		c-13.872,12.021-21.904,21.104-24.102,27.228c-2.314,6.24,0.693,11.104,9.014,14.57l1.563,0.692
		c0.117,3.691,1.616,6.357,4.507,7.969c4.165,2.433,12.026,3.644,23.584,3.644h2.604l0.518,3.994
		c2.311,2.08,10.288,3.467,23.932,4.16c14.229,0.811,28.848,0.459,43.877-1.035c40.575-4.054,60.518-13.418,59.823-28.105v-1.211
		l0.869-0.859c6.826-6.475,13.818-16.19,20.986-29.141c10.635-19.189,17.567-39.648,20.801-61.377
		c5.322-34.336,4.111-66.65-3.633-96.943C561.972,511.65,545.955,483.213,522.488,459.736"/>
	<path fill="#0D131A" d="M448.963,622.402l-2.948-2.598c-0.929-1.621,1.27-2.031,6.592-1.222
		c11.553,1.737,28.778,8.896,51.68,21.504c29.355,16.183,48.662,33.291,57.91,51.328l0.176,0.518l-0.176,0.693
		c-4.396,10.059-9.365,19.199-14.912,27.402l-9.707,12.655l-0.869,1.046l-3.643,1.729c-22.892-26.592-45.957-47.334-69.189-62.256
		c-11.68-7.511-22.549-12.998-32.606-16.466c-2.998-1.045-4.562-1.913-4.679-2.606c-0.116-0.928,1.563-1.504,5.029-1.729
		l10.928,0.177h10.06l-40.586-21.162l-4.16-3.125c-0.107-1.035,2.08-1.554,6.592-1.554l24.805,3.468l22.188,3.983L448.963,622.402"
		/>
	<path fill="#0D131A" d="M426.072,633.848l44.736,5.547c-4.043-5.664-7.511-9.94-10.4-12.832
		c23.125,8.32,43.584,18.379,61.387,30.176c18.027,12.021,29.941,23.634,35.724,34.854c-6.134,13.877-13.994,26.24-23.584,37.109
		c-18.965-21.738-37.861-39.248-56.709-52.55c-12.716-8.896-24.619-15.37-35.724-19.414l22.892-0.868
		C444.861,644.424,432.088,637.08,426.072,633.848"/>
	<path fill="#0D131A" d="M468.729,590.322c-3.467-1.387-5.205-2.49-5.205-3.301c0-0.918,1.914-1.388,5.723-1.388l19.941-1.211
		l-20.283-12.489c-10.752-6.699-14.971-9.99-12.656-9.884l27.568,1.222l-13.701-6.25l-2.432-1.211c-1.035-0.812,0-1.211,3.125-1.211
		l21.504,1.729l-4.513-4.678l-2.598-1.563c-0.928-1.045,0.635-1.211,4.678-0.519c23.009,3.584,42.832,9.884,59.482,18.896
		c12.373,6.826,21.854,14.395,28.438,22.715l0.353,0.703c2.08,22.539,0.635,44.502-4.336,65.889l-0.519,2.433l-1.737-1.738
		c-19.884-20.575-39.072-36.356-57.568-47.344C504.744,605.693,489.656,598.76,468.729,590.322"/>
	<path fill="#0D131A" d="M572.771,592.051c0.692,7.744,0.811,17.578,0.352,29.482c-0.576,12.373-1.563,21.846-2.949,28.438
		c-16.182-20.225-34.395-35.664-54.618-46.299c-7.062-3.584-19.308-8.213-36.769-13.877l21.68-2.422l-31.563-20.811l21.504-0.353
		c4.043,0.353,4.277-0.519,0.693-2.599l-9.884-5.028l19.767,1.903l-5.381-6.239c20.117,4.17,37.344,10.116,51.68,17.86
		C558.847,578.35,567.342,585,572.771,592.051"/>
	<path fill="#0D131A" d="M399.539,760.43c-4.048-7.285-3.296-15.664,2.256-25.137c4.043-7.051,8.263-11.904,12.656-14.57
		c2.656-1.621,4.219-2.373,4.678-2.256c0.586,0.234-0.225,2.021-2.422,5.381c-4.043,6.357-6.992,11.611-8.848,15.781
		c-3.237,7.744-4.448,14.678-3.638,20.801c0.464,3.359-0.177,4.336-1.909,2.949L399.539,760.43"/>
	<path fill="#0D131A" d="M368.152,746.045c-1.04-6.943,1.152-13.818,6.587-20.635c3.813-4.746,8.325-8.555,13.525-11.445
		c3.472-1.854,5.435-2.432,5.898-1.738c0.576,0.812-0.635,2.48-3.643,5.029c-4.854,4.396-8.784,9.014-11.792,13.877
		c-4.624,7.394-6.069,13.926-4.336,19.59C377.166,759.854,375.086,758.301,368.152,746.045"/>
	<path fill="#0D131A" d="M228.729,732.861c4.395-4.972,8.149-8.556,11.27-10.752c2.661-2.08,4.629-2.656,5.898-1.729
		c0.923,0.576,1.621,2.539,2.08,5.889l1.04,12.49c-0.112,5.431-0.923,9.072-2.427,10.928c-1.387,1.847-4.795,3.291-10.229,4.326
		l-15.088,0.869c-3.12-0.342-4.683-1.328-4.683-2.949l2.773-6.934C220.75,742.109,223.875,738.066,228.729,732.861"/>
	<path fill="#FFFFFF" d="M238.963,728.184c2.31-2.772,3.813-3.467,4.507-2.09l0.347,7.285c0,6.25-0.811,10.353-2.427,12.314
		c-0.928,1.151-3.701,2.256-8.325,3.291l-9.365,0.702c-1.387-0.352,0.117-3.241,4.512-8.672L238.963,728.184"/>
	<path fill="#0D131A" d="M265.145,749.336c3.813-7.627,7.92-12.539,12.314-14.746c1.963-1.152,3.989-0.625,6.069,1.572
		c2.544,2.422,4.741,6.641,6.587,12.656c1.968,6.123,2.256,10.399,0.869,12.832c-1.616,2.772-4.512,5.43-8.672,7.979
		c-3.931,2.539-8.032,4.336-12.31,5.371l-10.752-0.518c-0.464-0.812-0.405-3.644,0.171-8.496
		C260.115,761.24,262.024,755.693,265.145,749.336"/>
	<path fill="#FFFFFF" d="M280.755,738.936c2.08,2.08,3.755,5.431,5.024,10.05c1.392,4.512,1.68,7.52,0.869,9.022
		c-0.693,1.504-3.179,3.584-7.456,6.24c-4.277,2.773-8.091,4.629-11.445,5.547l-3.296,0.176c0-2.772,1.504-7.979,4.507-15.604
		c3.472-9.131,6.938-14.562,10.405-16.299C279.598,737.949,280.057,738.232,280.755,738.936"/>
	<path fill="#0D131A" d="M370.755,84.307c4.277,1.733,6.528,3.066,6.763,3.989c0.342,0.923-1.738,2.021-6.245,3.296
		c-5.664,1.499-11.792,3.525-18.379,6.069c-8.325,3.12-14.512,5.952-18.555,8.496l14.565,5.723
		c6.475,2.661,10.229,4.448,11.27,5.376c1.04,1.04-2.544,2.197-10.752,3.467l-19.072,2.949c10.054,5.2,18.438,10.518,25.142,15.952
		c12.021,9.482,21.333,20.464,27.92,32.949c3.237,6.128,4.565,9.424,3.989,9.883l-7.109-1.909l-21.68-4.16l-28.784-2.944
		c4.854,2.656,9.365,5.659,13.525,9.014c4.165,3.354,6.65,6.011,7.456,7.979c1.157,2.661-21.792,5.952-68.843,9.883l-0.864-1.04
		c-6.362-6.934-15.029-13.638-26.016-20.117c-21.733-12.944-44.448-18.726-68.149-17.339c-2.544,0.112-6.128,2.021-10.752,5.723
		l-11.792,10.405l-10.576,10.405c-3.008,2.544-5.317,3.179-6.938,1.904c-3.237-2.544-7.28-8.843-12.139-18.901
		c-5.547-11.099-8.091-19.653-7.627-25.664c0.347-5.2,4.507-13.755,12.485-25.664c8.784-12.949,19.478-25.664,32.08-38.149
		C205.32,48.354,238.787,29.395,272.083,25l7.28,0.347c0.693,0.811-0.347,2.72-3.12,5.723l-10.576,13.354
		c9.248-3.931,17.515-6.709,24.795-8.325l37.285-1.558l9.883,1.729c1.621,1.157-1.675,2.896-9.883,5.205
		c-6.475,1.733-14.336,5.088-23.584,10.059c-9.131,4.854-12.373,7.109-9.712,6.763l13.872-0.522c1.621,0.693,0.234,2.832-4.16,6.416
		l-14.565,11.621c9.248-1.621,22.251-1.68,39.014-0.176C346.648,77.373,360.691,80.259,370.755,84.307"/>
	<path fill="#FFF3C2" d="M369.192,173.613c-10.752-2.544-25.029-3.989-42.832-4.336c-3.12-0.117-4.624,0.347-4.512,1.387
		c0,0.693,1.04,1.909,3.125,3.643l13.179,12.661l-54.277,7.803c-9.248-10.059-21.738-19.019-37.456-26.88
		c-19.771-9.829-37.808-13.643-54.106-11.445c1.157-2.891,1.328-4.453,0.522-4.683c-0.811-0.229-3.237,0.869-7.285,3.296
		l-11.616,6.763c-4.165,2.773-8.096,5.894-11.792,9.365l-6.938,7.456l-5.547,4.854c-2.778-2.539-6.016-7.456-9.712-14.736
		c-4.165-8.442-6.357-15.552-6.592-21.328c-0.229-6.709,3.813-16.016,12.139-27.92c8.208-11.797,18.901-23.818,32.08-36.069
		c32.026-29.365,62.373-46.592,91.045-51.68c-5.669,6.128-9.541,10.811-11.621,14.048c-2.544,3.696-2.891,5.84-1.04,6.416
		l8.843-1.909c11.328-4.854,20.928-8.091,28.784-9.712l31.045-2.773c-9.829,3.237-17.461,6.245-22.891,9.019
		c-7.632,3.931-14.8,9.019-21.504,15.259l8.149,0.693l8.496,0.522l-18.379,17.339l-0.347,1.563l5.547,0.176
		c25.552-5.669,52.026-3.584,79.424,6.24c-17.573,5.43-29.712,10.459-36.416,15.088c-2.197,1.499,0.347,3.872,7.632,7.109
		c6.821,3.003,9.707,4.624,8.667,4.854l-27.744,5.029c-2.314,0.576-2.368,1.328-0.176,2.256l6.245,2.256
		c10.981,4.854,20.693,10.747,29.131,17.686c7.749,6.357,15.317,14.336,22.72,23.931c3.584,4.624,5.088,7.227,4.507,7.803
		L369.192,173.613"/>
	<path fill="#DB4F03" d="M163.006,240.723c4.854-4.741,11.851-8.96,20.981-12.656c12.603-5.317,23.53-6.304,32.778-2.949
		l0.693,0.171l0.347,0.693c2.773,4.512,4.854,11.968,6.24,22.368c1.392,10.64,1.04,17.29-1.04,19.946l-0.518,0.693l-0.869,0.171
		c-31.328,2.314-48.208,2.085-50.635-0.693c-4.277-4.854-6.992-10.635-8.149-17.339c-0.693-4.165-0.811-7.227-0.347-9.194v-0.688
		L163.006,240.723"/>
	<path fill="#DB4F03" d="M185.721,231.533c11.216-4.624,20.928-5.61,29.136-2.949c1.733,3.12,3.179,7.979,4.336,14.565
		c1.157,6.011,1.733,11.45,1.733,16.299c0,2.896-0.229,4.858-0.693,5.898c-28.325,2.08-43.76,2.197-46.299,0.347
		c-5.088-5.547-7.632-12.544-7.632-20.981v-1.563C171.043,238.76,177.518,234.888,185.721,231.533"/>
	<path fill="#0D131A" d="M170.984,268.467c-4.277-4.736-6.938-10.112-7.979-16.123l-0.347-8.154
		c-3.12,2.661-4.971,3.354-5.547,2.085c-0.581-1.157,0.752-3.184,3.984-6.069c7.173-6.128,16.709-10.811,28.618-14.053
		c12.134-3.115,22.539-3.638,31.211-1.558c5.547,1.387,8.096,2.832,7.632,4.336c-0.464,1.387-2.544,1.733-6.245,1.04
		c2.08,7.749,3.408,14.917,3.989,21.504c0.811,9.482-0.288,15.088-3.296,16.821l-0.518,0.693l-0.869,0.171
		C190.291,271.475,173.411,271.245,170.984,268.467"/>
	<path fill="#FFFFFF" d="M166.302,243.149c4.624-4.277,12.314-7.974,23.062-11.099c10.635-3.232,19.136-4.39,25.493-3.467
		c4.971,10.752,6.997,21.045,6.069,30.864l-0.693,5.897c-28.325,2.08-43.76,2.197-46.299,0.347
		c-5.088-5.547-7.632-12.544-7.632-20.981V243.149"/>
	<path fill="#0D131A" d="M185.379,227.544l1.387-0.522l0.864,1.045c4.858,5.43,7.573,12.251,8.154,20.459
		c0.576,7.285-0.581,14.277-3.472,20.986l-0.518,1.211h-1.216c-12.485,0.234-19.482-0.635-20.981-2.598
		c-3.008-3.242-5.146-7.285-6.416-12.139c-1.04-4.512-1.274-9.194-0.693-14.053v-0.688l0.518-0.522
		c2.197-2.08,5.205-4.277,9.019-6.587C176.419,231.475,180.867,229.277,185.379,227.544"/>
	<path fill="#0D131A" d="M185.55,231.704c4.277,5.435,6.416,12.085,6.416,19.941c0,4.858-0.981,9.946-2.944,15.264l-15.088-1.216
		c-5.088-5.547-7.632-12.544-7.632-20.981v-1.563C170.696,238.989,177.112,235.176,185.55,231.704"/>
	<path fill="#0D131A" d="M178.44,230.664l0.693-0.518l0.869,0.347c2.891,0.923,5.083,4.272,6.587,10.054
		c1.274,5.088,1.563,10,0.869,14.741c-0.811,6.587-3.354,10.059-7.632,10.405c-5.547,0.347-9.771-1.387-12.661-5.205
		c-2.08-2.886-3.638-7.397-4.678-13.525v-5.547l0.518-0.693C166.707,237.373,171.854,234.019,178.44,230.664"/>
	<path fill="#0D131A" d="M179.31,234.653c1.152,0.923,2.192,2.949,3.12,6.069c0.923,3.237,1.387,6.592,1.387,10.059l-0.176,3.989
		c-0.693,4.507-2.021,6.821-3.989,6.934c-3.926,0.234-6.875-0.747-8.843-2.944c-1.963-2.314-3.467-6.357-4.507-12.139v-3.472
		C169.422,240.259,173.758,237.432,179.31,234.653"/>
	<path fill="#FFFFFF" d="M178.094,247.485c0,1.963-0.464,3.701-1.387,5.205c-0.928,1.387-2.026,2.08-3.296,2.08
		s-2.314-0.693-3.12-2.08c-0.928-1.504-1.387-3.242-1.387-5.205c0-2.08,0.459-3.813,1.387-5.2c0.806-1.504,1.851-2.256,3.12-2.256
		s2.368,0.752,3.296,2.256C177.63,243.672,178.094,245.405,178.094,247.485"/>
	<path fill="#0D131A" d="M88.616,241.934c18.608-4.043,39.995,1.157,64.16,15.61c12.949,7.744,25.317,11.27,37.109,10.581
		l34.336-5.728c10.288-1.27,20.171,0.811,29.653,6.245c9.249,5.318,16.476,12.774,21.676,22.369
		c12.368,22.778,9.536,45.376-8.496,67.803c5.435-0.576,13.296-0.747,23.584-0.518l21.675,1.216
		c3.813,0.459,5.664,1.099,5.552,1.904c-0.234,0.693-2.256,1.738-6.069,3.125c-4.63,1.499-10.406,3.813-17.345,6.934
		c-8.325,3.584-14.219,6.533-17.686,8.843l15.781-0.347c6.357-0.117,8.955,0.293,7.803,1.211l-10.927,10.581l-11.27,11.621
		l31.904,3.813c14.106,2.08,26.187,4.971,36.245,8.672c3.12,1.035,4.448,1.904,3.989,2.598l-4.854,1.914
		c-2.661,0.693-10.059,3.867-22.197,9.531c-12.603,5.898-21.621,10.4-27.056,13.525l33.472,2.948
		c3.926,1.046,5.083,2.257,3.467,3.644l-3.643,1.904c-7.861,2.899-17.227,7.871-28.091,14.922
		c24.736,18.604,44.448,38.026,59.131,58.262c2.891,4.043,4.106,6.475,3.643,7.285c-0.464,0.693-2.661,0.693-6.592,0l-24.795-3.644
		l-23.413-2.256l18.384,24.629c9.829,13.058,14.507,20,14.048,20.802c-0.464,0.811-5.669-0.742-15.61-4.679l-19.072-7.461
		l2.427,19.248c1.157,9.951,1.387,14.972,0.693,15.088c-0.923,0.117-6.011-5.487-15.259-16.815l-5.376,26.533
		c-2.778,13.643-4.57,20.692-5.376,21.151c-0.811,0.469-3.813-1.563-9.019-6.063l-11.616-10.234l0.347,24.795
		c0,7.861,0.4,17.803,1.211,29.834c0.234,4.854-0.518,7.334-2.251,7.451c-1.04,0-4.57-1.68-10.581-5.029
		c-13.872-7.744-26.299-16.758-37.28-27.051l-22.197-22.373l3.467,21.328c1.616,9.717,1.733,14.17,0.347,13.35
		c-1.27-0.684-4.219-4.268-8.843-10.742L176.878,625l0.693,11.445c0.117,4.395-1.44,4.971-4.683,1.738
		c-5.313-5.547-10.864-13.408-16.646-23.584c-5.317-9.601-9.536-18.849-12.656-27.754l-11.968,14.911l-12.139,16.31
		c-1.851,2.891-3.062,3.701-3.643,2.422c-0.459-0.918-0.576-3.584-0.347-7.969c0.464-6.367,5.552-26.886,15.259-61.563
		l-13.525,9.015l-3.989,1.903c-0.347-0.226-0.112-1.729,0.698-4.502l3.12-10.41l-15.088,17.168l-3.989,3.302
		c-0.576-0.353-0.693-2.08-0.347-5.205l4.507-30.869c-15.142,6.475-24.448,10.692-27.915,12.666l-4.683,1.553
		c-0.347-0.459-0.059-2.08,0.869-4.854c1.846-5.664,4.971-12.892,9.36-21.681c6.704-13.408,13.818-24.679,21.333-33.81L89.131,488.7
		l-4.507,0.692c-0.693-0.459-0.464-1.797,0.693-3.983l4.854-10.06l-28.438,4.678l-3.989,0.177c-0.464-0.47-0.117-1.621,1.04-3.468
		c2.197-3.7,6.934-10,14.219-18.905c7.632-9.131,13.237-15.322,16.821-18.556l-11.616-6.063l-4.512-2.433
		c-0.459-0.575,0.234-1.327,2.08-2.256l7.461-4.336l-11.099-3.983c-2.427-0.812-3.877-1.563-4.336-2.257
		c-0.347-0.692,0.112-1.563,1.387-2.598l14.048-10.059c-3.936-3.354-8.501-8.501-13.701-15.439
		c-0.928-1.499-1.216-2.485-0.869-2.944l3.818-0.176l18.379,1.216c8.672-0.347,14.336-2.139,16.997-5.376
		c1.499-1.851,2.251-4.219,2.251-7.109l-1.558-8.672c-4.512-4.741-10.176-12.368-16.997-22.891
		c-6.934-10.518-11.558-16.992-13.872-19.424c-5.317,0.581-10.981-2.544-16.992-9.36c-7.168-8.208-10.752-18.555-10.752-31.045
		c0-11.904,3.237-21.27,9.707-28.086C65.779,249.507,75.433,244.829,88.616,241.934"/>
	<path fill="#FFF3C2" d="M180.521,272.456l26.533-2.603c12.832-3.12,23.696-3.638,32.603-1.558
		c16.875,3.931,28.784,16.128,35.723,36.587c3.926,11.563,2.368,23.989-4.683,37.285c-6.821,12.715-17.573,24.39-32.256,35.029
		c-4.048,3.008-5.317,4.854-3.813,5.552c1.499,0.688,3.872,0.054,7.109-1.909c4.39-2.544,11.152-7.979,20.288-16.299l19.248-1.563
		c9.712-0.581,17.28-0.752,22.715-0.522c-6.704,2.427-14.912,6.187-24.624,11.27l-14.39,7.456l-2.603,1.914
		c-1.157,1.152-0.347,1.729,2.427,1.729l15.957-0.688c7.163-0.229,10.229,0.171,9.189,1.211l-23.237,20.463
		c-0.576,1.271,1.27,1.963,5.547,2.08l31.04,3.818l33.472,6.064c-15.957,5.664-32.485,14.11-49.595,25.322
		c-2.661,1.729-3.931,3.125-3.818,4.159c0.117,1.045,1.333,1.445,3.643,1.211l12.832,0.177l19.941,1.903
		c-10.054,4.629-18.149,9.308-24.277,14.054c-1.504,1.034-1.963,2.196-1.387,3.467l5.898,5.371
		c10.747,7.627,20.806,16.074,30.171,25.321l25.146,28.097l-51.157-5.898c-3.584-3.467-6.069-5.381-7.456-5.723
		c-1.387-0.469-0.752,1.094,1.909,4.678c11.44,15.146,21.733,29.307,30.864,42.49l-28.266-9.893l3.296,28.623l-7.803-10.41
		l-4.854-6.934l-10.405,54.453l-10.059-10.234l-8.149-9.023c-1.274-5.771-2.432-9.354-3.472-10.741
		c-1.152-1.505-1.558,0.977-1.216,7.45c1.157,26.709,1.621,49.189,1.392,67.461c-11.216-5.204-22.72-12.489-34.507-21.854
		c-12.603-10.059-23.989-21.327-34.165-33.809c-4.971-6.134-8.032-9.023-9.189-8.673c-1.157,0.234,0,3.009,3.467,8.32l3.813,25.664
		l-10.229-14.912c-4.048-6.356-6.533-10.752-7.456-13.184c-0.811-2.188-1.216-0.918-1.216,3.818l0.176,7.637l1.216,11.27
		c-14.453-23.125-22.891-38.555-25.322-46.299c-1.152-3.936-2.31-5.84-3.467-5.732c-1.157,0-1.387,1.681-0.693,5.029l-7.632,9.717
		l-14.39,18.379c2.773-12.373,6.123-25.43,10.054-39.188c3.472-12.599,5.898-20.342,7.285-23.242
		c3.354-6.581,3.12-8.319-0.693-5.194l-16.646,11.61l4.683-14.561c1.616-4.972,1.963-7.462,1.04-7.462
		c-0.581,0.117-2.373,1.798-5.376,5.029l-7.979,9.717l-10.229,11.095l2.773-15.088l3.296-18.203
		c0.923-5.897,0.518-7.402-1.216-4.513l-2.949,6.24l-28.267,13.359c8.672-20.352,19.771-38.848,33.296-55.498
		c4.277-5.313,5.088-7.51,2.427-6.582l-5.371,2.773l-15.264,4.512l5.723-12.139c2.197-4.287,2.427-5.84,0.693-4.688l-3.296,2.949
		l-30.171,5.897c3.701-6.475,9.077-13.301,16.128-20.469c5.781-6.006,11.099-10.752,15.952-14.219
		c5.894-3.926,8.208-6.182,6.938-6.758c-1.157-0.586-4.106,0.399-8.848,2.949l-5.547-3.302l-5.547-3.467l8.32-6.416
		c0.928-0.576-0.923-1.68-5.547-3.291l-10.405-3.301l14.048-9.365h2.773c1.27-0.459,0.459-1.553-2.427-3.291
		c-2.891-1.621-5.664-3.877-8.325-6.763l-5.376-6.245l22.021,0.522c5.898-0.811,10.117-2.773,12.661-5.898
		c2.773-3.12,4.219-6.821,4.336-11.099c0.229-3.931-0.581-7.686-2.432-11.27c-4.507-4.629-10.459-12.544-17.856-23.76
		l-13.877-19.419l-0.693-0.869h-1.04c-7.28-0.806-13.179-4.8-17.686-11.963c-4.624-7.168-6.938-15.84-6.938-26.011
		c0-10.405,2.891-18.208,8.672-23.413c5.088-4.624,13.872-8.325,26.357-11.099c16.88-3.931,36.997,1.04,60.347,14.917
		C160.579,268.296,170.696,271.763,180.521,272.456"/>
	<path fill="#DBD2A9" d="M98.67,317.373c5.552,5.547,11.099,10.288,16.65,14.219l-5.898,10.405l-6.069,10.229l-12.31-18.384
		c-4.512-6.821-7.803-11.27-9.888-13.35l8.154-1.733L98.67,317.373"/>
	<path fill="#DBD2A9" d="M192.835,404.077c0.806,0.923,0.806,2.661,0,5.2c-1.733,5.438-6.011,10.117-12.832,14.053
		c-5.898,3.467-10.693,5.078-14.395,4.854c-4.277-0.352-9.189-2.891-14.741-7.637c-5.664-4.854-9.478-9.941-11.445-15.254
		c-2.08-5.435-2.368-8.96-0.864-10.581c1.387-1.387,4.16-1.099,8.32,0.864c3.701,1.733,10.347,3.242,19.946,4.512l20.283,2.256
		C190.115,402.573,192.024,403.154,192.835,404.077"/>
	<path fill="#0D131A" d="M126.766,387.773l2.427-2.949l1.387,1.045c9.131,6.123,19.419,10.112,30.869,11.963
		c4.624,0.811,6.875,1.733,6.763,2.773l-6.938,1.221c-6.011-0.122-12.603-1.797-19.771-5.034c-5.664-2.544-10.171-5.2-13.525-7.974
		L126.766,387.773"/>
	<path fill="#0D131A" d="M90.696,315.981c4.854-2.656,10.112-4.331,15.781-5.029c6.821-0.688,12.944,0.293,18.379,2.949
		l42.139,19.419l2.256,1.045l-0.869,2.251l-7.109,10.234c-6.821,6.475-15.317,9.077-25.493,7.803
		c-10.635-1.27-20.806-6.533-30.518-15.781c-5.781-5.43-10.981-11.851-15.605-19.248l-1.387-2.427L90.696,315.981"/>
	<path fill="#922F00" d="M122.43,318.584c8.667,4.395,21.963,10.522,39.883,18.379c-1.851,3.584-4.448,6.479-7.803,8.672
		c-5.088,3.354-11.099,4.624-18.037,3.818c-8.896-1.04-17.51-5.264-25.835-12.661c-5.552-4.971-10.522-10.806-14.912-17.515
		c4.277-1.846,8.667-2.891,13.179-3.12C113.992,315.811,118.499,316.621,122.43,318.584"/>
	<path fill="#0D131A" d="M135.608,328.818c5.547-2.896,13.062-4.453,22.544-4.688c13.755-0.459,28.032,2.49,42.832,8.848l2.427,1.04
		l0.347,2.773c-9.365,12.603-21.27,20.347-35.723,23.237c-15.605,20.576-27.744,33.008-36.416,37.28
		c-9.829,4.858-18.901,6.538-27.227,5.034c-8.208-1.504-14.043-5.723-17.515-12.661c-4.624-9.365-5.376-20-2.251-31.909
		c3.12-12.256,9.131-21.04,18.032-26.357c6.245-3.813,12.544-5.952,18.901-6.416S132.601,325.811,135.608,328.818"/>
	<path fill="#ED8599" d="M94.163,345.117c3.003-4.512,6.475-7.979,10.405-10.405c6.123-3.696,12.139-5.664,18.032-5.894
		c5.435-0.347,9.136,0.806,11.099,3.467l2.603,0.518l16.128-4.331c13.872-1.509,28.726,0.923,44.565,7.28
		c-5.894,7.397-11.909,12.949-18.037,16.646c-3.12,1.851-5.664,3.008-7.627,3.472c0.923-0.347,1.851-1.797,2.773-4.336
		c0.693-2.08,0.635-3.296-0.171-3.643c-0.811-0.464-2.026,0.405-3.643,2.598l-15.957,20.122
		c-9.941,11.558-18.032,18.896-24.277,22.021c-7.168,3.701-13.984,5.547-20.459,5.547c-8.442,0.117-14.741-3.062-18.901-9.536
		c-2.197-3.35-3.53-7.744-3.989-13.179c-0.347-4.854,0.059-10,1.211-15.435C89.192,354.595,91.272,349.624,94.163,345.117"/>
	<path fill="#CE7486" d="M136.302,332.803l16.128-4.331c13.872-1.509,28.726,0.923,44.565,7.28
		c-5.894,7.397-11.909,12.949-18.037,16.646c-3.12,1.851-5.664,3.008-7.627,3.472l2.251-5.029c0.811-1.968,0.869-3.066,0.176-3.296
		c-0.693-0.23-1.851,0.752-3.467,2.944l-6.938,9.194c1.733-5.2-0.923-9.824-7.974-13.872c-7.402-4.277-17.056-6.475-28.96-6.592
		l-3.296-4.854c-2.314-2.773-4.912-4.219-7.803-4.336l11.445-1.04c3.35,0.459,5.664,1.558,6.934,3.296L136.302,332.803"/>
	<path fill="#0D131A" d="M119.827,343.555c1.387-3.35,3.931-6.416,7.632-9.189c4.043-3.237,8.613-5.317,13.696-6.245l3.818,1.387
		c-8.901,1.621-16.245,7.168-22.026,16.65c-1.851,3.003-3.12,4.102-3.813,3.296C118.323,348.643,118.558,346.675,119.827,343.555"/>
	<path fill="#FFF3C2" d="M71.102,298.989c5.664-2.31,23.638-4.624,53.931-6.938c35.488-2.656,62.656-2.251,81.499,1.216
		c18.037,3.354,30,7.339,35.898,11.968c2.891,2.192,3.989,4.102,3.296,5.718c-7.632,8.784-16.128,15.264-25.493,19.424
		c-6.821,3.125-17.344,6.069-31.563,8.843c-7.397,1.504-16.992,0.353-28.784-3.467c-6.475-2.197-16.069-6.245-28.789-12.139
		c-11.099-5.205-17.861-7.861-20.288-7.979l-15.952,1.04c-6.357,0.928-11.274,2.026-14.741,3.296l-6.934-9.365
		C69.021,304.136,68.323,300.264,71.102,298.989"/>
	<path fill="#0D131A" d="M118.787,239.336c2.891,2.31,3.989,5.317,3.296,9.014c-0.811,4.741-4.336,10.122-10.581,16.133
		c-5.781,5.547-10.693,8.901-14.736,10.059c-4.629,1.499-9.941-0.522-15.957-6.074c-4.624-4.277-8.438-9.131-11.445-14.565
		c-1.846-3.584-2.08-7.168-0.693-10.752c2.432-5.088,7.402-8.555,14.912-10.405c5.205-1.27,11.333-1.27,18.384,0
		C109.021,234.136,114.627,236.333,118.787,239.336"/>
	<path fill="#0D131A" d="M100.926,237.949c6.357,1.157,11.27,3.066,14.741,5.723c1.27,0.693,1.675,1.963,1.211,3.813
		c-0.693,3.701-3.755,8.149-9.189,13.354c-5.088,4.854-9.248,7.744-12.485,8.672c-2.656,0.806-6.357-0.928-11.099-5.205
		c-4.277-3.931-7.627-8.208-10.059-12.832c-1.157-2.197-1.328-4.277-0.518-6.24c1.499-3.472,5.259-5.957,11.27-7.461
		C89.192,236.621,94.568,236.675,100.926,237.949"/>
	<path fill="#8A969D" d="M92.947,241.934c0,1.504-0.923,3.066-2.773,4.688c-1.963,1.729-3.931,2.598-5.898,2.598
		c-1.963,0-3.755-0.635-5.371-1.904c-1.504-1.274-2.256-2.661-2.256-4.165c0-1.846,2.715-3.003,8.149-3.467
		C90.232,239.336,92.947,240.088,92.947,241.934"/>
	<path fill="#0D131A" d="M481.912,424.023l0.166-2.267l1.914,1.396c14.219,10.636,26.006,21.152,35.371,31.554l0.518,0.526
		l-0.166,0.693c-2.432,8.203-6.19,16.123-11.278,23.76c-6.24,9.355-12.892,15.371-19.933,18.027
		c-2.666,2.314-3.241,1.738-1.737-1.729l3.467-10.928l-14.57,10.059c-5.547,3.008-10.283,4.912-14.219,5.723
		c-3.351,1.846-3.75,1.152-1.211-2.08c2.197-2.891,5.322-8.906,9.365-18.037l-9.365,3.467c-3.467,1.162-3.937,0.469-1.387-2.08
		c2.538-2.305,6.532-9.707,11.963-22.196C476.941,445.693,480.633,433.73,481.912,424.023"/>
	<path fill="#0D131A" d="M476.883,471.875c-4.395,3.359-8.271,5.674-11.62,6.943c10.518-14.57,17.051-31.271,19.6-50.117
		c9.354,7.051,19.297,16.24,29.824,27.568c-5.088,16.416-12.773,28.389-23.066,35.897c1.271-3.008,2.021-6.416,2.256-10.233
		l0.176-4.854c-9.141,8.555-18.495,14.795-28.096,18.729l7.285-14.912L476.883,471.875"/>
	<path fill="#0D131A" d="M93.47,315.635c7.744-2.656,13.408-3.931,16.992-3.813c1.733,0.117,11.445,4.512,29.136,13.179
		c16.992,8.32,33.12,12.197,48.379,11.616c12.72-0.576,23.184-3.003,31.387-7.28c7.979-4.277,15.435-11.099,22.373-20.459
		c3.467-4.629,4.971-5.728,4.507-3.301c-0.347,2.085-1.616,5.205-3.813,9.37c-3.584,6.704-9.248,12.368-16.992,16.987
		c-8.672,5.088-18.965,8.271-30.869,9.541c-17.344,1.733-35.552-2.08-54.624-11.445l-18.384-9.883
		c-5.776-3.008-9.883-4.453-12.31-4.336c-2.773,0.112-7.344,1.445-13.701,3.989c-6.357,2.544-11.157,3.872-14.395,3.989
		c-4.736,0.229-8.032-0.469-9.883-2.085c-1.851-1.616-0.171-2.31,5.029-2.08C79.769,319.736,85.491,318.408,93.47,315.635"/>
	<path fill="#DBD2A9" d="M282.659,511.934c0.347-3.926,6.938-6.006,19.771-6.24l37.28,2.949l15.61,18.213l-51.157-5.897
		c-3.584-3.467-6.069-5.381-7.456-5.724c-1.387-0.469-0.752,1.095,1.909,4.679c11.44,15.146,21.733,29.308,30.864,42.489
		l-28.266-9.893l3.296,28.623l-7.803-10.41l-4.854-6.934l-10.405,54.453l-10.059-10.234l-8.149-9.023
		c-1.274-5.771-2.432-9.354-3.472-10.741c-1.152-1.505-1.558,0.977-1.216,7.45c1.157,26.709,1.621,49.189,1.392,67.461
		c-11.216-5.204-22.72-12.489-34.507-21.854c-12.603-10.059-23.989-21.327-34.165-33.809c-4.971-6.134-8.032-9.023-9.189-8.673
		c-1.157,0.234,0,3.009,3.467,8.32l3.813,25.664l-10.229-14.912c-4.048-6.356-6.533-10.752-7.456-13.184
		c-0.811-2.188-1.216-0.918-1.216,3.818l0.176,7.637l1.216,11.27c-14.453-23.125-22.891-38.555-25.322-46.299
		c-1.152-3.936-2.31-5.84-3.467-5.732c-1.157,0-1.387,1.681-0.693,5.029l-7.285,9.199l-13.525,17.51
		c3.472-8.203,8.384-17.979,14.741-29.307c6.128-11.211,10.171-17.686,12.139-19.414c1.851-1.621,3.354-0.811,4.507,2.422
		l3.296,10.752c0.928,2.314,2.08-2.197,3.467-13.525c1.274-10.752,2.373-14.219,3.296-10.409
		c2.544,11.444,11.099,25.204,25.664,41.278c14.453,15.947,22.373,20.752,23.76,14.385l3.638-28.438
		c1.968-16.65,3.589-28.086,4.858-34.336c0.811-3.926,1.792-6.064,2.949-6.416c1.616-0.459,4.102,1.445,7.456,5.732l17.339,21.152
		c7.056,7.969,11.733,11.61,14.048,10.918c3.467-0.918,7.515-9.072,12.139-24.443C279.134,533.379,281.736,521.533,282.659,511.934"
		/>
	<path fill="#DBD2A9" d="M679.08,476.045c-4.16-2.08-5.781-2.197-4.863-0.352c0.812,1.963,3.242,4.276,7.285,6.934
		c4.277,5.439,10.928,17.061,19.941,34.863c12.021,24.16,19.834,45.254,23.407,63.291l-11.094-9.541l-9.707-8.496
		c-2.313-6.24-4.276-9.531-5.897-9.883c-1.621-0.226-1.855,2.021-0.693,6.768l4.336,18.721l2.598,14.746
		c0,1.035-4.512-2.08-13.524-9.365c-10.519-8.203-17.51-12.772-20.986-13.7c-0.576-0.117-0.117,2.948,1.396,9.188
		c1.387,5.898,1.61,8.271,0.684,7.109l-8.496-9.189l-7.451-6.582c5.205-29.365,6.476-57.061,3.81-83.065
		c-2.539-25.089-8.496-46.074-17.853-62.949c23.115,7.979,45.254,23.058,66.416,45.254c-6.133-2.188-11.162-3.76-15.098-4.678
		l-6.582-0.519c-0.459,0.576,0.166,2.14,1.904,4.678l9.541,14.736C690.057,480.898,683.699,478.242,679.08,476.045"/>
	<path fill="#DBD2A9" d="M373.182,166.851c3.584,4.624,5.088,7.227,4.507,7.803l-8.496-1.04
		c-10.752-2.544-25.029-3.989-42.832-4.336c-3.12-0.117-4.624,0.347-4.512,1.387c0,0.693,1.04,1.909,3.125,3.643l13.179,12.661
		l-54.277,7.803c-4.971-5.435-11.621-10.928-19.941-16.475c-9.712-6.592-19.658-11.851-29.829-15.781l47.344-8.667l47.856-6.938
		c-7.397-7.402-15.43-12.773-24.102-16.128c-6.704-2.661-16.992-5.146-30.869-7.456l20.64-6.768
		c5.894-2.422,11.211-5.43,15.952-9.014l-11.447-0.694c-3.931-0.693-7.109-2.197-9.536-4.507l23.408-10.928l22.72-9.883l20.288,4.16
		c5.317,1.504,7.573,2.485,6.763,2.949c-17.573,5.43-29.712,10.459-36.416,15.088c-2.197,1.499,0.347,3.872,7.632,7.109
		c6.821,3.003,9.707,4.624,8.667,4.854l-27.744,5.029c-2.314,0.576-2.368,1.328-0.176,2.256l6.245,2.256
		c10.981,4.854,20.693,10.747,29.131,17.686C358.211,149.277,365.779,157.256,373.182,166.851"/>
	<path fill="#DB4F03" d="M332.947,296.211c-10.171,2.085-23.584,0.117-40.229-5.889c-6.011-2.197-16.533-15.264-31.558-39.194
		c-15.381-24.507-20.869-38.501-16.475-41.963c10.171-7.866,21.328-14.858,33.467-20.986c18.843-9.478,32.139-11.792,39.883-6.934
		c12.485,7.856,25.317,21.328,38.496,40.405c12.373,17.915,17.861,29.595,16.475,35.024c-1.733,6.479-6.992,14.224-15.781,23.237
		C347.977,289.512,339.886,294.941,332.947,296.211"/>
	<path fill="#0D131A" d="M358.787,220.435c13.062,19.424,18.73,32.139,16.992,38.149c-1.504,5.547-7.168,13.237-16.992,23.066
		c-10.288,10.171-18.73,15.948-25.317,17.339c-5.552,1.157-13.872,0.464-24.971-2.08c-8.208-1.968-13.989-3.76-17.344-5.376
		c-1.733-0.928-2.656-1.68-2.773-2.256l3.472-0.171l16.816,3.814l24.277,0.864c5.898-0.923,13.237-5.605,22.026-14.043
		c8.901-8.555,14.102-16.128,15.605-22.715c1.04-4.624-4.277-15.723-15.952-33.301c-12.832-19.189-25.435-32.715-37.803-40.571
		c-7.056-4.395-18.208-2.666-33.472,5.2l-36.761,22.715c-2.891,1.733-4.624,2.08-5.2,1.04c-0.581-0.923,0.459-2.544,3.12-4.854
		c8.555-6.938,19.019-13.76,31.387-20.464c20.576-11.099,34.971-14.048,43.179-8.843C331.907,186.04,345.145,200.2,358.787,220.435"
		/>
	<path fill="#0D131A" d="M340.057,223.379c12.72,16.65,18.271,27.92,16.65,33.818c-1.387,4.971-6.65,10.864-15.781,17.686
		c-8.438,6.357-14.566,9.77-18.384,10.234l-16.646-2.602c-8.555-2.08-14.624-3.989-18.208-5.723
		c-7.397-3.35-7.515-4.854-0.347-4.507c-1.733-8.442-3.584-15.322-5.547-20.64c-5.204-13.754-12.314-23.696-21.332-29.824
		l-5.547,0.869c-1.157-0.352-0.576-1.45,1.733-3.296c6.592-5.317,14.277-10.464,23.066-15.435
		c13.755-7.861,23.638-10.923,29.648-9.189C317.225,197.08,327.459,206.621,340.057,223.379"/>
	<path fill="#91301D" d="M337.977,270.898c-7.515,6.011-12.891,9.189-16.128,9.536c-4.16,0.693-13.003-0.981-26.528-5.029
		l-10.234-3.467c-1.616-12.603-5.605-23.931-11.963-33.989c-4.165-6.592-8.73-11.851-13.701-15.781
		c6.709-5.547,14.912-10.811,24.624-15.781c11.68-5.894,19.829-8.149,24.453-6.763c6.934,1.968,16.187,10.698,27.744,26.187
		c11.328,15.259,16.357,25.146,15.088,29.653C350.174,259.512,345.726,264.653,337.977,270.898"/>
	<path fill="#0D131A" d="M256.131,222.515c-0.464-0.229-0.405-0.635,0.171-1.211c0.464-0.581,0.981-0.752,1.558-0.522
		c7.52,3.354,14.048,10.405,19.6,21.152c5.43,10.41,8.267,20.869,8.496,31.392c0.117,0.576-0.288,0.806-1.216,0.693l-1.558-1.045
		c-1.733-13.062-6.187-25.024-13.354-35.894C264.28,228.877,259.71,224.019,256.131,222.515"/>
</g>
</svg>
