<?xml version="1.0" encoding="utf-8"?>
<!-- Generator: Adobe Illustrator 16.0.0, SVG Export Plug-In . SVG Version: 6.00 Build 0)  -->
<!DOCTYPE svg PUBLIC "-//W3C//DTD SVG 1.1//EN" "http://www.w3.org/Graphics/SVG/1.1/DTD/svg11.dtd">
<svg version="1.1" id="Layer_1" xmlns="http://www.w3.org/2000/svg" xmlns:xlink="http://www.w3.org/1999/xlink" x="0px" y="0px"
	 width="800px" height="800px" viewBox="0 0 800 800" enable-background="new 0 0 800 800" xml:space="preserve">
<g>
	<path fill="#0D131A" d="M182.504,267.803l8.665-5.199l-25.533,141.65l-62.275-29.231l1.271-3.813
		c8.01-24.11,18.408-44.676,31.195-61.698C148.69,292.489,164.25,278.585,182.504,267.803"/>
	<path fill="#5892BF" d="M143.106,313.787c10.629-13.633,22.184-24.494,34.661-32.582c-12.786,26.805-19.988,52.762-21.605,77.873
		c-0.77,12.555-0.308,22.415,1.386,29.579l-42.286-20.335C120.96,348.526,130.242,330.348,143.106,313.787"/>
	<path fill="#0D131A" d="M141.026,358.731c12.401,7.626,21.182,14.943,26.343,21.952c3.928,5.315,7.086,12.864,9.474,22.645
		c2.157,8.705,4.429,22.183,6.817,40.438c2.464,18.256,3.697,31.157,3.697,38.705c0,15.097-3.196,25.958-9.59,32.583
		c-4.622,4.852-11.246,7.586-19.873,8.202c-6.778,13.479-17.523,21.875-32.235,25.188c-14.943,3.39-28.229,0.115-39.86-9.822
		c-7.626-6.546-17.485-12.092-29.579-16.637c-10.321-3.773-18.332-10.978-24.032-21.604c-5.469-10.244-7.817-21.837-7.047-34.776
		c0.77-13.634,4.814-26.342,12.131-38.129c8.242-13.093,19.603-23.492,34.084-31.194c5.699-3.004,8.588-6.394,8.665-10.167
		c0.154-7.24,0.732-12.169,1.733-14.789c4.159-10.476,12.324-16.907,24.494-19.294C118.188,349.643,129.78,351.875,141.026,358.731"
		/>
	<path fill="#FFFFFF" d="M155.353,385.074c7.24,16.715,13.017,32.505,17.33,47.37c5.083,17.485,7.51,31.736,7.278,42.75
		c-0.23,12.864-2.271,22.454-6.123,28.77c-3.313,5.394-8.396,8.935-15.251,10.632c1.695-10.4,1.656-18.296-0.115-23.688
		c-0.925-2.927-1.849-4.044-2.773-3.351c-0.848,0.615-1.271,2.425-1.271,5.43c0,24.647-8.01,40.091-24.032,46.331
		c-6.855,2.619-14.327,2.966-22.416,1.039c-8.01-1.848-15.52-5.698-22.529-11.555l-8.435-6.699
		c-2.464-1.619-4.929-2.735-7.394-3.351c-13.942-3.698-23.955-11.361-30.041-22.993c-6.162-11.784-7.278-25.767-3.351-41.939
		c2.234-9.241,6.702-18.563,13.402-27.961c7.548-10.476,15.713-17.563,24.495-21.259c6.007-2.54,9.898-5.237,11.669-8.088
		c1.617-2.542,2.349-6.777,2.195-12.708c-0.231-7.935,2.503-14.058,8.203-18.371c5.237-3.851,11.939-5.584,20.104-5.199
		c8.087,0.309,15.674,2.58,22.761,6.817C146.687,371.595,152.118,377.602,155.353,385.074"/>
	<path fill="#0D131A" d="M597.17,228.635c23.108,15.25,41.633,29.694,55.573,43.327c18.101,17.562,33.044,37.666,44.83,60.311
		c2.311,4.391,2.232,8.743-0.23,13.056c-2.389,4.159-6.588,7.548-12.595,10.167c-7.239,3.235-15.637,4.968-25.188,5.199
		c-9.781,0.231-15.673-1.348-17.679-4.737c-1.77-3.003-4.967-7.202-9.587-12.593l-9.707-10.399
		c4.469,15.56,6.663,34.623,6.587,57.192c-0.077,25.725-3.467,46.946-10.168,63.662c-7.396,18.64-18.103,35.815-32.12,51.53
		c-10.089,11.32-21.413,21.374-33.97,30.154c-6.006,4.159-9.587,7.742-10.743,10.746c-1.387,3.853-0.308,9.013,3.233,15.479
		c2.389,5.393,7.088,10.631,14.097,15.715c5.778,4.238,12.593,8.049,20.45,11.438c17.41,7.549,30.888,14.21,40.438,19.987
		c12.247,7.473,22.606,16.098,31.081,25.882c5.854,6.775,9.435,14.327,10.743,22.646c1.311,8.24,0.23,16.059-3.232,23.452
		c-8.089,17.178-24.612,25.997-49.567,26.457c-37.975,0.695-68.745-9.935-92.315-31.887c-10.242-9.552-17.561-20.104-21.952-31.657
		c-4.313-11.478-5.159-22.492-2.542-33.044c0.618-2.466-0.384-8.241-3.003-17.331l-4.159-12.938
		c-3.312-9.476-10.514-12.673-21.604-9.593c-29.193,8.242-55.497,12.52-78.913,12.826c-31.118,0.463-61.504-5.547-91.159-18.023
		c-3.003-1.232-4.814-1.889-5.43-1.965c-1.693-0.229-3.004,0.578-3.929,2.426c-1.618,3.314-2.966,6.625-4.044,9.938
		c-0.923,2.619-1.386,4.66-1.386,6.123c-0.077,2.004,0.54,4.547,1.849,7.627c1.387,3.234,2.233,7.627,2.542,13.172
		c0.385,5.391,0.193,9.858-0.578,13.401c-4.544,20.103-18.178,39.323-40.9,57.653c-21.953,17.716-45.06,29.038-69.323,33.969
		c-15.252,3.157-27.729,2.464-37.434-2.081c-8.705-4.083-14.559-10.782-17.563-20.104c-2.85-8.628-2.926-18.216-0.23-28.77
		c2.696-10.476,7.587-19.794,14.674-27.959c7.394-8.551,20.758-18.294,40.091-29.231c15.02-8.549,30.002-15.869,44.945-21.951
		c7.162-3.004,12.324-7.203,15.482-12.596c2.233-3.851,3.697-9.088,4.391-15.711c0.615-5.933,0.154-10.324-1.388-13.174
		c-1.463-2.773-5.083-6.124-10.86-10.053c-20.565-14.096-37.087-31.271-49.566-51.526c-16.406-26.73-24.956-57.615-25.649-92.664
		c-0.615-30.81,3.813-58.809,13.287-83.996c7.548-20.104,19.18-40.247,34.893-60.426c2.465-3.159,3.659-6.278,3.582-9.359
		c-0.077-2.773-1.193-6.007-3.35-9.705c-8.088-14.174-12.44-28.423-13.056-42.75c-0.616-13.402,1.963-25.688,7.741-36.856
		c5.7-10.938,13.71-19.642,24.032-26.111c10.706-6.625,22.607-10.053,35.701-10.283c11.169-0.231,21.375,2.233,30.618,7.394
		c5.314,3.004,11.478,7.895,18.486,14.674c4.005,3.851,8.434,6.239,13.286,7.164l12.361-0.81
		c38.822-12.401,73.252-14.596,103.291-6.585c10.938,2.927,18.256,3.929,21.952,3.004c3.003-0.77,6.855-4.082,11.555-9.936
		c11.015-13.71,24.917-22.337,41.709-25.88c15.636-3.313,30.772-1.695,45.406,4.853c14.941,6.701,25.802,17.1,32.581,31.195
		c7.551,15.482,8.666,33.082,3.351,52.801l-4.273,12.824c-1.619,4.776-2.464,8.626-2.543,11.554
		C579.916,213.115,585.618,221.01,597.17,228.635"/>
	<path fill="#5892BF" d="M594.049,235.914c25.034,18.409,43.25,33.043,54.652,43.904c14.864,14.327,27.112,30.117,36.74,47.371
		c3.313,6.085,3.813,10.553,1.501,13.403c-1.079,1.309-4.968,3.504-11.669,6.585c-4.467,2.08-9.628,2.618-15.48,1.617
		c-5.009-0.923-8.396-2.388-10.17-4.391c-3.773-4.313-9.705-10.128-17.793-17.445c-7.547-6.932-13.711-12.17-18.484-15.713
		c-1.31-1.001-2.466-1.348-3.468-1.04c-1.154,0.461-1.423,1.81-0.809,4.044c2.234,8.395,4.469,20.526,6.7,36.395
		c2.313,16.715,3.429,29.269,3.353,37.666c-0.384,30.423-6.625,57.037-18.717,79.837c-12.016,22.565-31.081,43.71-57.192,63.43
		c-8.242,6.161-12.323,12.438-12.248,18.834c0.077,7.162,5.124,16.637,15.138,28.421c2.312,2.771,8.125,6.625,17.445,11.555
		l40.208,19.872c17.483,8.476,30.311,18.718,38.476,30.733c7.393,11.015,9.78,21.567,7.161,31.657
		c-2.618,10.089-9.628,17.292-21.025,21.604c-12.479,4.701-27.923,4.891-46.332,0.578c-23.106-5.392-41.901-14.787-56.382-28.19
		c-17.33-16.175-25.419-36.009-24.263-59.5c0.153-2.851-0.618-7.742-2.313-14.676c-1.771-7.086-3.812-13.479-6.124-19.18
		c-2.232-5.545-6.162-9.318-11.784-11.323l-16.292-0.69c-42.132,9.088-72.094,13.517-89.887,13.285
		c-20.719-0.229-46.985-6.123-78.797-17.678l-9.82-3.813c-3.929-1.002-6.47,0-7.625,3.005l-6.354,16.407
		c-1.54,4.621-1.888,9.012-1.04,13.17l2.311,13.52c1.231,18.641-5.662,36.279-20.682,52.916
		c-12.247,13.48-28.153,24.84-47.717,34.082c-33.352,15.716-56.96,17.563-70.824,5.548c-5.7-5.006-8.628-11.86-8.781-20.564
		c-0.077-8.476,2.542-17.218,7.856-26.228c8.627-14.406,23.416-27.462,44.366-39.168l48.18-23.227
		c5.469-2.771,10.437-7.932,14.904-15.479c4.622-7.702,6.894-14.942,6.817-21.722c-0.153-6.393-1.386-11.594-3.697-15.6
		c-1.849-3.232-4.853-6.276-9.012-9.127c-22.877-15.866-40.9-35.433-54.072-58.693c-12.016-21.18-19.333-44.365-21.952-69.553
		c-2.465-23.569-0.693-46.946,5.315-70.131c5.93-22.568,15.25-42.556,27.959-59.964c9.475-12.94,14.943-21.605,16.407-25.996
		c2.542-7.857,0.809-16.445-5.199-25.765c-2.465-3.851-4.737-9.128-6.817-15.829c-2.156-6.932-3.273-12.94-3.351-18.024
		c-0.307-14.172,2.966-26.689,9.821-37.549c6.239-10.091,14.674-17.601,25.303-22.53c10.475-4.929,21.259-6.547,32.35-4.852
		c11.786,1.694,22.068,6.817,30.85,15.367c6.239,6.162,11.978,10.013,17.215,11.553c6.085,1.695,13.442,1.118,22.068-1.733
		c17.022-5.622,36.086-8.742,57.19-9.358c20.104-0.54,37.625,1.271,52.569,5.431c4.698,1.387,8.856,1.887,12.478,1.501
		c5.933-0.539,10.977-3.389,15.139-8.55c12.244-14.942,26.647-23.877,43.209-26.805c15.174-2.773,29.23-0.115,42.171,7.972
		c13.019,8.088,21.528,19.681,25.534,34.777c4.393,16.714,2.156,34.662-6.7,53.841c-3.774,8.242-2.195,16.676,4.735,25.303
		C580.609,225.246,586.193,230.215,594.049,235.914"/>
	<path fill="#0D131A" d="M249.401,122.34c13.634-0.308,25.111,4.659,34.43,14.904c8.55,9.398,12.94,20.374,13.172,32.928
		c0.23,11.554-3.466,22.107-11.092,31.658c-9.243,11.553-21.991,17.369-38.243,17.447c-11.939,0-22.145-3.736-30.617-11.208
		c-10.168-8.858-15.405-21.605-15.713-38.243c-0.308-13.018,4.004-24.07,12.939-33.159
		C223.366,127.424,235.074,122.648,249.401,122.34"/>
	<path fill="#FFFFFF" d="M250.556,127.078c11.631,0.385,21.337,4.659,29.116,12.824c8.012,8.395,12.017,18.948,12.017,31.657
		c-0.23,12.016-4.352,21.952-12.362,29.809c-8.087,8.012-18.408,12.016-30.964,12.016c-11.863-0.385-21.568-3.967-29.116-10.745
		c-8.626-7.702-13.018-18.37-13.171-32.004c-0.155-13.249,4.313-24.032,13.402-32.351
		C228.027,130.505,238.387,126.77,250.556,127.078"/>
	<path fill="#0D131A" d="M559.041,192.125c-8.165,10.167-20.142,15.405-35.932,15.713c-15.174,0.385-27.536-4.082-37.087-13.402
		c-9.782-9.551-14.826-22.491-15.136-38.82c-0.232-14.096,5.006-25.727,15.713-34.893c9.705-8.319,20.949-12.594,33.736-12.825
		c12.863-0.308,24.07,3.851,33.621,12.478c10.168,9.089,15.406,20.759,15.714,35.008
		C569.978,170.635,566.438,182.882,559.041,192.125"/>
	<path fill="#FFFFFF" d="M523.688,202.177c-14.098,0.23-25.304-3.544-33.621-11.323c-8.552-7.856-12.979-18.794-13.289-32.813
		c-0.307-13.172,3.853-23.762,12.479-31.773c8.241-7.702,19.023-11.708,32.352-12.016c11.014-0.231,20.488,3.196,28.423,10.283
		c9.166,8.165,13.864,19.681,14.095,34.546c0.23,10.707-3.581,20.451-11.439,29.231
		C544.522,197.325,534.858,201.946,523.688,202.177"/>
	<path fill="#0D131A" d="M347.839,155.037c0.617-0.308,1.464-0.038,2.542,0.809c1.001,0.924,1.889,2.119,2.658,3.582
		c1.695,3.081,1.502,5.084-0.577,6.007c-2.156,0.848-3.658-0.385-4.507-3.696C346.876,157.733,346.838,155.5,347.839,155.037"/>
	<path fill="#0D131A" d="M388.624,150.3c0.617,0.463,0.731,1.888,0.348,4.275c-0.386,2.312-1.001,4.313-1.849,6.008
		c-0.771,1.618-1.811,2.772-3.12,3.466l-3.813,0.231c-1.079-0.539-1.501-1.733-1.271-3.581c0.153-1.771,0.731-3.39,1.733-4.854
		c1.155-1.463,2.58-2.85,4.274-4.159C386.776,150.3,388.008,149.838,388.624,150.3"/>
	<path fill="#0D131A" d="M533.508,499.227c-36.739,38.281-85.229,57.998-145.461,59.154
		c-59.693,1.232-108.645-14.673-146.849-47.717c-40.362-34.814-61.158-82.803-62.391-143.96
		c-0.54-26.112,4.929-50.838,16.407-74.177c10.398-21.335,25.187-40.4,44.366-57.191c17.87-15.712,37.937-28.114,60.196-37.203
		c21.721-8.781,43.018-13.402,63.892-13.864c60.465-1.156,111.109,12.593,151.933,41.247
		c45.369,31.888,68.632,76.486,69.784,133.793C586.539,415.384,569.247,462.022,533.508,499.227"/>
	<path fill="#FFFFFF" d="M563.778,299.922c8.088,18.794,12.323,37.936,12.71,57.422c0.54,25.649-3.504,50.028-12.132,73.137
		c-8.626,23.028-21.181,43.327-37.663,60.888c-35.663,37.821-82.264,57.308-139.802,58.464
		c-56.46,1.156-103.252-14.52-140.378-47.024c-38.052-33.273-57.616-77.297-58.694-132.061
		c-1.078-52.068,18.371-95.473,58.347-130.211c17.179-15.02,36.664-26.766,58.463-35.239c21.183-8.242,42.248-12.556,63.199-12.94
		c67.011-1.31,119.854,16.56,158.52,53.609C542.521,261.449,554.999,279.434,563.778,299.922"/>
	<path fill="#0D131A" d="M558.58,369.707c0.847,42.825-15.135,81.687-47.948,116.578c-12.939,13.866-27.383,25.689-43.325,35.471
		c-14.404,8.936-27.689,14.826-39.86,17.676c-5.778,1.389-8.781-0.422-9.014-5.429c-0.309-5.008,2.427-8.396,8.205-10.167
		c28.421-8.552,54.493-27.229,78.217-56.037c25.805-31.427,38.358-63.776,37.668-97.052c-0.772-39.359-15.021-72.982-42.751-100.865
		c-30.271-30.348-70.284-46.331-120.042-47.949c-20.104-0.615-39.784,2.272-59.04,8.666c-19.335,6.471-36.511,15.906-51.53,28.307
		c-33.583,27.652-49.952,62.93-49.105,105.833c0.848,42.056,16.715,76.487,47.602,103.29c28.346,24.725,61.351,37.09,99.017,37.09
		c35.662,0,67.089-13.442,94.277-40.323c12.634-12.478,22.415-26.459,29.35-41.939c7.162-16.176,10.591-32.544,10.282-49.104
		c-0.694-34.353-11.516-62.929-32.467-85.729c-22.492-24.494-52.185-36.626-89.08-36.395c-32.89,0.231-61.697,11.631-86.422,34.2
		c-25.034,22.875-37.243,49.564-36.627,80.067c0.541,28.654,13.75,53.07,39.63,73.25c10.86,8.475,22.837,15.062,35.933,19.758
		c12.632,4.545,24.532,6.702,35.701,6.472c24.34-0.54,46.137-10.437,65.393-29.692c18.873-18.948,28.113-39.438,27.729-61.468
		c-0.537-27.729-8.354-49.143-23.451-64.24c-14.79-14.943-35.085-22.144-60.889-21.606c-26.188,0.54-46.408,9.243-60.658,26.112
		c-11.631,13.709-17.292,29.346-16.982,46.908c0.308,15.405,6.508,28.615,18.601,39.63c13.172,12.015,29.655,17.714,49.45,17.1
		c12.864-0.463,23.455-4.775,31.772-12.939c7.548-7.319,11.783-16.099,12.707-26.344c1.156-13.094-1.847-23.647-9.009-31.657
		c-7.317-8.242-17.64-12.209-30.965-11.9c-6.239,0.153-11.553,1.964-15.944,5.43c-4.853,3.696-7.164,8.472-6.932,14.327
		c0.308,5.931,2.773,10.551,7.394,13.864c4.392,3.236,9.205,4.236,14.442,3.004c4.854-1.156,8.204,0.308,10.053,4.391
		c1.849,4.159,0.462,7.548-4.159,10.167c-9.013,5.161-18.794,4.623-29.347-1.618c-10.707-6.239-16.482-15.057-17.331-26.458
		c-0.847-12.093,3.544-22.375,13.172-30.849c9.166-8.01,19.911-11.9,32.235-11.669c16.945,0.308,30.693,6.201,41.247,17.678
		c10.089,10.938,15.213,24.648,15.366,41.132c0.152,18.101-5.778,32.854-17.793,44.251c-11.938,11.321-27.574,17.178-46.908,17.563
		c-22.106,0.461-41.67-6.2-58.693-19.987c-18.101-14.56-27.344-32.738-27.729-54.535c-0.539-24.957,9.166-46.292,29.114-64.009
		c19.025-16.948,41.555-25.691,67.59-26.23c29.962-0.54,54.186,8.434,72.674,26.92c18.407,18.486,27.729,43.096,27.958,73.829
		c0.31,29.423-11.091,54.997-34.199,76.717c-22.104,20.796-47.407,31.504-75.906,32.12c-13.249,0.231-27.036-2.079-41.362-6.933
		c-15.021-5.083-28.654-12.362-40.9-21.837c-29.193-22.491-44.444-51.221-45.754-86.191c-1.233-35.432,11.746-65.665,38.936-90.698
		c27.19-24.957,61.12-37.857,101.79-38.705c42.362-0.847,76.639,13.672,102.829,43.558c11.092,12.709,19.717,27.268,25.879,43.674
		c5.855,15.482,8.937,31.079,9.242,46.792c0.851,42.671-14.826,78.835-47.021,108.489c-14.25,13.019-30.464,23.264-48.643,30.733
		c-17.946,7.317-36.047,11.171-54.302,11.555c-18.871,0.384-37.396-2.389-55.574-8.317c-19.411-6.318-36.664-15.638-51.761-27.961
		c-35.354-29.04-53.533-69.131-54.534-120.275c-1.08-52.685,18.216-93.278,57.884-121.777c16.562-11.863,35.702-20.758,57.423-26.69
		c19.797-5.392,39.938-7.933,60.427-7.625c51.838,0.925,94.201,16.868,127.093,47.833c32.194,30.194,48.754,68.283,49.68,114.267
		L558.58,369.707"/>
	<path fill="#0D131A" d="M704.851,321.99c5.778,1.31,10.016,3.196,12.711,5.662c3.853,3.389,6.354,8.935,7.511,16.637
		c1,6.625,2.271,11.901,3.812,15.829c1.617,4.391,4.276,9.243,7.975,14.559l12.247,17.677c5.006,7.548,9.628,15.059,13.863,22.53
		c8.318,14.711,12.324,29.616,12.016,44.716c-0.23,14.324-4.313,27.574-12.245,39.742c-7.858,12.018-18.719,21.646-32.583,28.887
		c-14.403,7.623-30.657,11.822-48.757,12.594c-18.641,0.847-34.046-3.969-46.218-14.444c-11.552-9.937-17.521-22.413-17.905-37.434
		c-17.64-10.554-23.88-26.459-18.72-47.716c4.313-17.869,14.828-35.085,31.542-51.647c2.233-2.233,3.584-3.966,4.045-5.199
		c0.692-2.157-0.038-4.583-2.194-7.279c-2.927-3.851-4.546-7.78-4.854-11.785c-0.231-2.851,0.27-6.702,1.502-11.554
		c3.233-13.017,13.133-22.607,29.692-28.769C673.695,319.294,689.215,318.292,704.851,321.99"/>
	<path fill="#FFFFFF" d="M702.771,330.886c6.24,1.771,10.898,6.702,13.98,14.789c1.693,4.391,3.387,10.283,5.083,17.678
		c3.005,7.625,7.819,16.599,14.442,26.92l16.521,25.881c14.79,26.418,17.641,49.989,8.551,70.709
		c-7.78,17.716-22.452,30.58-44.02,38.591c-20.336,7.547-39.477,8.511-57.426,2.886c-19.409-6.158-30.114-18.33-32.117-36.507
		c8.165,1,14.943-1.619,20.336-7.857c4.235-4.853,6.507-9.898,6.814-15.136c0.386-5.393-0.503-8.241-2.656-8.551
		c-2.081-0.308-3.853,1.463-5.314,5.315c-5.393,14.018-13.097,19.103-23.107,15.25c-4.159-1.616-7.741-4.696-10.744-9.242
		c-3.082-4.698-4.854-9.977-5.315-15.828c-0.771-10.475,2.078-21.568,8.549-33.276c6.01-10.859,13.52-19.485,22.53-25.88
		c5.854-4.237,8.975-7.934,9.357-11.092c0.31-2.695-1.499-6.932-5.43-12.708c-2.465-3.698-3.58-8.011-3.351-12.941
		c0.153-4.93,1.579-9.243,4.274-12.94c4.774-6.624,12.593-11.669,23.453-15.135C679.356,327.96,691.22,327.652,702.771,330.886"/>
	<path fill="#0D131A" d="M225.6,195.245c-6.701-6.394-10.128-14.212-10.283-23.455c-0.153-9.243,2.966-17.177,9.359-23.801
		c6.393-6.702,14.211-10.129,23.454-10.283c9.243-0.231,17.178,2.888,23.802,9.358c6.7,6.394,10.128,14.21,10.282,23.454
		c0.23,9.167-2.851,17.1-9.242,23.802c-6.471,6.701-14.289,10.128-23.456,10.283C240.273,204.757,232.301,201.638,225.6,195.245"/>
	<path fill="#FFFFFF" d="M259.916,171.675c-3.467,0.077-6.47-1.117-9.013-3.583c-2.465-2.388-3.736-5.314-3.813-8.78
		c-0.077-3.467,1.117-6.47,3.583-9.013c2.388-2.464,5.314-3.734,8.78-3.813c3.466-0.077,6.47,1.078,9.013,3.466
		c2.465,2.388,3.735,5.354,3.813,8.896c0.077,3.466-1.118,6.432-3.582,8.896C266.309,170.289,263.381,171.597,259.916,171.675"/>
	<path fill="#0D131A" d="M522.303,190.854c-9.242,0.154-17.178-2.966-23.803-9.359c-6.702-6.392-10.13-14.21-10.283-23.454
		c-0.229-9.243,2.851-17.177,9.244-23.8c6.394-6.702,14.212-10.168,23.454-10.399c9.242-0.153,17.215,2.966,23.916,9.358
		c6.7,6.394,10.128,14.212,10.283,23.455c0.152,9.243-2.965,17.215-9.359,23.917C539.362,187.195,531.543,190.623,522.303,190.854"
		/>
	<path fill="#FFFFFF" d="M532.699,157.81c-3.466,0.155-6.431-1.001-8.896-3.466c-2.467-2.388-3.775-5.314-3.93-8.781
		c-0.077-3.466,1.117-6.469,3.581-9.012c2.39-2.464,5.315-3.736,8.783-3.813c3.464-0.077,6.47,1.078,9.01,3.466
		c2.466,2.388,3.737,5.315,3.813,8.782c0.078,3.466-1.077,6.47-3.466,9.012C539.207,156.462,536.244,157.733,532.699,157.81"/>
	<path fill="#46799E" d="M247.783,545.325c-0.23-7.856-2.118-14.019-5.661-18.484c10.09,8.163,24.726,16.905,43.904,26.226
		c-3.774-0.924-6.201,0.076-7.279,3.004l-6.354,16.408l-1.387,6.123c-4.775,2.387-10.591,2.311-17.446-0.232
		c-6.855-2.463-11.13-6.047-12.825-10.743C245.512,559.689,247.86,552.257,247.783,545.325"/>
	<path fill="#46799E" d="M530.965,551.796c0.619,6.933,5.663,15.944,15.138,27.035l0.81,0.924c-0.693,4.701-2.619,7.896-5.775,9.593
		c-4.624,2.387-10.246,3.965-16.869,4.736l-25.07-1.273c-1.852-7.393-3.929-13.899-6.241-19.524
		c-1.924-4.774-5.121-8.241-9.59-10.397c-3.927-1.927-8.511-2.658-13.749-2.195c29.812-7.551,53.456-16.56,70.942-27.036
		C533.625,539.432,530.429,545.479,530.965,551.796"/>
	<path fill="#DBDCDC" d="M34.961,459.711c1.772,7.088,4.622,14.365,8.55,21.839c4.083,7.855,8.242,13.671,12.479,17.445
		c3.389,3.08,7.702,5.429,12.94,7.048c6.161,1.926,10.321,3.581,12.478,4.967c2.696,1.696,7.433,5.124,14.21,10.283
		c6.547,4.545,12.056,7.434,16.523,8.666c5.623,1.54,11.207,2.352,16.752,2.428c5.315,0.076,9.976-0.541,13.98-1.85
		c-7.009,7.855-16.06,11.514-27.151,10.977c-10.706-0.539-20.797-4.775-30.271-12.711l-8.435-6.699
		c-2.464-1.619-4.929-2.735-7.394-3.351c-13.018-3.469-22.646-10.478-28.885-21.028C34.5,487.173,32.574,474.501,34.961,459.711"/>
</g>
</svg>
