<?xml version="1.0" encoding="utf-8"?>
<!-- Generator: Adobe Illustrator 16.0.0, SVG Export Plug-In . SVG Version: 6.00 Build 0)  -->
<!DOCTYPE svg PUBLIC "-//W3C//DTD SVG 1.1//EN" "http://www.w3.org/Graphics/SVG/1.1/DTD/svg11.dtd">
<svg version="1.1" id="Layer_1" xmlns="http://www.w3.org/2000/svg" xmlns:xlink="http://www.w3.org/1999/xlink" x="0px" y="0px"
	 width="800px" height="800px" viewBox="0 0 800 800" enable-background="new 0 0 800 800" xml:space="preserve">
<g>
	<path fill="#D2DDF0" d="M181.367,203.548l0.11,5.558c0.445,4.299,1.816,7.894,4.113,10.784l4.78-7.56
		c3.484-5.188,6.041-8.041,7.671-8.56c-4.595,0.223-7.93-0.555-10.004-2.334C184.85,203.215,182.625,203.919,181.367,203.548
		 M686.736,167.085c7.041,16.23,11.857,33.609,14.451,52.138c2.15,15.416,2.633,29.904,1.444,43.466
		c-0.666,7.634-2.076,14.674-4.225,21.123c-2.148,6.224-4.817,11.264-8.003,15.118c-4.597,5.558-10.45,9.153-17.565,10.783
		c-1.408,2.891-4.26,7.004-8.561,12.34c-5.112,6.226-8.782,9.523-11.007,9.894c-3.854,0.592-8.112-0.148-12.782-2.224
		c-6.373-2.965-10.265-4.595-11.673-4.891c-1.186,0.296-2.742,0.963-4.67,2l-4.67,2.446l-10.779,3.891
		c-12.749,3.78-26.313,5.003-40.689,3.668c-14.603-1.333-27.682-5.076-39.243-11.227l-12.339-6.781l-6.002-4.447l-13.12,15.008
		c-5.928,5.483-10.782,7.484-14.56,6.002c-3.411-1.333-8.784-3.038-16.121-5.114l-16.343-4.668
		c-14.674-3.187-25.271-4.744-31.794-4.67l-17.121,2.891l-35.684,9.338c-16.973,4.447-28.496,6.966-34.574,7.559
		c-20.825,8.746-34.906,18.936-42.244,30.571c-3.854-8.375-9.189-16.156-16.008-23.346c-6.152-6.521-9.968-9.337-11.45-8.449
		l-21.678,11.673c-12.006,6.003-20.492,9.523-25.458,10.562c-2.149,1.927-3.483,4.557-4.001,7.892l-19.565,1.667l-9.338,0.557
		c-1.705,0-4.707-0.742-9.004-2.224l-13.563-2.556c-5.781-1.631-11.523-3.669-17.23-6.115
		c-14.525-6.299-25.197-13.376-32.017-21.233c-4.224-4.891-7.077-8.634-8.56-11.228c-3.631-6.226-5.299-12.673-5.002-19.343
		l1.667-45.691c0.592-20.306,0.704-34.091,0.333-41.354c-0.889-16.601,0-29.646,2.668-39.131
		c2.447-8.745,7.264-17.269,14.452-25.568l8.226-9.339l7.003-8.782c12.822-19.565,24.68-31.275,35.575-35.129l28.792-10.449
		c11.117-3.706,18.788-5.226,23.011-4.558c3.706,0.667,9.079,3.631,16.12,8.894c6.893,5.113,11.969,9.82,15.23,14.118
		c7.708,10.229,10.933,18.751,9.672,25.57c-0.815,4.447-3.928,8.783-9.337,13.006c2.223,4.077,3.446,7.56,3.668,10.45
		c0.222,3.261-0.667,6.633-2.668,10.116c-1.334,2.372-5.67,6.411-13.007,12.118c-7.189,5.632-12.339,9.042-15.452,10.227
		c8.894-1.854,17.453-2.52,25.679-2l17.787,1.89c5.929-2.743,11.969-6.819,18.12-12.229c5.485-4.966,8.486-8.522,9.005-10.672
		c1.037-4.151,1.705-8.968,2.001-14.452l0.333-12.673c0.371-8.671,0.816-15.341,1.334-20.01c0.815-7.411,2.111-14.007,3.891-19.788
		c1.556-5.113,5.892-10.413,13.007-15.897c6.744-5.261,14.822-9.819,24.234-13.673c10.302-4.15,20.492-6.3,30.572-6.448
		c9.857-0.148,18.12,1.631,24.791,5.336c6.966,3.78,14.23,10.228,21.79,19.343l1.892,4.002c1.109,1.482,2.298,2.038,3.556,1.667
		c0.816-0.296,1.521-1.557,2.114-3.78c0.592-2.297,0.48-3.705-0.334-4.224c2.074,0.889,4.001,2.519,5.78,4.891
		c1.407,1.853,2.854,2.705,4.336,2.557c0.666-0.075,1.371-1.483,2.11-4.225c0.666-2.817,0.705-4.484,0.11-5.003
		c1.335,0.519,2.855,2.372,4.56,5.558c1.188,2.149,2.705,2.409,4.56,0.779c1.037-0.963,1.851-2.631,2.442-5.003l1.111-5.67
		c6.67,4.892,10.563,8.449,11.674,10.673c-0.146-0.297-1.815,1.148-5.004,4.335c-3.406,3.26-5.557,5.818-6.445,7.67
		c2.815,0.89,7.856,3.039,15.117,6.448c6.375,3.039,10.896,7.856,13.563,14.452c2.816,7.189,2.225,13.97-1.777,20.343l-3.556,3.335
		c-2.077,1.63-3.485,2.186-4.227,1.667c-8.3-5.262-22.344-7.337-42.134-6.226c-12.746,0.741-26.236,2.594-40.465,5.558
		c-17.417,3.631-32.35,4.854-44.8,3.668l0.778,4.67c0.445,1.408,1.296,2.593,2.556,3.556c4.892,3.633,10.784,6.003,17.676,7.116
		l18.565,1l27.236-1.111l27.124-2.557c19.048-1.778,29.831-0.63,32.351,3.446c1.483,2.372,0.407,5.966-3.223,10.784
		c-3.482,4.595-7.561,8.152-12.229,10.672l5.002,0.334c2.001,0.147,4.038,0.703,6.113,1.667c6.15-4.891,13.007-8.226,20.565-10.004
		c5.112-1.186,12.23-1.854,21.344-2.001c6.672-0.075,13.676,1.667,21.013,5.224c7.042,3.484,12.044,7.449,15.008,11.896l19.011-5.56
		c5.854-1.26,11.005-1.667,15.45-1.222c4.299,0.444,9.267,1.815,14.896,4.112c0.964,0.371,3.113,1.669,6.446,3.892l6.561,3.668
		l8.116-15.564c3.704-6.818,5.557-10.671,5.557-11.56l-0.666-4.114l-1.222-4.224c-2.226,0.37-6.229,0.296-12.009-0.222
		c-1.776-0.074-4.817-0.963-9.113-2.668l-8.562-4.113c-5.409,1.482-9.709,1.89-12.896,1.223c-4.001-0.89-7.447-3.521-10.338-7.893
		l-6.227,1.445c-2.816-0.074-5.78-1.111-8.895-3.113l-3.224-2.223l-2.444-2.668c-1.408,0.519-3.816,0.519-7.227,0
		c-3.262-0.445-5.56-1.037-6.892-1.778c-2.226-1.186-4.227-3.372-6.005-6.56c-1.629-3.038-2.332-5.483-2.111-7.336
		c1.111-8.671,5.112-18.639,12.005-29.904c7.117-11.709,13.712-18.527,19.79-20.454c15.563-5.04,33.831-4.707,54.805,1
		c24.53,6.669,45.802,19.454,63.811,38.352c4.521,4.743,8.229,10.673,11.118,17.787L686.736,167.085"/>
	<path fill="#094B46" d="M329.998,340.395l10.672-2.112l11.117-0.445l2.112,64.587l-29.904,4.005
		c-16.824,2.667-27.236,5.187-31.239,7.558c2.668-5.854,3.558-12.932,2.668-21.231c-0.814-7.93-3.001-15.081-6.559-21.456
		c2.965-4.668,7.375-9.523,13.229-14.563C310.469,349.549,319.77,344.101,329.998,340.395"/>
	<path fill="#FFE100" d="M461.732,329.724c3.262,4.373,5.817,9.598,7.671,15.675c1.779,5.854,2.666,11.821,2.666,17.898
		c0,14.6-5.299,27.236-15.895,37.908c-10.598,10.672-23.162,16.006-37.688,16.006c-14.6,0-27.312-5.334-38.132-16.006
		c-10.968-10.746-16.453-23.382-16.453-37.908c0-6.152,1.075-12.303,3.225-18.453c2.074-6.152,4.891-11.525,8.449-16.12
		l24.567-5.114c-6.521,4.001-12.043,9.56-16.563,16.675c-4.891,7.633-7.338,15.193-7.338,22.677
		c0,11.933,4.002,21.863,12.006,29.793c8.004,7.931,17.974,11.896,29.904,11.896c12.01,0,22.051-3.892,30.128-11.672
		c8.152-7.93,12.23-17.824,12.23-29.682c0-9.635-3.372-18.602-10.117-26.903c-6.67-8.3-14.526-13.228-23.568-14.785l13.118,2.335
		C449.354,325.87,456.618,327.797,461.732,329.724"/>
	<path fill="#FFE100" d="M422.047,321.386c10.301,0.963,19.156,5.559,26.568,13.785c7.483,8.228,11.228,17.602,11.228,28.126
		c0,11.117-4.225,20.788-12.672,29.015c-8.377,8.226-18.159,12.339-29.351,12.339c-11.115,0-20.827-4.15-29.127-12.45
		c-8.3-8.301-12.451-18.046-12.451-29.238c0-8.819,2.816-17.045,8.449-24.679c5.558-7.485,12.414-12.599,20.568-15.34
		L422.047,321.386"/>
	<path fill="#ED8599" d="M448.393,167.863l-39.908,3.002l-37.021,1.333c-20.53-1.259-31.609-6.448-33.24-15.563
		c8.894,1.63,24.271,0.185,46.135-4.335l11.562-2.335l18.9-1.334c7.113,0.963,14.229,3.558,21.345,7.783
		C443.204,160.49,447.281,164.306,448.393,167.863"/>
	<path fill="#D2DDF0" d="M474.961,439.667c6.373-7.483,12.749-12.821,19.122-16.008c5.482-2.743,11.301-3.965,17.453-3.667
		c14.007,0.59,32.35,7.966,55.026,22.12c24.385,15.269,39.576,30.35,45.58,45.246l5.891,14.341
		c2.003,5.113,3.483,9.819,4.448,14.118c2.742,12.378,5.965,22.455,9.672,30.236c4.225,8.895,4.481,17.12,0.777,24.681l-3.003,6.115
		c-1.11,2.442-1.778,4.631-2.001,6.558c-0.814,8.152-3.407,17.195-7.78,27.125l-12.785,26.458l-6.671,14.12
		c-2.147,5.631-2.999,10.672-2.557,15.114c0.447,4.229,2.335,8.155,5.67,11.785c2.445,2.667,5.893,5.559,10.341,8.672l11.228,7.559
		c9.708,6.449,19.417,12.082,29.125,16.898c4.817,0.666,7.56,1.667,8.227,3.001c3.04-1.334,5.634-0.519,7.783,2.446
		c1.704,2.371,2.667,5.262,2.892,8.671c0.146,3.409-1.004,6.707-3.448,9.896c-2.667,3.631-5.483,4.371-8.447,2.223
		c-1.111,1.632-3.559,2.595-7.339,2.89l-8.559-1.109c-2.67,2.074-5.744,3.409-9.228,4.001l-8.45-0.221
		c-6.074,2.517-11.447,3.593-16.118,3.222c-3.11-0.225-6.743-1.222-10.896-3.001c-3.113,2.296-8.708,4.002-16.784,5.111
		c-7.485,1.037-13.786,1.15-18.9,0.336c-8.077-1.333-12.45-2.704-13.118-4.112c-1.48-2.967-4.076-6.486-7.78-10.563
		c-3.779-4.225-7.559-7.671-11.338-10.338c-1.705-1.187-5.19-3.149-10.45-5.894l-5.781-3.78c-1.779-1.479-2.854-2.63-3.225-3.445
		c-0.742-1.63-1.186-6.263-1.332-13.896c-0.149-7.708,0.146-12.412,0.888-14.118c0.519-1.332,1.89-3.557,4.112-6.67l4.335-5.334
		l3.672-5.895c1.259-3.408,1.519-7.226,0.775-11.448l-1.443-3.56l-2.224-3.225l-10.449-13.783c-4.151-5.56-6.41-8.932-6.783-10.115
		c-1.037-3.038-1.222-9.267-0.556-18.678c0.595-9.042,1.558-15.971,2.891-20.788c1.037-3.557,5.67-8.561,13.896-15.008l5.226-3.891
		c1.335-1.408,1.445-3.226,0.334-5.446l-1.225-5.115c-0.592-1.927-1.704-3.001-3.333-3.222c-1.409-0.224-3.483-0.224-6.228,0
		l-6.336,0.221c-4.373-0.371-11.746-3.298-22.121-8.783c-11.34-6.003-18.492-11.302-21.456-15.896l-2.001-3.223l-6.337-10.896
		c-1.927-3.259-4.113-5.814-6.56-7.669c-1.557-9.042-0.037-19.677,4.56-31.906C460.288,460.197,466.661,449.378,474.961,439.667"/>
	<path fill="#152139" d="M479.521,397.424l14.229-1c1.334,2.89,3.669,6.373,7.002,10.448c4.228,5.039,8.856,9.414,13.896,13.12
		c-10.004,0-18.748,2.703-26.233,8.113c-4.446,3.114-10.859,9.598-19.232,19.454c-5.482,6.447-10.114,15.786-13.895,28.014
		c-3.634,11.785-4.968,20.975-4.004,27.571c-12.524-4.743-25.978-6.67-40.354-5.78c-14.674,0.89-27.94,4.52-39.798,10.894
		c1.78-7.264-0.89-16.081-8.004-26.456c-4.595-6.598-11.635-14.564-21.122-23.901c-7.929-7.708-18.045-14.044-30.348-19.012
		c-13.119-5.261-23.16-6.483-30.126-3.667c1.482-1.633,5.521-9.189,12.117-22.679l23.791-4.445
		c17.342-3.112,29.496-5.004,36.463-5.672l15.786,3.446l18.565,2.335c3.928,2.521,8.226,4.594,12.896,6.227
		c5.188,1.778,10.006,2.669,14.452,2.669c14.23,0,26.2-3.706,35.908-11.119c4.744-0.666,9.969-1.927,15.674-3.779
		C472.663,400.5,476.776,398.908,479.521,397.424"/>
	<path fill="#FFE100" d="M375.243,330.279c-3.409,4.817-6.151,10.042-8.226,15.675c-2.297,6.226-3.446,12.117-3.446,17.675
		c0,7.783,2.001,15.675,6.003,23.68c3.705,7.411,8.486,13.709,14.34,18.897l-29.682-4.111l-2.556-66.035
		C355.974,334.727,363.83,332.8,375.243,330.279"/>
	<path fill="#D2DDF0" d="M251.514,453.674c3.779-3.186,8.893-6.816,15.341-10.893c6.67-4.151,11.562-6.671,14.674-7.561l0.667-0.444
		c20.084-1.63,40.724,6.485,61.92,24.345c6.077,5.114,11.673,11.079,16.787,17.897c5.188,6.894,8.745,13.192,10.672,18.899
		l0.445,1.111c0.964,2.519,1.26,5.038,0.89,7.56c-0.445,3.707-2.149,7.967-5.115,12.783l-15.23,22.457
		c-1.556,2.223-4.632,7.188-9.227,14.896c-3.335,5.634-6.744,10.377-10.227,14.229l-6.781,7.337
		c-2.669,2.372-5.411,4.226-8.228,5.561l-7.559,2.001c-3.558,0.666-6.003,1.407-7.337,2.224l-1.557,17.451
		c-0.445,6.08-1.37,12.601-2.778,19.565l-4.113,17.565c-1.927,6.671-4.262,12.154-7.003,16.453
		c-1.482,2.222-4.744,5.594-9.783,10.115l-12.34,12.005c-4.966,5.411-8.782,10.857-11.45,16.345
		c-1.557,3.186-2.261,5.741-2.112,7.668c0.147,2.001,1.223,4.558,3.224,7.671c2.223,3.557,5.929,7.003,11.117,10.34
		c4.372,2.892,9.005,5.227,13.896,7.003l11.895-0.666c3.78,0.369,7.597,1.854,11.451,4.446c4.298,2.964,6.336,7.522,6.114,13.673
		c-0.222,6.597-2.186,11.301-5.893,14.117c-5.41,4.004-11.153,6.078-17.23,6.229l-17.23-2.225l-6.226,1.667l-5.781,1
		c-2.076,0.521-4.299,0.521-6.67,0l-6.336-1.445c-2.149,1.262-6.04,2.226-11.672,2.892c-6.299,0.742-10.302,0.26-12.006-1.445
		l-4.225,2.335l-6.002,1.779c-2.52,0.742-5.596,0.742-9.228,0l-7.67-2.445c-6.744,2.814-12.192,4.446-16.342,4.891
		c-6.374,0.594-12.488-0.109-18.343-2.11c-1.037-0.668-2.372-3.78-4.002-9.34c-1.778-6.002-2.668-11.116-2.668-15.342l0.223-2.891
		c0.371-3.333,2.039-6.818,5.002-10.448l7.671-10.116l2.779-4.004l1.779-4.336c-0.816-2.296-1.297-5.186-1.445-8.671
		c-0.148-4.075,0.333-7.261,1.445-9.559l4.779-7.115c2.076-2.891,3.298-5.446,3.669-7.671c0.519-2.964-0.112-8.671-1.89-17.119
		c-1.408-6.67-2.927-12.638-4.558-17.896c-0.445-1.335-0.741-3.894-0.89-7.674c-0.148-5.26,0.186-12.338,1-21.23l0.778-11.45
		c0.52-4.594,1.52-8.227,3.002-10.896c1.927-3.631,4.928-7.374,9.004-11.229c2.002-2.001,5.67-5.15,11.006-9.447l18.343-14.676
		c-0.296-2.52-0.519-9.894-0.667-22.123c-0.074-12.673-0.037-20.787,0.112-24.345c0.221-8.3,1-13.712,2.334-16.229
		c4.298-8.007,10.82-16.975,19.565-26.903C241.804,462.827,247.214,457.308,251.514,453.674"/>
	<path fill="#FFE100" d="M468.625,344.843c-2.074-6.375-4.561-11.859-7.449-16.454l17.12,7.116
		c0.815,4.965,1.259,15.489,1.335,31.572c0.146,15.711-0.11,26.087-0.779,31.127c-4.67,1.926-13.043,4.075-25.123,6.447
		c4.15-3.114,8.041-8.227,11.674-15.34c4.595-8.82,6.818-17.602,6.668-26.348C471.997,357.626,470.849,351.587,468.625,344.843"/>
	<path fill="#094B46" d="M477.628,334.615c3.04,1.037,6.154,1.075,9.34,0.111c1.632-0.445,2.927-1.038,3.891-1.779l-0.11,2.112
		c-0.073,2.076,0.074,4.706,0.444,7.894c-2.003,0-3.669,2.372-5.002,7.114c-1.261,4.521-1.892,9.82-1.892,15.897
		c0,15.34,3.04,23.011,9.118,23.011c0.368,2.076,0.368,4.67,0,7.783l-13.896,1.111c0.442-5.781,0.481-16.044,0.11-30.792
		C479.186,351.883,478.518,341.063,477.628,334.615"/>
	<path fill="#FFE100" d="M408.149,341.396c3.038-1.63,8.264-2.112,15.677-1.445l10.225,1.445c3.485,2.149,6.41,5.485,8.784,10.006
		c2.296,4.52,3.444,9.041,3.444,13.562c0,6.893-2.595,12.932-7.78,18.121c-5.188,5.113-11.192,7.67-18.012,7.67
		c-6.892,0-13.007-2.631-18.34-7.893c-5.413-5.262-8.118-11.339-8.118-18.231c0-4.447,1.372-8.932,4.113-13.452
		C400.812,346.807,404.147,343.545,408.149,341.396"/>
	<path fill="#FFE100" d="M490.413,343.619c4.597,0,8.411,2.594,11.45,7.783c2.74,4.52,4.112,9.3,4.112,14.34
		c0,3.78-0.666,7.448-2.001,11.006c-1.332,3.557-3.147,6.559-5.446,9.004c-2.147,2.372-4.148,3.558-6.002,3.558
		c-1.706,0-3.372-2.187-5.004-6.56c-1.63-4.594-2.52-9.968-2.67-16.118c-0.221-11.933,0.964-19.306,3.561-22.123
		C488.932,343.916,489.598,343.619,490.413,343.619"/>
	<path fill="#FFE100" d="M395.143,346.177c4.076-5.632,8.856-9.598,14.34-11.895l0.669,5.114c-4.816,2.297-8.672,5.558-11.563,9.783
		c-3.039,4.446-4.558,9.374-4.558,14.785c0,7.708,2.521,14.081,7.561,19.121c4.967,5.113,11.264,7.67,18.897,7.67
		c7.561,0,13.822-2.557,18.787-7.67c4.892-5.04,7.34-11.413,7.34-19.121c0-4.817-1.262-9.265-3.78-13.34
		c-2.374-3.78-5.634-6.968-9.782-9.561l2.222-3.891c4.373,2.668,7.931,6.336,10.673,11.005c2.815,4.817,4.226,9.857,4.226,15.119
		c0,8.819-2.667,16.23-8.006,22.233c-5.633,6.299-13.08,9.449-22.344,9.449c-8.152,0-15.379-3.113-21.68-9.338
		c-6.226-6.3-9.338-13.525-9.338-21.677C388.805,357.96,390.917,352.031,395.143,346.177"/>
	<path fill="#B4A258" d="M444.057,63.477c-2.964-4.595-13.452-10.339-31.46-17.232l-9.672-4.891
		c-4.448-2.372-6.523-3.964-6.227-4.78c11.413,3.484,22.866,7.856,34.352,13.117c12.007,5.56,18.416,9.524,19.232,11.896
		c0.814,2.668-1.074,12.117-5.668,28.347l-0.891,3.335c-0.447,1.63-1.483,2.26-3.114,1.89c-1.702-0.371-2.335-1.335-1.89-2.891
		C443.686,75.149,445.465,65.552,444.057,63.477"/>
	<path fill="#B4A258" d="M444.057,64.144l0.11,1c0,1.779-0.442,5.002-1.332,9.672l-3.894,16.119l-2.557-1.667l-2.222-1.333
		c-0.225-13.34-1.408-22.642-3.561-27.904l-2.556-4.224l-3.892-4.447c4.077,1.927,8.189,4.225,12.342,6.893
		C440.722,60.92,443.243,62.884,444.057,64.144"/>
	<path fill="#FFFFFF" d="M454.173,108.277l0.445-5.224l-0.223-4.892c0.442-0.37,1.889-0.964,4.336-1.778l0.556,6.226l-0.556,7.226
		L454.173,108.277"/>
	<path fill="#FFFFFF" d="M413.597,147.965l-2.445,8.56l-3.67,8.894c-4.891-6.596-7.93-11.709-9.116-15.342L413.597,147.965"/>
	<path fill="#B4A258" d="M430.938,60.03c0.963,2.298,1.594,6.819,1.891,13.563l0.556,21.677c0,2.298-0.853,2.928-2.557,1.89
		l-3.669-3.224c-0.223-0.296-1.332-0.963-3.333-2l-2.892-2.112l-2.669-6.671c-1.706-6.373-3.188-10.968-4.448-13.785
		c-2.074-4.595-4.892-8.337-8.447-11.227c-3.408-2.817-10.97-6.523-22.68-11.117c-12.747-4.966-23.752-8.265-33.017-9.895
		c1.408-2.297,3.039-4.336,4.892-6.114c2.445-2.297,4.595-3.482,6.447-3.558c5.93-0.296,18.379,3.743,37.353,12.118
		C418.152,48.247,429.012,55.065,430.938,60.03"/>
	<path fill="#922F00" d="M451.282,160.082l-2.891,5.558c-3.038-3.484-7.782-6.856-14.229-10.116
		c-6.376-3.26-12.673-5.521-18.9-6.781c3.928-1.705,10.189-2.521,18.787-2.445l19.678,1.89l1.11,7.114L451.282,160.082"/>
	<path fill="#FFFFFF" d="M459.509,164.75l1.111,3.113l-11.229-1.111c1.779-4.67,3.484-8.301,5.114-10.896
		C456.284,160.453,457.953,163.417,459.509,164.75"/>
	<path fill="#B4A258" d="M372.575,43.911c17.639,6.003,29.016,11.08,34.13,15.231c3.11,2.52,5.779,6.708,8.003,12.562l4.559,15.23
		l1.223,4.668l0.224,3.335c-0.149,1.927-0.52,3.001-1.113,3.224c-0.739,0.297-2.185-1.038-4.335-4.001
		c-3.704-5.262-6.632-8.931-8.78-11.006c-4.816-4.595-10.118-8.449-15.899-11.563c-13.044-7.263-31.535-6.003-55.473,3.78
		c-10.079,4.002-18.157,8.3-24.234,12.895c3.483-12.599,7.41-23.381,11.783-32.35c4.817-9.855,9.412-15.859,13.785-18.008
		C341.411,35.463,353.454,37.464,372.575,43.911"/>
	<path fill="#FFE100" d="M321.438,400.537c-5.336,0-9.894-2.186-13.673-6.559c-3.78-4.446-5.67-9.783-5.67-16.008
		c0-6.226,1.89-11.524,5.67-15.897c3.779-4.447,8.337-6.67,13.673-6.67s9.894,2.223,13.674,6.67
		c3.78,4.373,5.669,9.671,5.669,15.897c0,6.225-1.889,11.562-5.669,16.008C331.332,398.351,326.772,400.537,321.438,400.537"/>
	<path fill="#FFFFFF" d="M403.479,116.726l-7.227,0.89c1.334-3.705,1.964-7.522,1.89-11.451c4.595,2.965,8.08,5.781,10.449,8.45
		L403.479,116.726"/>
	<path fill="#D2DDF0" d="M533.101,164.195c-1.776-1.408-2.63-3.705-2.556-6.893c0-2.593,0.521-5.114,1.558-7.559l5.559-0.223
		c0.519,0.963,2,2.409,4.445,4.336c5.04,3.482,10.45,4.854,16.231,4.113l2.445,2.223l3.223,2.002
		c5.338,3.854,11.969,4.483,19.9,1.889l2.778,3.225c-0.521,3.038-1.407,5.669-2.669,7.894c-1.259,2.297-2.593,3.482-4.001,3.557
		c-6.597,0.741-14.525-0.296-23.792-3.113C546.739,172.829,539.031,169.012,533.101,164.195"/>
	<path fill="#FFFFFF" d="M459.065,162.972l-2.669-6.67l-2.113-7.448c4.15,1.038,7.708,2.409,10.672,4.113l-2.667,5.67
		L459.065,162.972"/>
	<path fill="#FFFFFF" d="M410.484,170.531c2.074-5.854,4.038-10.004,5.893-12.45l3.556,4.891l3.561,6.448L410.484,170.531"/>
	<path fill="#E50038" d="M454.173,103.608v4.669l-4.112-0.889l-0.334-4.447l4.002-4.113L454.173,103.608"/>
	<path fill="#FFFFFF" d="M367.571,95.048c2.817,0.222,6.67,1.075,11.562,2.557c-1.111,3.335-1.482,7.114-1.111,11.339
		c0.296,4.15,1.26,7.818,2.891,11.006l-15.23-0.89c-1.186-0.963-2.298-3.187-3.335-6.67c-1.112-3.632-1.705-7.078-1.779-10.338
		c0-3.261,0.557-5.337,1.667-6.226C362.977,95.086,364.755,94.827,367.571,95.048"/>
	<path fill="#E50038" d="M395.809,118.171l-14.673,1.334c-1.631-2.817-2.631-6.299-3.002-10.451
		c-0.445-4.224-0.148-7.966,0.89-11.227l6.892,2.89c3.631,1.631,5.448,2.372,5.448,2.223l6.336,3.335
		C398.144,110.5,397.513,114.466,395.809,118.171"/>
	<path fill="#E50038" d="M579.46,231.562c-5.634-1.556-9.562-2.335-11.783-2.335l-15.897-1.667l-13.563-2.89
		c4.298-4.003,11.377-5.966,21.232-5.893c8.005,0.074,14.6,1.186,19.788,3.335c3.779,1.556,7.041,3.446,9.784,5.669
		c3.037,2.372,4.853,4.67,5.445,6.893C590.613,234.305,585.609,233.267,579.46,231.562"/>
	<path fill="#E50038" d="M243.397,304.043c9.116-1.482,16.935-4.668,23.457-9.56c3.854-2.817,8.226-7.301,13.117-13.452l0.779,2
		l-2.113,7.894l-3.002,7.448c-1.63,2.742-5.336,5.41-11.117,8.004c-5.41,2.372-9.894,3.558-13.451,3.558
		C249.882,309.936,247.326,307.972,243.397,304.043"/>
	<path fill="#E50038" d="M537.437,240.011c0.373-0.519,1.113-0.704,2.225-0.556l1.444,0.333
		c23.643,8.745,41.984,14.748,55.028,18.009c-6.076,2.149-14.378,2.52-24.901,1.111c-10.448-1.407-18.676-3.964-24.678-7.669
		C542.627,248.645,539.587,244.902,537.437,240.011"/>
	<path fill="#E50038" d="M621.592,197.1l2.779-6.559c1.111-2.742,2.631-4.632,4.558-5.669c-4.15,25.198-6.595,45.318-7.337,60.364
		c-1.481-2.372-2.891-6.077-4.225-11.117c-1.261-4.817-1.892-8.746-1.892-11.784c0-4.299,0.705-9.042,2.113-14.229
		C618.701,204.104,620.036,200.435,621.592,197.1"/>
	<path fill="#E50038" d="M678.064,242.901v-2.557c0-10.449-1.703-27.606-5.114-51.47c2.891,4.817,5.707,13.748,8.45,26.792
		c2.595,12.451,3.891,22.382,3.891,29.793c0,5.928-1.742,12.413-5.226,19.454c-3.631,7.338-7.598,12.043-11.895,14.119
		C674.619,262.504,677.915,250.461,678.064,242.901"/>
	<path fill="#E50038" d="M574.68,292.927l34.239,1.112c-2.447,3.631-8.152,6.04-17.121,7.226l-23.679-0.89
		c-5.261-1.26-10.116-3.149-14.563-5.669c-5.114-2.89-8.3-5.966-9.561-9.227C552.001,288.74,562.229,291.222,574.68,292.927"/>
	<path fill="#E50038" d="M123.559,244.902c0.667-6.522,1.52-10.375,2.557-11.561c1.631,17.045,3.372,31.83,5.225,44.355
		c1.778,11.413,3.334,18.936,4.669,22.568c0.89,2.594,3.705,8.485,8.449,17.675l12.784,23.345
		c-8.079-4.817-14.415-9.967-19.01-15.452c-4.965-5.929-8.782-13.266-11.45-22.011c-2.816-9.116-4.225-22.271-4.225-39.465
		C122.559,257.316,122.893,250.831,123.559,244.902"/>
	<path fill="#E50038" d="M183.034,315.272c-9.265-4.447-17.824-18.75-25.68-42.911c-3.187-10.004-5.224-19.047-6.114-27.125
		c-0.963-8.522-0.37-14.007,1.778-16.453c3.78,13.118,8.265,27.236,13.452,42.354C172.473,288.777,177.995,303.488,183.034,315.272"
		/>
	<path fill="#E50038" d="M248.179,265.58l-3.335-0.445l-3.446-0.888l14.007-9.895l16.23-13.006
		c-0.445,6.299-3.632,11.894-9.561,16.785c-4.076,3.484-8.189,5.818-12.339,7.003L248.179,265.58"/>
	<path fill="#E50038" d="M653.165,185.316l0.556,3.892c0.222,4.076,0.702,7.448,1.444,10.115c0.89,3.633,1.333,7.523,1.333,11.673
		c0,2.964-0.443,7.855-1.333,14.674l-1.334,12.118c-0.52,7.041-1.521,13.452-3.001,19.232c-1.484,5.632-3.151,9.486-5.004,11.562
		l-0.111-7.005v-22.121c0.074-9.338,0.445-16.712,1.113-22.123l1.222-13.452l0.557-11.783c0.073-1.483,0.444-3.447,1.11-5.893
		c0.742-3.038,1.371-4.632,1.891-4.78C652.125,181.278,652.644,182.575,653.165,185.316"/>
	<path fill="#E50038" d="M225.5,242.457c-0.223-3.334,2.149-7.708,7.114-13.118c4.076-4.447,8.301-8.041,12.673-10.784
		c2.964-1.927,6.596-3.483,10.895-4.668c4.298-1.26,7.671-1.667,10.116-1.223c-5.188,3.113-12.08,7.818-20.678,14.118
		C236.432,233.379,229.724,238.603,225.5,242.457"/>
	<path fill="#E50038" d="M178.699,229.227c-2.743-2.445-3.076-4.038-1-4.779c11.561,7.486,19.565,14.267,24.011,20.343
		c6.375,8.522,9.857,19.639,10.449,33.35C201.339,255.834,190.186,239.529,178.699,229.227"/>
	<path fill="#CE7486" d="M396.143,149.855c-8.523,2.223-15.193,5.224-20.01,9.004c-4.817,3.779-7.559,8.115-8.226,13.007
		c-18.232-1.557-28.126-6.633-29.682-15.23c8.894,1.63,24.271,0.185,46.135-4.335L396.143,149.855"/>
	<path fill="#B5BFD0" d="M451.282,504.034c-1.334-7.707-0.705-15.712,1.891-24.013c1.927-6.078,5.446-13.675,10.561-22.789
		c-1.187,6.374-1.629,12.895-1.334,19.563c0.371,8.003,1.854,13.638,4.448,16.897c7.781,7.115,19.417,14.342,34.906,21.679
		c16.971,8.078,29.051,14.859,36.24,20.343l21.566,0.779l20.232,0.779c2.593,4.667,4.186,9.743,4.778,15.229l0.334,13.896
		c8.376,11.189,16.787,18.601,25.235,22.232c2.741,0.369,5.705-0.519,8.894-2.669l8.338-5.78c0,8.079-2.854,18.38-8.562,30.903
		l-12.673,26.569l-6.671,14.01c-2.224,5.631-3.113,10.672-2.667,15.115c0.443,4.152,2.335,8.115,5.668,11.896l5.561,4.56
		l6.337,4.225c-20.233-1.187-37.131,1.372-50.692,7.669c-16.604,7.634-23.977,19.493-22.123,35.574
		c-2.965-3.111-5.742-5.561-8.337-7.337l-5.227-3.113l-5.336-2.891l-5.67-3.78l-3.333-3.445c-0.669-1.704-1.187-6.076-1.558-13.114
		c-0.296-7.191-0.111-11.602,0.555-13.23l4.114-6.671l4.002-5.78l3.225-6.113c1.779-5.113,2.408-9.19,1.889-12.229l-1.445-3.557
		l-2.222-3.226l-5.336-7.115l-5.447-7.003c-4.15-5.633-6.412-8.968-6.781-10.005c-0.963-2.965-1.076-9.078-0.334-18.343
		c0.669-8.671,1.667-15.416,3.001-20.232c1.113-4.15,5.336-9.115,12.675-14.896l5.891-4.112c1.705-1.48,2.003-3.335,0.89-5.557
		l-1.888-4.894c-0.89-1.852-2.15-2.928-3.78-3.224l-6.336,0.111l-6.337,0.11c-4.225-0.371-11.487-3.521-21.79-9.448
		c-11.041-6.302-18.046-11.785-21.01-16.452l-2.001-3.338l-6.115-10.56C455.654,508.297,453.58,505.889,451.282,504.034"/>
	<path fill="#DCC200" d="M484.967,360.184c0.668,4.521,3.259,8.041,7.781,10.561c4.373,2.372,8.708,2.964,13.007,1.778
		c-3.409,8.227-5.893,13.044-7.447,14.452c-2.374,2.076-4.409,3.113-6.115,3.113c-1.705,0-3.335-1.89-4.891-5.669
		c-1.706-4.002-2.596-8.598-2.669-13.786C484.484,366.928,484.596,363.444,484.967,360.184"/>
	<path fill="#FFE100" d="M394.808,346.177c4.002-5.559,8.786-9.523,14.342-11.895l0.666,5.224
		c-4.816,2.298-8.671,5.559-11.561,9.783c-3.039,4.446-4.558,9.375-4.558,14.785c0,7.634,2.519,14.007,7.56,19.121
		c5.041,5.115,11.341,7.671,18.897,7.671c7.562,0,13.823-2.556,18.788-7.671c4.892-5.113,7.338-11.487,7.338-19.121
		c0-4.817-1.261-9.3-3.778-13.45c-2.372-3.78-5.634-6.968-9.782-9.561l2.222-3.78c4.375,2.667,7.93,6.336,10.672,11.006
		c2.816,4.817,4.226,9.857,4.226,15.118c0,8.82-2.666,16.194-8.005,22.123c-5.631,6.299-13.08,9.449-22.342,9.449
		c-8.154,0-15.382-3.113-21.681-9.338c-6.226-6.225-9.339-13.414-9.339-21.566C388.472,357.998,390.583,352.031,394.808,346.177"/>
	<path fill="#B4A258" d="M444.057,63.477c-2.964-4.595-13.452-10.339-31.46-17.232l-9.672-4.891
		c-4.448-2.372-6.523-3.964-6.227-4.78c11.413,3.484,22.866,7.856,34.352,13.117c12.007,5.56,18.416,9.524,19.232,11.896
		c0.814,2.668-1.074,12.117-5.668,28.347l-0.891,3.335c-0.447,1.63-1.483,2.26-3.114,1.89c-1.702-0.371-2.335-1.335-1.89-2.891
		C443.686,75.149,445.465,65.552,444.057,63.477"/>
	<path fill="#978949" d="M444.057,64.144l0.11,1c0,1.779-0.442,5.002-1.332,9.672l-3.894,16.119l-2.557-1.667l-2.222-1.333
		c-0.225-13.34-1.408-22.642-3.561-27.904l-2.556-4.224l-3.892-4.447c4.077,1.927,8.189,4.225,12.342,6.893
		C440.722,60.92,443.243,62.884,444.057,64.144"/>
	<path fill="#FFFFFF" d="M413.597,147.965l-2.777,8.893l-3.893,9.116c-1.259-1.629-2.778-4.15-4.558-7.559l-4.003-8.338
		L413.597,147.965"/>
	<path fill="#978949" d="M391.028,50.471c-7.56-3.335-15.378-6.263-23.458-8.783c17.565,1.261,32.054,6.189,43.47,14.786
		c13.117,9.931,18.896,22.826,17.342,38.687l-1.224-1.223c-0.223-0.296-1.332-0.963-3.333-2l-2.892-2.112l-2.669-6.671
		c-1.706-6.373-3.188-10.968-4.448-13.785c-2.074-4.595-4.892-8.337-8.447-11.227C403.071,56.214,398.292,53.657,391.028,50.471"/>
	<path fill="#FFFFFF" d="M459.509,164.75l1.111,3.113l-11.229-1.111c1.779-4.67,3.484-8.301,5.114-10.896
		C456.284,160.453,457.953,163.417,459.509,164.75"/>
	<path fill="#B4A258" d="M372.575,43.911c17.639,6.003,29.016,11.08,34.13,15.231c3.11,2.52,5.779,6.708,8.003,12.562l4.559,15.23
		l1.223,4.668l0.224,3.335c-0.149,1.927-0.52,3.001-1.113,3.224c-0.739,0.297-2.185-1.038-4.335-4.001
		c-3.704-5.262-6.632-8.931-8.78-11.006c-4.816-4.595-10.118-8.449-15.899-11.563c-13.044-7.263-31.535-6.003-55.473,3.78
		c-10.079,4.002-18.157,8.3-24.234,12.895c3.483-12.599,7.41-23.381,11.783-32.35c4.817-9.855,9.412-15.859,13.785-18.008
		C341.411,35.463,353.454,37.464,372.575,43.911"/>
	<path fill="#DCC200" d="M337.333,365.852c2.076,3.707,3.113,7.783,3.113,12.229c0,6.152-1.89,11.451-5.669,15.897
		c-3.78,4.373-8.338,6.559-13.674,6.559c-3.187,0-6.375-1.186-9.561-3.557c-2.964-2.224-5.373-4.966-7.226-8.226
		c10.08,1.482,18.232-0.742,24.458-6.67C333.518,377.637,336.371,372.227,337.333,365.852"/>
	<path fill="#B5BFD0" d="M532.88,164.195c-1.706-1.333-2.557-3.594-2.557-6.781c0-2.594,0.519-5.15,1.556-7.671l5.558-0.223
		c0.815,1.408,2.335,2.854,4.56,4.336c4.744,3.482,10.152,4.891,16.229,4.225l2.447,2.223l3.225,2
		c5.408,3.78,12.006,4.373,19.786,1.778l2.779,3.335c-0.444,2.965-1.334,5.596-2.667,7.893c-1.26,2.223-2.595,3.409-4.001,3.558
		c-6.597,0.667-14.491-0.371-23.679-3.113C546.628,172.792,538.882,168.938,532.88,164.195"/>
	<path fill="#FFFFFF" d="M459.065,162.972l-2.669-6.67l-2.113-7.448c4.15,1.038,7.708,2.409,10.672,4.113l-2.667,5.67
		L459.065,162.972"/>
	<path fill="#FFFFFF" d="M410.484,170.531c2.074-5.854,4.038-10.004,5.893-12.45l3.556,4.891l3.561,6.448L410.484,170.531"/>
	<path fill="#B5BFD0" d="M301.094,138.738l4.113,13.005c4.15,12.6,11.117,21.011,20.9,25.236
		c19.268,8.449,35.684,14.415,49.247,17.897c30.166,7.708,53.992,7.115,71.481-1.778l14.34,1.889
		c-6.15,7.708-16.34,14.119-30.571,19.232c-6.373,2.224-10.301,3.78-11.782,4.669c-2.891,1.705-3.967,3.742-3.225,6.114
		c-2.001-2.964-4.892-5.299-8.671-7.004l-11.339-3.668l-15.231-4.67l-16.23-5.113c-20.158-8.449-36.833-12.858-50.025-13.229
		c-13.785-0.296-25.05,3.707-33.795,12.006c-5.781-3.26-10.71-6.299-14.785-9.116c13.858-9.337,22.678-17.379,26.457-24.124
		c0.89-1.556,1.705-6.485,2.446-14.785c0.816-8.745,1.075-17.008,0.779-24.791C297.573,131.771,299.538,134.513,301.094,138.738"/>
	<path fill="#B5BFD0" d="M474.851,333.17l-20.788-5.559c-12.524-3.482-23.826-5.595-33.908-6.336
		c-11.562,0.963-27.755,4.298-48.58,10.004c-21.937,6.003-35.944,9.375-42.021,10.116c-18.75,8.301-32.313,18.379-40.688,30.237
		c-2.742-8.226-7.003-15.081-12.784-20.566c-6.522-5.261-11.228-9.449-14.118-12.562c12.154-7.041,20.565-14.007,25.234-20.899
		c5.115-7.56,7.56-17.528,7.338-29.904c2.668,6.448,6.559,11.895,11.672,16.341c7.708,6.744,17.342,10.116,28.904,10.116
		l39.021-2.223c17.416-1.927,31.016-4.668,40.8-8.226c3.63-1.26,7.447-4.446,11.45-9.56c3.483-4.521,5.41-7.893,5.781-10.116
		c0.593,0.889,1.073,4.928,1.444,12.117c0.295,6.447,1.445,10.375,3.445,11.783c4.67,3.262,13.971,6.042,27.901,8.338
		c12.973,2.149,23.196,2.927,30.684,2.335c1.927-0.149,5.633-2.298,11.116-6.448l10.896-7.781l-12.784,16.897
		c-5.93,7.485-11.19,11.895-15.784,13.229l-6.229,0.333L474.851,333.17"/>
	<path fill="#B5BFD0" d="M547.443,197.323c9.335-4.15,19.417-5.04,30.236-2.668c8.671,2.001,16.565,5.67,23.68,11.006
		c-1.26,1.26-1.814,4.224-1.667,8.894c0.146,4.891,1.11,12.895,2.891,24.012c-1.854-2.223-4.114-6.188-6.783-11.895
		c-2.741-5.781-5.224-10.08-7.446-12.896C580.57,203.845,566.935,198.36,547.443,197.323"/>
	<path fill="#B5BFD0" d="M368.017,489.805c1.631,1.778,2.854,4.892,3.668,9.34c0.667,3.928,0.853,7.3,0.557,10.116
		c-0.519,4.443-8.079,16.747-22.678,36.906c-15.045,20.898-25.421,32.534-31.127,34.905l-7.782,3.336l-9.561,3.445l1.667,1.112
		c-0.593,17.046-3.076,32.683-7.448,46.91c-2.817,9.34-5.818,16.492-9.004,21.457c-1.482,2.298-4.744,5.707-9.783,10.229
		l-12.006,11.67c-4.669,5.114-8.337,10.45-11.005,16.011c-1.482,3.111-1.26,7.112,0.667,12.004c1.927,4.967,5.039,9.34,9.337,13.119
		c-12.154-5.411-29.533-6.965-52.138-4.669c-23.197,2.298-40.65,7.67-52.36,16.118l5.558-7.447l2.78-4.002
		c0.963-1.484,1.519-2.929,1.668-4.335c-0.816-2.226-1.298-5.115-1.445-8.672c-0.075-4.075,0.445-7.3,1.556-9.671l4.78-7.115
		c2.076-2.892,3.298-5.447,3.668-7.671c0.519-2.964-0.11-8.671-1.89-17.119c-1.482-6.968-3.038-12.896-4.668-17.787
		c-0.519-1.927-0.778-4.485-0.778-7.671c-0.223-5.928,0.074-13.007,0.889-21.231l0.89-11.451c0.519-4.67,1.482-8.337,2.89-11.006
		c1.927-3.558,4.929-7.262,9.004-11.115c2.149-2.076,5.819-5.226,11.006-9.45l17.12-14.007c1.26,0.815,1.519,2.409,0.778,4.778
		c-0.592,2.076-1.705,4.076-3.335,6.004c-1.778,3.707-1.927,8.188-0.443,13.451c1.482,5.188,3.557,7.078,6.225,5.671
		c-1.482,4.299-2.187,8.112-2.112,11.45c0,1.555,1.223,4.335,3.668,8.337c2.815,4.743,5.632,7.67,8.449,8.781
		c2.594,1.111,5.706,1.482,9.338,1.111c4.743-0.52,8.411-0.592,11.005-0.221c6.003,4.594,12.081,5.262,18.232,2l14.785-11.896
		c1.26-12.449,2.558-20.678,3.891-24.679c1.186-3.558,3.001-5.373,5.448-5.447c-0.222-0.221-0.112-0.703,0.333-1.444l1-1.11
		c1.408-0.742,6.856-6.005,16.342-15.786c9.857-10.229,15.044-16.343,15.563-18.343c0.741-2.965,2.668-7.708,5.781-14.231
		c3.631-7.482,6.559-12.077,8.783-13.783l12.117-8.671C354.788,502.849,361.495,496.77,368.017,489.805"/>
	<path fill="#B5BFD0" d="M253.958,133.179l1.778-8.893c4.372,8.449,4.521,15.416,0.445,20.899c-2.076,2.743-4.595,4.632-7.559,5.67
		c2.445,4.299,3.854,7.929,4.224,10.895c0.296,2.445-0.11,4.965-1.223,7.559c-3.483,7.856-10.931,14.525-22.345,20.01
		c-5.706,2.742-11.042,4.707-16.008,5.893c-7.708,6.002-14.044,8.855-19.01,8.559c-1.556-0.074-2.854-0.445-3.891-1.112l-1.223-1
		l-7.781,3.225c2.964,10.005,1.667,16.304-3.891,18.898c-4.966,2.372-11.488,1.408-19.565-2.891
		c-8.301-4.373-14.415-10.265-18.343-17.675c-4.595-8.671-4.633-17.12-0.112-25.346c2.743-4.966,6.188-7.263,10.339-6.893
		c3.482,0.296,5.817,1.667,7.003,4.113l6.781,12.784c7.93,6.226,15.527,7.856,22.79,4.891c5.928-2.52,9.931-6.892,12.005-13.117
		c8.746-2.149,14.675-6.3,17.788-12.451l1.89-6.114l0.111-2.556c7.856,0,13.933-2.521,18.232-7.56
		c2.149-2.594,3.52-5.15,4.113-7.671C247.029,142.629,251.514,139.257,253.958,133.179"/>
	<path fill="#B5BFD0" d="M261.295,321.72c18.528-7.634,29.571-15.86,33.128-24.68l-2.334,8.005
		c-3.409,8.819-7.856,15.896-13.341,21.232c-6.669,6.448-17.527,13.749-32.572,21.9c-15.044,8.079-25.976,12.562-32.793,13.452
		l-1.224,4.113c-1.629,2.743-4.26,4.262-7.892,4.558l-19.565,1.778c-2.298,0.297-5.04-0.221-8.226-1.556l-4.002-2.001l-9.338,0.222
		c-5.706-1.111-11.969-3.187-18.788-6.225c-18.231-8.301-32.498-19.9-42.799-34.796c24.828,16.009,49.729,21.493,74.705,16.454
		c23.642-4.744,42.169-17.563,55.583-38.465c-1.259,6.003-3.001,11.414-5.225,16.231c-2.297,5.04-3.705,8.67-4.224,10.895
		C232.169,332.096,245.14,328.389,261.295,321.72"/>
	<path fill="#B5BFD0" d="M562.005,335.06c-14.229-2.668-27.161-6.856-38.797-12.562l-13.229-7.671l11.229-25.012
		c7.337,8.819,19.751,15.526,37.241,20.121c21.195,5.558,42.021,4.78,62.476-2.335l24.791-8.894
		c6.152-2.223,11.412-3.557,15.787-4.001c8.3-0.741,15.674-3.076,22.12-7.003c9.487-5.781,16.194-14.674,20.122-26.681
		l-5.114,19.232c-4.075,13.266-7.893,20.937-11.449,23.011c-3.483,2.149-6.855,3.854-10.115,5.113l-3.78,1.334
		c-10.598,14.897-17.229,22.678-19.898,23.346c-1.408,0.37-5.67-0.853-12.785-3.668c-7.261-2.816-11.597-4.188-13.007-4.114
		c-5.186,2.743-11.818,5.188-19.897,7.338C591.538,336.913,576.309,337.727,562.005,335.06"/>
	<path fill="#B5BFD0" d="M637.044,166.196c-4.667,7.412-13.599,14.303-26.792,20.677l4.559-10.116l-1.778-6.114l-14.007-1.557
		c-9.563-1.556-14.71-3.558-15.452-6.003l-10.563,1c-7.261-0.221-11.597-2.667-13.007-7.336c-2.667,0.445-5.594,0.482-8.781,0.111
		c-6.374-0.74-10.709-3.224-13.007-7.447c-7.042,1.259-12.563,0.037-16.563-3.669c-4.892-4.669-5.894-12.376-3.004-23.122
		c0.965,5.632,3.707,9.819,8.229,12.562c4.075,2.445,8.782,3.334,14.118,2.668c0.371,2.816,2.704,5.04,7.005,6.669
		c4.296,1.705,8.705,2.002,13.228,0.89c2.521,5.114,6.373,8.153,11.563,9.116c3.78,0.667,7.447,0.259,11.006-1.223
		c0.223,1.631,2.111,2.927,5.668,3.891c3.854,1.037,7.191,0.815,10.006-0.667c2.077-1.038,4.039-3.335,5.893-6.892
		c2.225-4.521,3.52-6.967,3.894-7.337c3.259-3.706,9.374-5.336,18.34-4.892c9.413,0.519,14.118,3.668,14.118,9.449
		C641.712,154.783,640.158,161.231,637.044,166.196"/>
	<path fill="#DBDCDC" d="M399.922,154.412l-1.334-4.779l16.899-1.779l-2.445,5.003c-2.891-0.89-5.967-0.89-9.228,0L399.922,154.412"
		/>
	<path fill="#DBDCDC" d="M454.839,153.078l-0.556-5.113l11.118,4.446l-1.558,5.113c-0.742-1.852-2.446-3.149-5.112-3.891
		L454.839,153.078"/>
	<path fill="#DBDCDC" d="M461.51,168.976l-13.563-0.89l3.226-6.336l1.89,2.112l7.56,0.444L461.51,168.976"/>
	<path fill="#DBDCDC" d="M412.929,162.638l1.445,3.225c1.705,1.927,4.374,2.112,8.005,0.555l1.334,2.558l-13.451,1.445
		L412.929,162.638"/>
	<path fill="#0D131A" d="M366.905,65.478c10.449-0.592,19.121,1,26.012,4.78c7.116,4.001,14.529,10.783,22.237,20.344
		c0.296,0.371,0.442,1.371,0.442,3.001s-0.146,2.261-0.442,1.89c-2.891-3.706-6.485-7.559-10.784-11.562
		c-4.819-4.446-9.155-7.745-13.009-9.894c-6.522-3.631-14.6-5.261-24.234-4.891c-9.561,0.296-19.529,2.521-29.904,6.67
		c-9.116,3.631-16.897,8.151-23.346,13.562c-6.373,5.262-10.375,10.523-12.006,15.786c-1.778,5.781-3.076,12.377-3.891,19.788
		c-0.519,4.67-0.963,11.339-1.333,20.011l-1.224,19.343c-0.741,6.522-2.038,11.933-3.891,16.231
		c-1.629,3.779-2.927,5.706-3.891,5.781c-1.037,0-0.889-1.853,0.445-5.559c1.705-4.817,2.927-10.414,3.668-16.787l1.334-19.121
		l0.778-20.678c0.519-8.152,1.667-15.081,3.446-20.788c1.705-5.485,6.04-11.006,13.007-16.563
		c6.744-5.262,15.007-9.894,24.791-13.896C346.153,68.479,356.751,65.997,366.905,65.478"/>
	<path fill="#0D131A" d="M350.673,201.436c-16.377-6.003-30.088-8.56-41.131-7.67c-10.598,0.889-20.529,4.817-29.792,11.783
		l-2.002-3.113c9.857-7.633,19.751-11.931,29.682-12.895c10.894-1.112,24.642,1.372,41.243,7.449l39.243,14.118
		c6.669,1.705,9.968,2.89,9.894,3.558l-10.339-0.778C383.767,213.22,371.5,209.07,350.673,201.436"/>
	<path fill="#0D131A" d="M496.307,181.315c9.114-0.149,17.898,1.741,26.346,5.669c7.189,3.335,13.415,7.783,18.678,13.341
		l-2.557,1.667c-4.968-5.04-10.896-9.005-17.79-11.896c-8.003-3.409-16.266-4.965-24.789-4.668
		c-13.487,0.592-26.051,5.15-37.686,13.674l-11.785,9.227c-4.075,3.113-7.521,5.003-10.338,5.669l-5.112,0.223
		c-0.298-0.592,1.074-1.445,4.112-2.556c2.89-1.039,6.485-3.298,10.782-6.781l12.229-10.006
		C470.105,186.132,482.745,181.611,496.307,181.315"/>
	<path fill="#0D131A" d="M454.839,166.196c6.376,0.371,10.487,2.001,12.341,4.892c1.334,2.074,1.074,5.002-0.779,8.782
		c-2.442,5.114-6.892,9.671-13.339,13.674c-7.188,4.446-15.305,7.114-24.345,8.004l-7.56-0.445c-0.891-0.815,0.775-1.445,5.002-1.89
		c8.743-0.89,16.749-3.668,24.013-8.337c6.151-3.854,10.301-7.968,12.448-12.341c1.188-2.445,1.372-4.335,0.558-5.669
		c-1.334-2.149-4.893-3.335-10.674-3.558l-20.896,1.223c-38.169,3.78-63.554,4.521-76.152,2.223
		c-6.151-1.185-10.783-3.224-13.896-6.114c-2.446-2.297-4.447-5.781-6.003-10.45c-0.148-0.371,0.37-0.667,1.556-0.89
		c1.26-0.146,1.964-0.037,2.112,0.334c2.446,7.41,9.302,12.005,20.566,13.785c13.192,2.074,37.056,1.407,71.593-2.002
		L454.839,166.196"/>
	<path fill="#0D131A" d="M460.063,109.39c7.486,3.631,12.896,8.448,16.231,14.452c2.815,5.04,3.891,10.264,3.225,15.675
		c-0.521,3.854-2.04,7.263-4.56,10.227c-2.445,2.964-5.224,4.78-8.337,5.448l-1.223-0.334c-7.412-5.262-20.641-7.448-39.688-6.559
		c-13.044,0.594-26.831,2.445-41.355,5.559c-23.346,4.817-39.243,6.077-47.691,3.78c-6.967-1.927-11.635-7.56-14.007-16.897
		c-0.889-3.78-1.074-6.115-0.555-7.003c0.519-0.963,1.445,0.259,2.779,3.668l4.446,9.894c2.001,3.039,4.706,5.15,8.116,6.336
		c7.782,2.891,23.197,1.927,46.245-2.891c14.526-2.964,28.017-4.817,40.468-5.558c19.86-1.111,33.943,0.963,42.241,6.226
		c2.374-0.592,4.375-2,6.005-4.225c1.63-2.223,2.633-4.928,3.002-8.114l0.111-2.446c0-4.521-1.337-8.82-4.003-12.896
		c-3.114-4.742-7.745-8.596-13.895-11.562c-7.413-3.557-16.713-4.15-27.906-1.778c-7.781,1.631-18.936,5.41-33.461,11.339
		c-4.817,1.927-6.818,2.372-6.003,1.333c0.741-1.111,3.521-2.891,8.338-5.336c12.6-6.3,23.606-10.227,33.019-11.783
		C442.205,104.238,451.689,105.387,460.063,109.39"/>
	<path fill="#0D131A" d="M460.62,93.937c1.558,3.483,1.444,9.227-0.332,17.23l-1.892,0.223c-1.185-0.223-1.739-0.519-1.666-0.89
		c1.406-6.447,1.406-11.338,0-14.673c-1.483-3.262-5.265-7.079-11.341-11.451c-0.371-0.223-0.26-0.927,0.335-2.112
		c0.592-1.187,1.074-1.667,1.445-1.445C454.653,86.156,459.14,90.528,460.62,93.937"/>
	<path fill="#0D131A" d="M292.422,216.665c2.076,3.188,3.001,5.448,2.78,6.781c-0.297,1.334-1.557,0.557-3.78-2.333
		c-6.077-7.708-10.969-13.192-14.675-16.453c-6.15-5.337-12.562-8.485-19.232-9.449c-9.931-1.409-19.306-1.594-28.125-0.557
		c-8.079,0.963-15.267,2.89-21.566,5.781l2.223-2.223l2.001-2.557c14.748-5.188,30.053-6.669,45.912-4.446
		c7.56,1.037,14.192,3.817,19.899,8.338C282.75,203.399,287.604,209.106,292.422,216.665"/>
	<path fill="#0D131A" d="M185.146,219.556c1.63-6.002,5.559-11.339,11.783-16.008h5.114c-3.632,2.223-6.707,5.003-9.228,8.338
		c-2.297,3.038-3.891,6.188-4.779,9.449l-1.557-0.222C185.517,220.446,185.071,219.927,185.146,219.556"/>
	<path fill="#0D131A" d="M256.404,133.179c-0.445-4.075-2.964-9.597-7.56-16.563c-5.113-7.781-10.894-14.044-17.341-18.787
		c-8.152-6.003-15.897-8.338-23.235-7.004c-3.482,0.667-9.227,2.446-17.23,5.336c-7.781,2.742-15.897,5.93-24.346,9.561
		c-5.262,2.297-9.968,5.336-14.118,9.115c-4.225,3.78-8.338,8.746-12.341,14.897l-10.338,12.896
		c-9.634,11.117-16.49,20.491-20.566,28.125c-6.966,13.043-10.079,26.791-9.337,41.243c0.592,10.82,0.296,32.868-0.89,66.145
		c-0.667,18.38-0.927,29.497-0.778,33.35c0.593,11.637,7.818,22.975,21.678,34.018c12.524,9.931,27.161,17.231,43.911,21.9
		l10.227,0.89l5.113,2.668l-16.119-0.667c-19.121-5.411-34.795-12.821-47.024-22.233c-14.081-10.82-21.454-22.9-22.122-36.24
		c-0.074-2.002,0.111-6.448,0.556-13.341l1.112-20.454c0.964-26.458,0.927-49.1-0.111-67.924
		c-0.741-14.896,2.334-28.645,9.227-41.243c3.558-6.522,10.524-15.749,20.9-27.68l6.226-7.115l5.892-7.559
		c4.225-6.226,8.523-11.265,12.896-15.119c4.373-3.928,9.3-7.077,14.785-9.449c21.715-9.264,35.722-14.489,42.021-15.675
		c4.002-0.741,8.338-0.408,13.007,1c4.595,1.408,9.116,3.743,13.562,7.003c6.745,4.966,12.858,11.933,18.343,20.9
		c4.817,7.782,7.485,14.044,8.004,18.788c0.591,5.925-0.928,10.668-4.561,14.226c-3.111,2.964-7.447,4.78-13.005,5.447
		c-0.445,0.075-0.741-0.407-0.89-1.445c-0.074-0.963,0.074-1.482,0.445-1.556c3.705-0.445,6.966-2.112,9.782-5.003
		C255.515,142.147,256.922,137.996,256.404,133.179"/>
	<path fill="#0D131A" d="M288.754,241.79c0.296-4.446,0.89-6.632,1.778-6.559c0.89,0,1.298,2.223,1.223,6.67
		c-0.074,6.448,1.297,17.602,4.113,33.462c1.854,14.97,0.63,27.087-3.668,36.351c-4.817,10.451-15.489,20.825-32.017,31.127
		c-14.229,8.82-29.978,16.046-47.246,21.678c0.37-2,0.815-3.521,1.333-4.558c17.193-5.78,32.276-12.821,45.246-21.121
		c15.118-9.709,24.901-19.714,29.348-30.016c3.631-8.374,4.632-20.38,3.002-36.018L288.754,241.79"/>
	<path fill="#0D131A" d="M490.413,214.332c-4.372-2.372-6.188-3.966-5.446-4.78c0.668-0.815,3.186,0.037,7.561,2.557
		c8.076,4.594,15.267,10.375,21.564,17.341c6.744,7.485,10.116,13.896,10.116,19.232v1c0,30.386-1.74,48.729-5.226,55.028
		c-5.634,10.079-11.931,18.306-18.897,24.68c-7.855,7.114-14.489,9.746-19.898,7.893c-26.237-8.745-47.431-13.785-63.587-15.118
		c-0.373-0.075-0.075-0.482,0.888-1.224c1.04-0.741,1.743-1.111,2.111-1.111c7.191,0.074,18.453,1.89,33.795,5.446
		c12.378,2.817,21.678,5.262,27.906,7.338c4.001,1.333,9.04-0.704,15.115-6.114c6.153-5.56,12.155-13.637,18.011-24.235
		c3.483-6.077,5.187-22.974,5.113-50.692v-1c0-4.817-3.112-10.931-9.338-18.343C504.496,225.485,497.898,219.519,490.413,214.332"/>
	<path fill="#0D131A" d="M259.851,340.951c-0.445-0.147-0.222-0.741,0.667-1.778c0.889-1.037,1.556-1.445,2-1.223
		c5.559,2.52,10.895,6.632,16.008,12.339c5.115,5.781,8.671,11.672,10.673,17.675l-0.557,2.668c-0.519,1.335-0.852,1.743-1,1.224
		c-1.778-5.485-5.632-11.451-11.562-17.899C270.375,347.585,264.963,343.249,259.851,340.951"/>
	<path fill="#0D131A" d="M304.429,353.18c8.671-6.522,17.565-11.154,26.68-13.896h10.451c-12.377,3.188-23.049,7.93-32.017,14.229
		c-7.708,5.337-13.822,11.451-18.343,18.344c5.559,13.265,6.596,27.198,3.113,41.799c-2.89,12.225-6.522,19.304-10.894,21.23
		l-5.226,2.446c-2.594,1.187-3.854,1.555-3.78,1.111c0.075-0.595,0.481-1.224,1.223-1.89l2.557-2.004
		c5.93-5.26,10.19-13.229,12.785-23.899c3.113-13.116,1.927-25.864-3.558-38.24c-0.222-0.667-0.184-1.261,0.112-1.78
		C291.088,364.852,296.722,359.035,304.429,353.18"/>
	<path fill="#0D131A" d="M414.597,226.227c-2.298-3.483-2.89-5.373-1.776-5.67c1.11-0.222,3.037,1.408,5.78,4.892
		c3.558,4.521,6.632,9.041,9.228,13.562c3.26,5.854,5.075,10.784,5.446,14.785c0.368,4.817,0.444,13.637,0.222,26.458
		c-0.295,14.007-0.891,22.307-1.779,24.901c-1.332,4.076-2.964,7.448-4.891,10.116c-4.149,6.003-9.411,9.079-15.784,9.227
		c-6.523,0.223-16.679,2.409-30.462,6.559c-16.453,4.966-29.645,8.227-39.576,9.784l-15.452,0.778
		c-4.52-0.667-9.19-2.742-14.007-6.226c-3.26-2.372-7.226-5.965-11.895-10.783l-10.34-10.672c1.038-1.557,1.594-2.928,1.668-4.114
		l12.451,11.896l11.339,10.228c3.409,2.816,6.818,4.631,10.227,5.447c3.78,0.889,8.598,0.852,14.452-0.111
		c6.15-1.038,18.787-4.187,37.908-9.449c16.23-4.446,27.423-6.744,33.573-6.893c4.743-0.074,8.637-2.223,11.675-6.447
		c1.703-2.372,3.298-5.818,4.778-10.339l0.112-0.333c0.815-2.298,1.298-9.747,1.444-22.345c0.223-11.932,0.11-20.418-0.334-25.457
		C428.012,249.276,423.345,239.344,414.597,226.227"/>
	<path fill="#0D131A" d="M528.656,210.219c-2.742,2.445-4.113,3.038-4.113,1.778c0-1.333,1.371-3.224,4.113-5.669
		c10.745-9.487,23.714-14.082,38.907-13.786c14.156,0.297,25.531,4.448,34.13,12.452c0.368,0.296,0.221,0.814-0.445,1.556
		c-0.666,0.742-1.188,0.963-1.556,0.667c-7.486-7.041-18.084-10.672-31.795-10.895C552.557,196.026,539.477,200.658,528.656,210.219
		"/>
	<path fill="#0D131A" d="M631.486,324.054c-13.119,10.153-30.83,15.083-53.139,14.786c-25.645-0.371-49.137-8.264-70.479-23.68
		l1.889-3.446c20.011,14.452,42.652,22.086,67.924,22.901c22.977,0.667,40.873-3.965,53.693-13.896
		c2.891-2.298,4.374-2.891,4.448-1.779C635.896,320.052,634.451,321.757,631.486,324.054"/>
	<path fill="#0D131A" d="M653.052,107.61c11.043,8.82,18.937,17.269,23.68,25.348c2.891,4.891,5.372,11.598,7.446,20.121
		c0.964,3.928,3.372,11.562,7.227,22.901c5.412,15.416,8.896,26.569,10.451,33.461c3.112,13.933,4.482,29.312,4.113,46.135
		c-0.222,12.228-2.779,23.456-7.671,33.683c-3.262,6.893-6.485,11.635-9.672,14.229c-2.222,1.927-4.817,3.484-7.781,4.67
		l-6.56,2.111c-2.594,0.741-4.188,1.334-4.78,1.779c-3.482,2.593-5.482,3.446-6.003,2.556c-0.519-0.89,1.001-2.593,4.559-5.113
		c1.109-0.89,3.593-1.815,7.446-2.779l4.782-1.557l5.668-3.891c2.596-2.52,5.151-6.299,7.671-11.339
		c4.967-10.006,7.597-21.456,7.893-34.351c0.374-16.824-0.851-32.017-3.667-45.579c-1.705-8.226-4.966-19.232-9.782-33.017
		l-4.114-12.229l-2.669-10.004c-1.927-8.153-4.223-14.489-6.892-19.01c-4.446-7.559-12.005-15.638-22.677-24.234
		c-17.194-13.711-36.538-22.568-58.03-26.57c-17.49-3.26-32.166-2.964-44.022,0.89c-5.854,1.854-12.19,8.301-19.009,19.343
		c-6.598,10.673-10.413,20.122-11.45,28.348c-0.593,4.891,1.851,9.004,7.336,12.34c4.965,2.964,9.079,3.891,12.339,2.778
		l1.002,1.224c0.296,0.963,0.259,1.519-0.112,1.667c-4.965,1.63-10.447,0.593-16.453-3.112c-6.597-4.002-9.485-9.302-8.671-15.897
		c1.111-8.894,5.373-18.861,12.785-29.904c7.562-11.266,14.674-17.973,21.344-20.122c12.451-4.001,27.46-4.521,45.022-1.556
		C615.811,84.636,635.563,93.529,653.052,107.61"/>
	<path fill="#0D131A" d="M493.524,332.502l-1.333,10.896l-3.778,1.556c0.295-6.299,0.668-10.042,1.109-11.227
		c0.074-0.371,0.779-0.706,2.114-1.001L493.524,332.502"/>
	<path fill="#0D131A" d="M495.752,395.869c0.887,2.816,3.333,6.594,7.334,11.338c5.412,6.299,11.304,10.672,17.677,13.117
		l-7.447,0.666c-5.929-2.74-10.857-6.671-14.786-11.783c-2.223-2.89-4.445-6.781-6.671-11.671l-1.224-10.006l3.78,1.78
		L495.752,395.869"/>
	<path fill="#0D131A" d="M353.341,404.316c-23.197,2.445-43.281,6.076-60.252,10.893v-3.778c16.304-4.52,36.389-8.15,60.252-10.894
		l30.906,3.89c2.742,2.226,5.483,4.005,8.227,5.337C375.946,408.947,362.902,407.133,353.341,404.316"/>
	<path fill="#0D131A" d="M493.972,394.868l0.111,2.112l0.443,1.667l-15.229,0.89c-6.227,3.556-16.379,6.298-30.46,8.226
		c2.001-1.186,3.891-2.891,5.67-5.112c9.338-1.556,17.343-3.78,24.011-6.67L493.972,394.868"/>
	<path fill="#0D131A" d="M275.081,435.89c9.561-5.338,21.048-5.634,34.462-0.89c11.784,4.224,23.493,11.636,35.129,22.232
		c10.968,9.93,19.231,20.193,24.79,30.792c5.781,11.119,6.93,19.493,3.447,25.124c-12.674,20.38-23.864,36.909-33.574,49.581
		c-9.708,12.675-16.526,19.678-20.454,21.012l-11.006,3.001c-5.485,1.928-9.339,4.112-11.562,6.562
		c-2.964,3.333-4.521,4.369-4.668,3.11c-0.074-1.259,1.445-3.409,4.558-6.449c2.372-2.296,6.262-4.594,11.672-6.892
		c4.446-1.854,7.781-2.928,10.005-3.225c2.815-0.369,8.56-6.371,17.23-18.007c8.745-11.712,19.676-28.091,32.795-49.137
		c3.854-6.229,2.89-14.564-2.891-25.016c-5.336-9.56-13.525-18.936-24.568-28.123c-11.19-9.339-22.345-15.971-33.462-19.9
		c-12.376-4.445-22.27-4.557-29.682-0.332c-7.708,4.446-15.6,10.004-23.679,16.674c-5.262,4.522-10.708,9.821-16.341,15.897
		c-8.746,9.487-15.231,18.158-19.455,26.014c-2.076,3.929-2.927,20.642-2.557,50.138l-0.111,13.895
		c-0.149,2.669-0.556,4.891-1.223,6.67c-0.816,2.15-2.298,4.522-4.448,7.115c-2.668,3.262-4.335,4.56-5.001,3.891
		c-0.741-0.666,0.259-2.669,3.001-6.002c1.631-2.074,2.742-4.075,3.335-6.002l0.778-5.78v-13.785l-0.223-32.685
		c0.223-10.375,1.039-16.86,2.446-19.454c4.225-7.854,10.635-16.64,19.232-26.348c6.448-7.263,12.043-12.895,16.787-16.897
		C255.479,447.783,263.89,442.187,275.081,435.89"/>
	<path fill="#0D131A" d="M213.382,558.729c0.37-0.225,0.741,0.297,1.111,1.556c0.371,1.259,0.371,2.001,0,2.222
		c-5.484,3.265-12.562,8.821-21.233,16.678c-9.857,8.819-15.452,15.268-16.786,19.345c-0.963,2.813-1.965,10.338-3.002,22.565
		c-1.111,13.488-1.074,22.122,0.112,25.902c1.63,5.038,3.187,11.006,4.669,17.896c1.778,8.45,2.409,14.155,1.89,17.121
		c-0.519,2.814-3.113,7.484-7.782,14.006c-1.186,1.778-1.853,4.521-2.002,8.229c-0.074,3.407,0.334,6.595,1.223,9.559l-1.556,2.56
		l-2,1.444c-1.039-3.633-1.52-8.041-1.445-13.229c0.147-5.707,1.074-9.484,2.779-11.338c4.595-4.893,7.152-8.784,7.671-11.675
		c0.37-2.369-0.371-7.373-2.223-15.008c-1.482-6.149-3.225-12.339-5.226-18.563c-1.26-4.225-1.333-13.378-0.222-27.459
		c0.963-12.822,2-20.824,3.113-24.013c1.556-4.667,7.781-11.672,18.676-21.012C200.117,567.881,207.527,562.285,213.382,558.729"/>
	<path fill="#0D131A" d="M297.204,625.318c2.89-13.193,4.039-25.605,3.446-37.241c0-0.224,0.667-0.595,2-1.111l2.002-0.111
		c0.815,12.006-0.297,24.976-3.335,38.909c-3.039,13.934-7.115,24.899-12.229,32.904l-4.781,5.227l-6.447,5.557
		c-5.113,4.744-8.856,8.487-11.229,11.228c-4.299,4.817-7.745,9.896-10.339,15.231c-1.259,2.52-1.852,4.743-1.778,6.67
		c0.074,2.225,1,4.741,2.779,7.559c1.779,2.891,5.299,6.188,10.561,9.896c6.077,4.373,11.488,6.817,16.231,7.337
		c0.666,0.076-0.148,0.48-2.447,1.224l-4.558,0.557c-4.669-1.63-9.449-4.485-14.34-8.562c-4.15-3.333-7.041-6.3-8.671-8.893
		c-1.927-3.038-2.964-5.854-3.113-8.45c-0.147-2.593,0.519-5.521,2.002-8.781c2.742-5.482,6.41-10.821,11.005-16.008
		c2.594-2.964,6.522-6.892,11.784-11.783c5.187-4.67,8.449-8.078,9.782-10.229C290.421,648.811,294.313,638.436,297.204,625.318"/>
	<path fill="#0D131A" d="M372.463,506.146c8.152-6.373,20.38-10.116,36.686-11.229c16.009-1.037,29.424,0.781,40.242,5.449
		c0.444,0.224,1.186,1.445,2.225,3.669c1.037,2.223,1.335,3.149,0.888,2.778c-7.484-5.854-21.271-8.228-41.354-7.113
		c-20.457,1.186-33.351,5.373-38.687,12.561c-0.371,0.446-0.557-0.369-0.557-2.443C371.833,507.665,372.019,506.443,372.463,506.146
		"/>
	<path fill="#0D131A" d="M511.091,422.659c-17.787-0.74-33.387,11.785-46.802,37.575c-4.892,9.411-8.447,18.711-10.672,27.903
		c-2.076,8.744-2.225,13.931-0.444,15.563c1.853,1.706,3.891,4.188,6.114,7.447l6.003,9.562l2.112,3.226
		c2.965,4.596,9.894,10.077,20.788,16.452c10.228,5.854,17.416,9.005,21.565,9.447l8.449-0.332c4.521-0.076,7.521,0.371,9.006,1.334
		c3.259,2.148,4.965,3.854,5.112,5.112c0.146,1.259-1.408,0.854-4.671-1.224c-2.147-1.332-5.594-1.889-10.338-1.666l-4.001,0.556
		l-4.336,0.334c-4.596-0.519-12.265-3.965-23.013-10.338c-11.487-6.818-18.897-12.822-22.233-18.011l-2-3.226l-5.671-9.447
		c-2.074-3.336-3.964-5.707-5.668-7.115c-2.226-2-2.408-7.744-0.558-17.231c2.003-9.93,5.521-20.009,10.562-30.235
		c13.71-27.793,30.646-41.242,50.804-40.354c18.826,2.814,38.982,11.078,60.478,24.79c21.786,13.857,35.274,27.234,40.465,40.131
		l6.893,16.118c2.594,6.3,4.371,11.599,5.336,15.897c2.965,13.636,6.002,23.752,9.116,30.349c4.594,9.709,4.929,18.714,0.998,27.015
		c-1.332,2.667-3.962,6.112-7.891,10.34l-3.559,2.999l-3.111,2.781c-2.448,2.892-3.854,3.963-4.226,3.224
		c-0.371-0.813,0.519-2.816,2.667-6.005l6.226-6.893l5.893-7.447c3.633-7.634,3.372-15.859-0.777-24.679
		c-1.854-3.854-3.559-8.561-5.114-14.12l-3.778-15.784c-0.889-4.15-2.632-9.079-5.225-14.786l-6.783-14.895
		c-5.707-14.157-19.824-28.388-42.354-42.689C544.813,430.551,526.355,423.325,511.091,422.659"/>
	<path fill="#0D131A" d="M625.706,580.184c0-0.442,0.59-1.11,1.777-2.001c1.187-0.891,1.815-1.147,1.89-0.776
		c0.816,6.521-0.369,14.563-3.559,24.121c-2.074,6.376-5.481,14.452-10.226,24.236l-3.338,6.78l-9.003,18.119
		c-2.891,6.521-4.335,11.822-4.335,15.896c0,3.262,2.037,6.817,6.112,10.673l14.563,11.34l1.111,0.776l22.012,14.564
		c8.672,5.112,14.378,7.781,17.119,8.003l-8.337,0.334c-4.893-2.298-10.856-5.56-17.898-9.782
		c-6.67-4.001-12.115-7.561-16.342-10.672l-1-0.779c-7.041-5.188-11.933-9.264-14.676-12.228c-3.854-4.151-5.78-8.229-5.78-12.229
		c0-4.594,1.188-9.969,3.56-16.118c1.481-3.854,4.223-9.855,8.227-18.012l3.335-6.777l10.338-23.013
		C624.593,593.671,626.075,586.188,625.706,580.184"/>
	<path fill="#0D131A" d="M511.201,573.959l9.006-6.894l5.226-5.002v-0.557l-1.11-5.004l-1.559-4.445
		c-0.147-0.225,0.334-0.481,1.444-0.778c1.11-0.296,1.778-0.296,2.001,0l2.113,5.56c1.036,3.633,1.073,6.002,0.11,7.112l-6.337,5.56
		l-7.56,6.449c-2.667,2.741-4.3,5.227-4.893,7.447c-1.334,4.892-2.335,11.673-3.001,20.344c-0.742,9.189-0.629,15.269,0.334,18.231
		c0.369,1.037,2.63,4.373,6.779,10.006l12.229,16.34c4.149,6.597,6.076,12.49,5.781,17.677c-0.295,3.706-0.964,5.67-2.001,5.895
		c-1.037,0.295-1.558-1.338-1.558-4.895c0-4.594-2.075-10.264-6.225-17.008l-11.675-16.121c-4.223-5.333-6.631-8.966-7.226-10.893
		c-1.111-3.038-1.667-6.3-1.667-9.782c0-4.965,0.371-10.638,1.11-17.009c0.742-6.004,1.56-10.637,2.448-13.896
		C505.718,579.701,507.793,576.924,511.201,573.959"/>
	<path fill="#0D131A" d="M525.652,653.22l1.445,2.335l1.225,3.779c-1.11,4.522-4.188,10.414-9.228,17.677
		c-2.224,3.111-3.596,5.336-4.114,6.671c-0.668,1.629-0.851,6.075-0.556,13.342c0.369,7.039,0.89,11.375,1.557,13.007
		c0.444,1.109,3.521,3.186,9.229,6.223c3.854,2.001,7.149,3.928,9.893,5.781c3.631,2.595,7.228,5.968,10.783,10.116
		c3.261,3.854,5.67,7.3,7.227,10.338c0.814,1.632,5.15,2.964,13.007,4.003c5.336,0.813,11.375,0.888,18.119,0.224
		c7.634-0.742,12.972-2.261,16.01-4.559c1.779-1.335,3.299-3.148,4.557-5.449c1.335-2.369,2.148-4.778,2.448-7.226
		c0.442-3.929-0.669-7.559-3.338-10.895c-3.038-3.928-7.3-6.002-12.783-6.226c-3.854-0.225-7.708,0.334-11.562,1.669
		c-3.78,1.332-6.93,3.186-9.45,5.558c-2.296,2.298-3.482,2.816-3.558,1.556c0-1.185,1.148-2.964,3.446-5.334
		c5.409-5.041,12.709-7.339,21.901-6.894c6.447,0.297,11.487,2.445,15.118,6.446c3.557,4.002,5.002,9.006,4.336,15.008
		c-0.371,2.964-1.298,5.78-2.78,8.45c-1.481,2.669-3.298,4.779-5.446,6.336c-3.411,2.521-9.301,4.262-17.677,5.226
		c-7.561,0.815-14.154,0.776-19.788-0.112l-10.34-2.223c-2.667-0.89-4.335-2.038-4.999-3.445c-1.337-2.67-3.78-5.969-7.339-9.896
		c-3.633-3.928-7.228-7.152-10.783-9.67c-1.927-1.337-5.114-3.188-9.562-5.56l-6.78-3.892c-2-1.334-3.263-2.593-3.779-3.78
		c-0.891-2-1.482-6.854-1.78-14.563c-0.295-7.854-0.034-12.785,0.779-14.786c0.371-0.963,2.186-3.706,5.449-8.226l5.889-9.339
		C524.43,660.966,525.506,657.073,525.652,653.22"/>
	<path fill="#0D131A" d="M180.032,203.993c0.075-0.445,0.593-0.594,1.557-0.445c1.038,0.148,1.519,0.408,1.445,0.778
		c-0.445,3.262-0.148,6.375,0.889,9.338c1.038,2.964,2.631,5.188,4.78,6.67c7.338,5.188,15.638,13.71,24.901,25.569
		c11.118,14.081,17.602,26.235,19.455,36.463c1.408,8.004,1.482,15.637,0.222,22.901c-0.741,4.075-1.631,6.781-2.668,8.114
		c-1.037,1.26-1.186-0.148-0.445-4.224c0.594-3.262,0.815-7.523,0.667-12.784c-0.074-4.966-0.408-9.116-1-12.452
		c-1.705-9.708-7.967-21.641-18.788-35.795c-9.189-12.079-17.193-20.528-24.011-25.345c-2.668-1.853-4.632-4.484-5.892-7.893
		C179.883,211.478,179.514,207.847,180.032,203.993"/>
	<path fill="#0D131A" d="M220.498,335.615c0-3.334,0.371-4.706,1.112-4.113c0.741,0.519,1.111,2.446,1.111,5.781
		c0,4.743-2.001,11.857-6.003,21.345l-4.446,11.227c-1.334,1.778-4.743,2.631-10.227,2.558h-7.226l-7.561,0.888
		c-2.445,0.667-5.965,0.26-10.56-1.223c-3.929-1.26-6.782-2.519-8.561-3.779c-2.816-1.853-4.262-3.335-4.335-4.447
		c-0.074-1.111,1.297-0.741,4.113,1.112c1.631,1.112,4.558,2.297,8.783,3.558c4.743,1.409,8.004,1.852,9.782,1.333l14.897-1.112
		c3.483,0,5.892-0.667,7.226-2.001c1.037-1.037,2.668-4.113,4.891-9.227l4.668-11.562
		C219.72,341.508,220.498,338.061,220.498,335.615"/>
	<path fill="#0D131A" d="M625.706,327.389c-0.373,0.148-0.334-0.333,0.108-1.445c0.521-1.111,1.003-1.705,1.444-1.778
		c2.374-0.371,6.229,0.556,11.563,2.779c3.113,1.334,5.56,2.223,7.339,2.668l7.226,0.557c2.743-0.445,7.113-4.817,13.118-13.119
		l4.667-6.336c1.188-1.556,2.3-2.519,3.338-2.89c0.368-0.148,0.852-0.037,1.444,0.334c0.593,0.37,0.703,0.629,0.335,0.778
		c-0.669,0.223-1.745,1.445-3.225,3.668l-4.114,6.226l-7.562,9.894c-2.964,3.26-5.482,5.077-7.558,5.446
		c-2.445,0.371-5.299,0-8.562-1.111l-8.003-3.335C632.227,327.722,628.373,326.944,625.706,327.389"/>
	<path fill="#0D131A" d="M611.254,170.531c0-0.37,0.518-0.556,1.556-0.556c0.965,0,1.445,0.186,1.445,0.556l0.556,2.445l1,4.558
		c0,0.816-2.073,5.226-6.226,13.229c-5.188,10.598-7.931,16.489-8.226,17.675c-1.037,4.076-1.001,9.894,0.111,17.454
		c0.964,6.967,2.519,13.562,4.668,19.788c1.188,3.779,1.113,5.114-0.224,4.001c-1.332-1.111-2.63-3.558-3.889-7.336
		c-2.15-6.375-3.56-12.525-4.228-18.455c-0.664-6.299-0.442-11.672,0.668-16.118c0.445-1.854,3.298-7.968,8.562-18.343l5.779-11.896
		l-0.777-3.779L611.254,170.531"/>
	<path fill="#0D131A" d="M550.776,114.615c1.928-2.149,3.521-3.262,4.78-3.335c1.335-0.148,1.074,0.889-0.779,3.113
		c-3.479,4.224-6.743,9.857-9.781,16.897c-3.26,7.337-4.669,12.709-4.224,16.119c0.295,2.594,3.038,4.855,8.226,6.782
		c4.967,1.852,8.819,2.371,11.562,1.556l1.003,1.223c0.222,0.964,0.147,1.519-0.224,1.668c-3.928,1.186-8.896,0.704-14.897-1.445
		c-6.373-2.298-9.781-5.262-10.227-8.894c-0.445-3.928,1.113-9.745,4.67-17.453C544.146,123.729,547.443,118.32,550.776,114.615"/>
	<path fill="#0D131A" d="M572.455,119.728c2.074-2.52,3.78-3.854,5.115-4.002c1.334-0.074,0.926,1.149-1.226,3.668
		c-3.11,3.78-6.373,9.931-9.782,18.455c-3.409,8.449-5.04,14.489-4.891,18.12c0.146,2.519,2.74,4.521,7.781,6.003
		c5.188,1.482,9.745,1.482,13.673,0c0.371-0.074,0.742,0.333,1.111,1.223c0.373,0.963,0.373,1.482,0,1.556
		c-5.854,2.149-11.709,2.186-17.563,0.112c-5.781-2.001-8.745-5.003-8.894-9.005c-0.222-3.854,1.332-9.856,4.67-18.008
		C565.785,129.845,569.122,123.805,572.455,119.728"/>
	<path fill="#0D131A" d="M593.465,129.065c2.596-3.854,4.596-5.892,6.004-6.114c1.408-0.222,0.779,1.556-1.89,5.336
		c-3.333,4.891-6.337,11.117-9.006,18.677c-2.518,7.263-3.593,12.265-3.223,15.007c0.298,2.075,4.706,3.928,13.23,5.559
		c8.15,1.631,13.006,2,14.56,1.111c1.335-0.741,2.521-1.705,3.561-2.89l2.11-3.557l0.335-2.78c0-1.26-0.15-2.112-0.445-2.557
		l-7.896,1.557c-4.74-0.074-6.853-0.593-6.336-1.557c0.521-0.962,2.892-1.519,7.117-1.667l7.56-1.334
		c0.89,0.148,1.519,0.555,1.89,1.223c1.259,1.705,1.445,4.335,0.556,7.893c-0.371,1.556-1.298,3.26-2.778,5.114
		c-1.482,1.778-2.966,3.113-4.446,4.002l-17.121-0.89c-10.375-1.705-15.858-4.484-16.453-8.337
		c-0.442-3.188,0.669-8.338,3.338-15.453C586.797,140.22,589.91,134.105,593.465,129.065"/>
	<path fill="#0D131A" d="M613.255,151.3c0.89,1.111,1.964,1.778,3.226,2.001c2.222,0.37,4.001-0.371,5.334-2.223
		c2.149-2.743,3.483-3.929,4.001-3.558c0.595,0.37-0.108,2.038-2.109,5.003c-2.076,3.038-4.709,4.297-7.896,3.779
		c-2.222-0.445-3.632-1-4.223-1.667c-1.039-1.038-1.892-3.26-2.558-6.669c-0.593-3.188-0.706-5.151-0.332-5.893
		c0.441-0.815,1.109,0.223,2,3.113C611.513,148.001,612.365,150.039,613.255,151.3"/>
	<path fill="#0D131A" d="M638.157,147.853c1.332-2.372,2.147-3.224,2.442-2.556c0.299,0.666-0.072,2.297-1.11,4.891
		c-1.557,4.15-4.372,8.263-8.449,12.339c-0.89,0.89-2.704,1.26-5.447,1.112c-2.519-0.149-4.372-0.594-5.557-1.335
		c-0.298-0.222-0.186-0.741,0.332-1.556c0.521-0.89,0.929-1.223,1.224-1.001l3.335,0.557l4.002-0.89l4.446-4.446L638.157,147.853"/>
	<path fill="#0D131A" d="M531.879,149.743l2.445-0.223c1.335,0.149,1.891,0.408,1.667,0.778c-1.186,2.149-1.928,4.298-2.223,6.448
		c-0.369,2.89,0.371,5.04,2.223,6.448c5.56,4.15,12.601,7.559,21.121,10.227c8.523,2.668,15.714,3.705,21.567,3.113
		c1.335-0.074,2.594-1.186,3.78-3.335c1.261-2.074,2.037-4.483,2.335-7.226c0.073-0.445,0.666-0.445,1.777,0
		c1.187,0.445,1.742,0.853,1.669,1.223c-0.445,3.41-1.298,6.262-2.56,8.56c-1.554,2.668-3.445,4.113-5.668,4.336
		c-6.226,0.592-14.229-0.594-24.013-3.558c-9.782-2.964-17.564-6.596-23.345-10.895c-2.521-1.927-3.634-4.595-3.336-8.004
		C529.471,155.191,530.323,152.56,531.879,149.743"/>
	<path fill="#0D131A" d="M216.939,120.506c-3.26-2-4.224-3.187-2.891-3.558c1.261-0.296,3.447,0.594,6.559,2.668
		c5.781,4.003,11.118,9.042,16.009,15.119c4.742,5.855,7.411,10.598,8.004,14.23c0.445,2.445-0.037,5.299-1.445,8.559
		c-1.334,3.262-3.15,5.93-5.448,8.004c-3.928,3.707-9.635,4.67-17.12,2.891c-0.444-0.074-0.556-0.593-0.333-1.556
		c0.296-1.037,0.63-1.482,1-1.334l7.671-0.221c2.594-0.667,4.928-1.965,7.003-3.891c1.853-1.706,3.187-3.633,4.002-5.781
		c0.889-2.149,1.148-4.188,0.778-6.115c-0.741-3.928-3.706-9.004-8.894-15.229C226.723,128.065,221.756,123.47,216.939,120.506"/>
	<path fill="#0D131A" d="M193.595,131.178c1.038-0.37,3.372,0.778,7.004,3.446c4.446,3.113,8.967,7.708,13.562,13.786
		c5.262,6.965,8.337,13.081,9.227,18.343c0.815,4.373-0.89,9.041-5.113,14.007c-2.521,2.964-5.781,5.336-9.783,7.114
		c-3.557,1.631-6.929,2.446-10.117,2.446c-0.37,0-0.555-0.482-0.555-1.445c0-1.037,0.186-1.556,0.555-1.556
		c2.743,0,5.707-0.741,8.894-2.223c3.558-1.557,6.448-3.632,8.671-6.226c3.039-3.558,4.225-7.448,3.558-11.673
		c-0.667-3.779-3.002-8.745-7.003-14.896c-4.669-7.042-9.82-12.673-15.452-16.896C193.631,132.882,192.482,131.474,193.595,131.178"
		/>
	<path fill="#0D131A" d="M176.141,152.078c-3.854-3.409-4.854-4.929-3.001-4.558c1.852,0.37,4.706,2.26,8.56,5.669
		c6.152,5.484,10.857,10.969,14.119,16.454c3.557,6.077,5.077,11.746,4.558,17.008c-0.297,3.558-2.298,7.448-6.003,11.672
		c-3.558,4.225-6.93,6.633-10.117,7.226l-8.671-0.666c-4.669-1.038-7.967-2.78-9.894-5.225c-1.334-1.705-2.557-4.336-3.668-7.894
		l-2.001-7.114l3.558,1.778c1.482,5.262,3.149,9.042,5.003,11.339c1.333,1.853,3.891,3.076,7.67,3.668l7.226,0.222
		c2.593-0.519,5.483-2.445,8.671-5.781c3.26-3.483,5.039-6.669,5.336-9.56c0.443-4.595-1.668-10.339-6.337-17.232
		C187.221,163.158,182.217,157.488,176.141,152.078"/>
	<path fill="#0D131A" d="M157.798,180.759c-1.778-3.558-2.446-5.854-2.001-6.893c0.37-1.112,1.445,0.112,3.224,3.668
		c1.112,2.224,3.002,4.929,5.67,8.116l7.337,7.671c2.816,2.593,3.335,3.742,1.557,3.446c-1.853-0.222-4.188-1.63-7.003-4.225
		l-5.225-5.558L157.798,180.759"/>
	<path fill="#0D131A" d="M140.123,183.983c-0.89-3.558-1.037-5.966-0.445-7.226c0.519-1.333,1.223-0.186,2.113,3.446
		c1.408,5.707,4.706,10.228,9.894,13.563c4.965,3.187,10.117,4.335,15.453,3.446c0.37-0.074,0.667,0.37,0.89,1.333
		c0.147,1.039,0,1.594-0.445,1.667c-6.967,1.186-13.044,0.037-18.232-3.446C144.606,193.654,141.532,189.393,140.123,183.983"/>
	<path fill="#0D131A" d="M246.065,151.411c-0.296-0.222,0.223-0.63,1.556-1.223l2.447-0.667c1.482,1.779,2.63,4.447,3.446,8.004
		c0.89,3.78,1.074,7.152,0.555,10.116c-0.963,6.003-8.634,13.489-23.011,22.456c-6.152,3.854-11.784,5.818-16.897,5.893
		c-3.484,0-6.262-0.704-8.338-2.112c-1.852-1.335-2.556-3.187-2.113-5.559c0.149-0.371,0.63-0.63,1.445-0.778
		c0.89-0.075,1.298,0.074,1.224,0.445l0.555,1.445l1.778,2.111c4.744,3.039,11.673,1.705,20.789-4.001
		c5.929-3.631,10.82-7.412,14.674-11.339c3.854-3.854,6.003-7.189,6.448-10.005c0.445-2.815,0.074-5.818-1.112-9.004
		C248.547,154.375,247.398,152.448,246.065,151.411"/>
	<path fill="#0D131A" d="M211.715,194.544c0.296-0.296,0.741,0,1.333,0.889c0.593,0.816,0.741,1.372,0.445,1.667
		c-5.707,5.114-11.229,7.894-16.564,8.338c-4.001,0.296-7.004-0.556-9.004-2.558c-0.296-0.296-0.074-0.778,0.667-1.445
		c0.667-0.741,1.149-0.964,1.445-0.667c1.705,1.706,4.41,2.224,8.115,1.557C202.747,201.511,207.269,198.916,211.715,194.544"/>
	<path fill="#0D131A" d="M349.786,337.061c0-0.519,0.519-0.778,1.556-0.778c1.037,0,1.594,0.259,1.667,0.778l2.335,65.255
		c0.074,0.519-0.519,0.815-1.779,0.89c-1.26,0-1.889-0.26-1.889-0.779L349.786,337.061"/>
	<path fill="#0D131A" d="M474.736,334.393c-0.221-0.445,0.334-0.629,1.67-0.556c1.335,0,2.037,0.259,2.11,0.778
		c1.188,5.411,2.04,16.416,2.56,33.017c0.443,16.23,0.297,26.384-0.445,30.46c-0.073,0.519-0.742,0.667-2,0.445
		c-1.187-0.223-1.743-0.592-1.667-1.112c0.74-4.076,0.777-15.007,0.107-32.793C476.481,346.844,475.701,336.764,474.736,334.393"/>
	<path fill="#0D131A" d="M373.463,41.354c17.416,6.003,28.833,11.19,34.242,15.563c3.408,2.817,6.263,7.079,8.561,12.785
		l4.559,15.341l1.334,4.669c1.702,5.633,1.073,8.894-1.891,9.783c-2.965,0.815-5.226-1.667-6.781-7.449
		c-1.778-6.744-3.408-11.931-4.894-15.563c-2.591-6.152-5.558-10.562-8.893-13.229c-3.335-2.594-11.265-6.263-23.79-11.006
		c-13.118-5.04-22.789-7.894-29.015-8.56c-4.447-0.519-5.893-1.075-4.335-1.667c1.482-0.519,4.483-0.519,9.004,0
		c6.818,0.815,16.12,3.446,27.904,7.892c11.19,4.225,18.565,7.708,22.124,10.451c3.706,2.89,6.929,7.669,9.671,14.34
		c1.559,3.631,3.299,9.116,5.226,16.453c1.037,4.076,2.001,5.781,2.892,5.115c0.814-0.667,0.742-2.594-0.222-5.781l-1.225-4.67
		c-1.854-6.669-3.409-11.45-4.67-14.34c-2.222-5.188-4.892-9.042-8.003-11.562c-5.042-4.15-15.861-9.079-32.462-14.785
		c-18.083-6.152-29.608-8.005-34.573-5.559c-4.669,2.371-9.265,7.745-13.785,16.119c-4.595,8.375-8.523,18.714-11.784,31.016
		l-2.891,2.891c-1.704,1.186-2.482,1.519-2.334,1c3.483-14.303,7.708-26.31,12.673-36.018c5.04-10.006,10.264-16.342,15.675-19.01
		C341.484,32.757,354.045,34.684,373.463,41.354"/>
	<path fill="#0D131A" d="M420.153,90.157c-0.295-0.296-0.332-1-0.107-2.113c0.295-1.186,0.59-1.629,0.89-1.333l7.781,7.337
		c0.369,0.371,0.591,1.186,0.666,2.445c0,1.335-0.11,1.779-0.334,1.335l-3.78-3.446L420.153,90.157"/>
	<path fill="#0D131A" d="M432.604,60.142c1.037,2.668,1.742,6.818,2.113,12.45l0.556,20.678c0,1.705-0.443,3.113-1.334,4.225
		c-0.813,0.963-1.776,1.482-2.891,1.556c-1.111,0.074-2.038-0.259-2.779-1c-0.89-0.89-1.372-2.149-1.444-3.78l-0.332-7.003
		c-0.299-10.523-1.226-18.676-2.78-24.457c-0.891-3.039-7.671-7.559-20.343-13.562c-11.417-5.337-22.495-9.635-33.242-12.896
		c-6.448-1.927-8.82-3.112-7.114-3.558c1.705-0.37,5.78,0.445,12.228,2.447c9.783,2.964,19.641,6.669,29.573,11.117
		c13.712,6.151,21.159,11.339,22.345,15.563c1.11,3.929,1.927,12.339,2.444,25.236l0.334,6.892c0.147,1.261,0.482,1.89,1.001,1.89
		c0.815,0,1.225-0.89,1.225-2.668l-0.557-20.01c-0.297-5.559-0.929-9.561-1.893-12.007c-2-4.965-12.561-11.709-31.682-20.231
		c-18.379-8.228-30.535-12.192-36.463-11.896c-3.706,0.148-7.189,3.225-10.451,9.228l-1.667-0.222
		c-0.963-0.445-1.333-0.853-1.111-1.223c1.852-3.41,3.557-5.966,5.113-7.67c2.446-2.668,5.114-4.077,8.004-4.225
		c6.522-0.296,19.159,3.891,37.908,12.562C419.156,46.69,430.235,54.213,432.604,60.142"/>
	<path fill="#0D131A" d="M422.937,43.355c18.379,7.189,28.31,13.081,29.791,17.676c0.666,1.852-1.295,11.042-5.892,27.569
		l-0.891,3.224c-0.963,3.484-2.595,5.262-4.891,5.336c-2.372,0.148-3.559-1.408-3.559-4.668l0.224-1.89
		c1.776-6.152,3.113-11.821,4.003-17.008c0.888-5.115,1.146-8.264,0.777-9.45c-0.371-1.185-2.704-3.075-7.005-5.669
		c-4.521-2.668-9.782-5.226-15.784-7.671c-1.186-0.519-2.854-1.741-5.004-3.668c-2.148-1.927-2.927-2.78-2.335-2.557
		c19.194,7.189,30.313,13.155,33.353,17.899c1.406,2.148-0.261,11.783-5.004,28.903c-0.443,1.557-0.296,2.335,0.444,2.335
		c0.739-0.074,1.335-0.964,1.778-2.668l0.889-3.225c4.077-14.6,5.707-23.048,4.894-25.345c-0.89-2.89-8.116-7.375-21.678-13.452
		c-12.896-5.781-25.719-10.487-38.466-14.119c-2.074-0.592-4.373-1.593-6.892-3.001l-2.668-1.89
		C391.917,32.535,406.558,36.982,422.937,43.355"/>
	<path fill="#0D131A" d="M433.829,89.046c-0.371-0.222-0.407-0.853-0.11-1.89c0.298-1.038,0.629-1.409,1-1.112
		c2.594,2.149,4.224,3.817,4.892,5.003l-0.334,2.223c-0.442,1.112-0.776,1.482-1.001,1.112l-2.224-2.89L433.829,89.046"/>
	<path fill="#0D131A" d="M455.286,148.965c0.072,1.333,0.59,3.558,1.554,6.67c0.963,3.409,1.744,5.15,2.335,5.224
		c0.595,0.075,1.484-0.927,2.669-3.001l2.113-5.336c0.074-0.371,0.517-0.482,1.333-0.334c0.814,0.223,1.185,0.557,1.109,1
		c-0.368,2.002-1.405,4.484-3.11,7.448c-1.779,2.964-3.112,4.41-4.002,4.335c-1.037-0.147-2.335-1.853-3.894-5.113
		c-1.627-3.409-2.704-7.003-3.223-10.784c-0.073-0.445,0.445-0.666,1.557-0.666C454.766,148.335,455.286,148.52,455.286,148.965"/>
	<path fill="#0D131A" d="M413.71,150.521c-0.374-0.074-0.632-0.556-0.781-1.445c-0.146-0.889,0-1.296,0.446-1.223
		c16.675,1.927,29.235,8.152,37.684,18.677c0.3,0.37,0.039,0.852-0.775,1.445c-0.816,0.666-1.371,0.815-1.667,0.444
		c-2.965-3.631-7.19-7.078-12.673-10.338C428.825,153.856,421.417,151.337,413.71,150.521"/>
	<path fill="#0D131A" d="M412.597,148.853c0-0.37,0.556-0.519,1.669-0.444c1.11,0.074,1.592,0.296,1.444,0.666l-4.335,12.451
		c-1.56,3.483-2.855,5.262-3.895,5.336c-0.963,0.074-2.815-2.223-5.557-6.892c-2.596-4.374-4.078-7.486-4.449-9.338
		c-0.074-0.371,0.334-0.667,1.223-0.89c0.964-0.149,1.483,0,1.557,0.445c0.296,1.408,1.372,3.78,3.225,7.114
		c1.854,3.409,3.077,5.151,3.667,5.225c0.596,0.074,1.632-1.89,3.114-5.892L412.597,148.853"/>
	<path fill="#0D131A" d="M412.15,161.527c1.779-3.631,3.226-5.484,4.336-5.558c1.037-0.074,2.704,1.89,5.005,5.892
		c2.147,3.631,3.371,6.188,3.667,7.67c0.146,0.445-0.223,0.778-1.111,1l-1.334-0.333c-0.298-1.186-1.296-3.187-3.001-6.003
		l-3.226-4.224c-0.368,0-1.11,1.148-2.222,3.446l-3.004,7.671c-0.147,0.37-0.666,0.629-1.556,0.778
		c-0.964,0.074-1.408-0.112-1.335-0.557L412.15,161.527"/>
	<path fill="#0D131A" d="M454.396,154.412l0.891,3.225c-1.706,2-3.372,5.336-5.004,10.004l-1.557,0.445
		c-0.815-0.074-1.188-0.296-1.113-0.667l3.338-8.004C452.355,156.599,453.507,154.932,454.396,154.412"/>
	<path fill="#0D131A" d="M460.62,161.305l2.112,7.448c0.147,0.37-0.222,0.592-1.11,0.667c-0.891,0.074-1.41-0.112-1.559-0.557
		l-2.001-5.559l1.445-0.889L460.62,161.305"/>
	<path fill="#0D131A" d="M368.351,92.714c5.632,0.445,13.007,2.927,22.122,7.448c9.338,4.595,15.898,9.153,19.679,13.673
		c0.295,0.371,0.036,0.741-0.776,1.112l-1.669,0.111c-3.188-3.854-9.267-7.855-18.233-12.005
		c-8.745-4.076-15.897-6.337-21.456-6.781c-2.519-0.148-4.076,0.074-4.668,0.666c-0.89,0.816-1.334,2.631-1.334,5.448
		c0.075,3.631,0.593,6.93,1.557,9.894c0.815,2.594,1.742,4.335,2.779,5.225c2.149,1.778,11.896,1.704,29.238-0.222l9.56-1.557
		l-9.227,4.113l-21.123,2.002c-5.483,0.296-8.967-0.186-10.449-1.445c-1.409-1.187-2.594-3.743-3.558-7.671
		c-0.889-3.558-1.333-6.967-1.333-10.228c-0.074-4.743,0.408-7.633,1.445-8.671C361.866,92.788,364.349,92.418,368.351,92.714"/>
	<path fill="#0D131A" d="M458.619,94.382c0.521,0.074,0.371,1.111-0.442,3.113c-1.337,0.519-3.077,1.778-5.226,3.779
		c-2.299,2.298-3.968,4.558-5.005,6.781l-1.556-0.222c-0.813-0.592-1.147-1.074-1.001-1.445c1.187-2.519,3.299-5.187,6.337-8.004
		C454.839,95.345,457.14,94.011,458.619,94.382"/>
	<path fill="#0D131A" d="M304.984,436.889c4.15-0.297,6.596,0,7.336,0.89c0.816,0.89-0.852,1.484-5.001,1.779
		c-3.409,0.221-7.263,1.037-11.562,2.444l-5.448,2.111c-2.52,1.111-9.635,8.45-21.344,22.012
		c-12.376,14.306-19.38,24.015-21.011,29.126c-0.89,2.816-1.816,9.708-2.78,20.678c-0.888,10.821-1.074,16.896-0.555,18.231
		c0.89,3.188,2.816,6.893,5.781,11.116c2.445,3.409,3.298,5.373,2.557,5.892c-0.742,0.594-2.447-0.666-5.115-3.776l-4.779-7.45
		l-2.446-4.667c-0.667-1.779-0.407-8.376,0.779-19.79c1.111-11.117,2.149-18.193,3.113-21.231
		c1.778-5.559,8.931-15.749,21.455-30.571c11.933-14.081,19.306-21.716,22.123-22.899l5.113-1.669
		C297.351,437.925,301.279,437.186,304.984,436.889"/>
	<path fill="#0D131A" d="M350.563,483.354c3.705-2.814,5.225-3.223,4.558-1.223c-0.593,2.077-2.743,4.561-6.448,7.45
		c-10.375,7.93-19.639,16.638-27.792,26.124l-17.23,22.01l-7.56,9.896c-2.149,2.594-4.001,4.223-5.559,4.892
		c-4.965,2.074-7.93,2.704-8.894,1.891c-0.888-0.739,1.149-2.15,6.115-4.226c1.186-0.519,2.964-2.222,5.336-5.111l7.559-9.782
		c7.485-9.784,14.044-17.75,19.677-23.902C329.813,500.848,339.892,491.511,350.563,483.354"/>
	<path fill="#0D131A" d="M561.007,524.154c4.743,3.854,9.374,6.597,13.895,8.229l9.115,0.998c2.892-0.441,5.3-1.593,7.227-3.444
		c2.372-2.296,3.262-4.41,2.67-6.337c-1.188-4.001-1.298-6.002-0.334-6.002c0.963,0,2.074,2.001,3.335,6.002
		c0.444,1.481,0.332,3.262-0.335,5.336c-0.666,2.077-1.703,3.816-3.113,5.226c-4.741,4.446-11.301,5.149-19.675,2.111
		c-4.744-1.703-9.599-4.743-14.563-9.114l-12.341-12.116l-8.337-8.229c-6.447-5.781-13.265-11.19-20.456-16.231l-15.229-10.226
		c-4.226-2.742-7.112-4.855-8.672-6.336c-1.854-1.705-3.335-3.745-4.445-6.115c-1.408-2.964-1.854-4.855-1.334-5.67
		c0.519-0.815,1.48,0.259,2.89,3.223c0.89,1.854,2.557,3.78,5.004,5.781l9.338,6.56c12.672,8.301,24.346,17.194,35.018,26.681
		l8.448,8.449L561.007,524.154"/>
	<path fill="#0D131A" d="M582.237,545.166c-0.295-2.815-0.11-4.077,0.556-3.779c0.668,0.298,1.371,1.854,2.113,4.668
		c1.706,6.302,2.557,11.821,2.557,16.564c0,2.445,3.372,7.337,10.116,14.673c3.706,4.002,5.151,6.337,4.335,7.005
		c-0.815,0.666-3-0.963-6.557-4.891l-7.782-8.561c-2.816-3.409-4.226-6.152-4.226-8.228
		C583.351,558.023,582.979,552.208,582.237,545.166"/>
	<path fill="#0D131A" d="M227.945,560.84c1.26-4.521,2.26-6.336,3.001-5.445c0.741,0.814,0.482,3.481-0.778,8.003
		c-1.408,4.967-3.113,9.485-5.113,13.562l-5.226,9.34c-2.074,3.482-3.26,5.817-3.557,7.006c-1.038,4.296-0.742,8.671,0.889,13.114
		c1.26,3.265,3.409,6.895,6.448,10.896c2.519,3.261,3.149,4.815,1.89,4.669c-1.186-0.149-3.076-1.854-5.67-5.114
		c-3.409-4.521-5.632-8.042-6.669-10.559c-1.779-4.375-2.075-8.97-0.89-13.786c0.296-1.335,1.594-3.928,3.891-7.781l5.891-9.896
		C224.646,570.105,226.61,565.437,227.945,560.84"/>
	<path fill="#0D131A" d="M285.529,580.738c2.816-2.148,4.633-3.001,5.448-2.557c0.89,0.444-0.074,1.742-2.891,3.892
		c-2.297,1.779-3.928,4.559-4.891,8.339c-0.593,2.148-1.075,5.668-1.445,10.56l-0.445,6.893c-0.222,2.3-0.778,4.003-1.667,5.116
		c-2.223,2.964-8.3,7.669-18.231,14.117c-1.927,1.406-4.299,1.666-7.115,0.776c-2.149-0.742-3.964-1.853-5.448-3.335
		c-2.52-2.52-3.668-4.26-3.446-5.224c0.296-0.891,1.705-0.039,4.225,2.557l4.113,2.223c2.001,0.521,3.595,0.335,4.781-0.556
		c10.153-5.707,16.193-9.855,18.12-12.452c0.963-1.258,1.667-4.704,2.111-10.337c0.445-6.817,0.89-10.97,1.334-12.451
		C280.825,585.481,282.641,582.963,285.529,580.738"/>
	<path fill="#0D131A" d="M199.708,754.938c0.37,5.041-1.112,9.34-4.448,12.896c-3.705,4.078-9.596,6.413-17.675,7.003
		c-6.967,0.521-13.376-0.222-19.231-2.222c-2.076-0.669-4.04-4.483-5.893-11.449c-1.927-6.968-2.594-12.824-2.001-17.564
		c0.223-2.15,1.519-4.93,3.891-8.341l7.004-9.559l7.226-10.45c2.223-3.854,3.446-7.076,3.668-9.672c0.371-4.743,1-6.892,1.89-6.446
		c0.815,0.52,1.112,3.262,0.89,8.227c-0.148,2.965-1.334,6.337-3.558,10.117l-7.226,10.559l-6.336,8.671
		c-2.002,3.04-3.113,5.449-3.335,7.227l-0.223,3.004c0,4.223,0.778,8.893,2.335,14.007c1.482,4.668,2.742,7.3,3.779,7.893
		c5.411,1.779,11.153,2.482,17.231,2.113c7.263-0.447,12.525-2.447,15.786-6.004c2.223-2.298,3.076-5.705,2.557-10.229
		c-0.371-3.632-2.187-6.263-5.448-7.895c-3.854-2-9.153-2.111-15.897-0.332c-2.964,0.813-4.113,0.63-3.446-0.559
		c0.741-1.185,2.594-2.185,5.558-2.997c7.263-1.929,12.933-1.56,17.008,1.109C197.3,746.341,199.265,749.974,199.708,754.938"/>
	<path fill="#0D131A" d="M220.831,741.376c3.929,2.743,6.152,6.931,6.67,12.564c0.223,2.591-0.074,5.111-0.89,7.558
		c-0.815,2.372-2,4.336-3.557,5.892c-3.41,3.634-9.153,5.337-17.231,5.114c-5.706-0.148-10.895-1-15.563-2.558
		c-0.371-0.148-0.112-0.667,0.778-1.558c0.89-0.887,1.556-1.295,2-1.222c3.558,1.187,7.82,1.854,12.785,2.001
		c7.041,0.147,12.043-1.298,15.007-4.336c2.447-2.521,3.484-6.075,3.113-10.672c-0.445-4.743-2.149-8.152-5.113-10.229
		c-2.076-1.479-4.669-2.186-7.782-2.11c-2.742,0.148-5.411,0.853-8.004,2.11c-2.743,1.337-4.002,1.445-3.78,0.334
		c0.296-1.11,1.816-2.222,4.558-3.333C210.641,738.117,216.311,738.265,220.831,741.376"/>
	<path fill="#0D131A" d="M228.278,740.934l-4.001,0.223c0.074-0.964,1.482-2.04,4.224-3.226c6.299-2.52,11.821-2.52,16.564,0
		c4.817,2.669,7.559,7.373,8.226,14.117c0.445,4.817-0.741,8.858-3.558,12.117c-4.668,5.412-14.896,7.005-30.682,4.782
		c-0.371-0.075-0.222-0.559,0.445-1.444c0.741-0.964,1.296-1.411,1.667-1.337c12.97,1.779,21.529,0.26,25.68-4.558
		c2.298-2.52,3.225-5.78,2.779-9.782c-0.371-4.225-2.112-7.561-5.225-10.005c-1.853-1.408-4.187-2.226-7.003-2.446
		C234.355,739.154,231.317,739.673,228.278,740.934"/>
	<path fill="#0D131A" d="M266.41,739.154c-4.077-2.372-8.967-2.78-14.674-1.225l-3.668-0.222c0.075-0.89,1.372-1.706,3.891-2.448
		c13.859-3.927,21.678,0.56,23.458,13.454c0.814,5.854-0.408,10.524-3.669,14.005c-4.743,5.188-14.34,6.598-28.792,4.229
		c-0.445-0.076-0.148-0.559,0.89-1.447c1.111-0.888,1.852-1.296,2.223-1.222c11.043,1.778,18.676,0.407,22.901-4.114
		c2.668-2.891,3.631-6.745,2.891-11.563C271.116,744.082,269.299,740.934,266.41,739.154"/>
	<path fill="#0D131A" d="M266.076,765.168c-0.371-0.074,0-0.63,1.111-1.669c1.112-0.964,1.89-1.408,2.335-1.335
		c6.893,1.706,13.229,2.298,19.01,1.779c5.707-0.444,10.227-1.928,13.563-4.446c4.002-2.966,6.114-7.302,6.336-13.007
		c0.223-5.931-2.038-10.45-6.781-13.563c-3.409-2.298-7.633-3.482-12.672-3.557c-4.966,0-9.969,1.146-15.007,3.445
		c-3.41,1.557-4.966,1.813-4.67,0.776c0.296-1.11,2.149-2.444,5.559-4.002c11.784-5.262,21.455-5.372,29.014-0.334
		c2.817,1.927,4.966,4.299,6.448,7.115c1.557,2.965,2.261,6.113,2.112,9.45c-0.074,3.333-0.853,6.446-2.335,9.338
		c-1.408,2.891-3.297,5.223-5.669,7.002c-3.631,2.743-9.116,4.375-16.453,4.892C280.788,767.576,273.487,766.944,266.076,765.168"/>
	<path fill="#0D131A" d="M570.12,710.916c-2.891-0.887-4.148-1.703-3.78-2.445l4.893,0.113c1.409,0.368,2.854,1.037,4.335,2
		l2.559,2.111c0.224,0.371-0.297,0.778-1.556,1.222l-2.225,0.113l-1.891-1.669L570.12,710.916"/>
	<path fill="#0D131A" d="M605.139,715.697c5.188-2.075,9.448-3.299,12.786-3.668c5.112-0.596,9.484,0.481,13.115,3.223
		c1.853,1.408,3.225,3.596,4.114,6.561c0.814,2.965,0.963,6.114,0.443,9.447c-0.592,3.485-1.927,6.671-4.003,9.562
		c-2.147,2.891-4.668,4.816-7.559,5.78l-13.673,0.891c-5.412-0.595-8.818-1.593-10.229-3.001c-0.295-0.298-0.107-0.816,0.557-1.556
		c0.741-0.742,1.263-0.965,1.559-0.67c0.89,0.891,3.593,1.56,8.115,2.002l12.117-0.891c4.965-1.63,7.968-5.482,9.005-11.562
		c0.442-2.667,0.332-5.261-0.334-7.781c-0.596-2.443-1.594-4.188-3.003-5.227c-2.814-2.147-5.93-3.223-9.337-3.223
		c-3.409-0.076-7.599,0.927-12.563,3.001c-0.369,0.147-0.742-0.26-1.111-1.224C604.768,716.399,604.768,715.845,605.139,715.697"/>
	<path fill="#0D131A" d="M632.042,745.046c-3.038,0.073-4.965-0.298-5.78-1.113c-0.298-0.295-0.112-0.776,0.557-1.444
		c0.741-0.74,1.258-0.964,1.556-0.666l6.781-0.332c4.891-0.669,8.227-2.04,10.006-4.114c1.408-1.556,2.445-3.633,3.113-6.226
		c0.664-2.521,0.813-5.041,0.442-7.56c-0.442-3.483-1.706-5.854-3.779-7.117c-4.149-2.518-9.819-2.147-17.01,1.113
		c-0.368,0.149-0.775-0.224-1.224-1.113c-0.369-0.964-0.369-1.519,0-1.666c8.745-4.224,15.713-4.704,20.901-1.444
		c3.11,1.853,4.928,4.891,5.445,9.115c0.445,2.891,0.147,6.005-0.89,9.338c-1.037,3.188-2.445,5.746-4.223,7.673
		C644.976,742.821,639.676,744.675,632.042,745.046"/>
	<path fill="#0D131A" d="M645.271,739.265c0.519-0.89,0.964-1.222,1.334-1l5.892,0.891c3.112-0.147,5.41-0.891,6.893-2.226
		c1.632-1.48,2.891-3.52,3.779-6.111c0.89-2.597,1.225-5.227,1.001-7.896c-0.371-3.633-1.593-6.076-3.67-7.337
		c-1.851-1.113-4.148-1.595-6.892-1.445c-2.667,0.147-4.817,0.814-6.447,2.001l-1.334-0.89c-0.593-0.888-0.742-1.445-0.443-1.669
		c2.148-1.479,4.893-2.408,8.226-2.777c3.633-0.371,6.634,0.147,9.005,1.557c2.965,1.854,4.67,5.114,5.111,9.784
		c0.299,3.111-0.184,6.298-1.443,9.56c-1.187,3.188-2.814,5.67-4.893,7.449c-2.222,2.001-5.111,3.074-8.671,3.225
		c-3.038,0.147-5.558-0.334-7.558-1.445C644.789,740.71,644.825,740.154,645.271,739.265"/>
	<path fill="#0D131A" d="M659.389,712.138l5.114-0.441c2.372,0.295,4.335,1.037,5.892,2.222c4.075,3.262,5.743,7.635,5.005,13.12
		c-0.299,2.369-1.15,4.668-2.56,6.892l-4.56,4.78c-2.667,1.853-5.704,2.446-9.113,1.777c-0.371-0.073-0.445-0.629-0.222-1.666
		c0.222-1.038,0.517-1.521,0.888-1.445c2.521,0.592,4.743,0.188,6.671-1.225c2.445-1.703,3.964-4.667,4.56-8.893
		c0.59-4.597-0.596-8.042-3.56-10.338c-1.185-0.89-2.557-1.52-4.114-1.893c-1.259-0.295-2.186-0.295-2.776,0
		c-0.445,0.148-0.854-0.258-1.225-1.223C659.02,712.844,659.02,712.288,659.389,712.138"/>
	<path fill="#0D131A" d="M333.776,363.407c-3.482-4.075-7.669-6.114-12.562-6.114c-4.891,0-9.042,2.039-12.45,6.114
		c-3.484,4.002-5.226,8.856-5.226,14.563c0,5.706,1.742,10.56,5.226,14.563c3.409,4.002,7.559,6.003,12.45,6.003
		c4.892,0,9.079-2.001,12.562-6.003c3.41-4.002,5.115-8.856,5.115-14.563C338.892,372.264,337.187,367.41,333.776,363.407
		 M336.667,394.534c-4.15,5.114-9.301,7.669-15.452,7.669c-5.855,0-10.895-2.37-15.118-7.112c-4.15-4.744-6.226-10.451-6.226-17.12
		c0-6.744,2.075-12.488,6.226-17.231c4.224-4.743,9.263-7.114,15.118-7.114c5.929,0,10.969,2.372,15.119,7.114
		c4.15,4.743,6.226,10.487,6.226,17.231C342.56,384.195,340.596,389.717,336.667,394.534"/>
	<path fill="#0D131A" d="M500.975,352.513c-2.593-4.595-5.854-6.892-9.782-6.892c-0.739,0-1.298,0.296-1.669,0.889
		c-2.222,2.445-3.225,9.042-3.001,19.788c0.076,5.485,0.816,10.302,2.226,14.452c1.332,3.927,2.742,5.893,4.223,5.893
		c1.484,0,3.188-1.075,5.114-3.225c4.226-4.669,6.337-10.672,6.337-18.009C504.421,360.888,503.271,356.589,500.975,352.513
		 M491.191,341.508c4.001,0,7.781,2.111,11.338,6.336c4.003,4.744,6.006,10.561,6.006,17.453c0,3.854-0.742,7.708-2.226,11.562
		c-1.332,3.707-3.186,6.855-5.56,9.449c-2.593,2.965-5.188,4.447-7.781,4.447c-5.854,0-9.114-7.152-9.782-21.455
		c-0.593-13.637,0.629-22.197,3.669-25.681C488.044,342.212,489.488,341.508,491.191,341.508"/>
	<path fill="#0D131A" d="M456.952,327.166c1.481,0.223,3.076,0.704,4.78,1.445c8.152,10.524,12.229,21.937,12.229,34.24
		c0,15.342-5.521,28.496-16.563,39.464c-10.969,10.894-24.123,16.34-39.465,16.34s-28.534-5.407-39.577-16.229
		c-11.117-10.893-16.675-24.01-16.675-39.352c0-10.821,3.335-21.233,10.004-31.238l4.002-0.667
		c-6.967,9.338-10.449,19.898-10.449,31.683c0,14.601,5.15,27.088,15.452,37.463c10.301,10.375,22.717,15.563,37.242,15.563
		s26.939-5.188,37.24-15.563c10.304-10.375,15.453-22.863,15.453-37.463C470.626,349.289,466.067,337.394,456.952,327.166"/>
	<path fill="#0D131A" d="M396.476,325.166l6.671-0.667l6.449-1.333c-9.192,2.001-16.825,6.669-22.902,14.007
		c-6.152,7.41-9.228,15.971-9.228,25.679c0,11.117,3.966,20.641,11.896,28.57c7.93,7.93,17.454,11.896,28.571,11.896
		c11.19,0,20.714-3.965,28.569-11.896c7.929-7.929,11.896-17.453,11.896-28.57c0-11.19-3.967-20.714-11.896-28.57
		c-7.855-7.93-17.379-11.896-28.569-11.896h-0.445l3.002-2.779c11.413,0.667,21.122,5.15,29.126,13.452
		c8.079,8.449,12.118,18.379,12.118,29.792c0,11.858-4.299,22.011-12.896,30.46c-8.523,8.375-18.751,12.561-30.685,12.561
		c-12.004,0-22.307-4.186-30.904-12.561c-8.671-8.449-13.007-18.602-13.007-30.46c0-7.93,2.039-15.304,6.114-22.123
		C384.358,334.133,389.73,328.946,396.476,325.166"/>
	<path fill="#0D131A" d="M433.053,334.727c5.481,2.742,9.967,6.707,13.449,11.895c3.633,5.41,5.446,11.191,5.446,17.343
		c0,8.967-3.148,16.601-9.447,22.9c-6.3,6.373-13.935,9.56-22.902,9.56c-8.893,0-16.563-3.187-23.011-9.56
		c-6.521-6.374-9.783-14.007-9.783-22.9c0-6.967,2.149-13.303,6.448-19.01c4.076-5.558,9.338-9.449,15.789-11.672v2.891
		c-5.561,2.223-10.082,5.818-13.564,10.783c-3.558,5.113-5.336,10.784-5.336,17.009c0,8.151,2.89,15.156,8.671,21.01
		c5.781,5.781,12.712,8.671,20.788,8.671c8.155,0,15.12-2.891,20.901-8.671c5.78-5.854,8.671-12.859,8.671-21.01
		c0-5.781-1.558-11.117-4.67-16.009c-3.037-4.668-7.039-8.263-12.006-10.782L433.053,334.727"/>
	<path fill="#0D131A" d="M433.495,339.951c4.226,2.372,7.561,5.707,10.006,10.006c2.444,4.373,3.67,9.153,3.67,14.34
		c0,7.634-2.633,14.156-7.896,19.565c-5.26,5.484-11.673,8.226-19.229,8.226c-7.634,0-14.12-2.742-19.457-8.226
		c-5.41-5.41-8.114-11.932-8.114-19.565c0-5.781,1.593-11.006,4.779-15.675c3.188-4.595,7.338-7.967,12.453-10.116l-1.113,1.779
		c-0.222,0.666-0.147,1.26,0.224,1.778c-4.076,2.075-7.337,5.077-9.783,9.004c-2.521,4.003-3.78,8.412-3.78,13.229
		c0,6.893,2.409,12.784,7.228,17.675c4.892,4.892,10.747,7.338,17.565,7.338c6.892,0,12.783-2.446,17.675-7.338
		c4.816-4.891,7.226-10.783,7.226-17.675c0-4.521-1.147-8.745-3.445-12.673c-2.225-3.78-5.226-6.781-9.005-9.005
		C433.087,341.953,433.422,341.063,433.495,339.951"/>
	<path fill="#E50038" d="M422.379,338.617c1.334,0,2.224-0.222,2.669-0.667l0.666-1.89l-0.666-1.778
		c-0.298-0.519-1.074-0.779-2.335-0.779h-1.556v5.114H422.379 M409.706,327.166c0-0.37,0.185-0.555,0.556-0.555h15.118
		c2.891,0,5.004,0.814,6.336,2.445c1.41,1.482,2.113,3.743,2.113,6.781c0,2.964-0.742,5.299-2.223,7.003
		c-1.558,1.778-3.893,2.668-7.005,2.668h-3.444v4.67l-0.557,0.666h-10.34l-0.556-0.666L409.706,327.166"/>
	<path fill="#0D131A" d="M430.718,329.946c-1.113-1.261-2.891-1.89-5.338-1.89H411.15V349.4h8.562v-3.891
		c0-0.963,0.48-1.445,1.445-1.445h3.444c2.743,0,4.705-0.704,5.893-2.111c1.335-1.408,2.001-3.447,2.001-6.115
		C432.495,333.318,431.901,331.354,430.718,329.946 M408.371,350.179v-23.013c0-1.333,1.225-2,3.67-2l13.339,0.11
		c3.262,0,5.746,0.964,7.449,2.891c1.63,1.853,2.444,4.41,2.444,7.671c0,3.335-0.89,6.003-2.669,8.004
		c-1.776,2.001-4.445,3.002-8.003,3.002h-2.113v3.335c0,1.333-0.629,2-1.888,2h-10.34
		C409.001,352.18,408.371,351.513,408.371,350.179"/>
	<path fill="#0D131A" d="M422.488,334.504h-0.331v3.113l2.11-0.334l0.334-1.223l-0.334-1.333L422.488,334.504 M421.157,332.058
		h1.556c1.63,0,2.779,0.445,3.446,1.334c0.592,0.592,0.89,1.482,0.89,2.668s-0.335,2.113-1.001,2.78v0.111
		c-0.89,0.741-2.113,1.112-3.669,1.112h-1.222c-0.965,0-1.445-0.481-1.445-1.445v-5.114
		C419.712,332.54,420.192,332.058,421.157,332.058"/>
	<path fill="#0D131A" d="M427.159,133.623c0.814-0.666,1.704-0.778,2.669-0.333c1.405,0.592,2.964,2.223,4.67,4.891
		c0.813,1.112,0.924,1.816,0.332,2.112c-0.666,0.371-1.445,0.037-2.335-1c-2.074-2.075-3.743-3.409-5.002-4.002
		C426.528,134.846,426.417,134.291,427.159,133.623"/>
	<path fill="#0D131A" d="M462.844,135.848c0.371-0.593,0.89-0.816,1.556-0.667c0.669,0.222,1.003,0.629,1.003,1.223
		c0,0.89-0.558,1.89-1.669,3.001l-2.89,2.224l-2.446,0.333c-0.146-0.593,0.445-1.482,1.779-2.668L462.844,135.848"/>
	<path fill="#0D131A" d="M463.066,193.544c0.442,0,0.369,0.407-0.224,1.223c-0.592,0.814-1.11,1.223-1.556,1.223l-14.564-0.112
		c-0.443,0-0.222-0.556,0.668-1.667l2.001-1.668L463.066,193.544"/>
	<path fill="#0D131A" d="M380.8,120.506c-2.446-2.816-3.891-6.521-4.336-11.116c-0.445-4.892,0.371-9.264,2.446-13.118l2.002,1
		c-1.409,2.964-1.927,6.707-1.557,11.227c0.297,4.448,1.408,8.004,3.335,10.672L380.8,120.506"/>
	<path fill="#0D131A" d="M396.143,105.165l2.334,0.112c0.593,2.815,0.704,5.336,0.334,7.559c-0.371,2.223-1.296,4.484-2.78,6.781
		l-2-1.333c1.037-1.557,1.778-3.521,2.223-5.893C396.698,109.723,396.661,107.314,396.143,105.165"/>
	<path fill="#0D131A" d="M385.804,99.718l5.114,3.113v1.556c0,5.411-0.927,8.115-2.779,8.115c-1.038,0-1.853-1.186-2.446-3.558
		l-0.556-4.558C385.137,103.201,385.358,101.645,385.804,99.718"/>
	<path fill="#0D131A" d="M455.173,98.272l0.445,5.336c-0.074,2.446-0.371,4.299-0.889,5.559c-0.148,0.296-0.558,0.296-1.224,0
		c-0.742-0.296-1.076-0.594-1.003-0.89l0.781-4.779l-0.334-4.67l0.998-0.778L455.173,98.272"/>
	<path fill="#0D131A" d="M451.059,100.94l0.447,3.224l-0.334,3.335l-2.557-0.333l-1.225-0.444c0.371-1.335,1.001-2.668,1.892-4.003
		C450.096,101.533,450.689,100.94,451.059,100.94"/>
	<path fill="#0D131A" d="M621.813,200.88c-3.186,6.818-4.777,13.822-4.777,21.011c0,6.077,1.146,11.857,3.445,17.342
		c0.739-13.415,2.776-30.015,6.114-49.803L621.813,200.88 M627.038,184.873l2.669-2.78c0.666-0.296,0.703,1.149,0.111,4.335
		c-1.408,8.004-2.706,17.231-3.892,27.681c-1.557,13.34-2.481,25.31-2.779,35.906c-0.147,3.188-0.594,5.115-1.335,5.781
		c-0.739,0.667-1.222-0.666-1.444-4.001l0.112-5.225c-1.11-1.26-2.447-4.595-4.002-10.004c-1.632-5.855-2.447-10.747-2.447-14.674
		c0-4.373,0.408-8.153,1.225-11.339c0.666-2.445,1.963-5.744,3.891-9.894l4.111-9.449
		C624.593,188.318,625.854,186.206,627.038,184.873"/>
	<path fill="#0D131A" d="M654.497,211.219c0-3.707-0.408-7.226-1.224-10.562c-0.223-0.814-0.482-3.446-0.777-7.893l-0.776-8.671
		l-0.89,10.673l-2.001,21.789c-1.188,9.486-1.779,22.938-1.779,40.354l0.11,6.336c2.372-5.632,4.039-14.822,5.002-27.569
		l1.224-11.005L654.497,211.219 M650.051,182.426c1.188-3.705,2.15-4.928,2.892-3.668c0.89,1.334,1.556,5.966,2,13.896
		c0.149,2.223,0.556,4.632,1.223,7.226c1.112,4.521,1.558,8.671,1.336,12.45l-1.779,12.674l-1.112,10.894
		c-0.741,9.338-1.632,16.342-2.669,21.011c-1.037,4.891-2.482,8.449-4.335,10.672c-1.56,2.002-2.445,2.668-2.67,2.002
		c-0.222-0.594-0.259-3.595-0.11-9.005c-0.297-5.632-0.481-11.413-0.557-17.342c-0.148-11.561,0.371-20.566,1.558-27.014l2-18.119
		C648.568,189.949,649.311,184.724,650.051,182.426"/>
	<path fill="#0D131A" d="M679.733,240.011v2.335c-0.225,8.745-2.891,19.492-8.006,32.238c3.482-3.631,6.373-8.041,8.673-13.228
		c2.444-5.633,3.669-10.969,3.669-16.009c0-4.817-0.891-12.303-2.669-22.456c-1.779-9.857-3.634-18.083-5.561-24.679
		C678.436,215.999,679.733,229.932,679.733,240.011 M670.395,183.205c-0.815-3.262-0.89-4.891-0.222-4.891
		c0.666-0.075,1.479,1.629,2.443,5.113l2.112,6.781c2.817,5.187,5.707,14.118,8.672,26.792c2.816,12.45,4.226,21.899,4.226,28.347
		c0,6.077-1.63,12.303-4.894,18.677c-2.965,5.854-6.559,10.635-10.78,14.34c-3.04,2.668-4.743,3.521-5.116,2.557
		c-0.296-0.741,0.26-2.557,1.668-5.448c1.482-3.038,3.114-7.818,4.895-14.34c2.147-7.856,3.259-14.119,3.333-18.788v-2.334
		c0-11.709-1.631-28.125-4.892-49.247v-0.111L670.395,183.205"/>
	<path fill="#0D131A" d="M567.229,227.782c2.447,0,6.042,0.704,10.784,2.113l13.674,2.78c-2.816-3.262-7.338-6.152-13.563-8.671
		c-12.301-4.966-24.014-4.929-35.129,0.111C552.557,226.56,560.633,227.782,567.229,227.782 M537.884,225.226
		c-0.89-0.445-1.15-0.89-0.779-1.334l2.557-1.556c7.114-3.78,14.711-5.521,22.791-5.226c5.929,0.223,11.522,1.409,16.785,3.558
		c3.409,1.409,6.67,3.335,9.784,5.781c2.667,2.075,4.742,4.076,6.224,6.003c0.963,1.333,1.334,2.223,1.111,2.668l-4.337,0.556
		l-8.003-1.112l-6.78-1.889l-5.78-1.557l-4.893-0.889l-17.342-2.112C542.849,226.857,539.067,225.894,537.884,225.226"/>
	<path fill="#0D131A" d="M540.885,241.679l-1.669-0.667c1.558,3.261,4.262,6.152,8.115,8.671c5.188,3.262,11.856,5.632,20.012,7.115
		l22.233,1.223C581.348,255.872,565.118,250.424,540.885,241.679 M535.327,238.899c-0.225-1.111,0.368-1.556,1.776-1.333l4.78,1.223
		l20.012,7.226c13.486,4.817,23.492,8.041,30.016,9.671c5.482,1.408,7.892,2.519,7.226,3.335c-0.668,0.667-4.077,1.333-10.229,2.001
		l-22.568-0.778c-8.002-1.409-14.859-3.928-20.564-7.559C540.143,249.127,536.659,244.532,535.327,238.899"/>
	<path fill="#0D131A" d="M548.775,288.48c4.893,4.891,11.676,8.337,20.347,10.339l18.896,1.445
		c6.229-0.519,11.896-2.002,17.009-4.447c-9.411,0.89-19.305,0.667-29.682-0.667C564.895,293.743,556.039,291.519,548.775,288.48
		 M607.14,292.706c7.115-0.816,6.744,0.889-1.109,5.113c-10.971,6.003-23.494,7.3-37.575,3.891
		c-10.153-2.446-17.751-6.522-22.789-12.229c-3.114-3.409-3.967-5.15-2.558-5.225l8.337,2.669
		c6.598,2.297,14.821,4.075,24.681,5.336C587.463,293.669,597.801,293.816,607.14,292.706"/>
	<path fill="#0D131A" d="M127.784,302.377c2.372,7.781,5.559,14.303,9.56,19.565c3.335,4.373,8.671,9.56,16.009,15.563
		c-3.262-5.632-7.004-12.599-11.229-20.9c-4.001-7.929-6.447-13.154-7.337-15.674c-1.334-3.706-2.816-10.414-4.447-20.122
		c-2-11.635-3.705-24.901-5.113-39.798c-0.519,8.301-0.778,16.675-0.778,25.124C124.449,283.182,125.561,295.262,127.784,302.377
		 M122.781,241.346c0.594-6.522,1.482-10.265,2.668-11.229c1.112-0.89,1.927,1.482,2.446,7.115
		c1.334,15.341,3.113,29.274,5.336,41.799c1.779,9.931,3.41,16.897,4.892,20.899l8.671,18.343l9.004,17.565
		c2.372,3.854,3.187,6.188,2.446,7.003c-0.89,1.039-4.41-1-10.562-6.114c-7.114-5.854-12.043-10.672-14.785-14.452
		c-3.113-4.373-5.93-10.708-8.449-19.01c-2.001-6.669-3.039-16.638-3.113-29.904C121.262,263.504,121.744,252.832,122.781,241.346"
		/>
	<path fill="#0D131A" d="M159.911,276.808c4.891,13.414,11.709,25.012,20.455,34.795c-4.892-11.562-10.042-24.754-15.452-39.576
		c-5.336-14.748-9.561-27.422-12.674-38.02C152.462,249.052,155.02,263.32,159.911,276.808 M149.571,235.453
		c0.149-5.706,0.667-9.227,1.557-10.561c1.037-1.482,2.26,0.297,3.668,5.337c2.89,10.301,7.114,23.197,12.672,38.686
		c5.558,15.416,10.932,29.2,16.12,41.354c2.149,4.966,2.445,7.522,0.89,7.671c-1.408,0.074-4.076-2.038-8.004-6.336
		c-8.894-9.783-15.601-21.011-20.122-33.684C151.61,264.802,149.35,250.646,149.571,235.453"/>
	<path fill="#0D131A" d="M170.138,217c0.593-3.188,1.408-5.003,2.445-5.448c0.964-0.519,1.075,0.853,0.334,4.113
		c-0.371,1.927,0.408,4.262,2.335,7.003l7.892,9.004c5.856,6.153,10.71,11.971,14.564,17.455
		c5.706,8.078,10.486,16.972,14.34,26.681l-0.333,2.778l-0.779,1.556c-3.779-9.56-8.337-18.194-13.673-25.902
		c-3.78-5.41-8.449-11.043-14.007-16.897l-9.672-10.45C170.769,223.262,169.62,219.964,170.138,217"/>
	<path fill="#0D131A" d="M174.584,223.226c-1.334-0.963-2.112-2.335-2.335-4.114c-0.222-2.815-0.11-3.409,0.333-1.778
		c0.371,1.112,1.409,2.335,3.113,3.668l5.893,4.113c9.337,6.078,16.008,11.6,20.01,16.564c8.078,9.857,12.154,22.16,12.228,36.908
		c0,3.335-0.519,5.595-1.556,6.781c-0.963,1.186-1.482,0.112-1.557-3.224c-0.074-16.009-4.187-29.052-12.34-39.131
		c-3.853-4.743-11.153-10.673-21.898-17.787l-1.112-1L174.584,223.226"/>
	<path fill="#0D131A" d="M244.288,225.559c6.595-4.965,12.117-8.818,16.563-11.561c-4.742,0.594-9.857,2.631-15.34,6.115
		c-8.153,5.336-13.86,11.487-17.12,18.453C232.466,234.861,237.766,230.525,244.288,225.559 M224.61,244.458
		c-0.964-0.222-0.667-2.187,0.89-5.893c1.852-4.298,4.52-8.485,8.004-12.562c3.335-4.002,6.818-7.152,10.449-9.449
		c2.668-1.705,5.448-2.927,8.338-3.668l7.671-1.112c6.447-0.592,8.931,0,7.447,1.779l-5.669,3.891
		c-4.521,2.742-8.93,5.743-13.229,9.004l-17.23,13.895C227.724,243.235,225.5,244.606,224.61,244.458"/>
	<path fill="#0D131A" d="M269.299,245.125c-6.447,5.633-14.636,11.71-24.569,18.232l3.335,0.11l1.445-0.445
		c3.78-1.037,6.93-2.445,9.449-4.224C263.481,255.686,266.928,251.128,269.299,245.125 M268.521,241.901
		c2.445-2.149,4.002-3.298,4.668-3.446c1.186-0.296,1.223,1.259,0.112,4.668c-2.964,9.19-7.634,15.711-14.007,19.565
		c-5.114,3.187-10.598,4.299-16.453,3.335c-4.744-0.815-5.707-1.927-2.891-3.335c1.705-0.89,5.521-3.409,11.45-7.559
		L268.521,241.901"/>
	<path fill="#0D131A" d="M252.18,308.158c3.261,0,7.078-0.927,11.451-2.78c4.743-2,7.855-4.262,9.337-6.781
		c2.149-3.482,4.188-8.226,6.115-14.229l-0.667,0.667c-4.225,5.336-8.004,9.227-11.339,11.672c-5.558,4.002-12.525,6.67-20.9,8.004
		C248.475,307.009,250.476,308.158,252.18,308.158 M252.18,311.159c-1.705,0-3.483-0.667-5.336-2l-3.891-3.225l-1.333-2.001
		c-0.223-0.963,0.296-1.556,1.556-1.778c7.041-0.815,13.376-2.965,19.01-6.448c4.817-2.891,9.449-7.041,13.896-12.451
		c2.965-3.557,4.744-4.854,5.336-3.891c0.667,0.964,0.334,4.262-1,9.894c-1.629,6.818-5.04,12.192-10.227,16.12
		C265.149,309.232,259.146,311.159,252.18,311.159"/>
	<path fill="#0D131A" d="M284.085,177.312c5.039-5.483,8.151-10.339,9.337-14.563l-1.445,9.783
		c-3.928,6.002-7.93,10.746-12.006,14.229c-4.075,3.558-9.337,6.707-15.785,9.45l-4.224-1.89
		C269.449,190.097,277.488,184.428,284.085,177.312"/>
	<path fill="#FFE100" d="M293.979,407.763c-3.853,0-7.188-1.74-10.005-5.226c-2.816-3.482-4.224-7.632-4.224-12.449
		c0-4.373,1.074-8.189,3.224-11.45c2.223-3.335,4.891-5.003,8.004-5.003c1.556,0,3.261,1.667,5.113,5.003
		c2.002,3.63,3.113,7.484,3.335,11.562c0.371,6.225,0.111,10.746-0.778,13.562C297.758,406.431,296.203,407.763,293.979,407.763"/>
	<path fill="#DCC200" d="M297.313,383.974c1.261,2.668,1.89,5.558,1.89,8.671c0,5.928-0.37,10.004-1.111,12.227
		c-0.816,2.445-2.447,3.669-4.893,3.669c-3.26,0-7.374-3.743-12.339-11.227c4.225,0.741,7.634,0.186,10.228-1.668
		C294.054,393.497,296.127,389.606,297.313,383.974"/>
	<path fill="#0D131A" d="M291.868,375.969l-1.668-0.443c-3.261,0.592-5.632,2.852-7.115,6.781
		c-1.407,3.334-1.778,6.707-1.111,10.117c1.037,5.558,3.631,9.745,7.781,12.563c1.854,1.259,3.409,1.813,4.669,1.667
		c1.705-0.371,2.854-2.262,3.447-5.669c0.444-3.038,0.333-6.633-0.334-10.783C296.424,382.64,294.536,377.896,291.868,375.969
		 M281.083,378.971c2.372-3.78,5.225-5.966,8.561-6.559c1.259-0.223,2.593,0.074,4.001,0.888c3.928,2.298,6.412,8.635,7.449,19.01
		c1.037,10.67-1,16.489-6.114,17.453c-2.076,0.37-4.448-0.369-7.116-2.223c-2.297-1.559-4.298-3.633-6.003-6.226
		c-1.705-2.593-2.815-5.374-3.335-8.337C277.563,387.791,278.416,383.121,281.083,378.971"/>
</g>
</svg>
