<?xml version="1.0" encoding="utf-8"?>
<!-- Generator: Adobe Illustrator 16.0.0, SVG Export Plug-In . SVG Version: 6.00 Build 0)  -->
<!DOCTYPE svg PUBLIC "-//W3C//DTD SVG 1.1//EN" "http://www.w3.org/Graphics/SVG/1.1/DTD/svg11.dtd">
<svg version="1.1" id="Layer_1" xmlns="http://www.w3.org/2000/svg" xmlns:xlink="http://www.w3.org/1999/xlink" x="0px" y="0px"
	 width="800px" height="800px" viewBox="0 0 800 800" enable-background="new 0 0 800 800" xml:space="preserve">
<g>
	<path fill="#A7D081" d="M377.213,246.106c-12.445,4.294-25.371,8.064-38.778,11.307l-60.601,14.064
		c-29.885,6.048-46.404,7.668-49.559,4.865c-6.485-5.521-11.48-14.241-14.987-26.16c-3.417-11.042-5.039-22.961-4.863-35.754
		c0.087-15.424,6.704-36.063,19.85-61.917l14.065-27.209c4.47-9.026,7.012-15.643,7.625-19.85
		c1.052-7.712-0.219-21.297-3.813-40.751c-3.33-17.528-5.783-27.562-7.361-30.105c-1.052-1.577-0.833-3.065,0.657-4.47
		c1.314-1.314,3.33-2.057,6.047-2.234c36.457-1.139,69.627,9.859,99.511,32.995c30.06,23.224,48.419,52.321,55.08,87.289
		c2.98,8.149,5.567,23.092,7.757,44.824c2.278,23.398,1.796,36.544-1.446,39.437C402.103,236.293,392.375,240.851,377.213,246.106"
		/>
	<path fill="#90B571" d="M241.684,132.136l3.155,0.262c-6.134,19.369-11.086,38.56-14.854,57.577
		c-4.469,22.699-5.872,39.262-4.207,49.692c1.227,6.922,2.147,19.191,2.76,36.806l-0.262-0.131
		c-6.485-5.521-11.48-14.241-14.987-26.16c-3.417-11.042-5.039-22.961-4.863-35.754c0.087-10.255,4.075-23.838,11.961-40.751
		L241.684,132.136"/>
	<path fill="#0D131A" d="M404.948,206.671c-1.663-56.263-19.322-100.784-52.975-133.561
		c-30.936-30.059-67.743-43.947-110.422-41.669c2.979,9.289,5.696,19.585,8.149,30.892c4.82,22.696,5.653,39.524,2.498,50.477
		c-1.927,6.663-7.011,17.309-15.249,31.943c-8.764,15.424-14.635,27.605-17.615,36.547c-7.974,24.01-9.245,45.264-3.812,63.753
		c3.331,11.395,8.632,20.508,15.906,27.343c5.083,4.821,6.354,7.712,3.812,8.676c-2.453,0.964-6.091-0.438-10.911-4.207
		c-9.552-7.36-15.95-20.2-19.191-38.517c-3.681-20.331-1.534-40.093,6.44-59.284c2.016-4.997,8.151-16.476,18.405-34.443
		c8.238-14.46,13.277-26.114,15.117-34.965c2.278-11.129,2.016-24.934-0.788-41.41c-2.016-11.919-5.084-23.882-9.202-35.888
		c-1.139-3.153-0.57-5.212,1.708-6.177l11.173-1.183c41.102,0,75.938,12.225,104.507,36.675
		c36.633,31.463,56.35,79.312,59.156,143.548c0.087,2.191-1.008,3.988-3.287,5.39C406.178,211.928,405.036,210.615,404.948,206.671"
		/>
	<path fill="#F0E800" d="M603.445,382.426c-10.689,23.399-25.458,46.098-44.297,68.094
		c-48.114,56.352-107.183,92.019-177.202,107.005c-14.899,3.155-31.856-11.349-50.874-43.511
		c-17.089-28.92-32.075-65.07-44.957-108.452c-12.97-43.642-19.587-80.451-19.849-110.422c-0.177-33.566,8.149-49.952,24.976-49.165
		c30.673,1.404,62.835-7.01,96.488-25.239l35.229-20.768c12.006-7.187,21.207-11.569,27.605-13.146
		c43.379-10.692,80.8-4.12,112.263,19.718c34.266,25.939,52.451,66.865,54.555,122.778
		C617.907,343.341,613.264,361.043,603.445,382.426"/>
	<path fill="#BF794E" d="M709.794,282.52c-4.994,7.187-9.813,11.832-14.46,13.935c-3.418,1.489-5.564,2.06-6.441,1.71
		c-0.875-0.353-1.532-2.06-1.97-5.127c2.54-8.852,4.16-17.134,4.862-24.846c1.313-14.984-3.33-24.931-13.936-29.84
		c-6.748-3.153-14.767-3.286-24.055-0.394c-8.677,2.716-15.82,7.054-21.429,13.015c-2.19,2.366-8.982-4.338-20.374-20.112
		c-11.396-15.689-15.6-24.759-12.621-27.212c13.146-10.78,32.162-16.17,57.052-16.17c26.379,0,46.447,6.879,60.205,20.639
		c10.867,10.78,12.577,27.431,5.128,49.952C718.778,267.007,714.79,275.16,709.794,282.52"/>
	<path fill="#F0E800" d="M562.301,197.207c7.188-3.068,16.521-2.672,28.001,1.183c13.583,4.644,24.1,12.883,31.551,24.715
		c7.973,12.531,11.259,25.106,9.859,37.727c-1.055,9.376-4.516,18.14-10.387,26.292c-2.278,3.243-4.163,3.898-5.652,1.97
		c-1.139-1.314-2.718-5.256-4.734-11.829c-3.59-11.744-9.463-24.231-17.613-37.465c-9.201-14.637-17.878-24.363-26.027-29.184
		c-4.207-2.454-6.879-4.907-8.021-7.36C558.053,200.624,559.062,198.607,562.301,197.207"/>
	<path fill="#CEC900" d="M542.189,466.297c-24.362,23.046-51.311,42.986-80.845,59.81c-30.586,17.354-60.382,29.273-89.389,35.757
		l16.037-28.787c11.131-19.369,17.922-29.444,20.375-30.236c48.551-13.758,92.457-38.954,131.717-75.585
		c33.129-30.937,58.588-65.379,76.378-103.325c2.278,21.382-3.549,45.002-17.487,70.854
		C585.833,418.971,566.903,442.809,542.189,466.297"/>
	<path fill="#CEC900" d="M608.444,265.3c5.692-1.841,9.855-4.294,12.486-7.362c2.979-3.417,5.433-8.895,7.359-16.432
		c0-3.767,0.615-1.795,1.842,5.917c0.964,6.748,1.008,12.356,0.131,16.826c-1.664,9.641-6.133,18.184-13.407,25.633
		c-0.965-1.577-2.146-4.907-3.552-9.991L608.444,265.3"/>
	<path fill="#0D131A" d="M181.739,234.54c46.973-12.356,92.063-5.74,135.268,19.85c43.905,26.029,74.009,64.852,90.309,116.47
		c16.477,52.144,14.373,101.746-6.312,148.808c-9.814,22.259-23.135,41.318-39.96,57.184c-17.353,16.388-37.29,28.13-59.813,35.228
		c-22.522,7.188-45.703,9.115-69.54,5.785c-23.223-3.241-45.308-11.13-66.253-23.662c-21.034-12.531-39.262-28.744-54.686-48.639
		c-16.038-20.769-27.737-44.035-35.098-69.802c-6.66-23.398-9.29-48.026-7.888-73.878c1.49-25.679,6.836-49.956,16.037-72.826
		c9.554-23.751,22.348-43.688,38.386-59.814C139.455,251.979,159.305,240.411,181.739,234.54"/>
	<path fill="#0D131A" d="M584.781,232.699c-7.625-11.217-17.878-20.814-30.761-28.788c-13.233-8.237-27.736-13.758-43.512-16.563
		c-36.809-6.573-71.339,1.929-103.586,25.502c-17.528,12.796-37.465,22.524-59.813,29.185c-22.084,6.66-40.575,8.632-55.473,5.915
		c-4.382-0.79-8.282-2.366-11.7-4.732c-3.593-2.453-2.147-3.461,4.338-3.024c24.101,1.576,46.272-0.437,66.517-6.046
		c19.368-5.346,36.106-13.804,50.214-25.371c29.798-24.453,64.02-34.003,102.666-28.657c17.354,2.366,33.479,7.799,48.376,16.298
		c15.162,8.589,27.52,19.457,37.069,32.602c28.045,38.56,37.598,79.442,28.659,122.647c-6.838,32.864-24.716,67.479-53.635,103.852
		c-20.857,26.291-49.516,49.337-85.973,69.145c-32.775,17.877-68.881,31.594-108.317,41.146c-6.047,1.489-8.414,0.438-7.099-3.155
		c1.314-3.595,5.17-6.311,11.568-8.15c42.942-11.742,75.851-23.486,98.722-35.23c31.288-15.86,57.842-37.374,79.661-64.543
		c30.498-37.772,49.518-70.722,57.052-98.854C620.711,314.506,612.387,273.45,584.781,232.699"/>
	<path fill="#F4B1B1" d="M165.439,248.209c15.335-7.712,33.609-11.742,54.816-12.094c22.522-0.35,44.738,3.639,66.647,11.962
		c53.372,20.335,90.662,59.506,111.87,117.523c14.196,38.825,15.819,78.828,4.865,120.02
		c-11.307,42.063-33.127,74.711-65.466,97.934c-31.549,22.697-65.858,31.722-102.93,27.078
		c-35.58-4.469-68.882-20.769-99.905-48.899c-22.698-20.684-39.261-46.49-49.69-77.427c-9.815-29.185-13.146-59.596-9.99-91.23
		c3.154-31.638,12.269-60.076,27.342-85.316C119.036,281.031,139.85,261.181,165.439,248.209"/>
	<path fill="#0D131A" d="M249.439,273.977c42.503,14.46,72.694,43.161,90.572,86.103c17.791,42.505,18.141,85.709,1.052,129.613
		c-6.835,17.527-17.264,32.296-31.285,44.303c-13.848,11.741-29.49,19.498-46.931,23.268c-18.141,3.944-36.193,3.068-54.159-2.628
		c-19.367-6.136-36.982-17.44-52.845-33.916c-23.75-24.628-38.561-53.504-44.431-86.63c-4.733-27.081-3.287-53.635,4.337-79.662
		c11.218-38.473,32.12-64.149,62.704-77.033C202.466,267.142,226.128,266,249.439,273.977"/>
	<path fill="#0D131A" d="M692.441,496.138c19.543,26.99,31.988,56.962,37.333,89.913c4.908,30.233,3.42,59.724-4.47,88.469
		c-7.535,27.958-19.938,50.964-37.2,69.016c-17.877,18.754-38.298,29.229-61.259,31.419c-3.683,0.35-5.915-1.229-6.704-4.733
		c-0.614-2.629-0.746-9.2-0.394-19.717c2.104-70.547-32.031-115.42-102.404-134.611c-29.711-8.148-52.67-20.596-68.883-37.331
		c-14.635-15.162-22.479-32.428-23.529-51.796c-0.965-18.401,4.292-36.063,15.773-52.977c11.744-17.264,28.176-30.893,49.296-40.883
		c34.091-16.214,69.188-19.147,105.297-8.808C633.332,434.966,665.713,458.979,692.441,496.138"/>
	<path fill="#0D131A" d="M585.568,200.624c-10.78-3.243-19.719-2.234-26.816,3.024c-1.666,1.314-3.636,0.877-5.914-1.314
		c-2.277-2.278-2.587-3.813-0.921-4.6c11.654-5.786,24.102-6.707,37.333-2.762c12.621,3.768,23.268,10.999,31.944,21.691
		c8.938,11.217,13.626,23.748,14.065,37.596c0.351,15.511-4.953,30.452-15.908,44.824c-2.452,3.155-4.072,2.631-4.861-1.576
		c-0.877-4.207-0.22-7.668,1.973-10.384c9.025-11.482,12.837-23.751,11.437-36.809c-1.314-11.392-6.269-21.866-14.856-31.417
		C604.979,209.872,595.823,203.778,585.568,200.624"/>
	<path fill="#0D131A" d="M715.184,280.153c-5.961,9.203-12.138,15.732-18.534,19.587c-6.661,4.032-10.692,4.953-12.093,2.762
		c-1.142-1.841-0.792-6.704,1.05-14.594c6.049-26.201,2.146-41.934-11.7-47.19c-5.605-2.191-12.268-2.147-19.98,0.131
		c-7.359,2.191-14.416,5.958-21.164,11.305c-1.137,0.877-2.189,0.394-3.151-1.445c-0.968-1.841-0.746-3.287,0.654-4.338
		c10.429-7.45,20.462-11.788,30.105-13.014c9.2-1.052,16.869,0.833,23.005,5.652c6.221,4.907,9.987,12.138,11.305,21.691
		c1.401,10.34-0.222,22.259-4.866,35.755c3.597,0.439,8.503-3.243,14.726-11.042c6.485-8.237,11.349-17.528,14.591-27.868
		c9.026-28.482,0.875-48.682-24.449-60.601c-15.425-7.188-32.078-9.641-49.955-7.362c-16.124,2.016-29.884,7.231-41.277,15.643
		c-1.313,0.964-2.541,0.527-3.679-1.314c-1.229-1.841-1.402-3.024-0.525-3.549c12.006-7.974,25.502-13.32,40.487-16.039
		c19.895-3.505,39.041-1.271,57.445,6.704c25.939,11.132,36.148,30.586,30.63,58.366
		C725.701,259.999,721.494,270.25,715.184,280.153"/>
	<path fill="#0D131A" d="M516.425,365.862c2.804,13.32,0.92,25.633-5.651,36.94c-6.573,11.305-15.951,18.229-28.133,20.771
		c-12.183,2.629-23.617,0.132-34.311-7.493c-10.604-7.624-17.307-18.099-20.114-31.419c-2.891-13.32-1.049-25.633,5.523-36.938
		c6.66-11.307,16.083-18.273,28.262-20.901c12.185-2.543,23.575,0,34.182,7.625C506.784,342.068,513.531,352.542,516.425,365.862"/>
	<path fill="#0D131A" d="M376.951,219.949c12.006-2.543,23.092-0.746,33.259,5.39c10.163,6.045,16.433,14.678,18.798,25.895
		c2.366,11.217,0.305,21.473-6.18,30.761c-6.485,9.201-15.729,15.074-27.738,17.615c-12.356,2.541-23.573,0.746-33.652-5.39
		c-9.727-6.045-15.686-14.328-17.877-24.843c-2.366-11.307-0.395-21.691,5.916-31.157
		C355.875,228.582,365.032,222.49,376.951,219.949"/>
	<path fill="#FFFFFF" d="M378.266,224.156c10.429-2.191,20.024-0.658,28.786,4.601c8.765,5.256,14.2,12.75,16.305,22.478
		c2.014,9.729,0.088,18.798-5.786,27.212c-5.87,8.412-13.977,13.714-24.319,15.905c-10.341,2.278-19.893,0.746-28.657-4.601
		c-8.851-5.259-14.285-12.752-16.301-22.478c-2.102-9.729-0.219-18.798,5.653-27.212
		C359.817,231.646,367.923,226.344,378.266,224.156"/>
	<path fill="#FFFFFF" d="M511.693,366.521c2.453,11.567,0.83,22.216-4.866,31.944c-5.695,9.816-13.845,15.862-24.45,18.139
		c-10.604,2.278-20.505,0.088-29.708-6.571c-9.116-6.573-14.942-15.644-17.483-27.213c-2.453-11.567-0.833-22.26,4.864-32.075
		c5.693-9.815,13.847-15.817,24.45-18.008c10.516-2.278,20.374-0.131,29.578,6.442C503.366,345.75,509.237,354.865,511.693,366.521"
		/>
	<path fill="#0D131A" d="M386.152,247.159c4.908-1.052,9.464-0.087,13.671,2.893c4.207,2.98,6.879,7.097,8.021,12.356
		c1.138,5.259,0.393,10.122-2.236,14.591c-2.715,4.472-6.484,7.231-11.304,8.283c-4.82,1.052-9.377,0.087-13.671-2.893
		c-4.207-2.978-6.879-7.098-8.018-12.356c-1.142-5.26-0.396-10.122,2.233-14.592C377.564,250.972,381.333,248.209,386.152,247.159"
		/>
	<path fill="#0D131A" d="M494.865,392.154c-3.24,5.434-7.844,8.808-13.805,10.122c-5.868,1.229-11.393,0.047-16.562-3.549
		c-5.171-3.68-8.458-8.72-9.858-15.118c-1.404-6.485-0.483-12.443,2.76-17.877c3.242-5.434,7.846-8.764,13.804-9.991
		c5.958-1.314,11.523-0.131,16.694,3.549c5.172,3.68,8.411,8.72,9.729,15.118C499.028,380.807,498.107,386.72,494.865,392.154"/>
	<path fill="#ED8599" d="M275.335,296.062c27.518,13.233,47.499,36.413,59.944,69.54c11.217,29.709,13.934,59.156,8.15,88.337
		c-4.032,20.068-10.123,36.369-18.273,48.9c-12.443,19.193-28.262,26.554-47.455,22.084c-30.41-7.098-54.86-24.098-73.352-51.004
		c-17.703-25.677-26.203-54.509-25.502-86.497c0.788-34.178,13.058-60.557,36.808-79.136c9.815-7.712,20.243-12.665,31.285-14.856
		C257.721,291.327,267.186,292.204,275.335,296.062"/>
	<path fill="#BABC79" d="M465.156,223.892c-2.629,2.278-6.134,3.944-10.516,4.996l-10.779-0.658
		c-2.453-1.489-3.857-3.68-4.207-6.573c-0.351-2.803,0.35-5.39,2.104-7.756c2.54-3.505,6.354-5.827,11.438-6.966
		c5.257-1.314,9.376-0.571,12.354,2.235c2.104,2.016,3.112,4.513,3.024,7.494C468.486,219.641,467.348,222.052,465.156,223.892"/>
	<path fill="#BABC79" d="M560.197,231.516c1.754,2.278,2.453,4.731,2.104,7.362c-0.438,2.628-1.97,4.95-4.601,6.966
		c-2.806,2.104-5.914,3.243-9.332,3.417c-3.508,0.175-6.092-0.787-7.756-2.891c-1.579-2.191-1.754-4.996-0.527-8.414
		c1.141-3.243,3.155-5.915,6.046-8.018c2.631-1.928,5.263-2.718,7.891-2.366C556.386,227.923,558.446,229.237,560.197,231.516"/>
	<path fill="#BABC79" d="M555.072,319.198c-1.842,4.906-4.863,8.72-9.07,11.436c-4.294,2.631-8.501,3.374-12.621,2.235
		c-4.118-1.14-7.01-3.855-8.676-8.149c-1.664-4.294-1.576-8.895,0.262-13.804c1.843-4.819,4.909-8.589,9.204-11.304
		c4.294-2.716,8.499-3.505,12.618-2.366c4.12,1.227,7.01,3.942,8.677,8.149C557.132,309.688,556.998,314.289,555.072,319.198"/>
	<path fill="#BABC79" d="M464.5,217.317c-0.35,1.841-1.885,3.552-4.603,5.128c-2.629,1.664-5.345,2.584-8.149,2.759
		c-2.453,0.177-4.47-0.262-6.046-1.314c-1.579-1.139-2.237-2.672-1.973-4.601c0.263-2.453,1.886-4.645,4.862-6.573
		c2.365-1.577,4.731-2.541,7.099-2.891c2.455-0.265,4.559,0.175,6.311,1.314C464.191,212.542,465.024,214.603,464.5,217.317"/>
	<path fill="#BABC79" d="M558.229,237.958c-0.438,3.243-2.807,5.521-7.099,6.835c-1.841,0.527-3.551,0.527-5.128,0
		c-1.929-0.7-2.762-2.06-2.499-4.073c0.263-2.281,1.056-4.294,2.365-6.048c1.404-1.929,3.158-3.112,5.262-3.549
		c2.102-0.44,3.898,0.044,5.389,1.445C558.006,233.968,558.577,235.767,558.229,237.958"/>
	<path fill="#BABC79" d="M549.551,320.379c-1.754,2.891-4.074,5.125-6.969,6.704c-2.803,1.489-5.519,1.929-8.148,1.314
		c-2.365-0.524-3.988-2.541-4.862-6.045c-0.965-3.508-0.746-7.1,0.658-10.78c1.573-3.945,3.985-6.748,7.229-8.414
		c2.628-1.402,5.038-1.795,7.229-1.183c3.595,1.139,5.874,3.549,6.835,7.231C552.487,312.975,551.829,316.698,549.551,320.379"/>
	<path fill="#A7D081" d="M497.23,438.296c33.127-13.06,65.902-14.46,98.329-4.207c35.318,11.22,66.604,35.448,93.859,72.694
		c18.579,25.326,29.927,53.939,34.044,85.841c3.684,28.744,1.273,57.052-7.229,84.92c-8.149,26.641-20.287,48.288-36.413,64.938
		c-16.738,17.264-34.661,25.853-53.767,25.766c2.807-37.334-1.487-67.786-12.881-91.361c-15.951-32.864-46.404-56.045-91.36-69.54
		c-32.165-9.638-55.694-23.005-70.594-40.093c-12.969-14.896-18.664-31.639-17.089-50.214c1.489-16.653,8.37-32.429,20.641-47.327
		C466.691,455.255,480.845,444.78,497.23,438.296"/>
	<path fill="#90B571" d="M514.06,587.761c9.376,4.295,24.142,9.859,44.3,16.694c32.512,11.043,54.857,36.457,67.043,76.244
		c4.817,15.862,7.229,31.898,7.229,48.109c-0.088,15.425-2.235,27.958-6.441,37.6c2.631-36.808-1.883-66.955-13.539-90.443
		c-16.038-32.422-46.315-55.298-90.834-68.619c-39.699-11.829-66.124-29.226-79.271-52.187
		c-11.129-19.456-11.74-40.445-1.838-62.968c11.919,36.81,25.938,62.269,42.064,76.375
		C490.833,575.665,501.264,582.063,514.06,587.761"/>
	<path fill="#D3999B" d="M375.11,533.206l23.136-30.893c-6.047,16.563-14.021,31.639-23.924,45.221
		c-10.341,14.109-22.392,26.116-36.15,36.02c-23.049,16.563-47.894,25.854-74.535,27.868c-25.502,1.841-50.917-3.067-76.245-14.722
		c-2.103-2.454-2.278-4.732-0.526-6.837l11.7-0.396c49.603,18.667,94.998,12.883,136.188-17.354
		C348.601,562.041,362.051,549.068,375.11,533.206"/>
</g>
</svg>
