<?xml version="1.0" encoding="utf-8"?>
<!-- Generator: Adobe Illustrator 16.0.0, SVG Export Plug-In . SVG Version: 6.00 Build 0)  -->
<!DOCTYPE svg PUBLIC "-//W3C//DTD SVG 1.1//EN" "http://www.w3.org/Graphics/SVG/1.1/DTD/svg11.dtd">
<svg version="1.1" id="Layer_1" xmlns="http://www.w3.org/2000/svg" xmlns:xlink="http://www.w3.org/1999/xlink" x="0px" y="0px"
	 width="800px" height="800px" viewBox="0 0 800 800" enable-background="new 0 0 800 800" xml:space="preserve">
<g>
	<path fill="#717069" d="M650.563,331.277l5.479-0.864l7.563-0.577c0.676,0.096,3.076,2.042,7.207,5.837l-14.34,20.248
		L650.563,331.277"/>
	<path fill="#888780" d="M255.402,580.091l-6.485-0.577c-1.105-0.525-1.562-3.219-1.369-8.069c0.144-3.313,0.504-6.652,1.081-10.016
		c0.24-1.537,5.164-4.3,14.771-8.287l20.608-8.646c1.057-0.481,2.426-3.987,4.107-10.521c1.73-6.821,2.283-11.577,1.657-14.268
		L268.3,503.063l2.667-20.897l102.609,46.55L373,537.577l-21.041-0.576l-0.433,6.125c-0.096,4.372,0.24,7.205,1.009,8.503
		c0.913,1.538,1.297,3.554,1.153,6.052c-0.144,2.354-0.721,4.372-1.729,6.054c-0.769,1.297-8.526,6.006-23.274,14.124
		l-23.275,12.681c-0.961,0.625-2.979,1.033-6.053,1.225c-3.075,0.241-6.245,0.217-9.511-0.071c-2.402-0.191-4.131-1.079-5.188-2.666
		l-0.937-2.307l-7.927,0.938c-5.764,0.479-9.703,0.383-11.817-0.29c-1.538-0.527-2.666-1.97-3.387-4.323l-0.576-3.386
		L255.402,580.091"/>
	<path fill="#717069" d="M373,537.577l-21.041-0.576l-0.433,6.125c-0.096,4.372,0.24,7.205,1.009,8.503
		c0.913,1.538,1.297,3.554,1.153,6.052c-0.144,2.354-0.721,4.372-1.729,6.054c-0.769,1.297-8.526,6.006-23.274,14.124
		l-23.274,12.681c-0.433,0.288-0.505-1.179-0.216-4.396l1.008-7.275c0.144-0.722,3.963-4.517,11.457-11.387
		c7.11-6.532,10.353-10.783,9.728-12.754c-0.673-2.257-5.26-5.932-13.763-11.023c-1.826-1.058-10.04-5.597-24.644-13.619
		c0.96-5.043,1.225-8.502,0.792-10.375L268.3,503.063l2.667-20.897l103.762,32.787L373,537.577"/>
	<path fill="#888780" d="M524.68,478.347c6.58,0.288,11.266,1.346,14.051,3.171l3.965,14.699l-7.135,5.691l2.666,12.25
		c2.064,8.792,3.771,14.772,5.115,17.941c1.297,3.172,5.549,7.519,12.756,13.043l13.258,9.656c1.537,1.296,2.258,4.779,2.16,10.447
		l-0.287,9.943c0.287,1.104-0.744,2.427-3.1,3.962l-6.053,3.244l-3.098-0.072l-1.73-0.722l-2.594,5.116
		c-8.646,3.459-14.025,4.996-16.141,4.613c-1.297-0.29-3.146-0.938-5.549-1.946l-3.17-1.441l-12.25,4.18
		c-2.211,0.912-6.628-1.945-13.258-8.575l-13.835-11.961l-12.899-11.023c-0.96-0.962-1.416-3.123-1.368-6.484
		c0.097-3.362,0.625-6.029,1.585-7.999c0.771-1.584,0.602-4.828-0.504-9.729l-1.874-6.916l-20.176,4.323l-4.755-7.063l-22.627,2.019
		l-1.946-6.414l1.37-2.593c1.536-2.258,3.724-4.638,6.558-7.136c9.127-8.068,23.25-15.924,42.369-23.563
		C495.306,481.374,511.47,477.817,524.68,478.347"/>
	<path fill="#717069" d="M524.68,478.347c6.58,0.288,11.266,1.346,14.051,3.171l3.746,14.195l-6.916,6.195l2.666,12.25
		c2.064,8.792,3.771,14.772,5.115,17.941c1.059,2.597,3.916,5.814,8.574,9.655c-17.004-6.629-31.08-10.353-42.224-11.169
		c-9.992-0.721-20.896,0.795-32.715,4.54l-1.586-5.691l-20.176,4.323l-4.755-7.063l-22.627,2.019l-1.946-6.414l1.37-2.593
		c1.536-2.258,3.724-4.638,6.558-7.135c9.127-8.069,23.25-15.925,42.369-23.563C495.306,481.374,511.47,477.817,524.68,478.347"/>
	<path fill="#717069" d="M532.965,589.387l-3.168-1.441l-12.25,4.18l-3.1-0.36l0.793-8.719c0.096-2.497,0.313-3.675,0.648-3.531
		l4.611-0.144c3.506-0.384,7.012-1.226,10.52-2.521c0.77-0.241,2.547-0.023,5.332,0.648l5.691,0.722l11.025-3.244
		c2.4-0.816,4.252-1.704,5.549-2.666c0.287-0.191,0.313-0.888,0.07-2.089c-0.191-1.104-0.021-1.754,0.506-1.946
		c3.361-1.393,7.35-4.539,11.961-9.438c0.338,2.113,0.408,5.309,0.217,9.585c-0.193,4.083-0.24,6.34-0.145,6.771
		c0.287,1.104-0.744,2.427-3.1,3.963l-6.053,3.243l-3.098-0.072l-1.73-0.722l-2.594,5.116c-8.646,3.459-14.025,4.996-16.141,4.613
		C537.217,591.043,535.367,590.395,532.965,589.387"/>
	<path fill="#888780" d="M530.012,276.227c4.9,2.739,7.662,4.708,8.285,5.909c0.963,1.921,3.195,11.41,6.703,28.463l13.979,34.515
		c9.031,24.354,12.73,39.848,11.098,46.477l-6.342,6.197l-3.168,3.314l-0.578,5.404l4.322,4.035
		c2.932,3.026,4.492,5.235,4.686,6.629c0.383,2.594-0.48,8.479-2.594,17.654c-2.402,10.615-5.189,17.727-8.359,21.328
		c-3.41,1.824-7.494,3.508-12.25,5.044l-6.053,1.729v16.862c0,0.721-5.117,5.165-15.35,13.33c-10.23,8.118-15.73,12.178-16.5,12.178
		c-0.575,0-2.594-0.792-6.052-2.378l-5.045-2.45c-1.297,6.438-2.427,9.993-3.387,10.665c-0.816,0.527-7.758,2.45-20.825,5.765
		c-13.258,3.314-20.438,4.853-21.544,4.611c-1.01-0.191-3.868-2.21-8.575-6.052l-6.846-5.693l-24.139,16.284l-23.204,1.586
		c-16.621,0.912-27.837,0.864-33.65-0.145l-9.151-15.421c-9.512-5.33-20.393-12.225-32.642-20.681
		c-24.451-16.909-43.45-33.099-56.997-48.564c-1.393-1.587-2.33-7.303-2.81-17.15c-0.481-9.943-1.225-15.54-2.234-16.789
		c-9.656-11.577-14.724-18.638-15.204-21.185c0.192-3.219,2.738-8.599,7.638-16.141c2.45-3.794,4.876-7.253,7.278-10.376
		l11.097-72.273l-3.891-8.214l9.08-16.645c6.245-11.241,9.967-17.27,11.168-18.086c1.201-0.769,6.053-1.225,14.556-1.369
		c4.275-0.048,8.407-0.024,12.394,0.072l10.232-5.477c7.638-3.795,13.355-6.197,17.149-7.206c1.441-1.873,3.483-6.509,6.125-13.907
		c2.258-6.437,3.795-9.655,4.612-9.655l23.418,0.721l25.004,1.657c2.209,1.393,4.324,3.386,6.34,5.981l2.378,3.386l21.114-0.072
		c14.65,0.24,23.273,1.152,25.868,2.738l19.671,12.538l20.824-9.151l14.483,23.129l8.863,1.802c6.053,1.441,9.367,2.763,9.941,3.964
		c0.961,1.969,1.586,7.757,1.875,17.365L530.012,276.227"/>
	<path fill="#717069" d="M268.588,382.655l-8.431,2.594l-4.179,1.513c-6.773-5.284-11.481-9.655-14.124-13.114l1.874-3.459
		l1.801-3.314c2.066,0.72,4.563,1.297,7.495,1.729l5.332,4.684L268.588,382.655"/>
	<path fill="#717069" d="M332.936,231.264l-2.522,11.962l-11.457,9.511c-8.503,6.581-14.795,10.448-18.879,11.601
		c-3.171,0.913-7.422-0.312-12.754-3.675l-8.071-6.124c-0.577-0.577-1.033-2.09-1.369-4.541c-0.336-2.401-0.313-3.747,0.072-4.035
		c1.201-0.769,6.053-1.225,14.556-1.369c4.275-0.048,8.407-0.024,12.394,0.072l10.52-5.621
		C323.208,235.011,329.044,232.417,332.936,231.264"/>
	<path fill="#717069" d="M502.126,249.35l8.863,1.802c6.054,1.441,9.368,2.763,9.942,3.964c0.961,1.969,1.586,7.757,1.873,17.365
		l7.205,3.747c4.9,2.739,7.664,4.708,8.287,5.909c0.961,1.921,3.195,11.41,6.703,28.463l13.979,34.515
		c9.031,24.355,12.73,39.848,11.098,46.477l-6.342,6.197l-3.17,3.314l-0.578,5.404l4.324,4.035c2.932,3.026,4.492,5.236,4.684,6.629
		c0.385,2.594-0.48,8.479-2.594,17.654c-2.402,10.615-5.188,17.727-8.359,21.329c-3.41,1.823-7.494,3.507-12.248,5.043l-6.053,1.729
		v16.862c0,0.721-5.117,5.165-15.352,13.33c-10.229,8.119-15.729,12.178-16.499,12.178c-0.576,0-2.594-0.792-6.052-2.378
		l-5.045-2.45c-1.297,6.438-2.427,9.993-3.387,10.665c-0.816,0.527-7.759,2.45-20.825,5.765
		c-13.258,3.314-20.438,4.853-21.544,4.611c-1.01-0.191-3.868-2.21-8.575-6.052l-6.846-5.693l-24.643,17.222l-22.916,1.152
		c-16.477,0.577-27.622,0.36-33.435-0.647l-9.151-15.421c-4.708-5.669-8.888-11.313-12.538-16.934
		c-7.35-11.192-8.455-16.524-3.314-15.996c4.131,0.433,9.968,0.457,17.51,0.071l10.016-0.647l1.584,1.945
		c1.153,1.248,1.97,1.682,2.45,1.296l8.359-7.205l-1.369-3.313c5.188-1.249,18.038-5.669,38.551-13.259
		c21.04-7.781,32.233-12.346,33.579-13.689c1.969-1.922,6.27-8.553,12.897-19.889l15.132-6.846
		c10.568-4.708,16.98-7.396,19.24-8.069c2.209-0.674,3.48-5.621,3.817-14.846c-0.048-9.463,0.071-14.603,0.36-15.42
		c0.385-1.249-0.793-12.153-3.531-32.713c-2.737-20.561-4.468-31.777-5.188-33.651c-0.963-2.45-12.994-18.471-36.102-48.063
		c-0.625-0.864-4.947-2.258-12.971-4.18c-7.878-1.921-12.489-2.762-13.835-2.521c-1.01,0.144-5.404-1.921-13.187-6.197
		l-13.476-7.422c-1.009-0.432-2.185-4.396-3.531-11.89c-1.393-7.878-2.569-12.346-3.53-13.402
		c-2.306-2.642-17.63-5.068-45.973-7.278c1.201-2.354,2.065-3.53,2.594-3.53l23.418,0.721l25.004,1.657
		c3.507,2.258,6.701,5.38,9.584,9.367l20.681-0.072c14.364,0.24,22.843,1.152,25.438,2.738l19.238,12.322l21.257-8.935
		L502.126,249.35"/>
	<path fill="#717069" d="M372.495,428.556c-7.158,6.053-14.124,9.367-20.896,9.943c-6.293,0.577-12.875-1.777-19.744-7.063
		c-2.45-1.874-4.131-3.528-5.044-4.972c-0.864-1.441-0.48-1.85,1.153-1.225c3.891,1.488,10.28,2.21,19.167,2.16
		c10.088-0.096,18.35-1.368,24.787-3.817l4.828-0.146C376.65,424.544,375.232,426.249,372.495,428.556"/>
	<path fill="#888780" d="M269.381,308.292c11.481,7.11,17.894,13.811,19.239,20.104c1.393,6.293-0.36,18.062-5.26,35.308
		c-2.45,8.647-5.044,16.645-7.782,23.995l-23.635-19.311l-30.48-5.477l-24.066,22.193l-13.403-0.288
		c-7.061,7.062-12.85,11.89-17.365,14.484c-2.834,1.585-11.145-7.518-24.932-27.31l-19.817-30.191l22.555-17.726
		c0-8.982,0.168-14.123,0.504-15.42c0.24-0.865,5.332-4.083,15.276-9.656c9.463-5.284,15.132-8.262,17.005-8.935
		c1.201-0.384,5.021,1.633,11.458,6.052l9.295,6.773l12.034-7.71l21.689,7.207l9.656-5.765l11.24,2.81L269.381,308.292"/>
	<path fill="#717069" d="M198.91,303.537l-8.575,2.234c-5.813,1.345-8.935,1.802-9.367,1.369c-0.673-0.721-1.538-3.506-2.594-8.358
		c-1.104-5.14-1.201-8.022-0.288-8.647c0.865-0.529,4.587,1.538,11.168,6.197L198.91,303.537"/>
	<path fill="#717069" d="M263.041,351.958c1.153,2.402,1.994,7.614,2.522,15.636l0.504,11.313l-14.124-10.52l-30.264-5.693
		l-24.283,22.41l-13.403-0.288c-7.061,7.062-12.85,11.89-17.365,14.484c-0.625,0.336-0.865-1.201-0.721-4.612l0.721-12.754
		c0.48-13.931-1.153-23.539-4.9-28.822c9.896,0.144,21.137-2.307,33.722-7.35c6.293-2.546,11.578-5.092,15.853-7.638h8.503
		l13.547-8.791l13.474,14.699l5.333,2.378C256.291,348.332,259.917,350.181,263.041,351.958"/>
	<path fill="#888780" d="M117.917,338.557c2.258,0,9.103,1.201,20.536,3.603l20.464,4.107c1.633,0.192,5.477,4.829,11.529,13.907
		c4.997,7.495,8.383,12.97,10.161,16.429c0.816,1.633,0.961,4.924,0.432,9.872l-1.369,9.872c-0.192,1.537-4.227,5.092-12.105,10.664
		l-14.916,10.594c-1.73,1.536-5.933,1.921-12.61,1.152l-15.853-1.657c-3.603,0-6.773,1.37-9.511,4.106l-5.909,6.99
		c-1.585,1.585-6.077,1.008-13.475-1.729l-14.915-6.485c-2.45-1.008-2.594-6.604-0.433-16.789l4.756-17.87
		c0.625-2.499,1.513-5.549,2.666-9.151c1.441-4.228,2.474-6.654,3.099-7.278l12.105-15.708
		C110.447,343.433,115.563,338.557,117.917,338.557"/>
	<path fill="#717069" d="M126.564,346.123l-2.018-7.35l15.06,3.458l19.311,4.035c1.633,0.192,5.477,4.829,11.529,13.907
		c4.997,7.495,8.383,12.97,10.161,16.429c0.816,1.633,0.961,4.924,0.432,9.872l-1.369,9.872c-0.192,1.537-4.227,5.092-12.105,10.664
		l-14.916,10.594l-14.411,0.432l-19.24-0.647c2.595-2.834,7.23-5.908,13.907-9.223l16.717-8.072c2.45-1.25,3.603-3.747,3.458-7.494
		c-0.144-3.555-1.417-7.638-3.819-12.25c-5.572-10.713-13.378-18.687-23.418-23.923
		C127.381,354.746,127.622,351.311,126.564,346.123"/>
	<path fill="#888780" d="M45.141,335.098c5.861-8.311,9.872-12.298,12.034-11.961l22.122,0.648l15.996-1.153
		c2.402-0.192,8.456,2.594,18.159,8.359l13.835,8.718l0.721,18.23l-16.501,10.088c-11.24,6.63-17.558,9.8-18.951,9.512
		c-1.826-0.384-4.996-2.882-9.511-7.494l-7.782-8.575c-0.817-1.009-6.004-2.401-15.564-4.179l-14.051-2.378
		c-2.882-0.961-5.284-2.57-7.206-4.828C36.999,348.404,39.231,343.408,45.141,335.098"/>
	<path fill="#717069" d="M81.961,339.42l-22.338-1.297c-1.681-0.289-2.642-2.882-2.882-7.782c-0.289-4.948-0.144-7.35,0.432-7.206
		l22.122,0.648l15.996-1.153c2.402-0.192,8.456,2.594,18.159,8.359l13.835,8.718l0.721,17.438
		c-8.022-7.109-13.691-11.721-17.005-13.834c-2.065-1.346-4.299-2.21-6.702-2.595L81.961,339.42"/>
	<path fill="#888780" d="M86.141,381.43c0.961,0,2.09,4.348,3.387,13.043c0.144,1.249-1.321,5.621-4.396,13.114
		c-3.17,7.638-4.755,11.769-4.755,12.394l-3.604-0.07l-7.493-3.315c-2.306-0.815-7.158-0.097-14.556,2.162
		c-6.293,1.874-10.448,3.41-12.466,4.612l-6.773,0.144l-7.206-1.585c-1.345-0.433-1.633-3.531-0.864-9.296
		c0.769-5.621,1.705-9.104,2.811-10.448c2.065-2.594,5.932-6.581,11.601-11.961c7.11-6.677,11.602-9.92,13.475-9.728l15.563,0.648
		L86.141,381.43"/>
	<path fill="#717069" d="M44.275,400.453c1.873-2.306,4.684-4.443,8.431-6.413c4.371-2.258,7.662-2.738,9.872-1.441
		c2.642,5.38,4.275,9.2,4.9,11.457c1.201,4.228,1.104,8.312-0.288,12.25c-3.074-0.048-7.831,0.96-14.268,3.027
		c-5.477,1.729-9.031,3.073-10.665,4.035C41.682,410.493,42.354,402.855,44.275,400.453"/>
	<path fill="#888780" d="M179.958,391.158c0.865,0.384,2.33,4.155,4.395,11.312l5.404,20.394c1.49,5.813,0.577,10.496-2.738,14.052
		c-2.257,2.4-6.125,4.587-11.601,6.559c-1.729,0.623-3.627,0.456-5.693-0.506c-2.162-1.104-3.843-2.811-5.044-5.115
		c-1.057-2.163-4.635-6.197-10.736-12.105c-5.333-5.092-9.295-8.623-11.89-10.592c0.769,0,3.819-3.146,9.152-9.439l12.033-14.125
		c1.346-1.441,4.228-2.065,8.647-1.874C175.731,389.86,178.421,390.34,179.958,391.158"/>
	<path fill="#717069" d="M177.508,412.344c-4.323-9.608-8.143-17.007-11.457-22.194l7.999-0.216
		c2.882,0.288,4.852,0.696,5.909,1.225c0.865,0.384,2.33,4.155,4.395,11.312l5.404,20.394c1.49,5.813,0.577,10.496-2.738,14.052
		c-2.257,2.4-6.125,4.587-11.601,6.559c-2.882,1.008-5.5,0.167-7.854-2.522l6.341-2.884c2.787-1.393,4.828-2.761,6.125-4.105
		c1.009-0.576,1.97-3.484,2.882-8.719L177.508,412.344"/>
	<path fill="#888780" d="M660.219,345.762c0.145,0.24-1.25,11.577-4.18,34.01l-4.467,33.508l-46.334,12.466V396.85l-15.42-21.689
		l3.891-5.332l-1.08-8.07l-7.135,5.188l-19.311-0.432l-4.756,9.584l-16.789,0.359c-11.338,0.192-17.316,0.073-17.941-0.359
		l-2.234-2.018l-1.152-1.297l-11.527,6.269l-23.563-5.044l-4.395-31.633l5.548-11.456c3.844-7.782,6.173-11.986,6.989-12.61
		c0.769-0.577,4.442-1.802,11.023-3.675l9.657-2.593l3.457-7.929c2.402-5.284,3.891-8.022,4.469-8.214l18.014-1.009
		c11.818-0.145,19.238,0.576,22.266,2.162c1.059,0.528,2.018,3.747,2.883,9.656l20.754-0.432l7.854-8.647
		c5.619-5.572,9.439-7.854,11.457-6.845l18.158,8.287c9.703,4.563,14.555,7.446,14.555,8.646c0,1.921,0.648,7.374,1.945,16.356
		l5.766,5.837C653.133,334.906,657,340.189,660.219,345.762"/>
	<path fill="#717069" d="M620.947,313.697c2.162,0,0.648-3.795-4.539-11.386l-8.502-11.457l16.5,7.638
		c11,5.284,16.5,8.358,16.5,9.223c0,1.921,0.648,7.374,1.945,16.356l5.766,5.837c4.516,4.996,8.383,10.28,11.602,15.853
		l-3.459,28.318c-4.852-9.848-14.1-22.554-27.742-38.118l-17.869-20.681C611.965,314.225,615.23,313.697,620.947,313.697"/>
	<path fill="#717069" d="M570.363,345.978l11.527,1.225l10.664,1.729l0.074,12.826l-7.135,5.188l-19.313-0.432l-4.754,9.584
		l-16.791,0.359c-11.336,0.192-17.316,0.073-17.941-0.359l-2.232-2.018l-1.152-1.297l-16.214,9.368l-12.608-1.802
		c-8.359-1.441-12.468-2.786-12.321-4.035c0.144-1.105,4.227-3.147,12.248-6.125c11.48-4.323,18.878-7.278,22.194-8.863
		c2.736-0.096,9.969,0.024,21.688,0.36c9.609,0.241,15.086,0.12,16.43-0.36c1.441-0.529,4.35-3.147,8.721-7.854L570.363,345.978"/>
	<path fill="#888780" d="M722.908,410.83c-14.459,17.053-22.338,26.061-23.637,27.021c-0.91,0.672-1.871,1.104-2.881,1.297
		l-5.838,0.575l-15.635-0.504l-11.314-0.938c-12.199,8.358-19.287,12.875-21.256,13.548l-9.943-0.435
		c-6.102-1.487-12.297-4.539-18.592-9.148c-6.244-4.564-8.813-11.099-7.711-19.601c0.482-3.604,2.619-10.28,6.414-20.031
		c2.26-5.766,6.125-11.17,11.602-16.214c5.861-5.429,12.754-9.656,20.682-12.682c7.205-2.738,16.236-2.979,27.094-0.72
		c9.031,1.874,14.939,4.035,17.727,6.485c1.633,1.441,3.795,2.762,6.484,3.963l7.494,3.313c2.209,1.009,6.102,5.308,11.672,12.898
		L722.908,410.83"/>
	<path fill="#717069" d="M703.598,386.762c2.209,1.009,6.102,5.308,11.672,12.898l7.639,11.169
		c-14.459,17.053-22.338,26.061-23.635,27.021c-0.912,0.672-1.873,1.104-2.883,1.297l-5.836,0.575l-15.637-0.504l-11.314-0.938
		c-12.199,8.358-19.285,12.875-21.254,13.548l-9.729-0.435c-5.957-1.393-12.033-4.299-18.23-8.719
		c6.389-1.151,16.379-3.554,29.977-7.204c13.547-3.699,21.064-6.029,22.553-6.99l7.711-6.846l8.574-8.143
		c1.775-1.488,2.162-8.143,1.154-19.959l-2.092-17.222l2.738,0.72c2.018,0.721,3.555,1.538,4.611,2.45
		c1.635,1.441,3.795,2.762,6.484,3.963L703.598,386.762"/>
	<path fill="#888780" d="M707.416,346.338l-7.711,7.133l-10.088,29.399c-20.225,5.14-31.945,7.542-35.164,7.206
		c-2.018-0.192-5.523-2.282-10.52-6.269l-6.846-5.98l9.439-14.699c6.484-10.041,10.23-15.661,11.238-16.862
		c1.25-1.441,5.836-5.668,13.766-12.681c7.926-7.014,12.367-10.785,13.33-11.313c0.863-0.433,5.283-0.36,13.258,0.217l13.043,1.225
		c0.863,0.288,2.186,2.57,3.963,6.845c1.873,4.324,2.379,6.821,1.514,7.494L707.416,346.338"/>
	<path fill="#717069" d="M711.162,323.712l2.811,5.188c1.922,3.747,2.857,6.197,2.813,7.35c-0.049,1.153-2.906,4.372-8.576,9.656
		l-8.502,7.565l-10.088,29.399l-8,1.945c-0.816-5.717-2.979-13.042-6.484-21.977c-3.17-8.119-4.922-12.009-5.26-11.673
		c0.672-1.057,3.482-3.795,8.43-8.215l7.207-6.269l-1.01-6.773c-0.527-4.563-0.408-6.917,0.361-7.062L711.162,323.712"/>
	<path fill="#888780" d="M765.35,381.357c4.516,3.315,7.014,5.429,7.492,6.341c0.482,0.961,0.723,4.083,0.723,9.368
		c0,5.236-0.238,8.214-0.723,8.936c-0.525,0.769-2.16,1.993-4.898,3.675c-2.785,1.729-4.637,2.594-5.549,2.594l-10.158-2.232
		l-10.447-2.595c-1.586-0.288-11.436,1.656-29.545,5.837l-13.979-18.375c-0.385-0.577-0.506-2.594-0.361-6.052l0.289-4.973
		c19.695-8.166,30.191-12.394,31.488-12.682c1.297-0.336,10.447,1.297,27.453,4.9C758.145,376.386,760.881,378.139,765.35,381.357"
		/>
	<path fill="#717069" d="M757.135,376.099c1.01,0.288,3.746,2.041,8.215,5.259c4.516,3.315,7.014,5.429,7.492,6.341
		c0.482,0.961,0.723,4.083,0.723,9.368c0,5.236-0.238,8.214-0.723,8.936c-0.67,0.96-4.154,3.05-10.447,6.269l-1.225-20.608
		l-11.385-7.494l-11.816-2.018c-8.936-1.778-16.047-3.723-21.33-5.836c8.217-3.314,12.563-5.021,13.043-5.116
		C730.979,370.861,740.129,372.495,757.135,376.099"/>
	<path fill="#888780" d="M604.23,452.117l-7.639,5.98c-1.01,0.625-3.459,0.961-7.352,1.009l-6.629-0.071
		c-0.77,0-2.545-3.025-5.332-9.079c-2.785-6.148-4.061-10.041-3.818-11.674c0.24-1.584,1.85-4.756,4.828-9.511
		c3.074-4.805,5.164-7.397,6.27-7.783c3.508-1.296,12.658-7.253,27.453-17.869l5.693,2.161c3.842,1.537,5.955,2.594,6.34,3.171
		c0.674,0.961,3.1,11.241,7.277,30.841c0.191,0.864-2.33,2.187-7.566,3.963l-10.809,3.242
		C611.412,446.883,608.506,448.755,604.23,452.117"/>
	<path fill="#717069" d="M596.592,458.099c-1.008,0.625-3.459,0.961-7.35,1.009l-6.629-0.071c-0.961,0-4.014-6.918-9.15-20.753
		l6.195,0.794c4.18,0.335,6.367-0.025,6.559-1.081c0.24-1.201,1.824-3.771,4.756-7.711s4.539-5.74,4.826-5.403
		c5.432,8.694,10.979,15.66,16.646,20.896L596.592,458.099"/>
	<path fill="#ED8599" d="M305.842,407.01l1.369-1.008c1.345-0.817,3.171-1.586,5.477-2.308c7.302-2.257,17.774-3.53,31.417-3.819
		c13.643-0.288,26.973,0.817,39.992,3.315c6.533,1.25,11.673,2.522,15.42,3.818c-21.521,9.176-41.985,12.803-61.393,10.881
		C323.809,416.449,313.047,412.823,305.842,407.01"/>
	<path fill="#CE7486" d="M375.018,414.863c-4.997-4.947-13.812-7.854-26.445-8.719c-13.162-0.913-24.235,1.01-33.218,5.766
		c-4.275-1.635-7.446-3.269-9.511-4.9l1.369-1.008c1.345-0.817,3.171-1.586,5.477-2.308c7.302-2.257,17.774-3.53,31.417-3.819
		c13.643-0.288,26.973,0.817,39.992,3.315c6.533,1.25,11.673,2.522,15.42,3.818C391.878,410.324,383.711,412.942,375.018,414.863"/>
	<path fill="#888780" d="M401.103,275.794l-2.595,19.383l10.593-12.681c7.205-8.455,11.193-12.682,11.962-12.682
		c1.104,0,5.621,2.233,13.547,6.701c7.975,4.516,11.744,7.133,11.313,7.854c-0.435,0.625-3.244,6.773-8.432,18.447l-7.711,17.365
		l27.525-5.764c4.854,11.865,6.797,18.278,5.836,19.239c-0.96,0.961-13.835,9.967-38.622,27.021
		c-7.254,4.659-15.973,9.439-26.157,14.339c-20.368,9.8-37.925,15.372-52.673,16.718c-14.748,1.393-30.865-2.042-48.351-10.305
		c-5.476-2.545-10.76-5.452-15.853-8.718l-5.98-4.036l-1.874-6.989l-25.581-15.42l0.216-10.808
		c0.289-7.254,0.721-10.881,1.297-10.881l20.248,2.377l-10.953-9.295c-7.35-6.293-11.025-9.752-11.025-10.376
		c0-0.577,2.714-4.372,8.143-11.385l8.143-10.304l19.671,15.348l-6.845-29.832l10.232-6.773c7.013-4.419,10.928-6.413,11.745-5.981
		c0.816,0.384,3.843,5.429,9.079,15.132l7.566,14.411l14.123-3.603c10.857-2.258,19.815-2.979,26.877-2.162
		c2.209-2.545,9.199-14.195,20.968-34.947l13.042,3.099c8.695,2.257,13.044,3.794,13.044,4.611L401.103,275.794"/>
	<path fill="#717069" d="M282.711,300.149l2.378,5.62c0.865,1.97,0.937,3.843,0.216,5.621c-3.891-2.21-9.151-6.414-15.781-12.61
		l-8.863-8.647l3.891-4.54L282.711,300.149"/>
	<path fill="#717069" d="M299.934,273.632l-6.125-13.403l2.306-0.937c1.585-0.577,2.474-0.816,2.666-0.721
		c0.817,0.432,3.867,5.453,9.151,15.06l7.638,14.267l13.331-3.531c10.136-2.21,18.326-2.979,24.572-2.306
		c1.969,0.48,2.786,1.273,2.45,2.377l-1.082,1.441l-30.047,6.917c-15.66,3.027-20.992,2.474-15.997-1.657
		C307.308,288.836,304.353,283,299.934,273.632"/>
	<path fill="#717069" d="M397.21,251.728c4.612,1.441,6.918,2.426,6.918,2.954l-2.811,20.969l-2.812,19.526l5.044-6.052
		l9.943-11.745c-3.458,6.437-7.324,12.633-11.602,18.59c-5.141,7.158-8.671,10.665-10.592,10.521
		c-1.73-0.096-1.273-9.247,1.369-27.454C394.016,269.911,395.528,260.807,397.21,251.728"/>
	<path fill="#717069" d="M421.64,331.928c-0.815-0.097,2.018-8.816,8.502-26.157l10.018-25.94c4.033,2.69,5.956,4.203,5.765,4.54
		c-0.434,0.625-3.244,6.773-8.432,18.447l-7.71,17.365l27.524-5.764l1.515,4.828c-4.757,1.057-12.298,3.578-22.628,7.566
		C427.019,330.317,422.166,332.022,421.64,331.928"/>
	<path fill="#717069" d="M405.498,341.942c1.775,0.721,3.892,2.618,6.342,5.693c2.546,3.219,3.435,5.38,2.665,6.485
		c-1.105,1.537-6.869,6.437-17.294,14.699l-22.915,7.782c-14.651,4.612-22.193,6.077-22.625,4.395
		c-0.865-3.362,7.35-10.976,24.644-22.842C393.416,346.387,403.144,340.982,405.498,341.942"/>
	<path fill="#717069" d="M330.989,358.011c2.065,2.114,3.387,6.558,3.963,13.331c0.673,7.302-0.744,11.025-4.251,11.169
		c-1.441,0.048-6.894-1.297-16.357-4.035c-10.136-2.978-16.645-5.333-19.527-7.062c-5.14-2.546-8.623-4.396-10.448-5.548
		c-3.123-2.018-3.243-3.651-0.36-4.9c2.354-1.009,6.581-0.793,12.682,0.648c5.092,1.249,12.61,3.651,22.554,7.206
		c1.681,0.577,4.083-1.152,7.206-5.188C329.38,359.789,330.895,357.916,330.989,358.011"/>
	<path fill="#FFFFFF" d="M313.625,371.125c5.38,2.691,10.424,5.429,15.131,8.214l-15.348,2.089l-15.348-0.72
		c-1.489-0.912-2.834-3.122-4.035-6.629c-1.297-3.699-1.802-7.134-1.513-10.304C295.827,363.343,302.863,365.792,313.625,371.125"/>
	<path fill="#FFFFFF" d="M389.355,361.253l14.124-6.629c0.336,1.538,0.288,4.9-0.146,10.088c-0.574,6.005-1.584,9.8-3.025,11.386
		c-1.922,2.209-8.671,3.362-20.249,3.458c-10.712,0.144-17.582-0.36-20.608-1.514C368.244,372.375,378.21,366.779,389.355,361.253"
		/>
	<path fill="#DBDCDC" d="M327.819,379.197l-6.918,1.081c-8.022-6.437-17.246-9.872-27.67-10.304l-0.432-3.099
		c-0.24-1.393-0.312-2.354-0.216-2.882c3.314-0.481,10.185,1.921,20.608,7.206C318.429,373.792,323.305,376.458,327.819,379.197"/>
	<path fill="#DBDCDC" d="M366.659,378.979l-7.206-0.937c9.175-5.86,19.287-11.433,30.336-16.717
		c5.524-2.642,10.136-4.708,13.836-6.197l-0.146,3.315c-0.24,2.306-0.337,4.083-0.289,5.333c-8.791,2.306-15.3,4.179-19.527,5.62
		C376.361,371.895,370.692,375.088,366.659,378.979"/>
	<path fill="#888780" d="M243.296,410.83c0.769-1.011,3.483-3.314,8.143-6.918l6.773-5.117l5.764,71.336
		c-3.507,2.883-6.245,4.492-8.214,4.828c-1.249,0.192-4.852-2.234-10.809-7.278c-5.524-4.611-8.647-7.493-9.367-8.646
		c-0.529-0.769,0.384-8.671,2.738-23.707C240.679,420.197,242.335,412.031,243.296,410.83"/>
	<path fill="#717069" d="M262.824,455.505l1.153,14.627c-3.507,2.883-6.245,4.492-8.214,4.828c-1.153,0.192-4.444-1.97-9.872-6.485
		c-4.708-3.891-8.022-6.893-9.944-9.007l13.691-1.513L262.824,455.505"/>
	<path fill="#888780" d="M264.481,411.839l7.206-1.441l8.719-1.008c1.249,0.335,4.299,4.033,9.151,11.095l0.433,15.422l10.16,12.536
		l1.729-2.089c1.393-1.538,2.594-2.618,3.603-3.241c1.201-0.722,4.779-1.347,10.736-1.874c6.004-0.479,9.968-0.479,11.889,0
		c2.21,0.527,6.053,2.138,11.529,4.827c5.861,2.932,9.56,5.164,11.097,6.701c1.441,1.44,2.089,4.276,1.946,8.503
		c-0.097,2.595-0.408,5.067-0.937,7.422c-0.24,0.864-1.874,1.777-4.9,2.738l-6.701,1.585c-1.201,0.192-2.931,1.226-5.188,3.1
		l-3.026,2.667l5.333,4.825c0.768,0.771,2.978,1.466,6.629,2.091l7.35,1.298c1.201,0.384,1.657,2.833,1.369,7.349l-0.865,6.631
		l-4.323,2.881l2.738,2.308c1.681,1.775,2.209,3.267,1.585,4.468c-0.72,1.44-2.762,3.65-6.125,6.629
		c-3.314,2.93-5.932,4.899-7.854,5.909l-14.771,0.431l-15.132-0.937c-1.777,0-5.044-2.617-9.8-7.854l-7.71-9.007
		c-2.833-2.835-4.059-5.717-3.675-8.646c-20.608-22.529-31.225-34.443-31.849-35.74c-0.48-0.912-0.12-3.724,1.082-8.432
		c1.2-4.707,2.282-7.66,3.242-8.861L264.481,411.839"/>
	<path fill="#717069" d="M327.892,481.518l-2.738-7.351l3.099-3.531l5.043-5.33c1.105-0.914,4.66-1.49,10.665-1.729l8.647-0.072
		l-0.865,5.188c-0.24,0.864-1.874,1.777-4.9,2.738l-6.701,1.585c-1.201,0.192-2.931,1.226-5.188,3.1l-3.026,2.667l5.333,4.825
		c0.768,0.771,2.978,1.466,6.629,2.091l7.35,1.298c1.201,0.384,1.657,2.833,1.369,7.349l-0.865,6.631l-4.323,2.881l2.738,2.308
		c1.681,1.775,2.209,3.267,1.585,4.468c-0.72,1.44-2.762,3.65-6.125,6.629c-3.314,2.93-5.932,4.899-7.854,5.909l-14.771,0.431
		l-15.132-0.937l4.396-1.657c4.419-1.92,8.815-4.611,13.186-8.07c0.913-0.721,1.201-1.801,0.865-3.241l-0.865-1.945
		c1.922-2.019,3.675-4.204,5.26-6.558c3.218-4.658,4.083-7.807,2.594-9.438C331.807,490.116,330.004,486.704,327.892,481.518"/>
	<path fill="#717069" d="M273.776,434.681c-0.144-1.586,2.09-4.876,6.701-9.872c4.755-5.093,7.782-6.533,9.079-4.324
		c1.201,2.115,1.633,5.31,1.297,9.583l-0.865,5.839l10.16,12.536l-6.629,12.685l-9.8-12.323
		C277.14,440.35,273.826,435.641,273.776,434.681"/>
	<path fill="#888780" d="M507.891,431.077c2.931,0.192,8.021,2.378,15.275,6.558c3.65,2.113,6.99,4.204,10.016,6.27l1.947,1.729
		c1.439,1.442,2.568,2.956,3.385,4.54c-0.238,2.162-1.465,7.375-3.674,15.638l-4.035,13.763c-0.434,1.008-3.291,1.634-8.576,1.874
		l-7.854,0.071l-5.26,13.041l-21.4,9.225l-11.386-0.071c-10.615,2.546-16.716,4.155-18.302,4.828
		c-0.673,0.24-4.132,2.448-10.376,6.629c-6.247,4.131-10.089,6.462-11.528,6.989c-2.546,0.961-14.7,3.17-36.462,6.629L387.122,513.8
		c-6.101-1.247-9.799-2.377-11.097-3.385c-0.864-0.673-1.368-3.579-1.513-8.721c-0.145-4.947,0.048-7.974,0.577-9.078
		c0.384-0.722,1.369-0.984,2.954-0.793l4.755,0.288c1.394-0.192,3.916-1.777,7.566-4.757l4.972-4.395l0.504-6.702l-22.194-2.45
		l-0.864-5.69c-0.481-3.893-0.505-6.149-0.073-6.773c0.721-1.058,3.339-3.339,7.855-6.846c5.188-3.938,9.151-6.341,11.889-7.205
		c2.787-0.865,7.663-1.683,14.628-2.45l12.825-0.938c1.634,0,4.132,2.019,7.495,6.053l4.539,6.054l4.25-1.153l8.504-2.594
		c1.297-0.433,3.003-1.97,5.116-4.61c3.169-3.845,5.813-6.75,7.927-8.721c5.139-0.144,14.435-1.562,27.886-4.251
		C498.308,432.135,505.729,430.934,507.891,431.077"/>
	<path fill="#717069" d="M373.647,473.807c-0.432-1.249-0.745-3.098-0.937-5.548l11.529,1.44l11.313,1.082
		c1.393,5.522,1.369,9.078-0.073,10.663l0.361-5.188L373.647,473.807"/>
	<path fill="#717069" d="M533.182,443.902l1.947,1.729c1.439,1.442,2.568,2.956,3.385,4.54c-0.238,2.162-1.465,7.375-3.674,15.638
		l-4.035,13.763c-0.434,1.008-3.291,1.634-8.576,1.873l-7.854,0.072l-5.043,13.979l-21.979,8.286l-11.024-0.071
		c-10.615,2.546-16.716,4.155-18.302,4.828c-0.674,0.24-4.061,2.474-10.16,6.7c-6.102,4.228-9.872,6.604-11.313,7.134
		c-2.546,0.962-14.844,3.099-36.893,6.413l-7.35-8.574l19.168-4.396c11.192-2.644,17.532-4.564,19.022-5.765l6.846-6.919l4.9-6.125
		c0.144-0.335,2.545-1.873,7.204-4.61l6.918-4.034l1.297,2.594c1.345,1.537,3.195,1.775,5.549,0.721
		c2.354-1.01,4.251-3.219,5.691-6.629l1.441-4.757c11.337-6.772,17.63-10.881,18.879-12.321c1.824-2.161,2.186-7.878,1.081-17.15
		c-1.537-10.088-2.307-16.523-2.307-19.311c0-3.458,9.607-5.404,28.821-5.837c9.607-0.192,19.217-0.048,28.822,0.433
		L533.182,443.902"/>
	<path fill="#0D131A" d="M267.869,489.804l2.234-10.376c0.336-1.681,0.744-2.042,1.225-1.081c0.432,0.864,0.72,2.186,0.865,3.964
		l-1.225,10.809c-0.817,5.765-1.033,8.84-0.648,9.224l13.402,10.521c9.031,7.012,14.219,11.119,15.564,12.319
		c1.729,1.585,2.354,2.522,1.874,2.812c-0.48,0.238-1.297-0.024-2.45-0.793c-1.97-1.249-4.251-2.883-6.845-4.9
		c0,3.604-0.889,8.239-2.666,13.907c-1.778,5.621-3.314,8.767-4.612,9.438l-12.466,5.262c-14.363,5.765-21.785,9.367-22.265,10.808
		c-0.72,1.922-1.081,5.86-1.081,11.818c0,1.2,0.168,2.257,0.504,3.171c0.289,0.767,0.601,1.176,0.937,1.224l9.583,0.505
		c-0.144,0.289-0.167,0.672-0.072,1.153l0.145,1.369c-6.053,0.625-9.896,0.528-11.529-0.287c-0.816-0.436-1.585-1.467-2.306-3.101
		c-0.769-1.729-1.153-3.46-1.153-5.188c0-2.161,0.144-4.467,0.432-6.916c0.336-2.354,0.696-4.084,1.081-5.188
		c0.529-1.587,2.858-3.195,6.989-4.829c2.69-1.104,8.623-3.389,17.798-6.847l12.178-5.114c0.769-0.816,1.873-4.229,3.314-10.232
		c1.49-6.196,2.138-10.495,1.946-12.897l-18.879-13.26c-2.065-1.584-3.291-2.761-3.675-3.528c-0.337-0.625-0.409-1.852-0.216-3.676
		C265.995,498.546,266.667,495.184,267.869,489.804"/>
	<path fill="#0D131A" d="M341.078,536.281c-0.24-0.529,1.153-0.816,4.18-0.866l14.844,0.576l11.745,0.359
		c0.432-0.335,0.601-2.929,0.505-7.78l2.521,0.216c0.48,6.054,0.24,9.416-0.721,10.089c-0.625,0.431-3.939,0.456-9.944,0.071
		l-10.448-0.722l-0.36,3.101l-0.216,3.24v3.893c0,1.201,0.145,2.042,0.433,2.521c1.105,1.875,1.657,3.938,1.657,6.197
		c0,2.979-0.552,5.382-1.657,7.206c-0.625,1.104-7.614,5.644-20.969,13.619c-13.354,7.926-22.265,12.873-26.733,14.843l-6.989,1.009
		l-9.511-0.359c-1.394-0.097-2.69-0.527-3.892-1.297c-1.585-1.01-2.498-2.38-2.738-4.107v-4.105l0.36-4.47
		c0.577-3.458,1.129-6.027,1.657-7.709c0.769-2.257,1.778-3.868,3.026-4.828c1.489-1.104,4.492-2.401,9.007-3.892
		c3.411-1.104,4.924-1.417,4.54-0.937l-4.107,2.233c-5.861,2.688-9.079,5.355-9.656,7.998l-0.793,4.973
		c-0.528,3.698-0.816,6.63-0.864,8.789c0.144,1.203,0.432,2.115,0.864,2.74c0.625,0.912,1.657,1.439,3.099,1.584
		c3.026,0.241,6.125,0.217,9.295-0.071l5.477-0.937c1.826-0.673,9.68-4.925,23.563-12.754c14.315-8.023,21.857-12.563,22.625-13.62
		c0.865-1.488,1.394-3.289,1.585-5.404c0.192-2.257-0.12-4.058-0.937-5.404c-0.864-1.439-1.321-3.842-1.369-7.206l0.216-7.06
		C344.464,537.48,341.367,536.905,341.078,536.281"/>
	<path fill="#0D131A" d="M277.164,557.826c1.729-0.576,2.594-0.576,2.594,0c0,0.574-0.745,1.128-2.234,1.656
		c-1.97,0.722-4.42,1.802-7.35,3.241c-3.603,1.778-5.692,3.075-6.269,3.893c-0.672,0.96-1.225,3.05-1.657,6.269
		c-0.433,3.267-0.576,6.39-0.433,9.368c0.337,1.585,1.346,2.665,3.027,3.242l9.007,0.721l9.583-0.647l0.288,3.745l-9.872,0.577
		l-10.304-0.864c-1.49-0.576-2.522-1.225-3.098-1.944c-0.433-0.578-0.697-1.273-0.793-2.09l-0.36-5.117
		c-0.145-4.322,0.336-8.694,1.441-13.114C261.406,564.069,266.883,561.091,277.164,557.826"/>
	<path fill="#0D131A" d="M568.563,555.808l-4.611-3.387l-12.609-9.439c-4.947-4.228-7.998-7.686-9.15-10.375
		c-1.201-2.836-2.764-7.879-4.686-15.134l-3.529-14.339l1.801-1.296l1.803-1.514l3.098,15.275c1.73,8.07,3.146,13.427,4.252,16.068
		c1.057,2.401,4.035,5.645,8.936,9.728l12.033,9.008l5.766,3.963c1.008,0.815,1.658,1.897,1.945,3.242
		c0.287,1.104,0.432,2.907,0.432,5.405l-0.504,10.23c-0.096,2.834-1.033,4.899-2.813,6.197c-4.131,2.93-6.965,4.491-8.502,4.685
		c-1.297,0.144-3.051-0.145-5.26-0.865l0.287-1.368l0.289-0.648l1.441,0.144l2.521-0.071c0.961-0.144,3.17-1.226,6.629-3.242
		c0.721-0.433,1.178-0.984,1.369-1.657l0.432-2.594l0.361-9.729C570.291,559.482,569.715,556.721,568.563,555.808"/>
	<path fill="#0D131A" d="M521.869,565.895l4.035,2.884l4.035,3.099c1.682,1.681,2.498,3.579,2.449,5.691l0.289,5.692
		c0.096,2.737-0.145,4.444-0.721,5.116c-0.816,1.009-3.244,2.233-7.279,3.675l-7.35,2.161c-2.258,0.769-7.108-2.233-14.555-9.006
		l-15.492-14.628l-7.565-6.125l-4.324-3.388c-0.526-0.528-0.863-1.466-1.008-2.811l-0.146-4.252c0-2.354,0.793-5.163,2.379-8.43
		l0.359-2.307c0-1.346-0.479-3.436-1.439-6.27l-2.308-6.701l3.531-0.577l2.09,8.143c0.816,4.276,0.816,7.205,0,8.791
		c-0.865,1.73-1.273,4.108-1.226,7.135c0,2.931,0.359,4.779,1.08,5.55l3.531,3.385l6.63,5.909l16.285,14.051
		c5.956,5.957,9.966,8.551,12.032,7.782l6.629-1.944l5.115-1.586c0.672-0.528,0.891-2.643,0.648-6.342l-0.359-4.756
		c-0.049-0.816-3.314-3.745-9.801-8.79l-3.818-3.101c-0.77-0.574-1.082-1.079-0.938-1.512c0.145-0.479,0.697-0.409,1.658,0.217
		L521.869,565.895"/>
	<path fill="#0D131A" d="M542.982,556.96c-1.25-0.96-1.803-1.608-1.658-1.944c0.145-0.385,1.178-0.098,3.098,0.864l7.279,5.045
		l6.125,5.908c1.344,1.586,2.111,2.665,2.305,3.241c0.193,0.673,0.121,2.114-0.215,4.323l-1.73,9.15
		c-0.91,2.932-2.111,4.78-3.602,5.55l-4.9,1.801c-5.283,1.874-9.104,2.57-11.457,2.091c-0.912-0.192-2.689-1.01-5.332-2.45
		l-3.604-2.09l1.439-1.298l3.244,1.298l4.754,1.658l4.254-0.722l6.771-2.162l1.73-0.505l1.729-0.792
		c0.576-0.337,1.152-1.032,1.73-2.09l1.297-3.53l0.574-4.324c0.529-4.034,0.146-6.651-1.15-7.854l-6.125-5.477L542.982,556.96"/>
	<path fill="#0D131A" d="M569.93,559.051c0.578-0.866,1.035-1.129,1.371-0.793c0.385,0.335,0.336,0.937-0.145,1.801
		c-0.625,1.249-1.441,2.427-2.451,3.532c-1.439,1.488-3.002,2.497-4.684,3.025l-2.953,0.359c-0.049-0.337,0.77-1.008,2.449-2.018
		C566.545,563.133,568.682,561.164,569.93,559.051"/>
	<path fill="#0D131A" d="M550.043,577.568c-3.604,1.201-6.365,1.754-8.285,1.657c-1.586-0.096-2.379-0.359-2.379-0.793
		c-0.047-0.432,0.721-0.769,2.307-1.009l8.646-2.666c4.131-1.488,6.533-2.474,7.205-2.954c0.578-0.433,0.912-0.505,1.01-0.217
		l-0.793,1.657C556.602,574.783,554.031,576.225,550.043,577.568"/>
	<path fill="#0D131A" d="M526.986,577.28c1.297-0.577,2.16-0.695,2.594-0.36c0.432,0.385-0.096,1.034-1.586,1.946
		c-1.346,0.911-3.074,1.512-5.189,1.803l-4.467,0.07l-2.162-0.721c-0.336-0.337,0.072-0.602,1.225-0.793l4.828-0.646L526.986,577.28
		"/>
	<path fill="#0D131A" d="M539.379,481.949l1.801,4.323l2.379,6.485c0.336,1.44,0.408,2.546,0.217,3.314
		c-0.191,0.72-0.697,1.465-1.514,2.232l-11.24,8.719l-12.467,8.937c-0.527,0.287-1.465,0.287-2.811,0
		c-1.297-0.241-2.354-0.577-3.17-1.009l-5.403-3.314c-1.346-0.815-1.922-1.44-1.729-1.874c0.191-0.479,1.032-0.36,2.521,0.359
		c0.866,0.386,2.139,0.938,3.82,1.658l2.665,1.297l2.232,0.216l2.377-1.297l10.232-7.422l9.514-7.276l1.439-1.37
		c0.434-0.672,0.504-1.634,0.217-2.883l-2.307-6.196l-1.656-3.891L539.379,481.949"/>
	<path fill="#0D131A" d="M498.956,512.503c0.383-1.924,0.792-2.858,1.226-2.812c0.479,0.097,0.647,1.151,0.504,3.172
		c-0.576,8.404-1.586,12.944-3.026,13.617l-21.762,5.404l-21.256,4.322c-0.578-0.239-1.466-1.561-2.667-3.962l-2.161-4.252
		l-22.915,2.018c-0.624-0.096-1.297-1.128-2.018-3.1l-0.938-2.954l3.314-0.722l1.297,3.027c0.239,0.385,0.6,0.695,1.082,0.938
		l11.672-0.864l14.483-1.369c3.027-0.097,4.708,0.168,5.044,0.793c0.338,0.673-2.425,1.272-8.285,1.801l1.945,3.101
		c0.672,1.15,1.104,1.729,1.296,1.729c26.229-4.756,39.608-7.396,40.136-7.928C496.554,523.887,497.563,519.899,498.956,512.503"/>
	<path fill="#0D131A" d="M248.772,561.933l1.441-0.938l2.45,2.379c1.441,1.2,2.642,1.97,3.602,2.306
		c1.249,0.528,1.898,0.841,1.946,0.938l-2.306,0.144c-1.538-0.096-3.075-0.769-4.612-2.017
		C250.238,563.879,249.397,562.94,248.772,561.933"/>
	<path fill="#0D131A" d="M261.888,569.427c-0.865-1.057-1.009-1.657-0.432-1.803c0.48-0.097,1.104,0.169,1.873,0.795
		c1.921,1.585,6.221,2.928,12.898,4.035c1.442,0.238,2.186,0.576,2.234,1.008c0.048,0.433-0.769,0.552-2.45,0.36l-10.088-1.729
		C264.242,571.563,262.896,570.676,261.888,569.427"/>
	<path fill="#0D131A" d="M286.17,573.822c-0.721-1.01-0.937-1.706-0.648-2.09c0.24-0.337,0.721-0.169,1.441,0.504
		c0.625,0.625,2.57,1.368,5.836,2.232l7.998,1.514c2.066,0.193,3.099,0.457,3.099,0.793l-2.594,0.505l-9.151-0.864
		C288.933,575.743,286.939,574.879,286.17,573.822"/>
	<path fill="#0D131A" d="M247.043,367.595c-2.401,3.459-4.467,6.942-6.197,10.448c-1.874,3.891-2.906,6.87-3.098,8.936
		c1.057,4.083,4.996,10.256,11.817,18.519l-1.514,0.647l-1.441,0.864c-3.603-3.843-6.534-7.374-8.791-10.591
		c-2.69-3.843-4.011-6.678-3.963-8.503c0-4.227,3.387-11.241,10.161-21.041L247.043,367.595"/>
	<path fill="#0D131A" d="M520.141,256.482c-0.385-0.624-2.186-1.465-5.404-2.521l-9.8-2.594c2.113,5.092,3.1,8.479,2.954,10.16
		c-0.144,1.729-1.513,0-4.106-5.188l-9.583-18.158c-3.795-6.677-6.149-10.136-7.063-10.376c-0.962-0.288-3.747,0.625-8.358,2.739
		c-4.323,1.969-7.687,3.771-10.087,5.404c3.313,3.075,4.227,4.444,2.737,4.107c-1.394-0.384-3.026-1.345-4.899-2.882
		c-8.888-7.494-15.564-11.914-20.031-13.258c-2.787-0.865-9.368-1.538-19.744-2.018c-9.606-0.48-17.486-0.601-23.635-0.36
		c2.112,3.17,3.099,5.524,2.955,7.062c-0.193,1.538-1.683,0.12-4.47-4.251l-5.981-8.936c-1.345-1.825-2.474-2.882-3.387-3.17
		l-24.066-1.585l-23.779-0.937c-1.441,0.289-4.851,8.406-10.231,24.355c-2.258,6.821-3.651,9.943-4.18,9.368
		c-0.48-0.577,0.121-3.819,1.802-9.729c-4.756,1.249-11.385,4.228-19.888,8.936c-7.061,3.843-13.522,7.806-19.383,11.89
		c-1.538,1.057-2.474,1.441-2.811,1.152c-0.336-0.288,0.121-1.057,1.37-2.306c1.681-1.681,5.02-4.251,10.016-7.709
		c-5.813-0.145-10.809-0.097-14.988,0.144c-4.132,0.289-6.605,0.697-7.422,1.225c-0.864,0.625-4.251,6.053-10.16,16.286
		c-5.861,10.184-8.863,15.828-9.007,16.933c-0.096,0.912,0.216,2.161,0.938,3.747l1.873,3.531l-1.657,2.234l-2.522-3.963
		c-1.489-2.45-2.113-4.276-1.874-5.477c0.385-1.874,3.411-8.118,9.08-18.735c5.957-11.193,9.775-17.246,11.457-18.158
		c1.729-0.913,5.789-1.201,12.178-0.865l15.348,0.937l8.287-5.116c6.052-3.459,12.802-6.557,20.248-9.295l4.396-14.7
		c1.489-4.66,2.569-7.253,3.242-7.782c0.865-0.72,2.787-1.033,5.765-0.937l19.815,0.937l26.301,2.162
		c1.345,0.24,2.666,1.177,3.963,2.811l5.334,7.565l26.083-0.216c11.771,0.145,18.951,0.913,21.546,2.306
		c2.547,1.345,5.79,3.531,9.729,6.557l6.916,5.405l10.953-5.621c6.197-3.026,9.942-4.324,11.24-3.892
		c1.297,0.433,4.084,4.541,8.359,12.322l6.34,12.178l12.105,2.738c5.283,1.538,8.264,2.955,8.934,4.252
		c0.578,1.152,0.77,3.867,0.578,8.143l-0.432,8.358l9.078,4.468c4.563,2.402,7.156,4.203,7.781,5.404
		c0.434,0.864,1.129,5.236,2.09,13.114h-2.596c-1.439-6.581-2.52-10.568-3.24-11.961c-0.338-0.721-3.268-2.618-8.791-5.692
		c-4.854-2.738-8.527-4.659-11.025-5.765c-1.824-0.817-3.002-1.465-3.529-1.945c-0.48-0.481-0.506-0.865-0.072-1.153
		c0.385-0.24,1.682,0.024,3.891,0.793l3.244,1.152l-0.072-8.142C520.74,259.125,520.523,257.299,520.141,256.482"/>
	<path fill="#0D131A" d="M398.002,525.832l1.441,2.379l-20.68,1.368c-7.926,0.385-15.469,0.359-22.625-0.071
		c-0.913-0.05-1.585-0.241-2.018-0.576l-1.657-1.946l-2.306-4.107l-3.387-6.124l1.153-0.575l0.937-0.866l6.485,11.025
		C362.792,527.441,377.01,527.271,398.002,525.832"/>
	<path fill="#0D131A" d="M567.77,365.578c1.297,4.42,2.33,8.791,3.1,13.114c0.816,4.42,1.225,7.975,1.225,10.665
		c0,0.865-3.459,4.972-10.377,12.322l-0.432,4.323l5.477,4.898c2.643,2.595,4.061,4.611,4.252,6.055
		c0.432,3.024-0.816,9.967-3.748,20.822c-3.023,11.434-5.787,18.158-8.285,20.178c-1.682,1.345-7.688,3.313-18.016,5.908
		c0,1.152,0.529,6.148,1.586,14.986c0.096,1.01-0.744,2.33-2.521,3.964l-14.484,11.817c-10.279,8.263-15.874,12.394-16.788,12.394
		c-0.576,0-2.138-0.646-4.684-1.945l-6.413-3.314c-1.44,6.726-2.617,10.377-3.53,10.953c-0.816,0.576-7.854,2.45-21.113,5.62
		c-13.499,3.219-20.896,4.685-22.191,4.396c-1.009-0.19-3.244-1.633-6.702-4.321l1.369-2.09c3.171,2.497,5.093,3.817,5.765,3.962
		c1.346,0.096,8.262-1.416,20.753-4.539c12.25-3.074,19.145-4.973,20.681-5.691l1.44-3.604l1.44-6.195l1.803-0.865
		c3.65,1.825,7.062,3.219,10.232,4.18c1.345,0.384,6.628-3.194,15.851-10.737c8.646-7.108,13.643-11.576,14.988-13.401V461.92
		l1.08-1.585l5.98-1.008c4.516-1.058,8.43-2.45,11.744-4.181c2.883-3.41,5.479-9.969,7.783-19.671
		c1.873-7.927,2.811-13.764,2.811-17.511c-3.506-5.092-6.412-8.599-8.719-10.521l0.217-6.846c6.58-7.687,9.871-11.914,9.871-12.682
		c0-4.372-1.178-10.593-3.531-18.663L567.77,365.578"/>
	<path fill="#0D131A" d="M276.01,386.906c2.499,2.402,3.699,3.795,3.603,4.18c-0.096,0.384-1.633-0.409-4.611-2.378
		c-2.114-1.393-6.677-5.14-13.691-11.241c-6.389-5.524-9.824-8.31-10.304-8.358l-29.399-4.396
		c-14.027,14.411-21.713,22.001-23.058,22.77c-0.817,0.48-3.267,0.433-7.35-0.144l-6.557-1.081l-3.458,3.314l0.72-5.26
		l14.843-13.691l12.395-12.106c0.528-0.432,0.888-3.291,1.081-8.575l0.36-10.448c0.096-1.777,0.384-2.738,0.865-2.882
		c0.528-0.096,0.816,0.864,0.864,2.882l0.505,11.313c0.048,5.621-0.481,8.743-1.585,9.368l-9.584,9.368l-15.06,14.483l6.341-0.145
		l4.54-0.72c1.009-0.432,4.755-3.747,11.241-9.944c6.437-6.1,9.992-9.704,10.665-10.808c0.48-0.769,0.768-3.05,0.865-6.845
		c0.096-4.275,0.24-6.822,0.432-7.638c0.336-1.441,0.745-0.576,1.225,2.594c0.528,3.314,0.72,7.061,0.577,11.241l14.915,2.377
		l14.916,2.595c0.913,0.192,4.516,3.026,10.809,8.502C268.78,380.132,273.081,384.023,276.01,386.906"/>
	<path fill="#0D131A" d="M220.743,305.625l2.882,0.216c0.481,0.289,1.177,1.345,2.09,3.171l6.197,14.195
		c3.17,7.686,4.731,11.913,4.684,12.682c-0.048,0.912-0.721,2.042-2.018,3.386c-1.441,1.393-3.339,2.714-5.693,3.963
		c-2.306,1.201-3.651,1.706-4.035,1.513c-0.385-0.24,0.096-0.937,1.441-2.089l4.828-4.252c1.969-1.921,2.882-3.194,2.738-3.819
		l-5.548-13.473l-5.836-12.97c-0.24-0.384-1.922-0.384-5.044,0l-6.845,0.865l-2.666-0.36c-0.145-0.336,0.696-0.793,2.522-1.369
		l4.9-1.225L220.743,305.625"/>
	<path fill="#0D131A" d="M198.837,305.267c-13.019-9.128-20.08-13.715-21.185-13.763c-1.969,0.672-7.35,3.507-16.141,8.502
		c-9.031,5.044-14.074,8.119-15.131,9.223c-0.144,0.912-0.168,2.57-0.072,4.972c0.096,2.738,0.361,5.38,0.793,7.927
		c5.717-3.075,8.863-4.396,9.439-3.964c0.528,0.384-1.778,2.186-6.917,5.405c-11.145,6.965-18.952,12.201-23.419,15.708
		c-0.337-0.192-0.721-0.528-1.153-1.009l-1.081-1.081l11.817-8.215l7.494-4.9l-0.072-8.431c0-4.131,0.096-6.581,0.288-7.35
		c0.384-1.537,5.957-5.356,16.717-11.457c10.473-5.909,16.237-8.815,17.293-8.719c2.066,0.192,8.767,4.612,20.104,13.259
		c0.528-0.289,2.498-1.73,5.908-4.324c3.411-2.498,5.621-3.819,6.63-3.963c1.584-0.24,5.236,0.792,10.952,3.099
		c4.948,2.017,8.551,3.699,10.809,5.043l4.323-3.17c2.546-1.874,4.179-2.907,4.9-3.099c1.2-0.289,5.164,0.889,11.89,3.531
		l-2.018,2.81l-4.251-1.584c-2.979-1.057-4.708-1.562-5.188-1.514c-0.384,0.048-1.369,0.577-2.955,1.585l-4.179,3.098
		c3.843,4.372,6.653,8.119,8.431,11.241c1.394,2.594,1.946,4.011,1.657,4.251c-0.288,0.24-1.369-0.816-3.243-3.171
		c-5.476-7.253-8.599-11.121-9.367-11.601c-0.961-0.673-4.251-1.994-9.872-3.964c-6.245-2.161-10.184-3.122-11.817-2.882
		c-0.913,0.146-2.45,0.865-4.611,2.162c-2.258,1.393-4.156,2.786-5.693,4.179c2.162,1.921,3.051,3.122,2.666,3.603
		C202.201,307.187,200.952,306.707,198.837,305.267"/>
	<path fill="#0D131A" d="M89.527,374.584c-0.336,0.864-0.648,2.138-0.937,3.819l-0.792,3.963l-3.747-0.288
		c1.009-3.603,1.969-6.654,2.882-9.151L89.527,374.584"/>
	<path fill="#0D131A" d="M57.029,324.578c-0.769,0.096-2.306,1.369-4.611,3.819c-2.594,2.786-5.14,6.053-7.639,9.8
		c-3.458,5.236-5.188,8.815-5.188,10.736v0.216c1.681,1.922,3.819,3.363,6.413,4.324c18.783,2.786,28.919,5.141,30.409,7.062
		l8.286,9.15c3.987,3.939,6.677,6.053,8.07,6.341c0.961,0.048,4.731-1.729,11.313-5.332l12.827-7.71
		c2.114-1.489,3.242-1.897,3.386-1.225c0.097,0.625-0.888,1.802-2.954,3.531c-2.738,2.258-7.037,5.14-12.898,8.647
		c-6.773,3.987-10.953,5.812-12.538,5.477c-2.162-0.481-5.572-3.363-10.232-8.647l-6.773-8.287c-0.72-0.625-4.227-1.561-10.521-2.81
		l-18.951-3.243l-0.144-0.073H45.14c-1.441-0.48-3.243-1.44-5.404-2.882c-2.546-1.682-3.819-3.002-3.819-3.963
		c0-2.738,2.834-8.239,8.503-16.501c5.908-8.695,10.232-12.827,12.97-12.394c7.253,1.153,15.516,1.249,24.788,0.289l14.483-1.585
		c1.489,0.048,6.437,2.882,14.843,8.503l15.709,11.097l31.849,5.836c2.306,0.288,6.773,5.548,13.402,15.781
		c3.363,5.092,6.509,10.232,9.439,15.42c0.769,1.489,1.153,3.915,1.153,7.277c0,3.027-0.289,6.389-0.864,10.088
		c-1.058-0.96-2.138-1.753-3.243-2.377c0.577-3.939,0.864-7.158,0.864-9.656c0-1.922-0.192-3.267-0.577-4.035
		c-1.729-3.41-5.092-8.863-10.087-16.357c-5.573-8.358-9.055-12.754-10.449-13.186l-32.065-6.413l-0.145-0.072h0.073l-13.691-9.08
		c-9.176-5.908-14.556-8.814-16.141-8.719C78.862,325.395,65.628,325.779,57.029,324.578"/>
	<path fill="#0D131A" d="M59.335,337.187l12.105,0.576l22.77,0.793l9.151-0.793c2.114,0.385,5.957,2.858,11.529,7.422l11.241,9.728
		l-0.721-8.215l-0.792-7.565c-0.048-1.105,0.384-1.417,1.297-0.937c0.96,0.432,1.561,1.201,1.801,2.306
		c0.336,1.682,0.601,6.438,0.793,14.268c0.096,3.122-0.744,4.035-2.522,2.738l-10.736-8.791c-6.63-5.188-10.904-7.975-12.827-8.359
		l-16.213,0.577l-13.258-0.937l-12.971-0.576l-5.332,6.269l-6.846,8.287c-1.152,1.297-2.042,1.826-2.666,1.585
		c-0.577-0.192-0.577-0.816,0-1.873c0.721-1.346,3.075-4.348,7.062-9.007C56.236,339.924,58.616,337.426,59.335,337.187"/>
	<path fill="#0D131A" d="M89.744,400.742l-4.323,10.016c-2.354,5.571-3.555,8.646-3.603,9.223v0.218
		c15.805,5.522,24.427,7.564,25.869,6.125l3.314-3.389c1.874-2.45,3.531-4.154,4.972-5.115c2.21-1.489,4.948-2.233,8.214-2.233
		l9.944,0.504l10.231,0.434l1.874,1.513l1.801,1.514l-12.897-0.651l-12.105-1.009c-2.499,0-4.588,0.961-6.269,2.883
		c-0.961,1.153-2.258,3.025-3.891,5.621l-2.595,3.242c-1.296,1.345-8.623-0.24-21.977-4.756l-19.671-7.134
		c-1.97-0.722-6.654-0.073-14.052,1.945c-6.677,1.825-10.952,3.314-12.826,4.467c-1.538,0.913-4.612,0.985-9.223,0.217l-6.558-1.441
		c-1.296-0.433-1.296-3.938,0-10.52c1.249-6.196,2.377-9.92,3.387-11.168c3.123-3.845,7.278-8.336,12.466-13.477
		c6.389-6.342,10.352-9.416,11.89-9.224l16.429,0.865l15.997,0.577c1.826,0,3.483,5.211,4.972,15.636
		C91.256,396.538,90.8,398.243,89.744,400.742 M88.015,394.833v-0.145c-0.961-6.581-1.777-10.496-2.45-11.745l-30.48-1.009
		c-1.345-0.048-5.236,2.93-11.673,8.935c-5.813,5.38-9.824,9.464-12.034,12.25c-0.625,0.769-1.249,2.857-1.874,6.271
		c-0.625,3.362-0.936,6.221-0.936,8.573c0,1.393,0.12,2.259,0.359,2.595l7.134,1.586c2.882,0.383,4.684,0.358,5.404-0.072
		c2.065-1.249,6.293-2.833,12.682-4.758c7.782-2.353,12.994-3.05,15.636-2.089c5.044,2.595,7.975,3.7,8.791,3.314
		c1.249-1.634,3.099-5.428,5.548-11.386C86.717,400.862,88.015,396.753,88.015,394.833"/>
	<path fill="#0D131A" d="M88.375,392.599c0.913,0.096,1.537,0.48,1.874,1.152c0.384,0.721,0.12,1.058-0.792,1.01l-7.062-0.721
		c-14.604-0.865-23.059-0.985-25.364-0.361c-1.921,0.529-4.516,2.018-7.782,4.468l-5.188,4.469l-0.865,11.239
		c-0.384,5.332-0.816,8.406-1.297,9.224c-0.336,0.577-0.72,0.865-1.152,0.865s-0.601-0.24-0.505-0.721l0.505-11.458
		c0.288-5.858,0.625-9.198,1.009-10.015c0.48-1.01,2.57-2.834,6.269-5.478c3.603-2.642,5.957-4.107,7.062-4.395l11.745-0.433
		l15.708,0.865L88.375,392.599"/>
	<path fill="#0D131A" d="M156.396,401.822l-11.89,13.476c3.507,2.882,7.494,6.508,11.961,10.88
		c5.333,5.188,8.527,8.839,9.584,10.953c0.961,1.968,2.354,3.434,4.179,4.396c1.729,0.864,3.291,1.057,4.684,0.576
		c5.621-2.065,9.439-4.323,11.458-6.773c0.72-0.864,1.296-2.881,1.729-6.053c0.384-2.979,0.457-4.974,0.216-5.98l-0.576-2.233
		c-4.612-17.821-7.47-27.358-8.575-28.606c-1.441-0.672-3.915-1.081-7.421-1.225c-3.891-0.192-6.365,0.265-7.422,1.369
		L156.396,401.822 M141.552,417.459c-0.913-0.672-1.37-1.249-1.37-1.729c0.048-0.526,0.553-1.2,1.513-2.018l9.944-11.242
		c6.149-6.964,9.991-10.951,11.529-11.96c1.826-1.201,4.972-1.826,9.439-1.874c4.083,0,6.918,0.384,8.502,1.152
		c0.481,0.24,2.066,4.468,4.756,12.681c2.931,9.031,4.924,16.479,5.981,22.339c0.335,1.826,0.048,4.517-0.865,8.069
		c-0.865,3.364-1.658,5.382-2.377,6.054c-2.498,2.354-7.471,4.349-14.916,5.981c-0.769,0.191-2.378-0.386-4.828-1.73
		c-2.354-1.248-3.675-2.21-3.964-2.881c-2.065-4.18-6.34-9.057-12.826-14.629L141.552,417.459"/>
	<path fill="#0D131A" d="M169.223,396.851c-0.865-1.777-1.153-2.786-0.865-3.026c0.289-0.288,1.081,0.408,2.378,2.089
		c1.921,2.45,4.66,7.399,8.214,14.844c4.035,8.502,5.668,13.763,4.9,15.78l-1.153,4.179c-1.009,2.882-2.065,4.563-3.17,5.045
		c-1.249,0.528-2.763,1.297-4.54,2.305l-3.603,1.946c-1.009,0.528-1.634,0.624-1.874,0.289c-0.192-0.387,0.264-0.962,1.369-1.729
		c3.266-2.067,5.908-3.557,7.926-4.47c1.153-0.479,2.282-3.192,3.387-8.142C182.866,424.088,178.542,414.385,169.223,396.851"/>
	<path fill="#0D131A" d="M649.699,330.341l5.764-1.297l8.287-0.937c0.863,0.048,2.473,0.912,4.828,2.594l3.025,2.306l-2.02,2.018
		l-6.195-3.963l-5.908,0.216l-6.701,1.225L649.699,330.341"/>
	<path fill="#0D131A" d="M569.354,314.417c0.191-0.385,1.32-1.105,3.387-2.162l4.611-2.162c2.402-0.912,3.531-1.057,3.389-0.432
		c-0.146,0.577-1.033,1.321-2.666,2.234l-3.893,2.161l-2.232,1.585c-0.145,0.529,0.6,5.837,2.232,15.925
		c1.682,10.472,2.932,16.068,3.748,16.789l6.484,3.747c2.643,1.441,3.818,2.45,3.529,3.026c-0.287,0.625-1.801,0.313-4.539-0.937
		l-7.926-3.891c-0.863-0.577-2.211-6.485-4.035-17.726C569.57,321.382,568.875,315.331,569.354,314.417"/>
	<path fill="#0D131A" d="M594.863,364.424c3.697-3.795,6.58-5.789,8.645-5.981c1.777-0.192,3.652,0.144,5.621,1.009
		c1.539,0.625,4.131,2.09,7.783,4.396c3.17,1.969,4.539,3.194,4.105,3.675c-0.479,0.528-2.377-0.168-5.691-2.089
		c-5.428-3.075-8.982-4.588-10.664-4.541c-1.586,0.049-4.277,2.259-8.07,6.63c-3.699,4.275-5.404,6.845-5.117,7.71
		c0.387,1.249,3.051,4.948,7.998,11.097c4.758,6.005,7.184,9.368,7.279,10.088l0.217,4.541l-0.217,6.269l-2.955,1.657l0.215-8.286
		l0.219-4.036l-8.504-10.16c-5.428-6.63-8.166-10.376-8.215-11.241c-0.047-0.912,0.602-2.233,1.945-3.963
		c0.48-0.769,1.393-1.849,2.74-3.243l-0.506-3.458l-5.693,4.467l-18.879-0.937l-3.025,8.071l-1.514,1.801l-2.018,0.648
		l-16.143-0.072l-16.715-0.648c-1.49-0.24-2.547-0.648-3.172-1.225l-1.873-2.45l-10.449,5.909c-1.488,0.864-2.544,1.177-3.169,0.936
		c-0.624-0.24-0.096-1.057,1.585-2.45c2.449-1.921,5.955-4.323,10.52-7.206l-2.594-4.611c-1.682-3.267-2.354-5.261-2.018-5.981
		c0.287-0.577,1.85,1.345,4.684,5.765c3.121,4.9,5.141,7.59,6.053,8.07l16.646,0.865c10.232,0.144,15.805,0.024,16.717-0.361
		c0.961-0.48,2.188-2.69,3.676-6.629c1.488-4.324,2.475-6.99,2.953-7.999c0.961-2.017,1.586-2.666,1.873-1.945
		c0.336,0.769,0.049,2.954-0.863,6.557l16.789,0.648c0.961-0.432,3.146-1.994,6.557-4.684c-0.238-5.62-0.313-9.416-0.215-11.385
		c0.096-1.778,0.408-2.858,0.938-3.243c0.574-0.384,1.008,0.769,1.297,3.459L594.863,364.424"/>
	<path fill="#0D131A" d="M697.977,385.896l-7.277-4.323l0.289-2.882c1.824,1.538,4.875,3.171,9.148,4.9
		C698.938,384.504,698.217,385.272,697.977,385.896"/>
	<path fill="#0D131A" d="M720.17,411.766l3.242-0.359L712.1,426.97c-5.43,7.111-8.695,11.097-9.799,11.962
		c-2.498,1.922-7.783,2.786-15.854,2.595c-7.063-0.192-14.27-1.08-21.617-2.667l-10.811,7.351
		c-6.004,3.939-9.848,6.102-11.527,6.485l-9.223-0.288c-5.525-1.059-11.146-3.388-16.861-6.989l1.584-0.576l1.658-0.504
		c7.879,4.755,15.301,6.482,22.266,5.188c1.873-0.337,5.523-2.259,10.953-5.765l13.906-9.008c3.697-2.209,5.549-2.979,5.549-2.305
		c-0.047,0.672-1.586,2.16-4.613,4.467c2.211,1.009,7.303,1.608,15.277,1.802c8.502,0.144,13.883-0.552,16.141-2.09
		c1.057-0.77,3.965-3.939,8.719-9.513L720.17,411.766"/>
	<path fill="#0D131A" d="M613.885,403.19l-3.602,0.504c2.498-6.34,5.715-11.552,9.654-15.636c4.275-4.42,10.186-8.455,17.727-12.105
		l-0.359,1.513c-0.191,0.577-0.217,1.033-0.072,1.37c-5.57,3.026-10.375,6.653-14.41,10.88
		C618.689,393.992,615.711,398.483,613.885,403.19"/>
	<path fill="#0D131A" d="M684.789,323.641c-1.152,0.192-5.5,3.819-13.041,10.88c-6.871,6.486-11.146,10.712-12.826,12.683
		c-1.105,1.344-7.734,11.457-19.887,30.336l8.5,7.133c3.363,2.498,5.717,3.819,7.063,3.963c2.932,0.24,14.219-2.089,33.865-6.989
		l8.938-24.716c0.574-2.161,1.486-4.059,2.736-5.692c0.77-0.961,3.219-3.315,7.352-7.063l7.926-7.061l0.072-0.289
		c0.385-0.96-0.168-3.002-1.656-6.124c-1.348-2.882-2.451-4.756-3.316-5.621L697.543,324L684.789,323.641 M668.938,332.72
		c7.543-7.446,12.201-11.601,13.979-12.465c2.691-1.394,12.25-0.673,28.68,2.161c0.914,0.289,2.283,2.426,4.107,6.413
		c1.969,4.275,2.619,7.254,1.945,8.935c-0.385,0.961-2.281,2.858-5.693,5.693c-4.227,3.507-7.805,7.133-10.734,10.881l-4.828,13.114
		c-3.123,8.551-4.779,13.283-4.973,14.196c-0.191,1.008-1.031,1.777-2.521,2.306c-19.938,4.755-31.561,6.989-34.875,6.701
		c-2.162-0.241-5.621-2.114-10.375-5.621l-7.568-6.125l-0.863-0.865l0.648-1.009l9.584-14.916
		c6.146-9.607,9.752-15.036,10.809-16.285C657.938,343.769,662.164,339.396,668.938,332.72"/>
	<path fill="#0D131A" d="M764.342,382.583c-4.18-3.026-6.703-4.684-7.566-4.972l-13.477-2.811
		c-7.877-1.537-12.297-2.258-13.258-2.161l-15.492,5.765c-9.703,3.747-14.674,5.909-14.916,6.484
		c-0.189,0.577-0.313,1.609-0.359,3.099l0.07,3.387c0,1.489,0.074,2.402,0.217,2.738c1.395,2.064,5.838,7.879,13.33,17.437
		c17.68-4.083,27.406-5.932,29.186-5.547l6.125,1.514l14.195,3.242c0.721-0.048,2.328-0.816,4.826-2.307
		c2.402-1.537,3.844-2.618,4.324-3.242c0.336-0.864,0.504-3.578,0.504-8.143c0-4.9-0.191-7.806-0.576-8.719
		C770.994,387.579,768.615,385.658,764.342,382.583 M756.199,374.081c2.064,0.528,5.402,2.594,10.014,6.197
		c4.42,3.507,6.943,5.909,7.568,7.206c0.574,1.153,0.959,4.3,1.15,9.439c0.193,5.333-0.023,8.479-0.646,9.441
		c-0.674,1.008-2.475,2.546-5.404,4.61c-3.172,2.209-5.332,3.314-6.484,3.314l-10.09-2.954c-6.482-1.97-10.256-2.954-11.313-2.954
		l-14.41,3.313c-8.6,2.065-13.451,2.954-14.557,2.665c-1.25-0.335-3.893-3.458-7.928-9.365l-6.484-9.873
		c-1.104-1.633-1.416-5.02-0.938-10.16l0.938-2.45l16.143-7.134c9.414-4.179,14.531-6.365,15.348-6.557
		c1.105-0.288,5.381,0.36,12.826,1.946L756.199,374.081"/>
	<path fill="#0D131A" d="M728.816,379.99c2.594-0.289,9.68,0.864,21.258,3.458h0.07l0.072,0.072l6.701,3.099
		c3.314,1.633,5.188,2.882,5.619,3.747c0.48,0.961,0.721,4.299,0.721,10.016c-0.047,5.574-0.287,9.343-0.721,11.313l-1.008,1.298
		c-0.48,0.48-0.721,0.072-0.721-1.227l0.217-10.591c0.049-5.717-0.24-8.96-0.865-9.729c-0.24-0.48-1.465-1.369-3.674-2.666
		l-6.918-3.604c-11.48-2.21-18.424-3.171-20.824-2.882c-1.059,0.145-4.299,1.321-9.73,3.531l-10.445,3.963l-3.027,0.289
		c-0.096-0.289,0.672-0.913,2.307-1.873c1.826-1.058,5.211-2.594,10.16-4.612C723.389,381.43,726.992,380.229,728.816,379.99"/>
	<path fill="#0D131A" d="M685.438,335.602c1.057-0.528,5.645-0.552,13.764-0.072l17.438,1.513l-0.578,0.865l-0.721,0.648
		l-16.211-0.648c-8.023-0.336-12.346-0.336-12.971,0c-0.771,0.384-3.844,3.002-9.225,7.854c-5.523,5.043-8.574,8.094-9.15,9.151
		l-3.963,9.512l-6.197,15.06c-1.873,4.42-3.146,6.46-3.818,6.125c-0.672-0.288-0.191-2.595,1.441-6.918l6.125-15.563l4.25-9.944
		c0.674-1.104,3.916-4.204,9.729-9.295C681.066,338.845,684.43,336.082,685.438,335.602"/>
	<path fill="#0D131A" d="M585.713,422.069c-1.154,0.674-3.027,2.906-5.621,6.702c-2.307,3.41-3.795,5.908-4.469,7.493
		c-0.576,1.345-0.576,2.883,0,4.611c1.01,3.074,2.26,6.317,3.748,9.729c1.826,4.18,3.193,6.485,4.105,6.916l6.055,0.794
		c3.219,0.049,5.307-0.217,6.268-0.794l4.613-3.962l7.061-5.621c2.258-1.634,3.963-2.594,5.115-2.882l10.883-3.1
		c4.273-1.394,6.363-2.377,6.27-2.954c-4.084-18.541-6.391-28.438-6.918-29.688c-0.434-0.433-2.139-1.272-5.115-2.521
		c-2.932-1.249-4.758-1.922-5.479-2.019c-0.48-0.096-4.369,2.378-11.674,7.423L585.713,422.069 M584.055,419.044
		c3.17-1.585,7.807-4.324,13.906-8.214l13.188-8.937l7.854,2.812c3.41,1.297,5.381,2.305,5.908,3.024
		c0.77,1.059,2.258,6.246,4.469,15.564c2.305,9.607,3.17,15.061,2.592,16.356c-0.479,1.105-2.088,2.188-4.826,3.242l-13.186,3.819
		c-1.971,0.48-5.262,2.882-9.873,7.206c-4.66,4.37-7.59,6.749-8.791,7.133c-1.104,0.337-3.604,0.337-7.494,0l-6.629-1.151
		c-0.912-0.576-2.834-4.155-5.764-10.737c-2.883-6.485-4.277-10.184-4.18-11.098c0.238-1.775,2.064-5.188,5.477-10.23
		C580.066,422.694,582.518,419.764,584.055,419.044"/>
	<path fill="#0D131A" d="M587.584,447.291c-2.113-4.9-2.93-7.784-2.449-8.648l3.027-6.412c2.354-4.516,4.346-7.229,5.979-8.143
		l24.572-15.132c1.969-1.297,3.508-1.802,4.611-1.514c1.104,0.335,1.033,0.912-0.215,1.729l-26.734,15.996
		c-1.393,0.864-3.219,3.218-5.477,7.062c-1.969,3.41-3.146,5.813-3.529,7.206c-0.289,0.913,0.863,4.106,3.457,9.583
		c2.4,5.188,4.084,8.358,5.045,9.513c1.057,1.248,0.457,1.514-1.803,0.793C591.861,456.201,589.697,452.189,587.584,447.291"/>
	<path fill="#0D131A" d="M625.92,314.128c0.623-0.24,2.02,0.12,4.18,1.081c4.42,1.922,8.096,3.915,11.023,5.98
		c-0.625-6.629-1.129-10.904-1.514-12.826c-1.008-1.393-6.461-4.42-16.355-9.08c-9.801-4.611-15.373-6.869-16.719-6.772
		c-1.248,0.096-3.436,1.681-6.557,4.755c-2.883,2.833-6.148,6.533-9.801,11.097c-3.266,4.131-5.188,5.957-5.764,5.477
		c-0.529-0.529,0.336-2.45,2.594-5.765l-17.293,0.072l-1.01,2.522c-0.77,0.961-1.369-0.288-1.801-3.747
		c-0.191-1.681-0.576-3.459-1.154-5.333l-1.297-3.243c-2.979-1.441-9.99-2.21-21.039-2.306l-17.871,0.937
		c-0.816,0.432-2.305,2.931-4.469,7.494c-2.064,4.371-3.938,8.815-5.619,13.331c-1.346,3.699-2.234,5.212-2.666,4.54
		c-0.432-0.721-0.023-3.387,1.225-7.998c-9.799,2.161-15.371,3.867-16.716,5.116c-1.44,1.057-3.507,4.467-6.198,10.232
		l-5.979,13.331c-1.345,2.882-2.138,3.818-2.378,2.81c-0.24-0.912,0.048-2.521,0.864-4.827c5.332-15.037,8.792-23.179,10.376-24.428
		c0.961-0.769,4.229-1.873,9.8-3.314l11.816-2.882l4.611-11.241c1.395-3.123,2.666-4.924,3.82-5.404l19.094-0.938
		c11.865,0.24,19.479,1.225,22.842,2.954c1.395,0.721,2.523,3.867,3.387,9.439l19.385-0.36
		c8.311-10.184,13.715-15.588,16.213-16.213c1.873-0.433,8.525,2.162,19.959,7.782c11.385,5.524,17.391,9.007,18.014,10.448
		c0.385,0.817,0.674,3.411,0.865,7.782c0.191,5.237,0.361,8.311,0.504,9.224c6.822,6.293,12.348,12.874,16.574,19.743
		c-1.395,0.865-2.162,1.37-2.307,1.514c-4.371-7.254-9.223-13.235-14.555-17.942c-3.988-3.507-9.656-7.35-17.008-11.529
		C625.703,314.921,625.342,314.417,625.92,314.128"/>
	<path fill="#0D131A" d="M304.256,407.442l2.162-1.152c7.157,5.813,17.821,9.319,31.993,10.52
		c18.063,1.538,37.47-1.655,58.222-9.583l3.099,0.938c-21.666,8.981-40.736,13.114-57.213,12.394
		C328.012,419.979,315.257,415.609,304.256,407.442"/>
	<path fill="#0D131A" d="M327.675,426.104c-1.249-0.673-1.826-1.249-1.729-1.729l2.522,0.145c2.978,1.009,7.614,1.682,13.907,2.019
		l21.185-1.153l4.107-0.144c0.048,0.384-1.177,1.008-3.675,1.872c-4.66,1.682-11.097,2.38-19.312,2.09
		C336.754,428.916,331.086,427.883,327.675,426.104"/>
	<path fill="#0D131A" d="M320.901,400.309c8.311-1.825,16.453-2.714,24.427-2.666c11.769,0.048,23.418,1.128,34.948,3.242
		c6.293,1.201,13.643,2.979,22.051,5.333l7.133,2.016c1.01-0.144,3.171-2.185,6.484-6.125c1.778-2.064,2.885-2.929,3.314-2.592
		c0.48,0.383,0,1.609-1.44,3.674c-3.459,4.899-5.957,7.566-7.492,7.999c-0.866,0.191-3.939-0.458-9.225-1.945
		c-8.312-2.402-15.205-4.107-20.681-5.115c-10.76-2.021-21.929-3.051-33.506-3.101c-17.582-0.096-32.522,2.666-44.82,8.287
		c-2.642,1.201-4.635,1.489-5.98,0.864c-1.874-0.912-3.939-3.723-6.197-8.43c-0.817-1.73-0.985-2.764-0.504-3.101
		c0.432-0.384,1.249,0.481,2.45,2.597c2.209,3.746,3.891,5.858,5.043,6.34c0.672,0.239,2.066-0.096,4.18-1.008
		C306.754,403.982,313.359,401.895,320.901,400.309"/>
	<path fill="#0D131A" d="M433.022,276.586c-6.87-3.891-10.784-5.716-11.744-5.477c-0.528,0.145-3.46,3.339-8.792,9.584
		l-12.971,15.42c-2.882,3.363-4.588,4.684-5.116,3.963c-0.529-0.72,0.553-2.762,3.243-6.124l2.234-19.095l2.018-19.384
		c-0.048-0.72-3.747-2.065-11.097-4.035c-7.253-1.97-11.361-2.811-12.322-2.522c-0.72,0.192-3.987,5.188-9.799,14.988l-11.17,19.024
		c-1.633,2.738-2.69,4.011-3.17,3.819c-0.432-0.193-0.12-1.273,0.937-3.243c-15.468-0.336-30.216,2.474-44.243,8.431
		c-2.882,1.249-4.179,1.513-3.891,0.792c0.24-0.625,0.913-1.321,2.018-2.09l5.404-2.882l-7.71-14.051l-8.359-14.268
		c-0.672-0.576-4.083,1.153-10.232,5.189c-6.197,3.987-9.416,6.533-9.656,7.638c-0.144,0.72,0.48,4.036,1.874,9.943l3.819,15.564
		c1.104,4.324,1.561,7.158,1.369,8.503c-0.144,1.345-0.984,0-2.522-4.036l-11.241-8.646l-7.709-5.909
		c-0.625-0.048-3.243,2.954-7.854,9.007c-4.564,6.101-6.822,9.584-6.773,10.448c0.096,0.768,3.267,3.915,9.511,9.439l13.475,11.313
		c2.354,1.921,3.314,2.978,2.882,3.17c-0.385,0.192-1.177-0.096-2.378-0.865l-3.386-2.018l-12.034-1.657l-6.918-0.432
		c-0.672,0.192-1.128,3.314-1.369,9.368c-0.241,6.052-0.048,9.463,0.576,10.231c0.192,0.241,4.204,2.69,12.034,7.35
		c8.022,4.756,12.298,7.326,12.827,7.71c0.383,0.336,0.696,1.177,0.936,2.522l0.577,4.9c0.192,1.538,0.048,2.258-0.432,2.161
		c-0.432-0.096-0.793-0.768-1.081-2.017c-0.817-3.507-1.49-5.549-2.018-6.125c-1.393-1.201-6.005-3.795-13.835-7.782
		c-7.446-3.747-11.553-6.101-12.322-7.062c-0.817-1.009-0.937-5.116-0.36-12.322c0.625-7.158,1.441-10.904,2.449-11.241
		c1.058-0.385,6.702,0.12,16.934,1.513c-5.524-4.323-10.136-8.238-13.834-11.745c-3.555-3.459-5.453-5.789-5.693-6.989
		c-0.192-1.009,2.522-5.044,8.142-12.106c5.669-7.11,9.08-10.617,10.232-10.52c1.057,0.096,6.773,4.708,17.15,13.834
		c-4.468-16.477-6.558-25.22-6.27-26.228c0.432-1.538,4.131-4.588,11.097-9.151c6.966-4.612,11.169-6.702,12.61-6.27
		c1.057,0.336,3.507,3.867,7.35,10.593l10.88,19.888c6.485-2.21,12.226-3.843,17.222-4.9c7.254-1.489,14.244-2.113,20.968-1.874
		l11.385-19.667c5.764-9.656,9.079-14.772,9.943-15.348c0.865-0.577,5.5,0.432,13.907,3.026c8.551,2.69,13.282,4.779,14.195,6.269
		c0.434,0.673-1.08,13.114-4.541,37.326l14.27-17.798c3.506-4.228,5.571-6.414,6.195-6.557c1.394-0.336,6.125,1.897,14.195,6.701
		c8.215,4.9,12.298,8.19,12.25,9.872l-6.629,15.564l-8.792,20.393c-0.239,0.576-0.984,1.057-2.232,1.44
		c-1.201,0.336-1.682,0.217-1.442-0.36l9.656-21.689c4.083-9.319,6.052-14.243,5.908-14.771
		C443.521,283.121,439.94,280.574,433.022,276.586"/>
	<path fill="#0D131A" d="M431.223,321.407c-3.844,1.201-5.573,1.345-5.188,0.432c0.433-0.96,2.498-2.113,6.195-3.458
		c3.315-1.249,7.76-2.642,13.333-4.18c6.867-1.874,10.783-2.57,11.743-2.089c1.153,0.528,2.812,4.011,4.973,10.448
		c2.163,6.389,3.05,10.375,2.667,11.961c-0.289,1.297-6.149,5.717-17.582,13.259c-9.226,6.053-16.598,10.688-22.122,13.907
		c-3.123,1.825-4.684,2.402-4.684,1.729s1.151-1.825,3.458-3.458l20.176-13.691c11.289-7.878,17.127-12.585,17.511-14.123
		c0.144-0.72-0.479-3.434-1.874-8.142c-1.489-4.803-2.594-7.518-3.314-8.143c-0.526-0.432-4.179,0.145-10.95,1.73
		C439.702,318.979,434.92,320.253,431.223,321.407"/>
	<path fill="#0D131A" d="M427.69,365.938l1.009-8.863l2.449-0.145l-0.504,3.604l-1.225,5.548c-0.48,1.441-0.913,2.185-1.297,2.234
		C427.738,368.364,427.596,367.571,427.69,365.938"/>
	<path fill="#0D131A" d="M355.85,346.699c0.721-1.297,2.354-3.338,4.9-6.125c2.594-2.882,4.948-5.212,7.061-6.989
		c2.162-1.826,3.387-2.642,3.675-2.45c0.241,0.191-0.504,1.249-2.233,3.17l-12.034,13.402c-0.961,1.009-1.609,1.417-1.946,1.225
		C354.938,348.691,355.129,347.948,355.85,346.699"/>
	<path fill="#0D131A" d="M300.366,308.94c-0.145,0.48,0.121,1.681,0.793,3.603l1.585,5.26c0.432,2.786,0.024,3.194-1.225,1.225
		c-0.481-0.721-1.177-2.21-2.09-4.468c-0.96-2.258-1.465-3.747-1.513-4.468l-0.144-1.945c0.096-0.673,0.529-1.249,1.297-1.729
		l6.341-3.818l2.089-0.216l1.802,1.729l4.107,5.836c0.576,0.865,0.768,1.393,0.576,1.585c-0.144,0.24-0.625,0.12-1.441-0.36
		l-2.954-2.882l-2.45-2.882c-0.432-0.432-1.633-0.12-3.603,0.937C301.663,307.355,300.605,308.221,300.366,308.94"/>
	<path fill="#0D131A" d="M326.594,377.898l1.585,0.865l1.945,1.369l-14.988,1.441c-6.629,0.384-11.409,0.481-14.339,0.289
		c-1.825-0.096-2.666-0.336-2.521-0.721c0.096-0.384,1.081-0.577,2.954-0.577l13.114-0.865L326.594,377.898"/>
	<path fill="#0D131A" d="M295.105,374.296c0.48,2.161,0.601,3.338,0.36,3.531c-0.288,0.192-0.841-0.769-1.657-2.882
		c-0.672-1.633-1.321-3.819-1.945-6.557l-0.865-4.9l2.955,0.073c-0.048,1.008,0.048,2.546,0.288,4.611L295.105,374.296"/>
	<path fill="#0D131A" d="M357.291,379.124l3.314-2.305l16.501,1.081c7.206,0.144,12.778,0.024,16.717-0.36l5.333,0.144
		c-0.288,0.481-2.018,0.913-5.188,1.297l-16.718,0.937L357.291,379.124"/>
	<path fill="#0D131A" d="M403.12,369.613c-0.624,3.123-1.153,4.563-1.584,4.324c-0.435-0.24-0.435-1.753,0-4.54
		c0.335-2.354,0.504-5.285,0.504-8.791l-0.289-5.836l3.025-1.081C405.211,357.099,404.657,362.407,403.12,369.613"/>
	<path fill="#0D131A" d="M458.1,242.504c-0.864-0.145-3.313,0.432-7.351,1.729c-3.939,1.201-6.077,1.97-6.412,2.306
		c-0.288,0.336-0.336,1.993-0.146,4.972c0.24,2.978,0.554,5.068,0.938,6.269c0.338,1.105,1.466,2.138,3.388,3.099
		c1.346,0.72,2.716,1.249,4.106,1.585c0.913,0.24,1.417,0.625,1.514,1.153c0.097,0.576-0.505,0.769-1.802,0.576
		c-5.284-0.528-8.384-2.114-9.296-4.756c-0.576-1.825-1.08-4.419-1.514-7.781c-0.48-3.748-0.456-5.909,0.072-6.485
		c0.576-0.672,3.121-1.633,7.64-2.882c4.658-1.249,7.71-1.754,9.149-1.513c1.777,0.288,4.685,1.201,8.72,2.738
		c4.995,1.921,7.949,3.627,8.862,5.116c0.865,1.489,1.562,3.531,2.09,6.125l0.938,5.26c0.24,1.298,0.216,2.499-0.072,3.604
		c-0.336,1.249-0.961,2.042-1.874,2.377l-2.521,0.289c-0.722-0.24-0.745-0.672-0.072-1.297c0.624-0.673,1.057-1.321,1.297-1.946
		l0.289-2.45c0-2.978-0.577-6.726-1.729-11.241v-0.216c-0.385-0.672-2.786-1.874-7.206-3.603
		C462.878,243.85,459.876,242.84,458.1,242.504"/>
	<path fill="#0D131A" d="M340.646,249.133c-0.769-0.336-0.937-0.696-0.504-1.081c0.433-0.385,0.913-0.529,1.441-0.433
		c1.921,0.433,3.483,1.057,4.684,1.874c0.72,0.48,1.177,0.985,1.369,1.514c0.24,0.48,0.313,1.104,0.216,1.874l-0.937,4.25
		c-0.721,2.21-1.538,3.651-2.45,4.324c-1.297,0.961-4.708,0.529-10.232-1.297c-1.297-0.48-2.498-1.129-3.603-1.946
		c-1.104-0.865-1.753-1.657-1.945-2.377c-0.48-1.826,0.889-4.036,4.107-6.629c1.057-0.865,1.729-1.105,2.018-0.721
		c0.24,0.384-0.024,1.057-0.792,2.018c-1.778,2.354-2.571,3.915-2.378,4.684l2.089,1.801c1.442,0.865,3.099,1.513,4.973,1.945
		l4.323,0.36c1.009-0.769,1.826-3.147,2.45-7.134L340.646,249.133"/>
	<path fill="#0D131A" d="M469.917,365c-0.721-0.24-1.058-0.528-1.01-0.865c0.048-0.288,0.48-0.408,1.299-0.359
		c1.199,0.048,2.856,0.552,4.972,1.513l1.513,1.153l-0.071,2.306c-0.191,1.009-1.058,3.002-2.594,5.98l-3.101,5.62l-1.152,1.514
		l-1.009,0.216l-5.261-0.865c-1.776-0.48-2.666-1.321-2.666-2.522l0.146-5.764c0.192-3.555,0.602-5.813,1.226-6.773
		c0.721-1.153,1.177-1.705,1.369-1.657l-0.073,1.946c-0.191,1.201-0.265,3.194-0.217,5.98c0,2.738,0.121,4.443,0.36,5.116
		c0.192,0.625,0.962,1.104,2.307,1.441l2.667-0.144l3.17-5.621c1.681-3.362,2.426-5.236,2.234-5.62
		c-0.193-0.384-0.77-0.864-1.729-1.441L469.917,365"/>
	<path fill="#0D131A" d="M556.961,384.672c-0.432-1.825-0.408-2.642,0.072-2.45l1.656,2.09c0.816,1.345,1.537,3.41,2.162,6.197
		c0.721,3.458,1.01,6.917,0.863,10.376l-1.369,7.854c-1.775,6.101-4.729,11.169-8.861,15.203c-1.201,1.153-1.971,1.536-2.307,1.153
		c-0.385-0.386-0.07-1.153,0.938-2.307c4.805-5.479,7.566-12.321,8.287-20.536C558.881,396.49,558.402,390.628,556.961,384.672"/>
	<path fill="#0D131A" d="M261.888,396.994c0.768,0.192,0.216,0.841-1.657,1.946c-2.114,1.345-5.116,3.481-9.007,6.413
		c-4.131,3.122-6.557,5.141-7.278,6.053c-0.72,1.058-2.018,8.671-3.891,22.843c-1.873,14.123-2.641,21.929-2.305,23.419
		c0.864,1.249,3.699,4.011,8.503,8.286c5.14,4.563,8.238,6.798,9.295,6.702l4.251-1.299l3.675-1.945l1.082,1.37
		c-3.699,3.024-6.557,4.706-8.575,5.043c-1.633,0.24-5.356-1.993-11.169-6.7c-5.092-4.181-8.382-7.207-9.872-9.079
		c-0.96-1.25-0.552-9.729,1.225-25.438c1.778-15.611,3.195-24.043,4.252-25.292c0.961-1.057,3.603-2.979,7.926-5.765
		c4.083-2.594,7.206-4.419,9.367-5.476C259.726,397.163,261.119,396.801,261.888,396.994"/>
	<path fill="#0D131A" d="M273.344,411.478l-8.647,1.514c-4.659,0.815-4.827,0.359-0.504-1.369c2.69-1.104,5.789-2.162,9.295-3.171
		c3.843-1.104,6.246-1.537,7.206-1.297c0.913,0.24,2.667,1.85,5.261,4.827l4.611,5.766l1.225,1.873
		c0.192,0.434,0.216,1.058,0.072,1.874l-0.36,7.35l-0.216,6.63l4.179,4.467c2.594,2.737,4.155,4.589,4.684,5.549
		c0.72-0.864,2.282-2.065,4.684-3.603c1.489-0.864,5.212-1.754,11.168-2.667l12.178-0.646c2.161,0.525,6.316,2.425,12.465,5.69
		c6.341,3.41,10.328,5.957,11.961,7.639c0.816,0.816,1.345,2.019,1.585,3.604l0.216,4.684c0,2.931-0.504,5.86-1.513,8.792
		c-0.336,1.346-2.45,2.617-6.341,3.818l-6.197,1.44c-1.393,0.239-3.579,1.753-6.557,4.541l4.323,3.962
		c0.385,0.385,1.609,0.721,3.675,1.008l5.188,0.578l5.116,1.008c0.865,0.289,1.417,0.842,1.657,1.658l0.36,3.529
		c0,3.986-0.168,6.989-0.504,9.009l-0.36,1.729l-1.009,1.008l-1.298,0.865c-0.625,0.29-1.104,0.553-1.441,0.794l2.811,2.594
		c1.153,1.249,1.729,2.354,1.729,3.314l-0.36,1.585c-0.816,1.586-3.026,4.011-6.63,7.277c-3.554,3.219-6.316,5.333-8.286,6.342
		l-9.007,0.504l-15.275-1.226l-6.629-0.433c-3.411,0-9.08-4.803-17.005-14.411l-1.802-2.09c-0.961-1.104-1.825-2.619-2.594-4.539
		c-0.864-2.065-1.393-4.06-1.584-5.98l-16.501-18.016c-9.319-10.277-14.195-15.898-14.627-16.859l-0.288-1.73
		c0-2.113,0.696-5.163,2.089-9.15c1.249-3.698,2.377-6.294,3.387-7.781c1.009-1.44,1.657-2.042,1.946-1.802
		c0.335,0.239,0.096,1.346-0.721,3.314c-0.912,2.161-1.801,5.067-2.666,8.719c-0.864,3.698-1.152,5.935-0.864,6.7
		c0.528,0.962,4.924,6.245,13.186,15.854c8.119,9.512,12.922,15.013,14.411,16.501c-0.24-2.209-0.24-4.107,0-5.693
		c0.192-1.296,0.505-1.85,0.937-1.657c0.433,0.193,0.817,1.37,1.153,3.53l1.369,8.505c0.721,3.554,1.514,6.052,2.378,7.493
		c0.96,1.586,3.651,4.61,8.07,9.079c4.997,5.044,8.238,7.564,9.728,7.564l6.845,0.36c13.402,0.962,20.897,1.032,22.481,0.216
		c1.826-0.912,4.347-2.785,7.566-5.62c3.267-2.882,5.213-4.995,5.837-6.34l0.144-0.434c0-0.624-0.48-1.466-1.441-2.522
		c-0.768-0.815-1.633-1.536-2.593-2.161l-7.999,3.893c7.062-4.947,10.977-8.047,11.745-9.295c0.528-0.817,0.841-2.066,0.937-3.749
		v-4.033c0-2.066-0.192-3.269-0.576-3.604l-4.684-0.863l-6.125-1.153c-1.778-0.433-2.978-0.984-3.603-1.657l-6.269-5.621
		l0.937-0.937c3.747-3.747,6.701-5.788,8.863-6.123l6.629-1.586c2.354-0.77,3.675-1.395,3.963-1.874
		c0.625-2.308,0.937-5.045,0.937-8.215c0-3.268-0.529-5.429-1.585-6.485c-1.441-1.44-5.044-3.577-10.809-6.413
		c-5.428-2.688-9.175-4.299-11.24-4.827c-1.874-0.434-5.717-0.408-11.529,0.072c-5.765,0.527-9.175,1.104-10.232,1.729
		c-0.913,0.528-1.994,1.515-3.243,2.954l-2.667,3.316l-11.384-14.124l-0.217-15.925c-1.489-2.21-3.17-4.348-5.044-6.414
		c-1.729-1.968-2.882-3.099-3.458-3.385L273.344,411.478"/>
	<path fill="#0D131A" d="M283.721,435.185l6.052-0.863l0.433,2.953l-7.566-0.216c-1.441-0.049-1.97-0.337-1.585-0.866
		C281.392,435.714,282.279,435.376,283.721,435.185"/>
	<path fill="#0D131A" d="M291.143,462.495c0.672-1.635,2.186-4.42,4.54-8.358c2.162-3.652,3.675-6.077,4.539-7.279l5.116-3.098
		l-12.609,19.526c-1.201,1.825-1.946,2.619-2.234,2.38C290.207,465.425,290.422,464.367,291.143,462.495"/>
	<path fill="#0D131A" d="M331.926,465.088c1.441-0.96,5.789-1.513,13.042-1.657c1.681,0,2.522,0.168,2.522,0.505
		c0,0.288-0.745,0.527-2.234,0.722l-6.846,0.793l-5.476,1.081l-2.738,2.881c-1.345,1.633-2.138,2.788-2.377,3.459
		c-0.192,0.624,0.312,1.439,1.513,2.449l4.251,3.604c1.826,1.633,3.17,3.241,4.035,4.826c0.865,1.634,0.192,1.634-2.017,0
		l-5.837-4.684l-3.818-3.242c-0.961-0.72-1.417-1.346-1.369-1.874c0-0.384,0.408-1.128,1.225-2.232
		C328.637,468.115,330.677,465.905,331.926,465.088"/>
	<path fill="#0D131A" d="M350.806,501.478c2.354-0.863,2.714-0.528,1.081,1.008l-6.269,5.333c-2.306,1.682-3.867,2.617-4.683,2.812
		l-8.214-0.576l-8.575-1.081c-0.961-0.097-2.21-0.697-3.747-1.803l-3.891-3.026c-1.153-0.912-1.754-1.705-1.802-2.378
		c0-0.673,0.553-0.575,1.657,0.289c2.498,1.826,4.948,3.194,7.35,4.107l15.924,2.018l7.206-4.972L350.806,501.478"/>
	<path fill="#0D131A" d="M299.212,480.651c-0.816,0.098-1.176-0.072-1.081-0.504c0.097-0.386,0.432-0.794,1.009-1.225
		c0.433-0.337,1.705-0.673,3.819-1.01l3.963-0.434c1.441,0,2.306,0.602,2.594,1.804l0.36,4.395v4.396
		c-0.048,0.672-0.888,1.944-2.522,3.818l-3.026,2.882l-2.522-0.646l-2.954-1.514c-0.769-0.528-1.105-1.032-1.009-1.515l1.658-0.072
		l2.738,1.298l1.441,0.359l2.09-2.306l1.657-2.666v-3.818c0-2.209-0.144-3.435-0.433-3.675L299.212,480.651"/>
	<path fill="#0D131A" d="M532.533,473.734c1.201-0.864,3.65-7.086,7.35-18.664c3.363-10.424,5.428-17.531,6.197-21.327
		c0.625-2.931,1.201-4.442,1.729-4.54c0.529-0.097,0.529,1.563,0,4.974c-0.863,5.476-2.834,13.066-5.908,22.769
		c-3.746,11.771-6.869,18.447-9.367,20.032V473.734"/>
	<path fill="#0D131A" d="M514.953,402.976c0.672-1.152,1.605-2.45,2.809-3.892c1.49-1.729,2.738-2.762,3.746-3.098l7.064-0.289
		l7.061,0.937l2.09,1.224l1.369,3.316c2.162,6.772,2.619,11.265,1.369,13.474l-3.027,5.836l-2.736,4.686
		c-0.77,0.961-1.418,1.417-1.945,1.369c-0.578-0.097-0.457-0.793,0.361-2.09l2.375-4.611l2.523-5.117l0.434-2.593l-0.723-6.125
		l-1.225-4.9l-0.721-1.729c-0.24-0.384-0.674-0.697-1.299-0.937l-5.547-0.36l-6.197,0.504c-0.912,0.192-2.018,0.961-3.314,2.306
		l-3.17,3.314c-0.961,0.864-1.537,1.128-1.73,0.793C514.279,404.657,514.424,403.982,514.953,402.976"/>
	<path fill="#0D131A" d="M530.229,402.255c-1.826,1.488-2.883,2.665-3.172,3.53c-0.336,0.961-0.096,3.53,0.723,7.71
		c0.816,4.179,1.537,6.414,2.162,6.702c0.625,0.286,2.137-0.603,4.537-2.667c2.309-1.969,3.699-3.458,4.182-4.467
		c0.336-0.769,0.625-0.769,0.863,0l0.287,1.295c-5.521,6.104-9.197,9.01-11.023,8.72c-1.248-0.191-2.377-2.906-3.387-8.143
		c-1.01-4.995-1.297-8.118-0.863-9.367c0.432-1.152,3.578-3.867,9.438-8.143l1.947,0.649
		C533.182,399.997,531.285,401.391,530.229,402.255"/>
	<path fill="#0D131A" d="M539.162,428.771c0.816-0.528,0.793,0.647-0.072,3.53l-2.594,7.421l-1.801,3.819
		c2.643,2.162,4.299,4.156,4.973,5.98c0.385,1.009-0.648,6.172-3.1,15.492l-4.539,15.636c-0.385,0.961-1.922,1.586-4.611,1.873
		c-2.307,0.241-6.197,0.289-11.674,0.146c-2.307,7.589-3.962,12.009-4.972,13.258c-0.624,0.864-3.796,2.354-9.512,4.468
		l-10.735,3.603l-2.954,0.866l-2.45,0.144l-7.999-0.576l-10.232,2.737l-8.43,2.522l-3.098,2.232l-5.188,3.604l-6.631,5.045
		c-2.306,1.825-4.322,3.003-6.052,3.528l-18.087,3.749l-17.149,2.882c-1.489,0.097-2.57-0.097-3.243-0.575l-1.945-2.162l-5.26-6.197
		c-2.786-3.459-4.395-5.74-4.828-6.845l-6.557-1.299c-3.506-0.721-5.645-1.367-6.413-1.945c-0.673-0.479-1.009-1.944-1.009-4.396
		l0.216-7.134c0-4.467,0.264-7.182,0.793-8.142c0.432-0.864,1.152-1.37,2.161-1.515l2.882,0.217l3.603,0.145
		c1.009-0.145,3.123-1.418,6.341-3.819c3.17-2.401,4.875-3.963,5.116-4.684l0.36-2.521v-2.521l-16.861-0.792
		c-3.267-0.241-5.116-1.418-5.549-3.531c-0.576-2.546-0.864-5.741-0.864-9.584c0-1.344,0.145-2.282,0.432-2.81
		c0.913-1.346,3.651-3.892,8.214-7.64c5.285-4.371,9.368-6.989,12.25-7.854c2.786-0.816,7.902-1.512,15.35-2.09l13.401-0.575
		c1.298,0,3.027,1.201,5.188,3.603c1.585,1.777,3.746,4.611,6.484,8.502l5.404-1.439l7.278-2.09
		c1.008-0.336,2.665-1.874,4.972-4.611l5.765-7.063l3.387,0.217l-5.116,6.558c-3.218,3.986-5.62,6.244-7.205,6.774
		c-6.341,2.063-11.24,3.48-14.7,4.249c-2.93,0.673-4.203,0.673-3.818,0l1.44-1.226c-4.948-7.157-8.285-10.734-10.016-10.734
		l-12.826,0.937c-6.871,0.769-11.626,1.563-14.269,2.378c-2.498,0.77-6.245,3.05-11.241,6.845c-4.372,3.268-6.99,5.477-7.854,6.631
		l-0.072,1.079c0,1.346,0.361,4.54,1.081,9.586c0,0.479,3.747,1.031,11.241,1.654l11.169,0.795l-0.072,5.33l-0.216,2.595
		c-0.24,0.816-1.009,1.683-2.306,2.596l-5.548,4.467c-2.546,1.969-4.541,3.05-5.981,3.243l-4.323-0.146l-1.585,0.072
		c-0.529,0.192-0.889,0.696-1.082,1.513c-0.191,0.816-0.264,2.115-0.216,3.893l0.072,4.61c0,2.065,0.072,3.509,0.216,4.324
		c0.096,0.77,0.336,1.394,0.72,1.873c1.201,0.816,4.731,1.851,10.593,3.099l0.432,0.145c7.927,9.225,12.322,13.955,13.187,14.194
		l17.293-2.521l18.23-3.459c1.73-0.576,6.029-3.243,12.898-7.999l4.395-3.387c1.107-1.008,2.332-1.729,3.676-2.161
		c6.968-2.113,13.188-3.747,18.663-4.9l6.918-0.359l4.18,0.217l10.735-3.892c6.343-2.498,9.729-4.132,10.16-4.899
		c2.691-4.853,4.298-8.575,4.827-11.169c-4.994-0.144-7.926-0.552-8.79-1.225c-0.817-0.626-0.168-1.01,1.945-1.152l12.104,0.07
		l11.385-1.009c1.395-1.104,3.916-10.641,7.566-28.604c0.191-0.866-1.178-2.354-4.105-4.47l-6.414-4.322
		c-3.121-2.354-3.699-3.195-1.73-2.521c1.441,0.479,3.963,1.563,7.566,3.242l4.322-10.017
		C537.627,430.453,538.395,429.253,539.162,428.771"/>
	<path fill="#0D131A" d="M478.06,403.335c1.825,0,2.906,1.322,3.243,3.964c0.145,1.009,0.071,1.801-0.217,2.378
		c-0.337,0.577-0.601,0.625-0.793,0.145l-0.647-2.091c-0.434-0.96-0.938-1.464-1.514-1.512c-1.249-0.048-5.333,2.186-12.25,6.7
		c-7.205,4.659-11.191,7.902-11.962,9.729c-0.432,1.104-0.529,3.914-0.288,8.431c0.24,4.468,0.553,6.894,0.938,7.277
		c0.576,0.576,5.619,0.191,15.132-1.152c9.561-1.346,14.748-2.378,15.563-3.1c0.577-0.479,0.793-1.85,0.649-4.105
		c-0.048-1.395,0.19-2.138,0.721-2.234c0.479-0.144,0.841,0.434,1.08,1.73l0.721,3.674c0.191,1.249,0,2.139-0.575,2.667
		c-1.395,1.249-7.206,2.474-17.438,3.673l-17.293,1.226c-0.914-0.096-1.705-2.377-2.379-6.845c-0.673-4.707-0.6-8.599,0.217-11.674
		c0.434-1.729,4.779-5.331,13.042-10.809C471.982,406.073,476.666,403.384,478.06,403.335"/>
	<path fill="#0D131A" d="M391.589,469.268l3.675,0.577l1.801,1.08c0.337,0.48,0.48,1.849,0.433,4.107l-0.433,6.195
		c-0.288,1.922-0.769,2.209-1.441,0.866c-0.672-1.346-0.961-3.027-0.865-5.045c0.144-2.45,0.072-3.986-0.216-4.611
		c-0.145-0.337-0.577-0.577-1.298-0.721l-9.367-1.009l-8.214-0.864c-1.922-0.386-2.787-0.794-2.594-1.225
		c0.144-0.387,0.864-0.578,2.162-0.578l7.782,0.505L391.589,469.268"/>
	<path fill="#0D131A" d="M415.081,502.918c0.144,0.385-0.695,1.08-2.521,2.09l-10.448,5.188l-10.161,4.538l-3.819,0.576
		l-7.349-1.874c-3.651-1.008-5.021-1.8-4.107-2.377l5.043,0.145c4.18,1.201,7.446,1.417,9.8,0.648l9.44-4.035l10.952-4.468
		C413.882,502.678,414.938,502.533,415.081,502.918"/>
	<path fill="#0D131A" d="M454.856,489.371l-1.08-8.646c-0.146-1.01-0.025-1.682,0.359-2.018c0.433-0.287,0.889,0.265,1.369,1.657
		l1.151,5.261l0.864,3.746c0.29,0.577,1.273,1.009,2.955,1.297l2.883-0.145l3.025-4.468c1.682-2.737,2.521-4.516,2.521-5.332
		c-0.721-0.433-2.041-1.01-3.962-1.729c-0.864-0.336-1.369-0.816-1.515-1.44c-0.192-0.577,0.265-0.721,1.37-0.434l2.521,0.578
		c0.72,0.19,1.535,0.526,2.448,1.008c1.058,0.577,1.634,1.104,1.73,1.585l-0.722,2.667l-2.954,5.69
		c-1.537,2.45-2.738,3.818-3.604,4.108l-3.604,0.287l-3.747-0.504c-0.816-0.24-1.345-0.625-1.585-1.153L454.856,489.371"/>
	<path fill="#0D131A" d="M364.279,469.556c-0.576-0.815-0.672-1.345-0.288-1.585c0.384-0.193,0.936-0.048,1.657,0.433
		c2.065,1.441,3.603,2.857,4.611,4.253c0.673,0.863,0.481,2.159-0.576,3.891l-3.675,3.459l-4.323,2.881
		c-1.009,0.337-2.21-0.144-3.603-1.439c-1.105-1.059-1.969-2.188-2.595-3.387c-0.816-1.634-0.312-3.701,1.514-6.197
		c0.672-0.865,1.201-1.2,1.585-1.01c0.384,0.145,0.336,0.817-0.144,2.019l-1.225,2.738c-0.288,0.673-0.336,1.226-0.145,1.655
		l2.018,2.523l1.729,0.937c0.433-0.146,1.729-1.152,3.891-3.024c2.162-1.924,3.291-3.075,3.387-3.46
		c0.096-0.289-0.36-0.96-1.369-2.019L364.279,469.556"/>
	<path fill="#0D131A" d="M310.31,370.188c1.538,0.336,2.691,0.937,3.459,1.802c0,3.41-0.601,5.116-1.801,5.116
		c-0.673,0-1.153-0.602-1.441-1.802C310.189,374.057,310.118,372.351,310.31,370.188"/>
	<path fill="#0D131A" d="M375.018,375.881c-1.394,0-1.994-1.802-1.802-5.405c0.769-0.768,1.993-1.345,3.675-1.729
		c0.192,2.113,0.096,3.843-0.289,5.188C376.267,375.232,375.737,375.881,375.018,375.881"/>
	<path fill="#0D131A" d="M329.548,378.115c1.393,0.817,2.018,1.538,1.873,2.162l-2.45-0.072l-15.42-7.566
		c-9.704-4.563-17.318-7.542-22.842-8.936c-2.354-0.576-3.458-1.297-3.314-2.161c0.145-0.865,1.465-0.961,3.963-0.289
		c4.804,1.345,11.434,3.915,19.888,7.71C319.316,372.519,325.417,375.569,329.548,378.115"/>
	<path fill="#0D131A" d="M356.713,379.99c-2.306,1.2-3.603,1.537-3.891,1.008c-0.288-0.528,0.697-1.513,2.955-2.954
		c2.45-1.585,9.703-5.596,21.761-12.033c12.586-6.678,21.401-11.193,26.446-13.547c4.034-1.826,6.124-2.354,6.27-1.585
		c0.144,0.816-1.851,2.234-5.981,4.251l-24.355,12.682L356.713,379.99"/>
	<path fill="#0D131A" d="M329.548,367.234c0.192-2.306,0.625-3.507,1.297-3.603c0.673-0.096,0.985,1.128,0.937,3.675l-0.072,6.558
		c-0.049,2.018-0.24,3.05-0.577,3.098c-0.337,0-0.672-1.009-1.009-3.026C329.597,371.342,329.404,369.107,329.548,367.234"/>
	<path fill="#0D131A" d="M350.733,375.521l-1.513-5.477c-0.336-1.921-0.336-3.987,0-6.197c0.24-1.921,0.672-2.906,1.297-2.955
		c0.625-0.048,0.913,0.793,0.865,2.522c-0.096,4.227,0.144,8.407,0.721,12.538c0.096,1.009-0.024,1.441-0.36,1.297
		C351.357,377.155,351.021,376.579,350.733,375.521"/>
</g>
</svg>
