<?xml version="1.0" encoding="utf-8"?>
<!-- Generator: Adobe Illustrator 16.0.0, SVG Export Plug-In . SVG Version: 6.00 Build 0)  -->
<!DOCTYPE svg PUBLIC "-//W3C//DTD SVG 1.1//EN" "http://www.w3.org/Graphics/SVG/1.1/DTD/svg11.dtd">
<svg version="1.1" id="Layer_1" xmlns="http://www.w3.org/2000/svg" xmlns:xlink="http://www.w3.org/1999/xlink" x="0px" y="0px"
	 width="800px" height="800px" viewBox="0 0 800 800" enable-background="new 0 0 800 800" xml:space="preserve">
<g>
	<path fill="#8B92C7" d="M159.685,202.383l-32.507-28.626c8.086,0.647,16.821,2.426,26.201,5.338
		c9.704,2.912,17.629,6.307,23.774,10.189L159.685,202.383"/>
	<path fill="#FFFFFF" d="M598.066,361.287c-1.62-9.218-2.426-19.65-2.426-31.294c0-11.161,0.725-20.785,2.18-28.871
		c19.569,1.132,38.74,4.205,57.5,9.218c5.982,11.647,10.025,22.967,12.129,33.964c3.881,18.439,4.203,35.907,0.973,52.403
		c-3.236,17.626-9.463,27.651-18.684,30.079c-11.32,3.234-21.996-1.777-32.021-15.04
		C608.174,398.97,601.621,382.152,598.066,361.287"/>
	<path fill="#0D131A" d="M501.992,308.886c32.35-7.278,64.291-9.865,95.828-7.764c-1.455,8.086-2.18,17.709-2.18,28.871
		c0,11.644,0.806,22.076,2.426,31.294c3.555,20.865,10.107,37.684,19.65,50.46c10.025,13.263,20.701,18.274,32.021,15.04
		c9.221-2.428,15.445-12.453,18.682-30.079c3.232-16.497,2.91-33.964-0.971-52.403c-2.105-10.998-6.146-22.317-12.131-33.964
		l15.041,4.369c5.178,10.026,8.654,22.317,10.434,36.874c1.938,14.234,2.023,28.871,0.24,43.913
		c-1.293,10.997-3.316,21.104-6.064,30.319c-5.658,19.569-14.072,34.452-25.23,44.641c-12.453-9.217-22.56-15.442-30.326-18.68
		c-19.242-8.249-41.563-5.416-66.957,8.491c-10.187,5.662-18.193,11.804-24.018,18.438c-5.984,6.956-8.004,12.612-6.064,16.981
		c5.5,12.937,10.03,27.008,13.584,42.214c-42.047,22.156-93.563,30.646-154.535,25.474c-66.149-5.501-114.264-26.444-144.348-62.835
		l-8.25-16.499c14.72,1.46,27.819-5.254,39.302-20.133c11.161-14.723,23.694-29.192,37.603-43.428l0.486,12.131
		c1.132,21.835,9.946,40.352,26.445,55.557c16.172,15.04,34.691,22.483,55.554,22.317c21.348-0.161,39.382-8.25,54.099-24.261
		c15.205-16.494,22.397-36.954,21.593-61.375c-0.645-17.792-6.549-34.369-17.712-49.732c-11.157-15.043-24.663-25.15-40.512-30.327
		C436.576,328.133,468.679,316.164,501.992,308.886"/>
	<path fill="#8B92C7" d="M252.603,82.539c4.205,0.808,12.21,7.684,24.016,20.622c9.704,10.351,16.821,18.842,21.348,25.473
		c-38.652,10.998-78.926,31.213-120.814,60.65c-6.146-3.883-14.07-7.278-23.774-10.189c-9.38-2.912-18.115-4.691-26.201-5.338
		l-7.037-6.307c1.457-16.174,3.559-26.281,6.31-30.325c8.247-11.969,28.707-24.746,61.377-38.331
		C219.526,85.693,241.119,80.274,252.603,82.539"/>
	<path fill="#8B92C7" d="M299.91,127.906c-4.205-6.309-12.777-15.933-25.717-28.871c15.203-4.366,30.569-7.358,46.095-8.977
		l31.296,1.94c4.042,2.589,7.117,5.582,9.218,8.977l4.61,12.616C349.56,115.21,327.726,119.979,299.91,127.906"/>
	<path fill="#8B92C7" d="M717.424,107.527l-20.379,45.608c-9.703,22.967-14.475,41.567-14.313,55.798
		c-22.641-18.437-48.113-34.45-76.42-48.035c11.324-9.382,26.848-24.746,46.582-46.094l30.082-32.509
		c8.084-6.954,16.898-7.52,26.441-1.696C719.121,86.583,721.793,95.558,717.424,107.527"/>
	<path fill="#8B92C7" d="M748.721,467.304c0.649,1.128-1.052,7.521-5.094,19.162c-4.046,11.646-6.795,17.551-8.249,17.712
		c-9.87-4.53-21.271-6.227-34.206-5.094c-4.207,2.426-7.363,4.523-9.461,6.307c-12.941-12.291-26.93-23.938-41.973-34.936
		c11.158-10.188,19.572-25.07,25.23-44.641c7.762,8.898,20.783,17.873,39.059,26.934
		C727.451,459.538,739.017,464.39,748.721,467.304"/>
	<path fill="#8B92C7" d="M99.52,325.141l0.244-3.639l0.728,3.639H99.52"/>
	<path fill="#FFFFFF" d="M446.194,375.115c11.163,15.364,17.067,31.94,17.712,49.732c0.807,24.421-6.388,44.881-21.593,61.375
		c-14.717,16.011-32.751,24.1-54.099,24.261c-20.863,0.166-39.382-7.277-55.554-22.317c-16.499-15.205-25.313-33.723-26.445-55.557
		l-0.486-12.131c29.599-30.563,62.916-55.794,99.953-75.688C421.531,349.967,435.037,360.074,446.194,375.115"/>
	<path fill="#797FAD" d="M406.412,612.618c-13.912-1.289-32.833,8.008-56.77,27.898c-12.616,10.354-26.445,23.208-41.486,38.574
		c-5.337,4.852-16.821,4.288-34.45-1.696c-17.951-5.983-27.089-12.457-27.414-19.408l3.153-62.835
		c0.647-39.947-3.476-71.485-12.372-94.613c30.083,36.391,78.198,57.334,144.348,62.835c60.973,5.174,112.487-3.316,154.536-25.474
		c3.725,14.229,7.035,31.94,9.949,53.131c-17.953,10.831-41.08,17.872-69.388,21.104
		C454.524,614.722,431.155,614.883,406.412,612.618"/>
	<path fill="#8B92C7" d="M674.969,425.814c2.75-9.216,4.771-19.322,6.066-30.319c5.982,10.509,16.98,21.185,32.992,32.021
		c15.365,10.515,32.348,19.166,50.944,25.956c5.663,2.104,4.53,14.637-3.396,37.604c-7.923,22.967-15.039,33.479-21.348,31.538
		c-6.146-2.101-11.242-3.641-15.284-4.61l-19.407,0.971l-13.826-13.584c2.098-1.782,5.254-3.881,9.461-6.307
		c12.938-1.133,24.336,0.563,34.206,5.094c1.454-0.161,4.203-6.065,8.249-17.712c4.042-11.643,5.743-18.034,5.094-19.162
		c-9.704-2.914-21.27-7.766-34.691-14.556C695.752,443.688,682.73,434.714,674.969,425.814"/>
	<path fill="#8B92C7" d="M183.703,555.606c-47.227,29.272-75.368,46.095-84.425,50.463c-7.925,3.72-15.366,2.427-22.32-3.881
		c-7.117-6.307-8.977-14.152-5.58-23.535c4.527-12.612,22.156-46.17,52.887-100.68C137.688,505.632,157.501,531.508,183.703,555.606
		"/>
	<path fill="#8B92C7" d="M99.52,325.141c-1.454,18.922-1.698,36.632-0.727,53.128c-23.289-4.203-41.484-12.452-54.585-24.743
		c-10.028-9.543-14.797-18.115-14.314-25.717c0-0.969,1.779-3.153,5.338-6.551c3.883-3.558,6.551-5.093,8.005-4.608l17.954,6.065
		L99.52,325.141"/>
	<path fill="#8B92C7" d="M124.266,477.975c-14.556-29.435-23.047-62.669-25.473-99.706c-0.971-16.496-0.727-34.206,0.727-53.128
		h0.972c5.338,28.626,18.922,58.144,40.756,88.544c19.083,26.687,38.25,46.255,57.497,58.712
		c12.452,19.242,20.943,38.574,25.473,57.982c3.881,17.144,5.255,37.196,4.125,60.162c-16.013-10.675-30.891-22.317-44.639-34.936
		C157.501,531.508,137.688,505.632,124.266,477.975"/>
	<path fill="#8B92C7" d="M198.745,472.396l5.58,3.397c8.41,4.689,16.577,7.438,24.501,8.244l8.25,16.499
		c8.896,23.128,13.019,54.666,12.372,94.613l-3.153,62.835c0.325,6.951,9.462,13.425,27.414,19.408
		c17.629,5.984,29.112,6.548,34.45,1.696c15.042-15.366,28.871-28.222,41.486-38.574c23.936-19.892,42.858-29.188,56.77-27.898
		c24.744,2.265,48.112,2.104,70.107-0.483c28.307-3.231,51.436-10.272,69.389-21.104l4.604,28.384
		c-27.009,15.688-72.534,20.942-136.581,15.769c-21.028-1.782-46.662,15.527-76.907,51.918
		c-9.219,11.319-16.335,18.195-21.349,20.621l-24.746,0.971c-11.643-2.104-23.532-5.502-35.661-10.191
		c-10.837-4.364-18.681-8.41-23.533-12.13c-5.013-3.882-8.247-7.844-9.704-11.89c-1.455-4.203-1.698-10.105-0.727-17.707
		c3.88-30.083,6.226-52.158,7.036-66.231c1.13-22.966-0.244-43.02-4.125-60.162C219.688,510.972,211.196,491.64,198.745,472.396"/>
	<path fill="#8B92C7" d="M30.623,230.768c11.483-0.808,26.12,2.751,43.91,10.676c12.777,5.66,23.774,11.725,32.993,18.195
		c-3.72,7.764-6.307,15.525-7.762,23.289c-9.704-6.47-21.673-12.13-35.907-16.982l-25.229-7.278
		c-4.205-1.294-7.036-3.153-8.491-5.58c-1.94-3.234-2.426-8.491-1.457-15.769C29.166,234.084,29.813,231.9,30.623,230.768"/>
	<path fill="#8B92C7" d="M99.52,325.141l-38.33-2.426c16.821-3.719,29.112-9.299,36.876-16.74L99.52,325.141"/>
	<path fill="#8B92C7" d="M107.524,259.638c-7.925-5.66-18.437-11.161-31.538-16.497c-16.982-7.117-32.751-11.241-47.308-12.374
		c3.236-4.205,10.434-10.431,21.593-18.681l23.047-16.982l40.271,54.102l-0.483,0.727L107.524,259.638"/>
	<path fill="#8B92C7" d="M515.094,125.722c34.291,8.411,66.476,19.894,96.559,34.45c23.609,11.322,48.924,27.899,75.932,49.733
		c35.102,28.465,61.621,65.664,79.575,111.597c4.046,10.026,1.781,18.195-6.795,24.502c-7.923,5.984-14.634,7.036-20.135,3.153
		c-21.351-14.878-44.64-26.362-69.868-34.448c-40.596-13.262-83.617-17.468-129.064-12.616
		c-46.903,5.013-92.106,19.245-135.614,42.697c-37.037,19.894-70.354,45.126-99.953,75.688
		c-13.909,14.234-26.442,28.705-37.603,43.428c-11.483,14.879-24.582,21.593-39.302,20.133c-7.925-0.806-16.091-3.555-24.501-8.244
		l-5.58-3.397c-19.247-12.457-38.414-32.025-57.497-58.712c-21.834-30.4-35.418-59.917-40.756-88.544
		c-2.912-14.881-3.397-28.144-1.457-39.788c1.942-12.452,6.631-24.26,14.073-35.419l0.483-0.727l-40.271-54.102l-3.881-5.821
		c-6.631-10.998-4.53-21.187,6.307-30.569c10.998-9.38,21.593-10.107,31.78-2.182l52.159,45.85l17.468-13.099
		c44.315-31.052,85.638-52.159,123.971-63.32c21.509-5.984,43.263-10.187,65.258-12.613l48.036-1.943
		C446.603,112.057,480.158,116.826,515.094,125.722"/>
	<path fill="#ED8599" d="M535.957,537.899c-3.554-15.206-8.084-29.277-13.584-42.214c-1.938-4.369,0.08-10.025,6.064-16.981
		c5.822-6.635,13.831-12.774,24.018-18.438c25.394-13.907,47.715-16.74,66.957-8.491c11.32,4.854,27.014,15.442,47.066,31.78
		c15.85,13.102,28.869,24.904,39.059,35.418c25.069,25.876,42.856,50.222,53.371,73.022c11.32,24.421,13.992,45.771,8.008,64.048
		c-5.984,18.275-20.621,33.803-43.91,46.582c-26.523,14.395-54.344,19.892-83.455,16.494c-32.025-4.042-55.717-18.519-71.084-43.428
		c-7.438-12.13-13.424-30.889-17.953-56.28C543.724,576.389,538.871,549.22,535.957,537.899"/>
	<path fill="#797FAD" d="M617.959,150.709c35.744,5.823,65.018,0,87.818-17.468c-7.117,15.527-12.291,28.063-15.521,37.603
		c-5.174,14.881-7.686,27.577-7.523,38.089c-22.641-18.437-48.113-34.45-76.42-48.035L617.959,150.709"/>
	<path fill="#797FAD" d="M748.721,467.304c0.649,1.128-1.052,7.521-5.094,19.162c-4.046,11.646-6.795,17.551-8.249,17.712
		c-9.87-4.53-21.271-6.227-34.206-5.094c-4.207,2.426-7.363,4.523-9.461,6.307c-12.941-12.291-26.93-23.938-41.973-34.936
		c11.158-10.188,19.572-25.07,25.23-44.641c7.762,8.898,20.783,17.873,39.059,26.934
		C727.451,459.538,739.017,464.39,748.721,467.304"/>
	<path fill="#797FAD" d="M406.412,612.618c-13.912-1.289-32.833,8.008-56.77,27.898c-12.616,10.354-26.445,23.208-41.486,38.574
		c-5.337,4.852-16.821,4.288-34.45-1.696c-17.951-5.983-27.089-12.457-27.414-19.408l3.153-62.835
		c0.647-39.947-3.476-71.485-12.372-94.613c30.083,36.391,78.198,57.334,144.348,62.835c60.973,5.174,112.487-3.316,154.536-25.474
		c3.725,14.229,7.035,31.94,9.949,53.131c-17.953,10.831-41.08,17.872-69.388,21.104
		C454.524,614.722,431.155,614.883,406.412,612.618"/>
	<path fill="#797FAD" d="M102.189,518.25l22.076-40.275c13.424,27.657,33.237,53.533,59.438,77.633l-72.539,43.914
		c4.205-14.233,5.662-28.387,4.369-42.455C113.915,542.35,109.467,529.408,102.189,518.25"/>
	<path fill="#797FAD" d="M99.52,325.141c-1.454,18.922-1.698,36.632-0.727,53.128c-25.878-4.527-45.447-14.231-58.71-29.112
		c23.452-1.455,41-9.299,52.645-23.531L99.52,325.141"/>
	<path fill="#797FAD" d="M125.479,480.646c25.878,16.821,56.931,27.17,93.16,31.052c7.925,22.645,11.158,48.923,9.704,78.845
		c-16.013-10.675-30.891-22.317-44.639-34.936C158.957,532.807,139.548,507.815,125.479,480.646"/>
	<path fill="#797FAD" d="M34.018,230.526c11.322-0.808,25.393,2.749,42.213,10.673c10.836,5.177,21.268,11.322,31.294,18.439
		c-3.72,7.764-6.307,15.525-7.762,23.289c-9.704-6.47-21.673-12.13-35.907-16.982l-25.229-7.278
		c-3.883-1.133-6.39-3.153-7.522-6.065c-1.13-3.072-1.213-8.491-0.242-16.254C31.024,235.215,32.077,233.274,34.018,230.526"/>
	<path fill="#CE7486" d="M661.867,694.619c36.879-0.161,71.246-11.324,103.104-33.48c-6.789,16.176-20.78,30.003-41.966,41.488
		c-26.523,14.395-54.344,19.892-83.455,16.494c-32.026-4.042-55.719-18.519-71.084-43.428c-3.721-5.817-7.037-13.182-9.946-22.074
		C587.312,680.954,621.758,694.619,661.867,694.619"/>
	<path fill="#797FAD" d="M768.371,326.354c1.454,8.732-1.782,15.688-9.705,20.863c-7.438,4.691-13.584,5.337-18.438,1.94
		c-21.35-14.878-44.639-26.362-69.869-34.448c-40.594-13.262-83.617-17.468-129.063-12.616
		c-46.904,5.013-92.107,19.245-135.615,42.697c-37.036,19.894-70.353,45.126-99.952,75.688
		c-13.909,14.234-26.442,28.705-37.603,43.428c-11.483,14.879-24.582,21.593-39.302,20.133c-7.925-0.806-16.091-3.555-24.501-8.244
		l-5.58-3.397c-11.645-7.443-24.019-18.521-37.118-33.238c-14.073-15.846-26.283-32.827-36.634-50.941
		c16.335,16.816,33.479,31.458,51.432,43.91c19.569,13.584,34.611,20.46,45.123,20.621l35.421-39.063
		c15.203-17.462,28.222-30.726,39.058-39.783c70.033-59.033,143.139-94.615,219.311-106.745
		C603.972,252.926,688.313,272.657,768.371,326.354"/>
	<path fill="#0D131A" d="M665.266,312.525l4.123,0.727c3.396,1.133,5.34,2.346,5.822,3.639c10.031,22.32,13.264,49.653,9.705,81.999
		c-3.559,33.8-13.506,58.463-29.838,73.991c-0.811,0.811-2.588,0.402-5.34-1.213c-2.588-1.616-3.641-2.668-3.15-3.151
		c17.145-14.717,27.576-39.707,31.291-74.961C681.441,359.104,677.234,332.094,665.266,312.525"/>
	<path fill="#0D131A" d="M534.99,534.744l2.18,4.368c0.972,3.074,1.053,4.771,0.246,5.095
		c-40.758,21.027-91.137,29.11-151.142,24.26c-64.048-5.336-112.324-24.582-144.834-57.741c-2.102-2.265-4.205-6.468-6.307-12.613
		c-2.104-6.307-2.67-8.897-1.699-7.762c27.172,39.3,74.721,62.428,142.649,69.384C438.515,566.041,491.483,557.711,534.99,534.744"
		/>
	<path fill="#0D131A" d="M773.465,321.501c3.88,10.026,0.402,19.003-10.43,26.928c-10.354,7.441-18.119,9.382-23.293,5.824
		c-29.918-21.188-65.016-35.341-105.285-42.456c-40.598-7.278-82.242-6.631-124.938,1.94
		c-96.88,19.248-175.564,70.921-236.054,155.022c-8.572,11.803-17.224,19.242-25.959,22.317
		c-12.291,4.202-27.171,1.614-44.637-7.763C184.43,473.443,164.94,455.012,144.4,428c-23.127-30.243-38.331-60.082-45.608-89.517
		c-4.205-16.821-5.337-33.156-3.397-49.006c2.104-15.85,7.037-29.598,14.8-41.242l2.667,2.426l3.397,4.125
		c-14.234,23.128-17.873,49.006-10.917,77.632c6.954,28.626,21.673,57.578,44.154,86.848c19.892,26.042,38.733,43.91,56.525,53.614
		c14.395,7.766,26.928,9.87,37.604,6.307c7.6-2.587,14.878-8.405,21.834-17.466C331.123,375.359,412.639,322.714,510,303.792
		c43.024-8.41,84.912-8.815,125.67-1.213c40.271,7.6,75.771,22.237,106.498,43.91c4.369,3.073,9.789,1.94,16.257-3.397
		c6.79-5.66,8.652-12.453,5.577-20.377c-24.743-63.562-73.184-114.588-145.313-153.083
		c-64.048-33.964-132.218-51.835-204.515-53.614c-49.491-1.132-98.416,8.086-146.773,27.658
		c-38.008,15.364-73.186,35.905-105.532,61.619c-1.94-1.94-3.153-4.286-3.639-7.034c32.832-26.85,69.869-48.359,111.111-64.533
		c48.845-19.245,97.445-28.305,145.805-27.172c75.366,1.942,145.396,20.46,210.092,55.557
		C698.018,201.736,747.428,254.867,773.465,321.501"/>
	<path fill="#0D131A" d="M100.004,317.377l2.185,16.496c-3.236,55.151,5.094,102.783,24.987,142.889
		c19.894,39.953,53.292,76.344,100.194,109.17l1.213,6.065c0,3.563-0.405,5.099-1.213,4.609
		c-54.99-35.901-92.594-76.901-112.81-122.997c-19.732-44.962-25.473-100.596-17.224-166.908L100.004,317.377"/>
	<path fill="#0D131A" d="M571.623,455.657c-15.688,5.174-28.389,12.697-38.092,22.563c-7.117,7.117-9.779,12.533-8.004,16.253
		c6.307,14.556,11.566,31.377,15.77,50.463c2.588,11.48,5.502,27.898,8.732,49.245c3.07,20.862,5.658,35.74,7.762,44.639
		c3.397,14.558,7.848,26.203,13.344,34.937c14.718,24.095,37.441,38.168,68.174,42.214c28.303,3.554,55.639-1.862,81.996-16.257
		c22.483-12.291,36.632-27.17,42.455-44.64c5.663-17.467,2.99-38.007-8.002-61.617c-13.429-28.95-36.797-58.712-70.113-89.278
		c-27.816-25.554-50.383-41.973-67.686-49.25C605.022,449.431,589.576,449.673,571.623,455.657 M528.68,473.609
		c10.841-10.836,24.261-19.247,40.275-25.23c19.246-7.117,36.229-7.601,50.945-1.455c17.789,7.601,41.242,24.744,70.354,51.43
		c34.771,31.865,59.03,62.595,72.78,92.188c11.643,25.07,14.147,47.796,7.52,68.171c-6.629,20.218-22,36.878-46.094,49.979
		c-27.978,15.201-57.011,20.943-87.095,17.226c-32.832-4.203-57.092-19.086-72.779-44.641c-5.658-9.382-10.35-21.593-14.073-36.632
		c-2.265-9.055-5.013-24.18-8.244-45.369l-8.008-50.699c-3.882-20.381-8.898-37.527-15.04-51.436
		C516.474,490.512,519.625,482.665,528.68,473.609"/>
	<path fill="#0D131A" d="M568.955,452.748c-0.811-0.488,0.241-1.213,3.15-2.186l5.823-0.729
		c18.114,10.514,36.632,26.523,55.558,48.037c19.24,21.834,32.91,42.535,41,62.104c2.908,6.956,3.961,11.724,3.15,14.314
		c-0.811,2.748-2.588,0.563-5.336-6.555c-8.57-20.374-23.535-42.455-44.881-66.227C605.908,477.572,586.42,461.313,568.955,452.748"
		/>
	<path fill="#0D131A" d="M195.104,476.52c-0.971-1.454,0.403-1.938,4.125-1.454c3.88,0.646,6.468,2.104,7.761,4.368
		c15.042,25.549,23.372,52.965,24.99,82.238c0.969,18.764-1.457,50.624-7.278,95.586c-0.971,6.955-0.81,12.211,0.483,15.769
		c1.133,3.56,3.964,7.117,8.491,10.677c4.53,3.396,12.05,7.196,22.564,11.399c12.13,4.854,23.936,8.33,35.418,10.435l22.562-0.729
		c4.53-2.266,11.322-8.813,20.379-19.649c31.053-37.521,57.578-55.311,79.572-53.372c63.238,5.341,108.199,0.241,134.887-15.28
		c0.488-0.488,1.052,0.891,1.701,4.122c0.805,3.07,0.805,4.771,0,5.094c-26.203,14.722-71.567,19.327-136.104,13.831
		c-10.026-0.811-21.266,2.828-33.72,10.917c-13.099,8.566-26.847,21.512-41.242,38.816c-9.865,11.808-17.629,19.247-23.289,22.316
		c-6.47,3.396-15.447,4.046-26.93,1.942c-11.806-2.104-23.936-5.501-36.39-10.192c-11.806-4.363-20.216-8.49-25.229-12.371
		c-5.338-4.208-8.977-8.975-10.917-14.313c-1.779-5.336-2.184-12.131-1.213-20.38c6.307-48.844,8.977-81.188,8.005-97.04
		C222.113,531.432,212.572,503.854,195.104,476.52"/>
	<path fill="#0D131A" d="M680.305,400.589c-0.805-1.294-0.805-4.286,0-8.977c0.813-4.852,1.375-6.629,1.701-5.335
		c3.719,11.159,12.291,22.073,25.715,32.749c13.424,10.677,30.486,20.134,51.188,28.384c7.766,3.073,12.372,5.34,13.831,6.794
		c1.938,2.1,2.502,6.064,1.695,11.889c-1.78,12.452-6.473,25.795-14.071,40.029c-8.084,15.199-14.798,21.995-20.134,20.374
		l-15.527-5.094l-16.01-0.482l-3.641-2.186l-1.455-2.668c8.568-3.558,21.104-2.426,37.604,3.397
		c4.364-1.62,9.382-9.789,15.039-24.506c4.853-12.614,7.923-23.048,9.221-31.292c0.483-2.914,0.242-4.938-0.729-6.065l-6.549-3.155
		c-16.177-6.473-31.055-14.233-44.64-23.288C698.178,420.963,687.1,410.774,680.305,400.589"/>
	<path fill="#0D131A" d="M224.217,486.712c-0.486-0.649,0.728-1.213,3.639-1.701c2.748-0.322,4.447,0.081,5.093,1.213
		c11.969,23.289,18.52,54.184,19.652,92.677l-3.156,78.847c0,1.775,1.618,3.881,4.852,6.307l14.556,8.003
		c12.94,5.174,23.047,7.202,30.325,6.064c4.852-0.645,9.138-3.07,12.86-7.278c17.79-17.465,32.426-30.646,43.91-39.541
		c21.026-15.85,37.928-23.213,50.705-22.075c23.289,2.104,45.445,2.104,66.474,0c29.597-3.075,53.615-10.271,72.052-21.593
		c0.483-0.326,1.052,0.887,1.696,3.639c0.648,2.749,0.648,4.364,0,4.854c-20.054,11.804-44.475,18.845-73.265,21.104
		c-17.952,1.455-40.513,0.972-67.687-1.455c-11.32-0.971-27.17,6.55-47.549,22.564c-10.351,8.244-24.18,20.862-41.484,37.845
		c-9.867,11.643-27.091,12.452-51.676,2.426c-16.011-6.468-23.855-13.182-23.53-20.138l2.667-87.82
		C243.06,534.744,236.348,506.765,224.217,486.712"/>
	<path fill="#0D131A" d="M674.729,430.426c-0.648-0.649-0.729-2.829-0.24-6.549c0.645-3.881,1.213-5.416,1.693-4.61
		c5.016,7.923,15.771,16.741,32.27,26.444c13.746,8.25,26.198,14.313,37.355,18.195l5.1,2.668c0.806,1.133,0.967,2.993,0.482,5.582
		l-5.336,18.193l-4.127,11.4c-1.615,3.396-3.396,5.26-5.335,5.582l-7.767-1.701c-12.291-3.881-20.861-5.738-25.715-5.577
		l-4.852,3.64l-3.396,3.394c-0.322,0.322-1.289-0.242-2.91-1.696c-1.455-1.455-1.941-2.507-1.455-3.156l6.064-4.362l4.365-2.186
		c8.736-0.972,17.953-0.081,27.656,2.667l5.34,0.488l2.909-3.885l7.278-20.863v-3.639l-3.64-2.426
		C710.227,456.709,688.313,444.172,674.729,430.426"/>
	<path fill="#0D131A" d="M645.615,117.231l35.178-37.118c10.189-8.896,20.701-9.462,31.539-1.699
		c10.996,7.925,13.744,18.034,8.248,30.325c-10.676,23.452-17.551,39.221-20.621,47.307c-8.248,22.156-12.215,40.271-11.889,54.344
		l-4.127-0.244l-4.363-3.153c-0.166-13.263,4.686-32.185,14.557-56.77l20.379-44.881c4.041-8.732,1.695-15.93-7.037-21.59
		c-8.73-5.499-16.172-5.096-22.32,1.213l-33.965,36.876c-18.76,20.055-32.263,33.64-40.513,40.756
		c-0.646,0.647-2.587-0.163-5.823-2.426c-3.074-2.426-4.203-3.803-3.396-4.125C609.709,152.003,624.432,139.065,645.615,117.231"/>
	<path fill="#0D131A" d="M254.298,78.173c5.338,1.133,13.99,8.247,25.959,21.349c9.057,9.865,16.74,19.328,23.047,28.385
		l-2.426,2.182c-2.102,0.646-3.478,0.646-4.125,0c-5.499-7.764-13.019-16.497-22.562-26.201
		c-10.836-11.159-18.275-17.143-22.319-17.953c-10.512-2.102-31.294,3.236-62.347,16.013
		c-32.349,13.099-52.403,25.393-60.167,36.876c-2.426,3.72-4.447,13.826-6.065,30.325c-4.527-3.236-6.711-5.418-6.548-6.551
		l1.213-16.255c0.483-6.146,1.535-10.431,3.153-12.857c8.247-12.293,29.598-25.312,64.045-39.06
		C218.639,81.002,241.686,75.583,254.298,78.173"/>
	<path fill="#0D131A" d="M320.53,86.42c17.304-1.94,28.546-1.374,33.72,1.699c7.925,4.691,13.424,13.666,16.497,26.928l-3.881,1.457
		c-2.75,0.647-4.205,0.647-4.366,0l-4.367-11.403c-1.942-3.397-4.61-6.146-8.007-8.249c-4.042-2.426-13.585-3.234-28.626-2.426
		c-15.525,0.971-30.406,3.397-44.637,7.278l-3.397-2.426c-1.779-1.94-2.265-2.99-1.455-3.153
		C288.183,91.436,304.355,88.199,320.53,86.42"/>
	<path fill="#0D131A" d="M132.515,177.64c-1.132-0.164-2.832-1.538-5.096-4.125c-2.102-2.75-2.668-4.044-1.699-3.883
		c8.411,0.485,17.629,2.265,27.658,5.338c10.675,3.233,19.894,7.278,27.657,12.13c-4.205,2.912-6.875,4.044-8.008,3.397
		C160.575,184.027,147.07,179.741,132.515,177.64"/>
	<path fill="#0D131A" d="M74.291,194.377l0.969,3.397l-22.076,16.011l-16.741,14.07c-2.587,2.912-3.559,10.271-2.912,22.078
		c0.164,2.587,2.104,4.367,5.824,5.338l26.444,8.247c13.584,4.53,24.743,9.624,33.479,15.283c0.808,0.325,1.132,1.862,0.969,4.61
		c-0.161,2.587-0.646,3.559-1.455,2.912c-7.603-6.631-19.167-12.455-34.691-17.468l-26.686-7.036l-7.037-2.182
		c-1.94-0.971-3.395-2.912-4.366-5.823c-0.808-2.749-1.132-7.764-0.971-15.042c0-8.247,0.891-13.262,2.67-15.04
		c4.691-5.015,12.533-11.08,23.533-18.195l20.377-13.101C72.268,191.952,73.158,192.598,74.291,194.377"/>
	<path fill="#0D131A" d="M107.769,254.542c0.808,0.649,1.052,2.346,0.728,5.096c-0.325,2.912-0.889,4.125-1.699,3.639
		c-8.894-6.631-20.702-12.777-35.419-18.439c-16.013-6.307-30.083-9.865-42.213-10.673c-0.969,0-0.888-0.971,0.244-2.912
		c0.969-1.94,2.021-2.831,3.153-2.667c13.262,0.969,28.221,4.688,44.881,11.158C90.542,244.919,100.651,249.854,107.769,254.542"/>
	<path fill="#0D131A" d="M100.977,321.743c0.969-0.161,1.616,0.891,1.94,3.153c0.161,2.104-0.244,3.236-1.213,3.397
		c-9.218,1.132-19.086,1.132-29.598,0c-10.836-1.294-19.083-3.478-24.746-6.551c-2.101-1.293-3.639-1.779-4.608-1.455l-3.397,1.94
		l-6.065,6.307c0,6.631,4.61,14.234,13.829,22.805c12.291,11.483,29.192,19.328,50.702,23.533c0.81,0.161,1.213,1.779,1.213,4.852
		c0.164,3.073-0.161,4.527-0.969,4.366c-24.746-4.529-43.749-13.909-57.012-28.141c-9.704-10.189-14.395-19.327-14.07-27.416
		c0.161-1.616,1.535-4.123,4.123-7.52l5.582-5.823c2.102-1.455,4.286-1.94,6.548-1.455l6.551,2.912
		C63.856,322.31,80.921,324.008,100.977,321.743"/>
	<path fill="#0D131A" d="M32.318,334.845l-1.94-4.125c-0.647-2.265-0.566-3.153,0.244-2.667c6.146,3.396,15.769,6.792,28.868,10.188
		c14.717,4.044,27.172,5.985,37.361,5.824c0.486,0,0.647,1.293,0.486,3.88c0,2.59-0.325,3.883-0.972,3.883
		c-9.704,0-21.429-2.021-35.177-6.065C50.353,342.528,40.729,338.889,32.318,334.845"/>
	<path fill="#0D131A" d="M97.82,300.395c0.485-0.808,0.891,0.486,1.213,3.881c0.325,3.397,0.083,5.418-0.728,6.065
		c-7.439,6.146-17.304,10.836-29.598,14.073l-6.792-1.699l-3.395-2.67c8.086-1.455,15.525-3.72,22.317-6.792
		C89.574,309.532,95.233,305.247,97.82,300.395"/>
	<path fill="#0D131A" d="M184.43,341.878c-4.691-0.483-7.358-1.374-8.005-2.667c-0.808-1.293,1.052-1.94,5.579-1.94
		c11.161-0.164,20.38-1.779,27.658-4.852c8.086-3.397,16.091-9.299,24.016-17.709c5.177-5.662,8.088-7.117,8.735-4.369
		c0.646,2.75-1.618,6.956-6.792,12.616C221.872,337.676,204.81,343.982,184.43,341.878"/>
	<path fill="#0D131A" d="M193.165,447.408c-9.057-5.015-16.821-10.27-23.291-15.771c-5.337-4.525-7.764-7.357-7.278-8.491
		c0.647-1.294,3.8,0,9.462,3.881c7.278,5.014,15.525,9.543,24.746,13.59c10.188,4.529,17.143,6.388,20.863,5.576
		c3.72-0.81,9.057-4.523,16.011-11.157l19.894-21.104c26.848-29.759,47.146-49.167,60.895-58.225
		c7.76-5.174,11.885-7.278,12.37-6.307c0.486,1.133-2.587,4.447-9.218,9.946c-12.777,10.512-32.51,30.489-59.195,59.919
		l-25.474,28.143c-5.337,5.822-9.218,8.816-11.644,8.979C214.514,457.031,205.131,454.037,193.165,447.408"/>
	<path fill="#0D131A" d="M284.868,229.069c44.315,18.6,77.471,40.515,99.466,65.747c3.234,3.881,5.094,7.439,5.58,10.673
		c0.324,3.236-1.213,2.912-4.61-0.969c-22.157-24.908-54.422-46.581-96.797-65.017c-41.403-17.792-80.949-27.577-118.633-29.356
		l-6.307-4.608c-3.073-3.075-4.125-4.61-3.153-4.61C199.066,201.089,240.552,210.471,284.868,229.069"/>
	<path fill="#0D131A" d="M456.388,161.626c47.388,22.32,83.776,50.299,109.17,83.941c3.72,4.852,5.255,8.411,4.61,10.673
		c-0.487,2.104-2.588,0.728-6.313-4.125c-24.421-32.021-62.754-59.921-114.988-83.697c-56.286-25.553-110.789-37.278-163.514-35.176
		c-0.971,0,1.455-1.132,7.278-3.395c5.982-2.265,9.865-3.397,11.645-3.397C356.029,126.613,406.734,138.338,456.388,161.626"/>
	<path fill="#0D131A" d="M618.931,168.904c-5.019-2.748-1.616-1.699,10.188,3.153c9.869,3.883,17.631,8.33,23.287,13.343
		c14.879,12.94,28.146,28.063,39.789,45.367c10.514,15.527,17.711,29.679,21.592,42.455c2.588,8.411,3.23,14.151,1.941,17.227
		c-1.299,2.909-3.154,0.322-5.582-7.764c-5.822-20.38-16.98-41.001-33.479-61.863C659.684,199.31,640.438,182.006,618.931,168.904"
		/>
	<path fill="#0D131A" d="M709.904,306.945c1.455-3.234,2.748-4.933,3.881-5.096c1.133,0,1.213,1.698,0.242,5.096
		c-1.615,6.146-4.203,12.535-7.762,19.164c-0.971,1.618-2.592,2.265-4.852,1.943c-2.428-0.325-2.914-1.538-1.455-3.639
		C703.514,319.883,706.83,314.06,709.904,306.945"/>
	<path fill="#0D131A" d="M449.592,373.175c10.998,15.203,16.822,32.427,17.471,51.674c0.967,25.388-6.473,46.899-22.32,64.531
		c-15.367,17.143-34.207,25.795-56.527,25.956c-23.289,0.166-43.507-8.249-60.65-25.231c-17.629-17.304-26.767-38.247-27.414-62.83
		l10.675-9.462c-1.779,5.501-1.779,12.854,0,22.075c1.94,10.51,5.821,20.46,11.645,29.842
		c15.203,24.905,37.118,37.357,65.744,37.357c19.893,0,37.037-7.842,51.432-23.53c14.556-16.012,21.513-35.5,20.862-58.467
		c-0.649-17.631-6.469-33.881-17.467-48.762c-11.158-14.717-24.662-24.421-40.512-29.112l-34.452,22.562l38.816-27.414
		C424.039,347.38,438.271,357.647,449.592,373.175"/>
	<path fill="#0D131A" d="M622.812,304.275h2.907l31.539,5.338c6.313,9.867,10.842,21.187,13.59,33.964
		c4.041,19.733,4.363,38.494,0.967,56.284c-3.555,19.083-10.51,30.081-20.861,32.99c-12.779,3.56-24.664-2.185-35.662-17.224
		c-10.029-13.907-16.9-31.858-20.621-53.855c-4.041-24.26-3.965-43.83,0.242-58.71l15.039,0.244l1.213,0.241l-9.945,1.457
		c-3.881,14.07-3.881,32.588,0,55.555c2.427,14.07,6.393,26.525,11.889,37.361c5.497,10.671,11.723,18.274,18.68,22.801
		c5.662,3.72,11.404,4.69,17.229,2.914c7.602-2.104,13.021-11.239,16.252-27.414c3.07-16.174,2.748-33.317-0.971-51.432
		c-2.588-11.805-6.877-22.4-12.855-31.779c-2.104-1.779-7.277-3.72-15.527-5.824l-10.916-2.667L622.812,304.275"/>
	<path fill="#0D131A" d="M390.641,425.814c0-1.289,0.486-2.502,1.457-3.64c0.969-0.966,2.102-1.454,3.395-1.454
		s2.507,0.488,3.639,1.454l1.457,3.64l-1.457,3.397c-1.132,0.971-2.346,1.454-3.639,1.454s-2.426-0.483-3.395-1.454
		C391.126,428.241,390.641,427.112,390.641,425.814"/>
	<path fill="#0D131A" d="M632.756,356.92c0-2.912,1.379-4.367,4.127-4.367l2.91,1.213l1.213,3.153l-1.213,2.912l-2.91,1.213
		C634.135,361.045,632.756,359.671,632.756,356.92"/>
	<path fill="#0D131A" d="M118.441,473.853c1.132-1.942,2.912-1.536,5.337,1.213c2.265,2.909,2.67,5.742,1.213,8.491
		c-30.245,54.826-47.063,86.929-50.461,96.312c-2.426,6.473-1.052,12.778,4.125,18.925c5.499,6.146,11.886,7.52,19.164,4.122
		c9.867-4.691,36.956-20.863,81.271-48.521c1.618-1.128,3.478-0.401,5.582,2.186c1.94,2.592,2.182,4.369,0.727,5.34l-43.426,25.474
		c-21.188,11.809-34.853,19.001-40.999,21.587c-10.351,4.369-19.408,2.673-27.171-5.093c-7.764-7.601-9.624-16.333-5.58-26.198
		l23.289-49.979L118.441,473.853"/>
	<path fill="#0D131A" d="M249.205,252.602c5.66,0.325,8.652,1.377,8.977,3.153c0.486,1.779-2.104,3.075-7.764,3.883
		c-18.761,2.426-60.245-25.068-124.454-82.484L105.342,159.2c-8.411-6.631-17.387-5.821-26.93,2.426
		c-9.379,8.411-11.4,16.982-6.065,25.717c2.589,4.688,10.756,15.93,24.504,33.72l46.822,64.048
		c12.937,19.084,19.327,32.185,19.166,39.302c-0.163,6.792-1.376,10.593-3.639,11.4c-2.265,0.649-3.883-2.346-4.852-8.974
		c-1.296-9.221-9.301-24.746-24.019-46.58L90.3,225.188l-24.987-34.206c-7.439-11.969-5.176-23.696,6.792-35.177
		c12.13-11.483,24.099-12.696,35.904-3.639l21.107,18.437c22.159,20.055,42.536,36.957,61.136,50.705
		C217.909,241.685,237.561,252.116,249.205,252.602"/>
	<path fill="#0D131A" d="M568.709,270.797c0.487-3.559,1.297-5.338,2.426-5.338c1.299,0,1.861,2.831,1.701,8.491
		c-0.328,11.483-1.379,20.138-3.155,25.959l-3.397,1.213c-2.104-0.161-3.07-0.647-2.908-1.455L568.709,270.797"/>
	<path fill="#0D131A" d="M392.582,325.141c-0.322-4.366,0.244-6.956,1.699-7.764c1.618-0.647,2.67,1.779,3.153,7.278l0.729,21.107
		c-0.163,3.72-1.296,5.901-3.397,6.551c-2.265,0.646-3.314-0.891-3.153-4.61L392.582,325.141"/>
</g>
</svg>
