<?xml version="1.0" encoding="utf-8"?>
<!-- Generator: Adobe Illustrator 16.0.0, SVG Export Plug-In . SVG Version: 6.00 Build 0)  -->
<!DOCTYPE svg PUBLIC "-//W3C//DTD SVG 1.1//EN" "http://www.w3.org/Graphics/SVG/1.1/DTD/svg11.dtd">
<svg version="1.1" id="Layer_1" xmlns="http://www.w3.org/2000/svg" xmlns:xlink="http://www.w3.org/1999/xlink" x="0px" y="0px"
	 width="800px" height="800px" viewBox="0 0 800 800" enable-background="new 0 0 800 800" xml:space="preserve">
<g>
	<path fill="#664497" d="M659.465,299.182c7.077,1.957,27.938,3.308,62.578,4.057l49.371,2.157
		c0.575,0.979-13.868,14.386-43.33,40.224c-34.468,30.267-54.751,48.422-60.853,54.464l41.173,7.25
		c21.58,3.51,32.454,5.869,32.628,7.077c0.229,1.381-8.488,7.999-26.153,19.854c-17.206,11.564-30.526,19.882-39.963,24.943
		l0.862,3.625l-56.363,145.871l5.438,12.258c3.741,8.057,7.424,14.788,11.049,20.196c1.266,1.899,1.897,3.51,1.897,4.835
		c-0.058,1.554-1.18,1.813-3.364,0.775l-18.214-8.632l-11.134-5.696l13.292,19.594c7.999,11.625,15.277,21.866,21.838,30.728
		c5.581,7.54,7.969,11.796,7.164,12.774c-0.864,1.036-5.554-1.294-14.069-6.989c-33.547-22.559-53.772-35.333-60.679-38.325
		l5.783,14.069c2.013,5.121,3.566,8.517,4.66,10.186c-2.016-1.958-7.048-5.494-15.104-10.617
		c-9.379-5.869-18.067-10.702-26.065-14.499l-46.438-22.013c-20.429-9.896-38.354-19.275-53.773-28.138
		c-43.733-25.032-76.477-50.782-98.228-77.25c-23.536-20.947-55.961-47.129-97.276-78.547
		c-32.627-24.858-48.796-37.834-48.509-38.928c0.402-1.439,8.401-3.28,23.996-5.524c17.435-2.475,28.283-4.747,32.54-6.819
		c-56.622-79.294-84.215-120.292-82.776-122.997c0.863-1.554,14.098,0.834,39.705,7.164c28.945,7.078,46.466,10.732,52.565,10.962
		c-12.314-42.237-22.355-77.079-30.124-104.527c-14.558-51.846-20.888-78.431-18.99-79.755c2.36-1.553,22.528,9.782,60.507,34.008
		c35.619,22.671,68.39,44.739,98.312,66.203l-0.345,0.345c23.881-12.199,52.51-18.529,85.885-18.988
		c38.782-0.576,73.137,7.74,103.058,24.944c34.987-10.358,75.325-21.607,121.016-33.749c52.767-14.04,79.753-20.284,80.961-18.729
		c1.268,1.669-15.767,25.865-51.099,72.59L659.465,299.182"/>
	<path fill="#593984" d="M605.69,592.391c5.522,5.697,10.099,11.137,13.725,16.313l5.783,13.034
		c3.971,8.516,7.883,15.535,11.737,21.061c0.921,1.322,1.095,2.272,0.52,2.848c-0.633,0.636-2.016,0.49-4.145-0.432l-21.924-9.926
		c-1.957-0.862-3.252-0.979-3.885-0.344c-0.633,0.572-0.403,1.64,0.69,3.191c11.278,16.399,23.479,33.318,36.599,50.753
		c2.359,3.225,3.192,5.38,2.503,6.475c-0.807,1.15-3.108,0.461-6.905-2.072l-33.317-22.354
		c-14.04-9.381-24.195-15.822-30.469-19.334l-2.677-0.174c-0.747,0.461-0.891,1.123-0.432,1.986l6.991,13.119
		c2.243,4.259,3.107,6.503,2.59,6.731c-0.979,0.346-4.979-2.015-11.998-7.077c-9.265-6.676-17.406-11.681-24.427-15.019
		c-38.439-16.688-69.455-31.188-93.048-43.504c-43.156-22.556-74.834-45.372-95.033-68.445c36.885,23.189,74,37.431,111.347,42.726
		c36.079,5.063,70.863,1.64,104.354-10.271C584.056,574.094,594.528,580.999,605.69,592.391"/>
	<path fill="#664497" d="M262.677,489.332c3.913,0,8.487,4.861,13.724,14.588c5.697,10.588,8.027,20.801,6.991,30.641
		c-0.23,2.477-3.653,6.616-10.271,12.429c-6.848,6.043-12.084,9.065-15.709,9.065c-7.883,0-17.177-1.813-27.879-5.438
		l-30.642-11.652c-4.2-1.555-9.148-2.042-14.846-1.468l-15.709,2.332c-4.489,4.256-9.667,7.449-15.537,9.58
		c-5.352,1.898-9.61,2.388-12.774,1.466c5.582-19.794,9.609-32.396,12.083-37.806c1.554-3.396,7.366-8.056,17.436-13.981
		l24.082-13.465c0.978-0.577,6.589,0.401,16.831,2.936c11.509,2.818,20.745,3.824,27.707,3.021L262.677,489.332"/>
	<path fill="#FFFFFF" d="M540.608,276.999c1.958,12.602,2.879,25.693,2.765,39.273c-0.116,13.407-1.21,24.657-3.28,33.75
		c-1.843,8.401-4.346,14.472-7.51,18.212c-3.625,4.257-9.582,7.538-17.867,9.84c-13.753,3.855-29.923,6.33-48.509,7.422
		c-16.86,0.979-29.376,0.634-37.547-1.035c0.807-9.897,13.78-26.873,38.927-50.926C492.563,309.597,516.902,290.752,540.608,276.999
		"/>
	<path fill="#FFFFFF" d="M304.712,278.812c6.962,5.236,18.759,22.585,35.389,52.047c15.651,27.794,23.822,44.28,24.513,49.459
		c-11.221,0.403-22.585-1.497-34.094-5.697c-12.89-4.604-20.917-10.56-24.082-17.867c-3.625-8.229-5.611-20.773-5.956-37.633
		C300.137,302.375,301.547,288.939,304.712,278.812"/>
	<path fill="#ED8599" d="M332.246,418.122c19.334,4.258,29.548,6.33,30.642,6.216c1.438,5.178,4.373,11.221,8.804,18.125
		c3.971,6.272,6.358,9.352,7.164,9.235c0.518-0.057,1.813-3.712,3.884-10.962l3.54-12.515l30.901,0.345l8.115,15.623
		c4.198,8.343,6.674,12.515,7.422,12.515c0.979,0,2.905-3.769,5.783-11.307c2.935-7.653,4.604-13.551,5.007-17.695l22.96-3.021
		l27.619-4.229c7.424,14.271,11.537,21.463,12.344,21.579c0.688,0.058,2.329-2.937,4.92-8.979
		c2.705-6.503,4.486-12.228,5.352-17.177l18.902-5.955c13.351-4.488,21.925-7.854,25.722-10.098
		c-20.023,42.235-49.313,69.596-87.868,82.083l-0.084,0.26l-15.451-14.069l-8.545,19.336l-16.057-20.198l-12.256,21.578
		l-15.537-23.564l-10.79,20.2l-14.5-22.961l-3.194,6.905c-2.129,4.891-3.366,8.025-3.711,9.407l-13.207-19.594l-2.157,4.489
		l-2.417,5.608l-2.59,2.417c-11.912-7.364-22.787-17.521-32.627-30.469c-7.308-9.609-15.047-22.297-23.218-38.064
		c2.589,1.669,8.573,4.575,17.953,8.718c0.863,3.567,3.223,8.113,7.078,13.639c3.51,5.005,5.553,7.452,6.128,7.337
		c0.345-0.058,0.92-1.985,1.726-5.783L332.246,418.122"/>
	<path fill="#664497" d="M137.261,487.521c0.461-0.979,0.662-2.734,0.604-5.267c-0.057-2.418-0.288-3.854-0.69-4.313
		c-0.691-0.808-3.683,1.608-8.977,7.249l-9.15,10.099c2.82-0.229,6.474-1.323,10.962-3.281
		C134.384,490.109,136.802,488.613,137.261,487.521 M97.988,434.523c13.58-12.432,21.752-18.646,24.513-18.646
		c2.763,0,11.739,2.044,26.93,6.129c15.421,4.086,23.478,6.675,24.168,7.769c2.014,2.935,10.07,12.457,24.167,28.568
		c16.285,18.703,27.275,30.271,32.972,34.699l4.661,59.126c-4.488,0.173-11.048,3.797-19.68,10.875
		c-9.207,7.598-15.45,11.77-18.73,12.516l-12.429-0.861c-6.099-1.496-10.013-2.217-11.739-2.158
		c-1.496,0.059-5.496,1.295-11.998,3.711c-6.158,2.359-11.912,3.424-17.263,3.193c-5.582-0.23-11.825-2.243-18.73-6.043
		l-18.04-11.651c-7.366-5.121-13.264-8.574-17.694-10.356c-6.445-2.705-12.372-3.367-17.781-1.984l-0.086,15.709
		c0.806,13.004,3.424,25.751,7.854,38.236c-14.789-8.229-27.218-19.969-37.288-35.217c-7.653-11.566-11.911-20.975-12.774-28.226
		c-0.459-3.97,2.935-11.536,10.185-22.7c5.524-8.458,9.552-14.04,12.084-16.743c0.633-0.691,3.424-1.15,8.373-1.382l17.522-0.347
		l1.294,0.347c-4.373-16.572-5.294-29.723-2.763-39.445C76.813,455.495,84.236,447.124,97.988,434.523"/>
	<path fill="#DBDCDC" d="M434.097,385.237l-5.177-0.776c1.036-9.897,14.529-27.218,40.479-51.962
		c25.491-24.283,49.229-42.783,71.21-55.5l1.555,12.516c-18.529,9.955-37.776,23.247-57.745,39.877
		C460.25,349.532,443.476,368.147,434.097,385.237"/>
	<path fill="#DBDCDC" d="M304.712,278.812c6.962,5.236,18.759,22.585,35.389,52.047c15.651,27.794,23.822,44.28,24.513,49.459
		h-4.834c-4.546-11.106-12.976-25.233-25.29-42.381c-11.854-16.572-23.046-30.095-33.576-40.567l1.726-9.754L304.712,278.812"/>
	<path fill="#664497" d="M727.394,583.501c6.043,5.983,13.293,11.882,21.752,17.692c1.267,4.548,2.188,13.236,2.764,26.069
		c0.575,13.638,0.172,22.527-1.208,26.669c-1.497,4.433-7.452,9.295-17.868,14.587c-11.623,5.871-24.168,9.582-37.633,11.137
		l-6.991,0.172c-0.807-0.575,0.086-2.358,2.675-5.352c4.374-5.006,7.913-11.307,10.616-18.902
		c2.993-8.458,4.059-16.399,3.194-23.823c-9.841-11.277-21.866-15.219-36.079-11.824c-11.048,2.646-21.78,2.734-32.195,0.259
		c-10.416-2.417-15.767-6.329-16.056-11.737l-19.594-1.555c-8.919-2.014-15.448-6.156-19.593-12.43
		c-2.705,1.956-6.731,3.77-12.084,5.438c-4.776,1.556-7.538,2.764-8.287,3.627c-5.868,6.73-9.982,12.63-12.343,17.693
		c-3.913,8.346-5.638,18.098-5.179,29.261c0.229,4.372-0.344,6.444-1.728,6.215c-1.266-0.172-3.105-2.302-5.521-6.389
		c-7.655-12.831-14.53-27.704-20.63-44.624c-6.561-18.355-8.978-30.699-7.252-37.028c1.438-5.236,6.904-11.882,16.4-19.938
		l19.938-16.398c2.302-2.303,5.983-3.254,11.049-2.85l11.222,1.381c3.911,0,14.587-3.713,32.021-11.135
		c18.99-8.112,30.813-14.788,35.476-20.024c2.705-3.106,6.677-9.438,11.912-18.989c5.063-9.265,8.257-14.559,9.579-15.883
		c2.302-2.3,9.294-3.683,20.977-4.142c11.91-0.521,19.995,0.372,24.255,2.675c2.646,1.438,6.041,4.776,10.185,10.013
		c4.66,5.813,8.688,12.17,12.084,19.075c9.265,18.472,10.99,33.75,5.179,45.832l-8.546,12.861c-4.198,5.813-6.271,8.805-6.215,8.979
		C713.612,566.555,718.187,574.352,727.394,583.501"/>
	<path fill="#593984" d="M617.085,608.876c-4.432,0.979-10.271,0.289-17.523-2.069c-8.688-2.82-14.354-7.021-17.003-12.602
		c4.833-2.59,7.366-9.148,7.597-19.68c11.278,0.861,23.765-4.058,37.461-14.762c13.692-10.761,23.765-23.507,30.209-38.236
		c6.849,8.344,10.934,18.902,12.257,31.678c1.208,11.796-0.029,24.628-3.711,38.496c2.703-0.287,6.53,1.236,11.479,4.574
		c4.891,3.279,9.812,7.652,14.76,13.121c12.142,13.404,18.902,26.296,20.282,38.667c0.52,4.774,4.261,8.112,11.224,10.014
		c7.249,2.013,15.65,1.813,25.202-0.604c-12.143,10.302-25.376,17.062-39.705,20.284l-14.759,2.156l-9.668,1.296
		c8.401-8.862,14.501-19.852,18.3-32.974c1.266-4.314,2.129-8.371,2.588-12.17c0.404-3.279,0.433-4.804,0.088-4.573
		c-4.201-5.468-9.754-9.121-16.658-10.962l-15.451-0.692c-10.357,1.557-19.104,2.16-26.238,1.813
		C634.577,621.077,624.334,616.816,617.085,608.876"/>
	<path fill="#593984" d="M668.011,536.979l3.192,7.078c2.819,5.352,6.157,9.579,10.012,12.687
		c12.259,9.957,27.019,6.848,44.28-9.321c-6.272,7.482-13.465,15.02-21.578,22.616c-16.17,15.19-28.887,23.132-38.151,23.819
		c1.784-4.891,3.193-10.902,4.229-18.039C672.124,561.434,671.463,548.486,668.011,536.979"/>
	<path fill="#593984" d="M541.732,607.842c7.25,0.059,13.752-1.697,19.506-5.265c-6.329,4.257-11.309,14.214-14.934,29.863
		c-3.164,13.522-4.229,23.335-3.191,29.434c-6.905-6.271-14.474-19.651-22.7-40.136c-7.194-17.896-11.798-32.512-13.812-43.848
		C514.888,597.686,526.6,607.668,541.732,607.842"/>
	<path fill="#593984" d="M166.609,539.911l-8.114,7.598c-6.56,4.66-12.66,5.955-18.299,3.884l9.84-35.476l-0.431,3.278
		c-0.057,2.476,0.374,4.546,1.294,6.217c2.82,5.234,10.013,5.234,21.579,0c5.926-2.705,15.249-3.223,27.965-1.555
		c7.48,0.978,19.22,3.078,35.216,6.3c13.925,2.476,24.312,3.194,31.16,2.159c9.207-1.438,14.53-6.101,15.968-13.983l1.553,7.94
		c0.461,5.928-0.776,10.416-3.711,13.466l-10.79,10.618c-4.085,3.395-7.596,5.351-10.53,5.869
		c-3.625,0.572-11.422-0.662-23.391-3.713c-12.544-3.164-21.55-6.389-27.016-9.666c-5.697-3.453-11.624-5.354-17.781-5.697
		C185.195,536.747,177.024,537.667,166.609,539.911"/>
	<path fill="#593984" d="M107.052,524.462c3.395-15.479,7.682-25.232,12.86-29.261c3.913-0.229,7.769-1.467,11.566-3.711
		c5.524-3.224,7.682-7.48,6.474-12.774c0.978,0.862,3.913,2.303,8.804,4.314l-10.099-5.955c-1.727,0.575-5.438,3.797-11.134,9.666
		c-6.272,6.446-10.358,11.74-12.257,15.883c-2.186,4.719-4.517,12.804-6.991,24.255c-2.532,11.682-3.453,18.932-2.762,21.75
		C103.167,544.832,104.347,536.775,107.052,524.462 M177.916,489.159c1.496,1.151,2.56,2.417,3.193,3.799l-2.071,0.776l-1.036,0.432
		c-3.913,1.782-8.545,4.459-13.896,8.026c-5.64,3.741-9.379,6.732-11.221,8.978c-1.726,2.129-3.711,7.51-5.955,16.139l-6.733,24.084
		l10.099-1.984c6.732-1.956,12.17-5.122,16.314-9.496l11.307-1.641l14.673-1.121c3.28,0,8.919,1.668,16.918,5.006
		c6.444,2.648,13.465,5.984,21.061,10.014l-14.76,12.171c-9.092,7.191-15.077,10.962-17.954,11.306l-13.465-0.604l-9.581-2.417
		c-2.188-0.461-6.618,0.69-13.293,3.453c-7.308,3.049-12.515,4.632-15.623,4.747c-6.905,0.346-16.601-3.598-29.088-11.825
		l-14.069-9.753c-5.122-3.512-8.948-5.841-11.48-6.991v0.086l-0.863-0.433l-1.64-0.518v-0.174
		c-4.028-1.668-8.143-2.474-12.343-2.416l-5.093,0.604c-2.071,5.466-1.467,15.938,1.813,31.418
		c1.668,7.768,3.51,14.961,5.524,21.577C62.311,594.404,48.76,581.257,38,562.959c-3.337-5.697-6.214-11.566-8.632-17.609
		l-2.589-7.336c8.517,9.264,18.471,11.537,29.865,6.818c5.812-2.416,11.508-5.984,17.09-10.702c2.819-0.807,8.861-0.03,18.125,2.329
		l0.863-0.775c-10.76-17.666-17.321-42.697-19.68-75.096c3.28,13.063,9.782,20.573,19.507,22.528
		c7.768,1.555,14.875-0.144,21.319-5.093l14.5-11.566c4.604-3.452,7.855-5.033,9.754-4.745c8.458-0.403,16.918,2.935,25.376,10.012
		C169.889,477.075,174.693,482.888,177.916,489.159"/>
	<path fill="#593984" d="M314.811,410.699c-3.971-1.381-7.999-2.992-12.084-4.833c-8.229-3.567-12.717-6.387-13.466-8.459
		l18.816,6.301c16.4,4.66,34.239,8.171,53.515,10.531c61.688,7.594,126.309,2.271,193.863-15.968
		c3.338-0.921,6.877-1.669,10.618-2.245l3.883-0.173c-4.891,2.302-10.788,4.833-17.693,7.595
		c-13.811,5.523-25.693,9.379-35.647,11.566l-1.036,7.596l-17.865,5.265l-3.627-7.423l-50.493,6.387l-2.071,8.372l-20.457,0.521
		l-3.885-7.165l-30.901-0.345l-1.985,6.989l-18.902-2.07l-2.677-7.94l-30.038-6.992l-1.294,6.646l-14.846-7.51L314.811,410.699"/>
	<path fill="#CE7486" d="M440.226,440.736l-1.726,4.661c-2.128,5.64-3.741,9.179-4.835,10.618c0.807-1.151,1.843-3.655,3.107-7.511
		C438.211,444.132,439.361,441.543,440.226,440.736c1.9-5.467,2.992-9.812,3.281-13.034l22.96-3.021l27.619-4.229
		c7.424,14.271,11.537,21.463,12.344,21.579c0.688,0.058,2.329-2.937,4.92-8.979c2.705-6.503,4.486-12.228,5.352-17.177
		l18.903-5.955c13.35-4.488,21.924-7.854,25.721-10.098c-5.869,12.314-12.487,23.563-19.853,33.749
		c-8.804,12.142-17.952,21.605-27.448,28.396c-7.191-5.87-17.521-10.703-30.985-14.501c-12.432-3.566-26.499-5.927-42.208-7.076
		C440.658,440.394,440.455,440.507,440.226,440.736 M332.246,418.122c19.334,4.258,29.548,6.33,30.642,6.216
		c1.438,5.178,4.373,11.221,8.804,18.125c3.971,6.272,6.358,9.352,7.164,9.235c0.518-0.057,1.813-3.712,3.884-10.962l3.54-12.515
		l30.901,0.345l8.115,15.623c4.198,8.343,6.674,12.515,7.422,12.515c-1.438-0.058-3.308-2.387-5.609-6.99
		c-2.82-5.695-4.69-9.063-5.612-10.1c-13.521-0.114-26.066,0.69-37.633,2.418c-0.69,0.115-1.553,1.928-2.589,5.438
		c-1.093,3.511-1.956,5.295-2.589,5.352c-0.805,0.174-2.043-1.266-3.711-4.314c-1.726-2.993-2.964-4.432-3.711-4.315
		c-16.745,3.625-28.34,8.688-34.785,15.189c-8.056-7.421-15.969-17.031-23.736-28.829c-4.95-7.65-10.157-16.772-15.623-27.36
		c2.589,1.669,8.573,4.575,17.953,8.718c0.863,3.567,3.223,8.113,7.078,13.639c3.51,5.006,5.553,7.452,6.128,7.337
		c0.345-0.058,0.92-1.985,1.726-5.783L332.246,418.122"/>
	<path fill="#593984" d="M738.012,178.255c8.572-6.1,13.665-8.257,15.276-6.473c2.014,2.302-9.407,19.334-34.266,51.098
		c-32.11,40.05-54.896,68.879-68.361,86.487c9.84-37.92,29.059-72.59,57.657-104.008
		C718.676,193.965,728.573,184.93,738.012,178.255"/>
	<path fill="#593984" d="M720.574,353.387c-30.152,26.297-48.479,42.726-54.982,49.286c3.166-24.111,19.395-46.092,48.685-65.944
		c10.299-6.963,20.341-12.372,30.123-16.227c8.977-3.51,13.607-4.345,13.896-2.503C758.524,319.38,745.951,331.176,720.574,353.387"
		/>
	<path fill="#593984" d="M709.183,425.2c9.726-3.683,18.326-5.783,25.808-6.3c1.208,1.38-8.343,8.718-28.655,22.009l-30.902,19.507
		l-12.859,0.26C674.08,444.507,689.617,432.682,709.183,425.2"/>
	<path fill="#593984" d="M229.791,138.81c8.804,14.788,16.832,30.813,24.082,48.077c21.003,50.293,25.203,86.516,12.602,108.669
		c-9.035-28.08-17.925-56.42-26.671-85.019c-17.437-57.141-25.262-86.977-23.479-89.508
		C217.361,119.533,221.849,125.46,229.791,138.81"/>
	<path fill="#593984" d="M176.449,280.452c0.863-0.748,6.214,2.618,16.054,10.099c11.278,8.632,21.779,18.041,31.505,28.225
		c29.174,30.498,40.309,56.393,33.403,77.683c-14.213-18.701-28.225-37.576-42.035-56.622
		C187.64,301.743,174.664,281.948,176.449,280.452"/>
	<path fill="#593984" d="M203.896,412.601c29.865,8.284,54.378,19.533,73.541,33.748c21.981,16.283,43.474,40.825,64.476,73.626
		L203.896,412.601"/>
	<path fill="#0D131A" d="M377.819,200.438c0.403,0.288-0.517,0.978-2.762,2.071c-2.244,1.094-3.481,1.553-3.711,1.381
		c-22.672-16.227-48.106-33.433-76.302-51.617c-27.16-17.493-48.221-30.383-63.182-38.668c-8.057-4.431-12.487-6.33-13.293-5.697
		c-1.093,0.749-0.431,6.33,1.985,16.745c4.374,19.048,13.322,51.79,26.845,98.227l20.198,68.361c1.266,4.718,1.352,7.51,0.258,8.372
		c-1.151,0.921-2.705-1.323-4.661-6.732c-2.761-7.422-10.099-30.785-22.01-70.087c-13.12-43.388-21.866-74.029-26.239-91.925
		c-2.648-11.048-4.172-18.903-4.575-23.563c-0.403-5.179,0.46-8.257,2.589-9.236c1.957-0.863,5.61,0.029,10.962,2.675l20.888,12.17
		c13.638,8.344,35.446,22.385,65.426,42.122C341.366,175.465,363.894,190.599,377.819,200.438"/>
	<path fill="#0D131A" d="M166.091,266.21c1.323-2.302,7.135-2.302,17.435,0l39.792,10.099c23.765,5.985,37.518,9.034,41.258,9.15
		c0.461,0,0.892,0.805,1.295,2.417c0.345,1.611,0.259,2.388-0.259,2.33c-5.985-0.345-18.212-2.646-36.684-6.905l-42.468-10.359
		c-6.042-1.438-9.495-1.697-10.358-0.776c-0.748,0.863,0.23,3.51,2.936,7.94c4.431,7.136,13.954,21.118,28.569,41.949l48.509,69.569
		c3.625,5.122,4.92,8.229,3.884,9.323c-1.093,1.15-3.395-0.749-6.905-5.697c-40.28-53.86-67.353-91.896-81.221-114.107
		C166.925,273.144,164.997,268.167,166.091,266.21"/>
	<path fill="#0D131A" d="M234.365,399.307l-24.513,3.883c-5.294,0.749-7.999,1.555-8.114,2.417
		c-0.057,0.807,2.158,2.993,6.646,6.561l55.845,42.641c37.058,28.599,63.182,49.89,78.374,63.871l5.092,9.582
		c-15.191-13.466-42.237-35.044-81.135-64.735l-64.045-48.251c-7.654-5.813-11.538-9.61-11.653-11.393
		c-0.229-2.419,4.518-4.288,14.243-5.61c27.908-3.856,43.704-6.676,47.386-8.459c0.403-0.229,1.036,0.316,1.899,1.64
		c0.92,1.323,1.208,2.043,0.863,2.157C251.513,395.509,244.55,397.407,234.365,399.307"/>
	<path fill="#0D131A" d="M565.642,208.12c0.46,0.288-0.114,0.95-1.727,1.985c-1.611,1.036-2.647,1.41-3.108,1.122
		c-35.217-20.37-74.576-28.542-118.076-24.514c-18.128,1.669-34.986,5.409-50.583,11.221c-14.846,5.582-26.556,12.257-35.129,20.025
		c-4.086,3.625-6.589,5.035-7.51,4.229c-0.979-0.863,0.46-3.222,4.316-7.078c8.861-8.861,20.859-16.342,35.993-22.441
		c15.768-6.33,33.03-10.329,51.789-11.997C485.801,176.702,527.145,185.851,565.642,208.12"/>
	<path fill="#0D131A" d="M749.664,153.915c11.392-2.532,17.693-3.136,18.901-1.812c1.382,1.496-1.15,7.25-7.597,17.262
		c-7.135,11.106-24.627,34.526-52.478,70.26c-21.178,27.16-38.986,49.603-53.431,67.325c-3.511,4.374-5.897,6.214-7.163,5.524
		c-1.323-0.633-0.374-3.194,2.849-7.683c6.156-8.631,23.188-30.871,51.098-66.721c26.355-33.893,43.416-56.507,51.187-67.843
		c4.258-6.272,6.099-9.725,5.522-10.357c-0.519-0.575-4.546,0-12.084,1.727c-19.334,4.315-53.228,13.579-101.678,27.793
		c-36.425,10.703-68.274,20.313-95.55,28.829c-4.721,1.438-7.224,1.467-7.51,0.087c-0.23-1.438,1.955-3.107,6.56-5.007
		c16.688-6.905,50.177-17.666,100.469-32.281C695.313,167.552,728.948,158.518,749.664,153.915"/>
	<path fill="#0D131A" d="M659.033,300.908c-0.403-0.115-0.461-0.749-0.173-1.899c0.287-1.151,0.662-1.668,1.123-1.553
		c6.787,1.957,21.865,2.877,45.229,2.763l49.199-0.345c11.911,0.345,18.586,1.294,20.024,2.848
		c2.128,2.417-1.755,8.172-11.653,17.263L712.72,362.97c-30.326,26.067-46.582,40.566-48.767,43.502
		c-3.281,4.258-5.008,5.38-5.18,3.366c-0.23-2.015,1.209-4.805,4.314-8.374c5.582-6.443,21.147-20.858,46.696-43.242l46.695-40.481
		c6.329-5.581,9.352-8.977,9.063-10.185c-0.287-0.978-3.797-1.583-10.53-1.813l-49.717-0.346
		C681.418,304.879,665.995,303.383,659.033,300.908"/>
	<path fill="#0D131A" d="M694.508,406.988l-28.396-5.353l2.504-3.625l52.737,8.198c13.982,2.245,21.377,4.719,22.184,7.424
		c0.863,3.106-5.18,9.034-18.126,17.781c-7.538,5.121-15.537,10.271-23.996,15.45l-25.463,14.415l-7.25-1.124
		c2.589-0.517,11.221-5.438,25.896-14.759c14.154-8.979,25.95-16.917,35.39-23.822c3.738-2.705,5.552-4.604,5.437-5.697
		c-0.057-1.149-2.158-2.101-6.301-2.849L694.508,406.988"/>
	<path fill="#0D131A" d="M328.793,506.94c-2.475-3.396-3.395-5.729-2.761-6.993c0.575-1.208,2.157-0.172,4.747,3.109
		c24.628,31.131,54.436,58.002,89.424,80.616c20.6,13.351,50.004,28.856,88.213,46.522l22.096,10.356l1.728,5.697
		c-5.122-2.474-13.554-6.129-25.291-10.962c-37.46-15.479-67.238-30.324-89.336-44.537
		C382.164,568.021,352.558,540.085,328.793,506.94"/>
	<path fill="#0D131A" d="M641.252,650.308c-0.517,1.095-4,0.203-10.444-2.676c-2.935-1.323-7.25-3.537-12.945-6.646l-8.891-4.833
		c3.511,5.12,14.326,19.68,32.454,43.674c9.265,12.257,13.378,19.479,12.342,21.666c-1.149,2.358-8.228-0.808-21.232-9.495
		l-31.852-22.097c-13.751-9.61-22.324-15.334-25.721-17.178l4.747,9.842c3.741,7.65,5.093,11.938,4.057,12.858
		c-1.149,1.036-5.522-1.12-13.119-6.474c-10.991-7.594-20.429-13.405-28.311-17.437l1.036-4.571
		c12.025,6.041,22.183,12.312,30.468,18.814c2.302,1.783,3.653,2.531,4.058,2.244c0.346-0.287,0.028-1.554-0.95-3.799l-4.574-10.355
		c-1.61-3.568-2.128-5.612-1.553-6.13c0.459-0.46,2.128,0.059,5.005,1.554c6.963,3.625,24.14,14.645,51.53,33.059l12.773,8.633
		c2.877,1.956,4.488,2.761,4.834,2.417c0.345-0.346-0.489-1.87-2.504-4.575c-10.76-14.328-22.729-31.131-35.907-50.406
		c-2.474-3.625-3.479-6.016-3.021-7.165c0.461-1.208,2.358-1.036,5.696,0.518l8.373,4.489c5.063,2.818,9.033,4.835,11.911,6.043
		c2.819,1.208,4.374,1.553,4.66,1.034c0.289-0.461-0.432-2.158-2.158-5.092c-8.571-13.867-13.837-23.563-15.795-29.09l6.043,1.641
		c4.661,10.761,8.805,19.134,12.43,25.117C639.699,644.295,641.885,649.1,641.252,650.308"/>
	<path fill="#0D131A" d="M726.445,491.146c9.321,19.622,10.962,35.677,4.919,48.161c-4.433,9.266-12.285,19.508-23.564,30.73
		c-12.142,11.967-23.188,19.852-33.145,23.648c-6.616,2.474-10.301,3.309-11.049,2.504c-0.574-0.635,0.115-4.26,2.072-10.877
		c3.453-11.276,4.229-23.045,2.331-35.303c-1.843-11.623-5.496-20.427-10.963-26.41c-3.165-3.513-3.854-5.15-2.072-4.922
		c1.843,0.174,4.201,2.042,7.078,5.609c13.178,16.111,15.395,38.036,6.646,65.771c9.437-2.188,20.542-9.293,33.315-21.32
		c11.971-11.276,20.228-21.691,24.773-31.244c2.072-4.314,3.106-9.12,3.106-14.415c0-11.104-3.94-23.333-11.824-36.683
		c-6.791-11.566-12.774-18.731-17.954-21.492c-4.085-2.188-11.94-2.994-23.564-2.417c-11.162,0.517-17.692,1.725-19.592,3.625
		c-1.267,1.266-3.999,5.812-8.201,13.639l-6.559,11.566c-2.589,4.199-4.806,7.395-6.646,9.579
		c-6.271,7.137-17.896,14.356-34.873,21.666c-15.65,6.73-26.957,10.099-33.92,10.099l-6.043-0.69l-8.2-0.777
		c-2.99,0.058-5.235,0.863-6.73,2.416c-1.613,1.557-5.149,4.52-10.617,8.893c-7.021,5.521-12.142,9.84-15.363,12.948
		c-5.582,5.349-8.892,9.926-9.926,13.723c-0.289,0.921-0.432,2.272-0.432,4.058c0,7.537,2.848,19.019,8.545,34.438
		c5.408,14.675,11.393,27.679,17.952,39.016c2.129,3.624,3.481,5.608,4.057,5.956c0.979,0.574,1.468-1.323,1.468-5.695
		c0-10.82,1.323-19.597,3.972-26.327c1.841-4.661,5.121-9.727,9.84-15.192c1.495-1.668,3.021-2.934,4.574-3.797
		c1.554-0.922,4.144-1.956,7.769-3.106c6.101-1.898,10.818-4.633,14.156-8.199c3.222-3.452,5.265-7.855,6.127-13.206
		c0.689-4.261,1.383-6.589,2.071-6.993c0.748-0.518,1.209,1.814,1.382,6.993c0.172,6.905-1.87,12.487-6.127,16.743
		c-3.339,3.396-8.23,6.101-14.676,8.113l-5.005,1.383c-1.958,0.518-3.08,0.979-3.367,1.381c-5.063,5.813-8.832,11.797-11.308,17.951
		c-3.279,8.229-5.148,18.473-5.611,30.729c-0.286,7.25-0.805,10.989-1.553,11.221c-0.921,0.288-3.654-2.819-8.201-9.321
		c-7.766-10.99-15.16-25.896-22.181-44.711c-7.482-19.795-10.388-33.461-8.717-41c1.321-6.041,7.307-13.838,17.951-23.392
		c5.468-4.891,11.711-10.358,18.73-16.399c1.783-2.244,4.891-3.25,9.321-3.021l10.616,1.64l5.524,0.604
		c3.51,0,13.694-3.541,30.554-10.618c18.529-7.824,30.066-14.327,34.612-19.507c3.224-3.74,7.452-10.386,12.688-19.938
		c5.121-9.266,8.459-14.701,10.014-16.313c2.703-2.703,10.355-4.431,22.959-5.179c12.659-0.805,21.176,0,25.549,2.417
		c2.877,1.554,6.503,5.179,10.875,10.876C718.733,476.931,722.876,483.722,726.445,491.146"/>
	<path fill="#0D131A" d="M609.489,606.634c11.507,0.978,21.492-0.347,29.95-3.971c4.259-1.843,6.156-2.13,5.695-0.864
		c-0.46,1.208-2.818,2.733-7.077,4.576c-10.415,4.43-20.888,6.07-31.418,4.92c-12.43-1.325-21.062-6.617-25.895-15.882
		c-0.231-0.405,0.172-0.894,1.208-1.468l1.897-0.172C587.767,601.193,596.312,605.482,609.489,606.634"/>
	<path fill="#0D131A" d="M620.45,610.346c0.979-0.691,1.61-0.835,1.898-0.434c2.764,4.145,9.293,7.078,19.595,8.806
		c9.379,1.554,17.319,1.583,23.821,0.087c12.027-2.705,22.385-1.986,31.072,2.157c7.999,3.797,13.149,9.696,15.451,17.693
		c1.15,3.799,1.41,6.069,0.775,6.818c-0.575,0.748-1.467-0.402-2.675-3.452c-2.819-7.537-8.546-13.379-17.178-17.522
		c-9.033-4.314-17.953-5.034-26.757-2.156c-7.021,2.302-15.594,2.475-25.721,0.519c-10.763-2.072-17.867-5.727-21.32-10.963
		C619.127,611.495,619.473,610.979,620.45,610.346"/>
	<path fill="#0D131A" d="M724.373,578.063c3.28,3.799,8.546,8.145,15.795,13.035l7.941,5.696c2.53,2.015,4,3.771,4.401,5.265
		c1.209,4.547,1.842,13.522,1.899,26.931c0.057,13.867-0.662,23.046-2.159,27.535c-1.38,4.198-7.451,9.119-18.211,14.76
		c-12.832,6.789-26.845,10.905-42.036,12.343c-5.754,0.575-8.832,0.258-9.235-0.95c-0.345-1.149,1.41-4.172,5.266-9.063
		c5.235-6.5,9.093-12.543,11.565-18.126c4.028-8.86,5.266-17.492,3.713-25.896c-0.058-0.459,0.401-0.4,1.381,0.174
		c1.035,0.576,1.61,1.093,1.727,1.556c1.438,5.982,0.805,13.176-1.898,21.576c-2.591,7.94-6.243,14.788-10.962,20.544
		c-2.13,2.589-3.052,4.085-2.763,4.487l5.351-0.086c12.774-1.783,24.773-5.523,35.993-11.22c9.956-5.066,15.565-9.467,16.833-13.207
		c0.92-2.819,1.38-7.97,1.38-15.45c0-6.445-0.315-13.207-0.948-20.283c-0.576-6.964-1.237-11.77-1.985-14.416
		c-0.346-1.438-3.424-4.113-9.235-8.026c-7.365-5.007-12.746-9.38-16.141-13.12c-5.927-6.502-9.093-13.637-9.494-21.404
		c0-0.289,0.604-1.009,1.813-2.16c1.208-1.149,1.813-1.494,1.813-1.033C716.174,564.943,718.907,571.792,724.373,578.063"/>
	<path fill="#0D131A" d="M237.99,489.765l10.272-1.383l15.019-1.467c1.323,0,2.935,0.633,4.833,1.898l4.23,3.625
		c3.913,4.374,7.25,10.301,10.013,17.781c3.222,8.917,4.431,17.319,3.625,25.202c-0.345,2.993-4.028,7.568-11.048,13.727
		c-7.308,6.386-13.005,9.58-17.09,9.58c-6.56,0-14.041-1.324-22.442-3.972l-23.563-8.89l-13.552-5.18
		c-3.338-1.209-7.02-1.754-11.048-1.641l-11.652,1.467l-6.474,0.95c-5.236,4.892-9.897,8.313-13.982,10.271
		c-4.028,1.898-8.287,2.734-12.774,2.504c-3.856-0.229-5.899-0.807-6.128-1.727l1.467-4.49c7.193-20.83,11.451-32.739,12.774-35.731
		c2.359-5.235,12.746-12.918,31.159-23.046l10.357-7.424l5.179,0.174l9.236,2.503l15.104,3.972
		C227.95,489.907,233.445,490.339,237.99,489.765 M268.287,495.115c-2.532-2.704-4.402-4.058-5.61-4.058l-22.615,2.071l-1.726,0.173
		l-17.262-0.689c-3.741-0.575-8.919-1.728-15.537-3.453c-6.56-1.669-10.214-2.33-10.962-1.985
		c-3.453,1.957-6.934,3.885-10.444,5.784l-18.644,10.702c-6.675,4.258-10.588,7.624-11.739,10.098
		c-2.245,5.064-6.042,16.92-11.393,35.563c2.589,0.23,5.696-0.26,9.321-1.467c3.971-1.324,7.711-3.281,11.221-5.869l-4.057,0.26
		c-3.453,0-3.971-0.547-1.554-1.641s5.841-1.928,10.272-2.504l7.423-1.121l12.256-2.071c4.604-0.462,8.689-0.058,12.256,1.208
		l13.638,6.474c10.531,4.085,18.155,6.819,22.873,8.201c7.941,2.302,15.076,3.451,21.406,3.451c3.165,0,8.027-2.906,14.587-8.718
		c6.214-5.523,9.437-9.236,9.667-11.135c0.691-6.675-0.403-13.955-3.28-21.839C275.739,505.53,272.372,499.719,268.287,495.115"/>
	<path fill="#0D131A" d="M94.967,433.056c13.983-13.005,23.161-19.708,27.534-20.111c4.489-0.459,13.695,1.323,27.621,5.353
		c14.098,4.084,22.845,7.595,26.239,10.53l23.909,28.829c14.443,17.607,25.492,29.002,33.145,34.179l-2.848,0.434
		c-2.417-0.059-3.914-0.375-4.489-0.948c-6.79-6.274-17.436-17.753-31.936-34.44c-12.083-13.928-19.362-22.56-21.837-25.897
		c-1.553-1.093-9.609-3.567-24.167-7.421c-14.616-3.915-23.161-5.869-25.636-5.869c-2.761,0.344-10.646,6.5-23.65,18.47
		c-13.292,12.256-20.427,20.228-21.406,23.91c-0.805,3.164-1.208,6.963-1.208,11.393c0,10.187,2.13,22.011,6.387,35.477
		c4.028,12.543,8.718,23.103,14.07,31.677c2.647,4.2,4.2,6.243,4.661,6.129c0.288-0.06,0.69-2.302,1.208-6.733
		c1.208-9.781,2.964-18.758,5.265-26.931c1.957-7.021,3.74-11.507,5.352-13.463c2.59-3.224,6.416-7.51,11.48-12.862
		c6.616-7.021,10.53-10.415,11.738-10.186c1.036,0.174,3.309,1.15,6.819,2.937c2.129,1.094,5.783,3.192,10.962,6.302
		c4.545,2.416,7.681,3.338,9.408,2.761l4.833-0.172c0,0.979-1.611,1.983-4.833,3.021c-2.705,0.921-7.193,0.03-13.465-2.677
		c-2.877-1.266-7.509-3.651-13.896-7.163c-10.243,10.243-16.343,16.572-18.299,18.989c-1.784,2.244-3.941,7.423-6.473,15.536
		c-3.222,10.242-5.294,20.715-6.215,31.418c-0.345,3.855-0.92,5.871-1.726,6.043c-0.691,0.115-2.331-1.295-4.92-4.229
		c-7.884-9.207-14.818-22.99-20.802-41.346c-6.502-19.968-8.286-35.677-5.352-47.127C73.533,454.547,81.042,445.944,94.967,433.056"
		/>
	<path fill="#0D131A" d="M73.13,497.016l3.366-0.089l1.64,3.541l-4.92,0.084L52.5,501.676c-2.992,3.453-6.962,9.006-11.911,16.657
		c-6.56,10.127-9.84,17.063-9.84,20.802c0,4.719,3.107,12.432,9.322,23.133c8.862,15.422,20.859,27.821,35.994,37.203
		c-4.201-11.337-6.733-21.58-7.596-30.729c-0.921-8.688-0.374-17.003,1.64-24.944c0.92-3.738,1.957-5.841,3.107-6.301
		c1.093-0.459,1.41,1.181,0.949,4.921c-0.92,7.537-1.151,15.394-0.69,23.563c0.748,12.89,3.165,25.146,7.25,36.77
		c0.576,1.497,0.489,2.445-0.259,2.85c-0.806,0.461-2.302,0.086-4.489-1.123c-14.616-8.17-27.045-19.767-37.287-34.785
		c-8.172-11.912-12.717-21.779-13.639-29.604c-0.517-4.72,2.877-12.776,10.186-24.168c6.732-10.416,11.422-16.371,14.069-17.868
		c1.611-0.86,4.057-1.294,7.337-1.294L73.13,497.016"/>
	<path fill="#0D131A" d="M135.794,478.283l1.813,0.173c1.381,0.634,2.072,1.322,2.072,2.072c0,3.911-0.403,6.473-1.209,7.681
		c-3.049,4.661-10.559,7.972-22.528,9.928c0.863-1.382,1.985-2.792,3.367-4.229c8.517-1.727,13.925-4.286,16.227-7.682
		C136.974,483.98,137.06,481.333,135.794,478.283"/>
	<path fill="#0D131A" d="M230.913,551.219c0.69-0.23,1.755,0.145,3.193,1.123c1.438,1.036,1.87,1.582,1.294,1.641
		c-3.395,0.115-9.351,3.885-17.867,11.307c-8.919,7.826-15.335,12.145-19.249,12.945l-8.287-0.258l-8.026-2.069
		c-4.144-1.037-7.193-1.497-9.149-1.382c-2.014,0.115-4.834,0.892-8.459,2.33l-9.667,3.711c-4.488,1.438-8.602,2.072-12.342,1.898
		c-5.41-0.23-11.192-2.043-17.35-5.438l-16.4-10.788c-9.609-6.56-15.825-10.56-18.644-11.998
		c-6.848-3.451-12.918-4.487-18.212-3.106c-0.46,0.114-0.863-0.404-1.208-1.555c-0.288-1.15-0.173-1.784,0.345-1.898
		c6.042-1.555,12.774-0.691,20.198,2.59c4.488,2.015,10.991,5.982,19.507,11.912c7.193,4.892,12.631,8.313,16.313,10.271
		c6.158,3.224,11.739,4.946,16.745,5.178l10.789-1.12l8.632-3.021c4.201-1.672,7.509-2.533,9.927-2.592
		c2.014-0.113,5.293,0.373,9.84,1.468l7.077,1.555l6.732-0.173c2.014-0.46,4.518-1.727,7.509-3.798l8.459-6.646
		c4.085-3.396,7.135-5.783,9.149-7.166C225.158,553.723,228.208,552.082,230.913,551.219"/>
	<path fill="#0D131A" d="M431.076,382.13c-3.05,5.467-5.178,7.826-6.388,7.078c-1.266-0.69-0.461-3.741,2.418-9.15
		c9.207-17.435,24.514-36.165,45.917-56.19c21.981-20.485,44.973-37.258,68.968-50.321c4.43-2.417,7.651-3.423,9.667-3.021
		c2.071,0.345,0.892,1.727-3.54,4.143c-22.844,12.429-46.207,29.837-70.085,52.221C455.646,347.892,439.996,366.306,431.076,382.13"
		/>
	<path fill="#0D131A" d="M427.97,385.928c-0.519-0.058-0.403-0.604,0.346-1.64c0.748-1.036,1.381-1.525,1.898-1.468
		c7.825,1.612,19.881,1.928,36.165,0.949c18.185-1.15,34.123-3.625,47.818-7.422c7.997-2.187,13.725-5.323,17.178-9.409
		c2.933-3.51,5.265-9.264,6.989-17.262c2.015-9.092,3.08-20.371,3.193-33.835c0.059-13.465-0.835-26.326-2.675-38.583
		c-0.057-0.517,0.574-1.006,1.898-1.467c1.381-0.46,2.102-0.46,2.159,0c2.069,13.292,3.221,26.585,3.451,39.877
		c0.229,14.386-0.66,26.096-2.677,35.13c-1.898,8.631-4.688,15.105-8.373,19.42c-4.2,5.007-10.702,8.718-19.508,11.135
		c-13.809,3.855-30.438,6.042-49.89,6.56C449.376,388.432,436.716,387.769,427.97,385.928"/>
	<path fill="#0D131A" d="M365.995,375.397c2.071,5.294,2.502,8.2,1.294,8.717c-1.266,0.576-2.992-1.755-5.179-6.991
		c-5.122-12.142-14.932-29.865-29.434-53.169c-14.213-22.845-25.491-39.159-33.834-48.94c-2.936-3.453-3.511-5.179-1.727-5.179
		c1.727,0,4.085,1.668,7.077,5.006c10.243,11.393,21.809,27.679,34.699,48.854C351.436,344.238,360.471,361.472,365.995,375.397"/>
	<path fill="#0D131A" d="M304.971,278.121c1.094,0.346,1.582,0.749,1.467,1.208c-3.107,9.956-4.489,23.248-4.143,39.877
		c0.345,16.573,2.272,28.858,5.782,36.857c2.993,6.905,10.819,12.602,23.479,17.09c11.278,3.97,22.269,5.753,32.972,5.351
		c0.517,0,0.892,0.547,1.121,1.64c0.23,1.093,0.087,1.639-0.431,1.639c-11.681,0.403-23.65-1.352-35.906-5.265
		c-14.386-4.604-23.247-10.761-26.585-18.472c-3.567-8.171-5.236-20.945-5.006-38.323c0.172-16.802,1.927-30.613,5.265-41.431
		L304.971,278.121"/>
	<path fill="#0D131A" d="M331.469,416.568c0.633-0.633,1.727-0.748,3.28-0.345c9.437,2.474,17.925,4.344,25.463,5.608
		c1.841,0.289,3.078,0.864,3.711,1.729l1.813,3.969c2.531,5.697,5.869,11.566,10.012,17.606l2.244,2.85
		c0.518,0,1.266-1.581,2.245-4.745l3.971-13.727l1.208-3.278c0.518-0.806,1.467-1.151,2.849-1.036l25.981,0.777
		c1.843,0,3.107,0.314,3.797,0.947c0.348,0.289,1.149,1.583,2.418,3.886l9.668,18.902l2.329,3.797
		c0.346,0.059,1.065-1.266,2.159-3.969c2.646-6.618,4.833-13.206,6.558-19.768l1.036-3.885c0.402-0.747,1.583-1.208,3.541-1.381
		c14.847-1.266,29.893-3.366,45.141-6.302l4.146,0.088l1.725,3.453c4.893,9.265,8.115,15.076,9.669,17.436
		c3.912-6.904,6.561-14.127,7.94-21.665c0.46-2.245,0.835-3.567,1.122-3.972c0.518-0.806,1.899-1.495,4.143-2.071
		c20.198-5.581,36.339-11.134,48.423-16.658c3.339-1.497,5.035-1.698,5.094-0.604c0.058,1.035-1.871,2.617-5.783,4.747
		c-6.329,3.509-14.068,6.819-23.218,9.925l-25.55,7.511c-1.266,6.387-3.166,12.745-5.696,19.074
		c-2.764,6.905-4.949,10.271-6.562,10.099c-0.574-0.059-1.813-1.726-3.711-5.005l-9.668-17.953
		c-15.824,3.222-31.879,5.522-48.163,6.902c-1.727,7.079-3.567,13.409-5.523,18.991c-2.704,7.652-4.921,11.509-6.646,11.566
		c-1.325,0.057-4.2-4.403-8.632-13.379l-7.51-15.797l-28.83-0.95l-0.517,1.899l-5.524,19.593c-0.806,2.419-1.612,3.654-2.417,3.713
		c-1.553,0.172-4.373-3.225-8.458-10.187c-3.683-6.214-6.704-12.257-9.063-18.126c-10.127-1.727-19.449-3.854-27.966-6.387
		c-1.783,9.264-3.279,14.644-4.488,16.141c-0.979,1.267-3.568-1.438-7.768-8.112c-4.028-6.33-6.646-11.396-7.855-15.192
		c-6.675-2.818-13.177-6.156-19.507-10.011c-5.467-3.338-8.229-5.754-8.287-7.25c-0.057-1.438,2.648-0.489,8.115,2.849
		c4.718,2.819,11.364,6.157,19.938,10.011l2.072,1.555l2.158,4.575c2.359,4.947,4.862,9.118,7.509,12.515l1.813,1.899l0.95-2.591
		l1.899-7.423C330.721,417.922,331.124,416.973,331.469,416.568"/>
	<path fill="#0D131A" d="M558.65,400.688c0.229-0.403,1.033-0.632,2.416-0.69c1.438,0,2.042,0.201,1.813,0.604
		c-9.668,22.438-22.643,40.999-38.929,55.672c-13.866,12.485-29.663,21.78-47.387,27.879l-3.279,0.088l-3.539-2.418l-8.893-8.544
		c-1.034-0.979-1.694-1.468-1.983-1.468c-0.345,0-0.776,0.604-1.294,1.813l-5.266,11.652l-2.503,3.971
		c-0.635,0.229-1.9-0.807-3.799-3.108l-10.443-13.118l-1.641-1.984c-0.401-0.058-1.122,0.805-2.156,2.589l-7.854,13.896
		c-1.269,2.187-2.188,3.277-2.764,3.277c-0.575,0.059-1.641-1.092-3.191-3.451l-9.928-15.02l-2.071-2.675
		c-0.46-0.115-1.208,0.747-2.244,2.59l-6.043,11.221c-1.438,2.878-2.388,4.287-2.848,4.229c-0.518-0.058-1.87-1.841-4.057-5.352
		l-8.544-13.292c-0.691-1.095-1.208-1.642-1.554-1.642c-0.345,0-0.748,0.604-1.208,1.814l-3.193,8.024
		c-1.151,2.417-2.1,3.567-2.849,3.453c-0.806-0.115-2.273-1.784-4.402-5.005l-6.646-9.926c-0.863-1.383-1.496-2.072-1.898-2.072
		c-0.346-0.058-0.72,0.489-1.123,1.64l-1.899,5.179c-0.978,2.071-2.043,3.223-3.194,3.451c-1.093,0.175-2.704-0.4-4.834-1.725
		c-12.083-7.77-22.988-18.472-32.713-32.109c-5.812-8.229-12.976-20.602-21.492-37.114c-0.23-0.403,0.402-0.403,1.899,0
		c1.496,0.4,2.331,0.775,2.502,1.122c7.193,13.693,14.3,25.203,21.32,34.523c9.207,12.201,19.162,21.981,29.865,29.349l2.676,1.641
		c0.46,0,0.979-0.776,1.554-2.331l2.761-7.941c0.921-1.955,1.612-2.963,2.072-3.021c0.575-0.058,1.611,1.036,3.107,3.28
		l7.854,12.257c1.267,1.956,2.014,2.906,2.244,2.849c0.288,0,0.834-1.122,1.641-3.367l2.848-7.681
		c1.093-2.705,1.927-4.058,2.503-4.058c0.575,0,1.755,1.469,3.539,4.4l9.409,15.97l1.726,2.329l1.641-2.676l6.215-13.033
		c1.325-2.646,2.302-3.971,2.935-3.971c0.575,0,1.697,1.267,3.366,3.797l10.358,16.229c0.92,1.438,1.581,2.101,1.983,1.985
		l1.556-2.503l7.249-13.292c1.497-2.646,2.562-4,3.193-4.059c0.634,0,1.93,1.238,3.884,3.712l10.187,13.379
		c0.921,1.266,1.496,1.843,1.728,1.728l1.208-2.504l5.007-11.909c1.036-2.36,1.841-3.569,2.416-3.626l3.713,2.59l10.616,10.184
		c0.688,0.69,1.466,1.037,2.329,1.037l3.021-0.689c16.631-5.984,31.274-14.676,43.936-26.068
		C536.122,439.356,548.581,422.035,558.65,400.688"/>
	<path fill="#0D131A" d="M467.501,385.41c-0.806,0.115-1.555-0.69-2.242-2.417c-0.807-1.957-1.411-4.978-1.814-9.064
		c-0.92-9.609-0.519-14.586,1.21-14.932c0.921-0.23,1.756,0.892,2.501,3.366c0.808,2.589,1.41,6.215,1.813,10.876
		c0.23,3.222,0.23,5.985,0,8.287C468.737,384.058,468.249,385.353,467.501,385.41"/>
	<path fill="#0D131A" d="M343.208,355.113c0.806,0,1.496,1.18,2.071,3.539c0.575,2.187,0.978,5.093,1.208,8.718
		c0.288,3.855,0.288,6.818,0,8.891c-0.23,1.553-0.546,2.359-0.949,2.417c-1.726,0.172-2.877-3.367-3.453-10.617
		c-0.402-4.028-0.489-7.222-0.259-9.581C342.057,356.235,342.517,355.113,343.208,355.113"/>
</g>
</svg>
